<svg width="512" height="512" viewBox="0 0 512 512" fill="none" xmlns="http://www.w3.org/2000/svg">
<path d="M470 240V128C470 125.8 468.8 123.8 466.9 122.7L378.9 74.7C377.1 73.7 374.9 73.7 373.2 74.7L350 87.3V64C350 61.7999 348.8 59.7999 346.9 58.7L258.9 10.7C257.1 9.69995 254.9 9.69995 253.2 10.7L165.2 58.7C163.3 59.7999 162.1 61.7999 162.1 64V87.3L139 74.7C137.2 73.7 135 73.7 133.3 74.7L45.3 122.7C43.4 123.8 42.2 125.8 42.2 128V240C42.2 242.2 43.4 244.2 45.3 245.3L64.8 256L45.1 266.7C43.2 267.8 42 269.8 42 272V384C42 386.2 43.2 388.2 45.1 389.3L133.1 437.3C134.9 438.3 137.1 438.3 138.8 437.3L161.9 424.7V448C161.9 450.2 163.1 452.2 165 453.3L253 501.3C254.8 502.3 257 502.3 258.7 501.3L346.7 453.3C348.6 452.2 349.8 450.2 349.8 448V424.6L372.9 437.2C374.7 438.2 376.9 438.2 378.6 437.2L466.6 389.2C468.5 388.1 469.7 386.1 469.7 383.9V272C469.7 269.8 468.5 267.8 466.6 266.7L447.2 256L466.9 245.3C468.8 244.2 470 242.2 470 240ZM376 86.8L451.5 128L376 169.2L300.5 128L376 86.8ZM370 421.9L350 411V336C350 333.8 348.8 331.8 346.9 330.7L327.2 320L345.3 310.1L370 323.6V421.9ZM256 377.2L180.5 336L197.3 326.8L253.1 357.2C254.9 358.2 257.1 358.2 258.8 357.2L314.6 326.8L331.4 336L256 377.2ZM142 179.6L218 138.2V158L165.1 186.8C163.2 187.9 162 189.9 162 192.1V267.1L142 278V179.6ZM174 74.1L250 115.5V140.4L230 151.3V128C230 125.8 228.8 123.8 226.9 122.7L174 93.9V74.1ZM338 93.9L285.1 122.7C283.2 123.8 282 125.8 282 128V151.4L262 140.5V115.6L338 74.2V93.9ZM262 341.9V243.6L338 202.2V300.5L262 341.9ZM256 233.2L180.5 192L256 150.8L331.5 192L256 233.2ZM174 202.1L250 243.5V341.8L174 300.3V202.1ZM346.9 186.7L294 157.9V138.1L370 179.5V277.8L350 267V192C350 189.8 348.8 187.8 346.9 186.7ZM256 22.8L331.5 64L256 105.2L180.5 64L256 22.8ZM136 86.8L211.5 128L136 169.2L60.5 128L136 86.8ZM54 236.4V138.1L130 179.5V277.8L80.2 250.6L54 236.4ZM77.3 262.8L133.1 293.2C134.9 294.2 137.1 294.2 138.8 293.2L161.9 280.6V299L135.9 313.2L60.5 272L77.3 262.8ZM54 282.1L130 323.6V421.9L54 380.4V282.1ZM142 421.9V323.6L166.7 310.1L184.8 320L165.1 330.7C163.2 331.8 162 333.8 162 336V411L142 421.9ZM174 346.1L250 387.6V485.9L174 444.4V346.1ZM338 444.4L262 485.9V387.6L338 346.1V444.4ZM382 421.9V323.6L458 282.1V380.4L382 421.9ZM451.5 272L376 313.2L350 299V280.6L373.1 293.2C374.9 294.2 377.1 294.2 378.8 293.2L434.6 262.8L451.5 272ZM431.8 250.7L382 277.9V179.6L458 138.2V236.5L431.8 250.7Z" fill="white"/>
</svg>
