<svg width="512" height="512" viewBox="0 0 512 512" fill="none" xmlns="http://www.w3.org/2000/svg">
<path d="M510.858 98.1371C503.433 85.2581 498.8 76.8371 494.167 68.4201C489.484 59.9121 484.8 51.4071 477.3 38.4031C477.175 38.1871 476.993 38.0221 476.852 37.8201C476.705 37.6091 476.556 37.4151 476.388 37.2171C475.735 36.4421 475 35.7541 474.133 35.2591C474.126 35.2551 474.123 35.2481 474.116 35.2441C474.088 35.2281 474.057 35.2311 474.029 35.2151C473.188 34.7491 472.26 34.4761 471.297 34.3161C471.039 34.2731 470.795 34.2341 470.537 34.2151C470.324 34.1991 470.123 34.1321 469.908 34.1321H42.092C39.042 34.1321 36.225 35.7611 34.7 38.4031C27.2 51.4071 22.517 59.9111 17.833 68.4201C13.2 76.8381 8.56698 85.2581 1.14198 98.1371C1.02798 98.3341 0.982977 98.5541 0.886977 98.7571C0.772977 98.9961 0.681977 99.2291 0.589977 99.4791C0.245977 100.416 0.0129766 101.38 0.00797656 102.363C0.00797656 102.375 0.000976562 102.386 0.000976562 102.398C0.000976562 102.401 0.00297656 102.403 0.00297656 102.406C0.00297656 103.407 0.242977 104.388 0.594977 105.34C0.684977 105.581 0.775977 105.807 0.885977 106.037C0.988977 106.253 1.03798 106.485 1.15998 106.694L215.068 473.627C216.601 476.252 219.41 477.864 222.443 477.864H289.56C289.562 477.864 289.564 477.863 289.564 477.863L289.568 477.864C290.02 477.864 290.47 477.757 290.921 477.684C291.205 477.638 291.503 477.644 291.779 477.57C291.852 477.55 291.92 477.503 291.993 477.481C292.648 477.285 293.282 477.029 293.869 476.685C293.885 476.676 293.903 476.673 293.919 476.664C293.966 476.636 293.989 476.587 294.036 476.558C294.841 476.06 295.53 475.404 296.136 474.657C296.287 474.471 296.434 474.297 296.568 474.1C296.682 473.933 296.833 473.802 296.936 473.626L510.844 106.693C512.383 104.054 512.383 100.787 510.858 98.1371ZM32.792 76.6501C36.892 69.1961 40.992 61.7421 47.034 51.2001H455.25L290.667 341.187L268.034 301.911L382.826 106.724C384.376 104.087 384.393 100.82 382.876 98.1611C381.351 95.5031 378.526 93.8651 375.468 93.8651H23.223C26.869 87.3981 29.844 81.9971 32.792 76.6501ZM258.232 284.904L187.483 162.133H330.438L258.232 284.904ZM227.342 460.8L23.383 110.933H360.55L340.475 145.066H101.8C97.083 145.066 93.267 148.887 93.267 153.599C93.267 155.411 93.834 157.095 94.8 158.478L274.557 460.8H227.342ZM289.487 452.517L116.825 162.133H167.786L283.117 362.279C283.192 362.421 283.267 362.558 283.35 362.696C284.875 365.317 287.7 366.933 290.733 366.933C293.783 366.933 296.6 365.308 298.125 362.67C298.233 362.474 298.342 362.274 298.433 362.07L469.925 59.9301C473.446 66.1821 476.347 71.4471 479.208 76.6491C483.358 84.1781 487.5 91.7121 493.608 102.37L289.487 452.517Z" fill="#FFF9F9"/>
</svg>
