<svg width="570" height="696" viewBox="0 0 570 696" fill="none" xmlns="http://www.w3.org/2000/svg">
<g clip-path="url(#clip0_3289_82449)">
<rect x="105.001" y="147.3" width="360" height="401.4" rx="13.95" fill="white"/>
<g opacity="0.4">
<rect x="249" y="182.85" width="72.0002" height="72" rx="36" fill="#00C2FF"/>
</g>
<path d="M376.802 290.85H193.202C191.213 290.85 189.602 292.461 189.602 294.45V301.65C189.602 303.638 191.213 305.25 193.202 305.25H376.802C378.79 305.25 380.402 303.638 380.402 301.65V294.45C380.402 292.461 378.79 290.85 376.802 290.85Z" fill="#00C2FF"/>
<path opacity="0.2" d="M425.851 319.649H144.151C142.163 319.649 140.551 321.261 140.551 323.249V327.749C140.551 329.738 142.163 331.349 144.151 331.349H425.851C427.839 331.349 429.451 329.738 429.451 327.749V323.249C429.451 321.261 427.839 319.649 425.851 319.649Z" fill="#00C2FF"/>
<path opacity="0.2" d="M425.851 345.75H144.151C142.163 345.75 140.551 347.362 140.551 349.35V353.85C140.551 355.838 142.163 357.45 144.151 357.45H425.851C427.839 357.45 429.451 355.838 429.451 353.85V349.35C429.451 347.362 427.839 345.75 425.851 345.75Z" fill="#00C2FF"/>
<path opacity="0.2" d="M416.4 371.85H153.6C151.612 371.85 150 373.461 150 375.45V379.95C150 381.938 151.612 383.55 153.6 383.55H416.4C418.388 383.55 420 381.938 420 379.95V375.45C420 373.461 418.388 371.85 416.4 371.85Z" fill="#00C2FF"/>
<rect x="177" y="419.55" width="216" height="43.2" rx="14.4" fill="#00C2FF"/>
<rect x="177.45" y="470.4" width="215.1" height="42.3" rx="13.95" stroke="#00C2FF" stroke-width="0.9"/>
<rect x="105.001" y="147.3" width="360" height="401.4" rx="13.95" stroke="#C0C8DB" stroke-width="0.9"/>
</g>
<defs>
<clipPath id="clip0_3289_82449">
<rect width="570" height="696" fill="white"/>
</clipPath>
</defs>
</svg>
