<svg width="570" height="696" viewBox="0 0 570 696" fill="none" xmlns="http://www.w3.org/2000/svg">
<g clip-path="url(#clip0_3289_82417)">
<path d="M96 249.25H474C483.693 249.25 491.55 257.107 491.55 266.8V310C491.55 319.692 483.693 327.55 474 327.55H96C86.3074 327.55 78.45 319.692 78.45 310V266.8C78.45 257.107 86.3074 249.25 96 249.25Z" fill="white"/>
<rect x="99.5996" y="273.999" width="3.6" height="28.8" rx="1.8" fill="#00C2FF"/>
<rect x="117.6" y="273.999" width="3.6" height="28.8" rx="1.8" fill="#00C2FF"/>
<rect x="135.6" y="273.999" width="3.6" height="28.8" rx="1.8" fill="#00C2FF"/>
<rect x="153.6" y="273.999" width="3.6" height="28.8" rx="1.8" fill="#00C2FF"/>
<rect x="171.6" y="273.999" width="3.6" height="28.8" rx="1.8" fill="#00C2FF"/>
<rect x="189.6" y="273.999" width="3.6" height="28.8" rx="1.8" fill="#00C2FF"/>
<rect x="207.6" y="273.999" width="3.6" height="28.8" rx="1.8" fill="#00C2FF"/>
<rect x="225.6" y="273.999" width="3.6" height="28.8" rx="1.8" fill="#00C2FF"/>
<rect x="243.6" y="273.999" width="3.6" height="28.8" rx="1.8" fill="#00C2FF"/>
<rect x="261.6" y="273.999" width="3.6" height="28.8" rx="1.8" fill="#00C2FF"/>
<rect x="279.6" y="273.999" width="3.6" height="28.8" rx="1.8" fill="#00C2FF"/>
<path fill-rule="evenodd" clip-rule="evenodd" d="M413.699 287.769C413.699 279.419 420.469 272.649 428.819 272.649H455.279C463.63 272.649 470.399 279.419 470.399 287.769V289.029C470.399 297.38 463.63 304.149 455.279 304.149H428.819C420.469 304.149 413.699 297.38 413.699 289.029V287.769Z" fill="#00C2FF"/>
<path fill-rule="evenodd" clip-rule="evenodd" d="M456.539 299.11C462.802 299.11 467.879 294.033 467.879 287.77C467.879 281.507 462.802 276.43 456.539 276.43C450.276 276.43 445.199 281.507 445.199 287.77C445.199 294.033 450.276 299.11 456.539 299.11Z" fill="white"/>
<path d="M96 249.25H474C483.693 249.25 491.55 257.107 491.55 266.8V310C491.55 319.692 483.693 327.55 474 327.55H96C86.3074 327.55 78.45 319.692 78.45 310V266.8C78.45 257.107 86.3074 249.25 96 249.25Z" stroke="#C0C8DB" stroke-width="0.9"/>
<path d="M96 368.45H474C483.693 368.45 491.55 376.307 491.55 386V429.2C491.55 438.893 483.693 446.75 474 446.75H96C86.3074 446.75 78.45 438.893 78.45 429.2V386C78.45 376.307 86.3074 368.45 96 368.45Z" fill="white"/>
<rect x="99.5996" y="393.199" width="3.6" height="28.8" rx="1.8" fill="#00C2FF"/>
<rect x="117.6" y="393.199" width="3.6" height="28.8" rx="1.8" fill="#00C2FF"/>
<rect x="135.6" y="393.199" width="3.6" height="28.8" rx="1.8" fill="#00C2FF"/>
<rect x="153.6" y="393.199" width="3.6" height="28.8" rx="1.8" fill="#00C2FF"/>
<rect x="171.6" y="393.199" width="3.6" height="28.8" rx="1.8" fill="#00C2FF"/>
<rect x="189.6" y="393.199" width="3.6" height="28.8" rx="1.8" fill="#00C2FF"/>
<rect x="207.6" y="393.199" width="3.6" height="28.8" rx="1.8" fill="#00C2FF"/>
<rect x="225.6" y="393.199" width="3.6" height="28.8" rx="1.8" fill="#00C2FF"/>
<rect x="243.6" y="393.199" width="3.6" height="28.8" rx="1.8" fill="#00C2FF"/>
<rect x="261.6" y="393.199" width="3.6" height="28.8" rx="1.8" fill="#00C2FF"/>
<rect x="279.6" y="393.199" width="3.6" height="28.8" rx="1.8" fill="#00C2FF"/>
<path fill-rule="evenodd" clip-rule="evenodd" d="M413.699 406.97C413.699 398.619 420.469 391.85 428.819 391.85H455.279C463.63 391.85 470.399 398.619 470.399 406.97V408.23C470.399 416.58 463.63 423.35 455.279 423.35H428.819C420.469 423.35 413.699 416.58 413.699 408.23V406.97Z" fill="#34D4EB" fill-opacity="0.2"/>
<path fill-rule="evenodd" clip-rule="evenodd" d="M427.559 418.31C433.822 418.31 438.899 413.233 438.899 406.97C438.899 400.707 433.822 395.63 427.559 395.63C421.296 395.63 416.219 400.707 416.219 406.97C416.219 413.233 421.296 418.31 427.559 418.31Z" fill="#00C2FF"/>
<path d="M96 368.45H474C483.693 368.45 491.55 376.307 491.55 386V429.2C491.55 438.893 483.693 446.75 474 446.75H96C86.3074 446.75 78.45 438.893 78.45 429.2V386C78.45 376.307 86.3074 368.45 96 368.45Z" stroke="black" stroke-width="0.9"/>
<path d="M96 368.45H474C483.693 368.45 491.55 376.307 491.55 386V429.2C491.55 438.893 483.693 446.75 474 446.75H96C86.3074 446.75 78.45 438.893 78.45 429.2V386C78.45 376.307 86.3074 368.45 96 368.45Z" stroke="#C0C8DB" stroke-width="0.9"/>
</g>
<defs>
<clipPath id="clip0_3289_82417">
<rect width="570" height="696" fill="white"/>
</clipPath>
</defs>
</svg>
