<svg width="570" height="696" viewBox="0 0 570 696" fill="none" xmlns="http://www.w3.org/2000/svg">
<g clip-path="url(#clip0_3289_82360)">
<g clip-path="url(#clip1_3289_82360)">
<path d="M97.5297 210.586H469.44C481.121 210.586 490.59 220.055 490.59 231.736V461.236C490.59 472.917 481.121 482.386 469.44 482.386H97.5297C85.8489 482.386 76.3797 472.917 76.3797 461.236V231.736C76.3797 220.055 85.8489 210.586 97.5297 210.586Z" fill="white" stroke="#C0C8DB" stroke-width="0.9"/>
<path opacity="0.2" d="M512.25 246.495H57.75V249.525H512.25V246.495Z" fill="#00C2FF"/>
<path opacity="0.2" d="M116.836 505.56L116.836 190.44H113.806L113.806 505.56H116.836Z" fill="#00C2FF"/>
<path opacity="0.2" d="M456.195 505.56V190.44H453.165V505.56H456.195Z" fill="#00C2FF"/>
<path opacity="0.2" d="M512.25 443.444H57.75V446.474H512.25V443.444Z" fill="#00C2FF"/>
<path d="M171.337 305.744H185.154L226.023 409.588H213.079L202.025 380.5H154.321L143.267 409.588H130.469L171.337 305.744ZM158.102 370.465H198.244L178.609 318.542H178.028L158.102 370.465ZM267.797 332.359C278.56 332.359 286.413 335.123 291.649 340.795C296.012 345.74 298.339 352.575 298.339 361.302V409.588H287.431V396.935C284.523 401.007 280.596 404.352 275.942 406.97C270.415 410.024 264.161 411.624 257.18 411.624C249.617 411.624 243.654 409.733 239.145 405.952C234.491 402.025 232.164 396.935 232.164 390.826C232.164 382.245 235.509 375.846 242.491 371.483C248.599 367.41 257.325 365.229 268.67 365.083L286.704 364.792V360.865C286.704 348.212 280.159 341.958 267.07 341.958C261.543 341.958 257.035 342.976 253.544 345.303C249.617 347.63 247.145 351.266 245.981 356.066L234.491 355.193C236.091 347.34 240.018 341.377 246.127 337.595C251.653 334.105 258.78 332.359 267.797 332.359ZM286.704 373.519L269.397 373.81C252.526 374.101 244.09 379.627 244.09 390.535C244.09 394.026 245.399 396.789 248.308 399.116C251.217 401.298 254.998 402.461 259.652 402.461C266.779 402.461 273.033 400.134 278.56 395.48C283.941 390.972 286.704 385.736 286.704 379.918V373.519Z" fill="#00C2FF"/>
<g style="mix-blend-mode:multiply" opacity="0.2">
<path d="M430.44 285.886H218.34V304.066H430.44V285.886Z" fill="#00C2FF"/>
</g>
<g style="mix-blend-mode:multiply" opacity="0.2">
<path d="M430.439 319.216H321.359V337.396H430.439V319.216Z" fill="#00C2FF"/>
</g>
<g style="mix-blend-mode:multiply" opacity="0.2">
<path d="M430.439 349.515H321.359V367.695H430.439V349.515Z" fill="#00C2FF"/>
</g>
<g style="mix-blend-mode:multiply" opacity="0.2">
<path d="M430.439 382.845H321.359V401.025H430.439V382.845Z" fill="#00C2FF"/>
</g>
</g>
</g>
<defs>
<clipPath id="clip0_3289_82360">
<rect width="570" height="696" fill="white"/>
</clipPath>
<clipPath id="clip1_3289_82360">
<rect width="454.5" height="315.12" fill="white" transform="translate(57.75 190.44)"/>
</clipPath>
</defs>
</svg>
