<svg width="510" height="100" viewBox="0 0 510 100" fill="none" xmlns="http://www.w3.org/2000/svg">
<g clip-path="url(#clip0_3374_106126)">
<path d="M150.93 83.9766C146.193 83.9766 141.555 83.0488 137.062 81.1445C132.57 79.2891 128.42 76.457 124.709 72.6484L134.572 60.4414C137.111 63.2734 139.895 65.373 142.873 66.7891C145.852 68.2539 148.684 68.9375 151.32 68.9375C153.176 68.9375 154.689 68.6934 155.959 68.1562C157.18 67.6191 158.059 66.9355 158.547 66.0566C159.035 65.2266 159.328 64.25 159.328 63.127C159.328 61.2227 158.596 59.709 157.131 58.5859C155.666 57.4629 152.834 56.1934 148.732 54.8262C146.975 54.2402 145.461 53.7031 144.094 53.166C142.727 52.6289 141.311 51.9453 139.748 51.1641C138.186 50.3828 136.818 49.5527 135.646 48.7227C134.475 47.8926 133.352 46.916 132.229 45.7441C131.105 44.5723 130.178 43.3516 129.494 42.0332C128.811 40.7637 128.225 39.25 127.785 37.541C127.346 35.8809 127.15 34.0254 127.15 32.0723C127.15 28.2148 128.176 24.6992 130.227 21.4766C132.277 18.2539 135.109 15.7637 138.674 13.9082C142.238 12.0527 146.145 11.125 150.441 11.0273C159.328 10.9297 167.531 14.0059 175.148 20.3047L165.627 32.707C159.963 28.166 155.08 25.8711 150.979 25.8711C148.977 25.8711 147.414 26.3594 146.242 27.3359C145.07 28.3125 144.484 29.6797 144.484 31.3887C144.436 32.9512 145.119 34.2695 146.584 35.3438C148.049 36.418 150.783 37.6875 154.836 39.25C160.793 41.5938 164.846 43.3027 166.945 44.4746C171.291 46.916 174.172 49.9922 175.588 53.6543C176.369 55.8516 176.809 58.3418 176.809 61.1738C176.809 64.3965 176.271 67.3262 175.197 69.9629C174.123 72.5996 172.707 74.7969 170.949 76.457C169.191 78.166 167.189 79.582 164.895 80.7539C162.6 81.9258 160.305 82.7559 157.961 83.2441C155.617 83.7324 153.273 83.9766 150.93 83.9766ZM244.973 33.1465C247.609 33.1465 249.953 33.5859 252.004 34.3672C254.055 35.1484 255.91 36.3691 257.473 38.0293C259.035 39.6895 260.207 41.9355 261.037 44.6699C261.867 47.4531 262.307 50.7246 262.307 54.4844V83H246.73V58.1465C246.73 50.8223 244.338 47.1113 239.602 47.1113C237.209 47.1113 235.256 48.1367 233.742 50.0898C232.18 52.043 231.447 54.875 231.447 58.4883V83H215.871V58.1465C215.871 50.8223 213.479 47.1113 208.693 47.1113C206.154 47.1113 204.152 48.0879 202.59 50.041C201.027 51.9941 200.295 54.8262 200.295 58.4883V83H184.67V34.0742H200.295V39.5918H200.539C202.346 37.541 204.445 35.9297 206.838 34.8066C209.182 33.7324 211.672 33.1465 214.211 33.1465C220.656 33.1465 225.344 35.4902 228.225 40.1777H228.469C232.473 35.4902 237.99 33.1465 244.973 33.1465ZM296.145 83.9766C292.238 83.9766 288.674 83.3906 285.402 82.1211C282.082 80.8516 279.299 79.1426 277.004 76.8965C274.709 74.6504 272.902 71.9648 271.633 68.8398C270.363 65.7148 269.729 62.2969 269.729 58.5859C269.729 54.9238 270.363 51.5059 271.633 48.3809C272.902 45.2559 274.709 42.5703 277.004 40.3242C279.299 38.0781 282.082 36.3203 285.402 35.0508C288.674 33.7812 292.238 33.1465 296.145 33.1465C301.223 33.1465 305.812 34.2207 309.816 36.3691C313.82 38.5176 316.896 41.4961 319.143 45.3535C321.389 49.2598 322.512 53.6543 322.512 58.5859C322.512 63.5664 321.389 67.9609 319.143 71.8184C316.896 75.6758 313.82 78.6543 309.816 80.8027C305.812 82.9512 301.223 83.9766 296.145 83.9766ZM296.145 70.0605C299.123 70.0605 301.613 68.9863 303.664 66.8379C305.715 64.6895 306.74 61.9062 306.74 58.5859C306.74 55.2168 305.715 52.4824 303.713 50.334C301.711 48.1855 299.172 47.1113 296.145 47.1113C293.02 47.1113 290.432 48.1855 288.479 50.334C286.477 52.4824 285.5 55.2656 285.5 58.5859C285.5 61.9062 286.477 64.6406 288.527 66.7891C290.529 68.9863 293.068 70.0605 296.145 70.0605ZM331.008 83V9.36719H346.584V83H331.008ZM373.781 83.9766C365.871 83.9766 359.182 81.584 353.664 76.7012L361.086 66.2031C364.992 69.9141 369.289 71.7695 373.928 71.7695C374.855 71.7695 375.637 71.6719 376.32 71.4766C376.955 71.2812 377.443 70.9395 377.785 70.5488C378.127 70.1582 378.322 69.6211 378.322 69.0352C378.322 68.4004 377.785 67.7656 376.711 67.1797C375.637 66.5938 373.684 65.8125 370.803 64.8848C369.533 64.4941 368.41 64.1035 367.385 63.7129C366.311 63.3223 365.285 62.834 364.211 62.248C363.137 61.6621 362.16 61.0762 361.33 60.4414C360.5 59.8555 359.719 59.123 358.986 58.293C358.205 57.4629 357.57 56.584 357.082 55.6074C356.594 54.6797 356.203 53.6055 355.91 52.4336C355.617 51.2617 355.52 49.9434 355.52 48.5762C355.52 45.5 356.301 42.7656 357.961 40.4219C359.572 38.0781 361.77 36.2715 364.553 35.002C367.287 33.7812 370.412 33.1465 373.879 33.1465C376.271 33.1465 378.518 33.3906 380.617 33.8301C382.668 34.3184 384.67 35.002 386.574 35.8809C388.43 36.7598 390.334 37.9316 392.287 39.3477L384.865 50.5293C383.205 48.8691 381.35 47.5996 379.396 46.7207C377.395 45.8418 375.539 45.4023 373.83 45.4023C372.951 45.4023 372.121 45.5977 371.438 45.9883C370.705 46.3789 370.363 47.0137 370.363 47.8926C370.363 48.5273 370.852 49.1621 371.828 49.7969C372.805 50.4805 374.465 51.2129 376.76 51.9941C377.98 52.4824 379.006 52.873 379.836 53.166C380.666 53.459 381.594 53.8496 382.619 54.2402C383.596 54.6797 384.426 55.0703 385.109 55.4121C385.793 55.7539 386.477 56.1445 387.258 56.584C388.039 57.0723 388.674 57.5117 389.162 57.9023C389.65 58.3418 390.139 58.8301 390.676 59.416C391.164 60.002 391.604 60.5391 391.896 61.125C392.189 61.7109 392.434 62.3945 392.727 63.127C392.971 63.8594 393.166 64.6406 393.264 65.4707C393.361 66.3008 393.459 67.1797 393.459 68.1562C393.459 70.5 393.02 72.5996 392.238 74.5039C391.408 76.4082 390.188 78.0684 388.625 79.4844C387.014 80.9004 384.963 82.0234 382.424 82.8047C379.885 83.5859 377.004 83.9766 373.781 83.9766ZM422.121 65.0801H421.877L416.701 70.9395V83H401.076V9.36719H416.701V50.2852H416.896L431.057 34.0742H449.172L432.375 53.166L449.562 83H432.229L422.121 65.0801ZM462.844 28.2637C460.061 28.2637 457.717 27.4336 455.861 25.7246C454.006 24.0156 453.078 21.8184 453.078 19.1328C453.078 17.375 453.518 15.8125 454.396 14.4453C455.275 13.0781 456.447 12.0039 457.912 11.2227C459.377 10.4414 461.037 10.0508 462.844 10.0508C465.578 10.0508 467.922 10.9297 469.777 12.6387C471.633 14.3477 472.609 16.4961 472.609 19.1328C472.609 21.8184 471.633 24.0156 469.777 25.7246C467.922 27.4336 465.578 28.2637 462.844 28.2637ZM455.031 83V34.0742H470.607V83H455.031ZM489.797 28.2637C487.014 28.2637 484.67 27.4336 482.814 25.7246C480.959 24.0156 480.031 21.8184 480.031 19.1328C480.031 17.375 480.471 15.8125 481.35 14.4453C482.229 13.0781 483.4 12.0039 484.865 11.2227C486.33 10.4414 487.99 10.0508 489.797 10.0508C492.531 10.0508 494.875 10.9297 496.73 12.6387C498.586 14.3477 499.562 16.4961 499.562 19.1328C499.562 21.8184 498.586 24.0156 496.73 25.7246C494.875 27.4336 492.531 28.2637 489.797 28.2637ZM481.984 83V34.0742H497.561V83H481.984Z" fill="white"/>
<path d="M6.20117 83V11.9551H30.7617C36.2793 11.9551 41.3574 12.834 45.9961 14.5918C50.5859 16.3496 54.4922 18.791 57.666 21.916C60.791 25.041 63.2324 28.8008 64.9902 33.1953C66.748 37.5898 67.627 42.4238 67.627 47.5996C67.627 52.8242 66.748 57.6094 65.0879 61.9551C63.4277 66.3496 61.0352 70.0605 57.959 73.1855C54.8828 76.3105 51.0254 78.7031 46.4355 80.4121C41.8457 82.1699 36.7188 83 31.0547 83H6.20117ZM22.6562 68.1074H30.0293C32.4219 68.1074 34.668 67.7656 36.8164 67.082C38.916 66.3984 40.7715 65.4707 42.4316 64.2012C44.043 62.9316 45.459 61.4668 46.6309 59.8066C47.8027 58.1465 48.6816 56.2422 49.3164 54.1426C49.9023 52.0918 50.2441 49.8945 50.2441 47.5996C50.2441 43.6934 49.4141 40.1777 47.7539 37.0039C46.0938 33.8789 43.8477 31.3887 40.918 29.582C37.9883 27.8242 34.7168 26.8965 31.1523 26.8965H22.6562V68.1074Z" fill="white"/>
<path d="M76.6641 83V34.0742H92.2402V83H76.6641Z" fill="white"/>
<path d="M101.783 80.6738C103.639 82.3828 105.982 83.2129 108.766 83.2129C111.5 83.2129 113.844 82.3828 115.699 80.6738C117.555 78.9648 118.531 76.7676 118.531 74.082C118.531 71.4453 117.555 69.2969 115.699 67.5879C113.844 65.8789 111.5 65 108.766 65C106.959 65 105.299 65.3906 103.834 66.1719C102.369 66.9531 101.197 68.0273 100.318 69.3945C99.4395 70.7617 99 72.3242 99 74.082C99 76.7676 99.9277 78.9648 101.783 80.6738Z" fill="white"/>
</g>
<defs>
<clipPath id="clip0_3374_106126">
<rect width="510" height="100" fill="white"/>
</clipPath>
</defs>
</svg>
