<svg width="510" height="100" viewBox="0 0 510 100" fill="none" xmlns="http://www.w3.org/2000/svg">
<path d="M3.71484 84V13.0039H27.2012C32.735 13.0039 37.8132 13.8828 42.4355 15.6406C47.0579 17.3659 50.9479 19.791 54.1055 22.916C57.2956 26.041 59.7533 29.8008 61.4785 34.1953C63.2363 38.5898 64.1152 43.3913 64.1152 48.5996C64.1152 53.8079 63.2689 58.5931 61.5762 62.9551C59.8835 67.3171 57.4746 71.0605 54.3496 74.1855C51.2572 77.278 47.3997 79.6868 42.7773 81.4121C38.1875 83.1374 33.0931 84 27.4941 84H3.71484ZM17.582 71.5H26.6152C33.4186 71.5 38.9199 69.3353 43.1191 65.0059C47.3184 60.6764 49.418 55.2077 49.418 48.5996C49.418 41.9264 47.3509 36.4089 43.2168 32.0469C39.0827 27.6849 33.8092 25.5039 27.3965 25.5039H17.582V71.5ZM74.2715 20.377C74.2715 18.1634 75.0527 16.2917 76.6152 14.7617C78.2103 13.1992 80.196 12.418 82.5723 12.418C84.916 12.418 86.8854 13.1992 88.4805 14.7617C90.0755 16.2917 90.873 18.1634 90.873 20.377C90.873 22.623 90.0755 24.5436 88.4805 26.1387C86.8854 27.7012 84.916 28.4824 82.5723 28.4824C80.196 28.4824 78.2103 27.7012 76.6152 26.1387C75.0527 24.5762 74.2715 22.6556 74.2715 20.377ZM75.834 84V35.123H88.9688V84H75.834ZM125.004 73.5996L133.5 63.1992C136.072 66.0964 138.92 68.3099 142.045 69.8398C145.202 71.3372 148.246 72.0859 151.176 72.0859C154.464 72.0859 156.97 71.4186 158.695 70.084C160.421 68.7168 161.283 66.8939 161.283 64.6152C161.283 62.1738 160.388 60.2858 158.598 58.9512C156.84 57.584 153.633 56.1029 148.979 54.5078C147.221 53.9219 145.674 53.3685 144.34 52.8477C143.038 52.2943 141.605 51.627 140.043 50.8457C138.48 50.0645 137.13 49.2832 135.99 48.502C134.851 47.6882 133.712 46.7279 132.572 45.6211C131.465 44.4818 130.554 43.2773 129.838 42.0078C129.154 40.7383 128.585 39.2897 128.129 37.6621C127.706 36.0345 127.494 34.2767 127.494 32.3887C127.494 26.7246 129.691 21.9395 134.086 18.0332C138.513 14.127 143.917 12.1413 150.297 12.0762C158.956 12.0762 166.947 15.0872 174.271 21.1094L166.068 31.7051C160.307 27.0501 155.147 24.7227 150.59 24.7227C148.083 24.7227 146.033 25.3574 144.438 26.627C142.842 27.8639 142.029 29.5892 141.996 31.8027C141.996 33.8535 142.842 35.4811 144.535 36.6855C146.228 37.89 149.369 39.3874 153.959 41.1777C159.883 43.4889 163.806 45.1654 165.727 46.207C170.186 48.5833 173.165 51.5293 174.662 55.0449C175.606 57.3236 176.078 59.944 176.078 62.9062C176.078 65.901 175.574 68.6517 174.564 71.1582C173.555 73.6647 172.204 75.748 170.512 77.4082C168.852 79.0684 166.915 80.4681 164.701 81.6074C162.52 82.7467 160.258 83.5768 157.914 84.0977C155.603 84.6185 153.259 84.8789 150.883 84.8789C146.195 84.8789 141.622 83.9349 137.162 82.0469C132.735 80.1589 128.682 77.3431 125.004 73.5996ZM186.479 84V35.123H199.564V41.5195H199.662C201.583 39.2083 203.812 37.4505 206.352 36.2461C208.891 35.0091 211.527 34.3906 214.262 34.3906C221.065 34.3906 225.867 36.9622 228.666 42.1055H228.861C230.847 39.599 233.321 37.6947 236.283 36.3926C239.245 35.0579 242.484 34.3906 246 34.3906C251.469 34.3906 255.701 36.1322 258.695 39.6152C261.69 43.0658 263.188 48.4206 263.188 55.6797V84H250.102V58.8047C250.102 50.3411 247.27 46.1094 241.605 46.1094C238.708 46.1094 236.316 47.2975 234.428 49.6738C232.54 52.0501 231.596 55.3542 231.596 59.5859V84H218.461V58.8047C218.461 50.3411 215.596 46.1094 209.867 46.1094C206.807 46.1094 204.317 47.2975 202.396 49.6738C200.508 52.0176 199.564 55.3216 199.564 59.5859V84H186.479ZM279.936 77.75C275.15 72.9974 272.758 66.9427 272.758 59.5859C272.758 52.2292 275.15 46.1908 279.936 41.4707C284.753 36.7507 291.02 34.3906 298.734 34.3906C306.352 34.3906 312.569 36.7344 317.387 41.4219C322.237 46.0768 324.662 52.1315 324.662 59.5859C324.662 67.0078 322.237 73.0788 317.387 77.7988C312.569 82.5189 306.352 84.8789 298.734 84.8789C291.02 84.8789 284.753 82.5026 279.936 77.75ZM286.039 59.5859C286.039 63.4271 287.227 66.6497 289.604 69.2539C291.98 71.8255 295.023 73.1113 298.734 73.1113C302.283 73.1113 305.261 71.8418 307.67 69.3027C310.111 66.7637 311.332 63.5247 311.332 59.5859C311.332 55.6146 310.128 52.3757 307.719 49.8691C305.342 47.3626 302.348 46.1094 298.734 46.1094C294.958 46.1094 291.898 47.3789 289.555 49.918C287.211 52.457 286.039 55.6797 286.039 59.5859ZM335.502 84V10.416H348.637V84H335.502ZM358.256 77.7012L364.555 68.6191C368.559 72.3301 373.1 74.1855 378.178 74.1855C380.033 74.1855 381.482 73.8275 382.523 73.1113C383.565 72.3626 384.086 71.3861 384.086 70.1816C384.086 69.2051 383.467 68.375 382.23 67.6914C380.993 66.9753 378.666 66.0475 375.248 64.9082C372.969 64.1595 371.016 63.3783 369.389 62.5645C367.794 61.7507 366.231 60.7253 364.701 59.4883C363.204 58.2513 362.064 56.7539 361.283 54.9961C360.535 53.2057 360.16 51.1712 360.16 48.8926C360.16 44.5632 361.82 41.0638 365.141 38.3945C368.493 35.7253 372.742 34.3906 377.885 34.3906C384.428 34.3906 390.352 36.4251 395.658 40.4941L389.262 50.2109C385.681 46.7279 381.775 44.9863 377.543 44.9863C376.371 44.9863 375.313 45.2956 374.369 45.9141C373.425 46.5326 372.953 47.4277 372.953 48.5996C372.953 49.5436 373.523 50.4225 374.662 51.2363C375.801 52.0176 377.641 52.8802 380.18 53.8242C385.518 55.8099 389.099 57.3561 390.922 58.4629C394.079 60.3835 395.984 62.9388 396.635 66.1289C396.863 67.2031 396.977 68.3913 396.977 69.6934C396.977 74.2181 395.365 77.8802 392.143 80.6797C388.92 83.4792 384.232 84.8789 378.08 84.8789C370.398 84.8789 363.79 82.4863 358.256 77.7012ZM406.791 84V10.416H419.779V55.582H419.975L437.406 35.123H452.787L435.697 54.7031L453.178 84H438.48L426.42 63.4922L419.779 70.7188V84H406.791ZM459.428 20.377C459.428 18.1634 460.209 16.2917 461.771 14.7617C463.367 13.1992 465.352 12.418 467.729 12.418C470.072 12.418 472.042 13.1992 473.637 14.7617C475.232 16.2917 476.029 18.1634 476.029 20.377C476.029 22.623 475.232 24.5436 473.637 26.1387C472.042 27.7012 470.072 28.4824 467.729 28.4824C465.352 28.4824 463.367 27.7012 461.771 26.1387C460.209 24.5762 459.428 22.6556 459.428 20.377ZM460.99 84V35.123H474.125V84H460.99ZM486.771 20.377C486.771 18.1634 487.553 16.2917 489.115 14.7617C490.71 13.1992 492.696 12.418 495.072 12.418C497.416 12.418 499.385 13.1992 500.98 14.7617C502.576 16.2917 503.373 18.1634 503.373 20.377C503.373 22.623 502.576 24.5436 500.98 26.1387C499.385 27.7012 497.416 28.4824 495.072 28.4824C492.696 28.4824 490.71 27.7012 489.115 26.1387C487.553 24.5762 486.771 22.6556 486.771 20.377ZM488.334 84V35.123H501.469V84H488.334Z" fill="white"/>
</svg>
