<svg width="300" height="300" fill="none" xmlns="http://www.w3.org/2000/svg"><path fill-rule="evenodd" clip-rule="evenodd" d="M79.086 38.104c.144-1.01-.289-2.069.529-3.08.337-.432-.337-1.587-.818-3.511 6.11 7.65 4.811 6.976 6.64 5.58.48 3.416 1.106 3.128-2.502 1.733-.193 3.223 2.501 2.886 4.185 4.33.289.048.145-.097 0-.29-.385.386-.625.434.144.819.722.385-1.683-2.069.385-4.619 5.677 2.694-.914-2.069 3.609-1.876.144.914.288 1.78.385 2.742 4.04-3.993-.77-2.405-.097-5.292 3.176.673 3.753 1.25 3.176.577-.866.914.818 1.251.048.289-.914-2.406-5.63-3.031.866-6.158 1.588 1.924.962 5.148 4.378 5.677 0-3.175-.385-2.165 1.54-4.474 1.395.625 1.587 1.01 1.78 3.608 1.732-.962 2.405-.193 1.876-.818a5.245 5.245 0 0 0-.385.433c.914.722.625.096.433-.144-.241-.915.144-2.117.192-2.117 2.31.625 5.052-.193 6.977 2.02 0 .289.192-.625-.722.097-.048.048.096.384.144.577.77-.577.145-.866 2.502-.866 0 .433.192 1.058-.048 1.299-1.876 1.828-.626 2.646.962 3.464.962 1.299 1.925 1.299 2.887 0 2.405 1.203 1.106.289 5.725 4.041 0-2.598.625-3.079 0-2.55.385.385.385.626.818-.192.192-.337-1.588.77-1.732-.144-.433-2.502-1.492-.77-2.935-.193.529-2.598.433-3.127-.722-5.292 4.138-2.55 1.684-.77 5.485-.914 0 1.828.577.625-2.887 2.694.241.818-.288.674 2.887.385 0-2.261-.241-2.165.962-.914 2.646 2.694-.962 2.165 5.629-.145.53-.192 1.444-.625 1.54-.48.914 1.25 1.636.48 1.972-.29.241-.625-.096-1.49-.192-2.501 2.55-1.78-.144 2.838 4.282 3.8-.529-3.463-1.059-2.453 1.924-4.522-.096-.096-.337-.433-.529-.385-1.924.193-3.801-.962-5.725-.192 0 0-.193-.53-.289-.77.962-.433.914-.192 0-.962-1.443-2.694-2.213-1.443 4.426-5.773 1.877 5.436.433 4.33 6.062 5.484-.673-3.993-1.106-3.32 1.636-3.32-.096 1.252-2.021 2.55.674 3.898.288.048.144-.097 0-.29-.385.386-.674.386.144.819.674.385-1.684-2.406.144-2.694 1.155-.193 1.395.625 1.155 1.443-.481 1.78 1.636.914 1.828 1.876-1.972 2.406-2.646 2.261 2.358.337.673 1.25 1.395 2.55 2.068 3.897 1.396-1.588-.721-3.127.289-4.907.77-1.347.144-3.368.144-5.485 2.117 1.01 1.155 1.203 3.801-.048 1.636 1.395 1.877 1.828 2.31 3.753 2.982-4.57.096-4.763 3.415-6.544.289-.144 1.011.482 1.54.77.385-.337.818-.818 1.251-1.25-.529-1.155-1.395-1.444-3.127-.337 3.56-7.41-3.657-3.32 3.704-7.217.385.77.818 1.588.914 1.828 1.588.385 2.694-1.972 3.368.433-.577.433-1.347.722-1.732 1.3-.962 1.539 1.78 2.309 1.203 1.539a2.724 2.724 0 0 0-.433.433c.914.721.673.096.433-.145-.289-3.127 1.058-3.464 2.117-4.089 2.838 3.656 2.405 2.069.721 4.955.097.29.818 1.059.097-1.154-.77 2.646.336.096 1.395-.962.834.609 1.668 1.202 2.502 1.78.336-1.251.817-2.262 2.453-1.78 1.155.336.77 2.934.77 1.924-1.01.337-.77.144-.577.866.192-.144.385-.289.577-.674.577-.288 1.395-.192 1.684-.529 1.972-2.502 4.282-2.357 6.88-1.154-.321.352-.626.673-.914.962 4.474 3.512-.241.192.096 2.357 2.598-.192 1.347-.625 2.742-2.069 1.059-1.058.962-.673 1.251.049.818-1.01.337-.578 2.165-1.684 1.828 3.993.866 3.32 3.993 3.32.674-1.925-.337-1.829 5.725.24-.24-1.54-.24-1.54-2.694-2.02 1.011-1.492 1.973-2.936 3.127-4.523 4.812 3.656 1.492.962 2.069 2.838.193-.144.337-.288.529-.625 1.829.433 1.877-1.155 2.358-2.117 1.01 2.357 3.849 2.117 5.292 3.8.193 1.492-2.598.578-1.972 2.454-2.887-.48-2.791-1.01-3.657 2.55 3.224-1.54 2.261-1.395 3.705-.24-1.107 0 .048 4.233.336 4.618 3.272-4.33-.24-6.543 3.897-7.553 3.705-.866 2.55-3.223 3.705-.048.962-.818 3.079-.481 2.55-2.742 1.154 0 1.924.673 1.395 0l-.433.433c.914.721.674.096.433-.145-1.106-1.106-.433-1.491-1.395-.288-2.406 1.443-2.069 2.116-1.395-2.79-2.454-2.695-2.646-2.021.24-3.176a147.643 147.643 0 0 0-1.876-4.282c2.983-.914 4.715 4.041 7.698.289-.626 4.185-.145 5.051 1.972 4.763-1.203-1.396-1.299-.963.818-1.732.048-1.3.77-2.695-.818-4.042.834-.737 1.684-1.491 2.55-2.26 1.732 1.924 1.684-.819 2.694-1.011 1.732 2.213 1.444 1.395 1.444 3.752-2.262-.096-2.983 1.636-4.379 3.609 2.598-.048 4.186.962 5.485 2.934-1.636.097-3.127.145-4.57.241-1.011 1.78.384 1.732 1.443 2.069-6.495 6.254-2.261 2.31-4.523 2.983.145.192.289.384.626.577.481 2.887-.096.77-1.684 2.838-2.502-2.453-2.357 0-.096-3.512-1.828-.77-1.877.337-1.78 2.165-.674-.096-1.299.385-1.636.626 2.79 3.223 1.973 3.03 3.512.721 1.443.097.818 1.203.962 1.925l-.962.962c-.818.048-2.117-.433-1.876 1.155.192 1.636-.674 1.876-2.262 1.78.337-.577.818-1.058 1.54-1.876-2.406-.337-2.309.529-1.54 1.876.049.385-.24.914-.432 1.203 4.426 4.233.192 1.154 5.677.24-.914-.818-2.791-.385-1.732-2.502 5.34 0 4.426-.529 4.426 2.117 0 .29.192-.625-.722.097-.048.048.096.384.144.577.193-.144.385-.289.578-.674 4.378 1.396 2.838 2.79 4.763-1.154.722-.145 1.828.48 1.924-.962 1.155.048 1.059.817.77 1.587-.096.24-.625.578-.577.626 1.106 1.491-.914 2.838-.193 4.233.626 1.251 2.358 1.588.963 4.042-2.165.288-1.781-.097-.963 1.491.097.24 0 1.059 0 .433-1.01.337-.77.144-.577.866 2.357-1.876 1.251-1.443 1.54-2.79 3.896 0 3.463.433 1.972-1.396a191.88 191.88 0 0 0 3.416-3.175c2.598.914.337 2.839.048 4.378 4.811-.577 1.347 1.492 7.938 1.155 1.828-.096 2.117.192 2.55 2.694-.481-.192-.914-.433-1.539-.721 0 3.271.769 2.55-3.801 2.886 3.031 3.416 1.636 2.935 6.399 1.492.096 1.54.192 2.694.288 4.04 1.155-.961 3.079.482 3.657-1.587.192-3.32-5.533-1.299-.962-3.512-1.444-1.588-1.588-.914 1.25-2.983-2.838-1.01-2.646-.48-.481-2.502.578.337 1.011.385 1.059.578.385 1.443.385 1.395 2.694 2.742 1.01.577 1.539 2.069 3.127 1.636v.962c-4.186 0-2.55-.914-3.801-.673 1.251 1.635.289 4.233 3.176 5.677-1.588-4.138-2.213-3.657 2.453-1.829-.625.722-1.058 1.444.241 2.165-1.684.915-4.907-.721-4.859 2.839a94.208 94.208 0 0 0 3.801-.674c-1.781 4.427-1.973 4.619-4.764 5.1-.048.674-.048 1.444-.096 2.165-4.137 2.165-2.261 1.636-2.357-.53-.096-2.212-1.636-.095 1.636-5.05-2.262-1.829-1.78.673-2.743 1.346-.673-.288-1.443-.673-2.213-1.01-.433-1.876-1.924-.625-3.223-.962-.096 0 .192 0 .433-.048-.433-2.165-.145-1.877-.963-1.78.337 3.945 5.678 6.206-.384 3.656 1.347 2.502.769 1.732 2.213 2.935-1.299 1.203-1.299 2.598 0 3.8-1.251 1.396-.914 3.128-.962 4.764-1.107 1.154-.915 1.443-.915.962-1.01.337-.769.144-.577.866.674-.53.433-1.155 1.973-.626.288.097.096-.048-.048-.24l-.433.433c.962.721.673.096.481-.193-1.155-1.491-.097-1.202 1.443-1.202-.433 1.347 1.203 3.415-1.588 4.089-1.154.289 0 8.083 4.908 2.454.577 1.78 2.453 2.357 3.031 4.04.529 1.348.625 2.647-.674 3.176-1.972.77-2.117 2.983-4.57 4.186h3.319c1.01-2.213.529-2.069 2.213-.337-1.154 1.251-1.395.77 1.492 2.165-3.849 4.09-2.791 3.705-4.859 2.165-2.117 4.426-2.406 4.474 3.752 1.395 1.155 2.646 2.694 5.004.577 5.293-1.972.24-.192 1.731-.625 2.694 2.694-1.636 1.876-1.829.674 2.213 0 .288.192-.626-.722.096-.096.048.096.385.144.577.193-.144.385-.288.578-.673 3.367 4.859-3.513 2.742-5.726 4.57 0-3.175.626-3.945-1.924-3.8-.385-1.01-.193-.963-.962 0-2.406-.24.577-6.062-3.416-.145-1.443-2.694-1.443-2.694-4.138-2.213 2.743 4.426 1.732 1.973 7.554 4.234-.578 2.213-2.887 0-3.849 1.539.577.241 1.155.385 1.876.674-1.491 1.54-.481 4.234-2.79 5.437-2.406-2.406-2.165-1.203-.433-5.389-1.925 1.492-1.107 1.299-3.56 1.588-.289 0 .577.144-.097-.722-.048-.096-.385.096-.577.144.144.193.289.385.674.578 3.223 2.405 1.587 1.972 2.357 3.752-2.502.145-1.973-.529-1.973 3.705 2.647-4.522 1.299-3.656 3.609-3.656-1.54 2.694-2.694 2.549 4.763 0 .818 1.395.818 1.395 0 2.838a59.876 59.876 0 0 0-1.492-.866c-1.924 3.897-2.117 3.079.385 3.945v2.502c-1.203-.192-4.089.096-4.426.433-.433.481 1.876 1.299-.241 1.684-.673.096-1.25.818-2.213 1.539 3.801.578 2.983-.144 3.464 3.272 1.203-.433 2.213-.818 3.561-1.299-.963 2.79-4.523 2.165-4.042 5.677-1.539.914.674 1.395.241 2.165-1.155 1.155-.962 1.443-.962.962-.963.337-.77.145-.53.866.53-.433.481-.818 1.492-1.828 2.02.192.337 2.117 1.395 2.887.866.673 1.347 1.828 2.021 2.79 1.202-.529-.626-2.646 1.347-2.838.24.336.673.962.721.914 1.492-.866 2.791-.433 4.042.577a121.048 121.048 0 0 0-.914 3.272c-2.165 1.058-.433 2.165-.53 3.848-.144.145-.866.674-1.683 1.251 2.068 1.444-.77 2.791.721 4.427h4.234c0 4.618.481 3.848-1.828 3.848-2.791-1.972-3.897-3.127-1.877.914-1.539 2.454-1.154 5.485-.962 7.65-1.443.096-.818 1.155-.962 1.876-3.127-.817-2.213-1.443-3.993 3.32-2.695-3.608-2.165-3.801-3.609-1.203 0 .289.193-.577-.721.096-.097.049.096.385.144.578.77-.577.144-1.155 2.598.481-.77.385-1.395.674-1.972.962 1.058 1.828.914 2.358.866 1.444-2.214.384-1.877.144-1.781.962.626-.048 1.203-.096 1.829-.529.866.721.866.721-.193 2.165-1.924.144-2.357-1.781-3.656-2.55.577-2.213-1.54-1.925-2.646-2.791-.241 1.732-.145.962-.433 2.983-2.069-.914-4.138-1.684-5.485.77-.962.385-2.406-.866-2.839.962-.641.192-1.283.401-1.924.626.289.433.529 1.202.818 1.202 1.924.193.914 2.31 2.021 2.935-5.1 0-4.908-.722-.674 2.069-2.357 2.117-2.357 2.117-3.272.144-2.886.818-1.587.626-4.811.626-.288 0 .626.192-.096-.722-.048-.048-.385.096-.577.192 1.732 2.213.289 2.165 3.753 2.646 0 3.994-.241 1.925-1.011 3.224.096-1.828.048-2.983-1.78-2.213 1.876 2.935 1.828 1.684 2.117 2.453.224-.288.449-.561.674-.817 4.137 3.367 8.275-3.031 3.704 5.58-1.347-.673-2.935-.866-3.272-2.694-1.01.626-1.924.626-3.127.048v2.598c.626 1.203 3.512-1.251 3.657 1.732-1.203-.192-2.406-.433-3.945-.721 1.251 2.357 1.491 1.876-1.396 1.876-3.271-5.148-3.464-4.138.241-4.763-1.203-3.32-1.203-3.32-2.55-3.993.625-.866 1.251-1.684 2.358-2.213.288.096.096-.097-.049-.289l-.433.433c2.117 1.636-1.395-2.165-2.405-3.416-1.347.385-2.213.722-1.828 2.069.144.577-.097.722-1.396 1.299 1.829 3.127-.192.625.337 2.357.193-.144.385-.288.529-.625 1.444-.144.818.962.963 1.684-.289.433-.963 1.01-.866 1.203 1.732 2.838 2.742 1.347-.097 3.56-1.154 1.203-.529.962-3.031.962-.288 0 .578.192-.096-.722-.048-.048-.385.097-.577.145.144.192.289.385.673.577-.048 1.732-1.154.818-2.646 0 .337-2.357-1.587-1.973-3.031-2.261.353.737.722 1.491 1.107 2.261-2.213 1.78-2.983 1.203 2.838 2.405.289.049.626 0 .963 0-.241 2.021 1.395 1.54 2.213 1.3.77-.193 1.395-1.203 2.068.096a37.895 37.895 0 0 0 1.54-2.069c2.598 2.213 3.464 1.299-4.859 3.993-.385-1.01-.193-.962-.962 0-2.358 1.203-5.293 1.299-7.073 3.608-.192.241-1.299-.288-2.068-.529-2.743 4.426-2.935-.144-1.348-2.165 1.54-.337 2.069-1.347 1.925-2.838h1.828c1.107 2.309 2.791 2.213 4.859 1.587-1.251-2.165-3.127-1.491-4.859-1.587.337-2.646.577-2.743.096-2.31.626.626 2.31-1.924-1.924 2.31-2.358-.048-1.925.337-1.925 2.838-1.972-.192-.24-2.165-1.395-2.934-1.01-.626-1.78-1.636-2.405-2.262-.048-2.598 2.886-.336 2.886-2.405 2.598 1.443 3.176 1.106 3.801-1.925 2.069-.818-1.78.145 1.107-3.8-2.839 0-1.78-.049-4.138.24 1.01 1.107 1.107-.096-.77 5.485-9.91 1.251-7.024 1.443-8.275-1.059-.433-.866-4.474-5.484-.818-1.78.53-.818 2.021-1.203 1.203-2.694-4.763 0-.818 2.694-4.041 2.694l2.838 2.839c-3.319 0-1.972.24-3.031-1.107-.769-1.01-2.79-1.106-2.309-3.223.096-.337-1.203-1.059-2.357-2.021-.482 4.426.192 4.859-2.117 1.299 0 5.773-.289 2.213 3.464 2.213.385 5.822 1.106 2.31-3.657 3.801v-1.588c-2.598.77-5.148 1.107-7.746-.288-1.347-.722-2.357.818-3.031-.818-1.78 2.165-1.299-1.155-2.886.433-.529.529-2.261-.145-3.464-.145-4.234.097-3.272.915-3.801-.481 3.849.097.385-2.117 2.887-2.598.481-.288.433-6.88-1.877-4.57 1.444.625-.769 2.357.866 2.935-.385 1.347.818 1.635 1.011 1.635-3.849-1.299-1.011-1.78-7.891.289.337.529.53 1.155.915 1.347 1.299.577 3.127-1.106 4.089.962-3.416-.385-1.828 3.272-4.715 2.502 1.588-2.021-.048-1.539-2.935-1.539.337-1.155.674-2.358 1.011-3.657-1.877-.337-2.502.529-3.464 2.935.144.337.818 1.01.096-1.155-.722 2.646.433-.288 1.395.722 1.203 1.251.962 1.155.962 3.079-.962.385-.962.192 0 .962 0 2.406.578 2.213-2.068.77-.674.625-1.444 1.347-2.213 2.069-1.636-1.828-4.282-2.839-4.812-5.629-.192-.914 3.32-1.395-4.233-.096 2.068-1.684 2.02-.818.529-3.801h-3.368c-.385-.962-.192-.77-.866-.578.577.77.866.145.866 2.502-1.684-.481-2.887-2.069-5.003-1.924h.24c-1.203-3.32-.385 4.474 7.602 3.801.385.769.721 1.539 1.154 2.453-1.443.577-1.491-.962-2.261-1.154-4.378-1.011-3.897-1.203 2.165 3.848-1.443 1.251-2.309 3.368-4.715 2.165.529-1.972.048-2.742-3.271-4.618.433 1.202.721 1.924 1.01 2.694-3.801 1.684-3.801 1.684-5.244-.962-.433 2.117-.337 3.945-.096 5.725 0 .144.529.24.769.337-1.635 4.378-.673 3.945-3.8 2.453 0-1.828-.048-3.704 0-2.357 2.213-.433 1.924-.193 1.78-1.01-.578.096-1.203.144-1.78.529-.337 0-.963-.722-.914-.722.769-.818 1.635-1.539 2.598-2.357-1.588-1.588-2.935 1.154-5.822 1.684-.048-.53 2.165-1.347.818-4.042-1.107 1.444-2.983 2.165-.818 4.042 2.646-1.636.289 1.395 1.347 4.33-3.271-.578-2.55-.915-2.935 1.25-2.79-3.223-2.79-3.223-2.597-5.196.096-.288-.097-.144-.241 0 .385.433.433.626.818-.144.24-.385-1.059.674-1.876.529-1.155-.962-1.155-.962-2.743-.048 3.416 0 3.031-.529 1.877 3.272.24 1.154 2.501 1.587 1.924 3.512-3.368-2.454-2.357-3.079-4.282 3.704-1.732-1.01-1.251-.625-2.165-1.828-1.876 1.54-.673.722-2.935 1.299-2.598.674-1.924 1.444-2.309-3.127-.096 4.378-5.533 3.272.289 3.705-.145 2.02 1.202 1.058-7.169 3.897-2.598-5.293-2.598-3.609-.577-7.41-1.732-1.154-2.261-.817-1.54-3.56.096-.288-.096-.096-.288.048.128.129.272.257.433.385.914-1.154-.049.241-1.925-.914-1.154 2.069-2.261.144-3.753-.096a40.369 40.369 0 0 1-1.443 1.972c-1.443-.914-2.935-1.539-4.763.193v-2.069c1.78-.192 4.041.77 4.763-1.924 5.725-.385 3.416-2.839 6.014-6.159.096-.288-.096-.144-.289 0l.433.434c.722-.915.097-.626-.144-.434-1.443 1.829-1.058 1.492-2.839.482-.288.529-1.058 1.491-.962 1.587 1.588 1.396.193 2.165-.625 2.983-3.127 3.031-3.56-.096-4.138-1.058-.673 3.752-.192 3.127-2.213 3.127.433-.77-1.828-1.203-.24-2.117l-.578-.77c-.77 1.54-2.117-.192-3.223.626-1.3 1.01-1.925.192-1.588-1.54h-4.859c-.24-1.443.722-3.127-.866-4.33-.048-.048.577-.914.866-1.395 1.491.914 2.983 1.732 4.33-.096.192-.289-.144-.914-.24-1.492 3.127-2.453 1.395-1.924 2.068-1.299.722-.914.096-.625-.144-.433-.914.433-1.54.337-2.165.481-.626.145-1.155.482-1.732.722-.962-2.983-.385-3.368-2.117 2.117l-1.443-.866c-.193 1.876-1.973 1.78-3.705 3.175 1.492-3.945 1.973-3.271-1.491-3.271 0-3.512 0-.674 2.213-1.011.77-.144 1.491-.769 2.405-1.299-.529-1.106-1.395-1.683-2.742-1.491 0-6.351.481-5.821-1.395-1.876a36.12 36.12 0 0 1-.914-1.973c-.385 2.117-.385 2.117.433 4.138a184.68 184.68 0 0 0-3.416 2.983c-.24-2.021-2.598-3.224-.722-5.485.24-.289-.337-1.588-.818-2.165-.288-.385-1.154-.289-1.924-.385-.289 0 .577.192-.096-.722-.048-.048-.385.097-.578.145.145.192.289.385.674.577.096 1.395-1.01.818-1.732.962-.53-.818-.433-2.886-2.358-1.154-.288.288-1.684-.674-2.742-1.155.914-1.828 2.31-3.368-.048-5.34 5.292 0 1.106-.097 2.886.866.049 0 .193-.193-.144-.578.096-3.223.096-3.319-1.587-5.051-.289 0 .625.192-.097-.722-.048-.048-.385.096-.577.192.144.145.289.337.674.53.625 3.656.529 3.464-2.887 4.763-.24 0 .625.192-.048-.722-.048-.048-.385.096-.578.192.674.818.722-.481 1.588 5.87-2.165.818-4.522 1.684-6.928 2.598-.048-1.732-2.742-2.887-.529-4.571-1.155-.721-2.31-1.491-3.608-2.309.914 5.004 1.635 7.698-.866 3.272-2.165 2.213-3.128 1.202-4.186-.433 1.347-1.251 1.155-2.743-.625-4.715 1.54.192 2.26.288 3.367.385 6.928-4.667 5.726-4.956 6.062.24 5.389-1.636 2.935.096 4.282-5.725-.144-.337-.818-1.01-.096 1.155.722-2.598-.337-.145-1.924 1.876-.722-.577-.241-2.261-2.021-1.924-1.251.24-1.877-.722-2.213-1.829 5.051.193 2.213 2.021 4.57-.336-3.993-2.791-3.127-3.368-3.656-2.983.914.914 1.25-.77.289 0-2.117.914-.867 2.357-1.203 3.319-2.983-2.165-2.069-2.261-4.234-.096a9.98 9.98 0 0 1-.962-.77c-.145.145-.481.289-.53.481-.288 1.588-2.068 3.128.337 5.148-2.453 0-3.223.674-2.646-4.666-2.838-2.887-2.838-1.781-.577-4.812 1.732-.24 1.491.097.625-2.116-.625.433-.529.048-.625 2.116-3.224-1.924-1.107.049-2.213-2.742-1.588 1.973.577 2.165-2.55-.192-.337-2.117.818-1.107-3.993-3.849-1.829 1.01-.385 1.684.24 2.55-1.106.24-2.261 1.154-2.886-.578.256-.128.513-.24.77-.336-1.06-.866-1.107 0 .962-4.138-1.829-1.203-2.021 1.251-3.272 1.443-.77-1.732-1.058-2.501-.337-4.089 1.01-2.117.096-4.186.481-6.303 3.705.866 3.368 3.849 3.272 6.495 3.127.866 1.203-1.972 2.261-2.501.866.481 2.02 1.683 1.492-.963 1.876.818 1.684 1.011 3.8.77.289 3.368.289 2.887 1.059 2.983.818-3.079 1.203-2.646-1.059-2.983 2.502-1.588 2.021-1.395.914-2.309 2.358-1.01 2.165-.481 1.059-2.358 2.069-1.202 1.54-1.491 2.117 1.684 4.282 0 4.041.433.818-1.154 1.347-.866-.049-1.636-.049-2.454 1.444-.674 2.84 2.502 4.62-.481.528.962.961 1.78 1.442 2.598 1.733-1.973 2.983-3.56 2.166-6.255-2.502 5.052-1.78 4.763-3.176 1.973-2.598 1.636-1.732 1.347-3.175.241 2.55-1.877.096-4.33-1.588-6.592-1.203 3.368-.77 3.609-1.25-1.01 3.319 0 1.395-.529-2.502-2.742-.049 0-.193.24-.337.385-.096 2.501 1.876.914 2.935 1.299-.097.433-.097.721-.097 1.058-2.742 0-2.453-.674-.818 3.368-1.972 1.924-1.491 2.069-2.309-.289-2.983 1.107-2.935 1.876-5.87-2.983-2.405-.673-1.78 2.406-3.752 2.791-.096 0 .192-.048.481-.048-.674-5.196-1.54-2.165-.481.048-.866 3.175-3.127 1.924.77 3.319-2.358.866-1.54 1.155-3.464-1.684-.193.145.385-.384.914-.962-.53-1.395-.53-2.02.24-3.897-.817-.625-1.202-2.405-2.838-1.106-1.395 1.106-1.155-.914-2.165-1.011 1.876-3.8 1.155-3.416 3.079-2.309 1.491 1.155.192 1.636 5.58-1.828.77 1.347 1.637 2.935 2.55 4.57 1.011.289 2.791-.336 2.647 2.117 2.405-2.213 1.972-.577-1.828-5.966-.145-.24.288-.914.385-1.25-1.155-.53-2.406-1.107-4.186-1.877 3.416-1.154 5.677-.24 7.842 1.299.962-1.539.048-1.828-1.54-2.02v-2.646c.722-.145 1.828.481 1.925-.963 2.646-.048-.433-3.8-.962-.962-2.743-.433-5.196-1.588-7.65-2.838 0-4.042-.481-3.128 2.02-4.33-2.212-1.396-3.175.336-4.522 1.587-3.704-1.732-3.079-.721-3.079-4.378 1.78.193 3.464.385 4.811.529 1.54-.769-.289-2.79 1.925-3.031 1.587-.192.48-1.828.77-2.79.865-1.203 1.683-2.454 2.405-3.464 3.175.866-1.443 4.234 3.32 2.598 2.02-.722.48-2.598-.915-1.443-1.058.817-3.223.625-1.395 1.587 2.069-6.206-3.945-5.917 2.406-5.917-4.378-5.63-3.464-5.389-4.186-1.925-1.972-1.154-1.395-.721-2.598-1.876-3.464-2.839-2.55-1.78-2.838-4.186.721.674 1.058.962 1.491 1.3 1.25-5.533 11.835-3.465 6.11-6.11 6.688-3.657 8.227-1.348 8.564-5.293 1.154-1.155 1.636-1.924.962-1.395.866.866 1.203-.818.289 0a14.567 14.567 0 0 1-1.251 1.395c-2.502-1.3-1.347.962-3.897-1.54-10.633 1.684-.433-.384-1.636-3.897l1.732-.288c.144 1.54 1.347.818 2.117.914 1.395.144 0 3.079 2.598 1.491.577-2.405-2.406-1.78-2.502-3.8.048-.29-.096-.145-.288 0 .384.384.433.625.817-.145.29-.529-1.491.914-2.742 1.54-.337-.962.866-2.406-.962-2.887-.24-2.213 2.886-2.213 2.886-4.282 4.379.962 6.64-5.244 3.898 1.444h2.742c0 2.694 0 2.694 2.02 2.934 1.155.914 1.155.914 2.743.048-1.059 0-1.973 0-2.742-.048-1.444-3.656-1.829-2.79 3.656-3.8-1.058 2.165-.914 2.309-.914 1.828-.962.337-.77.144-.53.866.722-.578.049-1.347 2.84 1.443.625-1.443-1.444-2.646.384-3.704.337-.241.962-2.07-1.155-2.406-.096 0 .193-.048.482-.048-.434-2.213-.193-1.876-1.01-1.78.047.625.144 1.203.528 1.828-.77 2.02-2.598.24-4.04 1.155-.097-2.454-.097-2.454 2.26-1.396.962-1.732-.577-1.587-1.78-2.116 3.512-1.732 3.897-.866 3.416-1.492-.128.16-.273.305-.433.433 1.251 1.01 0 .048 0-3.271.53.288 1.01.577 1.443.817 2.502-3.56 1.925-2.646 2.165-3.464-1.972-1.78-.962-1.876-4.57.722-1.732 2.213-1.01 2.261-3.127.385 1.01 2.117-1.347 3.32.24 4.907-1.106 0-1.828 1.877-3.368.578-.336-.289-1.924 1.01-2.983 1.587-.32-.352-.77-.801-1.347-1.347 4.186-2.79 4.379-2.117-.48-2.117-.482-1.924-1.011-3.704-1.492-5.484 2.502-.53 2.502-.53 3.416-2.31.529.866.866 1.78 1.54 2.31.913.721 2.116 1.299 2.838-.385 1.155-1.107 1.636-1.925.962-1.395.914.866 1.203-.818.289 0-.578.77-.914 1.058-1.251 1.395-2.165-1.444-2.31-.578.962-3.8 3.224 0-.144-.097 1.54.817.048.048.192-.192-.145-.577-.818-1.107.385-2.31-.433-1.636l.433.433c.722-.962.096-.674-.144-.433-1.347 1.636-.962 1.299-3.8 2.069-.386-.722-.386-2.31-2.214-1.636 1.732-2.983 2.165-3.753 5.437-2.839.192-.914.336-1.78.529-2.838 2.117 1.203 1.684 1.443 1.684-1.01.721.144 1.828-.482 1.876.962-.962.385-.962.192 0 .962.481 1.828 1.925.577 3.32 1.203.288.096.144-.097-.048-.24-.129.127-.257.256-.385.384.914.77.625.144.433-.144-1.347-2.262.529-2.213-3.32-1.203 0-1.203-.385-.385 2.598-4.667 1.059.481-.77 2.55 1.203 2.742.48.626.962 1.251 1.491 2.07 1.01-2.647.578-2.936 2.358.865-3.368.24-2.694-.914-2.694 3.705 3.223-1.732 2.694-.866 2.694-3.705 2.453-.24 1.924-.096 1.25 1.059-.432.721-.865.529 5.197.529-4.042-4.378-1.636-1.636-4.57-1.636-1.156-2.069-1.54-1.54 2.356-2.213-2.068-2.406-1.154-1.54-1.395-2.069-.77-1.587-1.154-1.154.962-1.443.337.481.626 1.347 1.01 1.395 2.166.24 1.588 2.117 2.262 3.512 1.395-2.935.577-2.357 2.598-1.443 2.935 1.347 2.069.625.674-1.491 4.714 1.058 3.945 1.395 3.945-1.01.962-.434.962-.193 0-.963Zm-31.561 46.62c.337 1.731-.144 1.539 2.165.673-1.395-2.02-2.069 1.347-2.069-2.598-1.924.192-3.753-.53-4.715 1.684 2.213 1.491 1.78 1.058 2.165 2.02 1.877-2.26 1.444-1.587 2.454-1.78Zm190.664-.915c1.058 1.059.817.722 1.154 2.31 2.261-.866 1.973-.578 1.492-1.251-2.069-.145-1.395.192-2.646-1.059-.914-1.203-.482-1.154-1.877 0-1.203 1.203-.673.962-2.357.962h.433c-.337-.962-.145-.77-.866-.577.144.193.288.385.866.577.77 1.973-.096-.962 3.801-.962Zm-187.778-.385c-.529-.673-.336-.673-.866-.144 1.107.866.626.192-.433-.433h.433c-.336-.962-.144-.77-.866-.53.145.193.29.338 1.732 1.107Zm5.726-6.687c-.53-.674-.337-.674-.866-.096 1.058.818.625.144-.433-.433h.433c-.385-1.01-.193-.77-.866-.578.144.193.288.385 1.732 1.107Zm186.43-14.77c-.674.577-.674.337-.145.914.866-1.107.193-.674-.384.385v-.385c-1.011.337-.77.144-.578.866.193-.193.385-.337 1.107-1.78ZM72.35 51.96c-.577-.626-.385-.626-.914-.096 1.107.866.577.048 0-.433-1.107-1.107-1.876-.963-.914-.963-.385-.962-.193-.77-.866-.577.144.24-.048.096 2.694 2.069Zm-16.213 0c-.53-.626-.337-.626-.866-.096 1.058.818.625.144-.433-.433h.433c-.385-.963-.193-.77-.866-.578.144.193.288.385 1.732 1.107Zm209.715-3.368c0 .289 0 .626 1.107.962-2.406-.096-3.512-.048-2.742 1.828 2.261-1.49.817-1.539 2.405-2.164-.914-.77-1.732-.626-.77-.626-.384-1.01-.192-.77-.866-.577.145.192.289.385.866.577Zm-209.811.048c1.299.818 1.972 1.3 2.742 1.78 1.347-3.223-2.55-.337-2.598-3.752.77-.145 2.02.48 1.876-1.107 0-.289-.481-.722-.77-.77-1.587-.144-.962 1.107-1.106 1.877-1.732.673 1.636 1.154-.145 1.972Zm27.712-1.443c-.53-.626-.337-.626-.867-.096 1.107.818.626.144-.433-.433h.433c-.336-.963-.144-.77-.866-.578.145.193.29.385 1.733 1.107Zm-6.64 0c-.577-.626-.385-.626-.914-.096 1.106.818.674.144-.385-.433h.385c-.337-.963-.144-.77-.866-.578.144.193.289.385 1.78 1.107Zm29.54-1.877c-.577-.673-.385-.673-.914-.144 1.107.866.674.193-.433-.433h.433c-.337-.962-.144-.77-.866-.529.144.192.289.337 1.78 1.107ZM227.7 42.867c1.54 0 1.636-1.588-.096 3.849 1.732-.626 1.732-.626 2.55-2.839-.337-.337-.673-.673-1.491-1.01-.193-.577-.337-1.444-.963.433v-.433c-.962.337-.769.144-.529.866.193-.144.385-.289.529-.866Zm-86.118-1.828c-.674.529-.674.336-.145.866.866-1.107.049-.53-.432 0h-.963c-.336-.963-.144-.77-.866-.578.145.193.289.385.866.578.385.962.145 1.202 1.54-.866Zm66.056-4.282c-.529-.674-.337-.674-.866-.145 1.107.866.529.049 0-.433-.385-.962-.192-.962-.962 0-1.107 1.107-.962 1.877-.962.963-.963.336-.77.144-.578.866 1.059-.818.578-2.55 3.368-1.251Zm-101.899.385c.577-.24 1.443-.385-.433-.963h.433c-.337-.962-.144-.77-.866-.577.144.193.289.385.866.578v.962c-.962.336-.77.144-.529.866.192-.145.337-.289.529-.866Zm-2.935.529c-.529-.626-.336-.626-.866-.096 1.107.866.53.048 0-.433-.385-.963-.144-1.01-.962 0-2.261-.53-1.876 1.587-3.03 2.934 2.26-.192 3.126-1.106 3.03-2.934.337 0 .674 0 1.828.529Zm86.793-4.86c1.106.867.529.049 0-.432v-.962c1.828-.434.625-1.925.962-2.84 1.828-1.827 1.78-2.116 2.742-1.875 1.107 1.972 3.32 1.01 4.859 1.78.914.433 1.203-.674.818-1.444-.24-.529-.818-.914-1.251-1.347-1.154 1.684-2.886.674-4.33.963-.625-1.588.289-.337-1.78.048-.337-1.732.145-1.54-2.165-.674.385.577.096.626 2.069.626 0 1.202.192.77-.962 1.924-2.358.577.337 2.357-1.732 3.175 2.79 2.261 1.395.433.77 1.059Zm26.701-4.233c.241-.289 2.454-2.598.962-1.395.385.385.385.625.818-.145.241-.433-1.203.626-1.78 1.973v-.433c-1.01.337-.77.144-.577.866.192-.144.385-.289.577-.866Zm2.454-7.553c-.674.529-.674.336-.145.866.866-1.059.193-.626-.433.433v-.434c-.962.337-.769.145-.529.866.193-.144.385-.288 1.107-1.732Zm-31.128 162.422c-.529-.674-.337-.674-.866-.144 1.107.866.625.192-.433-.433h.433c-.337-.963-.144-.77-.866-.53.144.145.289.337 1.732 1.107Zm-108.01-1.443c-.673.529-.673.336-.095.866.818-1.059.144-.626-.433.433v-.433c-1.01.384-.77.144-.578.866.193-.145.385-.289 1.107-1.732Zm112.869-1.973c.289 0 .626 0 1.01-1.155-.144 2.406-.096 3.561 1.781 2.791-2.069-3.224-.626.673-2.165-3.368-1.588 1.973.385 1.732-1.588 1.732-2.454-2.454.096-2.887 3.608-4.282-2.068-1.732-1.924-1.347-.914-1.732-1.395-1.154-1.299-1.251-2.165-1.636h.433c-.385-.962-.192-.769-.866-.529.578.722 1.78.529 1.78 2.454-2.886 1.443-1.203.866-3.271 0h.433c-.337-.962-.145-.77-.866-.578.818 1.059 1.828-.048 1.828 3.416-1.828 1.877-.241.337-2.694 1.299 1.058.818.673.626 1.732.626 1.78 1.78.866 2.213 1.924.962Zm12.365-1.491c1.106.866.529.048 0-.433 0-1.492 1.299-2.406 0-1.348.385.385.433.626.866-.144.144-.337-.722.481-1.636.866 2.79 2.261 1.395.433.77 1.059Zm-139.137-.963c1.106.866.577.048 0-.433 0-1.443 1.299-2.405 0-1.347.433.385.433.626.866-.144.144-.289-.722.529-1.636.866 2.79 2.261 1.395.433.77 1.058Zm153.426-3.271c.288-.241 2.453-2.598.962-1.395.385.433.433.625.866-.145.24-.433-1.251.626-1.828 1.973v-.433c-.963.337-.77.144-.53.866.145-.145.337-.289.53-.866Zm-4.811.577c-.578-.673-.337-.673-.915-.144 1.107.866.674.144-.384-.433h.384c-.336-.962-.144-.77-.866-.578.145.193.337.385 1.781 1.155Zm-35.266 0c-.529-.673-.337-.673-.866-.144 1.059.866.626.144-.433-.433h.433c-.385-.962-.192-.77-.866-.578.145.193.289.385 1.732 1.155Zm49.218-8.131c-.674.578-.674.337-.145.866.866-1.106.049-.529-.433 0-.288.145-1.587.482.289.866-.385.818-.529 1.588-1.01 1.973-.962.866-2.935.433-3.127 2.357 1.491 1.829 3.175-1.154 5.003.722-.914-1.924 1.828-3.56-1.155-4.955 0-.289 0-.626.578-1.829Zm5.725-6.639c-.674.529-.674.337-.144.866.866-1.106.192-.625-.433.433v-.433c-.963.337-.77.144-.53.866.193-.144.337-.289 1.107-1.732Zm-18.763.481c-.53-.673-.337-.673-.866-.144 1.106.866.625.144-.433-.433h.433c-.337-.962-.145-.77-.866-.577.144.192.288.384 1.732 1.154Zm-153.715-4.33c-.673.578-.673.385-.144.914.866-1.106.192-.673-.433.433v-.433c-.962.337-.77.145-.53.866.193-.144.386-.288 1.107-1.78Zm182.004-21.89c-.674.529-.674.337-.144.866.866-1.059.192-.626-.433.433v-.433c-.963.385-.77.144-.53.866.193-.145.337-.289 1.107-1.732ZM43.724 124.367c-.53-.674-.337-.674-.866-.096 1.107.817.626.144-.433-.434h.433c-.337-1.01-.144-.769-.866-.577.145.193.289.385 1.732 1.107Zm194.08-24.296c-.674.577-.674.336-.145.914.866-1.107.193-.674-.385.385v-.385c-1.01.337-.817.144-.577.818.193-.145.385-.289 1.107-1.732ZM52.961 94.394c-.673.529-.673.336-.144.866.866-1.107.193-.674-.433.433v-.433c-.962.336-.77.144-.577.866.192-.145.385-.289 1.154-1.732Zm199.565-7.12c4.474 1.49 5.917-2.358 3.8-2.503v-2.646c-4.137-.673-4.089-.144-1.01-1.683-4.282-4.523-1.491-3.753 2.309-3.32-3.993-3.416-1.972-2.598-6.495-.914h.433c-.385-1.01-.192-.77-.866-.578.097.193 1.636 1.107 1.732 2.935.049.626-.962 1.732-.817 1.828.769.722 1.01 1.492.866 2.454-.963.385-1.925.77-2.887 1.107 2.261 4.04-1.203-.048-1.876 2.742-6.977 0-4.956-.914-3.801 4.041.337 1.588-.626 1.828-4.234.53.674.77.866 1.106 1.01 1.106 2.646-.385-.384-1.155 1.348 0-.289.577-.53 1.155-.818 1.876 3.175-.914 3.175-.914 4.137 1.059 4.234-.433 3.849-.048 2.358-1.492.817-.818 2.068-1.491 2.357-2.502.192-.817.048-1.876 1.058-3.608-.673.53-.625.337-.096.866.866-1.106 0-.529-.433 0-1.78-.288-.866-1.299 0-2.838 3.464 0 3.079-.433 1.925 1.54Zm-49.651 87.609c-.529-.673-.337-.673-.866-.144 1.107.866.529.048 0-.433 0-2.887-.962-1.444-.962 0h-.962c-1.396-1.925-3.128-.577-4.811-.289 3.897.77 2.646.096 2.983 2.165-2.983.818-2.983.818-2.406 3.657.77-1.155 1.588-2.358 2.357-3.609 3.416.914 2.839 1.444 2.839-1.924.337 0 .625 0 1.828.577Zm48.688-58.695c-2.261 0-1.732.77-2.261-3.272-1.78 3.801-2.02 3.224.337 3.272.77 1.01.529 1.539 2.454-.866-.674.529-.674.337-.145.866.914-1.107.048-.529-.385 0Zm-141.061 72.599c.048 1.059-.337.914 1.876.481-.144-1.202-1.347-.385-1.876.722v-.433c-.24.096-.529.144-.722.289-.24.192.385 1.539.722-1.059Zm132.305-45.513c1.347-1.202 1.251-.577.674-2.309-.144.577-.337 1.155 1.01-.866a6.78 6.78 0 0 1-.577.433c.866.866 1.78-2.213-1.107 2.742ZM232.512 69.52h-1.925c-.337-.962-.144-.77-.866-.577.144.192.289.385.866.577.096 1.444 1.203.818 1.925.963.144.721-.482 1.828 3.704.048-2.406-.482-.77.625-2.021 1.491-.914.625-1.202 1.443-.385 2.069 1.54 1.155 4.571-3.464-.384-1.684-.145-.722.481-1.828-.914-1.924 0-.337-.001-.626.529-1.829-.674.53-.674.337-.145.866.866-1.106.049-.529-.384 0ZM197.15 24.344c-.529-.673-.337-.673-.866-.096 1.058.818.722.192-.722-.433 1.011-.048.866.337.433-1.876-1.443.192 0 1.635 1.155 2.405Zm19.052 145.776c-.529-.673-.337-.673-.866-.144 1.539 1.203-.193-.289-2.309-1.54 1.202 1.347.577 1.251 2.309.674-.577-.193-1.155-.337.866 1.01Zm13.423-132.016c-.77.096-2.021-.481-1.877 1.058.049.289.482.77.818.818 1.54.097.915-1.106 1.059-1.876.433-.193 1.636-.481-.722-.962 1.011-.048.866.336.433-1.877-1.588.193.289 1.203.289 2.839Zm-29.588 131.054c-.578-.674-.385-.674-.915-.144 1.155.866.53.048 0-.433 0-1.54-.048-2.406.049-.866 3.608-.674 1.154-1.684-.049-.097-4.089 0 .385 1.299.915 1.54ZM47.188 142.697c1.251 1.347.577 1.251 2.357.674-.577-.145-1.154-.337 2.358 1.587-2.502-2.742.866.77-4.715-2.261Zm204.375-2.694c1.155 1.154 1.396.337-1.106 6.11 1.299-1.155 1.251-.529.625-2.309-.144.577-.288 1.154.481 0 3.561 0 2.598.192 3.801-.674a39.571 39.571 0 0 0-.962-1.203c-.096-2.02-1.924.145-1.924-1.924 2.598-1.732 1.924-3.705.673-5.341-2.309-1.683-3.031 2.502-5.436.53v2.934c-.963.337-.77.145-.53.866.193-.144.385-.288.53-.866 1.491-.673 2.934-1.395 4.763-2.213 0 4.908.866 4.715-3.224 2.983 1.155 1.347.529 1.251 2.309.674-.577-.145-1.154-.337 0 .433Zm-13.423-27.039c-.577-.673-.336-.673-.866-.144 1.011.818.722.241-.769-.385 1.058-.048.914.289.481-1.924-1.443.192 0 1.636 1.154 2.453ZM63.402 58.118h.432c-.096-.289-.144-.53-.288-.722-.193-.288-1.54.337 1.01.674-1.01.048-.866-.337-.433 1.924 1.155-.192.385-1.395-.722-1.876Zm154.772-16.02c.049 1.058-.336.913 1.877.48-.145-1.203-1.347-.385-1.877.722v-.433c-.24.096-.481.144-.721.289-.241.192.385 1.54.721-1.059Zm14.338 3.078c1.106.866.481.048 0-.433 0-3.656-.241-.096 3.945-6.158-1.348 1.25-1.251.626-.674 2.357.193-.577.337-1.154-.433 0-3.656-4.281-.096-.192-3.801 2.647 2.695 3.367 1.877.673.963 1.587ZM40.549 113.35h.433c-.096-.24-.145-.529-.289-.721-.048-.048-2.261-.337 2.646 1.828-1.25-1.347-.625-1.251-2.357-.674.529.193 1.106.337-.433-.433Zm205.241-29.3c.096 1.011-.289.867 1.925.434-.145-1.203-1.348-.385-1.877.721v-.433c-.24.097-.529.145-.721.29-.289.192.384 1.539.673-1.011ZM118.152 196.967c-.048-1.155.481-.914-2.839-.481.145 1.491 2.358.048 3.368-1.155-.674.578-.625.337-.096.866.818-1.01.192-.721-.433.77Zm-55.376-32.571c-.53-.674-.337-.674-.866-.144.818.625.818.24-.048.721.096-2.405.048-3.56-1.78-2.79.48.77.914 1.443 2.694 2.213Zm170.698-68.27c-1.732.337-1.54-.144-.626 2.118 1.059-.722 0 .048 1.155-2.935-.674.577-.674.336-.144.914.769-1.01.144-.674-.385-.096Zm18.955-41.279c-.529-.673-.336-.673-.866-.144.818.626.818.24-.048.722.097-2.406.048-3.56-1.828-2.79.529.77.962 1.443 2.742 2.212ZM178.387 184.41c-.674-.625-1.203-1.058-1.973-1.78-.337 2.406.529 2.309 2.309.337-.673.529-.673.337-.144.866.818-1.011.241-.722-.192.577Zm72.214-124.415c-.337-.962-.144-.77-.866-.577.145.192.289.385.866.577-1.106 2.262-.962 2.839-.962 1.925-.962.337-.77.144-.577.866.192-.145.385-.289.577-.866.674-.145 1.684.433 1.828-.722.145-.77-2.069-1.203-.866-1.203ZM39.057 86.504c-.048-1.203.481-.963-2.838-.53.144 1.492 2.357.096 3.368-1.106-.626.529-.626.336-.097.866.818-1.059.193-.722-.433.77Zm8.516-6.4c1.732-.336 1.54.145.674-2.164-.915.673-.626 3.56-.626 2.069-.962.336-.77.144-.577.865.192-.144.385-.288.529-.77Zm27.471 98.003c-1.01.048-.914-.337-.433 1.876 1.3-.144.337-1.347-.914-1.684.626-.674 1.107-1.155 1.828-1.924-2.405-.337-2.309.481-.48 1.732Zm180.32-24.008c-.048-1.154.481-.914-2.838-.481.032.193.048.401.048.626.962-.049 1.876-.097 2.79-.915 1.107-.817 1.203-.433 0-1.876-.337-1.876-.337-1.876-2.886-1.491-.049 2.453 1.876 1.154 2.886 1.491v2.646ZM45.649 103.438c-.53-.673-.337-.673-.867-.144 1.01.77.722.241-.625-.24.626-.674 1.107-1.155 1.828-1.925-2.405-.385-2.309.481-.336 2.309Zm193.694-35.746c-2.405-.144-3.56-.096-2.79 1.78.77-.48 1.443-.962 2.213-2.742-.674.577-.674.337-.144.914.625-.866.24-.818.721.048Zm-69.761-40.076c-.336-.962-.144-.77-.866-.578.145.193.289.385.866.578.289 2.117-.096 1.732 1.492.962.24-.144 2.261-.096.337 0 .433 2.213.192 1.876 1.01 1.78-.193-2.069-.722-.433-1.155-3.464-1.78 1.059-2.694.722-1.684.722Zm-20.928 5.003c0 .578-.577.433 3.705.433 0-.962-2.887-.192-3.705.289-1.491.577-.433-.048-.192 1.347 1.539.53 3.079 1.058 4.811 1.636-.866-2.935-3.031-1.78-4.619-2.02v-1.685Zm79.768.289c1.107.433 1.973.818 2.935 1.203-.241-1.732-.241-1.732-2.646-.096-.048-1.01.529-.867-2.839-.434.818 1.01 2.165 1.059 2.55-.673Zm33.004 43.54c-1.395.289-2.694.722-1.876 2.935 3.464-5.436 1.058-4.041 1.972-3.175.77-1.01.193-.722-.096.24Zm-93.72-51.96c0-.529.529-.384-3.753-.384 0 1.106 2.839.096 4.282-1.155-.673.53-.673.337-.096.866.818-1.059.193-.722-.433.673ZM66.24 62.882h.433c-.53-1.588-1.876 1.203 1.828-2.79-1.972 3.993-2.213 3.656 0 3.32 0-.77 0-1.492-2.261-.53Zm178.636 88.572c-.962 0-1.924 0-4.378.866 1.636-.673 1.395-2.405 1.924-4.041a694.33 694.33 0 0 1-3.223 1.395c.577 1.155.962 1.924 2.839 1.78 1.587 2.406 1.25 2.406 3.415-.866a6.78 6.78 0 0 0-.577.433c.866.866 1.347-1.155 0 .433Zm-61.005 31.417c-2.357 0-2.02.577-1.106-2.839-1.925 0-3.512.048-1.636 0-.722-3.656-1.732-1.203-.096 0 .385.914-.866 2.406.962 2.839.385 4.666-.433 2.453 2.646.962-1.058.048-.914-.337-.481 1.876.225-.032.433-.064.625-.096-.048-.577-.096-1.203-.914-1.78 0-1.492 1.299-2.406 0-1.395.914.914 1.396-1.107 0 .433Zm74.332-87.61c3.56 0 3.031.433 2.694-1.684-4.522 1.203-1.636 1.347-2.117-3.031-.674.577-.673.337-.144.914 1.539-2.02-1.684 1.732-2.935.096-.529.866-1.058 1.78-1.684 2.598-.144.192-.77 0-.866.144-.289.53-.433 1.155-.722 1.925 5.581-1.107 4.715-1.251 5.148-.193.225-.256.433-.513.626-.77ZM41.896 93.335c-.337-.962-.144-.77-.866-.577 1.972 2.55 2.694 1.203 4.282 1.443.048 0 .144-.385.24-.721-1.78 0-5.292-.145-3.656-.145ZM89.14 44.743h.433c-.385-.962-.193-.77-.866-.529.144.192.288.337 3.03.914-1.972-.192-1.972-.192-3.03 2.02 1.25-.817 1.972-1.346.433-2.405Zm-6.303 140.243c.097-2.405.048-3.56-1.78-2.79.481.77.914 1.443 3.272.722-1.444 1.251-1.444 1.251.192 2.646l1.203-1.299c-.53-.481-.962-.914-2.887.721Zm-30.646-34.495c-1.059.048-.914-.337-.481 1.876 1.347-.192.288-1.395-.963-1.876.866-1.572.866-3.127 0-4.667 0 1.54 0 3.127 1.444 4.667ZM110.02 40.076c1.299 1.01 1.684 2.646 3.127 1.54.241-.24.096-1.01.145-1.54-2.358 0-1.829 3.416-1.829 1.829-.962.336-.769.144-.577.866.192-.145.385-.289-.866-2.694Zm139.618 2.79c2.165-.144 1.732.77 1.732-4.473-2.261 5.917-.722 5.821-3.56 3.223-.193 2.31.577 2.406 1.828 1.25ZM60.226 81.79c-3.271-3.657-2.935-3.224-2.935 0 .866 0 1.588 0 1.732-2.502.032.256.048.529.048.818 2.214-.433 1.877-.193 1.78-1.01-.577.047-1.202.096-.625 2.694Zm169.976 86.647c1.155 1.347.529 1.251 2.31.674-.578-.193-1.155-.337 1.731.385-1.395.24-1.395.288-2.357 2.79l1.107 1.107c.385-1.203.769-2.406-2.791-4.956Zm-171.9-95.067c1.058-.048.914.337.48-1.924-.192.032-.4.064-.625.096.049.625.097 1.203 1.155 1.395-1.106 3.8-1.54 4.138 1.54 2.983-.53-1.058-.914-1.828-2.55-2.55ZM202.97 28.578c-.385-1.01-.192-.77-.866-.577.145.192.289.384 1.011.721 0 3.897-.77 3.657 2.934 0-1.683 0-4.618-.144-3.079-.144Zm17.272 11.98c-2.935-2.07-3.223-2.07-3.993.384.962 0 1.828.049 2.694 0 .578-.048 2.646-2.598 1.155-1.347 1.01.963 1.155-1.54.144.963ZM60.948 59.032c-.337-.962-.145-.77-.866-.53.192.193.337.338.866.53 0 2.839-2.454 2.31 1.828 4.378-.53-.673-.337-.673-.866-.144 1.492 1.155-.577-.481.337-1.203 1.01-.77-.866-2.02.48-2.694-2.068-.385-2.693-.337-1.78-.337Zm4.041 107.672c1.059-.048.914.337.481-1.876-1.684.192 2.165 3.608-1.106 3.753h.433c-.385-.963-.193-.77-.866-.53.144.145.288.337.866.53.144.673-.481 1.732.721 1.876 1.877.241.915-1.973 2.165-2.454-.721-.481-1.347-.914-2.694-1.299ZM176.8 26.124c5.052-3.416 4.859-2.55 1.636-4.09-.481 1.155-.866 2.214.673 2.84-.048 1.635.626 2.646 2.695 2.79 0-2.79 1.01-3.849-5.004-1.54ZM63.69 71.83c-.818-1.155-1.924-1.925-3.464-1.01-.24.144-.048 1.01-.048 1.828 1.828-1.684 1.347-2.021 2.117 1.924.577-1.155.962-1.925 1.154-4.956a6.799 6.799 0 0 0-.577.433c1.444 1.444.53-2.26.818 1.78Zm146.883-43.252c0 6.399 5.34 5.244-1.973 5.918.53 2.357 3.561.77 5.726 1.299-.578-.674-.337-.674-.915-.145 1.155.866.53.048 0-.433 0-2.646 0-2.646-1.876-2.838 0-.914.096-1.828-.048-2.694-.289-1.684-4.715 3.223-.144-1.396-1.54-3.849-.962-3.849-2.021-.721-.481-.289-.914-.578-2.213-1.396.914 1.78 1.347 2.598 3.464 2.406Zm37.142 120.951c4.474-.241 3.8.048 4.041-.962-3.993-2.647-1.588-1.684-4.426 0h.385c-.337-.963-.145-.77-.866-.53.144.193.336.385.866.53v.962c-.963.385-.77.144-.53.866.193-.145.385-.289.53-.866Zm-63.796 29.347c-.048-1.058.337-.914-1.924-.481.032.193.064.401.096.626 2.839-.241.048-2.021 6.014.192-.625-.722-.818-1.058-.962-1.058-2.646.385.385 1.106-1.347-.048-1.636-2.214-1.107-1.203-1.925-3.801 1.396-1.395.385-1.395 2.743-.481 3.415-3.416 2.453-2.021.962-2.406-1.636-.385-1.059-1.924-2.742 1.925-6.784 6.831-1.299 1.25-.915 5.532Zm72.937-90.208c-.674.53-.674.337-.097.866.818-1.106.145-.625-.433.433v-.433c-1.01.337-.769.145-.577.866.193-.144.385-.288 1.107-1.732ZM46.274 158.092h.385c-.337-.962-.145-.769-.866-.529.144.193.289.385.77.433.962 1.203-1.444 1.973-.24 3.176.336.336.624 2.453.769 2.598 2.357-4.956 2.983-4.379-.818-5.678ZM202.009 21.89c-.096-.24-.144-.529-.288-.721-.193-.24-1.396.481.769.577-2.983 5.87-3.127 5.148 1.54 4.619-1.684-5.004-3.224-4.474-2.021-4.474Zm-5.196 8.564h.433c-.433-1.106-2.887.24 3.801-.962-.818.337-1.588.77-1.636.674-.962-1.492-1.395.721-2.165.288 1.107 6.11 8.42.914-.433 0Zm55.231 127.35c1.781.24 6.977 1.106 5.87-.289-1.78-2.309 1.54-.673 1.203-1.732-3.272-3.079-4.426 1.107-2.021 3.079-1.78.241-2.742.337-3.801.481 1.011 1.925 1.011 1.925-1.251-1.539Zm-211.062-3.512c-1.588-3.272-.674-3.128-3.945-1.251.48 1.491 1.25 2.453 2.983 2.213.432 1.203.866 2.405 1.347 3.704 3.993 1.396 2.357-3.512 5.532-2.79.626.144.626-3.079.77-.818 3.609-.722 1.155-1.732-.048-.096-2.069.048-3.079-.529-1.972-2.839.144-.336-.867-1.251-1.877-2.742v6.399c-1.54-3.176-.914-2.887-2.79-1.78ZM241.268 77.17c1.058-.048.914.337.481-1.924-.225.032-.433.064-.626.096.048.625.097 1.203.915 1.828a32.063 32.063 0 0 0-.337 1.732c-.963-1.01-2.358.53-3.176-.385-1.154 1.347-7.264 2.02-1.732 1.443.048 0 .193-.673.097-.721-.482-.24-1.011-.385-1.492-.578 3.464-4.041 3.801-4.33-.914-2.068 0 1.01 0 2.068 2.79 3.415 0 1.925-.24 1.3.963 1.396 4.859.288 1.106 3.416 5.581 1.058 0 0-.097-.192-.145-.337-.962-.288-2.357-.24-1.154-2.26 1.539.288 3.271.625 5.484 1.01-.866-1.444.145-1.925-6.735-3.705Zm-20.351 110.318c.77-3.127-3.127-2.213-3.56-4.041 1.828-2.309 3.656-4.619 6.061-7.65-7.697 2.117-6.639 1.011-5.532 4.859-.578 1.732-3.705 1.011-3.512 3.272 1.587 1.299 2.983 2.454 4.522 3.705.337-2.262 1.155-.097 3.272-4.186-1.347 1.155-1.251.529-.674 2.309.144-.577.337-1.154-.577 1.732Zm26.076-58.262c1.106-1.443-.481-2.358-.626-3.56-.866.096-1.683.24-3.031.433 2.839 3.608 2.55 2.742 1.492 4.185 5.869 0 5.292.385 2.165-1.058Zm1.203-78.469c.336-1.876 2.405-3.079 1.01-5.052-.385.337-.722.626-1.058.963-1.155-2.406-.674-2.406-2.165.577.625 1.01 1.347 2.165 2.213 3.512ZM92.028 190.808c6.158 2.261 5.532 2.069 6.11.24-3.32-.24-1.492-.481-2.743-1.491-1.972-1.491-2.02-.529-3.367 1.251ZM224.91 77.074c-.241-2.935-.193-2.887-1.973-2.31-2.55.915-1.683-.577-2.982 2.31h4.955Zm25.162-1.588c-7.072 0-6.254-.674-1.588 2.55.433-.722.914-1.443 1.588-2.55Zm-32.667-40.894c.096.24.24.625.336.625 2.069-.192.915-.529 1.925-2.838.192-.385 1.395.048 1.251-.818-7.409 0-1.203 1.684-3.512 3.03Zm-43.637-5.148c2.117.674 1.251-2.02 2.502-2.31l-1.395-1.395c-1.396 1.107-1.973 2.165-1.107 3.705ZM57.243 170.313c4.667 2.838 1.828 1.443 1.877-1.203 0-.77.385-1.54.673-2.358-.288.097-2.31 2.935-2.55 3.561Zm152.56 5.532v4.33c1.251-2.068 5.629 1.925 0-4.33Zm42.675-20.11c-1.251-.289-.289-2.983-2.791-2.165-.144 1.395-.289 2.742 1.492 3.464.336-.289.673-.625 1.299-1.299ZM109.251 41.76c-2.742-3.656-1.491-3.223-5.532-1.202 1.635.336 3.127.673 5.532 1.202Zm101.418 127.061c2.021-.529 3.079-1.154 2.454-3.223-1.636.385-2.694.914-2.454 3.223Zm-156.216 4.571c.962 2.838-.337 2.165 4.522 2.934-2.02-1.395-2.502-3.127-4.522-2.934Zm196.1-69.665c.193-1.539.241-2.887-1.732-3.608 0 4.33-.433 3.608 1.732 3.608Zm9.334-19.1c-1.396 1.059-2.165 2.117-1.492 3.608.145.29.962.241 1.492.385v-3.993ZM116.66 199.756c-2.02 3.561-2.261 2.839 1.78 2.598a87.584 87.584 0 0 0-1.78-2.598Zm141.35-56.53c-1.732 3.56-1.828 2.454 0 4.859v-4.859Zm-25.21-61.1c.225-.225.433-.466.626-.722-.818-.77-1.588-1.588-2.695-2.117-.192 1.78.626 1.876 2.069 2.838Zm-189.172 6.59c.818 2.214 0 2.117 3.993 0h-3.993Zm163.048 95.693c-2.598-4.426-2.021-4.955-1.588 1.588l1.588-1.588Zm-98.243 14.385c-.529-1.491-.529-1.491-2.694-2.117-.337 2.117 2.021 1.155 2.694 2.117ZM237.9 97.28c-5.244-.288-3.416 2.358-1.925 1.588.53-.289.915-.77 1.925-1.588Zm3.079 1.636c3.031 0 2.117.481 3.945-1.299-.673-.77 0-.914-3.945 1.3Zm-107.432 93.528c-.385-2.983-1.876-1.684-3.608-1.732 1.443.721 2.309 1.106 3.608 1.732Zm-46.33.673c-.915-1.972-.29-1.924-2.84 0h2.84Zm6.158-141.83c-.049 2.982 1.635 1.731 2.79 1.587-.77-.433-1.588-.914-2.79-1.588Zm113.157-25.355c0-3.608.433-3.32-1.78-1.78.673.721 1.106 1.106 1.78 1.78ZM88.371 187.392c3.608 0 3.32.481 1.78-1.78l-1.78 1.78Zm-30.84-26.413c-1.01 1.684.386 2.021 1.156 2.839 1.01-1.684-.385-2.021-1.155-2.839Zm186.72-24.825c-.241 2.742-.241 2.742 1.491 2.502-.481-.77-.914-1.588-1.491-2.502Zm-19.726-99.301c2.165-.096 2.165-.096 2.887-2.117a435.174 435.174 0 0 1-2.887 2.117Zm-35.746-9.718c-1.203.384-2.887.866-1.396 2.598.482-.915.963-1.78 1.396-2.598Zm61.774 133.652c2.358-1.251 2.406-.53.193-3.079-.049 1.25-.145 2.068-.193 3.079Zm-11.98-73.658c-.192 2.31-.192 2.31 1.251 2.02-.288-.48-.625-1.058-1.251-2.02Zm-28.674 77.603c1.492-.096 1.203.433 1.636-1.588-.818-.529-.433-.77-1.636 1.588Zm-100.792 35.65c-2.309-.144-2.309-.144-2.021 1.299.481-.337 1.059-.674 2.021-1.299Zm140.58-73.321c.626-.193 1.299-.481 2.309-.866-1.924-.722-2.646-.529-2.309.866ZM226.113 21.457c-2.55-1.106-2.261.049-2.021 1.251.674-.433 1.251-.77 2.021-1.25Zm25.595 92.037c.048 1.154-.433.914 2.598.529-.096-.674.385-.529-2.598-.529Zm-96.03 65.671c.674-1.876.145-2.309-.721-1.973.24.578.481 1.299.721 1.973Zm103.343-98.387c-.097-1.106.385-.914-2.598-.48.096.625-.385.48 2.598.48Zm-206.974.626c2.695 1.058 2.358-.048 2.021-1.01-.53.288-1.203.577-2.02 1.01Zm196.822 69.231c0 1.107-.481.914 2.55.529-.048-.673.433-.529-2.55-.529Zm-42.626-110.27c-1.203-.337-1.203-.337-1.059 2.31.578-1.3.915-1.925 1.059-2.31Zm-105.219.818c.529-.144 1.251-.385 2.358-.722-2.021-.721-2.695-.48-2.358.722Zm27.664 5.87c.577-.241 1.251-.482 2.261-.915-1.876-.673-2.646-.529-2.261.915Zm116.477-8.035c1.299.048 2.117-.144 1.058-2.165-.385.77-.673 1.395-1.058 2.165Zm.721 15.684c.578-.24 1.299-.53 2.262-.914-1.877-.722-2.598-.53-2.262.914ZM49.69 97.954c1.154-.096.914.385.481-2.598-.625.048-.481-.385-.481 2.598Zm103.005 90.641c.626 0 .481.433.481-2.839-.673 0-.481-.433-.481 2.839Zm-97.28-43.011c1.107-.097.914.384.481-2.598-.625.096-.481-.337-.481 2.598Zm196.389-82.126c2.55.145 2.55.145 2.261-1.106-.433.192-1.058.529-2.261 1.106ZM145.623 32.523c-1.155.096-.914-.385-.481 2.598.625-.048.481.385.481-2.598Zm110.078 108.586c.625-.625 1.107-1.106 1.732-1.78-2.165-.577-2.309.145-1.732 1.78Zm-13.086 25.355c.288-.241.24-.77.337-1.203-3.561.914-.818 1.684-.337 1.203Zm-125.762 26.557c1.058.289 1.058.289 1.01-1.01l-1.01 1.01Zm4.955.192c-.096-1.154.385-.914-2.598-.529.048.674-.385.529 2.598.529Zm114.841-27.327c.625-.625 1.107-1.154 1.732-1.78-2.165-.577-2.357.145-1.732 1.78ZM113.148 45.706c-.625 0-.481-.337-.481 1.924.626 0 .481.337.481-1.925Zm95.308-1.877c-.914.577-.818.096-.433 1.732.77-.433.722.048.433-1.732Zm-100.167.144c-.866 1.107-.674.674-.289 1.588 1.011-.433.914-.096.289-1.588ZM59.793 144.766c-.625 0-.48-.337-.48 1.924.624 0 .48.337.48-1.924Zm-6.11.144c-.385.914-.53.529.289 1.636.625-1.492.721-1.155-.289-1.636Zm64.469-102.765c0 .577-.385.481 1.876.481 0-.625.385-.48-1.876-.48ZM51.422 58.84c-.626-.914-.096-.818-1.732-.433.433.77-.048.721 1.732.433Zm164.684 63.025c.24-1.732.336-1.251-.433-1.684-.433 1.588-.53 1.107.433 1.684Zm4.137 32.138c.914.337.529.529 1.636-.337-1.54-.625-1.203-.721-1.636.337ZM244.635 39.98c-.625 0-.481-.336-.481 1.925.626 0 .481.336.481-1.925ZM64.556 60.957c-.625 0-.481-.337-.481 1.924.626 0 .481.337.481-1.924Zm161.22-21.17c-.577-.913-.096-.817-1.732-.432.433.77-.048.721 1.732.433Zm-77.122-.48c0 .577-.385.433 1.876.433 0-.578.385-.433-1.876-.433Zm72.744 127.542c-.385.914-.577.481.289 1.587.625-1.491.721-1.154-.289-1.587Zm6.014-89.535c-.866 1.059-.674.674-.337 1.588 1.058-.433.962-.096.337-1.588Zm-2.55-12.316c0 .625-.337.481 1.924.481 0-.625.337-.481-1.924-.481Zm20.976 44.31c0-.625.337-.481-1.924-.481 0 .577-.337.481 1.924.481ZM132.296 36.805c-1.106-.818-.721-.674-1.635-.289.481 1.01.144.914 1.635.289Zm102.91-24.777c-1.107-.818-.722-.674-1.636-.289.481 1.059.144.914 1.636.289ZM96.55 36.324c-.385.914-.53.529.289 1.636.625-1.54.77-1.155-.29-1.636Zm119.7 39.114c-1.78-.24-1.299-.337-1.732.433 1.636.433 1.155.481 1.732-.433Zm-9.67-59.225c-.963.578-.866.097-.433 1.732.721-.433.673.049.433-1.732Zm28.145 51.575c-.385.866-.53.481.288 1.588.626-1.492.722-1.155-.288-1.588Zm19.533.481c-1.107-.866-.722-.673-1.588-.336.433 1.058.096.962 1.588.336ZM206.05 170.505c.626 0 .482.337.482-1.924-.626 0-.482-.337-.482 1.924Zm32.86-44.791c-.625 0-.481-.337-.481 1.924.626 0 .481.337.481-1.924Zm-46.427-90.737c0-.578.337-.433-1.924-.433 0 .577-.385.433 1.924.433Zm-15.395-12.461c-1.107-.818-.722-.674-1.636-.289.481 1.01.096.914 1.636.289ZM67.491 56.819c-1.107-.866-.722-.674-1.588-.289.433 1.01.096.914 1.588.289Zm169.591 84.771c-1.058-.817-.674-.673-1.588-.288.433 1.01.097.914 1.588.288Zm-77.988 34.833c-1.78-.289-1.299-.337-1.732.433 1.636.385 1.155.481 1.732-.433Zm19.052.529c-.577-.914-.096-.818-1.732-.433.433.77-.048.722 1.732.433Zm.818-143.948c-1.107-.818-.674-.673-1.588-.288.433 1.01.097.914 1.588.288Zm48.592 40.943c-1.058-.818-.674-.674-1.588-.29.433 1.06.097.915 1.588.29Zm15.636 56.53c.626 0 .481.337.481-1.877-.625 0-.481-.336-.481 1.877Zm-129.996 55.231c.241-1.78.289-1.299-.433-1.732-.433 1.636-.529 1.155.433 1.732ZM62.536 53.499c-.818 1.059-.674.674-.29 1.588 1.06-.433.915-.096.29-1.588Zm177.577 51.527c0 .577-.385.481 1.925.481 0-.625.336-.481-1.925-.481Zm-123.116 79.816c-.962.577-.866.096-.433 1.684.77-.433.674.096.433-1.684Zm6.832 5.87c-1.78-.289-1.299-.337-1.732.433 1.636.385 1.154.481 1.732-.433Zm-19.245 1.684c-.673 0-.481-.337-.481 1.924.626 0 .481.337.481-1.924Zm16.551 2.549c.914.385.529.53 1.635-.288-1.539-.626-1.154-.77-1.635.288Zm-11.595 1.059c-.577-.914-.096-.818-1.732-.433.433.77-.048.721 1.732.433Zm-51.479-49.121c-1.78-.241-1.25-.337-1.684.433 1.588.433 1.107.481 1.684-.433Zm-4.907-57.397c.24-1.78.337-1.299-.433-1.732-.433 1.636-.53 1.155.433 1.732ZM39.009 88.38c-.577-.914-.096-.866-1.732-.433.433.77-.048.673 1.732.433Zm76.112 110.366c-1.107-.818-.674-.673-1.588-.289.433 1.011.096.915 1.588.289Zm4.763 0c-1.107-.818-.674-.673-1.588-.289.433 1.011.096.915 1.588.289ZM238.525 49.65c-.385.915-.529.53.289 1.636.625-1.491.77-1.154-.289-1.636ZM81.876 49.7c-1.732-.24-1.25-.29-1.684.433 1.588.433 1.107.529 1.684-.433Zm165.069 111.906c.866.384.481.529 1.587-.289-1.491-.626-1.154-.77-1.587.289ZM224.814 28.77c-1.78-.24-1.251-.336-1.684.433 1.588.433 1.106.482 1.684-.433ZM89.862 48.736c-.336.866-.529.482.337 1.588.626-1.491.722-1.155-.337-1.588Zm-28.144-.144c-.915.577-.866.096-.433 1.732.77-.433.673.048.433-1.732Zm96.462 125.954c0 .626-.385.481 1.876.481 0-.625.385-.481-1.876-.481Zm73.658-126.772c-.337.914-.529.481.337 1.588.625-1.492.721-1.155-.337-1.588Zm-8.66 1.732c.673 0 .481.337.481-1.876-.625 0-.481-.337-.481 1.876Zm-115.659-1.25c-1.106-.867-.721-.674-1.635-.29.481 1.011.144.915 1.635.29Zm70.338-21.458c-.866 1.106-.673.722-.288 1.636 1.01-.482.914-.097.288-1.636Zm70.82 43.925c0 .577-.337.481 1.924.481 0-.625.337-.48-1.924-.48ZM34.102 153.33c.24-1.78.337-1.299-.433-1.732-.433 1.636-.53 1.155.433 1.732Zm9.863-37.43c.914.337.529.529 1.587-.337-1.491-.625-1.154-.721-1.587.337Zm123.597-89.582c-1.107-.818-.722-.674-1.636-.289.433 1.059.096.914 1.636.289ZM50.363 88.909c-.288-.24-.433-.625-.673.289 0 .096.192.24.337.336.096-.224.208-.433.336-.625Zm2.647 2.405c.24-.288.625-.432-.29-.673-.095 0-.24.192-.336.337.225.096.433.208.626.337Zm171.034-.24c.289.289.433.625.625-.289.049-.048-.192-.192-.288-.288a5.577 5.577 0 0 1-.337.577Zm14.145-.096c-.337-.385-.097-.433-.915 0 .337.337.097.385.915 0ZM51.085 93.19c.289-.24.626-.433-.289-.626-.096 0-.192.193-.288.29.192.127.385.24.577.336Zm-4.282 1.443c.129.193.24.401.337.626.096-.097.337-.24.289-.337-.193-.914-.337-.578-.626-.289Zm182.678 0c-.241-.288-.434-.625-.626.289 0 .096.193.24.289.337.128-.225.24-.433.337-.626Zm14.096.77c-.192.096-.401.208-.625.337.144.096.24.288.336.288.914-.192.578-.385.289-.625Zm-3.608 2.069c-.241-.24-.433-.578-.626.337 0 .048.193.192.289.288.128-.192.24-.4.337-.625Zm24.777 0c-.241-.24-.433-.578-.626.337-.048.048.193.192.289.288.128-.192.241-.4.337-.625ZM45.408 98.916c.24-.24.577-.433-.337-.625-.048-.048-.192.192-.288.288.192.129.4.24.625.337Zm2.839.962c.24-.288.625-.433-.29-.625-.095-.048-.24.192-.336.288.225.097.433.209.626.337Zm3.32-.48c.127.192.24.4.336.625.096-.097.337-.241.289-.337-.193-.914-.337-.578-.626-.289Zm187.247 3.319c.289-.241.625-.433-.289-.626-.096 0-.192.193-.336.289.224.128.433.241.625.337Zm4.763.288c-.192.097-.401.209-.625.337.144.096.24.337.336.289.914-.193.578-.385.289-.626Zm-14.289 1.925c-.192.096-.401.208-.625.337.096.096.24.288.336.288.915-.192.578-.385.289-.625Zm-190.567 1.588c.24-.241.625-.433-.29-.626-.095 0-.24.193-.336.289.225.128.433.24.626.337Zm9.237.962c.192-.096.4-.209.625-.337-.096-.096-.24-.289-.336-.289-.915.193-.53.385-.29.626Zm200.574-.193a12.854 12.854 0 0 0-.336-.625c-.097.144-.289.24-.289.337.192.914.385.577.625.288Zm-199.323 2.117c.24-.288.625-.433-.337-.625-.048-.048-.193.192-.289.288.193.097.401.209.626.337Zm198.169 0c.288-.288.625-.433-.289-.625-.096-.048-.192.192-.289.288.193.097.385.209.578.337Zm-197.207 7.602c.24-.241.577-.433-.337-.626-.048 0-.192.193-.289.289.193.128.401.241.626.337Zm-3.608 2.405c-.289-.288-.481-.625-.674.289 0 .096.192.192.289.337.128-.225.256-.433.385-.626Zm3.608 1.396c.24-.241.577-.433-.337-.626-.048 0-.192.193-.289.289.193.128.401.24.626.337Zm197.447-.433c-.288-.289-.433-.626-.673.288 0 .048.192.193.337.289.096-.193.208-.385.336-.577Zm1.684 3.319c.241-.288.626-.433-.288-.625-.097-.048-.241.192-.337.288.224.097.433.209.625.337Zm-3.801.962c.241-.288.626-.433-.288-.673-.096 0-.241.192-.337.337.192.096.401.208.625.336Zm-201.536 2.358c.096.192.208.401.336.625.097-.096.29-.24.29-.337-.193-.914-.386-.529-.626-.288Zm190.278 1.924c-.24-.288-.432-.625-.625.289 0 .096.192.192.289.337.128-.225.24-.433.336-.626Zm-186.959 3.32c.289-.241.626-.433-.288-.626-.097-.048-.193.193-.337.289.224.128.433.241.625.337Zm198.554 1.588c-.385-.385-.144-.433-.962 0 .385.336.096.384.962 0Zm-196.774 3.319c-.385.385-.433.096 0 .962.385-.384.433-.144 0-.962Zm189.461 5.581c.225-.128.433-.24.626-.337-.096-.096-.241-.336-.289-.288-.914.192-.577.336-.337.625Zm-.192 1.443c.128.193.241.385.337.578.096-.096.336-.241.288-.289-.192-.914-.336-.577-.625-.289Zm-15.492 1.877c-.288-.241-.433-.626-.673.288 0 .097.192.241.336.337.097-.224.209-.433.337-.625Zm6.158 2.405c.225-.128.433-.24.626-.337-.096-.144-.241-.336-.289-.336-.914.24-.577.385-.337.673Zm16.695-.481c-.289-.289-.433-.625-.626.289-.048.096.193.192.289.289.096-.193.209-.385.337-.578Zm9.333-.192c-.192.096-.4.208-.625.336.096.097.241.289.337.289.914-.192.529-.385.288-.625Zm-29.203 2.213c-.385-.385-.096-.433-.962 0 .385.385.096.433.962 0Zm-3.945 2.069a12.928 12.928 0 0 1-.337-.626c-.096.096-.337.241-.289.289.193.914.337.577.626.337Zm15.251.673c-.289-.289-.433-.625-.673.289 0 .096.192.192.336.288a5.67 5.67 0 0 1 .337-.577Zm10.248.481c.288-.288.625-.433-.289-.673-.096 0-.192.192-.289.336.193.097.385.209.578.337Zm10.68-.481c-.24-.289-.433-.625-.625.289 0 .096.192.192.289.288.128-.192.24-.384.336-.577Zm-13.038.962c.097.193.209.385.337.578.096-.097.289-.241.289-.289-.193-.914-.385-.577-.626-.289Zm-2.886 1.203c.288.289.433.626.673-.289 0-.096-.192-.24-.337-.336a3.88 3.88 0 0 1-.336.625Zm-13.471 3.657c-.337-.337-.097-.385-.963 0 .385.384.145.433.963 0Zm-162.952.962c-.337-.385-.096-.433-.914 0 .337.385.096.433.914 0Zm193.31-.145c-.241-.24-.433-.577-.626.337 0 .048.193.193.289.289.128-.193.24-.401.337-.626Zm-203.173 1.444c.289-.241.626-.433-.289-.626-.096-.048-.192.193-.288.289.192.128.385.241.577.337Zm141.975-.674a5.49 5.49 0 0 0-.577.337c.096.096.241.337.289.289.914-.193.577-.385.288-.626Zm-147.652 1.636c.24-.289.577-.433-.337-.625-.048-.049-.192.192-.289.288.193.096.401.209.626.337Zm13.52-.192a3.886 3.886 0 0 0-.338-.626c-.096.096-.336.241-.288.289.192.914.385.577.625.337Zm129.37.192c.288-.289.625-.433-.289-.625-.048-.049-.193.192-.289.288.193.096.385.209.578.337Zm54.654 1.54c-.337-.337-.097-.385-.915 0 .337.384.097.433.915 0Zm-59.177.817c-.289-.24-.433-.577-.673.337 0 .048.192.193.336.289.097-.193.209-.401.337-.626Zm56.963.482c.241-.241.626-.433-.288-.626-.096 0-.241.193-.337.289.192.128.401.24.625.337Zm-174.546 1.106c-.337.385-.385.096 0 .962.385-.385.433-.144 0-.962Zm134.037.626c.289.24.433.577.625-.337.049-.048-.192-.193-.288-.289a3.894 3.894 0 0 0-.337.626Zm-121.288 1.635c-.288-.288-.433-.625-.625.289-.048.048.192.192.289.289a5.38 5.38 0 0 1 .336-.578Zm92.422 1.877c-.241-.241-.434-.626-.626.288 0 .097.192.241.289.337.128-.224.24-.433.337-.625Zm21.265 0c.096.192.208.401.336.625.096-.096.289-.24.289-.337-.192-.914-.385-.529-.625-.288Zm-60.043 1.251c.241.24.433.577.625-.337 0-.048-.192-.193-.288-.289a3.777 3.777 0 0 0-.337.626Zm44.503 0a12.534 12.534 0 0 1-.337-.626c-.096.096-.337.241-.289.289.193.914.337.577.626.337Zm-95.308.673c-.24-.289-.433-.625-.626.289 0 .096.193.192.29.288.127-.192.24-.385.336-.577Zm130.38.481c.241-.289.578-.433-.336-.673-.048 0-.193.192-.289.336.193.097.401.209.625.337Zm-144.862.914c.29-.24.626-.433-.288-.625-.096 0-.193.192-.337.288.224.129.433.241.625.337Zm-6.447.481c-.288-.24-.432-.577-.673.337 0 .048.192.193.337.289.096-.193.208-.401.337-.626Zm95.886-.336c-.385.384-.433.144 0 .962.385-.385.433-.096 0-.962Zm43.011.817c.289-.24.625-.432-.289-.625-.096 0-.192.192-.337.289.225.128.434.24.626.336Zm17.849 0c.193-.096.385-.208.577-.336-.096-.097-.192-.289-.288-.289-.914.193-.578.385-.289.625Zm13.615 0c.241-.24.578-.432-.336-.625-.048 0-.193.192-.289.289.192.128.401.24.625.336Zm-167.714.963c.24-.241.625-.433-.289-.626-.096-.048-.24.193-.337.289.225.128.433.24.626.337Zm10.488-.674a3.88 3.88 0 0 0-.626.337c.097.096.241.337.29.289.913-.193.576-.385.336-.626Zm96.222 0c-.193.096-.401.209-.626.337.145.096.241.337.337.289.914-.193.577-.385.289-.626Zm31.801.337c-.385-.385-.144-.433-.962 0 .385.385.096.433.962 0Zm-35.602 1.588c-.192.096-.401.208-.625.336.096.097.24.289.336.289.914-.192.53-.385.289-.625Zm31.657.192c-.289-.289-.433-.625-.674.289 0 .096.193.192.337.288a5.39 5.39 0 0 1 .337-.577Zm10.584.144c-.336-.385-.096-.433-.914 0 .337.337.097.385.914 0Zm-129.081.433c-.385.385-.433.145 0 .963.337-.337.385-.097 0-.963Zm88.957.626a3.894 3.894 0 0 1-.337-.626c-.144.145-.337.241-.337.337.241.914.385.577.674.289Zm3.801.673c-.289-.24-.433-.577-.626.337-.048.048.193.193.289.289.096-.193.208-.401.337-.626Zm23.622 1.444c.241-.241.626-.433-.288-.626-.097-.048-.241.193-.337.289.224.128.433.24.625.337Zm7.024.625c-.385-.385-.144-.433-.962 0 .337.337.096.433.962 0Zm-69.905 1.299c.241-.289.577-.433-.337-.673-.048 0-.192.192-.288.336.192.097.401.209.625.337Zm37.96-.818c-.385.337-.433.096 0 .914.385-.336.433-.096 0-.914Zm2.983.818c.288-.289.625-.433-.289-.673-.096 0-.193.192-.289.336.193.097.385.209.578.337Zm-64.421.577c-.385-.336-.144-.384-.962 0 .337.385.096.433.962 0Zm45.561-.096c-.241-.288-.433-.625-.625.289 0 .048.192.192.288.289.129-.193.241-.385.337-.578Zm29.54 0c-.24-.288-.433-.625-.625.289 0 .048.192.192.288.289.129-.193.241-.385.337-.578Zm-39.547.722c-.241.289-.577.433.337.625.048.048.192-.192.288-.288a14.43 14.43 0 0 1-.625-.337Zm22.901 0c-.289.289-.626.433.288.625.097.048.193-.192.337-.288a3.964 3.964 0 0 1-.625-.337Zm-91.94 2.405a10.697 10.697 0 0 0-.385-.625c-.096.096-.289.241-.289.289.24.914.385.577.674.336Zm14.048.193c.289-.289.626-.433-.288-.626-.049-.048-.193.193-.29.289.193.096.386.209.578.337Zm20.014 1.876c.289-.24.626-.433-.288-.625-.097 0-.193.192-.289.288.192.129.385.241.577.337Zm89.102-.433c.128.193.24.385.337.578.096-.097.336-.241.288-.289-.192-.914-.336-.577-.625-.289Zm-102.573 1.54c-.385.385-.433.096 0 .962.385-.385.433-.096 0-.962Zm12.413.962c-.385.385-.433.096 0 .962.337-.385.385-.144 0-.962Zm-24.44 2.261c-.29-.288-.433-.625-.626.289-.048.048.192.192.289.289.096-.193.208-.385.337-.578Zm21.553-.385c-.337.385-.385.145 0 .963.385-.337.433-.097 0-.963Zm-4.426 1.299c-.241-.24-.433-.577-.625.337 0 .048.192.193.288.289.129-.193.241-.401.337-.626Zm24.44-.336c-.384.384-.433.144 0 .962.385-.385.433-.096 0-.962Zm-19.869 1.78c.288-.289.625-.433-.289-.626-.096-.048-.193.193-.337.289.225.128.433.24.626.337Zm13.807-.482c.129.193.241.401.337.626.144-.096.337-.241.337-.337-.241-.914-.385-.529-.674-.289Zm-29.78 1.251c-.129-.224-.24-.433-.337-.625-.144.096-.337.24-.337.289.24.914.385.577.674.336ZM231.886 15.107c.192-.128.401-.24.626-.337-.145-.144-.241-.337-.337-.337-.914.24-.578.385-.289.674Zm-62.64 6.64c.288-.241.625-.434-.289-.626-.096 0-.192.192-.289.288.193.129.385.241.578.337Zm13.086.961c.192-.096.401-.208.625-.336-.144-.097-.24-.289-.337-.289-.914.192-.577.385-.288.625Zm-11.932.482c-.24-.241-.433-.626-.625.288 0 .096.192.24.288.337.129-.225.241-.433.337-.626Zm52.201 2.405c.288-.289.625-.433-.289-.673-.048 0-.192.192-.289.288l.578.385Zm-15.348 3.945c-.385.337-.433.096 0 .914.337-.337.385-.096 0-.914Zm-61.486 1.395c-.384-.336-.096-.384-.962 0 .385.385.145.433.962 0Zm69.425-.144c-.241-.24-.433-.577-.626.337 0 .048.193.192.289.288.128-.192.24-.4.337-.625Zm10.295.481c.241-.24.626-.433-.288-.625-.097 0-.241.192-.337.288.224.129.433.24.625.337Zm14.145 1.107c-.385.385-.433.096 0 .962.385-.385.433-.144 0-.962Zm-132.113 1.299c-.24-.289-.433-.626-.625.288-.048.097.192.193.288.337.129-.224.241-.433.337-.625Zm107.817.144c-.385-.385-.096-.433-.962 0 .385.337.144.385.962 0Zm-49.41 1.058c.24.29.433.626.625-.288.048-.096-.192-.193-.288-.289a5.231 5.231 0 0 0-.337.578Zm50.228.674c-.289-.24-.433-.577-.626.337-.048.048.193.192.289.288a3.89 3.89 0 0 0 .337-.625Zm-77.17 2.213a12.146 12.146 0 0 1-.337-.625c-.144.096-.337.24-.337.288.241.914.385.578.674.337Zm98.868.193c.288-.29.625-.433-.289-.626-.096-.048-.192.193-.289.289.193.096.385.208.578.337Zm-25.836.144c-.385.337-.433.096 0 .962.337-.385.385-.144 0-.962ZM95.155 39.403c-.289-.289-.433-.626-.674.288 0 .049.193.193.337.29.096-.193.208-.386.337-.578Zm35.361.096c-.336-.337-.096-.385-.962 0 .385.385.144.433.962 0Zm118.161.962c-.337-.336-.096-.384-.962 0 .384.385.144.433.962 0Zm-160.402 1.3c.24-.241.625-.434-.289-.626-.096 0-.24.192-.337.289.225.128.433.24.626.336Zm3.03-.193c-.095-.193-.208-.401-.336-.626-.096.097-.289.241-.289.337.193.914.385.53.626.289Zm5.39-.626c-.386.385-.434.097 0 .963.384-.385.432-.097 0-.963Zm19.677.626c.288.24.433.625.625-.289.048-.096-.192-.24-.289-.337a3.881 3.881 0 0 1-.336.626Zm10.007.192c.288-.24.625-.433-.289-.625-.096 0-.241.192-.337.289.225.128.433.24.626.336Zm4.137-.336c-.336-.385-.096-.433-.962 0 .385.384.144.433.962 0Zm93.384 0c-.337-.385-.097-.433-.963 0 .385.384.145.433.963 0Zm2.405-.482c-.385.385-.433.097 0 .963.337-.385.433-.097 0-.963Zm-94.345.963c-.385.385-.433.096 0 .962.385-.385.433-.145 0-.962Zm81.355.336c-.288-.24-.433-.625-.673.29 0 .095.192.24.288.336.129-.225.257-.433.385-.626Zm29.54 0c-.288-.24-.433-.625-.673.29 0 .095.192.24.288.336.129-.225.257-.433.385-.626ZM78.749 43.685c.24-.289.577-.433-.337-.674-.048 0-.192.193-.289.337.193.096.401.209.626.337Zm55.231 0c.289-.289.626-.433-.288-.674-.049 0-.193.193-.289.337.192.096.385.209.577.337Zm12.269-.818c-.385.337-.433.096 0 .962.384-.385.433-.144 0-.962Zm69.712.818c.241-.289.626-.433-.288-.674-.097 0-.241.193-.337.337.224.096.433.209.625.337Zm22.853 0c.289-.289.625-.433-.289-.674-.096 0-.192.193-.336.337.224.096.433.209.625.337Zm-29.059 1.395c.096.224.208.433.337.625.096-.096.337-.24.288-.288-.192-.914-.336-.578-.625-.337Zm2.598 0c-.289-.24-.433-.577-.625.337-.049.048.144.192.288.288.096-.192.209-.4.337-.625Zm-65.96 1.443c.24-.24.625-.433-.289-.625-.096-.048-.24.192-.337.288.225.129.433.241.626.337Zm-86.023.962a5.39 5.39 0 0 1 .578-.336c-.096-.096-.193-.337-.289-.289-.914.193-.577.337-.288.626Zm7.265-.336c-.385-.385-.096-.433-.962 0 .385.385.144.433.962 0Zm43.685-.145c-.241-.288-.433-.625-.625.29 0 .095.192.24.288.336.128-.225.241-.433.337-.626Zm110.367.77a3.886 3.886 0 0 0-.626.337c.096.096.241.289.289.289.914-.193.577-.385.337-.626Zm34.639.337c-.384-.385-.144-.433-.962 0 .385.337.096.385.962 0Zm-20.351.577c-.224.129-.433.24-.625.337.096.144.241.337.289.337.914-.24.577-.385.336-.674Zm8.42-.096c-.385.337-.433.096 0 .914.385-.337.433-.096 0-.914Zm-137.357 1.732c.193-.096.401-.208.626-.337-.097-.096-.241-.288-.337-.288-.914.192-.529.385-.289.625Zm2.983-.818c-.337.385-.385.145 0 .962.385-.385.433-.096 0-.962Zm19.1 0c-.385.385-.433.145 0 .962.337-.385.385-.096 0-.962Zm101.129 1.78c.241-.24.626-.433-.288-.625-.097-.048-.241.192-.337.288.224.129.433.241.625.337Zm20.977-.673a3.886 3.886 0 0 0-.626.337c.096.096.241.336.289.288.914-.192.577-.337.337-.625Zm-150.588.962a12.91 12.91 0 0 0-.625.337c.144.096.241.288.337.288.914-.192.577-.385.288-.625Zm154.388 0c-.192.096-.4.208-.625.337.096.096.241.288.337.288.914-.192.529-.385.288-.625Zm-167.859.818c-.385.337-.433.096 0 .962.385-.385.433-.144 0-.962Zm166.127.337c-.24-.29-.433-.626-.625.288 0 .096.192.193.289.337.128-.224.24-.433.336-.625ZM53.202 53.932a5.392 5.392 0 0 0-.337-.577c-.096.096-.288.193-.288.289.192.914.384.577.625.288Zm49.554.963c-.096-.193-.208-.401-.337-.626-.096.145-.336.24-.288.337.192.914.385.577.625.289Zm-32.619 1.154c.289-.24.625-.433-.289-.625-.048-.048-.192.192-.288.288.192.129.385.241.577.337Zm156.505-.192a3.884 3.884 0 0 1-.337-.626c-.096.097-.337.24-.288.337.192.914.336.53.625.289ZM49.209 57.01c.24-.288.625-.433-.337-.625-.048-.048-.193.192-.289.289.193.096.401.208.626.337Zm34.784-.48c.096.192.209.4.337.625.096-.096.288-.24.288-.337-.192-.914-.384-.577-.625-.289Zm-2.405 1.443c.288-.289.625-.433-.29-.674-.096 0-.192.193-.336.337.224.096.433.208.626.337Zm-15.492.24c-.289.289-.626.433.288.674.049 0 .193-.193.29-.337a5.365 5.365 0 0 1-.578-.337Zm158.622 1.444a13.866 13.866 0 0 0-.337-.626c-.097.145-.289.24-.289.337.193.914.385.577.626.289Zm9.814.962c.241.24.433.625.626-.289.048-.096-.193-.24-.289-.337-.128.225-.241.433-.337.626Zm11.451 0c.24.24.433.625.625-.289 0-.096-.192-.24-.289-.337-.128.225-.24.433-.336.626Zm2.357-.481c-.192.096-.401.208-.625.336.144.097.24.337.336.29.914-.193.578-.338.289-.626Zm-25.739 2.838c-.193.129-.385.24-.578.337.097.144.241.337.289.337.914-.24.577-.385.289-.674Zm33.1.674c.192-.096.401-.209.625-.337-.144-.096-.24-.289-.336-.289-.914.193-.578.385-.289.626Zm-190.087.48c-.288-.24-.432-.577-.673.338 0 .048.192.192.337.288.096-.192.208-.4.337-.625Zm4.282 2.406c.193-.128.401-.24.626-.336-.144-.097-.24-.337-.337-.289-.914.192-.577.337-.288.625Zm166.272-.48c-.289-.29-.433-.626-.625.288-.049.096.192.24.288.337a3.89 3.89 0 0 1 .337-.626ZM49.401 67.258a5.374 5.374 0 0 1-.337-.577c-.096.096-.336.24-.288.288.192.915.336.578.625.29Zm183.88 0a5.23 5.23 0 0 0-.337-.577c-.096.096-.288.24-.288.288.192.915.385.578.625.29ZM58.735 69.665c-.193.096-.401.208-.626.336.096.097.24.337.337.29.914-.193.53-.386.289-.626ZM246.464 71.3c.24-.288.577-.433-.337-.625-.048-.048-.193.192-.289.289.193.096.401.208.626.336Zm-8.42.722a5.382 5.382 0 0 0-.336-.577c-.097.096-.289.24-.289.288.24.914.385.578.625.29Zm11.451 1.636c-.241-.24-.433-.578-.626.337 0 .048.193.192.289.288.128-.192.24-.4.337-.625Zm-31.417 5.725c-.288-.24-.433-.625-.673.289 0 .096.192.24.336.337a3.97 3.97 0 0 1 .337-.626Zm7.746 1.107c-.385-.385-.096-.433-.962 0 .385.385.096.433.962 0Zm2.839.962c-.337-.385-.097-.433-.963 0 .385.337.145.385.963 0Zm6.35 1.25c.241-.24.626-.432-.288-.625-.097 0-.241.193-.337.289.224.128.433.24.625.337Zm-178.828.626c-.337-.337-.096-.433-.914 0 .337.385.096.433.914 0Zm-14.433 2.069a3.88 3.88 0 0 0-.337-.626c-.096.097-.289.241-.289.29.193.913.385.576.626.336Zm13.374-.289c-.288-.288-.433-.625-.625.289-.048.096.192.24.289.337.096-.225.208-.433.336-.626ZM258.78 13.662c1.828-.721 2.79 1.155 3.801-.24 1.154.77 1.154 1.924 1.491 3.175.337 1.395-2.309 1.78-.77 3.368.674.625.722 1.876 1.251 3.368 2.406-5.63 1.588-5.244 3.801-2.502 1.347-1.684 1.539.337 2.454.866a1170.661 1170.661 0 0 0-3.994 5.244c-3.223-4.426-2.405-4.811-2.983.289-1.491.721-1.732.337-1.395-.578.385-1.202.048-1.54-1.347-1.395-1.347.144-2.261-1.058-1.828-1.491 2.069-2.165-1.636-3.272.674-7.217.288-.53-.674-1.78-1.155-2.887Zm3.608 9.045c.193-.096.385-.208.578-.337-.097-.096-.241-.288-.289-.288-.914.192-.578.385-.289.625Z" fill="#13D7B7"/><path d="M41.895 142.89c-2.068.241-1.54 2.839-3.223 3.512-4.715-1.154-7.65-1.106-2.79-1.732.962-1.732.192-2.886-1.396-3.656-.625-.289-1.058 2.742-3.03-.722 2.405.096 1.876-1.684 1.876-3.127 2.55 1.347 1.587 1.588 4.715-1.251 4.57 3.656 1.828 2.839 3.848 6.976ZM252.477 21.89h1.588c-.192 1.06-.818 2.31-.481 3.128 3.271 8.9 3.416 5.34.385 12.076-1.732-2.165-1.78-1.684-.914-3.945-.193-.53-.53-.337-.53-.193.385 2.55.818.193.53.193-.866 1.443-1.203 1.78-1.492 2.068-1.299-2.165-1.299-2.357-.048-5.34-2.838-1.203-2.309-6.11-.481-5.966 1.684.096 1.491-.962 1.443-2.02Z" fill="#13D7B7"/><path d="M239.151 27.615c-.289-.433-.915-.866-.915-1.203.626-5.052.866-6.591 4.571-6.543.096-.866.24-1.732.385-2.694 1.684 1.154-.578 6.446 4.522 3.752.289.337.626.963.77.914 1.588-.433 1.54-.577 2.309-3.127.241-.721 1.299-1.203 2.694-2.405-.721 4.04-.817 6.543-2.357 6.447-1.684-.097-1.491.962-1.491 2.02-1.492-.24-1.492-.289-2.213-1.924-3.416 0-8.179-.24-5.485 2.405.096.096-.577.914-.866 1.395-.722.145-1.828-.48-1.924.963ZM190.077 208.034c1.347-2.069 3.705-3.079 1.78-5.292-.096-.144-.048-.481 0-.674 2.887-5.677 1.973-5.532 4.571-.962-3.56 3.897-3.753 2.55 1.732 5.581-2.887 5.918-1.107 5.388-8.083 1.347ZM89.573 210.485c1.348-3.079-1.732-4.041 1.684-3.753 3.224.241 3.08 1.251 3.08 4.715-2.31 0-2.166-.673-.193 3.416-2.55 4.234-1.107 3.993-6.64.048 3.224-2.55 3.224-2.55 2.07-4.426ZM100.014 207.643c1.587-.433 2.165.818 3.079 1.588-.722 1.347-1.347 2.55-1.925 3.657 1.925 3.56 1.925 2.213-.336 6.11-1.925-.866-3.753-1.684-4.62-3.753 1.925-1.924 3.465-.096 1.925-2.839 1.78-.721 0 .241 0-1.924 1.492-.337 2.069-1.347 1.877-2.839ZM245.838 9.72c1.395.577 2.934 1.25 1.058 3.03.577.834 1.171 1.668 1.78 2.502-3.127.577-1.636.866-6.687-1.587 2.213-.722 1.78.048 1.78-3.753-2.021-.481-2.646-1.636-.577-2.839 1.347-.77 2.309-1.299 2.357-3.464-.128.77-.241 1.556-.337 2.358.193.337.674 1.972.626 3.752 0 .29.192-.625-.722.097-.048.048.096.385.144.577.193-.144.385-.289.578-.674ZM204.318 191.574c-.529.866-.722 1.636-1.058 1.732-2.55.578-1.107 1.54-.337 2.454-3.753 3.752-2.117 3.127-7.024 3.127.577-.962 1.106-1.539 1.202-2.165.049-.433-.865-1.251-.769-1.395.77-.962 1.684-1.828 2.55-2.694 1.058 1.635 1.587-1.011 2.694-.289.481.241 1.443-.385 2.742-.77Z" fill="#13D7B7"/><path d="M97.079 208.56c-4.186-3.849-.385-9.814 3.175-4.955 2.454-.674 3.897-1.636.53 2.117-.289 0 .625.192-.097-.722-.048-.048-.385.144-.577.192 1.78 2.262-1.155 2.791-3.031 3.368ZM24.768 114.889c-.866.481-1.54-1.396-2.31.144-.192.337-1.395.192-1.924.241-1.058-.818 1.443-1.396-.24-2.31-.482-.24-.385-2.02-.193-3.031.193-.77.866-1.491 1.203-2.117 5.533 2.743 4.907 1.059 3.464 7.073ZM260.127 35.458c.048-3.175.048-3.175 1.395-5.003.337.674.625 1.25 1.203 2.453.721-6.88.24-6.206 1.395-2.742 2.117.626.866-3.416 3.368-2.405-1.636 5.292.962 4.522-4.523 3.704 4.571 5.292 4.715 4.09.241 5.437-1.973-3.031-1.299-2.79-3.079-1.444ZM270.711 27.854c-.529 7.41-1.539 5.34 3.753 9.382-3.705-.722-2.454-.433-4.619-1.203.914 3.656 1.636 5.292-1.972 1.684 2.453-11.499 1.876-10.055 2.838-9.863ZM118.152 206.687c.433 2.068-1.299.673 2.982 3.319-6.783 2.55-6.398.962-7.312 2.406-.433-3.127 0-3.753 2.405-2.887 0-3.368-.481-2.838 1.925-2.838ZM74.467 188.738c-1.588 4.138-.433 1.636.48 2.983.241.337-.288 1.155-.095 1.588.192.577.914.866 1.202 1.395.53.914-.48 1.876-1.299 1.395-.529-.288-1.347-.866-1.299-1.299.096-2.309-1.828-1.01-2.646-1.587-.288-1.54 2.117-2.55.674-4.475h2.983ZM243.914 172.382c-.049 5.244-1.636 3.512-4.667 1.78 1.154-1.444.818-3.079.866-4.619.818-.096 1.588 1.636 2.405.048 1.203.577-.529 2.598 1.396 2.791Z" fill="#13D7B7"/><path d="M248.676 168.578c0 .481.097 1.347 0 1.347-2.261.529-1.924 2.309-1.876 3.897.962.577 1.925 1.154 3.272 1.972-.866.241-1.395.529-1.684.385-5.148-2.405-4.475-4.474-4.475-6.399.915-.24 1.251 1.251 2.021.145.674-.866 1.443-1.684 2.742-1.347ZM266.382 108.73c-.674 5.004-.193 2.935-2.021 7.987-1.299-1.107-2.309-1.973-3.368-2.839 1.155-1.01 2.021-2.887 4.234.77-1.78-7.073-2.165-5.918 1.155-5.918ZM34.727 173.293c1.732.192 3.32-.577 3.657 1.636.048.288 1.972.288 3.271.481v3.464c-2.261-2.406-5.244-2.791-6.928-5.581ZM66.48 193.981c-1.059 1.492-2.165-2.165-2.983.481-1.636-3.127-1.972-2.02 1.876-4.763 1.829 1.155 1.444 2.791 1.107 4.282ZM39.057 167.618c-1.924 1.107-1.25 1.155-2.838-.433 2.55-2.886-2.743-1.25-1.925-4.33 2.935 1.973 4.138-.288 4.763 4.763ZM31.407 162.855c1.155-1.443 1.396-.337-.433-4.089 2.406 1.106 2.454 2.934 3.32 4.089-1.203 0-.818.962-1.01 1.636-.385 1.491-1.877 2.453-1.877-1.636ZM278.024 30.453c.289 2.935.096 1.973 1.059 3.512-4.09 1.155-3.128 1.54-4.523-1.203.481-1.01 1.299-1.25 2.598-.433.193-2.213-.048-1.828.866-1.876Z" fill="#13D7B7"/><path d="M33.332 174.302c-3.368-1.636-3.224-.77-.145-3.849 1.348.385 2.31 1.203 2.07 2.887-.722.144-1.829-.481-1.925.962ZM34.294 92.371c-.721 2.454 1.877 2.31.241 5.725-3.753-2.838-.914-3.464-1.203-5.725h.962ZM186.373 202.833c-3.416-.818-6.014-1.155-5.292-2.165 1.924-2.791 1.443-2.261 5.292 2.165ZM276.533 28.629c1.154.048.625 1.154.721 1.828-3.993 0-4.185-1.299-2.838-3.8 2.261 0-.337 1.828 2.117 1.972ZM196.765 10.828c3.079 2.598 2.935 1.347 1.01 5.389-.77-1.492-2.117-2.79-1.01-5.389ZM216.731 13.082c7.168 1.732 6.639.818 2.838 2.983-3.993-2.55-3.512-1.876-2.838-2.983ZM28.425 98.821c-6.11 0-5.63.77-2.935-3.079.962.962 1.684 1.732 2.935 3.08ZM272.059 16.598c4.137 3.464 4.041 2.55.384 3.512-.962-.048-1.25-1.251-.384-3.512ZM149.039 18.375c3.271 2.742 3.127 1.684 1.154 4.522-1.443-1.395-1.443-1.395-1.154-4.522ZM231.549 23.816c4.57-.77 3.801-1.01 3.801.962-.722.673-.818 1.347-3.657.866-.385-.048-.721-.577-1.106-.866l.962-.962ZM231.068 0c.577 1.54 1.059.674-1.588 3.272-3.704-6.351.289-1.01 1.588-3.272ZM269.701 85.398c1.01 1.203 1.01 1.203-.625 3.368-1.781-3.223-2.021-2.405.625-3.368ZM251.948 16.115c-4.955 0-3.8.385-2.453-1.203.625-.77-.674-2.694 1.106-2.454 2.454.337-.096 1.684.241 2.55.144.24.433.433 1.106 1.107Z" fill="#13D7B7"/><path d="M274.704 27.04c-5.484-1.683-5.244-.817-1.972-3.704.673 1.299 1.203 2.31 1.972 3.705ZM178.05 15.78c.433-.722.673-1.588 1.25-2.07.578-.48 1.636.818 2.31-.288.433 1.54 1.154.914-3.031 2.886a4.198 4.198 0 0 0-.529-.529ZM148.654 22.465c-2.117.481-4.282.962-6.832 1.492 2.117-2.55 4.571-1.973 6.832-1.492ZM271.385 41.76c.337-1.781.962-2.791 2.838-2.695 0 3.416.578 2.694-2.838 2.694ZM256.759 21.316c-.577-1.924-1.01-3.271-1.54-5.003.674 0 1.636-.048 1.636.048.193 1.78 1.828-.144-.096 4.955ZM239.632 5.578c.577 1.203 1.106 2.213 1.587 3.32-1.636 1.54-2.453-.048-2.934-.866-.722-1.203.866-1.54 1.347-2.454ZM197.246 190.182c-3.272 2.261-2.55 2.55-2.887-1.155 1.684-1.155 2.117.241 2.887 1.155ZM62.632 183.685c-2.983 0-2.406.625-2.647-2.406.385 0 .77-.048.77 0 .337 1.059 2.887.145 1.877 2.406ZM43.195 179.98c1.01.722 1.876 1.396 3.175 2.31-3.416.625-3.416.625-3.175-2.31ZM261.426 103.969c-4.811 3.223-3.897 3.319-4.234 0h4.234ZM259.405 65.67c-1.443-1.78-1.635-.915 1.251-3.85.578 1.684.818 3.176-1.251 3.85ZM82.26 208.609c-2.26-3.271-2.55-2.55 1.107-2.886 1.203 1.684-.192 2.117-1.106 2.886ZM115.265 38.103c1.203-.577.144-3.32 2.887-2.742 0 3.416.577 2.742-2.887 2.742ZM183.727 189.41c0 4.667.673 3.849-2.743 3.849a319.732 319.732 0 0 1 2.743-3.849ZM270.134 103.822c-1.588-1.588-1.54-.77 0-3.85 1.588 1.925 1.588 1.925 0 3.85ZM25.009 100.793c-.433 2.839-.866 4.33-3.609 5.388a266.124 266.124 0 0 1 3.609-5.388ZM118.825 28.29c-2.983 1.491-2.357 1.876-2.357-2.454.721.77 1.443 1.491 2.357 2.454ZM242.182 177.483c-1.636 1.587-2.406-.866-3.657-.481-.673-2.695-1.587-2.646 3.657.481ZM257.962 61.097c.818-1.924.818-1.924 3.031-1.972-.193 1.924.673 1.443-3.031 1.972ZM87.12 39.066l-1.155-3.56c1.684-.962 1.347.866 1.973 1.347 1.491 1.107-.818 1.395-.818 2.213ZM79.085 39.065c-3.464 0-2.79.53-2.79-2.838 3.175 2.165 2.79 1.635 2.79 2.838ZM247.618 8.517c.385-1.203-.818-2.887 2.117-2.79-.385 1.202.818 2.886-2.117 2.79ZM255.508 130.523c0-4.859-.433-4.233 1.732-3.367-.385.818-.818 1.636-1.732 3.367ZM257.433 31.223c2.165.818 2.068-.049 0 4.09v-4.09ZM266.67 108.105c-2.742-3.031-1.107-3.56-.818-3.32 1.347 1.203.914 1.492.818 3.32ZM173.575 7.892c.482-.049 2.406 1.683 2.743 2.213-2.502 1.395-1.684-1.78-2.743-2.213ZM75.525 35.746c-.433 1.107-.914 2.261-1.443 3.705-1.684-2.117.866-2.839 1.443-3.705ZM263.35 143.562c2.55 1.155 2.839 2.358 2.117 4.282a381.937 381.937 0 0 1-2.117-4.282ZM194.215 16.017h-5.581c2.55-1.107 4.089-.674 5.581 0ZM215.913 17.992c2.213-2.165 1.395-2.405 3.416 1.251-1.347-.481-2.213-.818-3.416-1.25ZM66.528 188.884c3.512-1.155 3.176 1.154 2.694 1.443-1.058.625-1.587-.241-2.694-1.443ZM136.385 199.032v-3.608c.482-.048 1.155-.289 1.299-.097 1.396 1.829-.721 1.973-1.299 3.705ZM188.441 189.168c-.336 1.443-.769 2.694-2.934 1.924 1.154-.769 2.068-1.347 2.934-1.924ZM121.712 208.126c-1.395-1.973-.048-2.502 1.251-3.079-.385.914-.77 1.828-1.251 3.079ZM230.394 192.875c.914.962 1.78 1.155.144 2.357-.096.049-.866-.481-.866-.721 0-.433.337-.866.722-1.636ZM36.892 158.715c-.289 1.395-.722 2.694-2.935 1.876 1.203-.77 2.069-1.347 2.935-1.876ZM245.982 175.699c.963 1.732 1.203 1.107-.385 2.406-.866-1.107-1.058-.481.385-2.406ZM262.821 146.016c1.588 1.635 2.021 1.202-1.539 1.684-.482-.915-.674-.482 1.539-1.684ZM32.37 114.311c-.097.769.48 1.972-1.059 1.876-.289-.048-.77-.529-.818-.818-.096-1.54 1.107-.962 1.877-1.058ZM248.484 16.648c.914.963 1.828 1.155.144 2.358-.096.048-.818-.433-.818-.674 0-.48.337-.914.674-1.684ZM126.715 201.92c.77.144 2.021-.482 1.877 1.106-.048.289-.481.77-.77.77-1.588.144-.962-1.107-1.107-1.876ZM34.15 102.236c-2.165-2.165-2.069-1.299 0-3.85v3.85ZM258.202 109.545c.385-1.54 1.396-2.069 2.887-1.925-.385 1.492-1.395 2.069-2.887 1.925ZM126.715 36.18c-.192-1.3.337-2.213 2.117-2.887-1.347 3.32-.914 2.887-2.117 2.887ZM40.693 170.502c0 4.282.144 3.705-.434 3.753 0-4.33-.144-3.753.434-3.753ZM84.33 33.533c-.77.337-1.203.674-1.684.674-.241 0-.722-.722-.674-.818 1.203-1.684 1.491-.674 2.357.144ZM113.437 31.85c.433-.434.866-.915 1.683-1.733 0 5.196-.577 3.031-1.683 1.732ZM102.708 27.082c.914 1.01 1.78 1.203.144 2.406-.096.048-.866-.482-.866-.722 0-.433.337-.866.722-1.684ZM88.948 198.456l-1.01 1.01c-.097-1.299-.097-1.299 1.01-1.01ZM83.03 199.18h2.695c-1.588.914-1.588.914-2.694 0ZM200.71 201.343c-.241-.289-.722-.77-1.011-1.058 1.299-.048 1.299-.048 1.011 1.058ZM189.356 202.737c-1.732.433-1.925-.289-1.203-2.214.481.915.818 1.54 1.203 2.214ZM201.384 205.289c-.818.433-1.492.77-2.021 1.059-.337-1.011-.674-2.117 2.021-1.059ZM97.993 210.388h-2.694c1.587-.866 1.587-.866 2.694 0ZM260.127 160.98c3.271 2.406 3.464 1.877 0 1.877v-1.877ZM257.577 42.48c.288.29.77.77 1.058 1.059-1.299.048-1.299.048-1.058-1.059ZM235.35 24.777c.337.385.962.818.914 1.155-.193 1.155-1.203.577-1.876.722 0-1.203-.193-.77.962-1.877ZM268.498 43.879c2.406-.145 3.56-.097 2.791 1.78-.77-.481-1.444-.963-2.791-1.78ZM42.714 138.268c0 2.983.144 2.55-.53 2.598-.385-3.031-.577-2.55.53-2.598ZM40.02 170.504c-1.829-.433-.626-1.925-.963-2.887 1.828.481.578 1.925.962 2.887ZM266.766 116.281c.145-2.117 0-1.684.626-2.117.866 2.261 1.106 1.78-.626 2.117ZM258.828 112.195c.481 1.444.577 2.31-1.828 1.973.721-.818 1.203-1.299 1.828-1.973ZM222.937 188.594c2.839.529-.866 3.608-.914.962.321-.321.626-.642.914-.962ZM44.782 140.96c-.336-.385-.962-.818-.914-1.203.145-1.154 1.203-.577 1.877-.721l-.962 1.924ZM280.382 33.339c0-3.32-.193-2.887.481-2.887 0 3.32.144 2.887-.481 2.887ZM186.325 193.066c.433.77.818 1.347 1.251 2.021-1.203.241-2.358.529-1.251-2.021ZM153.706 28.092c-.77.482-1.348.866-1.973 1.251-.385-1.25-.577-2.261 1.973-1.25ZM262.966 152.414c-.097.674.433 1.684-.722 1.828-.337.048-.77-.577-1.155-.914a33.968 33.968 0 0 0 1.877-.914ZM271.866 114.167c-.337-.914-.529-.529.337-1.636.625 1.492.721 1.155-.337 1.636ZM269.653 42.868c.096-1.443 1.203-.818 1.925-.962-.097 1.443-1.203.818-1.925.962ZM62.102 38.582c-.625 2.117-.77 3.368-1.106 1.01 0-.096.336-.288 1.106-1.01ZM43.098 80.01c-.192-2.166-.336-1.781.433-1.877.433 2.213.578 1.828-.433 1.876ZM34.63 168.435c-.384-.914-.577-.481.29-1.587.625 1.491.721 1.154-.29 1.587ZM258.202 132.398c1.155 1.444 1.203 1.011 0 1.877v-1.877ZM239.295 2.453c-.578 2.069-.722 3.32-1.059.962 0-.144.337-.336 1.059-.962ZM45.937 169.592c-.192-2.165-.337-1.828.481-1.924.433 2.213.578 1.828-.481 1.924ZM218.174 12.17c-1.78.24-1.299.337-1.732-.433 1.636-.433 1.155-.481 1.732.433ZM43.772 57.345c-.578.914-.096.866-1.732.433.433-.77-.048-.673 1.732-.433ZM213.604 12.703c.866-.385.481-.53 1.587.289-1.491.625-1.154.721-1.587-.29Z" fill="#13D7B7"/><path d="M25.875 99.59c-.626 2.069-.77 3.32-1.107 1.01 0-.144.385-.337 1.107-1.01ZM259.165 100.021c-.144.722.481 1.828-.962 1.876 0-2.261-.241-1.876.962-1.876ZM252.477 35.215c0 1.54-.914 2.79-.914 0h.914ZM163.857 16.886c-2.213 0-1.877.193-1.877-.481 2.262 0 1.877-.144 1.877.481ZM158.324 18.617c-.625 2.117-.77 3.32-1.058 1.01-.048-.144.337-.336 1.058-1.01ZM153.369 21.164c2.165-.192 1.78-.385 1.924.433-2.261.433-1.876.577-1.924-.433ZM49.016 170.652c-2.117-.577-3.368-.721-1.01-1.058.144-.048.337.337 1.01 1.058ZM152.262 24.25c.626-2.117.77-3.368 1.107-1.01 0 .144-.337.337-1.107 1.01ZM257.048 21.941c.288 1.78.336 1.3-.433 1.732-.385-1.635-.481-1.154.433-1.732ZM245.501 25.545c-.818-1.107-.674-.674-.289-1.588 1.011.433.915.096.289 1.588ZM256.519 26.702c-.193-2.165-.337-1.828.481-1.925.433 2.262.577 1.877-.481 1.925ZM57.147 56.19c-1.396-.096-.818-1.203-.963-1.924 1.444.096.818 1.202.963 1.924ZM233.762 181.763c-.385-.866-.529-.481.289-1.587.625 1.491.77 1.154-.289 1.587ZM49.209 182.728c-.818-1.106-.674-.673-.29-1.587 1.011.433.915.096.29 1.587ZM237.226 181.182c-.577.914-.096.818-1.732.433.433-.769-.048-.721 1.732-.433ZM260.127 55.232c-1.155-1.444-1.203-1.01 0-1.877v1.877ZM30.493 118.831c-2.26 0-1.924.145-1.924-.481 2.261 0 1.924-.144 1.924.481ZM160.056 189.555c1.54 0 2.791.962 0 .962v-.962ZM217.26 189.555c-1.443 1.154-1.01 1.202-1.924 0h1.924ZM34.053 141.879c.193 2.165.385 1.828-.433 1.924-.433-2.213-.577-1.876.433-1.924ZM188.971 194.171c-.385-.914-.529-.529.289-1.636.625 1.54.769 1.155-.289 1.636ZM182.235 198.122c0-2.261-.144-1.925.481-1.925 0 2.262.145 1.925-.481 1.925ZM220.05 197.928c-1.78.24-1.251.336-1.684-.433 1.588-.433 1.107-.482 1.684.433ZM136.385 200.331c.915-.337.53-.529 1.636.337-1.539.625-1.203.722-1.636-.337ZM88.563 201.203c2.165-.192 1.828-.385 1.925.433-2.213.433-1.829.577-1.925-.433Z" fill="#13D7B7"/><path d="M88.611 202.686c-2.117.144-1.78.337-1.876-.481 2.213-.433 1.828-.577 1.876.481ZM123.877 203.844c1.058 0 1.635.048.288 1.732-.336-.914-.288-.481-.288-1.732ZM25.97 105.747c0-2.261-.192-1.925.434-1.925 0 2.262.192 1.925-.433 1.925ZM86.495 210.484c.192 2.165.336 1.78-.482 1.877-.433-2.213-.577-1.829.482-1.877ZM95.058 211.445c.193 2.117.337 1.78-.48 1.877-.434-2.213-.578-1.829.48-1.877ZM106.701 213.611c2.261 0 1.925-.192 1.925.481-2.262 0-1.925.145-1.925-.481ZM25.875 116.523c.866-.385.48-.529 1.587.289-1.491.625-1.154.77-1.587-.289ZM149.905 28.433c-.385-.915-.529-.53.288-1.636.626 1.54.77 1.154-.288 1.636ZM260.849 55.23c.192 2.117.385 1.78-.433 1.877-.433-2.213-.578-1.828.433-1.877ZM31.215 175.219c.192 2.165.337 1.828-.481 1.924-.433-2.261-.578-1.876.48-1.924ZM29.531 90.979c-.818.385-.577.385-.962 0 .818-.433.577-.385.962 0ZM33.332 92.375c-.963-.77-1.01-.53 0-.914v.914ZM28.424 94.922c-.24.24-.433.578-.625-.336 0-.049.192-.193.289-.29.128.193.24.402.336.626ZM36.266 94.68c.722-.192.53-.384.866.578-.529 0-.336.096-.866-.577ZM28.713 96.557c.24-.289.433-.626.626.289.048.048-.193.192-.29.288a5.408 5.408 0 0 1-.336-.577ZM272.01 97.137c.433.818.385.577 0 .962-.385-.818-.337-.577 0-.962ZM262.581 105.793c.384.385.432.144-.145.866-.529-.529-.529-.337.145-.866ZM25.394 106.805c.24.288.577.433-.337.625-.048.048-.192-.192-.289-.289.193-.096.401-.208.626-.336ZM17.215 114.696c.721-.241.529-.433.866.577-.53 0-.337.097-.866-.577ZM18.947 115.802c-.337.385-.145.433-.866-.144.529-.529.336-.529.866.144ZM266.237 117.054c-.241-.722-.433-.53.577-.866 0 .529.097.336-.577.866ZM39.057 119.076c-1.203 0-1.106.192-.337-.818.129.256.24.529.337.818ZM34.15 119.412c-.097.193-.209.401-.337.626-.096-.145-.337-.241-.289-.337.193-.914.385-.577.626-.289Z" fill="#13D7B7"/><path d="M37.517 119.94c-.192-.721-.384-.529.578-.866 0 .529.144.337-.578.866ZM28.184 125.812c.385.385.433.145-.145.867-.529-.53-.529-.337.145-.867ZM257.336 131.825c.722-.192.529-.385.866.577-.529 0-.337.097-.866-.577ZM27.607 133.842c-.818.385-.578.385-.963 0 .866-.433.578-.385.963 0ZM33.957 134.181a3.88 3.88 0 0 0-.625-.336c.096-.145.24-.337.337-.337.914.24.529.385.288.673ZM36.074 135.868c-.288.288-.433.625-.673-.289 0-.096.192-.241.336-.337.097.225.209.433.337.626ZM32.466 136.583c.721-.193.53-.385.866.577-.53 0-.337.096-.866-.577ZM46.081 137.018c-.288-.24-.625-.433.289-.625.048-.048.192.192.289.289-.193.128-.385.24-.578.336ZM44.301 137.168c.385.818.385.577 0 .962-.433-.818-.385-.577 0-.962ZM45.744 139.044c.77-.915.53-.963.914 0h-.914ZM262.917 139.619c-.385.384-.192.433-.866-.145.529-.529.289-.529.866.145ZM268.306 139.137c.384.385.433.144-.145.866-.529-.53-.529-.337.145-.866ZM265.708 140.629c-.289.289-.433.626-.626-.288-.048-.097.193-.241.289-.337.096.224.209.433.337.625ZM267.728 140.966c-.914-.77-.962-.529 0-.962v.962ZM268.643 141.544c-.385.337-.193.385-.914-.144.529-.529.336-.529.914.144ZM31.84 142.792c-.24-.722-.433-.529.53-.866 0 .529.144.337-.53.866ZM267.392 143.709a5.238 5.238 0 0 0-.578-.337c.097-.144.193-.337.289-.337.914.241.577.385.289.674ZM30.494 157.177c-.963-.77-1.01-.577 0-.962v.962ZM265.515 160.835a3.842 3.842 0 0 1-.625-.337c.096-.096.24-.337.288-.289.914.193.578.385.337.626ZM40.02 160.98c-.77.963-.578 1.011-.963 0h.962ZM30.541 162.325c.722-.241.53-.433.866.529-.48 0-.288.144-.866-.529ZM260.127 162.855c-.77.963-.578 1.011-.962 0h.962ZM238.14 171.037c-.385.384-.192.433-.866-.097.529-.529.289-.529.866.097ZM42.28 172.331c-.192-.722-.385-.529.578-.866 0 .529.144.337-.578.866ZM29.627 174.688c.722-.192.481-.384.866.578-.529 0-.337.096-.866-.578ZM34.198 174.88c-.385.337-.144.385-.866-.144.53-.529.337-.529.866.144ZM31.889 180.988c.433.818.385.578 0 .914-.385-.818-.385-.529 0-.914ZM65.181 181.854c-.24-.721-.433-.529.53-.866 0 .481.144.337-.53.866ZM238.766 182.965c.384.385.433.144-.145.866-.529-.529-.529-.337.145-.866ZM224.765 184.412c-.337.336-.144.384-.866-.145.529-.529.337-.529.866.145ZM226.642 184.168a3.817 3.817 0 0 0-.337.626c-.097-.096-.337-.241-.289-.337.193-.914.337-.529.626-.289ZM75.67 185.663c-.241-.722-.433-.529.529-.866 0 .529.144.337-.53.866ZM178.194 187.633c-.77.962-.577 1.01-.962 0h.962ZM166.599 188.93c-.096.192-.208.401-.337.625-.096-.096-.337-.24-.288-.336.192-.914.384-.53.625-.289ZM179.445 189.699c.224.096.433.209.625.337-.096.096-.24.289-.288.289-.915-.193-.578-.385-.337-.626ZM199.507 190.421c-.192-.722-.385-.53.577-.866 0 .529.145.336-.577.866ZM175.788 190.52c.433.817.385.577 0 .914-.433-.818-.384-.53 0-.914ZM180.167 191.868c.721-.241.529-.433.866.529-.529 0-.337.144-.866-.529ZM77.979 193.02c-.24.289-.433.625-.626-.289-.048-.096.193-.24.29-.336.127.224.24.433.336.625ZM70.954 194.32c.433.818.385.578 0 .963-.384-.866-.384-.578 0-.963ZM177.761 194.367c.385.385.433.193-.096.914-.578-.529-.578-.336.096-.914ZM80.433 196.147c-.241-.721-.434-.529.529-.866 0 .481.144.337-.53.866ZM176.654 196.147c-.192-.721-.385-.529.578-.866 0 .481.096.337-.578.866ZM206.339 195.332c.385.385.433.192-.096.866-.53-.529-.53-.289.096-.866ZM220.099 195.281c-.77.914-.578.962-.963 0h.963ZM205.232 197.057c-.192-.721-.385-.481.578-.866 0 .53.096.337-.578.866ZM140.186 197.491c.289-.24.433-.577.626.337.048.048-.193.192-.289.289a12.928 12.928 0 0 0-.337-.626ZM180.696 197.305c.24.288.625.433-.289.625-.096.048-.24-.192-.337-.289a3.89 3.89 0 0 0 .626-.336ZM82.02 198.505c.722-.193.53-.385.866.577-.529 0-.337.096-.866-.577ZM91.45 200.044c-.962-.77-.962-.577 0-.962v.962ZM204.992 199.42c.288-.288.433-.625.625.289.048.096-.192.192-.289.337-.128-.225-.24-.433-.336-.626ZM207.157 200.909c-.241-.722-.433-.529.577-.866 0 .481.096.337-.577.866ZM222.841 200.62c-.289.289-.433.626-.674-.288 0-.048.193-.193.337-.289.096.192.209.385.337.577ZM78.604 200.957c.385.866.385.577 0 .962-.433-.818-.385-.577 0-.962ZM81.058 203.266c.722-.192.53-.384.866.578-.53 0-.337.096-.866-.578ZM125.368 202.98c.385.337.433.145-.144.866-.529-.529-.529-.336.144-.866ZM202.153 203.219c.241-.24.433-.625.626.289 0 .096-.193.24-.289.337-.128-.225-.24-.433-.337-.626ZM82.79 204.374c-.337.385-.144.433-.866-.096.53-.529.337-.577.866.096ZM89.622 204.231c.721-.192.529-.385.866.578-.481 0-.337.096-.866-.578ZM91.402 205.337c-.385.385-.193.433-.915-.144.578-.529.337-.529.915.144ZM188.586 205.337c-.385.385-.192.433-.866-.144.529-.529.337-.529.866.144ZM84.714 208.228c-.385.337-.144.385-.866-.144.53-.53.337-.53.866.144ZM122.818 208.226c-.384.336-.144.384-.866-.145.53-.529.289-.577.866.145ZM87.505 208.948c-.096.192-.209.4-.337.625-.096-.144-.289-.241-.289-.337.193-.914.385-.577.626-.288ZM84.858 209.957c.722-.24.53-.433.866.53-.48 0-.336.144-.866-.53ZM88.996 211.35c-.192-.721-.433-.481.578-.866 0 .53.096.337-.578.866ZM98.137 212.408c-.962-.77-1.01-.578 0-.963v.963ZM96.213 214.334c.77-.963.577-1.011.962 0h-.962ZM96.213 215.25c-.962-.77-.962-.529 0-.914v.914ZM105.354 214.383c.385.385.433.192-.144.866-.53-.529-.53-.289.144-.866ZM104.247 216.112c-.24-.722-.433-.481.578-.866 0 .529.096.337-.578.866ZM236.937 1.063c.241.288.578.433-.337.673-.048 0-.192-.192-.288-.337.192-.096.401-.208.625-.337ZM233.57 2.21c.288-.24.433-.577.625.337.048.048-.192.192-.288.288-.097-.192-.209-.4-.337-.625ZM229.48 5.391c-.24.24-.433.577-.625-.337 0-.048.192-.192.288-.288.129.192.241.4.337.625ZM227.604 6.976c-.128.224-.241.433-.337.625-.144-.096-.337-.24-.337-.289.241-.914.385-.577.674-.336ZM237.13 8.903c-.128.192-.24.4-.337.625-.144-.096-.336-.24-.336-.337.24-.914.384-.529.673-.288ZM177.376 11.062a5.22 5.22 0 0 1 .337-.578c.096.097.288.193.288.289-.192.914-.384.577-.625.289ZM204.511 11.31a10.735 10.735 0 0 0-.626-.385c.145-.096.241-.288.337-.288.914.24.577.385.289.673ZM180.215 11.737c.288-.24.433-.577.625.337.048.048-.192.193-.289.289-.096-.193-.208-.401-.336-.626ZM177.087 12.7c-.128.192-.24.4-.337.625-.096-.096-.336-.24-.288-.337.192-.914.337-.529.625-.288ZM201.528 12.363c.385.818.385.578 0 .963-.433-.818-.385-.578 0-.963ZM256.663 14.143c-.289-.288-.626-.433.289-.625.096-.048.192.192.288.289a5.386 5.386 0 0 0-.577.336ZM195.706 15.155c-.192-.722-.384-.53.578-.866 0 .53.096.337-.578.866ZM200.71 14.434c.24.24.625.433-.289.625-.096 0-.24-.192-.337-.289.225-.128.433-.24.626-.336ZM183.053 15.827l.385-.577c.096.096.289.193.289.289-.241.914-.385.577-.674.288ZM185.314 15.25c.433.818.385.53 0 .914-.385-.818-.385-.577 0-.914ZM193.397 18.087c.77-.962.578-1.01.962 0h-.962ZM237.37 17.461c.289-.24.433-.625.674.289 0 .096-.192.24-.337.337a3.807 3.807 0 0 0-.337-.626ZM265.996 17.461c.241-.24.433-.625.626.289 0 .096-.193.24-.289.337a13.92 13.92 0 0 1-.337-.626ZM234.724 20.834c-.241-.289-.625-.433.289-.674.096 0 .24.193.336.289-.224.128-.433.256-.625.385ZM248.291 20.059c.385.384.433.192-.144.866-.529-.53-.529-.337.144-.866ZM156.64 21.796c-.192-.722-.385-.481.578-.866 0 .529.096.337-.578.866ZM258.587 21.796c-.192-.722-.385-.481.578-.866 0 .529.144.337-.578.866ZM159.671 22.95c.385.336.433.143-.144.865-.529-.529-.53-.337.144-.866ZM215.239 23.382c-.336.385-.144.433-.865-.096.529-.53.336-.577.865.096ZM142.304 26.504c-.289-.24-.626-.433.288-.625.096 0 .241.192.337.289-.225.128-.433.24-.625.336ZM275.908 25.79c.384.384.433.143-.097.865-.529-.53-.577-.337.097-.866ZM282.835 26.026a3.812 3.812 0 0 1-.337.626c-.096-.097-.288-.24-.288-.289.192-.914.385-.577.625-.337ZM258.154 27.228c-.384.337-.192.433-.914-.144.578-.53.337-.53.914.144ZM113.244 27.953c-.128.193-.24.401-.337.626-.096-.096-.336-.24-.288-.337.192-.914.337-.53.625-.289ZM247.714 28.096c-.818.385-.529.385-.914 0 .818-.433.578-.385.914 0ZM134.365 29.54c-.962-.77-1.011-.577 0-.962v.962ZM120.509 29.54c.433.817.385.528 0 .913-.385-.818-.385-.577 0-.914ZM123.877 30.933c-.866.433-.578.385-.962 0 .817-.385.577-.385.962 0ZM99.196 31.802c.673-.193.48-.385.818.577-.481 0-.289.096-.818-.577ZM120.028 31.893c-.818.433-.53.385-.914 0 .817-.433.577-.385.914 0ZM243.769 32.04c-.241.24-.433.625-.625-.29 0-.095.192-.24.288-.336.129.225.241.433.337.625ZM90.632 33c.128-.224.24-.433.337-.625.144.096.337.24.337.289-.241.914-.385.577-.674.336ZM242.566 33.387c.385.385.433.192-.144.914-.529-.578-.529-.337.144-.914ZM73.216 35.554a3.875 3.875 0 0 1-.337.625c-.096-.096-.337-.24-.288-.288.192-.915.384-.578.625-.337ZM259.549 36.08c-.192-.72-.384-.48.578-.865 0 .53.096.337-.578.866ZM69.126 37.234c.385.337.433.145-.096.866-.529-.529-.53-.336.096-.866ZM51.036 39.113c.385.385.434.193-.144.866-.529-.529-.529-.337.144-.866ZM49.93 40.846c-.24-.721-.433-.48.578-.865 0 .529.096.336-.578.865ZM54.404 40.364c.722-.192.481-.385.866.578-.529 0-.337.144-.866-.578ZM67.058 40.846c-.193-.721-.385-.48.577-.865 0 .529.144.336-.577.865ZM272.973 42.871c.433.818.384.577 0 .962-.385-.866-.385-.577 0-.962ZM44.879 45.126c.721-.193.48-.385.866.577-.53 0-.337.145-.866-.577ZM47.236 44.836c.385.385.433.144-.144.866-.53-.53-.53-.337.144-.866ZM46.658 45.707c-.77.962-.529 1.01-.914 0h.914ZM47.621 48.591c-1.203 0-1.203.24 0-.962v.962Z" fill="#13D7B7"/><path d="M46.13 49.456c-.241-.722-.434-.53.528-.866 0 .53.145.337-.529.866ZM48.487 49.119c-.337.385-.145.433-.866-.145.53-.529.337-.529.866.145ZM55.27 57.631c-.866.385-.577.385-.962 0 .818-.433.577-.385.962 0ZM259.068 57.682c-.336.385-.144.433-.866-.096.53-.578.337-.578.866.096ZM51.566 62.495c.128-.192.24-.385.337-.577.096.096.337.24.288.289-.192.914-.336.577-.625.288ZM51.421 65.72c.77-.962.578-1.01.963 0h-.963ZM40.356 66.538c-.289-.289-.626-.433.289-.626.096-.048.192.193.336.29a3.875 3.875 0 0 0-.625.336ZM41.366 69.425c-.24-.722-.433-.481.53-.866 0 .529.144.336-.53.866ZM41.896 77.603c-.818.433-.578.385-.915 0 .818-.385.53-.337.915 0ZM245.212 91.074c.241.289.722.77 1.011 1.059-1.299.048-1.299.048-1.011-1.059ZM248.484 86.648c.193 2.165.337 1.78-.481 1.925-.433-2.261-.577-1.876.481-1.925ZM247.714 90.018c-.818.385-.529.385-.914 0 .818-.433.578-.385.914 0ZM253.44 85.73l-.963-2.886c2.598.77 1.588.288 3.849 1.924-.481 1.828-1.924.578-2.886.962ZM144.805 184.985c2.165-.192 1.78-.336 1.876.481-2.213.433-1.828.578-1.876-.481Z" fill="#13D7B7"/><path d="M143.891 185.755c1.154 0 1.106-.24.288.77l-.288-.77ZM211.535 185.755c0 1.155.337.77-1.636 1.876-.77-1.732.192-2.02 1.636-1.876ZM256.374 93.72c.722-.193.529-.385.866.577-.481 0-.289.096-.866-.577ZM258.203 95.26c-1.155 0-.963.24-.963-.963 1.155 0 .963-.24.963.962ZM199.507 175.171c-.192-.722-.385-.53.577-.866 0 .529.145.336-.577.866ZM68.5 44.36c-.384.386-.144.434-.865-.144.529-.529.336-.529.866.145ZM63.498 45.559c-.193-.096-.401-.209-.626-.337.096-.096.24-.288.337-.288.914.192.53.385.288.625ZM46.659 84.774c-1.203 0-1.107.192-.289-.77l.289.77Z" fill="#13D7B7"/><path d="M45.745 85.732c-1.203 0-1.203.24 0-.963v.963ZM253.825 142.792c-.193-.722-.385-.529.577-.866 0 .529.096.337-.577.866ZM51.614 155.737c3.608.914 7.12 8.901 10.296 11.643 4.378 3.801 8.371 7.601 13.423 10.488 7.698 4.33 14.24 12.942 16.887 21.409 2.453 7.939 2.983 17.513 4.715 25.643 1.443 6.928 1.443 17.272-.097 24.441-.962 4.426-6.543 17.175.289 20.206 9.045 4.042 5.437-15.01 5.677-19.677.433-8.66-.866-17.609 2.406-25.499 3.8-9.189 8.13-17.127 13.086-25.691 3.319-5.821 6.158-12.172 5.677-18.956-.866-12.46-12.557-26.797-22.997-33.677-10.2-6.736-19.34-8.468-31.176-6.207-10.248 1.973-21.265 2.069-18.186 15.877ZM158.131 174.597c18.86.145 21.169 21.073 21.169 36.324 0 3.127-1.154 8.42 1.732 10.44 5.293 3.56 5.004-3.127 5.341-6.35.433-4.33 1.202-7.409 2.357-11.595 1.059-4.09.337-8.66 1.491-12.605 2.358-7.746 11.355-11.884 13.808-2.694 2.021 7.649 1.925 15.588 3.561 23.285.962 4.523 2.838 7.506 2.886 12.461.048 3.368 0 6.784 0 10.151 0 3.416-.481 7.217 0 10.585.578 3.656 2.406 6.495 2.935 10.151a118.03 118.03 0 0 1 .914 26.75c-.625 7.361-4.715 19.87 6.639 18.378 2.695-7.313.097-12.412.722-20.014.481-6.447 1.155-12.653 1.155-19.437 0-7.649-1.684-14.722-1.78-22.275 0-3.416.096-6.88 0-10.296-.097-5.436-2.454-7.649-3.513-12.701-1.299-6.158 1.203-14.241 2.839-19.966.914-3.223.241-6.784 4.859-5.918 5.437 1.059 1.396 7.121 4.619 9.815 7.938 6.543 6.543-10.777 6.543-14.481-.048-8.42 1.684-16.166 2.454-24.489.577-6.014 1.299-10.007-3.512-14.722-6.88-6.783-19.149-9.718-28.386-10.296-21.265-1.395-41.279 4.86-54.75 22.228-5.052 6.447-3.079 11.739 5.917 17.271Z" fill="#13D7B7"/></svg>