<svg width="1920" height="1080" fill="none" xmlns="http://www.w3.org/2000/svg"><g clip-path="url(#a)"><path d="M55.003 296.303c-1.11 1.778-2 4-2.444 6.222-2.222 8.667-2 17.778-2.445 27.334.223 4.889.445 10.222.89 15.555.444 5.556.888 10.889 1.777 16.222 3.111 18.445 6.889 36.889 11.556 54.889 6.666 24.667 16.888 47.556 32.444 68 4.445 6 9.334 11.778 15.111 16.444 7.556 6.223 16.223 8.223 25.778 6.445 4.445-.889 5.778-3.111 3.778-7.111-.889-2-2-3.778-3.333-5.334-11.111-15.555-19.778-32.444-27.112-49.999-12.666-30.889-21.555-62.889-29.11-95.334-2.89-11.777-5.556-23.333-8.668-34.888-1.333-4.445-3.333-9.111-5.333-13.556-1.111-2.444-2.666-4.889-5.111-6.444-2.889-2-6-1.556-7.778 1.555ZM1895.46 440.975a77.864 77.864 0 0 0-1.34-10c-.89-5.111-2.22-10.222-4.66-14.889-1.34-2.222-2.67-4.445-4.67-5.778-3.11-2-6.44-1.778-8.67 1.111-1.11 1.334-2.22 3.111-2.66 4.889-1.11 4-2 8.222-2.45 12.222a189.654 189.654 0 0 0 1.11 45.778c1.34 7.556 2 15.111 1.56 22.667-.22 7.777-.22 15.555-.45 23.333 0 1.63.15 3.259.45 4.889.22 1.778.89 3.555 2.89 4.222 1.78.667 3.55 0 4.66-1.556 1.78-2 3.34-4.222 4.67-6.444 4.67-8.667 6.89-18.444 8.22-28.222 1.34-11.556 2.45-23.111 2-34.889-.22-5.778-.22-11.556-.66-17.333ZM113.224 759.635c-1.037.445-2 1.037-2.889 1.778-1.555 1.556-3.333 2.889-4.666 4.667-4.223 5.111-8.223 10-12 15.555-5.334 7.556-10.223 15.556-15.334 23.111-5.778 8.445-12.222 16-20 22.223-3.333 2.666-6.444 4.888-10.889 4.888-.889-.222-2 0-2.889.445-.889.444-2 .889-2.222 1.555-.667 2.667-2.667 2.889-4.667 3.334-2.518.74-5.11 1.407-7.778 2-.296.148-.666.222-1.11.222.444.148.888.222 1.333.222a14.976 14.976 0 0 1 2.444-.222c6-.889 12.222-1.556 18.222-2.222 14-1.334 26.223-6.667 36.667-16.222 6.222-5.778 11.556-12.223 16.445-19.334 5.778-8.889 11.111-18 14.889-27.777 1.111-3.112 2.222-6 2.222-9.556.444-4-3.333-6.889-7.778-4.667ZM1168.12 199.195h1.78c2-.222 4-.667 6 .222 2.44.667 4-2 6.22-2 .44 0 .67-.222.89-.222 6.66-.667 13.11-1.556 19.78-.445 4.44.667 8.22 2.445 10.66 6.445a27.392 27.392 0 0 0 2.45 3.333c2.52 2.963 5.7 4.445 9.55 4.445 6.89-.223 14.23-6 16.23-12.667 1.33-4.444.22-8-2.67-11.111-1.33-1.556-2.89-2.667-4.45-3.556-2-1.111-4.22-1.777-6.22-2.444-6.66-2-13.78-2.222-21.11-2.222-3.33.222-7.11.222-10.67.444-6 .667-12 1.778-17.33 4.222-2.89 1.334-5.56 2.889-7.11 5.556-.67 1.333-1.33 2.889-1.33 4.222-.45 2.889-.23 2.889-2.67 3.778-.89.222-2.22.444-2.22.667.22 1.333 1.33 1.333 2.22 1.333ZM1405.45 651.191c-.66 4.222-.66 8 1.34 11.777 1.77 3.112 4.22 5.556 7.11 7.556 5.11 3.333 10.66 5.333 16.44 6.667 10.22 2.444 20.67 3.333 32.45 3.555 2.66-.222 6.89-.666 11.11-.889 9.33-.74 18.59-2.518 27.78-5.333 10.22-3.111 19.77-7.555 28.44-14.222 3.33-2.889 6.67-6 8.45-10.222 2-4.445.66-8-4-9.556-2.67-1.111-5.56-1.555-8.45-1.778-7.78-.889-15.78-.444-23.78 0-10.22.889-20.44 1.334-30.66 1.111-4.23-.222-8.23-.666-12.45-1.777-4.22-1.334-7.55-3.778-9.55-8a80.578 80.578 0 0 1-1.78-3.778c-1.11-1.778-2.67-3.111-4.67-3.778-2.22-.444-4.44-.889-6.67-1.111-7.77-.889-14 2.222-19.77 7.111-6.23 5.556-10.23 12.667-13.34 20.222-.44 1.185-.89 2.371-1.33 3.556v1.333c.22-.444.44-.889.67-1.333 1.03-1.63 2.07-3.259 3.11-4.889.15-.296.37-.593.66-.889-.14.296-.22.667-.22 1.111-.22 1.111-.66 2.445-.89 3.556ZM717.005 732.082c7.556-.222 14.223-3.111 19.778-8 11.704-9.778 20.963-21.481 27.778-35.111 3.556-7.333 5.111-15.333 6-24.667-.444-2-.889-4.889-1.555-8-.889-3.333-3.112-5.555-6.667-6-.889-.222-2-.444-2.667-1.111-2.666-1.555-5.111-1.111-7.333.889-1.556 1.556-3.111 3.111-4.222 5.111-1.778 2.667-3.334 5.334-4.889 8.222-3.334 6.445-6.667 12.667-11.111 18.445-1.778 2.222-3.778 4.444-6.445 5.778a3609.541 3609.541 0 0 0-24.222 12.888c-1.778.889-3.556 1.778-5.111 2.889-6 4.445-7.112 12.223-2.667 18 6 7.556 14 11.111 23.333 10.667ZM1134.34 829.195c-2-3.555-4.67-6.889-7.78-9.777a15.842 15.842 0 0 0-3.55-2.667 3.73 3.73 0 0 0-4 .444c-1.34 1.111-1.78 2.445-1.34 4.223.67 1.555 1.11 3.111 2 4.444 4.23 7.333 7.34 15.111 10.67 23.111 1.33 3.778 2.44 7.556 3.11 11.556 1.11 7.777 0 15.777-.67 23.555-.66 6.667-1.77 13.333-2.44 18.889.22 3.333.22 5.778.44 8 .45 2.444 1.78 4.444 4.23 5.333 2.44.889 4.66-.444 6.22-2.222 1.11-.889 2-2.222 2.67-3.556 1.11-2 2-3.999 2.66-6.222 2.45-8.666 3.34-17.555 2.67-26.666-1.33-17.334-6.45-33.334-14.89-48.445ZM42.556 251.857c1.556 3.555 3.556 6.888 6.667 9.555 4.444 3.778 9.555 2.445 11.555-3.111.89-2 .89-4.444 1.334-6.889-.223-9.111-4-18.444-10.223-25.333a25.594 25.594 0 0 0-3.777-3.111c-4.667-3.111-9.334-1.778-11.556 3.333-.889 2.222-1.333 4.889-1.778 7.333-.666 2.223 0 4.445 1.334 6.223 2.666 3.777 4.666 7.777 6.444 12ZM337.227 497.418c6.444 1.555 11.111-2.889 9.778-9.333-1.334-6.889-8.667-12.667-16.001-12.667h-1.555c-3.333.444-5.778 2.222-6.889 5.333-1.333 3.111-.889 6 1.556 8.445 3.555 3.777 7.777 6.889 13.111 8.222ZM1880.79 383.637c1.56-1.111 2.89-2.444 3.78-3.778 4.44-6.666 6.67-14 7.11-21.777 0-1.111.22-2.223 0-3.334-.67-4.889-4.67-6.889-8.67-3.777-2.96 2.222-4.81 5.185-5.55 8.888-.45 3.112-1.11 6-1.56 9.112-.44 3.555-.67 7.111-.89 10.888 0 .445.08.815.22 1.112.67 2.888 3.12 4.222 5.56 2.666ZM11.67 191.638c1.11 2.222 2 4.444 3.555 6.222 1.333 1.778 2.889 3.778 4.889 4.889 3.555 2.444 7.555 1.111 9.11-2.889.445-1.111.667-2.222.89-3.556-.223-2-.445-3.778-1.111-5.555-1.778-5.778-5.334-10.445-10.89-13.111-3.333-1.556-6.444-.889-8.222 1.555-2 2.667-2 6.222-.222 8.889.667 1.333 1.333 2.444 2 3.556ZM1232.34 211.417c-2 1.333-3.11 3.333-2.44 5.333.66 1.778 2.22 2.444 4.22 2.667 1.56.222 3.33.666 4.89.889 6 1.555 11.78.666 17.33-2.223.3-.148.67-.37 1.11-.666 1.78-1.556 3.11-3.556 2.23-6.223-.67-2.444-2.45-3.777-5.12-4.222-1.11 0-2.22 0-3.77-.222-5.56.222-11.34 2-16.89 4-.6.148-1.11.37-1.56.667ZM1833.01 96.972c4 0 7.34-1.11 10.45-3.778 2.22-1.777 3.33-4.444 2.44-6.888-.89-2.445-3.11-4.223-6-4.223-1.33-.222-3.11 0-4.22.667-2 1.111-4 1.778-6.22 1.778-3.56.222-5.56 3.555-4.45 6.889 1.11 3.777 3.56 5.555 8 5.555ZM15.223 837.863c-2.222-.666-4.444-.666-6.444 0a102.627 102.627 0 0 0-8.444 3.556c-1.778.667-2.89 1.778-2.667 3.778 0 2 1.333 3.333 3.111 3.777 2 .445 3.778.889 5.111 1.111 2.222-.222 3.778-.222 5.333-.444 1.778-.667 4-1.333 5.778-2.222 2-1.334 2.667-3.334 2.223-5.778-.445-2.222-2-3.111-4-3.778ZM362.115 518.088c4.889.444 8.445-5.111 6-9.556-1.555-3.333-5.111-4.667-8.222-2.667-1.778 1.334-3.111 3.334-4.667 5.112-.444.666-.222 1.777 0 2.444.889 2.889 3.556 4.667 6.889 4.667ZM1271.45 202.086c1.34-.222 2.67-1.333 3.78-3.111.67-1.556.89-3.111-.22-4.667-.89-1.333-2.45-2-4.22-1.778-1.56.445-2.23 1.112-2.45 3.334-.22.666-.22 1.555-.44 2.222-.89 2.667 0 4 3.55 4ZM932.784 535.861c6.222-12.222 13.111-21.555 23.333-32.888-6.889 7.333-13.333 15.333-18.889 24.222-5.333 8.889-10 18.444-12.667 28.666-2.666 10.445-3.555 21.556-2 32.223-1.333-12.223 0-22.223 2.223-30.667 2-8.444 4.889-15.333 8-21.556Z" fill="#13D7B7"/><path fill-rule="evenodd" clip-rule="evenodd" d="M1941.9 183.865a1399.4 1399.4 0 0 1-11.55-4.222l-1.56-.445-1.56-.444c-.74-.297-1.48-.519-2.22-.667l-4.89-1.333c-6.66-1.334-13.77-2.445-21.33-2.222-1.78 0-3.78 0-5.56.222-1.77.296-3.63.74-5.55 1.333-3.33.667-6 2.889-8 6.222-2.22 3.111-3.78 6.889-5.11 11.111a86.22 86.22 0 0 0-3.56 12.445c-1.55 7.111-2.66 14.444-3.78 21.555a535.781 535.781 0 0 0-2.66 22c-.89 18.667-1.56 31.778-1.56 41.111-.22 9.556 0 15.111 0 18.445.22 6.444.45 3.777.67 4.444l.22 28.222c0 9.556.22 18.889.45 28.222 0 4.445-.23-1.111.22 26.889.89 32.445 1.55 38 2.44 62-1.55-46-3.11-107.333-2.66-155.555.22-12 .44-23.111 1.11-33.111.66-9.778.89-18.667 1.55-25.333 1.34-13.778 2.89-20.667 2.67-17.334-.89 6.889-1.78 14.667-2.45 22.889-.44 8.445-.88 17.111-1.33 26.445-.89 18-.67 37.555-.67 55.777.23 28.222.23-12.666.45 15.334 0 11.333.22 22.444.22 33.777.15 5.63.22 11.408.22 17.334.15 5.925.3 12.074.45 18.444.66 25.778 1.55 55.778 2.89 95.778.66 12.222.44 22.888.22 33.333-.22 5.333-.22 10.444-.45 16-.22 5.333-.22 11.111-.66 17.111-.67 11.778-2 25.111-4.45 41.111-2.44 16-5.77 34.889-12.89 57.111-6.22 18.444-13.11 34-21.11 48.444-7.77 14.222-16.66 27.556-27.55 40.445-5.56 6.666-11.34 13.111-18.23 19.555a221.701 221.701 0 0 1-10.44 9.778c-3.78 3.111-7.33 6.666-11.33 10-7.56 7.333-16.67 14.444-27.56 20.666-10.67 6.223-23.11 11.556-36.89 15.334-8.59 2.666-16.89 5.185-24.89 7.555-8 2.667-16.22 4.667-24.22 6-8 1.334-16 2.222-23.55 2.667-7.56.667-15.34 1.333-22.89 1.111-3.78 0-7.34-.222-11.12-.444-3.7-.149-7.33-.445-10.88-.889a247.41 247.41 0 0 1-21.34-2.667c-14.07-2.518-27.85-6-41.33-10.444-26.67-8.889-52.67-21.334-79.34-36.889-6.66-3.852-13.4-7.778-20.22-11.778-1.78-1.037-3.55-2.074-5.33-3.111l-2.45-1.556-2.66-1.333a94.41 94.41 0 0 1-5.34-2.889l-2.66-1.333c-.89-.445-1.56-.667-2.22-.889-1.49-.444-3.04-.519-4.67-.222-.74.148-1.56.296-2.45.444-.66.222-1.77.667-2.66 1.111-3.56 1.334-7.11 3.334-10.22 5.778-1.56 1.333-3.12 2.667-4.45 4.222a54.84 54.84 0 0 0-3.33 4.667 34.125 34.125 0 0 0-2.67 5.778c-.67 2-1.33 4-2 6.444l-2.89 9.778-1.55 5.111c-.45 1.556-1.11 3.333-1.78 5.111-2.67 6.889-6.67 13.111-12 18.445-1.33 1.481-1.78 2.074-1.33 1.777.44-.222 1.77-1.333 3.55-3.333 2-2 4.45-4.889 6.67-9.111 1.11-2 2.44-4.222 3.33-6.889.59-1.185 1.11-2.518 1.56-4 .44-1.333.89-2.667 1.33-4.222.74-2.815 1.56-5.778 2.44-8.889 1.12-3.111 1.78-6.444 2.89-9.333 1.11-3.111 2.45-6 4.45-8.667.89-1.333 2-2.667 3.11-3.778 1.33-1.185 2.67-2.37 4-3.555 2.96-2.074 6.22-3.778 9.78-5.111a5.56 5.56 0 0 1 1.33-.667c.44-.148.82-.222 1.11-.222.74-.297 1.56-.445 2.45-.445 1.48-.148 2.96 0 4.44.445 1.11.222 3.33 1.555 5.11 2.444 1.93 1.037 3.85 2.074 5.78 3.111 3.78 2 7.78 4.445 11.78 6.667 15.55 9.333 32 19.111 48.66 27.333 16.45 8.222 33.12 15.333 48.67 20.445 15.56 5.333 29.78 8.888 41.56 11.111 11.77 2.222 21.11 3.111 26.22 3.555 4.22.445 8.67.667 13.33.889 4.89.296 9.85.296 14.89 0 5.11-.222 10.45-.667 15.78-1.111 5.33-.444 10.89-1.111 16.44-2 5.78-.889 11.49-2 17.12-3.333 2.88-.667 5.77-1.556 8.44-2.445 2.81-.889 5.63-1.778 8.44-2.666l16.89-4.889c2.67-.889 5.56-1.778 8.23-2.667a71.402 71.402 0 0 0 8.44-3.111c11.11-4.222 21.33-9.778 30.44-16 4.6-3.111 8.89-6.37 12.89-9.778 4-3.555 7.34-6.889 10.89-10l4.89-4.444 4.89-4.445c3.11-2.963 6-5.703 8.67-8.222 5.11-5.333 9.33-10 12.44-13.555 14.89-16.445 27.34-35.111 37.56-55.111-11.11 22.444-22.22 38.222-32.23 50.666-9.77 12.445-18.66 21.333-27.11 29.111a59.097 59.097 0 0 0-3.11 2.889c-.89.889-1.85 1.778-2.89 2.667a100.618 100.618 0 0 0-5.55 5.555l-2.89 2.667a52.126 52.126 0 0 0-3.11 2.889 244.26 244.26 0 0 1-6.45 5.333c-4.66 3.778-9.55 7.333-15.33 10.667-5.78 3.555-12.22 6.889-19.56 10a128.416 128.416 0 0 1-10 3.778c-3.55 1.333-7.11 2.222-10.66 3.333-7.56 2.222-15.34 4.444-23.11 6.666-1.93.593-3.86 1.186-5.78 1.778-2 .667-4 1.111-6 1.556-4.15 1.037-8.15 1.852-12 2.444-4 .593-7.85 1.111-11.56 1.556-3.55.222-7.11.667-10.44.889-6.45.444-12.22.666-16.67.889-4.67 0-8 0-9.55-.223-1.78 0-1.56-.222.66-.222s6.67 0 13.34-.444c-5.34.222-11.34.444-17.56.222-6.22-.296-12.52-.815-18.89-1.556-12.89-1.111-26-3.555-36.89-6.222-11.11-2.666-20.22-5.555-26-7.555-5.55-1.778-8-2.667-5.11-1.334-31.55-11.333-59.55-26.666-85.55-42a530.214 530.214 0 0 1-9.56-5.777c-1.63-1.037-3.26-2-4.89-2.889-1.56-.889-3.11-1.778-4.67-2.667-1.63-.889-3.18-1.704-4.66-2.444l-2.45-1.334c-.66-.222-1.55-.889-2-.889-2-.888-4.22-1.111-6.66-.444-.3.148-.6.222-.89.222l-1.11.445c-.74.296-1.49.592-2.23.889-1.33.74-2.66 1.481-4 2.222a33.085 33.085 0 0 0-7.33 5.555c-4.22 4-6.67 9.334-8.44 15.556-.89 3.407-1.86 6.815-2.89 10.222-.89 3.333-1.78 6.667-3.11 10.222a61.61 61.61 0 0 1-11.78 19.778c-5.34 5.556-11.56 10-18.22 13.333-3.34 1.556-6.89 2.889-10.45 3.778a91.686 91.686 0 0 1-10.67 2.444c-14 2-28.22.889-41.55-2.666-13.56-3.333-25.78-8.667-37.78-14.667-23.56-12.444-44.44-28.666-64.22-45.555-9.78-8.445-19.63-16.963-29.56-25.556a707.507 707.507 0 0 0-30.22-24.666c-10.52-8-21.26-15.778-32.22-23.334a6481.898 6481.898 0 0 1-34.22-22.666c-5.78-3.704-11.63-7.482-17.56-11.334-5.78-4-11.78-7.777-17.78-11.777-11.776-8.223-23.776-17.111-35.11-26.889-11.555-10.222-21.333-20.667-28.889-31.333-7.555-10.667-12.667-21.778-15.556-32.445-2.666-10.666-2.888-20.889-2-29.555a87.625 87.625 0 0 1 5.778-22c4.889-12 10.223-19.556 13.778-24.445 3.556-4.666 5.556-6.666 6-7.111-1.111 1.556-5.111 6.889-9.778 14.445-4.444 7.333-8.889 16.888-11.333 25.777-2.444 8.667-3.111 16.445-3.111 19.111 0 1.556 0 1.556.222 0 0-1.333.222-4.666 1.111-9.777 1.556-11.111 6.222-23.778 13.778-35.778 7.333-12.222 17.333-24 28.445-34.889 22.666-21.778 49.775-40.444 74.445-56.222a9663.153 9663.153 0 0 1 34-21.555c4.89-3.112 9.48-6 13.78-8.667 2.66-1.778 4.89-3.333 6.89-4.889 2-1.333 3.77-2.667 4.89-3.778 1.18-1.185 1.92-2.074 2.22-2.666.22-.445-.45-.667-.67-.667-.44.148-.74.222-.89.222-.15.148-.15.222 0 .222 0 0 .22.445-.22.889a36.383 36.383 0 0 1-3.33 3.334 70.59 70.59 0 0 1-4 2.888 88.372 88.372 0 0 1-3.78 2.667l-5.11 3.333c.44-.444 1.55-1.111 2.89-2 .74-.592 1.55-1.185 2.44-1.777 2-1.334 4-2.889 5.11-3.778 1.34-1.111 1.78-1.556.89-.889-.67.444-2.67 2-6 4.222l2.67-1.778c1.33-1.111 2.89-2.222 4.22-3.333.67-.667 1.33-1.333 1.78-2 .22-.222 0-.444-.22-.444h-1.56c-1.56 0-3.11.444-4.44.666-2.45.445-4.67.889-6.45 1.334a76.2 76.2 0 0 0-2.44.444c-1.19.296-2 .519-2.45.667-1.11.222-.44 0 2-.889.45-.148.89-.296 1.34-.445l1.77-.444c1.34-.444 2.97-.963 4.89-1.556-2.22.593-4.37 1.186-6.44 1.778-1.48.445-2.89.889-4.22 1.334-1.63.444-3.19.888-4.67 1.333-6 2-11.11 4-15.56 5.778-8.89 3.555-15.11 6.444-19.33 8.222-8.44 3.555-8.89 4-7.56 3.555 2.89-.888 13.56-5.111-15.33 7.556-28.889 12.222-58.889 23.111-84.889 40-13.111 8.444-24.889 18.444-34.444 30.444-4.889 6-9.112 12.445-12.667 19.334a108.117 108.117 0 0 0-4.889 10.222 249.585 249.585 0 0 0-1.778 5.555 45.736 45.736 0 0 0-1.556 5.334 17.525 17.525 0 0 0-.666 2.666l-.222 1.334-.223 1.333a26.973 26.973 0 0 0 0 4.889c.148 1.629.445 3.259.889 4.889.445 1.629 1.037 3.037 1.778 4.222a19.44 19.44 0 0 0 2.889 3.111c.593.593 1.185 1.037 1.778 1.333.666.445 1.555.889 2.444 1.111a44.52 44.52 0 0 0 5.334 2.445c1.777.889 3.777 1.778 5.333 2.444 1.778.667 4 1.334 6 2.445a52.711 52.711 0 0 1 6 4 41.12 41.12 0 0 1 9.111 10.444 46.076 46.076 0 0 1 3.111 6c.445.889.889 2.222 1.111 3.556.445 1.333.667 2.666.667 4 .222 2.889-.222 5.777-1.333 8.222-.445.667-.445 1.111-.667 1.555l-.667 1.334-1.333 2.889-2.667 5.333a85.545 85.545 0 0 0-2.444 5.333c-1.333 3.556-2.445 6.667-2.889 10.445-.889 7.111-.222 14.222 2.889 20.666 2.889 6.223 8 12 13.778 16.667a34.792 34.792 0 0 0 4.444 3.333c1.556 1.111 3.111 2 4.889 3.111l10.445 6a3667.428 3667.428 0 0 0 20.666 12.223c7.112 4 14.149 8.148 21.112 12.444 13.776 8.444 27.336 17.333 40.446 27.111 12.89 9.778 25.55 20.222 36.89 32 11.55 11.778 21.78 24.667 29.78 38.889 8.22 14.222 14.66 29.555 17.77 45.778.89 4 1.56 8.222 1.78 12.444.22 4.222 0 8.444-.44 12.667-.89 8.444-3.34 16.888-7.34 24.444-3.77 7.556-9.33 14.222-15.33 19.778-6 5.555-12.67 10.444-19.33 14.666-13.56 8.667-28.23 15.111-42.89 20.445-10.67 3.555-14.45 4.444-12.67 4 1.56-.667 8.45-3.111 18.45-6.889 10-4 23.11-9.778 36.44-18.222 6.67-4.223 13.56-9.334 19.56-15.111 3.11-3.111 6-6.223 8.66-9.778a60.189 60.189 0 0 0 6.89-11.111c3.78-7.778 5.78-16 6.45-24 .66-8-.23-15.556-1.56-22-2.44-13.333-6.67-23.111-8.89-28.444-2.44-5.112-2.89-6.001-.67-.667 1.12 2.666 2.89 6.889 4.89 13.111 1.78 6.444 4.23 14.667 5.11 25.555 1.34 14.889-1.77 28.667-8.22 39.778a55.817 55.817 0 0 1-5.11 8c-1.93 2.37-3.85 4.593-5.78 6.667-4.14 4.296-8.44 8.148-12.89 11.555-18.22 13.334-37.55 22-60.22 29.778-11.33 3.778-23.554 7.333-37.332 10.444-6.963 1.63-14.296 3.037-22 4.223l-5.778.888c-2 .223-3.555.667-4.889 1.112a8.634 8.634 0 0 0-1.111.444l-.444.444-.667.223a17.653 17.653 0 0 1-3.778 1.778c-2.666.666-5.111.888-7.333 1.111a139.71 139.71 0 0 1-13.778.666c-2.37 0-4.741-.074-7.111-.222-2.445-.222-4.889-.444-7.334-.444-4.74-.297-9.629-.593-14.666-.889-1.334 0-2.593-.074-3.778-.222-1.333 0-2.667-.075-4-.223-2.667 0-5.408-.074-8.222-.222-10.889-.889-22.445-2-34.667-3.778-12.148-1.926-24.889-4.518-38.223-7.778-12.222-2.888-27.111-7.111-43.778-12.444-16.444-5.333-34.667-11.778-54.445-18-9.777-3.111-20-6.222-30.666-8.889-10.445-2.889-21.334-5.333-32.667-7.111a969.667 969.667 0 0 1-8.222-1.333c-2.815-.296-5.63-.519-8.445-.667a128.658 128.658 0 0 0-16.889.222c-11.111.667-21.556 4.667-31.556 10.667-6 3.333-12.444 5.333-18.666 6.667a75.472 75.472 0 0 1-9.556 1.555c-3.111.445-6 .667-9.111.889-12.445.889-24.667 1.333-37.112.667-24.444-1.334-48.444-6-70.444-12.889-22.001-6.889-42.445-16-60.223-26.667-8.889-5.555-17.111-11.111-24.445-17.111-7.333-5.778-14.222-11.777-20.222-18-6-6.444-11.556-13.555-16.222-21.555-4.889-8-8.667-17.111-10.889-26.889-2-9.778-2.445-20-1.333-30 .888-10 3.333-19.778 6.222-29.555 2.889-9.556 6.222-19.112 9.778-28.445a6071.844 6071.844 0 0 0 10.222-28.222 546.617 546.617 0 0 0 5.111-14.222c1.63-4.593 2.963-9.26 4-14a109.49 109.49 0 0 0 2.222-14.222 91.05 91.05 0 0 0 .222-14.223 65.97 65.97 0 0 0-2.222-13.333c-1.333-4.444-3.111-8.592-5.333-12.444-4.667-7.778-11.334-14.223-18.667-19.778a70.47 70.47 0 0 0-11.333-7.333c-4-2.223-8-4-12.445-5.556a1262.11 1262.11 0 0 1-13.111-4.889l-3.333-1.333c-1.111-.222-2.223-.667-3.111-1.111a40.693 40.693 0 0 0-5.778-1.334c-7.778-1.333-15.778.223-23.334 3.111-7.333 2.889-13.778 7.112-18.667 12.445-4.666 5.333-7.777 12-9.333 18.667a524.966 524.966 0 0 0-2.444 11.111 68.209 68.209 0 0 0-1.112 5.333c-.444 1.778-.888 3.778-1.555 5.778-2.222 6.444-5.778 12.222-10.445 16.444-4.666 4.222-10 6.889-15.111 8.445-1.333.444-2.444.666-3.778 1.111-1.037.296-2.148.592-3.333.889l-6.667 1.777a33.432 33.432 0 0 0-3.333.667l-.667.222h-.666a4.202 4.202 0 0 1-1.334.222c-1.481.445-2.814 1.038-4 1.778-2.444 1.556-4.222 3.556-5.555 6a8.667 8.667 0 0 0-1.111 2 33.027 33.027 0 0 1-1.111 2.445 139.844 139.844 0 0 1-2.223 4.666c-3.111 6.223-6.222 11.556-8.889 16.889-5.333 10.667-9.555 21.111-14.889 33.111-2.444 6-5.555 12.222-9.333 19.111-4 6.667-8.667 13.778-15.111 20.889-9.556 10.445-19.556 17.333-28.445 22.445-8.667 4.888-16.444 8-22.667 10.222-12.889 4.444-20.889 6-26.222 6.889-5.556.889-8.667 1.333-12.222 1.555-3.778.445-8.223.889-16.223 1.333 7.556-.444 14.89-1.555 22.223-2.666a225.271 225.271 0 0 0 22-5.111c-12.89 3.555-24.223 5.333-34.89 6.222-5.184.593-10.296.889-15.333.889-2.666 0-5.259-.074-7.778-.222-.666 0-1.11 0-2-.223l-2.222-.222-4.444-.444c-1.63-.148-3.185-.297-4.667-.445-.444-.222-.667 0-1.111-.222a8.63 8.63 0 0 1-1.111-.444A6.781 6.781 0 0 1-35 806.086a11.798 11.798 0 0 1-.667-2.445c0-.888-.222-2-.222-2.666v-21.334c.148-6.074.222-12.518.222-19.333V757.419c.223-1.333.223-2.444.89-3.555A5.103 5.103 0 0 1-33 752.086a3.464 3.464 0 0 1-.889-.667c-.666-.444-.889-1.111-1.11-1.778 0-.888-.445-1.333-.223-2.444 0-2.074.074-4.074.222-6v-6.222c.148-.741.593-1.408 1.333-2 .297-.296.593-.519.89-.667a4.199 4.199 0 0 1 1.333-.222l3.777-.444h5.112c1.185 0 2.222-.074 3.11-.223a25.949 25.949 0 0 0 3.112-1.111 5.61 5.61 0 0 0 1.333-.666l1.778-.889 6.222-3.778 1.556-.889c.296-.148.592-.37.889-.667l.889-.889c.222-.444.444-.666.444-.888.445-.889.296-1.704-.444-2.445-.223-.667-1.556-.889-2.445-.667-.296 0-.518.075-.667.223-.222 0-.222.222-.444.222-.222.222-.222 0-.222.222a21.841 21.841 0 0 1-3.778 2.667 27.138 27.138 0 0 1-8.222 3.555c-.89.223-2.445.667-3.778.889a386.8 386.8 0 0 0-4.222.445c-1.334 0-2.667 0-4-.223-1.111-.222-2.223-.444-3.111-1.555-.89-.889-1.112-2-1.556-3.333-.222-1.112-.444-2.667-.444-4.223.148-1.629.222-3.259.222-4.888v-2.223l-.222-1.111c0-2.666.444-5.111 2-7.111.888-1.037 1.851-1.852 2.889-2.444 1.037-.445 2-.963 2.888-1.556 2.815-1.63 5.63-3.333 8.445-5.111 5.555-3.778 11.111-8.222 16.222-12.889 5.111-4.889 9.556-10.444 13.111-16.667 3.556-6.222 6-13.111 6.445-19.999.222-3.556 0-7.112-.667-10.667a63.26 63.26 0 0 0-3.111-10.667c-2.889-6.666-7.333-13.111-12.444-18.889-5.112-5.777-10.89-11.111-16.89-16a223.777 223.777 0 0 0-9.555-6.888l-2.445-1.556-1.333-1.111c-.667-.445-1.333-.889-1.778-1.333-1.11-.889-2.222-2-2.666-3.334-.667-1.333-.667-2.889-.445-4.222V558.531c0-.445.222-1.111.445-1.778.148-.444.444-.963.889-1.556.444-.444 1.11-.888 1.777-1.333 1.556-.667 2.667-.444 3.334-.222a7.478 7.478 0 0 1 1.777.667c.445.222.667.222.89.444l.666.222 1.333.889 2.667 1.556a2.79 2.79 0 0 0 1.111.666 36.244 36.244 0 0 1-2.444-2.222 267.585 267.585 0 0 0-7.556-6l-.889-.667a14.386 14.386 0 0 1-1.555-1.333 9.708 9.708 0 0 1-2.223-2.667 11.225 11.225 0 0 1-1.555-6.888l.222-1.112V530.531c0-.222 0-.889.222-1.334.223-1.111.89-2.666 2.445-3.999 1.11-.667 2.444-1.112 3.333-1.112l-.889-.444-1.333-.667c-.445-.148-.889-.444-1.334-.889-.666-.666-1.11-1.555-1.11-2.444l-.445-3.111c0-32.445.222-68.444.222-92-.444-61.778-.666-81.555-1.333-88.222 0 15.778-.222 25.555-.222 32 .889-168.889 3.555-83.333 5.777-10.444V156.309c0-1.333.223-2.666.445-3.777 1.778 0 2.222 1.777 3.111 2.888 9.111 11.778 16.222 24.889 21.556 38.889C.335 212.754 5.224 231.865 9 251.198c3.334 16.444 6.223 32.889 9.112 49.333 2.222 11.778 4 23.556 6.222 35.334 5.11 28.222 10.889 56.444 19.111 83.999 4 13.778 8.889 27.556 14.667 40.889-2.37-5.629-4.445-11.111-6.222-16.444A364.258 364.258 0 0 1 43 415.42c-4.444-17.111-6.666-29.556-8-37.111-1.11-7.333-1.333-10.222-.444-8.222s2.889 8.889 6 20c6 24 12.889 47.111 22.445 68.666 9.555 21.556 21.11 42 37.111 57.778 8 7.778 16.667 14.222 26.889 17.111 2.444.889 5.111 1.555 7.333 1.778 2.371.296 4.667.222 6.889-.223 4.223-.888 8.223-3.333 11.556-7.111 3.556-3.777 6.889-8.222 10.222-13.111l10-14c6.667-9.555 14.667-18.889 24-26.889 2.445-1.777 4.889-3.777 7.334-5.555a92.33 92.33 0 0 1 8.222-4.889c5.778-2.667 12.222-4.667 18.889-5.333 3.259-.297 6.593-.222 10 .222 3.333.222 6.667.889 9.778 2 6.667 2.444 12.667 6.667 17.111 11.778 2 2.666 4 5.555 5.556 8.444l1.111 2.222a15.57 15.57 0 0 1 1.111 2.223 86.123 86.123 0 0 1 1.556 4.666 44.645 44.645 0 0 1 1.555 4l1.556 4c1.111 2.667 2 5.111 3.333 7.111 1.037 1.778 2.445 3.26 4.222 4.445 1.778 1.111 3.556 1.778 5.778 2 2 .444 4 .222 6-.445.667 0 1.111-.222 1.556-.444.444-.222 1.333-.667 2-.889l4-1.778 4.222-2 4.444-1.778 2.223-.888 1.333-.445c.222-.222.889-.222 1.556-.444 2.222-.445 4.444-.667 6.889-.445 4.444.667 8.222 2.889 11.111 4.889 3.111 2.445 5.778 5.111 7.778 8 2 2.667 3.777 5.111 5.555 7.778 1.778 2.667 3.556 5.333 5.111 7.778 3.334 5.111 6.667 9.333 10.889 12.666a27.503 27.503 0 0 0 3.334 2.445c.74.444 1.555.815 2.444 1.111.741.148 1.556.222 2.444.222.445 0 .963-.074 1.556-.222.148-.148.37-.222.667-.222l1.111-.223 4.889-1.333c2-.444 4.222-.889 6.444-.667 4.445 0 9.111 1.778 12.445 4 3.555 2.445 6.222 5.556 8.444 8.667 2.222 3.111 3.778 6.222 5.334 9.556a88.48 88.48 0 0 1 3.777 9.777c1.112 3.334 2 6.889 2.667 10a3023.694 3023.694 0 0 0 8.222 35.111c2.667 11.334 6.223 22.667 10.667 33.334 4.445 10.666 10 20.888 16.889 30.444 6.667 9.333 14.445 18.222 23.111 26 8.667 8 18.223 15.111 28.223 21.333 10 6.222 20.444 11.556 31.333 16.222 21.778 9.334 44.667 15.556 67.778 18.223 11.556 1.333 23.112 1.777 34.667 1.333 11.556-.444 22.889-1.556 34-3.778 22.001-4.667 43.112-13.111 59.556-26.444 8.445-6.667 15.556-14.445 21.112-22.889 5.555-8.667 9.777-18.222 12.666-27.778a136.184 136.184 0 0 0 4.667-29.778l.222-3.555v-4.222c.148-1.334.222-2.519.222-3.556v-3.555c-.222-5.111-.222-10.223-.444-14.889-.148-2.371-.296-4.667-.444-6.889a111.71 111.71 0 0 1-.667-7.333 2430.632 2430.632 0 0 1-1.778-15.556 1432.66 1432.66 0 0 1-.889-8.222c-.222-2.667-.889-5.556-1.111-8.445a1571.87 1571.87 0 0 1-2.667-17.555c-1.777-12-4-24.667-6.222-37.556a201.86 201.86 0 0 1-1.555-10 200.679 200.679 0 0 1-1.556-10 3189.956 3189.956 0 0 1-3.111-20.444c-2-13.555-3.556-27.778-4.667-42-.444-7.111-.889-14.222-1.111-21.555a133.567 133.567 0 0 1 0-10.889c.148-1.926.222-3.778.222-5.556.223-1.778.223-3.778.445-5.333.666-6.889.889-14 1.778-21.333a256.118 256.118 0 0 1 3.555-20.889c2.889-13.778 7.111-27.111 12.667-39.334l.444-1.333c.297-.889.815-2.074 1.556-3.555 1.555-3.334 3.778-7.778 7.111-13.334 3.111-5.555 7.556-12.222 13.111-19.111a272.276 272.276 0 0 1 6.667-7.333c-1.111.889-.445 0 2-2.445 2.667-2.666 7.555-7.555 14.667-12.888 7.111-5.112 16.222-10.889 27.333-15.334 9.778-4 20.445-6.444 30.889-7.333 5.334-.444 10.889-.667 16.223-.222a94.942 94.942 0 0 1 16 2.666c-7.778-2-12.889-2.222-17.334-2.444h-.222c9.778.444 19.556 2.667 28.445 6.444 12 4.667 22.444 11.778 31.111 20.223a100.73 100.73 0 0 1 12 14.444 138.586 138.586 0 0 1 4.444 7.333c.667 1.334 1.334 2.445 2 3.778a28.695 28.695 0 0 1 1.556 3.778c2.222 4.889 3.556 10.222 4.222 15.111.296 2.518.445 5.037.445 7.555a27.015 27.015 0 0 0-.223 3.334 192.638 192.638 0 0 1-.444 3.333c-.667 4-1.333 7.333-1.778 10.222-.222 1.334-.444 2.667-.222 4.445 0 0 .222 0 .444.222 1.778.444 3.334.667 4.889.889h2.445c.741.148 1.481.222 2.222.222h4.222c2.519 0 4.519.074 6 .222 2.667 0 3.556.223 3.111.223-.222 0-1.555.222-3.111.222-1.333.222-2.889.222-3.333.444-.444 0 0 0 2.444.222 1.334 0 3.112.075 5.334.223 2.666 0 5.995.074 9.995.222.45 0 .89 0 1.78.222v.222h.45c.29.148.59.297.89.445.44.222 1.11.444 1.55.666.45.297.89.593 1.33.889 1.34.889 2.75 1.852 4.23 2.889 1.55 1.111 3.11 2.222 4.89 3.778.44.296.96.667 1.55 1.111l.89.889c.3.444.59.815.89 1.111l.89 1.111c.15.445.37.815.66 1.111.23.445.45.889.45 1.334.44.444.44 1.111.44 1.555.15.593.23 1.185.23 1.778 0 .444.07.815.22 1.111v.667c0 .444 0 .889.44 1.333.45.222 1.11 0 1.56 0h.44l.89-.222c.67 0 1.56-.445 2.67-.667 7.55-2.222 16.22-5.778 24.44-11.778 3.41-2.666 6.37-5.333 8.89-8 2.45-2.666 4.22-5.111 5.78-8 2.89-5.333 4.44-10.888 5.11-16.222.45-5.111.22-10.222 0-15.555-.3-2.667-.52-5.334-.67-8-.14-2.519-.29-5.26-.44-8.222-.44-5.556-.44-11.778.89-18.889 1.11-7.111 4.22-14.889 10-22 1.33-1.778 2.89-3.556 4.67-5.334 1.77-1.555 3.55-2.888 5.33-4.444 3.78-2.889 7.78-5.778 12.44-8.444 9.34-5.334 20.89-10 34.45-12.445.89-.148 1.85-.296 2.89-.444l1.33-.223h.67l.89-.222c2.22-.148 4.51-.148 6.88 0 4.45.445 9.12 2 12.89 4.445l1.34.889 1.11.888 2.22 1.778 2.44 1.778 1.12.889.88.667a36.286 36.286 0 0 0 8.23 5.111c2.81 1.481 5.92 2.74 9.33 3.777 3.33.889 6.67 1.334 10.44 1.778 7.56.889 15.56 1.334 24.23 1.111 8.66-.222 18-.889 28.22-1.777 10-.445 20.89-1.778 32.89-2.889 5.92-.593 12.07-1.186 18.44-1.778 6.45-.445 13.34-1.111 20.45-1.556 7.11-.296 14.52-.444 22.22-.444 7.78 0 15.78.222 24.22.667 7.34.444 21.34 1.555 38.89 5.111 17.56 3.777 38.67 10.444 59.34 21.777 10.44 5.778 20.44 12.445 29.77 20.223 9.56 7.555 18.23 16.444 25.34 25.999 7.33 9.778 12.89 20.223 16.44 30.889 1.93 5.186 3.33 10.371 4.22 15.556 1.11 5.333 1.56 10.222 1.78 14.889.45 11.777-.89 22.444-3.78 34-3.11 11.555-7.77 24.222-15.77 39.111-8.23 14.889-20 31.777-36.89 52-8.67 10.222-18.45 21.111-29.78 33.111-11.11 12-23.78 25.111-37.56 40-10.89 12.222-22.44 25.333-32.66 40-5.34 7.333-10.23 15.111-14.23 23.333-4.22 8.222-7.33 17.111-8.89 26.222-.44 4.444-.44 9.111.23 13.555.89 4.445 2.66 8.667 5.11 12.667 4.89 7.778 12.89 13.778 21.78 18.222 8.66 4.445 18.44 7.556 28.44 10 10 2.445 20.22 4 30.67 4.889 10.44.889 21.11 1.111 31.55.889 10.67-.222 21.34-.667 32-1.778 21.11-2.222 42.23-6.222 62.67-11.555 41.11-11.111 80.22-28.445 112.45-52.222 11.77-8.667 21.55-17.111 30.44-26.223 8.89-9.111 16.89-18.666 24.67-30 7.55-11.555 15.11-24.666 22.22-41.555 6.89-16.667 13.11-37.111 17.33-62.444 1.11-7.334 2.22-16.667 3.34-28 .88-11.334 1.33-24.667 1.33-38.889-.15-7.259-.3-14.815-.45-22.667-.22-7.777-.88-15.777-1.55-24-.67-8.222-1.33-16.666-2.22-25.111-.23-4.222-.89-8.666-1.34-12.889-.44-4.296-.96-8.592-1.55-12.888-4-34.667-10.22-70.223-12.22-103.111-.23-8.223-.45-16.223 0-24 .88-7.778 1.55-15.111 2.88-22.222 1.56-7.112 3.78-13.778 6.67-19.556 2.89-6 6.45-11.111 10.22-15.333-6 6.666-10.44 14.444-13.55 22.666-3.11 8.445-4.89 17.111-5.78 25.778-.44 4.445-.89 8.667-1.11 13.111-.15 4.445-.22 8.815-.22 13.111.22 8.667.89 17.556 1.77 26 .67 7.334 1.56 14.667 2.67 22 .89 7.333 1.78 14.667 2.89 22 4.67 36.667 2 18.445-1.33-5.111-.67-6-1.56-12.222-2.23-18.222a351.93 351.93 0 0 1-2-15.333c-1.11-8.445-1.33-12.223-.88-4.667-.67-6.222-1.12-12.222-1.56-18.222-.22-6-.44-12-.22-18 0-2.963.07-5.926.22-8.889.44-2.889.67-5.778.89-8.667.67-5.778 1.55-11.555 3.11-17.333 2.89-11.111 8.22-22 15.78-30.445 7.55-8.666 16.89-14.888 26.67-19.555 9.77-4.667 20-7.778 30.44-9.333 10.22-1.778 20.89-2 30.89-.223 10 1.556 19.55 5.112 28.44 9.334a150.499 150.499 0 0 1 24.23 15.555c-8.23-6.222-17.12-12-26.67-16.444-9.78-4.222-20-7.333-30.45-8.445-8.66-.888-18.44-.444-28.44 1.556a121.284 121.284 0 0 0-15.56 4.222c-5.33 1.778-10.44 4-15.77 6.889-10.23 5.556-20.23 13.556-27.34 24.222-6.89 10.667-10.89 23.556-12.22 36.445-.67 6.444-1.33 13.111-1.56 19.777 0 6.445.23 13.111.67 19.778.67 8.889 1.78 17.778 2.89 26.667 0-.741-.07-1.482-.22-2.223-.89-9.333-2-18.666-2.45-28.222-.22-8.444-.44-17.111.45-25.777.66-6.445 1.33-12.889 2.66-19.334 3.34-15.111 10-28.222 21.78-38.444 9.56-8.667 20.67-14.222 32.89-18.222 8-2.519 16.15-4.148 24.45-4.889 13.11-1.333 26 .667 38.44 5.111 12.67 4.667 24 11.556 34.67 19.778a52.732 52.732 0 0 1 4.66 3.333v43.333c-4-1.555-8-3.111-12-4.444-10.66-2.889-21.55-4.667-32.66-3.778-2.45.222-5.11.667-7.56 1.333-3.78.889-6.44 3.112-8.66 6.223-2.67 3.333-4.23 7.111-5.78 11.111-2.89 7.555-4.45 15.333-5.78 23.333a364.371 364.371 0 0 0-4.22 38c-.45 6.889-.67 13.778-1.11 20.667a823.612 823.612 0 0 0-.67 33.333c0 10.666.22 24.444.22 37.333.45 25.333 1.11 46.889 1.11 32l-.22-22.889v-22.666c0-15.334 0-30.445.45-45.778.22-7.556.88-15.111 1.11-22.667l.66-11.333c.3-3.852.67-7.63 1.11-11.333.74-7.556 1.71-15.037 2.89-22.445 1.34-7.555 2.89-14.889 5.11-22 1.56-5.333 3.34-10.444 6.45-14.666 2-2.445 4.44-4.223 7.11-4.889 2.89-.889 6-1.556 8.67-1.556 6-.444 11.33 0 16.66.667 5.11.889 10 2 14.45 3.111.59.296 1.11.518 1.55.667.74.148 1.41.296 2 .444 1.19.445 2.37.889 3.56 1.333 2.37.889 4.67 1.778 6.89 2.667.22-20 .22-34 .22-42.889V136.087l-.22-.222c-.89-.593-1.63-1.185-2.22-1.778-1.56-1.111-2.45-1.778-3.12-2.222-1.33-1.185-1.77-1.63-1.33-1.333.15.148.52.444 1.11.889a42.37 42.37 0 0 1 2.67 1.777c.59.445 1.26.889 2 1.334.44.296.89.592 1.33.888 0 0 .22.223.45.667v7.556c.15 4.444.22 9.703.22 15.777 0 7.26.07 15.408.22 24.445Zm-851.34 222.888c.6-.444 1.19-.814 1.78-1.111-.59.445-1.18.815-1.78 1.111ZM7.89 737.197c-.222-.667-.666-2.222-1.333-3.111-1.778-2-5.111-1.778-6 .444-.445.889-.445 2.223 0 3.112.444 1.555 0 1.777-1.333 2.444-1.778.667-2 2.222-.445 3.333 1.185.889 2.519 1.111 4 .667 2.889-.667 4.889-3.333 5.111-6.889Zm3.111-31.333c-.888-1.333-2.222-1.778-4.222-1.556-1.333.222-1.555.889-1.555 2 0 2 2 4.889 3.777 5.556 1.112.222 2-.222 2.445-1.111.889-1.778.667-3.334-.445-4.889Zm1.334-154.889c.666 1.556 1.777 2.889 2.666 2.667h.445c1.111-.667 1.111-1.778 1.111-2.889-.222-1.556-1.111-2.444-2.444-2.667-.445 0-.89.223-1.112.445-.888.444-1.11 1.333-.666 2.444Zm7.555 15.111c-.666-3.555-2.222-6.666-5.333-8.666-2.889-1.778-6.222-.223-6.667 3.111-.444 3.555 2 8 5.111 9.778 1.556.888 3.112 1.333 4.667.222 1.556-.889 2.222-2.445 2.222-4.445Zm12 21.334c-.444-.889-1.11-2-1.777-2.667-1.111-1.556-2.89-1.778-4-.667-1.112.889-1.112 2.889 0 4 .889.889 2 1.556 3.11 2.445 1.112.666.445-.667.445-.667.222-.889 0-2 1.334-2.222.222 0 .444 0 .888-.222Zm430.225 287.777c-.444 0-1.111-.222-1.555-.445-2.667-1.333-5.556-2.666-8.223-4-6.222-2.666-12.222-5.777-18.667-8.222-12.666-4.444-25.555-8.444-38.444-12.666-12.889-4-24.889-9.778-36.223-17.334-6.666-4.222-13.111-8.666-19.778-13.111-3.111-2-6.444-3.555-9.111-6.667-.889-.888-2.444-1.333-3.111-1.555-9.333.444-11.555 6.667-9.555 12.222 1.333 4 3.777 7.111 6.666 10a149.162 149.162 0 0 0 22.889 19.111c10.223 7.111 21.334 11.556 33.556 13.111 10.667 1.334 21.556 2.223 32.222 3.334 6.223.666 12.223 1.111 18.223 2 10 1.333 19.778 2.888 29.778 4.222.444.222.889 0 1.333 0Zm-128.89-67.556c0 2.445.445 3.556 2.667 5.334l8.889 8c7.556 6.666 16 11.777 25.778 14.444 6.667 2 13.556 3.333 20.222 5.111.445 0 .889-.222 1.334-.222-.223-.222-.445-.667-.889-.889a224.3 224.3 0 0 1-6.445-2.889c-6.889-3.111-13.778-6.444-20-10.889-7.778-5.333-13.778-12.444-19.778-19.555-.889-1.111-1.778-2.222-2.889-2.889-2-1.556-4-1.333-6-.222-2 .889-3.111 2.666-2.889 4.666Zm.223-15.333c.148 1.185.444 2.37.889 3.556.888 2.222 2.666 3.333 4.666 3.111 2.222-.445 3.778-2.445 3.778-4.889 0-2.222-1.111-4-2.667-5.556-1.333-1.333-3.555-1.555-4.889-.666-1.333.666-2.222 2.666-1.777 4.444Zm43.555 34.222a53.343 53.343 0 0 0 6.889 2.222c1.556.445 2.889 0 3.778-1.333.667-1.555.445-3.111-.444-4.444-2.222-2.445-5.111-3.778-8-4.223-2.445 0-3.778.889-4.223 2.667-.444.889.889 4.445 2 5.111Zm-56-62.666c.222 2 1.333 3.555 2.889 3.333 2.222 0 4-2 4-4.444 0-1.778-1.111-3.112-2.889-3.112-2 0-4 2.223-4 4.223Zm-5.333 33.111c1.333 4.222 5.111 6.444 9.333 5.333 2.222-.444 3.556-2 4.445-3.778 1.555-3.333 1.777-6.666 2-10.222-.223-1.555-.223-3.333-.445-4.889 0-.889-.222-1.778-.444-2.444-1.778-5.334-6-6.667-10-2.667-.667.667-1.334 1.333-1.556 2-1.111 2-2.444 4.222-3.111 6.445-1.111 3.333-1.111 6.666-.222 10.222Zm79.334 37.111c.444.889 1.111 1.778 1.111 2.666.444 3.112 2.444 5.112 5.111 6.667 2.222 1.037 4.518 2 6.889 2.889 8.889 3.556 18.222 5.333 27.778 6.444.444 0 .815.074 1.111.223a3.465 3.465 0 0 0-.889-.667c-2.667-2-5.333-3.778-7.778-5.778-6.444-4.889-13.778-8.889-21.111-12.444-1.778-.889-3.778-1.334-5.111-1.778-2.667.444-4.667.667-6.667 1.111-.222 0-.444.445-.444.667Zm112.445 43.333c-.889-.667-2.445-1.333-3.556-1.778-7.111-2.222-14.444-3.111-21.778-3.555h-4.889c-1.555.222-2.889 1.111-3.555 2.666-.445 1.556.222 2.889 1.333 3.778 1.111.889 2.444 1.778 3.778 2.222 7.555 3.334 15.555 4.445 23.556 4.667 1.333 0 2.888-.444 4.222-.889 3.333-1.111 4-4.667.889-7.111Zm12.666-2.889c-1.555-1.555-2.889-3.555-5.333-2.889h-1.778c-1.111.222-2 .889-2 1.778.222.667.889 1.778 1.334 2 2.222.667 4.444.889 6.888 1.333.223 0 .889-.444 1.112-.888.222-.445 0-1.112-.223-1.334Zm17.556-3.778c0-1.111-.667-1.555-2-1.555-.222 0-.444 0-.667.222-.889.444-2.666-.444-2.666.667 0 .666 1.777 1.555 2.666 2.222h.667c1.111.222 2-.667 2-1.556Zm270.668-513.554c1.111.444 2.445.889 3.556.889 3.333 0 6.444-.223 9.333-1.778 1.111-.667 2.223-1.333 3.111-2.222 2.667-2.889 2.223-6.889-1.333-8.667-1.778-.889-3.778-1.111-4.889-1.555-4 .222-6.444 1.111-8.889 2.666-1.111.889-2.222 1.778-2.889 2.889-2 2.889-1.111 6.222 2 7.778Zm11.111 5.778c-.444.888-.666 2-.666 2.666v2.222c.222 2.445 2 4 4.222 4.223 2.222.222 3.778-.889 4.889-3.111.889-2.445.222-5.778-1.778-7.556-2.444-2.222-5.555-1.556-6.667 1.556Zm-43.778 143.333c2.223 5.111 4.445 10.222 8 14.666 1.556 1.778 3.334 3.778 5.112 5.334 4.666 3.333 10 3.333 14.889.444 2.666-1.778 4.814-3.926 6.444-6.444 2.445-4.445 4.889-8.667 8-12.667.667-.889.889-2 1.333-3.111 1.334-4.222 2.889-8.445 4-12.667 3.334-13.111 4.445-26.444 4.445-40l-.889-19.555c-.667-11.778-1.778-23.556-4.444-35.111-1.778-8.667-4.445-17.111-9.112-24.889-2.222-3.556-4.889-6.889-8.666-9.556-8.445-5.777-18.223-5.111-25.778 1.778-3.111 2.889-5.556 6.222-7.556 10-7.111 13.778-10.222 28.667-11.111 44-.444 9.333-.667 18.444.444 27.778.889 6.222 1.778 12.444 3.334 18.444 1.333 4.667 2.667 9.334 3.555 14 1.778 9.556 4.223 18.667 8 27.556Zm22.667 106.444c0-2.222-.889-3.556-2-3.778-1.555-.444-3.111 0-3.778 1.778-.888 2-1.333 4.222-1.777 6.444-.223 1.111.222 2.445 1.333 2.667 1.111 0 2.222-.222 3.111-.667 2.222-1.555 2.889-4 3.111-6.444Zm5.778-18.889c1.111-2 1.111-4.444 1.556-6.444-.667-3.556-1.112-6.667-2-9.778-2.889-10.667-7.334-20.889-12.667-30.667-4.889-8.444-10.222-16.444-16-24.222-.222-.444-.889-.667-1.111-.889 0 .445-.223.889 0 1.334 1.555 6.888 3.111 13.777 4.444 20.666 2 9.556 3.778 19.111 5.556 28.667a3010.375 3010.375 0 0 1 3.111 15.777c.444 2.445 1.333 4.889 2.889 6.889 4.222 5.111 11.333 4.445 14.222-1.333Zm4 10.444c0-1.555-1.778-4-3.333-4.444-1.111-.222-2.223.667-2.223 1.778 0 1.555 1.334 3.778 2.667 4.444 1.111.667 2.889-.444 2.889-1.778Zm9.778-43.333c-.667-1.555-.889-3.111-1.778-4.444-1.333-2.445-3.111-4.889-4.889-7.111-4-5.111-8.444-9.556-14.222-12.445a14.076 14.076 0 0 0-3.111-1.333c-.889-.222-1.111.444-.889 1.111a104.441 104.441 0 0 0 2.667 4.222c4.444 6.445 8.888 13.111 12.666 20 .445.889 1.111 1.778 1.556 2.445 1.333 2 2.667 4.666 5.555 2.666 0 0 1.112-.444 1.334-.666 2-1.556 1.555-2.445 1.111-4.445Zm9.556-20.889c2-4 2.888-8.444 2.444-12.888a17.663 17.663 0 0 0-1.333-4.889c-1.334-2.667-3.334-4.889-6.667-4.889-2.667 0-5.333 2.444-6.445 5.778-.666 2.444-.888 4.888-1.333 7.333.222 3.555.667 7.111 2.667 10 3.111 4.444 8.222 4.444 10.667-.445Zm3.333 16.667c-.445-.889-.889-2.444-2-3.556-.889-1.111-2.445-1.111-3.556-.222-1.333 1.111-1.555 2-.444 3.556.444.889.889 1.778 1.555 2.444.667.445 1.778.889 2.667.889 1.333-.222 1.556-1.333 1.778-3.111Zm3.555-41.778c0-2.222-2-5.555-3.777-6.666-1.334-.667-2.889-.445-3.778.444-1.334.889-1.556 2.445-.667 4a86.31 86.31 0 0 0 2.222 3.778c1.112 1.778 2.445 2.667 4 2 1.334-.445 2-1.778 2-3.556Zm1.334-78.222c.222-.889.222-2.222 0-3.111-.222-.444-1.111-1.111-1.778-1.111s-1.333.667-1.778 1.333c-.222.445 0 1.334 0 2.889 0 0 .222 1.111.889 1.556 1.333.444 2.222-.445 2.667-1.556Zm6.444 10.889c-.444-1.111-.666-2.222-1.111-3.111-.667-1.111-2-1.778-3.333-1.333-1.334.444-2 1.555-2 2.889 0 1.555 1.555 4.222 2.889 4.666.666.222 1.555 0 2-.444.666-.667 1.111-1.556 1.555-2.667Zm8.223-133.555c-2.001-1.334-4.445-.889-6 1.778-1.778 3.111-4.667 5.111-8.001 6.222-2.666 1.111-5.333 1.778-8.222 2.666a26.13 26.13 0 0 0-3.111 1.112c1.333 0 2.445.222 3.556.222h5.111c4.444.444 9.333-.222 12.444-1.778 2.445-1.111 4.667-2.667 5.778-5.111.889-2 .222-4-1.555-5.111Zm189.56 587.776c0 2.445.89 4.667 3.33 5.778 2.44.889 4.67.667 6.67-1.111a25.675 25.675 0 0 0 3.11-3.778c5.33-8.444 8.22-17.777 8.44-26-.22-9.333-1.78-16.444-4.22-23.333-.15-.444-.3-.815-.44-1.111-.15.296-.3.667-.45 1.111-1.33 5.333-2.44 10.667-4 16-2.67 9.333-6.22 18.444-10.89 26.889-.89 1.778-1.78 3.555-1.55 5.555Zm14.22 6.223c-4.45 2.889-7.11 6.889-7.78 12.222 0 2 .22 3.778 2 4.666 2 1.112 3.78.889 5.56-.222 2.89-2 5.33-4.222 6.44-7.555.67-1.334.89-3.111.89-4.667 0-4.222-3.78-6.444-7.11-4.444Zm-16.89 11.111c0 1.778.89 2.889 2.67 3.111 2.22 0 3.77-1.556 4-4 0-2-1.11-3.334-2.89-3.334-2 0-3.78 2.001-3.78 4.223Zm-12.89 21.333c.44 3.111 3.11 5.111 7.33 5.111.45 0 1.78-.222 2.89-.667 4.74-1.777 9.48-3.703 14.23-5.777 5.48-2.223 10.14-5.556 14-10 .29-.297.59-.667.88-1.111-.44.148-.88.296-1.33.444-2.89.444-5.78 1.111-8.67 1.556-7.33 1.111-14.66 2-22.22 3.111-.67 0-1.55.222-2.44.444-3.11.889-5.11 3.778-4.67 6.889Zm-28.444-191.333c0 1.556 1.555 3.556 3.333 3.556 1.331 0 2.671-1.334 2.671-2.889.22-1.778-1.12-3.111-2.893-3.334-1.556 0-3.111 1.112-3.111 2.667Zm-18.889-21.111c.444.444.889.889 1.555 1.111.223 0 .667-.667 1.334-1.333-.889-.445-1.334-.667-2-.667-.222 0-.667.667-.889.889Zm494.673-328.444c2.44 0 4.89-.666 6.44-2.666.67-.889 1.11-2 1.33-2.445 0-2.444-.44-3.333-2-4-3.55-2-8.66.222-9.33 4.222-.67 2.667.89 4.889 3.56 4.889Zm15.55 14.889c3.34-2.889 4.89-6.667 5.11-11.111.23-4.889-3.33-7.778-8-6.444-1.11.222-2.22.888-2.89 1.333-2.44 1.778-4.44 4-5.55 6.667-.67 1.777-1.33 3.777-1.33 5.555-.23 3.778 2.88 6.667 6.66 6.445 2.22 0 4.22-1.112 6-2.445Zm10.45-54.667c0-3.333.22-6.666 0-9.777-.23-5.111-1.56-10-4-14.445-.67-1.111-1.78-2-2.67-3.111-.67 1.111-1.33 2.222-2 3.334-.22.888-.44 1.555-.67 2.444-3.33 9.778-5.77 19.555-7.55 29.778-.89 4.666-1.11 9.333-1.34 14 0 3.333 2 6 4.67 7.333 2.22 1.333 6.67-.667 8.67-3.333.66-.667 1.11-1.334 1.33-2.223 1.11-2.666 2.22-5.333 2.67-8.222.66-5.111 1.11-10.444 1.55-15.555-.29-.148-.52-.223-.66-.223Zm-4.89 112.889c-.67-.222-1.11-.222-1.11-.222h-1.34c-1.33.222-2.44.667-2.89 2-.44 1.111 0 2.222.89 2.889.89.889 2.23 1.111 3.34.444.89-.444 1.77-.889 2.22-1.555 1.55-1.556.89-3.111-1.11-3.556Zm6.66-21.111c-5.33 0-11.33 6-11.55 11.333 0 3.778 1.78 5.556 5.55 5.778 5.12 0 11.34-4.444 12.45-9.555.89-4-2.22-7.778-6.45-7.556Zm4.67-24.222c2.89-.222 5.33-1.333 7.11-4 .22-.444.45-1.111.67-1.556-.22-1.777-1.56-3.111-3.11-3.333-2.67-.222-6.45 2.222-7.56 4.444-.89 2 .67 4.667 2.89 4.445Zm20-7.333c-.22.222-.67.444-.89.666-2.66 2.667-5.11 5.111-7.78 7.556-3.77 3.555-7.11 7.555-10 11.778-.66 1.333-1.55 2.666-2 4-.88 3.777 1.78 7.111 6 7.111 1.34.222 2.89-.445 4-1.778 1.34-1.778 2.89-3.556 3.56-5.556 2.67-7.555 4.89-15.111 7.33-22.666 0-.222 0-.667-.22-1.111Zm-43.55-143.111c3.33 4.889 5.55 10.444 7.33 16 1.55 4.889 3.11 10 4.67 15.111 4.66 14.889 8 30.222 6.88 46.222 0 4.222.23 8.444 0 12.889-.44 5.111-1.33 10.444-2 15.555-.66 5.334-1.55 10.445-1.11 15.778.45 4.445 1.78 8.445 4.45 12 5.33 7.333 18.66 8 23.11-1.555.67-1.112 1.11-2 2-2.889 5.33-5.556 7.55-12.667 7.55-20.445.23-5.555-.44-11.333-.44-17.111-.22-8.222-1.33-16.222-2.67-24.222-3.33-19.333-11.77-36-26-49.333-5.77-5.334-12-10.222-18.22-15.334l-4.44-3.555c-.23-.222-.67-.222-1.11-.445 0 .445-.23 1.112 0 1.334Zm-208.89-26.667c2.88 2.445 9.11 1.778 11.33-1.111 1.55-1.778 1.11-4.222-1.11-5.333-1.11-.445-2.67-.667-4-1.111-1.78.666-3.78.888-5.56 1.777-2.66 1.111-2.89 3.778-.66 5.778Zm-91.34 21.778a11.38 11.38 0 0 0-2.44 2.222c-3.34 3.333-3.78 8.667-1.34 12.222 2 3.111 6.67 5.556 11.34 3.778 1.77-.667 3.55-1.778 5.11-2.889 3.55-2.444 7.11-4.889 10.66-7.111 17.12-10.222 33.34-22 50.89-31.111.23 0 .23-.444.23-.667 0 0-.23-.222-.45-.222-2.89-.222-5.78 0-9.55 0-4 .222-8.67.667-13.34 1.333-2.66.445-5.55 1.112-8 1.778-15.55 4.445-29.78 11.778-43.11 20.667Zm-17.33-5.778c1.33 2.667 3.78 3.778 6.89 3.778 2.44 0 4.44-1.333 6.44-2.667 8-5.481 16-10.889 24-16.222 1.78-1.333 3.56-2.222 5.33-3.333a721.46 721.46 0 0 1-6.44-.889c-11.11 0-21.33 2.666-31.11 7.778-1.56.888-3.11 2-4.22 3.333-2 2.444-2.45 5.333-.89 8.222Zm226.44 108.222c14.23-1.555 28.45-4.222 42.45-8.444 15.33-4.889 29.55-12.222 41.33-23.334 5.56-5.333 10.22-11.333 13.56-18.444 3.55-8.222 3.78-16.667 0-24.889-3.56-8-8.89-14.889-15.11-20.889-7.34-7.333-16.23-12.444-26-16.222-10-4-20.67-6.222-31.34-8-11.11-2-22.66-2.889-34-3.778-9.11-.889-18.44-.889-27.78-1.111-19.11-.666-38.22.667-56.88 4.445-23.34 4.666-46.23 11.555-67.78 22-18.67 8.889-34.89 20.889-48 36.666-6 7.334-11.34 15.111-15.56 23.778-2.22 4.667-3.55 9.556-3.78 14.667-.22 6 2.23 10.444 7.34 13.111 3.55 1.777 7.33 3.333 11.11 4.666 12.66 4 25.55 6.445 38.66 8.223 6.89 1.111 13.78 2 20.67 2.222 11.11.444 22.45.444 33.78.666 5.11 0 10.22.223 15.33.223 8.23 0 16.45-.445 24.67-.667v.444l32.89-1.333c2 0 4 0 5.78-.222 12.89-1.111 25.77-2.222 38.66-3.778Zm-234-81.333c4.22-1.111 7.78-3.333 10.45-6.444 1.77-2.223 3.11-4.667 1.77-7.556-1.33-2.889-4-3.111-6.44-3.111-5.33-.222-9.11 2-12.22 5.555-1.78 2.223-2.45 4.741-2 7.556.66 2.667 2.22 4.222 5.33 4.444 1.11 0 2.22 0 3.11-.444Zm184.67 518.221c-.67-3.555-3.11-5.555-6.44-6.222-3.12-.445-6.67 1.556-8.23 4.667-.44.889-.81 1.777-1.11 2.666-.22 1.334-.44 2.667-.89 4-1.33 5.334-2.89 10.445-5.77 15.334-4.89 8.666-12 14.222-22 15.777-3.78.445-7.56.889-11.34.667-8.44-.444-17.11-1.556-25.55-2.222a27.11 27.11 0 0 0-3.34-.222c-.22-.223-.44.222-.44.222-.22.222 0 .444 0 .444.59.593 1.26 1.111 2 1.556 6.67 4.889 14.22 8.222 21.78 11.111 5.55 2 11.33 2.889 18 3.111 1.11-.222 3.33-.222 5.33-.445 11.56-1.999 20.44-8.222 27.33-17.555 5.78-8.222 9.11-17.556 11.11-27.111.23-2 0-4-.44-5.778Zm-42.22 23.333c.66.889 1.78 1.334 2 1.556 3.55.222 6.66-2.222 7.33-4.889.45-1.778-.67-4-2.44-4.667-1.78-.666-3.78.223-4.45 2-.44 1.334-1.11 2.223-2 3.112-.89.888-1.11 2-.44 2.888Zm30.89-34.888c3.77-.445 8-5.334 8-8.889 0-3.556-3.34-5.556-6.89-4.222-2.89 1.111-4.89 3.333-6 6-1.56 3.555 1.33 7.555 4.89 7.111Zm26.22-25.778c-2.67 0-5.11 1.111-7.11 2.889-6.45 4.889-9.78 11.555-10.45 19.555 0 2.667.67 5.111 3.34 6.667 2.66 1.333 5.33 1.333 7.77 0 1.12-.889 2.23-1.778 3.34-2.667 3.78-4.444 6.89-9.333 9.11-14.666.59-1.185 1.04-2.371 1.33-3.556.89-4.889-2.44-8.444-7.33-8.222Zm-184.45-485.777c-2 0-4.44 2.222-4.44 4.445-.22 2 1.33 3.777 3.33 3.777 2.22.223 4.45-2 4.67-4.444 0-2-1.33-3.556-3.56-3.778Zm206.23 487.999c0-2.444-1.56-3.778-4.23-4-3.11-.222-5.33 1.333-5.33 3.778 0 2.667 1.78 4.667 4.22 4.889 2.89 0 5.34-2 5.34-4.667Zm7.11-10.444c.22-.889-.89-1.778-1.78-1.778-1.11 0-1.78.889-1.78 2s.89 1.778 1.78 1.778c1.19-.148 1.78-.815 1.78-2Zm457.33-256.889c0 1.111.89 2.223 2 2 2.23 0 3.78-3.333 2.45-5.333-.22-.667-1.11-1.111-1.78-1.111-.67 0-1.55.667-2 1.333-.44.889-.44 2-.67 3.111Zm-1.11 27.778c0 5.556.67 6.889 3.56 9.556 1.78 1.333 3.33 1.333 5.11.666 1.11-.444 2.22-1.333 3.11-2.222 5.78-6 6.89-13.333 5.33-21.111-1.11-5.111-6.88-6.444-10.66-2.889-.89.889-1.78 2-2.45 2.889-2.66 4.444-3.77 9.111-4 13.111Zm15.78 96.667c-.22-1.112-.22-2.445-.67-3.778-1.55-6-8.22-7.778-12.66-3.556-1.34 1.111-2.45 2.445-3.34 3.778-1.33 2.444-2.88 4.889-4 7.333-4.66 9.334-9.11 18.667-13.55 28.222-.67 1.334-1.34 3.112-2.67 4-3.33 3.112-5.78 6.667-8 10.667-2.44 4.889-5.33 9.778-7.78 14.667-9.33 19.555-20.89 37.555-33.11 55.333-14.96 21.333-33.11 39.555-54.44 54.667a310.035 310.035 0 0 1-26.67 16.888c-1.55.889-3.33 1.778-4.44 3.112-2.89 2.888-2.67 7.111.66 9.777.89.889 2.23 1.556 3.56 1.778 4.89 1.333 9.78.889 14.44-.889 9.56-3.555 18.67-8.222 27.56-13.333 15.55-9.334 29.11-20.667 40.44-35.111 7.78-10 16-19.778 24-29.778 5.34-6.444 10.45-12.889 14.67-20.222 12.45-20.445 23.33-42 33.33-63.778 3.78-8 7.12-16 9.56-24.444 1.33-4.889 2.67-9.778 3.11-15.333Zm-44.44 12.888c0 .445.66 1.112.88 1.556.45 0 .45 0 .67-.222 1.56-.445 3.56-4.223 2.89-5.778-.22-.445-1.11-1.111-1.55-1.111-.45 0-1.34.444-1.56.889-.59 1.629-1.04 3.185-1.33 4.666Zm-11.34 9.556c.67.667 1.78 1.111 2.67 1.111 3.78.667 6.67-2 6.22-6 0-2.963-1.04-4.741-3.11-5.333-2.22-.889-4.67.222-6 2.222-1.11 1.778-1.11 6.444.22 8Zm8 3.333c-1.33 0-2.66 1.334-2.66 2.667-.23.889.88 2 2 2 1.33 0 2.22-.889 2.44-2.222 0-1.111-.89-2.445-1.78-2.445Zm-88.22 124.889c.22 1.111 1.11 2 2 1.778.44-.223.89-1.111 1.56-1.778-.67-.667-1.12-1.333-1.78-1.556-1.11-.222-1.78.667-1.78 1.556Zm-13.11 9.555c.67 1.112 1.78 2 2.44 2.667 2 0 4.89-2 5.56-3.555.89-2-.45-4-2.67-3.556-1.55.222-2.89.889-4.22 1.556-.89.666-1.78 1.777-1.11 2.888Zm-63.33 24c-4.23.889-6.45 4.667-6 8.667.66 3.778 4.44 6.667 8.88 6.667.23-.223 1.12-.223 1.78-.445 7.34-2 14.89-4 22.22-6.222 8.23-2.667 14.89-7.556 20.89-13.333.3-.297.6-.593.89-.889-.29.148-.66.222-1.11.222-2.22.445-4.67.889-6.89 1.111-9.78.667-19.33 1.556-29.11 2.445-3.78.444-7.78.666-11.55 1.777Zm-7.12-6.222c-.22 1.556 1.12 2.889 2.89 2.889 1.78.222 3.78-1.556 3.56-3.333 0-1.778-1.11-3.111-2.67-3.111-2 0-3.78 1.777-3.78 3.555Zm-19.11 16.445c1.34 2.888 4.22 4.222 7.34 3.333 4.44-1.111 7.77-3.778 10.44-7.111 2.45-3.111.67-6.667-3.11-7.556-.67-.222-1.11-.222-1.56-.222-4.22.444-8 1.556-11.11 4.222-2.66 2.222-3.33 4.889-2 7.334Zm-22.89 8.666c-.89-.889-1.77-.889-2.89-.222-.44.444-1.11.889-1.33 1.556-.22.666-.67 1.555-.22 2.222.22.444 1.11.666 2 1.111.89-.445 1.78-.667 2.44-1.333 1.11-.889.89-2.445 0-3.334Zm14.45 2.445c0-2.667-1.56-4.223-4-4.445-3.56 0-6.89 2.889-7.34 6.222-.22 2.889 1.56 4.889 4.45 4.889 3.55 0 6.89-3.111 6.89-6.666Zm65.55-2.667c-.44-.222-.88-.667-1.33-.889-1.11-.222-2.22-.444-3.33-.444-2.45 0-4.89 0-7.56-.223-2.96.149-6 .371-9.11.667-7.11.445-14.15.889-21.11 1.333-4 .445-8.22.445-12.22.889-3.78.223-6.45 2.889-6.45 6.223-.22 3.333 2.45 6 6.67 6.666h3.33c1.56 0 3.11-.222 4.45-.444 6.66-1.334 13.55-2.222 20-4 6.22-1.556 12.22-3.556 18.44-5.556 2.45-.889 4.89-2 7.11-3.111.45-.222.67-.667 1.11-1.111Zm142.67-181.777v.222c.15-.296.22-.519.22-.667 0 .148-.07.296-.22.445Zm40.89-58c-1.78-1.556-3.55-1.556-5.55-.667-1.34.445-1.56.222-1.34-1.111 1.11-4 2.45-8.222 3.56-12.222.89-4.297 1.7-8.519 2.44-12.667.67-4.444-2-8.667-5.78-10-4.44-1.111-8.66.667-10.66 4.667-.67 1.333-1.11 2.889-1.34 4.222-.66 4.444-1.11 8.667-1.33 12.889-.89 10.889-3.33 21.333-6.89 31.555-4.15 11.26-8.15 22.519-12 33.778-.67 2.222-1.11 4.445-1.55 6.667.44-.445.88-.889 1.11-1.556 3.11-5.111 6-10.222 9.11-15.333 6.44-10.445 13.78-20.445 19.11-31.778.15-.148.22-.222.22-.222.3-.148.52-.37.67-.667.22.445.44.667.44.889l.45 9.333c0 .593.29.815.89.667 4.44-1.333 10-8.222 10.44-12.667.22-2.222-.22-4.222-2-5.777Zm2-49.778c-.44-1.333-1.55-2-2.89-1.778-1.33 0-2.44 1.111-2.66 2.667-.23.667-.23 1.333-.23 2 0 .889 0 2 .23 2.889.44 1.555 1.77 2.666 3.33 2.666 1.33-.222 2.44-1.111 2.67-2.666 0-2 0-4-.45-5.778Z" fill="#13D7B7"/><path d="M1867.68 354.306c0-3.333 0-7.333-.22-11.778v-9.555c0 6 0 11.777.22 17.555l.44 23.111.45 23.334.66 23.333-.22-12.889c-.22-17.778-.44-26.222-.66-36-.23-4.889-.45-10.222-.67-17.111Z" fill="#13D7B7"/><path d="M147.446 765.195c-12.445 14-26.889 25.778-42.445 36-7.778 5.334-16 10-24.223 14.222-8.444 4.223-16.888 8-25.777 11.112-17.778 6.222-36.223 10.222-55.112 10.666-18.667.445-37.556-2.666-54.889-9.333 18 4 36.445 5.778 54.667 4.222l6.667-.667c2.444-.444 4.666-.666 6.889-.889a141.312 141.312 0 0 0 13.333-2.666c8.889-1.778 17.778-4.222 26.222-7.556 17.112-6 33.778-14 49.556-23.333 15.556-9.333 30.889-19.778 45.112-31.778Z" fill="#fff"/><path d="M-49.444 812.31c8.889 2 18 2.666 27.11 2.444 9.112-.444 18.223-1.778 26.89-4.889 8.445-3.111 16.222-8 22.667-14.444a63.912 63.912 0 0 0 8.222-10.667c2.222-4 4.667-7.778 6.667-12 4.222-8 8-16.222 11.778-24.666 3.555-8.223 7.555-16.667 12.444-24.445 1.333-1.777 2.667-3.777 4-5.555 1.334-2 2.889-3.778 4.445-5.556 2.889-3.555 6.222-6.666 9.555-10 6.445-6.444 13.556-12.666 21.334-17.778 14.889-9.777 29.555-20.222 40.889-34.444a136.787 136.787 0 0 0 14.444-22.889c4-8.222 7.334-16.666 10.223-25.111l4.444-13.111a77.796 77.796 0 0 1 5.556-12.444c4.444-8 10-15.556 17.111-21.556 3.333-2.889 7.111-5.555 11.333-7.333 4.222-2 8.667-3.111 13.334-3.111 4.444-.222 9.111.889 13.333 2.666 4 2 7.778 4.667 11.111 7.778-3.333-3.111-7.111-5.778-11.111-7.555-4.222-2-8.889-2.889-13.333-2.667-4.667 0-9.112 1.333-13.112 3.111-4.222 2-7.777 4.667-11.333 7.556-6.667 6.222-12 13.555-16.222 21.555-4.445 8-6.445 16.889-9.334 25.556-2.889 8.666-6 17.333-10 25.555-3.777 8.445-8.666 16.222-14 23.778-10.889 14.889-24.222 28.222-40 38.222a44.25 44.25 0 0 1-5.556 3.556c-1.037.592-2 1.185-2.888 1.777l-2.89 1.778a128.257 128.257 0 0 0-5.777 3.778 62.372 62.372 0 0 0-5.334 4c-6.888 5.778-12.888 12.444-18 20-4.889 7.333-8.889 15.555-12.889 23.778-3.777 8.222-7.778 16.666-12.222 24.666-2 4-4.444 7.778-6.889 11.778a66.58 66.58 0 0 1-8.667 10.667c-6.444 6.444-14.666 11.333-23.333 14.222-8.667 2.889-17.778 4.444-26.89 4.666a111.147 111.147 0 0 1-27.11-2.666Z" fill="#fff"/><path d="M207.446 549.199c-10.223 7.556-19.112 16.222-26.667 26.222-3.852 4.889-7.408 10-10.667 15.334a295.025 295.025 0 0 0-9.333 16.444c-3.111 5.333-5.778 11.111-9.778 16.667-4.222 5.333-9.556 9.778-15.778 12.666-6.222 2.667-12.889 4-19.333 4-6.445 0-12.889-.888-19.112-2.444 6.445.222 12.667.222 18.889-.667 6.223-.889 12-2.666 17.334-5.555 2.444-1.556 4.889-3.111 7.111-5.111 2.222-2.074 4.148-4.297 5.778-6.667 3.333-4.667 6.222-10.444 9.111-16 6.222-11.333 13.111-22.444 21.778-32 8.444-9.555 19.111-17.778 30.667-22.889Z" fill="#fff"/><path d="M299.892 542.976c-12-8.889-26.222-14.667-40.889-16.445-14.445-1.778-29.334.889-42.667 6.889-6.667 3.111-12.667 7.111-19.111 11.111-6.223 4-12.445 8-19.112 11.778-12.889 7.555-26.444 14.667-41.111 19.111-14.667 4.444-30.667 5.111-45.556 1.333-7.333-1.777-14.666-4.444-21.333-7.777-3.556-1.556-6.667-3.778-10-5.556l-4.667-3.111a86.894 86.894 0 0 1-4.444-3.333c-12-9.112-22.445-20-31.778-31.778-9.334-11.556-17.778-24-25.556-36.667 8 12.667 16.445 24.889 26.222 36.222 9.556 11.334 20.223 22 32.223 30.667a40.48 40.48 0 0 0 4.444 3.111l4.89 3.111c3.11 1.556 6.221 3.556 9.777 4.889 1.555.889 3.333 1.778 5.111 2.222l5.111 1.778c1.778.667 3.556.889 5.334 1.333 1.777.667 3.555.889 5.333 1.112 7.333 1.111 14.667 1.333 21.778.444a146.879 146.879 0 0 0 21.333-4.222c14-4 27.334-10.445 40.223-17.778 6.444-3.556 12.667-7.555 19.111-11.333 3.333-2 6.444-4 9.778-5.778 1.555-.889 3.333-1.778 5.111-2.667 1.556-.889 3.333-1.555 5.111-2.222 14.222-6 30-8 44.889-5.555 7.556 1.333 14.667 3.777 21.556 6.888 6.889 3.111 13.333 7.334 18.889 12.223Z" fill="#fff"/><path d="M82.558 544.753c4.666 3.333 9.777 6 14.889 8.222 5.111 2.222 10.666 3.555 16 4.666 5.555 1.112 11.111 1.556 16.666 1.556 5.556 0 11.112-.222 16.445-1.333a101.475 101.475 0 0 0 16.445-3.556c5.333-1.555 10.666-3.555 16-5.555 10.444-4.223 20.666-9.334 30.889-14.667-8.667 7.555-18.445 14.222-28.889 19.333-10.445 5.111-21.556 9.111-33.334 10.889-11.778 2-23.778 1.556-35.333-1.555-5.778-1.778-11.112-4-16.223-6.889-5.11-3.111-9.778-6.667-13.555-11.111ZM77 514.758c-11.555-8.222-20.889-18.889-29.555-30-2-2.889-4.223-5.778-6.223-8.667l-5.777-8.888c-3.556-6.223-7.112-12.445-10-18.889-3.334-6.222-5.778-12.889-8.445-19.334-1.333-3.333-2.444-6.888-3.556-10.222-1.11-3.333-2.444-6.666-3.333-10-3.778-13.777-6.889-27.555-8.889-41.555-.667-7.111-1.778-14.222-2.444-21.111l-1.111-10.445-.445-5.111-.889-5.333c-.889-6.889-1.778-13.778-2.889-20.667l-1.777-10.222-2.223-10.222c-2.889-13.556-6.444-27.111-11.11-40.222-2.445-6.667-5.112-13.111-8.223-19.334l-2.667-4.444c-.889-1.556-1.555-3.111-2.666-4.667-1.778-2.889-4-5.777-6.445-8.222 5.556 4.667 9.556 10.445 13.111 16.445 3.778 6.222 6.89 12.444 9.778 18.888 5.556 13.111 9.778 26.667 13.333 40.223L-3 293.203l2 10.444c1.555 6.889 2.444 13.778 3.555 20.889l.89 5.111.444 5.334 1.333 10.444C5.89 352.536 7 359.203 7.89 366.314c3.778 27.333 10.889 54.444 22.222 80l2 4.666 1.111 2.445 1.111 2.222 4.89 9.333 5.11 9.111c1.778 2.889 3.778 5.778 5.778 8.667 3.778 6 8 11.556 12.223 16.889C67 504.98 71.667 510.091 77 514.758ZM-41.667 301.645c5.556 12.888 9.333 26.444 12.667 39.999 1.555 6.667 2.889 13.556 4.222 20.445 1.333 6.667 2.444 13.555 3.333 20.444 1.111 6.889 2 13.778 3.334 20.445.444 3.333 1.333 6.666 2 10l1.11 5.111a58.134 58.134 0 0 0 1.112 4.889 214.607 214.607 0 0 0 6.222 19.555c2.445 6.445 5.111 12.889 9.111 18.667-5.11-4.889-8.666-11.111-12-17.334-3.11-6.222-6-12.666-8.222-19.333-4.444-13.333-7.111-27.333-9.111-41.111a969.052 969.052 0 0 0-2.889-20.444c-1.111-6.889-2.222-13.556-3.333-20.445-2.223-13.555-4.445-27.111-7.556-40.888Z" fill="#fff"/><path d="M-49.444 255.867c4.889 3.111 9.11 7.111 12.889 11.334 4 4.222 7.555 8.666 10.889 13.333 3.333 4.666 6.222 9.555 9.11 14.666 1.556 2.445 2.667 5.112 3.779 7.778 1.333 2.445 2.666 5.111 3.777 7.778 4.445 10.444 7.778 21.556 10.445 32.667 1.333 5.555 2.222 11.333 3.111 16.888.667 5.556 1.333 11.334 1.556 16.889-1.778-5.333-3.112-10.889-4.667-16.222L-1 352.756c-.889-2.667-1.555-5.333-2.444-8-2-5.333-3.333-10.667-5.556-15.778-1.11-2.666-1.777-5.333-2.889-8l-3.333-7.778c-.889-2.444-2.222-5.111-3.333-7.555a86.741 86.741 0 0 0-3.556-7.556c-2.444-5.111-5.111-10-7.778-14.889-2.889-4.666-5.777-9.555-9.11-14-3.112-4.666-6.667-9.111-10.445-13.333ZM85.89 421.871c-2-14.222-4-28.667-6.667-42.889A1278.76 1278.76 0 0 0 71 336.315c-2.889-14.222-6-28.222-9.778-42.222-3.555-14-7.333-28-11.777-41.777a443.568 443.568 0 0 0-14.667-40.667c-5.333-13.333-11.556-26.444-18.667-38.889-6.889-12.444-14.889-24.444-24.444-35.333-9.334-10.889-20.445-20.444-33.334-27.333 13.556 5.555 25.334 14.889 35.778 25.111C4.333 145.649 13 157.649 20.556 170.094c15.333 25.111 26.222 52.444 35.11 80.222 8.89 28 15.556 56.222 20.445 85.111 5.112 28.666 8.445 57.555 9.778 86.444ZM69.445 269.641c7.778 14.666 13.778 30 18.89 45.555C91 322.974 93 330.974 95.222 338.974c2 8 4 16 5.556 24l1.111 6 1.111 6.222c.667 4 1.333 8 1.778 12 .889 8.222 2.222 16.444 2.667 24.667 1.333 16.444 1.111 32.888 0 49.333-1.556-16.445-2.889-32.667-5.112-48.889a648.37 648.37 0 0 0-8-48c-3.11-16-6.889-31.778-10.889-47.555-4.222-15.778-8.666-31.556-14-47.111ZM311.224 555.195c10.222 4.445 19.778 10.667 28.444 17.556 8.889 6.889 16.667 14.889 23.556 23.778a127.764 127.764 0 0 1 9.333 14 97.064 97.064 0 0 1 7.334 15.333c2 5.111 3.777 10.444 5.778 16 .888 2.666 1.777 5.333 2.444 8.222a77.529 77.529 0 0 1 1.778 8c.889 5.556 2 10.889 3.111 16.444 1.333 5.334 2.444 10.667 3.778 16 1.333 5.556 2.889 10.667 4.444 16 1.778 5.334 3.333 10.667 5.333 15.778 3.778 10.445 8.223 20.445 13.778 30l2.223 3.556 2.222 3.555a72.19 72.19 0 0 0 5.111 6.445c3.556 4.222 7.556 8 12.667 10.888-5.334-2.222-9.778-6-13.778-9.777-1.778-2.223-3.778-4-5.556-6.445l-2.666-3.333-2.445-3.333c-6.222-9.334-11.333-19.556-15.778-30-4.444-10.223-8-20.889-11.111-31.778-1.555-5.333-2.889-10.889-4.222-16.222-1.334-5.556-2.667-11.111-3.556-16.667a49.984 49.984 0 0 1-1.111-8.222c-.444-2.667-.444-5.556-.889-8.222a64.926 64.926 0 0 0-4-16c-1.778-5.334-4-10.222-6.666-15.111a98.549 98.549 0 0 0-8.667-14.223c-6.445-9.111-14.222-17.111-22.667-24.222-8.667-7.111-18-13.333-28.222-18Z" fill="#fff"/><path d="M473.004 769.199c-4.666-1.111-9.111-3.333-13.333-5.555-4.222-2.444-8.222-5.111-12-8.222-2-1.334-3.778-2.889-5.556-4.667-2-1.556-3.555-3.333-5.333-4.889l-2.667-2.666-2.222-2.667c-1.556-2-3.333-3.556-4.889-5.556l-4.222-5.777c-1.556-2-2.667-4.223-4-6.223-2.667-4-4.889-8.222-7.111-12.444-2.223-4.445-4.001-8.889-5.778-13.333a248.323 248.323 0 0 1-4.445-13.778c2.667 4.222 4.889 8.222 7.334 12.444l3.555 6c1.334 2 2.445 4.222 3.778 6 2.667 4 4.889 8 7.778 11.778 2.667 3.778 5.555 7.556 8.444 11.333 1.334 1.778 2.889 3.556 4.223 5.334l2.444 2.666 2.222 2.667c3.111 3.555 6.445 6.667 9.778 10 6.667 6.444 14 12.444 22 17.555ZM442.558 628.976c-3.333-11.555-6.222-23.111-9.111-34.666-2.889-11.334-5.555-22.889-8.889-34.222a147.266 147.266 0 0 0-2.444-8.667c-.667-2.889-1.556-5.333-2.667-8-1.111-2.444-2.444-4.889-4-7.111a26.697 26.697 0 0 0-5.778-5.778c-4.222-3.333-9.555-5.555-15.333-6.222-5.556-.889-11.556-.667-17.556.444 5.556-2.444 11.778-3.777 17.778-3.777 6.222.222 12.667 1.777 18.222 5.333a32.79 32.79 0 0 1 7.112 6.444c2 2.445 3.777 5.334 5.111 8 1.555 2.889 2.444 6 3.333 8.889a629.628 629.628 0 0 1 2.667 8.667 737.781 737.781 0 0 1 4.222 17.333c1.111 6 2.445 11.778 3.333 17.778 2 11.778 3.334 23.555 4 35.555ZM437.225 562.316c3.333 12.445 6.222 25.111 9.111 37.556l4.222 18.666a858.11 858.11 0 0 0 4.667 18.667c1.555 6.222 3.111 12.222 5.333 18.222.445 1.556.889 2.889 1.556 4.223.444.666.666 1.333.889 2l1.333 1.777c.296.593.667 1.185 1.111 1.778l1.556 1.778c.444.444.888 1.111 1.333 1.778l1.555 1.333c4.445 4 10.001 7.111 15.778 9.333 6 2 12.223 3.334 18.667 4-6.444.889-12.889.445-19.556-.889-6.222-1.555-12.666-4.222-18-8.444-5.555-4-9.777-10.222-12.222-16.444-2.444-6.223-4-12.445-5.778-18.889a420.368 420.368 0 0 1-7.555-38c-1.778-12.667-3.334-25.556-4-38.445ZM331.447 881.863c6.223 6.222 12.667 12.222 19.556 17.778a281.076 281.076 0 0 0 21.333 15.556c7.334 4.666 14.889 9.333 22.667 13.333 7.704 4 15.63 7.555 23.778 10.667 16.222 6.222 33.334 10.222 50.667 12.444 17.556 2 35.111 1.778 52.889.222-17.333 4.445-35.333 6-53.333 4.889-8.889-.667-17.778-2-26.667-3.778a224.063 224.063 0 0 1-25.778-7.778c-8.445-3.333-16.667-6.888-24.667-11.333-7.778-4.444-15.333-9.111-22.445-14.444-7.333-5.334-14.222-11.111-20.444-17.556-6.445-6.222-12.445-12.666-17.556-20ZM376.779 703.422c3.556 3.555 6.445 7.555 9.111 11.555a124.146 124.146 0 0 1 7.556 12.667c4.667 8.667 8.445 17.778 12 26.889 3.556 9.111 6.222 18.444 9.111 28 .667 2.222 1.334 4.444 2.223 6.666l.888 3.334.667 1.778.667 1.555 2.889 6.445.666 1.555.889 1.556 1.778 3.111c2.222 4.222 5.111 7.778 7.778 11.778 3.333 3.333 6.222 7.111 9.778 10 7.111 6.222 14.889 11.555 23.555 15.555 17.334 8 36.445 11.778 56.001 12.889-19.556 1.778-39.556-.667-58.001-8.222-9.333-3.556-18-9.111-25.555-15.556-4-3.111-7.334-7.111-10.667-10.667-2.889-3.999-6.222-8-8.445-12.444l-2-3.333-.888-1.556-.667-1.778-3.111-6.888-.667-1.778-.667-1.778-1.111-3.556c-.666-2.444-1.555-4.888-2-7.111a496.084 496.084 0 0 0-8-28c-2.889-9.111-6.222-18.222-10-27.111-1.778-4.444-4-8.888-6.222-13.111-2.222-4.222-4.445-8.444-7.556-12.444Z" fill="#fff"/><path d="M442.56 800.09c5.111 7.111 11.777 13.111 18.666 18.222 7.334 5.333 14.889 9.556 23.112 13.111 8 3.333 16.444 6 25.111 8 8.444 2 17.333 3.111 26 3.778 8.667.667 17.556.444 26.222.222 8.889-.667 17.556-1.333 26.223-2.889 2.222-.296 4.444-.666 6.666-1.111a95.54 95.54 0 0 0 6.223-1.555c4.444-.889 8.666-2.223 12.666-3.556 4.223-1.333 8.445-2.667 12.667-4.222l6.222-2 6.223-1.778c8.666-2.222 17.111-4.667 25.555-6.889 8.667-2.222 17.112-4.444 25.778-6.444 17.112-4 34.667-7.556 52.223-9.556 17.556-2 35.778-2.666 53.111 1.111 4.445.889 8.667 2.223 12.889 3.556 4.222 1.333 8.445 2.666 12.667 4.222 8.222 3.111 16.222 6.444 24.445 9.778l-12.445-4a315.335 315.335 0 0 0-12.667-4.222c-4-1.334-8.444-2.445-12.444-3.778-4.445-.889-8.667-2-12.889-2.667-17.111-3.111-34.889-1.778-52.001.667-8.666 1.111-17.333 3.111-25.777 4.666-8.667 2-17.112 3.778-25.778 6a80262.67 80262.67 0 0 1-12.667 3.334l-12.667 3.333c-8.667 2.222-16.889 4.889-25.556 7.111l-6.222 1.778-6.444 1.556c-4.445.888-8.889 1.777-13.111 2.444l-6.667.889c-2.222.444-4.445.667-6.667.889-2.074.296-4.222.666-6.444 1.111l-6.667.889c-8.667 1.333-17.556 2-26.222 2.444-8.889.222-17.778.445-26.445-.444-8.889-.667-17.556-2-26.222-4-8.667-2.222-17.112-4.889-25.112-8.445-8-3.555-15.777-8-22.889-13.111-6.889-5.333-13.555-11.333-18.666-18.444Z" fill="#fff"/><path d="M879.45 792.086c-1.555-2.222-3.555-4-5.555-5.333a36.911 36.911 0 0 0-6.667-3.778c-4.889-2.222-9.778-3.333-14.889-4.222a88.052 88.052 0 0 0-15.334-1.333 68.152 68.152 0 0 0-7.777 0c-2.667 0-5.112.222-7.778.444-20.667 1.556-41.112 5.778-61.334 11.333-4.889 1.112-10 2.667-14.889 4-5.111 1.556-10 3.112-15.111 4.667-4.889 1.556-10 3.111-14.889 4.667l-14.889 5.111c-19.778 6.889-39.334 14.222-59.111 21.333a667.567 667.567 0 0 1 57.333-26.222c9.778-4 19.778-7.333 29.556-10.889 10.222-3.333 20.222-6.444 30.445-9.111 5.111-1.333 10.222-2.667 15.333-3.778 5.111-1.111 10.445-2 15.556-3.111 10.444-1.555 21.111-2.889 31.778-3.111 10.666-.222 21.333.222 31.778 2.889 5.111 1.333 10.222 3.111 14.889 5.555 4.666 2.667 9.111 6.223 11.555 10.889ZM691.005 836.981c9.778-5.556 21.111-7.556 32.222-8.667 11.111-.889 22.445-.222 33.556 1.555 2.889.445 5.556.667 8.445 1.334l8.222 1.778 8 2c2.666.888 5.555 1.555 8.222 2.444l15.778 5.333 7.778 2.667c2.666.889 5.333 1.556 8 2.222 5.111 1.778 10.444 2.889 15.778 4 2.666.667 5.333 1.111 8 1.556l4 .666 4 .667c2.889.222 5.555.667 8.222.889l8.222.444h8c2.889 0 5.556-.444 8.223-.666 10.889-.889 21.555-3.111 32-6.445 10.667-3.111 20.889-7.555 31.111-11.777-9.778 5.555-19.556 10.666-30 14.888-10.445 4-21.334 7.112-32.667 8.445-11.111 1.555-22.445 1.555-33.778.222a171.465 171.465 0 0 1-33.111-6.667c-2.667-.666-5.334-1.333-8-2.222l-8-2.889-15.556-5.555c-2.444-.889-5.111-1.556-7.778-2.445-2.666-.666-5.333-1.555-8-2.222-5.333-1.333-10.444-2.667-16-3.555-10.667-2.223-21.556-3.556-32.667-3.334-10.889 0-22 1.111-32.222 5.334ZM966.562 822.086c4.444-5.334 8-11.334 10.444-17.334 2.444-6.222 3.556-12.666 3.111-19.111 0-3.333-.667-6.444-1.333-9.555a71.099 71.099 0 0 0-2.889-9.556c-2.445-6.222-5.778-12.222-9.333-18.444 5.555 4.444 10.222 10 13.777 16.222 2 3.111 3.334 6.445 4.445 10 1.111 3.556 1.778 7.333 2 11.111.222 7.333-1.556 15.111-5.111 21.333-3.556 6.445-8.889 12-15.111 15.334Z" fill="#fff"/><path d="M879.448 826.308c6.667 1.778 13.556 2.222 20.223 2 6.889-.444 13.555-2 19.778-4.889 12.444-5.777 21.333-16.889 26.666-29.111 5.334-12.444 9.556-26.222 5.111-38.666-2.222-6.223-6-11.778-10.444-16.667-4.667-4.889-9.778-9.111-15.111-13.333-10.889-8.445-22.223-16.222-32.667-25.556-10.445-9.111-20.222-20-26.889-32.444l-2.222-4.889c-.889-1.556-1.334-3.333-2-4.889-1.556-3.333-2.223-6.889-3.334-10.222-.444-1.778-.889-3.556-1.111-5.111-.444-1.778-.889-3.556-.889-5.334-.444-3.555-1.111-7.111-1.111-10.666-.444-14 1.556-28 4.889-41.778 6.667-27.111 19.778-52.666 38-74 9.111-10.666 19.334-20.222 30.223-28.666 5.555-4.445 11.333-8.445 17.111-12.222 6-3.556 12-7.112 18.222-10.223 12.445-6.222 25.556-11.333 38.887-14.666 6.89-1.778 13.78-3.111 20.67-3.778 3.55-.222 7.11-.222 10.67 0 1.77.222 3.55.667 5.33.889 1.55.444 3.33.666 5.11 1.111l5.11 1.778 4.67 2.222c.89.296 1.7.741 2.44 1.333l2.22 1.334c1.56.888 2.89 2.222 4.23 3.333 5.33 4.667 9.33 10.889 10.89 17.778 1.77 6.888.88 14.222-1.78 20.444-2.89 6.444-7.34 12-12.22 16.667 4.66-4.889 8.88-10.667 11.11-16.889 2.44-6.445 3.11-13.334 1.33-19.778-1.78-6.444-5.78-12.222-10.89-16.444-1.33-.889-2.67-2-4.22-2.889l-2-1.334c-.74-.444-1.48-.814-2.22-1.111l-4.67-1.777-4.89-1.556c-12.89-3.556-26.67-.889-39.78 2.667-13.108 3.555-25.552 8.889-37.552 15.333-12.223 6.222-23.556 13.778-34.223 22.222-10.444 8.445-20.444 17.778-29.111 28.222-17.333 20.889-30 45.334-36.445 71.556-3.111 13.333-5.111 26.666-4.666 40 0 3.333.666 6.666.889 10 .222 1.777.444 3.333.888 4.888.223 1.556.667 3.334.889 4.889 1.111 3.111 1.778 6.445 3.111 9.556.667 1.555 1.112 3.111 1.778 4.667l2.222 4.444c6.223 11.778 15.112 22 25.112 31.111 10 9.111 21.111 17.111 32 25.778 5.333 4.444 10.667 9.111 15.333 14.444 4.667 5.111 8.667 11.333 10.889 18.222 2.223 6.889 2.445 14.445.889 21.334-.667 3.555-1.778 6.889-2.889 10.222l-1.778 4.889-2.222 4.889c-2.889 6.222-6.889 12.222-11.778 17.333-2.444 2.444-5.111 4.889-8 6.889-2.889 2-5.777 3.778-9.111 5.111-12.889 5.555-27.556 5.333-40.667 1.333Z" fill="#fff"/><path d="M1050.56 569.641c3.11-7.778 6.89-15.111 10.89-22.223 4-7.111 8.45-14.222 13.34-20.888 1.18-1.63 2.44-3.26 3.77-4.889 1.34-1.556 2.45-3.334 3.78-4.889 2.67-3.111 5.33-6.222 8.45-9.111 5.55-6.222 12-11.556 18.66-16.445 6.89-4.889 14-8.889 20.89-13.333 6.89-4.222 13.56-8.889 19.56-14.222 6-5.334 11.11-11.556 13.55-18.889 2.45-7.333 1.56-15.333-.89-22.889-1.11-3.778-2.66-7.555-4.44-11.111-1.78-3.556-3.78-7.111-6-10.444-4.22-6.667-9.56-12.667-16.45-16.667-3.25-1.926-6.81-3.407-10.66-4.444-3.78-1.112-7.78-1.778-11.78-2-8-.223-16 .666-24 2.222-8 1.333-16 3.333-24.22 4.889-8 1.555-16.45 2.666-24.67 2.222-8.22-.222-16.44.889-24.44 2.222-8 1.482-15.93 3.482-23.782 6-15.556 4.889-30.667 11.778-44.667 20.222-14 8.445-26.889 18.667-38.445 30.445-23.111 23.111-39.333 52.444-49.333 83.333-5.111 15.555-9.556 31.333-11.778 47.555-2.667 16-2.889 32.445 0 48.222 1.333 8 3.778 15.778 6.889 23.111 3.111 7.334 7.111 14.445 12 20.889 9.333 13.334 21.556 24.445 34.222 34.667-14-8.445-27.111-18.889-37.555-32.222-10.445-13.111-17.334-29.111-20.223-45.556-2.889-16.444-2.444-33.333.222-49.777 2.445-16.445 7.112-32.445 12.445-48 10.667-31.334 27.778-60.889 51.556-84 23.556-23.111 52.667-40.667 84.223-50.444a219.71 219.71 0 0 1 23.996-6.223c8-1.555 16.23-2.666 24.67-2.666 8.22.444 16.22-.889 24.22-2.667 8-1.778 15.78-4 24-5.556 8-1.777 16.45-2.888 24.89-2.666 8.45 0 17.11 2 24.67 6.444 7.33 4.222 13.33 10.889 18 18 2.22 3.556 4.44 7.111 6.22 10.889 2 3.778 3.56 7.556 4.89 11.556 1.33 4.222 2.22 8.444 2.22 12.888.22 4.223-.22 8.667-1.78 12.889-2.66 8.445-8.66 15.111-14.88 20.667-6.23 5.555-13.34 10.222-20.23 14.667-7.11 4.222-14.44 8.222-21.11 12.666-6.66 4.667-13.11 9.556-18.66 15.556-3.12 2.666-5.78 5.777-8.45 8.889-1.33 1.333-2.67 3.111-4 4.666a59.574 59.574 0 0 0-3.78 4.667c-10.22 12.889-18.89 26.889-26 41.778Z" fill="#fff"/><path d="M931.894 727.645c-9.334-5.333-19.112-9.111-29.112-13.111-5.111-2-10-4.444-14.889-6.666a152.98 152.98 0 0 1-14-8.445 98.356 98.356 0 0 1-12.666-10.667c-2-2-4-4-5.556-6.222a200.258 200.258 0 0 1-5.111-6.666c-6-9.111-10.445-19.334-13.111-29.778 5.333 9.555 10.666 18.666 17.333 26.889a178.78 178.78 0 0 1 5.111 5.777c1.778 2 3.778 3.556 5.556 5.556 3.778 3.333 7.778 6.667 12.222 9.556 8.445 6.222 17.778 10.888 27.334 16 9.333 4.888 19.111 10.222 26.889 17.777ZM840.339 535.418c.445-11.334 2.223-22.667 4.445-33.778 2.444-11.111 5.333-22.222 9.333-32.889 7.778-21.555 18.889-42 34.445-59.333 15.556-17.111 36-30.222 58.667-35.556 11.333-2.666 22.889-4 34.222-3.555 5.778 0 11.556.889 17.111 1.555 5.558.889 11.108 2.223 16.668 3.334l-8.45-.667c-2.88-.444-5.55-.889-8.44-.889-5.555 0-11.111-.444-16.889 0-11.111.222-22.222 2.222-32.889 5.111-10.667 2.889-20.667 7.778-30 13.778-9.111 6-17.778 13.111-25.111 21.333-7.556 8.223-14 17.111-19.556 26.667-5.778 9.556-10.667 19.778-15.111 30a324.967 324.967 0 0 0-10.889 32c-3.111 10.666-5.778 21.778-7.556 32.889ZM1013 335.204c2 2.889 4.89 4.889 8 6 3.12 1.111 6.45 1.111 9.56.666 1.56-.222 3.11-.888 4.67-1.333 1.55-.667 3.11-1.333 4.44-2.222 1.56-.889 3.11-1.556 4.45-2.445 1.33-.888 2.66-1.777 4-2.888 2.44-1.778 4.22-4.223 5.55-6.889 1.11-2.889 1.78-6 2-9.111.67-6.445.22-13.334-.22-20.223-.22-6.888-.44-14 .22-21.111.89-7.111 2.67-14.444 5.78-20.889 3.11-6.444 7.56-12.444 12.67-17.111 5.11-4.888 10.89-8.888 17.11-12-5.34 4.445-10.45 8.889-14.89 14.223-4.22 5.111-7.78 10.888-10.22 16.888-4.89 12.445-4.89 26-4.23 39.556.23 3.555.45 7.111.45 10.444 0 3.556 0 7.111-.45 10.889-.44 3.556-1.33 7.334-3.11 10.889-1.77 3.556-4.44 6.667-7.77 8.667-1.56.889-3.12 1.778-4.45 2.666a49.103 49.103 0 0 1-4.89 2.445c-1.78.667-3.55 1.111-5.33 1.778-1.78.222-3.56.889-5.34.889-3.55.222-7.55-.223-10.66-2-3.34-1.778-5.78-4.445-7.34-7.778Z" fill="#fff"/><path d="M1060.12 244.091c.89-6 3.11-11.778 5.55-17.333 2.67-5.556 5.78-10.889 9.78-15.778 3.78-5.111 8.45-9.334 13.33-13.334 5.12-3.777 10.67-6.888 16.67-9.111 6-2.222 12.22-3.555 18.45-4.222 1.55-.222 3.11-.222 4.66-.222 1.56 0 3.11-.222 4.67 0h4.67c1.55.222 3.11.444 4.66.667 12.22 1.555 24.22 5.555 34.89 11.333-11.78-3.111-23.55-5.556-35.33-6.222-11.78-.667-23.56.666-34.45 4.889-10.66 3.777-20.44 10.888-28.22 19.333-8 8.667-14.44 18.889-19.33 30ZM986.117 311.863c0-7.555-.444-14.889-1.333-22-.889-7.111-2.222-14.222-4.445-21.111-2-6.667-4.889-13.111-8.444-19.333l-2.889-4.667-3.111-4.222c-.667-.889-1.111-1.556-1.778-2.222l-1.778-2.223a105.8 105.8 0 0 1-3.555-4.222 84.719 84.719 0 0 1 4.889 2.889 20.15 20.15 0 0 0 2.222 1.556c.889.666 1.555 1.333 2.222 1.777l4.222 4c1.334 1.334 2.445 2.889 3.778 4.445 4.667 6 8.445 12.889 10.445 20.444 2.222 7.334 3.555 14.889 3.333 22.445 0 7.777-1.111 15.333-3.778 22.444ZM973.227 297.866c-1.555-14.889-6.666-29.333-15.333-40.889-8.667-11.555-21.111-19.778-34.889-23.778-13.778-4.222-28.667-5.333-43.334-4.444-14.889.667-29.555 2.889-44.444 5.333 14.222-5.111 28.889-8.889 44-10.444 3.778-.667 7.555-.667 11.333-.889 2-.222 4 0 5.778 0 2 0 4 0 5.778.222 7.778.445 15.333 1.778 22.889 3.778 7.333 2.444 14.667 5.778 20.889 10.444a58.785 58.785 0 0 1 16.222 16.889c8.445 13.111 12.222 28.667 11.111 43.778ZM775.894 294.535c-8.445 13.111-14.667 27.556-20 42l-1.778 5.556c-.667 1.777-1.111 3.777-1.778 5.555-1.111 3.778-2.222 7.333-3.111 11.111-.667 3.778-2 7.556-2.667 11.334l-2 11.333c-.666 4-1.111 7.778-1.555 11.555l-.667 5.778-.444 5.778-.667 11.555v11.778l-.222 5.778c0 2 .222 3.778.444 5.778l.445 11.778c0 1.777.222 3.777.444 5.777l.667 5.778c.444 3.852.815 7.778 1.111 11.778-1.037-3.852-2-7.704-2.889-11.556l-1.333-5.555c-.445-2-.889-4-1.111-6l-1.778-11.556a92.204 92.204 0 0 1-.667-6l-.444-6c-.149-3.852-.297-7.778-.445-11.778l.222-12 .223-5.777.666-6c.667-4 .889-8 1.556-11.778 2.667-15.778 6.889-31.111 13.111-45.778 6.222-14.666 14-28.666 24.667-40.222ZM720.115 389.422c-.888 12-.888 23.555-.222 35.111.297 5.926.741 11.778 1.334 17.555.444 2.667.666 5.556 1.111 8.445l1.333 8.667c.444 2.888.889 5.777 1.556 8.666.666 2.667 1.111 5.556 1.777 8.445l2 8.444c.223 1.333.889 2.889 1.111 4.222l1.334 4.222c1.333 5.556 3.333 11.112 5.111 16.667.667 2.889 2 5.556 2.889 8.222 1.037 2.815 2 5.63 2.889 8.445l-4.445-7.556c-1.555-2.666-3.111-5.111-4.222-7.778-2.667-5.555-5.333-10.888-7.111-16.444-4.445-11.111-7.333-22.667-9.333-34.444-2-11.778-2.889-23.778-2.445-35.556.222-12 1.778-24 5.333-35.333ZM757.004 562.316c4 10 7.111 20.445 9.556 30.889 2.444 10.445 4.222 21.111 5.111 31.778 1.778 21.333.889 43.555-6 64.444-3.556 10.445-8.667 20.445-15.334 29.334-6.666 8.666-14.888 16.222-24.444 21.777-9.333 5.556-19.556 10-30.222 12.222-2.445.889-5.112 1.556-7.778 1.778l-8 1.334c-5.334.666-10.667.666-16 1.111l7.777-1.556 4-.667 2-.222 2-.444c5.112-1.556 10.223-2.445 15.112-4.222 2.666-.889 5.111-1.778 7.555-2.667l7.111-3.111c2.445-1.111 4.667-2.445 7.112-3.778 2.222-1.333 4.444-2.444 6.444-4 8.889-5.778 16.222-13.111 22.445-21.333 6-8.445 10.666-17.778 14-27.556 3.333-9.778 5.333-20.222 6.222-30.666 1.333-10.223 1.333-20.889.889-31.334-1.111-21.111-4.222-42.222-9.556-63.111Z" fill="#fff"/><path d="M724.559 721.645c-4.222 5.777-9.555 10.444-15.111 14.666a96.693 96.693 0 0 1-18.667 10.667c-6.666 2.889-13.555 4.666-20.444 6.222-7.112 1.556-14.223 2.222-21.334 2.222-14.444.445-28.667-1.778-42.222-5.778-13.556-3.777-26.667-9.333-38.889-16.222 13.333 4.445 26.666 8.667 40.222 11.334l10 2 5.111.666 5.111.667c3.334.444 6.889.444 10.223.667 3.555.222 6.889.444 10.222.222 6.889 0 13.778-.667 20.445-1.778 6.666-1.111 13.333-2.889 19.777-5.111 6.445-2.222 12.667-4.889 18.667-8.444 6-3.334 11.778-7.334 16.889-12ZM522.336 743.863c-4.222 1.111-8.667.889-12.889.222-2-.222-4.222-.888-6.222-1.555-2.222-.667-4-1.556-6-2.445-2.074-.888-4-1.851-5.778-2.889l-5.556-3.777c-3.333-2.667-6.666-5.556-9.333-8.889-1.555-1.556-3.111-3.111-4.222-4.667l-3.778-5.333c-1.333-1.556-2.222-3.556-3.556-5.333a186.893 186.893 0 0 0-3.111-5.556c-1.777-4-3.555-7.778-4.889-11.778-1.333-4-2.666-8-3.777-12 2.444 3.556 4.444 7.111 6.666 10.667 2 3.555 4.445 6.889 6.445 10.444 2.444 3.334 4.667 6.889 7.111 10 2.667 3.111 5.111 6.445 7.778 9.111 5.555 6 11.555 11.334 18.222 15.556 3.556 2 7.111 4 10.889 5.333 3.778 1.556 7.778 2.445 12 2.889ZM133.445 759.203c1.111-9.778 3.778-19.333 6.889-28.667 1.556-4.666 3.334-9.111 5.334-13.555a157.928 157.928 0 0 1 6.889-13.111c5.333-8.445 11.555-16.667 20-22.667 4-2.889 8.889-5.111 14-6 5.111-.667 10.222 0 14.666 2-4.888-.667-9.555-.444-14 1.111-4.222 1.556-8.222 4-11.555 6.889-7.111 6-12.445 14-17.334 22-4.889 8-9.111 16.667-13.333 25.333-4 8.667-7.778 17.556-11.556 26.667Z" fill="#fff"/><path d="M184.111 687.199c0-1.111.445-2.223.889-3.111.741-1.037 1.556-1.852 2.445-2.445 2-1.555 4.222-2.222 6.222-2.889a22.133 22.133 0 0 0 3.333-.666l3.334-.223c2.222 0 4.444-.222 6.666 0l3.334.223 3.333.444c2 .444 4.222.889 6.222 1.333l6.223 1.111c.888.149 1.851.297 2.888.445h2.667c3.556-.444 6.222-1.778 7.778-4.667.667-1.333 1.333-3.111 1.556-5.111.222-1.778.444-3.778.444-5.778-.222-8.222-1.778-16.444-3.556-24.888 2.223 3.777 4 7.555 5.556 11.777 1.333 4 2.444 8.223 3.111 12.667.445 4.444.445 9.333-1.555 14.222-1.112 2.222-3.112 4.667-5.334 6-2.444 1.333-5.111 2.222-7.555 2.222-1.334.223-2.445 0-3.778 0a191.512 191.512 0 0 0-3.334-.444l-3.333-.889a23.188 23.188 0 0 1-3.111-.667c-2-.666-4-1.111-6-1.555l-6.222-1.334c-4-.666-8-1.333-12-1.111-2 .223-4.223.445-6 1.334-1.778.666-3.556 2-4.223 4Z" fill="#fff"/><path d="M233.001 672.977c-.445-12.223-3.556-24.222-6.889-36a629.628 629.628 0 0 0-2.667-8.667c-1.111-3.111-2-6.222-2.222-9.555-.444-3.112-.667-6.445-.444-9.778.444-3.334 1.333-6.667 2.888-9.778 3.112-6 8.223-10.889 14.223-14 5.778-3.111 12.444-4.444 18.889-4.222 6.444.222 12.667 1.778 18.444 4 5.778 2.444 11.334 5.555 16.223 9.111-5.334-2.667-11.112-5.333-16.889-6.889-5.778-1.556-11.778-2.444-17.778-2.222-5.778.444-11.556 2-16.223 4.889-4.888 2.889-8.666 7.333-10.888 12.444-2.223 4.889-4.223 10.222-4 16.222 0 2.889.444 5.778 1.333 8.667.592 2.963 1.259 6 2 9.111a258.818 258.818 0 0 1 2.889 18.222c.666 6.222 1.333 12.445 1.111 18.445ZM306.113 601.863c14.667 6.222 26.667 19.778 31.111 36 2.445 8 3.112 16.445 2.445 24.667-.222 4.222-1.111 8.222-1.556 12.222-.889 4-1.778 8-3.111 12-2.222 7.778-5.778 15.333-9.778 22.444-4 7.112-7.778 13.778-11.333 20.889-6.889 14.222-11.333 29.556-14.889 45.111.889-16 4-32 10.222-47.111 3.111-7.555 7.111-14.666 10.667-21.777 3.556-7.112 6.667-14 8.889-21.556 1.333-3.556 2-7.556 2.889-11.333.666-3.778 1.555-7.556 1.778-11.556.222-1.778.444-3.778.444-5.555v-5.778c-.222-3.778-.667-7.778-1.556-11.333-3.333-15.112-12.888-28.667-26.222-37.334ZM350.336 665.863c1.333 6.667 1.556 13.778 1.111 20.445a133.1 133.1 0 0 1-2.889 20.444c-1.333 6.889-3.777 13.333-6 19.778-1.333 3.111-2.889 6.444-3.777 9.333-.667 1.556-1.334 3.111-1.778 4.667l-1.111 4.666c-1.334 6.223-1.556 12.667-.445 18.889.889 6.222 3.334 12.222 6.445 17.778 6.666 11.333 16.444 20.667 27.555 28.667-12.444-5.556-23.778-14.223-31.778-25.778-4-5.778-7.111-12.445-8.444-19.556-1.333-7.111-1.111-14.444.222-21.555l1.333-5.111c.445-1.778 1.334-3.334 2-4.889 1.334-3.556 2.667-6.445 4.001-9.333a180.863 180.863 0 0 0 6.888-18.889c1.778-6.222 3.556-12.889 4.667-19.334 1.111-6.666 2-13.333 2-20.222ZM263.891 775.195c-1.778 20.222.889 40.667 6.222 60 5.556 19.333 14.445 37.333 25.778 53.778 5.778 8.222 12.223 16 19.111 23.333 6.889 7.111 14.223 14 22.223 20.445 15.555 12.666 32.667 23.777 50.445 33.777-18.889-7.555-37.112-17.555-53.556-29.777-2.223-1.556-4.223-3.112-6.223-4.667l-6-4.889-2.889-2.667-2.888-2.666a192.917 192.917 0 0 1-5.556-5.334 204.683 204.683 0 0 1-20-23.777c-5.778-8.445-11.111-17.556-15.334-26.889-4.222-9.556-7.777-19.333-10-29.556a141.287 141.287 0 0 1-4-30.444c-.222-10.444.223-20.667 2.667-30.667Z" fill="#fff"/><path d="M270.336 901.203c2.667 4.445 5.778 8.667 9.111 12.667 3.333 4 6.889 8 10.667 11.555 7.333 7.334 15.333 14 23.778 20.222 8.444 6 17.333 11.334 26.444 16.223a221.713 221.713 0 0 0 28.445 12.666c4.889 2 9.778 3.556 14.667 5.334 2.666.666 5.111 1.333 7.555 2.222a142.36 142.36 0 0 0 7.556 2l7.555 2c2.445.666 5.112 1.111 7.556 1.555 5.111 1.334 10.222 2 15.556 3.111 20.444 3.556 41.333 5.556 62.445 6.667-21.112 1.556-42.223 1.111-63.334-1.555-21.111-2.889-41.778-7.556-61.778-15.112-20-7.555-38.889-17.999-55.778-31.111-8.223-6.666-16-14-23.112-21.999-3.407-4-6.592-8.223-9.555-12.667-3.111-4.445-5.778-8.889-7.778-13.778ZM547.67 949.201c5.556-1.555 10.889-2.666 16.222-4l16-3.555c5.334-1.111 10.667-2.445 16-3.556 5.334-1.111 10.667-2.666 16.223-3.778a60.757 60.757 0 0 1-14.667 8.667c-5.111 2.222-10.667 4-16 5.111a109.902 109.902 0 0 1-16.889 2.222c-5.556.223-11.111 0-16.889-1.111ZM1068.34 959.645c9.56-4 18.44-9.111 26.44-14.889 4-3.111 7.78-6.222 11.34-9.777 3.33-3.556 6.66-7.111 9.11-11.334 5.33-8.222 8.67-17.555 10-27.333 1.33-9.778.89-20-.45-30.222 4 9.555 6 20 5.56 30.666a63.09 63.09 0 0 1-2.67 15.778c-1.77 5.111-4 10.222-6.89 14.667-6 9.111-14 16.444-23.11 21.778-9.11 5.333-18.89 9.333-29.33 10.666ZM1131.67 867.871c3.34 3.111 5.56 6.889 7.56 10.889 1.78 4 3.33 8.222 4 12.667.67 4.444.67 9.111-.67 13.777-1.11 4.445-3.78 8.667-7.55 11.111 1.55-4.222 2.44-8 2.44-12 .22-4-.22-7.777-.89-11.777-.44-4-1.33-8-2.22-12-.89-4.223-1.78-8.222-2.67-12.667ZM1068.34 601.422c4 14 9.33 27.555 15.78 40.666 6.66 12.889 14.22 25.334 23.33 36.667 9.11 11.111 19.78 21.111 32 28.667 6.22 3.777 12.89 6.666 19.56 9.111 1.77.592 3.48 1.111 5.11 1.555l2.66.889 2.67.445 5.33 1.111c1.78.148 3.56.37 5.34.666 3.55.445 7.11.445 10.66.445 3.56 0 7.34-.222 10.89-.445l10.67-1.333c3.78-.222 7.33-.667 10.89-1.333 14.44-1.778 28.67-4.667 42.89-8 6.89-1.556 14-3.334 21.11-4.889 7.11-1.556 14.67-2.445 22-1.111 7.11 1.333 13.78 4.444 20 8.222 3.11 2 6.22 4 9.11 6l8.89 6.444-8.89-6.222c-3.11-2-6.22-4-9.33-5.778-6.22-3.555-12.89-6.444-20-7.777-7.11-1.111-14.45 0-21.56 1.555-6.89 1.556-14 3.556-21.11 5.111a447.77 447.77 0 0 1-21.33 4.889l-10.67 2-10.89 1.556c-3.55.666-7.11.889-10.66 1.333l-10.89 1.333c-3.78.223-7.34.667-11.12.667-3.55-.222-7.33 0-10.88-.667a63.44 63.44 0 0 1-5.56-.666l-5.33-1.111-2.67-.445-2.67-.889a73.801 73.801 0 0 1-5.33-1.555c-6.89-2.445-13.56-5.556-19.78-9.556-12.44-7.555-23.33-17.778-32.44-29.333-18-22.889-30.22-50-37.78-78.222ZM1374.78 735.642c-10.44-5.777-19.55-13.333-28-21.777-8.44-8.223-16-17.556-22.88-27.334-6.67-9.777-12.89-20-17.78-30.888-5.11-10.667-8.89-22.667-9.11-34.889v-4.667l.44-4.444c.22-3.111 1.11-6.222 1.78-9.111.22-1.556.89-2.889 1.33-4.445l1.56-4.444c1.18-2.667 2.44-5.408 3.78-8.222 5.55-10.667 13.11-20.223 20.88-29.334l6-6.666 6.23-6.445c4.22-4.222 8.44-8.444 12.66-12.444l25.56-24.445c8.44-8.222 16.89-16.444 23.56-25.777l1.33-1.778 1.11-1.778 2.22-3.555c1.56-2.445 2.67-5.112 4-7.556.45-1.333.89-2.667 1.34-4 .44-1.333 1.11-2.444 1.55-4l.89-4 .44-2 .45-2.222c.22-2.667.89-5.556.67-8.445 0-2.889.22-5.555-.23-8.444-.44-5.778-1.11-11.556-2.66-16.889-1.34-5.555-3.34-10.889-6.45-15.555-3.11-4.445-7.11-8.223-12.22-10.223-4.89-2-10.67-2.444-16.22-1.777-5.56.666-11.11 2.444-16.67 4.444-5.33 2-10.44 4.667-15.78 7.333-4.89 2.889-10.44 5.778-16 8-11.11 4.445-22.89 6.889-34.66 8.445-11.78 1.555-23.56 2.222-35.34 1.333 5.78 0 11.78-.222 17.56-.667 6-.666 11.78-1.333 17.55-2.222 11.56-2.222 23.11-5.111 33.78-9.778 5.33-2.444 10.22-5.111 15.33-8.222 5.34-3.111 10.67-5.778 16.23-8.222 5.55-2.222 11.33-4 17.33-4.889 6.22-.889 12.67-.667 18.67 1.556 6.22 2.222 11.33 6.666 14.89 11.777 3.77 5.334 6 11.112 7.55 17.112 1.78 5.777 2.67 11.777 3.11 17.999.45 2.889.23 6.001.23 9.112.22 3.111-.23 6.222-.67 9.111 0 .74-.08 1.555-.22 2.444l-.45 2.222-1.11 4.445c-.22 1.555-1.11 2.889-1.55 4.444a36.934 36.934 0 0 1-1.56 4.222c-1.33 2.889-2.67 5.778-4.22 8.223l-2.45 4-1.33 2-1.33 1.777c-7.11 9.778-15.56 18.445-24 26.667l-25.78 24.444c-4.22 4-8.45 8.223-12.67 12.223l-6 6.444-3.11 3.111-2.89 3.111c-7.78 8.889-15.11 18-20.44 28-5.56 10.222-8.89 21.333-8.89 32.667 0 11.333 3.11 22.666 7.78 33.333 4.66 10.667 10.44 20.889 16.66 30.667 6.45 10 13.56 19.333 21.56 28 4 4.296 8.22 8.37 12.66 12.222 4.45 4 9.12 7.555 14 10.666Z" fill="#fff"/><path d="M1215.01 412.531c5.33 12 15.77 20.889 27.77 25.556 12 4.666 25.12 5.333 37.78 3.555 6.37-.74 12.67-2 18.89-3.777 6.22-1.556 12.45-3.556 18.67-5.556 12.67-3.778 25.33-7.333 38.44-10 6.67-1.333 13.34-2.222 20.23-2.444 3.33 0 6.88.222 10.44 1.111 3.56.889 7.33 2.666 10 5.333 2.89 2.667 4.89 5.778 6.22 9.111 1.34 3.333 2.45 6.445 3.11 9.778 1.56 7.333.45 14.444-1.77 20.889-4.45 13.111-12 24.222-20 34.666-8.45 10.222-17.34 20-27.34 28.667 8.89-9.778 17.34-20 24.67-30.667 3.78-5.333 7.11-10.889 10.22-16.444 3.11-5.778 5.78-11.556 7.56-17.778 1.77-6 2.44-12.222 1.11-18-1.56-5.778-3.78-12.222-8-15.778-1.93-1.777-4.3-2.963-7.11-3.555-2.89-.667-6-.889-9.11-.889-6.23.222-12.67 1.111-18.89 2.444-12.67 2.445-25.34 6-38 9.556-6.23 1.778-12.45 3.556-19.11 5.333a148.505 148.505 0 0 1-19.78 3.111c-13.34 1.334-27.11 0-39.56-5.777-12.22-5.556-22.44-16-26.44-28.445ZM1320.79 678.533c-7.34-8.445-15.12-16.667-24-22.889-8.89-6.667-18.89-11.111-29.56-13.111-5.11-1.111-10.67-1.333-16-1.333-5.33.444-10.67.889-16 2.444-10.44 2.445-20.67 6.444-30.45 11.556-9.77 4.888-19.55 10.444-29.77 15.333-10.23 4.889-20.67 9.333-32 11.555-5.78 1.112-11.56 1.556-17.34.889-5.77-.666-11.55-2.444-16.66-5.555-4.89-2.889-9.11-7.111-12.45-11.556-3.55-4.444-6-9.555-8.22-14.666l2.22 3.555 1.11 1.778 1.11 1.778c.89 1.111 1.56 2.222 2.45 3.333l2.67 3.111c3.77 4 8 7.556 12.88 10 9.56 4.889 20.67 4.889 31.12 2.222 10.44-2.444 20.66-7.111 30.44-12 9.78-4.889 19.56-10.444 29.56-15.555 10-5.334 20.89-9.556 32-12a114.882 114.882 0 0 1 17.33-2c1.33 0 2.89.222 4.22.222 1.56.222 2.89 0 4.45.222 2.89.445 5.77.889 8.44 1.556 11.33 2.667 21.78 8.222 30.45 15.555 8.66 7.334 16 16.223 22 25.556ZM1313.23 880.976c5.56 5.111 12.67 8 19.78 7.555 6.89-.222 13.33-3.555 19.11-7.778 5.55-4.222 10.67-9.333 15.11-15.111l3.33-4.222 3.34-4.444 3.33-4.667c1.11-1.333 2.44-2.889 3.78-4.444 5.33-5.556 11.78-10.445 19.33-13.334 7.33-2.666 15.78-3.333 23.34-1.333 7.77 1.778 14.66 5.333 20.66 9.778 6.22 4.444 11.56 9.778 16 15.778-5.33-5.112-11.33-9.556-17.78-13.112-6.22-3.555-12.88-6.222-19.77-7.555-3.56-.444-7.04-.519-10.45-.222-3.33.222-6.67 1.333-9.78 2.444-6.44 2.667-12 6.889-16.66 12.222-1.34 1.334-2.45 2.445-3.56 4l-3.33 4.223-3.34 4.444c-1.18 1.481-2.37 2.963-3.55 4.444-5.11 5.778-10.67 11.111-17.11 15.334-3.34 2-6.67 4-10.45 5.111-3.77 1.333-7.77 1.778-11.55 1.555-8-.444-15.34-4.666-19.78-10.666ZM1415.01 808.98c7.11 6 14.66 11.112 22.44 16 7.56 5.111 15.56 9.556 23.56 14l12.22 6.223c4 2.222 8.22 4 12.22 6 4.23 2 8.45 3.777 12.67 5.555 4 2 8.22 3.778 12.67 5.333l12.66 5.112 12.89 4.666c8.45 3.334 17.34 5.778 26 8.667 4.45 1.555 8.89 2.667 13.11 4l13.34 4c8.66 2.667 17.55 4.889 26.44 7.555-9.11-1.111-18.22-2.666-27.33-4.222-8.89-2.222-18-4-26.89-6.222a458.173 458.173 0 0 0-13.33-3.778c-2.23-.666-4.67-1.333-6.67-2l-6.67-2.222-13.11-4.444-13.11-5.112c-4.22-1.555-8.44-3.555-12.67-5.333-4.22-2-8.44-3.778-12.66-6-4-2.222-8.23-4.222-12.23-6.444a238.378 238.378 0 0 1-12-6.889c-4-2.445-8-4.889-11.77-7.556-3.78-2.666-7.56-5.333-11.34-8.222-7.11-5.555-14.22-11.778-20.44-18.667ZM1392.79 746.311c13.03 8 26.37 15.259 40 21.778 13.77 6.666 27.77 12.666 42 17.777 14.22 5.334 28.89 9.556 43.55 13.111l11.11 2.223c1.78.222 3.56.666 5.56 1.111l5.55.666c3.78.445 7.34 1.111 11.12 1.556l11.33.889c29.78 2.222 59.78-5.556 86.44-19.556 13.34-7.111 26-15.555 38-24.889 11.78-9.555 22.89-20 32.89-31.555-18.22 24.666-41.55 45.555-68.44 60.889-6.67 3.777-13.56 7.111-20.89 10.222-7.11 2.666-14.45 5.333-22 7.111-15.11 3.778-30.89 5.333-46.45 4.222l-11.55-.889c-3.78-.444-7.56-1.111-11.56-1.555l-5.55-.889c-2-.222-3.78-.667-5.78-1.111l-11.33-2.445c-14.89-4-29.56-8.444-43.78-14.222-28.45-11.555-55.56-26.222-80.22-44.444Z" fill="#fff"/><path d="M1720.34 620.977c-14.88 25.777-32 50.222-51.11 73.111-19.11 22.888-40.44 44.444-65.78 60.888l-10 5.778-10 4.889a53.74 53.74 0 0 1-5.11 2.444l-5.33 2.223c-3.33 1.555-6.89 2.888-10.44 4-14.23 5.111-28.89 8.666-43.78 10.444-15.11 1.556-30.22 1.333-45.11-1.111-3.71-.593-7.34-1.333-10.89-2.222-3.56-1.111-7.34-2-10.89-3.334-7.11-2.222-13.78-5.333-20.45-8.888 13.78 5.777 28 9.777 42.67 11.333 14.67 1.555 29.56 1.111 44-.889 14.45-2.222 28.67-6 42.45-11.111 3.33-1.334 6.66-2.445 10-4l5.11-2.222a55.19 55.19 0 0 0 5.11-2.445l9.78-4.889 9.33-5.555 2.44-1.334 2.23-1.555 4.44-3.111 4.44-3.334c1.56-.888 2.89-2.222 4.23-3.333 2.89-2.222 5.77-4.667 8.66-6.889l8-7.333c10.89-10 21.11-20.667 31.11-31.778 9.78-10.889 19.34-22.444 28.45-34 9.11-11.555 18-23.555 26.44-35.777ZM1447.45 560.535c-12.66 14.889-24.66 30.222-35.33 46.445-5.11 8-10 16.444-13.78 25.111-2 4.444-3.55 8.888-4.67 13.333-1.33 4.444-1.77 9.111-1.33 13.333.22 4.445 1.56 8.445 4 12.222 2.45 3.778 5.78 7.111 9.33 10 7.12 5.778 16 9.556 24.89 12.667 9.12 3.111 18.67 5.333 28.23 6.667a213.074 213.074 0 0 0 29.11 2.889c-9.78 1.111-19.78 1.111-29.56.444-9.78-.889-19.55-2.222-29.11-5.111-9.78-2.667-19.11-6.445-27.33-12.667-4.23-3.111-7.78-6.889-10.89-11.333-.3-.445-.67-.963-1.11-1.556l-.89-1.777-.89-2-.89-1.778-.44-2c-.23-.667-.45-1.333-.45-2-.44-1.333-.67-2.667-.67-4-.44-5.334.45-10.667 1.78-15.556 1.34-5.037 3.04-9.777 5.11-14.222a162.03 162.03 0 0 1 7.11-13.111c2.52-4.296 5.26-8.444 8.23-12.444 11.55-16 24.89-30.445 39.55-43.556Z" fill="#fff"/><path d="M1447.01 684.752c13.55 3.555 27.33 5.111 41.11 5.333 3.33 0 6.89.222 10.22 0l5.11-.222h2.67l2.45-.222c3.55-.445 6.88-.445 10.44-.889l10-1.556c1.78-.222 3.33-.667 5.11-.889l5.11-1.111 4.89-1.111c1.78-.444 3.33-.889 5.11-1.333l9.78-2.889c3.26-1.185 6.52-2.296 9.78-3.334l4.89-1.777c1.55-.667 3.11-1.334 4.89-2l9.55-4c.74-.297 1.48-.667 2.22-1.111l2.45-1.111 4.66-2.223c3.12-1.629 6.3-3.185 9.56-4.666-2.81 2.074-5.7 4.148-8.67 6.222l-4.44 2.889-2 1.555c-.74.445-1.56.889-2.45 1.334l-9.11 5.111c-1.55.666-3.11 1.555-4.66 2.444l-4.89 2a276.522 276.522 0 0 1-9.78 4.222l-10.22 3.334c-1.56.444-3.34 1.111-5.11 1.555l-5.11 1.111-5.12 1.111c-1.77.445-3.55.889-5.33 1.112-14 2.444-28.22 2.888-42.44 1.555-14-1.333-28-4.444-40.67-10.444ZM1537.45 663.42a558.322 558.322 0 0 0 39.56-12.444l9.78-3.556 9.55-3.778c3.11-1.333 6.23-2.666 9.34-4l4.66-2 4.67-2.222c12.44-5.778 24.44-12.222 36.22-19.333l8.67-5.556 8.67-5.778 4.22-2.888 4-3.112c2.81-2.074 5.63-4.148 8.44-6.222l-7.11 7.556-3.78 3.778-3.77 3.333-8 6.889c-2.89 2.222-5.78 4.222-8.45 6.222a102.923 102.923 0 0 0-4.22 3.111l-4.45 2.667c-3.11 2-6 4-8.88 5.555-6.23 3.334-12.45 6.889-18.67 9.778l-4.89 2.222-4.67 2c-3.33 1.111-6.44 2.667-9.77 3.778l-10 3.556c-3.26 1.037-6.6 2-10 2.888-13.34 3.778-27.12 6.667-41.12 7.556ZM1622.56 668.531c2.45-.222 4.89-.889 7.34-1.778 2.22-.666 4.44-1.777 6.66-2.666 2.23-1.111 4.45-2.223 6.45-3.556l3.11-2 2.89-2.222c2.22-1.333 4-2.889 6-4.222l2.89-2.445 2.67-2.444c1.77-1.556 3.77-3.111 5.55-4.889l5.33-5.111c1.78-1.556 3.34-3.556 5.12-5.334 1.55-1.777 3.33-3.555 5.11-5.333 3.11-3.778 6.44-7.333 9.77-11.111l4.89-5.778c1.56-1.777 3.34-3.777 4.67-5.555 3.33-4 6.44-7.778 10-11.556-2.22 4.445-4.89 8.889-7.33 13.334-2.45 4.444-5.34 8.444-8.23 12.666-1.33 2.222-2.88 4.222-4.44 6.222l-4.67 5.778c-3.33 4-6.66 7.778-10.44 11.333-7.11 7.112-15.11 13.778-24 18.889l-3.34 1.778c-1.18.593-2.37 1.185-3.55 1.778-2.45 1.111-4.89 1.778-7.33 2.667-2.45.666-4.89 1.333-7.56 1.555a21.62 21.62 0 0 1-7.56 0ZM1730.57 601.422a867.03 867.03 0 0 0 18.44-41.333c2.89-6.889 5.78-14 8.44-20.889 2.67-7.111 5.34-14.222 7.56-21.333a367.814 367.814 0 0 0 12-43.333c1.33-7.334 2.67-14.667 3.56-22.222.88-7.334 1.33-14.889 1.33-22.445 1.33 7.334 1.78 15.111 1.78 22.667 0 7.778-.67 15.333-1.56 22.889-1.11 7.555-2.67 15.111-4.44 22.666-1.78 7.334-4 14.667-6.45 22-4.89 14.445-10.66 28.445-17.55 42.222-6.67 13.556-14.23 26.889-23.11 39.111ZM1748.34 834.752c5.56-2 10.67-4.667 16-7.556 5.04-2.666 10-5.629 14.89-8.888 9.78-6.445 18.89-13.778 27.34-21.778 17.11-15.778 31.77-34.222 43.55-54.222 11.56-20.222 20.67-41.778 26.89-64 3.11-11.333 5.56-22.667 7.78-34 .89-5.778 1.55-11.556 2.44-17.333l1.78-17.334c2.67-23.333 4-46.666 4.67-69.999.44-23.334.44-46.889-.67-70.223-1.11-23.333-2.89-46.666-6-69.777-2.67-23.334-6.44-46.445-11.78-69.333 12.89 45.111 19.56 91.999 22.89 138.888 1.78 23.556 2 47.111 1.78 70.667-.67 23.333-1.78 46.889-4.22 70.444-2.22 23.333-6 46.889-12.89 69.555-3.11 11.556-7.33 22.667-12 33.556-4.67 10.889-10.22 21.333-16.45 31.333-12.44 20.222-27.77 38.667-45.55 54.222-8.89 7.556-18.45 14.667-28.67 20.667-10 6.222-20.67 11.556-31.78 15.111Z" fill="#fff"/><path d="M1847.68 501.423c-5.11-32.222-9.56-64.667-13.11-97.111-3.78-32.667-6.67-65.111-7.34-98 0-4.148.08-8.296.22-12.444.23-4.223.89-8.223 1.34-12.445.66-8.222 2.44-16.444 5.33-24.444 2.89-7.778 6.89-15.334 11.78-22 2.22-3.556 5.11-6.667 8-9.778 2.89-2.889 6-5.556 9.55-8 13.34-10 30.45-14.889 46.89-12.889 8.23.667 16.23 3.111 23.78 6.667 7.34 3.333 14.22 7.778 20.67 13.111-6.67-5.111-13.56-9.333-21.11-12.445a65.612 65.612 0 0 0-23.56-5.777c-16-1.334-32.44 3.777-44.89 13.777-3.11 2.445-6 5.112-8.89 8-2.66 3.112-5.11 6.223-7.33 9.556-4.44 6.444-8 13.778-10.44 21.333-2.45 7.556-4 15.334-4.45 23.556-.44 8-.22 16-.44 24.222-.23 32.444 2 65.111 4.66 97.555 1.34 16.297 2.74 32.593 4.23 48.889 1.63 16.296 3.33 32.519 5.11 48.667Z" fill="#fff"/><path d="M1974.79 246.978c-11.33-7.333-23.33-13.778-35.56-18.444-6.44-2.222-12.66-4-19.11-4.667-6.22-.667-12.67-.444-18.44 1.778-5.78 2.222-10.67 6.222-14.45 11.111-3.78 5.111-6.66 11.111-8.89 17.111-4.44 12.444-6.66 26-8.44 39.333-.89-13.555-.22-27.333 3.55-40.888.89-3.334 1.78-6.667 3.56-9.778 1.33-3.334 3.33-6.445 5.11-9.334 4.22-6 10.22-10.888 17.33-13.555 6.89-2.667 14.45-2.889 21.56-2 6.89 1.111 13.78 3.111 20 6.222 12.67 5.556 24 13.556 33.78 23.111Z" fill="#fff"/><path d="M1794.79 582.529c.66-2.667.89-5.556 1.33-8.445.3-2.815.59-5.704.89-8.666.59-5.63 1.19-11.334 1.78-17.112.89-11.407 1.63-22.814 2.22-34.222a1343.84 1343.84 0 0 0 2.67-68.888c.22-22.889.22-45.778-.45-68.667-.44-11.555-.89-22.889-1.55-34.222-.45-11.556-1.56-22.889-2-34.444-.89-23.112-.67-46.445 2.66-69.334 1.56-11.555 4-22.888 7.34-34.222 3.55-11.111 8.22-22 14.89-31.778 6.88-9.555 15.55-18.222 26.22-23.555 10.67-5.333 22.67-7.333 34.22-6.667 11.78.667 23.11 3.778 34 7.778 10.67 4.222 20.89 9.333 30.89 15.111-10.22-5.111-20.67-9.778-31.56-13.555-10.88-3.556-22-5.778-33.33-6.223-11.33-.222-22.44 2-32.44 7.112-9.78 5.333-17.56 13.555-23.78 22.888-6 9.334-10.22 19.778-13.56 30.667-3.33 10.889-5.33 22-6.66 33.333a323.873 323.873 0 0 0-2.67 34 521.56 521.56 0 0 0 .22 34c.67 11.556 1.56 22.889 2 34.444.59 11.556 1.04 23.037 1.33 34.445.23 23.111.23 46.222-.88 69.111-.89 22.963-2.37 45.926-4.45 68.889a883.739 883.739 0 0 1-3.78 34.222c-.74 5.777-1.48 11.481-2.22 17.111a166.55 166.55 0 0 1-1.55 8.444c-.45 2.889-.89 5.778-1.78 8.445ZM1779.23 378.98c-6.44-10.889-10.89-22.666-14.89-34.666-3.85-12-6.89-24.148-9.11-36.445-4.44-24.888-5.78-50.222-4.66-75.333 0-3.111.66-6.222.88-9.333l.89-9.556c.45-3.111 1.11-6.222 1.56-9.333l.89-4.667.44-2.444.67-2.222c1.78-6.222 3.33-12.222 5.78-18.222l1.77-4.445.89-2.222 1.11-2.222 4.23-8.445c6-11.111 13.55-21.555 22.44-30.444 9.11-8.889 19.11-16.667 30.67-21.778-10.89 6.222-20.22 14.667-28.22 24-8.23 9.333-14.89 19.556-20.45 30.667-10.44 22-16.22 46.444-16.89 71.111-.66 12.222-.89 24.666-.22 37.111.44 12.222 1.78 24.666 3.33 36.888 1.78 12.223 4 24.445 7.11 36.445 3.12 12 6.67 24 11.78 35.555ZM1872.34 91.422c8.45-1.555 17.34-.666 25.78 1.778 2.22.667 4.45 1.111 6.45 2l6 2.667c2 .889 4 2 5.77 3.111 2 1.333 3.78 2.444 5.56 3.778 1.78 1.111 3.56 2.888 5.11 4.222 1.56 1.555 3.33 2.889 4.67 4.666l4.44 4.889c1.34 1.778 2.45 3.778 3.78 5.556l1.78 2.667c.44 1.111.89 2 1.33 2.888l2.89 6a25.78 25.78 0 0 1 1.11 3.112c.45 1.037.82 2.074 1.11 3.111.6 1.926 1.19 3.926 1.78 6-1.18-1.778-2.37-3.556-3.56-5.334-1.11-1.777-2-3.777-3.33-5.333l-3.55-5.111c-.67-.889-1.12-1.778-1.78-2.667l-2-2.222c-1.34-1.778-2.67-3.333-4-4.889l-4.45-4.222c-1.33-1.556-2.89-2.889-4.44-4.222-1.56-1.334-3.11-2.667-4.89-3.778-1.56-1.333-3.11-2.444-4.89-3.556-1.78-1.111-3.55-2-5.33-3.111-1.78-1.111-3.56-2-5.34-2.889-2-.889-3.77-1.555-5.77-2.444-7.71-3.111-15.78-5.333-24.23-6.667ZM1472.79 526.531c5.11-3.556 10-7.333 14.44-11.556 2.37-1.925 4.67-4 6.89-6.222 2.22-2 4.44-4.222 6.67-6.444 4.22-4.445 8.44-8.889 12.44-13.556l3.11-3.333 2.89-3.778c1.78-2.222 4-4.666 5.56-7.111l5.77-7.333c1.78-2.445 3.34-5.111 5.34-7.556 3.55-4.889 6.66-10.222 10.22-15.333 1.78-2.667 3.33-5.333 4.89-8l4.89-7.778c3.11-5.333 6.22-10.889 9.55-16a515.444 515.444 0 0 1-6.66 17.556c-2.67 5.555-5.11 11.333-8.23 16.889-6 10.888-12.88 21.555-20.44 31.555l-6 7.333-3.11 3.556c-1.04 1.185-2.08 2.37-3.11 3.556-4.45 4.444-8.89 8.888-13.56 13.111-4.89 4.222-9.78 8-15.11 11.555-5.33 3.333-10.67 6.667-16.44 8.889ZM1548.79 423.646c5.33-12.667 8.89-25.778 11.11-38.889 1.11-6.667 1.78-13.334 1.78-20 0-6.445-.23-13.111-1.56-19.778-1.11-6.444-2.89-12.667-5.11-18.889-2.45-6.222-5.56-12-9.11-17.778-7.34-11.111-16.45-21.111-26.89-30 12 6.667 22.67 16 31.11 27.112 4.22 5.777 7.78 11.777 10.44 18.222 2.89 6.666 4.67 13.333 6 20.444 2.45 13.778 1.56 28-1.55 41.556-3.33 13.555-8.45 26.666-16.22 38ZM1595.68 334.086c-.45-5.777-1.34-11.777-2.23-17.555a217.116 217.116 0 0 0-3.77-17.111c-2.89-11.556-6.67-22.667-11.34-33.333-9.11-21.556-22-41.556-38.44-57.778-8.22-8.222-17.56-15.333-27.34-21.556l-3.55-2.444-2-1.111-1.78-1.111-7.78-4c-2.44-1.334-5.33-2.445-8-3.778l-3.77-1.778c-1.34-.666-2.89-1.111-4.23-1.555-21.77-8.445-45.11-13.334-68.66-15.778 23.77-.222 47.77 3.111 70.44 10.889 1.56.444 2.89.889 4.22 1.555l4.23 1.556c2.88 1.333 5.55 2.222 8.44 3.555l8 4.223 2 .889 2 1.333 3.78 2.222c10.22 6.222 20 13.778 28.44 22.222 8.67 8.667 16.22 18 22.67 28.222 6.44 10.223 12 20.889 16.22 32.223 4.22 11.111 7.33 22.888 9.56 34.444 1.11 6 1.77 11.778 2.44 17.778.45 6 .67 12 .45 17.777Z" fill="#fff"/><path d="M1574.56 228.531c6 4.445 11.34 10.222 16 16.222 1.12 1.556 2.23 3.112 3.34 4.889l2.89 4.889 1.55 2.445c.45.74.89 1.555 1.34 2.444l2.66 5.111c3.34 7.111 6 14.222 8.22 21.778 1.12 3.555 1.78 7.333 2.67 11.111.89 3.778 1.78 7.556 2 11.556l1.33 11.333.45 11.555v5.778c0 1.926-.07 3.852-.22 5.778-.3 3.852-.52 7.63-.67 11.333-.89 7.778-2.22 15.111-3.56 22.667-1.77 7.555-3.55 14.889-5.55 22.222.67-7.556 1.55-15.111 2.44-22.667l.67-11.333c.22-3.778.89-7.333.67-11.111 0-3.852.07-7.63.22-11.333v-5.556l-.22-5.555-.67-11.334-1.33-10.889c-2-14.888-5.56-29.333-11.11-43.111-1.56-3.555-2.67-6.888-4.45-10.222l-2.67-5.111c-.88-1.555-1.77-3.111-2.66-4.889-4-6.222-8.22-12.444-13.34-18Z" fill="#fff"/></g><defs><clipPath id="a"><path fill="#fff" d="M0 0h1920v1080H0z"/></clipPath></defs></svg>