<svg width="300" height="300" fill="none" xmlns="http://www.w3.org/2000/svg"><path d="M28.04 18c-1.568 1.435 4.35 10.401 13.182 20.04 6.635 7.219 13.002 12.733 16.454 14.437.478.478.971.942 1.48 1.39 5.38 5.021 10.76 10.088 16.005 15.288 4.304 4.35 8.473 8.832 12.688 13.271 8.25 8.787 16.409 17.665 23.896 27.124 22.551 28.38 41.202 59.674 57.298 92.134 7.038 14.257 15.377 27.931 20.578 42.995-1.704 2.332 8.563 12.643 22.82 22.955 14.302 10.357 27.304 16.858 28.963 14.526a156.923 156.923 0 0 0-5.38-13.405c-3.632-7.891-7.891-15.512-11.881-23.269a346.759 346.759 0 0 1-4.573-9.101c-16.364-32.998-35.598-64.65-58.149-93.792-4.08-5.246-8.25-10.446-12.554-15.468-6.859-8.07-14.077-15.826-21.34-23.493-4.529-4.797-8.967-9.594-13.54-14.257-4.304-4.349-8.698-8.608-13.136-12.867-4.618-4.438-9.281-8.832-13.944-13.226-5.739-5.38-11.477-10.715-17.44-15.826C56.6 36.426 42.881 26.249 28.041 18Z" fill="#13D7B7"/><path d="M258.754 62.52c-.269 0-.448.044-.538.179a1277.013 1277.013 0 0 0-46.089 27.035c-23.044 14.212-45.595 29.142-67.788 44.564-13.316 9.236-26.586 18.606-39.588 28.29-4.932 3.632-9.908 7.308-14.75 11.074-13.45 10.267-26.542 20.982-39.813 31.429-10.85 8.563-21.834 16.947-33.087 25.017-.852 1.076 3.766 6.187 10.357 11.477 6.546 5.246 12.598 8.653 13.45 7.577 11.253-8.025 22.237-16.409 33.132-25.017 13.27-10.446 26.362-21.161 39.767-31.428 4.887-3.766 9.819-7.398 14.751-11.074 13.27-9.819 26.765-19.368 40.35-28.784 26.093-18.157 52.724-35.597 79.983-51.962 10.895-6.546 21.924-12.867 32.998-19.054.896-1.076-3.722-6.187-10.267-11.478-5.739-4.617-11.074-7.845-12.868-7.845Z" fill="#13D7B7"/><path d="M31.986 25.22c4.26 4.618 5.963 10.895 7.801 16.768.718 2.242 1.3 4.618 2.421 6.725.807 1.48 1.883 2.78 3.049 4.035 4.842 5.111 10.76 9.012 17.126 11.926h-.09c-.044-.045.046 0 .09.045l.807.538 1.614 1.166c1.286.896 2.586 1.808 3.9 2.734 2.422 1.764 4.843 3.542 7.264 5.336 1.345.986 2.735 1.972 3.99 3.093 4.483 3.9 8.294 8.608 11.881 13.316 5.828 7.532 11.074 15.512 16.947 23a112.502 112.502 0 0 0 9.998 11.163c2.421 2.331 4.977 4.573 7.218 7.129a52.028 52.028 0 0 1 3.318 4.304c5.425 8.025 8.653 17.306 13.091 25.824 3.228 6.142 7.443 11.657 10.76 17.754 2.108 3.766 3.587 7.846 5.47 11.702a64.451 64.451 0 0 0 3.901 6.859c6.814 10.805 15.736 19.996 24.793 28.918-.135.359 1.524 1.48 3.721 2.466 2.241.986 4.169 1.479 4.349 1.121-8.115-7.891-16.051-16.185-21.924-25.914a66.893 66.893 0 0 1-2.735-4.977c-1.928-3.9-3.452-8.025-5.559-11.881-3.318-6.052-7.532-11.522-10.715-17.619-4.842-9.281-8.295-19.279-14.437-27.842-2.197-3.049-4.707-5.873-7.353-8.518-2.645-2.646-5.469-5.156-8.025-7.891-1.748-1.794-3.273-3.721-4.797-5.694-8.339-10.581-15.512-22.058-24.524-32.101-3.632-4.125-7.622-7.936-11.791-11.477-4.26-3.632-8.832-6.95-13.36-10.222a693.263 693.263 0 0 0-8.474-6.053c-2.063-1.435-4.125-2.914-6.277-4.17-.538-.313-1.076-.538-1.614-.851-.448-1.032-.807-2.152-1.166-3.228a218.734 218.734 0 0 0-2.286-7.129c-1.076-3.228-2.421-6.411-4.26-9.28-1.255-2.063-2.779-3.901-4.393-5.65.27-.448-1.704-2.017-4.394-3.497-2.69-1.524-5.11-2.331-5.335-1.927Z" fill="#13D7B7"/><path fill-rule="evenodd" clip-rule="evenodd" d="M154.83 146.319c1.749 1.345 3.004 2.69 2.78 3.004-.941 4.618-1.121 9.46-2.914 13.808-1.435 3.587-3.452 6.86-5.694 9.953-3.407 4.663-7.442 8.878-11.702 12.778a118.068 118.068 0 0 1-8.563 7.129c-1.973 1.479-3.99 2.914-6.097 4.169a64.205 64.205 0 0 1-5.515 2.869c-1.524.718-3.093 1.39-4.707 1.884-2.78.807-5.829 1.12-8.295 2.779-1.972 1.345-3.138 3.587-4.214 5.649-2.017 3.901-3.856 8.205-7.98 10.357-1.345.717-2.96 1.39-4.529 1.435-1.3.044-2.914-.628-4.214-.09-.628.224-1.21.493-1.793.807-1.749.986-3.228 2.421-4.708 3.721-1.434 1.211-2.914 2.287-4.662 3.049-4.573 1.972-9.953 1.883-14.168 4.752-2.107 1.39-3.273 3.497-4.573 5.604-1.21 2.108-2.555 4.125-3.542 6.367-.493 1.076-.941 2.197-1.076 3.362-.09.449-.179 1.031 0 1.48.18.538.314 1.121.583 1.614.359.672.942 1.3 1.435 1.838 1.569 1.883 3.497 3.901 3.72 6.411.27 2.645-.627 5.066-1.3 7.532-.134.583-.268 1.166-.403 1.794-.313 1.345-.896 3.542-2.69 3.586-.448 0-.986-.179-1.345-.403-.627-.359-1.255-.673-1.793-1.121a39.825 39.825 0 0 1-3.049-2.511 6.81 6.81 0 0 1-1.703-2.331c-.314-.717-.494-1.48-.718-2.242-.448-1.524-.807-3.004-.897-4.618-.09-2.465.27-4.931 0-7.352-.403-3.632-2.017-6.994-3.9-10.043.18-.314 1.748.403 3.452 1.569 1.256.852 2.018 1.614 2.376 2.107-.044-.179-.134-.314-.179-.448-.448-1.39.359-3.407.852-4.708 1.031-2.421 2.466-4.618 3.81-6.859.987-1.704 1.973-3.408 3.453-4.797 3.721-3.408 9.415-3.587 13.988-5.156 1.749-.628 3.363-1.435 4.797-2.601 2.242-1.703 4.215-3.855 6.86-5.111.448-.179.852-.448 1.345-.538 1.345-.269 2.645.225 3.945.225 1.48-.045 3.049-.718 4.35-1.39 3.855-2.018 5.648-5.918 7.531-9.64 1.166-2.286 2.421-4.842 4.663-6.366 2.466-1.659 5.514-1.973 8.339-2.78 1.3-.403 2.51-.941 3.721-1.479a72.935 72.935 0 0 0 6.456-3.273c2.107-1.255 4.08-2.69 6.053-4.17a109.071 109.071 0 0 0 8.563-7.128c4.259-3.901 8.249-8.07 11.612-12.733 2.286-3.049 4.259-6.321 5.738-9.863 1.794-4.349 1.928-9.236 2.87-13.809.224-.314 1.838.583 3.631 1.928ZM46.826 257.282c.27 1.794.224 3.587.135 5.38.627-2.062 1.255-4.169 1.03-6.366-.178-2.018-1.658-3.497-2.869-4.977-.403-.493-.762-1.076-1.165-1.614 1.3 2.376 2.42 4.887 2.87 7.577Z" fill="#13D7B7"/><path d="M135.776 155.996c.762.717.987 1.434.942 2.421-.045 1.21 1.076 2.241 2.241 2.241 1.256 0 2.197-1.031 2.242-2.241.09-2.063-.762-4.125-2.242-5.605-2.062-2.017-5.245 1.166-3.183 3.184ZM145.415 161.464c2.869 0 2.914-4.484 0-4.484-2.869 0-2.869 4.484 0 4.484ZM142.994 168.729c2.869 0 2.914-4.483 0-4.483-2.869 0-2.869 4.483 0 4.483ZM149.854 174.154c1.479-2.959 2.376-6.008 2.645-9.28.224-2.87-4.259-2.825-4.483 0a19.062 19.062 0 0 1-2.018 6.994c-1.345 2.555 2.556 4.842 3.856 2.286ZM149.45 150.171c2.869 0 2.914-4.483 0-4.483-2.869 0-2.869 4.483 0 4.483ZM150.257 159.851c2.87 0 2.914-4.484 0-4.484-2.869 0-2.869 4.484 0 4.484ZM136.538 171.644c1.435 0 1.435-2.242 0-2.242s-1.435 2.242 0 2.242ZM142.187 163.574c1.435 0 1.435-2.242 0-2.242s-1.435 2.242 0 2.242ZM139.766 164.378c1.435 0 1.435-2.241 0-2.241-1.434 0-1.434 2.241 0 2.241ZM135.731 165.191c1.435 0 1.435-2.242 0-2.242-1.434 0-1.434 2.242 0 2.242ZM131.696 164.378c1.435 0 1.435-2.241 0-2.241-1.434 0-1.434 2.241 0 2.241ZM128.468 157.121c1.435 0 1.435-2.242 0-2.242s-1.435 2.242 0 2.242ZM134.924 151.468c1.435 0 1.435-2.241 0-2.241s-1.435 2.241 0 2.241ZM105.065 161.96c1.435 0 1.435-2.241 0-2.241s-1.435 2.241 0 2.241ZM122.819 199.082c1.435 0 1.435-2.242 0-2.242s-1.435 2.242 0 2.242ZM159.134 201.503c1.435 0 1.435-2.241 0-2.241s-1.435 2.241 0 2.241ZM164.784 179.718c1.434 0 1.434-2.241 0-2.241-1.435 0-1.435 2.241 0 2.241ZM176.889 190.207c1.434 0 1.434-2.242 0-2.242-1.435 0-1.435 2.242 0 2.242ZM155.099 191.011c1.435 0 1.435-2.241 0-2.241-1.434 0-1.434 2.241 0 2.241ZM157.52 186.171c1.435 0 1.435-2.241 0-2.241-1.434 0-1.434 2.241 0 2.241ZM157.52 181.508h-.807c-.582 0-1.12.538-1.12 1.121.044.627.493 1.12 1.12 1.12h.807c.583 0 1.166-.493 1.121-1.12 0-.583-.493-1.121-1.121-1.121ZM142.994 178.906c1.435 0 1.435-2.242 0-2.242-1.434 0-1.434 2.242 0 2.242ZM139.766 178.906c1.435 0 1.435-2.242 0-2.242-1.434 0-1.434 2.242 0 2.242ZM140.349 175.543l3.228-1.614c1.3-.628.135-2.6-1.121-1.928l-3.228 1.614c-1.3.628-.179 2.556 1.121 1.928Z" fill="#13D7B7"/><path d="M144.608 172.449c1.435 0 1.435-2.242 0-2.242-1.434 0-1.434 2.242 0 2.242Z" fill="#13D7B7"/><path d="m146.222 168.952-.807-.807c-.403-.448-1.166-.448-1.614 0a1.17 1.17 0 0 0 0 1.569l.807.807c.449.404 1.211.448 1.614 0 .404-.448.448-1.121 0-1.569ZM139.766 168.414c1.435 0 1.435-2.242 0-2.242-1.434 0-1.434 2.242 0 2.242Z" fill="#13D7B7"/><path d="M137.704 167.699a158.71 158.71 0 0 1 1.659 3.99c.224.583.762.941 1.39.807.538-.135 1.031-.852.807-1.39l-1.704-4.035c-.224-.538-.717-.942-1.345-.762-.538.134-1.031.807-.807 1.39ZM141.38 174.871c1.435 0 1.435-2.242 0-2.242-1.434 0-1.434 2.242 0 2.242ZM142.994 178.101c1.435 0 1.435-2.242 0-2.242-1.434 0-1.434 2.242 0 2.242ZM147.837 180.519c1.434 0 1.434-2.242 0-2.242-1.435 0-1.435 2.242 0 2.242ZM153.485 175.679c1.435 0 1.435-2.241 0-2.241-1.434 0-1.434 2.241 0 2.241Z" fill="#13D7B7"/><path d="M155.099 175.679c1.435 0 1.435-2.241 0-2.241-1.434 0-1.434 2.241 0 2.241ZM154.292 168.191c2.152 0 2.152-3.363 0-3.363s-2.152 3.363 0 3.363ZM155.906 172.226c2.153 0 2.153-3.363 0-3.363-2.152 0-2.152 3.363 0 3.363ZM147.836 167.386c2.152 0 2.152-3.363 0-3.363s-2.152 3.363 0 3.363ZM145.415 162.542c2.152 0 2.152-3.362 0-3.362s-2.152 3.362 0 3.362ZM144.608 155.28c2.152 0 2.152-3.362 0-3.362s-2.152 3.362 0 3.362ZM155.099 160.929c2.152 0 2.152-3.363 0-3.363s-2.152 3.363 0 3.363ZM159.134 164.964c2.152 0 2.152-3.362 0-3.362s-2.152 3.362 0 3.362Z" fill="#13D7B7"/><path d="M153.485 165.769c2.152 0 2.152-3.363 0-3.363s-2.152 3.363 0 3.363Z" fill="#13D7B7"/><path d="M154.382 164.065v-.807c0-.403-.224-.851-.493-1.165-.314-.314-.807-.538-1.211-.494-.448 0-.896.18-1.165.494a1.627 1.627 0 0 0-.494 1.165v.807c0 .449.18.897.494 1.211.269.269.762.493 1.165.493.449-.045.897-.179 1.211-.493.269-.314.493-.718.493-1.211Z" fill="#13D7B7"/><path d="M151.871 162.542c2.152 0 2.152-3.362 0-3.362s-2.152 3.362 0 3.362ZM147.029 162.542c2.152 0 2.152-3.362 0-3.362s-2.152 3.362 0 3.362ZM140.573 161.734c2.152 0 2.152-3.363 0-3.363s-2.152 3.363 0 3.363ZM133.31 162.542c2.152 0 2.152-3.362 0-3.362s-2.152 3.362 0 3.362ZM149.45 153.89h.807c.583 0 1.166-.493 1.121-1.121 0-.583-.493-1.121-1.121-1.121h-.807c-.583 0-1.121.538-1.121 1.121.045.628.494 1.121 1.121 1.121ZM153.485 153.085c1.435 0 1.435-2.241 0-2.241-1.434 0-1.434 2.241 0 2.241ZM147.029 157.925c1.435 0 1.435-2.241 0-2.241-1.434 0-1.434 2.241 0 2.241Z" fill="#13D7B7"/><path d="M139.408 154.203c3.138.897 5.783 2.78 7.621 5.515.762 1.21 2.735.089 1.928-1.121-2.152-3.228-5.245-5.515-8.967-6.591-1.389-.403-1.972 1.794-.582 2.197Z" fill="#13D7B7"/><path d="M147.522 160.076a368.169 368.169 0 0 0 4.842-2.466c1.301-.627.135-2.555-1.121-1.927a380.66 380.66 0 0 0-4.841 2.465c-1.301.628-.18 2.556 1.12 1.928ZM158.327 154.695c1.435 0 1.435-2.242 0-2.242-1.434 0-1.434 2.242 0 2.242ZM159.134 157.925c1.435 0 1.435-2.241 0-2.241s-1.435 2.241 0 2.241ZM163.977 158.73c1.434 0 1.434-2.242 0-2.242-1.435 0-1.435 2.242 0 2.242ZM163.169 172.449c1.435 0 1.435-2.242 0-2.242-1.434 0-1.434 2.242 0 2.242ZM157.52 165.191c1.435 0 1.435-2.242 0-2.242-1.434 0-1.434 2.242 0 2.242Z" fill="#13D7B7"/><path d="M157.52 162.137h-2.869c-.538 0-1.031.448-1.076.986-.09.494.224 1.121.807 1.211 1.435.224 2.78-.135 3.9-1.076.494-.404.449-1.211 0-1.614-.448-.448-1.12-.404-1.569 0a2.226 2.226 0 0 1-1.748.538 50.04 50.04 0 0 1-.314 2.197h2.869c1.435 0 1.435-2.242 0-2.242ZM159.941 161.156c1.435 0 1.435-2.242 0-2.242-1.434 0-1.434 2.242 0 2.242ZM159.941 158.73c1.435 0 1.435-2.242 0-2.242-1.434 0-1.434 2.242 0 2.242ZM155.099 157.121c1.435 0 1.435-2.242 0-2.242-1.434 0-1.434 2.242 0 2.242Z" fill="#13D7B7"/><path d="M152.678 157.121c1.435 0 1.435-2.242 0-2.242-1.434 0-1.434 2.242 0 2.242ZM136.538 181.105c2.152 0 2.152-3.363 0-3.363s-2.152 3.363 0 3.363ZM146.222 185.945c2.152 0 2.152-3.363 0-3.363s-2.152 3.363 0 3.363ZM169.625 170.613h.807c.449 0 .897-.18 1.211-.494.269-.314.493-.762.493-1.21-.045-.404-.179-.852-.493-1.166-.359-.314-.762-.493-1.211-.493h-.807c-.403 0-.896.179-1.165.493-.314.269-.538.762-.494 1.166 0 .448.135.896.494 1.21.313.314.717.494 1.165.494ZM178.502 160.929c2.152 0 2.152-3.363 0-3.363s-2.152 3.363 0 3.363ZM166.397 164.964c2.152 0 2.152-3.362 0-3.362s-2.152 3.362 0 3.362ZM159.134 171.421c2.152 0 2.152-3.362 0-3.362s-2.152 3.362 0 3.362ZM139.766 148.823c2.152 0 2.152-3.362 0-3.362s-2.152 3.362 0 3.362ZM130.889 139.945c2.152 0 2.152-3.363 0-3.363s-2.152 3.363 0 3.363ZM155.906 143.175c2.153 0 2.153-3.363 0-3.363-2.152 0-2.152 3.363 0 3.363ZM180.117 175.679c1.434 0 1.434-2.241 0-2.241-1.435 0-1.435 2.241 0 2.241ZM196.257 170.835c1.434 0 1.434-2.241 0-2.241-1.435 0-1.435 2.241 0 2.241ZM117.439 185.902c1.435 0 1.435-2.242 0-2.242s-1.435 2.242 0 2.242ZM119.591 176.753c1.435 0 1.435-2.241 0-2.241s-1.435 2.241 0 2.241ZM152.947 183.211c.718 0 .718-1.121 0-1.121-.717 0-.717 1.121 0 1.121ZM147.567 175.679c.718 0 .718-1.12 0-1.12-.717 0-.717 1.12 0 1.12ZM149.719 179.445c.717 0 .717-1.121 0-1.121s-.717 1.121 0 1.121ZM155.637 179.984c.718 0 .718-1.121 0-1.121-.717 0-.717 1.121 0 1.121ZM157.251 177.293c.718 0 .718-1.121 0-1.121-.717 0-.717 1.121 0 1.121ZM143.263 186.441c.718 0 .718-1.121 0-1.121-.717 0-.717 1.121 0 1.121ZM120.129 198.816c.717 0 .717-1.121 0-1.121s-.717 1.121 0 1.121ZM118.515 192.894h1.614c.717 0 .717-1.121 0-1.121h-1.614c-.717 0-.717 1.121 0 1.121ZM125.778 190.606l1.076-.538c.269-.135.359-.538.18-.763-.135-.269-.494-.358-.763-.224l-1.076.538c-.269.135-.313.538-.179.807.135.269.493.314.762.18ZM145.415 201.504c.718 0 .718-1.121 0-1.121-.717 0-.717 1.121 0 1.121ZM139.497 204.195c.718 0 .718-1.121 0-1.121-.717 0-.717 1.121 0 1.121ZM132.503 199.89c.718 0 .718-1.12 0-1.12-.717 0-.717 1.12 0 1.12ZM142.187 189.129c.718 0 .718-1.121 0-1.121-.717 0-.717 1.121 0 1.121ZM168.55 188.543h-1.615c-.717 0-.717 1.121 0 1.121h1.615c.717 0 .717-1.121 0-1.121ZM159.941 179.984c.718 0 .718-1.121 0-1.121-.717 0-.717 1.121 0 1.121ZM163.573 170.166l3.228.538c.717.089 1.031-.987.314-1.076l-3.228-.538c-.718-.135-1.032.941-.314 1.076ZM160.524 172.134l-1.076 1.614c-.403.583.583 1.166.942.538l1.076-1.614c.403-.583-.538-1.166-.942-.538Z" fill="#13D7B7"/><path d="M156.714 168.46a61.728 61.728 0 0 1 9.684.314c.717.09.717-1.031 0-1.121a61.849 61.849 0 0 0-9.684-.314c-.718.045-.718 1.166 0 1.121ZM176.216 228.312c.762.762.986 1.48.941 2.466-.044 1.21 1.076 2.242 2.242 2.242 1.255 0 2.197-1.032 2.242-2.242a7.435 7.435 0 0 0-2.242-5.604c-2.062-2.018-5.245 1.121-3.183 3.138ZM185.9 233.827c2.869 0 2.869-4.483 0-4.483-2.914 0-2.914 4.483 0 4.483ZM183.479 241.093c2.869 0 2.869-4.484 0-4.484-2.915 0-2.915 4.484 0 4.484ZM190.338 246.474c1.48-2.914 2.332-5.963 2.601-9.236.224-2.869-4.26-2.869-4.484 0-.179 2.466-.896 4.797-2.017 6.994-1.3 2.556 2.555 4.842 3.9 2.242ZM189.935 222.53c2.869 0 2.869-4.483 0-4.483-2.914 0-2.914 4.483 0 4.483ZM190.742 232.214c2.869 0 2.869-4.484 0-4.484-2.914 0-2.914 4.484 0 4.484ZM177.022 244.007c1.435 0 1.435-2.241 0-2.241-1.479 0-1.479 2.241 0 2.241ZM182.672 235.937c1.434 0 1.434-2.242 0-2.242-1.48 0-1.48 2.242 0 2.242ZM180.251 236.742c1.434 0 1.434-2.242 0-2.242-1.48 0-1.48 2.242 0 2.242ZM176.216 237.554c1.434 0 1.434-2.242 0-2.242-1.48 0-1.48 2.242 0 2.242ZM172.18 236.742c1.435 0 1.435-2.242 0-2.242-1.479 0-1.479 2.242 0 2.242ZM168.952 229.484c1.435 0 1.435-2.242 0-2.242-1.479 0-1.479 2.242 0 2.242ZM175.409 223.832c1.434 0 1.434-2.242 0-2.242-1.48 0-1.48 2.242 0 2.242ZM145.549 234.32c1.435 0 1.435-2.242 0-2.242-1.479 0-1.479 2.242 0 2.242ZM163.304 271.441c1.434 0 1.434-2.242 0-2.242-1.48 0-1.48 2.242 0 2.242ZM199.619 273.867c1.435 0 1.435-2.242 0-2.242-1.48 0-1.48 2.242 0 2.242ZM205.268 252.078c1.435 0 1.435-2.242 0-2.242-1.48 0-1.48 2.242 0 2.242ZM217.373 262.57c1.434 0 1.434-2.242 0-2.242-1.48 0-1.48 2.242 0 2.242ZM195.584 263.371c1.434 0 1.434-2.242 0-2.242-1.48 0-1.48 2.242 0 2.242ZM198.004 258.535c1.435 0 1.435-2.242 0-2.242-1.479 0-1.479 2.242 0 2.242ZM198.005 253.867h-.807c-.583 0-1.166.538-1.121 1.121a1.11 1.11 0 0 0 1.121 1.121h.807c.583 0 1.121-.493 1.121-1.121-.045-.583-.494-1.121-1.121-1.121ZM183.479 251.265c1.434 0 1.434-2.242 0-2.242-1.48 0-1.48 2.242 0 2.242ZM180.251 251.265c1.434 0 1.434-2.242 0-2.242-1.48 0-1.48 2.242 0 2.242ZM180.789 247.909l3.228-1.614c1.3-.673.179-2.601-1.121-1.928l-3.228 1.614c-1.3.627-.135 2.555 1.121 1.928Z" fill="#13D7B7"/><path d="M185.093 244.812c1.434 0 1.434-2.242 0-2.242-1.48 0-1.48 2.242 0 2.242Z" fill="#13D7B7"/><path d="m186.662 241.27-.807-.807c-.404-.404-1.166-.404-1.569 0-.404.448-.449 1.165 0 1.614l.807.807c.403.403 1.165.448 1.569 0a1.137 1.137 0 0 0 0-1.614ZM180.251 240.777c1.434 0 1.434-2.242 0-2.242-1.48 0-1.48 2.242 0 2.242Z" fill="#13D7B7"/><path d="M178.188 240.013c.538 1.345 1.091 2.69 1.659 4.035.224.583.717.942 1.39.762.493-.134.986-.807.762-1.345a228.665 228.665 0 0 1-1.659-4.035c-.224-.538-.762-.941-1.39-.762-.538.135-.986.807-.762 1.345ZM181.864 247.23c1.435 0 1.435-2.242 0-2.242-1.479 0-1.479 2.242 0 2.242ZM183.479 250.464c1.434 0 1.434-2.241 0-2.241-1.48 0-1.48 2.241 0 2.241ZM188.321 252.882c1.434 0 1.434-2.241 0-2.241-1.48 0-1.48 2.241 0 2.241ZM193.969 248.042c1.435 0 1.435-2.241 0-2.241-1.479 0-1.479 2.241 0 2.241Z" fill="#13D7B7"/><path d="M195.584 248.042c1.434 0 1.434-2.241 0-2.241-1.48 0-1.48 2.241 0 2.241ZM194.777 240.554c2.152 0 2.152-3.363 0-3.363-2.197 0-2.197 3.363 0 3.363ZM196.391 244.585c2.152 0 2.152-3.362 0-3.362-2.197 0-2.197 3.362 0 3.362ZM188.321 239.745c2.152 0 2.152-3.362 0-3.362-2.197 0-2.197 3.362 0 3.362ZM185.9 234.902c2.152 0 2.152-3.363 0-3.363-2.197 0-2.197 3.363 0 3.363ZM185.092 227.64c2.152 0 2.152-3.363 0-3.363-2.196 0-2.196 3.363 0 3.363ZM195.584 233.292c2.152 0 2.152-3.362 0-3.362-2.197 0-2.197 3.362 0 3.362ZM199.619 237.327c2.152 0 2.152-3.362 0-3.362-2.197 0-2.197 3.362 0 3.362Z" fill="#13D7B7"/><path d="M193.97 238.132c2.152 0 2.152-3.362 0-3.362-2.197 0-2.197 3.362 0 3.362Z" fill="#13D7B7"/><path d="M194.822 236.429v-.807c0-.404-.18-.897-.493-1.166-.269-.314-.763-.538-1.166-.493-.449 0-.897.134-1.211.493a1.627 1.627 0 0 0-.493 1.166v.807c0 .448.179.896.493 1.21.314.269.762.493 1.211.493.403-.045.852-.179 1.166-.493.313-.359.493-.762.493-1.21Z" fill="#13D7B7"/><path d="M192.356 234.902c2.152 0 2.152-3.363 0-3.363-2.197 0-2.197 3.363 0 3.363ZM187.514 234.902c2.152 0 2.152-3.363 0-3.363-2.197 0-2.197 3.363 0 3.363ZM181.057 234.097c2.152 0 2.152-3.363 0-3.363-2.197 0-2.197 3.363 0 3.363ZM173.794 234.902c2.152 0 2.152-3.363 0-3.363-2.196 0-2.196 3.363 0 3.363ZM189.935 226.249h.807c.582 0 1.12-.493 1.12-1.12-.044-.583-.493-1.121-1.12-1.121h-.807c-.583 0-1.166.538-1.121 1.121 0 .627.493 1.12 1.121 1.12ZM193.969 225.449c1.435 0 1.435-2.242 0-2.242-1.479 0-1.479 2.242 0 2.242ZM187.514 230.285c1.434 0 1.434-2.242 0-2.242-1.48 0-1.48 2.242 0 2.242Z" fill="#13D7B7"/><path d="M179.847 226.519c3.138.896 5.828 2.824 7.622 5.559.807 1.166 2.735.045 1.928-1.121-2.152-3.228-5.246-5.514-8.967-6.59-1.39-.404-1.973 1.748-.583 2.152Z" fill="#13D7B7"/><path d="M188.007 232.438a747.948 747.948 0 0 1 4.797-2.466c1.3-.628.179-2.6-1.121-1.928l-4.842 2.421c-1.255.673-.134 2.601 1.166 1.973ZM198.812 227.058c1.434 0 1.434-2.242 0-2.242-1.48 0-1.48 2.242 0 2.242ZM199.619 230.285c1.434 0 1.434-2.242 0-2.242-1.48 0-1.48 2.242 0 2.242ZM204.461 231.093c1.434 0 1.434-2.241 0-2.241-1.48 0-1.48 2.241 0 2.241ZM203.654 244.812c1.434 0 1.434-2.242 0-2.242-1.48 0-1.48 2.242 0 2.242ZM198.004 237.554c1.435 0 1.435-2.242 0-2.242-1.479 0-1.479 2.242 0 2.242Z" fill="#13D7B7"/><path d="M198.005 234.5h-2.87c-.538 0-1.031.449-1.121.987-.044.493.27 1.121.808 1.21 1.479.224 2.824-.134 3.945-1.121.448-.358.403-1.165 0-1.569-.449-.448-1.121-.403-1.569 0-.494.404-1.166.628-1.794.538-.089.747-.179 1.48-.269 2.197h2.87c1.434 0 1.434-2.242 0-2.242ZM200.426 233.519c1.434 0 1.434-2.242 0-2.242-1.48 0-1.48 2.242 0 2.242ZM200.426 231.093c1.434 0 1.434-2.241 0-2.241-1.48 0-1.48 2.241 0 2.241ZM195.584 229.484c1.434 0 1.434-2.242 0-2.242-1.48 0-1.48 2.242 0 2.242Z" fill="#13D7B7"/><path d="M193.163 229.484c1.434 0 1.434-2.242 0-2.242-1.48 0-1.48 2.242 0 2.242ZM177.022 253.468c2.152 0 2.152-3.363 0-3.363-2.196 0-2.196 3.363 0 3.363ZM186.707 258.308c2.152 0 2.152-3.363 0-3.363-2.197 0-2.197 3.363 0 3.363ZM210.11 242.976h.807c.403 0 .852-.224 1.166-.493.314-.314.538-.763.493-1.211 0-.448-.135-.897-.493-1.166a1.633 1.633 0 0 0-1.166-.493h-.807c-.448 0-.897.18-1.211.493-.269.269-.493.763-.493 1.166.045.448.18.897.493 1.211.314.269.763.493 1.211.493ZM218.987 233.292c2.152 0 2.152-3.362 0-3.362-2.197 0-2.197 3.362 0 3.362ZM206.882 237.327c2.152 0 2.152-3.362 0-3.362-2.197 0-2.197 3.362 0 3.362ZM199.619 243.78c2.152 0 2.152-3.362 0-3.362-2.197 0-2.197 3.362 0 3.362ZM180.251 221.187c2.152 0 2.152-3.363 0-3.363-2.197 0-2.197 3.363 0 3.363ZM171.374 212.308c2.152 0 2.152-3.363 0-3.363-2.197 0-2.197 3.363 0 3.363ZM196.391 215.534c2.152 0 2.152-3.362 0-3.362-2.197 0-2.197 3.362 0 3.362ZM220.601 248.042c1.435 0 1.435-2.241 0-2.241-1.48 0-1.48 2.241 0 2.241ZM236.741 243.195c1.435 0 1.435-2.242 0-2.242-1.48 0-1.48 2.242 0 2.242ZM157.924 258.265c1.434 0 1.434-2.242 0-2.242-1.48 0-1.48 2.242 0 2.242ZM160.075 249.117c1.435 0 1.435-2.242 0-2.242-1.479 0-1.479 2.242 0 2.242ZM193.432 255.57c.717 0 .717-1.121 0-1.121-.718 0-.718 1.121 0 1.121ZM188.051 248.039c.718 0 .718-1.121 0-1.121-.717 0-.717 1.121 0 1.121ZM190.204 251.804c.717 0 .717-1.12 0-1.12-.718 0-.718 1.12 0 1.12ZM196.121 252.343c.718 0 .718-1.12 0-1.12-.717 0-.717 1.12 0 1.12ZM197.736 249.656c.717 0 .717-1.121 0-1.121s-.717 1.121 0 1.121ZM183.748 258.804c.717 0 .717-1.12 0-1.12-.718 0-.718 1.12 0 1.12ZM160.614 271.176c.717 0 .717-1.121 0-1.121-.718 0-.718 1.121 0 1.121ZM158.999 265.258h1.614c.718 0 .718-1.121 0-1.121h-1.614c-.717 0-.717 1.121 0 1.121ZM166.217 262.969l1.076-.538c.269-.134.359-.538.225-.762-.18-.269-.494-.359-.763-.224l-1.075.538c-.269.134-.359.538-.225.762.18.269.493.359.762.224ZM185.9 273.867c.717 0 .717-1.121 0-1.121-.718 0-.718 1.121 0 1.121ZM179.981 276.554c.718 0 .718-1.12 0-1.12-.717 0-.717 1.12 0 1.12ZM172.987 272.25c.718 0 .718-1.121 0-1.121-.717 0-.717 1.121 0 1.121ZM182.672 261.492c.717 0 .717-1.121 0-1.121-.718 0-.718 1.121 0 1.121ZM209.034 260.906h-1.614c-.718 0-.718 1.121 0 1.121h1.614c.717 0 .717-1.121 0-1.121ZM200.426 252.343c.717 0 .717-1.12 0-1.12s-.717 1.12 0 1.12ZM204.057 242.525c1.076.179 2.152.344 3.228.493.718.135.987-.941.269-1.076a123.99 123.99 0 0 0-3.228-.493c-.672-.134-.986.942-.269 1.076ZM200.964 244.497l-1.076 1.614c-.404.583.582 1.121.986.538l1.076-1.614c.403-.582-.583-1.165-.986-.538Z" fill="#13D7B7"/><path d="M197.153 240.82a61.492 61.492 0 0 1 9.684.313c.717.045.717-1.076 0-1.12a61.372 61.372 0 0 0-9.684-.314c-.718.045-.718 1.165 0 1.121ZM137.48 174.515c.762.762.986 1.48.941 2.466-.045 1.211 1.076 2.242 2.242 2.242 1.255 0 2.197-1.031 2.241-2.242a7.436 7.436 0 0 0-2.241-5.604c-2.063-2.018-5.246 1.121-3.183 3.138ZM147.164 180.03c2.869 0 2.869-4.483 0-4.483-2.915 0-2.915 4.483 0 4.483ZM144.743 187.296c2.869 0 2.869-4.484 0-4.484-2.914 0-2.914 4.484 0 4.484ZM151.602 192.677c1.48-2.914 2.332-5.963 2.601-9.236.224-2.869-4.26-2.869-4.484 0-.179 2.466-.896 4.797-2.017 6.994-1.3 2.556 2.555 4.842 3.9 2.242ZM151.199 168.733c2.869 0 2.869-4.483 0-4.483-2.915 0-2.915 4.483 0 4.483ZM152.006 178.417c2.869 0 2.869-4.483 0-4.483-2.914 0-2.914 4.483 0 4.483ZM138.287 190.21c1.434 0 1.434-2.241 0-2.241-1.48 0-1.48 2.241 0 2.241ZM143.936 182.14c1.434 0 1.434-2.242 0-2.242-1.48 0-1.48 2.242 0 2.242ZM141.514 182.945c1.435 0 1.435-2.242 0-2.242-1.479 0-1.479 2.242 0 2.242ZM137.48 183.753c1.434 0 1.434-2.241 0-2.241-1.48 0-1.48 2.241 0 2.241ZM133.444 182.945c1.435 0 1.435-2.242 0-2.242-1.479 0-1.479 2.242 0 2.242ZM130.217 175.683c1.434 0 1.434-2.242 0-2.242-1.48 0-1.48 2.242 0 2.242ZM136.673 170.035c1.434 0 1.434-2.242 0-2.242-1.48 0-1.48 2.242 0 2.242ZM106.813 180.523c1.435 0 1.435-2.242 0-2.242-1.479 0-1.479 2.242 0 2.242ZM124.567 217.644c1.435 0 1.435-2.242 0-2.242-1.479 0-1.479 2.242 0 2.242ZM160.883 220.07c1.435 0 1.435-2.242 0-2.242-1.48 0-1.48 2.242 0 2.242ZM166.532 198.281c1.434 0 1.434-2.242 0-2.242-1.48 0-1.48 2.242 0 2.242ZM178.637 208.769c1.435 0 1.435-2.242 0-2.242-1.48 0-1.48 2.242 0 2.242ZM156.848 209.574c1.434 0 1.434-2.242 0-2.242-1.48 0-1.48 2.242 0 2.242ZM159.269 204.734c1.434 0 1.434-2.242 0-2.242-1.48 0-1.48 2.242 0 2.242ZM159.269 200.07h-.807c-.583 0-1.166.538-1.121 1.121a1.11 1.11 0 0 0 1.121 1.121h.807c.583 0 1.121-.493 1.121-1.121-.045-.583-.493-1.121-1.121-1.121ZM144.743 197.468c1.434 0 1.434-2.241 0-2.241-1.48 0-1.48 2.241 0 2.241ZM141.514 197.468c1.435 0 1.435-2.241 0-2.241-1.479 0-1.479 2.241 0 2.241ZM142.053 194.112l3.228-1.614c1.3-.673.179-2.601-1.121-1.928l-3.228 1.614c-1.3.628-.135 2.555 1.121 1.928Z" fill="#13D7B7"/><path d="M146.357 191.015c1.434 0 1.434-2.242 0-2.242-1.48 0-1.48 2.242 0 2.242Z" fill="#13D7B7"/><path d="m147.926 187.473-.807-.807c-.403-.404-1.166-.404-1.569 0-.404.448-.448 1.166 0 1.614l.807.807c.403.403 1.166.448 1.569 0a1.137 1.137 0 0 0 0-1.614ZM141.514 186.98c1.435 0 1.435-2.242 0-2.242-1.479 0-1.479 2.242 0 2.242Z" fill="#13D7B7"/><path d="M139.452 186.216c.538 1.345 1.091 2.69 1.659 4.035.224.583.717.942 1.39.763.493-.135.986-.808.762-1.346a228.665 228.665 0 0 1-1.659-4.035c-.224-.538-.762-.941-1.389-.762-.538.135-.987.807-.763 1.345ZM143.129 193.433c1.434 0 1.434-2.242 0-2.242-1.48 0-1.48 2.242 0 2.242ZM144.743 196.664c1.434 0 1.434-2.242 0-2.242-1.48 0-1.48 2.242 0 2.242ZM149.584 199.085c1.435 0 1.435-2.241 0-2.241-1.479 0-1.479 2.241 0 2.241ZM155.234 194.246c1.435 0 1.435-2.242 0-2.242-1.48 0-1.48 2.242 0 2.242Z" fill="#13D7B7"/><path d="M156.848 194.246c1.434 0 1.434-2.242 0-2.242-1.48 0-1.48 2.242 0 2.242ZM156.041 186.757c2.152 0 2.152-3.362 0-3.362-2.197 0-2.197 3.362 0 3.362ZM157.655 190.792c2.152 0 2.152-3.362 0-3.362-2.197 0-2.197 3.362 0 3.362ZM149.585 185.948c2.152 0 2.152-3.362 0-3.362-2.197 0-2.197 3.362 0 3.362ZM147.164 181.105c2.152 0 2.152-3.363 0-3.363-2.197 0-2.197 3.363 0 3.363ZM146.357 173.843c2.152 0 2.152-3.363 0-3.363-2.197 0-2.197 3.363 0 3.363ZM156.848 179.495c2.152 0 2.152-3.362 0-3.362-2.197 0-2.197 3.362 0 3.362ZM160.883 183.53c2.152 0 2.152-3.362 0-3.362-2.197 0-2.197 3.362 0 3.362Z" fill="#13D7B7"/><path d="M155.234 184.335c2.152 0 2.152-3.362 0-3.362-2.197 0-2.197 3.362 0 3.362Z" fill="#13D7B7"/><path d="M156.086 182.632v-.807c0-.404-.18-.897-.493-1.166-.269-.314-.763-.538-1.166-.493-.448 0-.897.134-1.211.493a1.631 1.631 0 0 0-.493 1.166v.807c0 .448.18.896.493 1.21.314.269.763.493 1.211.493.403-.045.852-.179 1.166-.493.313-.358.493-.762.493-1.21Z" fill="#13D7B7"/><path d="M153.62 181.105c2.152 0 2.152-3.363 0-3.363-2.197 0-2.197 3.363 0 3.363ZM148.778 181.105c2.152 0 2.152-3.363 0-3.363-2.197 0-2.197 3.363 0 3.363ZM142.322 180.3c2.152 0 2.152-3.362 0-3.362-2.197 0-2.197 3.362 0 3.362ZM135.059 181.105c2.152 0 2.152-3.363 0-3.363-2.197 0-2.197 3.363 0 3.363ZM151.199 172.453h.807c.583 0 1.121-.494 1.121-1.121-.045-.583-.493-1.121-1.121-1.121h-.807c-.583 0-1.166.538-1.121 1.121a1.11 1.11 0 0 0 1.121 1.121ZM155.234 171.648c1.435 0 1.435-2.242 0-2.242-1.48 0-1.48 2.242 0 2.242ZM148.778 176.488c1.434 0 1.434-2.242 0-2.242-1.48 0-1.48 2.242 0 2.242Z" fill="#13D7B7"/><path d="M141.111 172.722c3.139.896 5.829 2.824 7.622 5.559.807 1.166 2.735.045 1.928-1.121-2.152-3.228-5.246-5.514-8.967-6.59-1.39-.404-1.973 1.748-.583 2.152Z" fill="#13D7B7"/><path d="M149.271 178.641a747.948 747.948 0 0 1 4.797-2.466c1.3-.628.179-2.6-1.121-1.928l-4.842 2.421c-1.255.673-.134 2.601 1.166 1.973ZM160.076 173.261c1.435 0 1.435-2.241 0-2.241-1.48 0-1.48 2.241 0 2.241ZM160.883 176.488c1.435 0 1.435-2.242 0-2.242-1.48 0-1.48 2.242 0 2.242ZM165.725 177.296c1.434 0 1.434-2.241 0-2.241-1.48 0-1.48 2.241 0 2.241ZM164.918 191.015c1.434 0 1.434-2.242 0-2.242-1.48 0-1.48 2.242 0 2.242ZM159.269 183.753c1.435 0 1.435-2.241 0-2.241-1.479 0-1.479 2.241 0 2.241Z" fill="#13D7B7"/><path d="M159.269 180.704h-2.87c-.538 0-1.031.448-1.12.986-.045.493.269 1.121.807 1.21 1.479.224 2.824-.134 3.945-1.121.448-.358.404-1.165 0-1.569-.448-.448-1.121-.403-1.569 0-.493.404-1.166.628-1.793.538-.09.747-.18 1.48-.27 2.197h2.87c1.435 0 1.435-2.241 0-2.241ZM161.69 179.722c1.434 0 1.434-2.242 0-2.242-1.48 0-1.48 2.242 0 2.242ZM161.69 177.296c1.434 0 1.434-2.241 0-2.241-1.48 0-1.48 2.241 0 2.241ZM156.848 175.683c1.434 0 1.434-2.242 0-2.242-1.48 0-1.48 2.242 0 2.242Z" fill="#13D7B7"/><path d="M154.427 175.683c1.434 0 1.434-2.242 0-2.242-1.48 0-1.48 2.242 0 2.242ZM138.287 199.671c2.152 0 2.152-3.362 0-3.362-2.197 0-2.197 3.362 0 3.362ZM147.971 204.511c2.152 0 2.152-3.363 0-3.363-2.197 0-2.197 3.363 0 3.363ZM171.374 189.175h.807c.403 0 .852-.224 1.166-.493.313-.314.538-.762.493-1.211 0-.448-.135-.896-.493-1.165a1.63 1.63 0 0 0-1.166-.494h-.807c-.448 0-.897.18-1.211.494-.269.269-.493.762-.493 1.165.045.449.18.897.493 1.211.314.269.763.493 1.211.493ZM180.251 179.495c2.152 0 2.152-3.362 0-3.362-2.197 0-2.197 3.362 0 3.362ZM168.146 183.53c2.152 0 2.152-3.362 0-3.362-2.197 0-2.197 3.362 0 3.362ZM160.883 189.984c2.152 0 2.152-3.363 0-3.363-2.197 0-2.197 3.363 0 3.363ZM141.515 167.39c2.152 0 2.152-3.363 0-3.363-2.197 0-2.197 3.363 0 3.363ZM132.637 158.511c2.152 0 2.152-3.363 0-3.363-2.196 0-2.196 3.363 0 3.363ZM157.655 161.741c2.152 0 2.152-3.362 0-3.362-2.197 0-2.197 3.362 0 3.362ZM181.865 194.246c1.434 0 1.434-2.242 0-2.242-1.48 0-1.48 2.242 0 2.242ZM198.005 189.398c1.435 0 1.435-2.242 0-2.242-1.48 0-1.48 2.242 0 2.242ZM119.188 204.468c1.434 0 1.434-2.241 0-2.241-1.48 0-1.48 2.241 0 2.241ZM121.339 195.32c1.435 0 1.435-2.242 0-2.242-1.479 0-1.479 2.242 0 2.242ZM154.696 201.773c.717 0 .717-1.121 0-1.121s-.717 1.121 0 1.121ZM149.316 194.242c.717 0 .717-1.121 0-1.121-.718 0-.718 1.121 0 1.121ZM151.468 198.008c.717 0 .717-1.121 0-1.121s-.717 1.121 0 1.121ZM157.386 198.551c.717 0 .717-1.121 0-1.121s-.717 1.121 0 1.121ZM159 195.859c.717 0 .717-1.121 0-1.121s-.717 1.121 0 1.121ZM145.012 205.004c.717 0 .717-1.121 0-1.121-.718 0-.718 1.121 0 1.121ZM121.878 217.383c.717 0 .717-1.121 0-1.121-.718 0-.718 1.121 0 1.121ZM120.264 211.461h1.614c.717 0 .717-1.121 0-1.121h-1.614c-.718 0-.718 1.121 0 1.121ZM127.482 209.172l1.076-.538c.269-.134.359-.538.224-.762-.179-.269-.493-.359-.762-.224l-1.076.538c-.269.134-.359.538-.224.762.179.269.493.359.762.224ZM147.164 220.07c.717 0 .717-1.121 0-1.121-.718 0-.718 1.121 0 1.121ZM141.246 222.758c.717 0 .717-1.121 0-1.121-.718 0-.718 1.121 0 1.121ZM134.252 218.453c.717 0 .717-1.121 0-1.121-.718 0-.718 1.121 0 1.121ZM143.936 207.695c.717 0 .717-1.121 0-1.121s-.717 1.121 0 1.121ZM170.298 207.109h-1.614c-.717 0-.717 1.121 0 1.121h1.614c.717 0 .717-1.121 0-1.121ZM161.69 198.551c.717 0 .717-1.121 0-1.121s-.717 1.121 0 1.121ZM165.321 188.728c1.076.18 2.152.344 3.228.493.718.135.987-.941.269-1.076a123.99 123.99 0 0 0-3.228-.493c-.672-.134-.986.942-.269 1.076ZM162.228 190.701l-1.076 1.613c-.404.583.583 1.121.986.538l1.076-1.613c.404-.583-.583-1.166-.986-.538Z" fill="#13D7B7"/><path d="M158.417 187.023a61.372 61.372 0 0 1 9.684.314c.718.044.718-1.076 0-1.121a61.372 61.372 0 0 0-9.684-.314c-.717.045-.717 1.166 0 1.121ZM172.988 206.796c.762.763.986 1.48.941 2.466-.044 1.211 1.076 2.242 2.242 2.242 1.255 0 2.197-1.031 2.242-2.242a7.437 7.437 0 0 0-2.242-5.604c-2.062-2.017-5.245 1.121-3.183 3.138ZM182.672 212.308c2.869 0 2.869-4.484 0-4.484-2.914 0-2.914 4.484 0 4.484ZM180.251 219.573c2.869 0 2.869-4.483 0-4.483-2.914 0-2.914 4.483 0 4.483ZM187.11 224.954c1.48-2.914 2.332-5.963 2.601-9.236.224-2.869-4.26-2.869-4.484 0-.179 2.466-.896 4.798-2.017 6.995-1.3 2.555 2.555 4.842 3.9 2.241ZM186.707 201.015c2.869 0 2.869-4.484 0-4.484-2.914 0-2.914 4.484 0 4.484ZM187.514 210.694c2.869 0 2.869-4.483 0-4.483-2.914 0-2.914 4.483 0 4.483ZM173.794 222.488c1.435 0 1.435-2.242 0-2.242-1.479 0-1.479 2.242 0 2.242ZM179.444 214.417c1.435 0 1.435-2.241 0-2.241-1.48 0-1.48 2.241 0 2.241ZM177.023 215.222c1.434 0 1.434-2.242 0-2.242-1.48 0-1.48 2.242 0 2.242ZM172.988 216.031c1.434 0 1.434-2.242 0-2.242-1.48 0-1.48 2.242 0 2.242ZM168.953 215.222c1.434 0 1.434-2.242 0-2.242-1.48 0-1.48 2.242 0 2.242ZM165.724 207.964c1.435 0 1.435-2.241 0-2.241-1.479 0-1.479 2.241 0 2.241ZM172.181 202.312c1.435 0 1.435-2.242 0-2.242-1.48 0-1.48 2.242 0 2.242ZM142.322 212.804c1.434 0 1.434-2.242 0-2.242-1.48 0-1.48 2.242 0 2.242ZM160.076 249.925c1.434 0 1.434-2.241 0-2.241-1.48 0-1.48 2.241 0 2.241ZM196.391 252.347c1.435 0 1.435-2.242 0-2.242-1.48 0-1.48 2.242 0 2.242ZM202.04 230.554c1.434 0 1.434-2.242 0-2.242-1.48 0-1.48 2.242 0 2.242ZM214.145 241.046c1.435 0 1.435-2.241 0-2.241-1.479 0-1.479 2.241 0 2.241ZM192.356 241.855c1.434 0 1.434-2.242 0-2.242-1.48 0-1.48 2.242 0 2.242ZM194.777 237.015c1.435 0 1.435-2.242 0-2.242-1.48 0-1.48 2.242 0 2.242ZM194.777 232.348h-.807c-.583 0-1.166.538-1.121 1.12a1.11 1.11 0 0 0 1.121 1.121h.807c.583 0 1.121-.493 1.121-1.121-.045-.582-.493-1.12-1.121-1.12ZM180.251 229.746c1.435 0 1.435-2.242 0-2.242-1.48 0-1.48 2.242 0 2.242ZM177.023 229.746c1.434 0 1.434-2.242 0-2.242-1.48 0-1.48 2.242 0 2.242ZM177.561 226.385l3.228-1.614c1.3-.672.179-2.6-1.121-1.928l-3.228 1.614c-1.3.628-.134 2.556 1.121 1.928Z" fill="#13D7B7"/><path d="M181.865 223.292c1.434 0 1.434-2.241 0-2.241-1.48 0-1.48 2.241 0 2.241Z" fill="#13D7B7"/><path d="m183.434 219.75-.807-.807c-.404-.403-1.166-.403-1.569 0-.404.449-.449 1.166 0 1.614l.807.807c.403.404 1.165.449 1.569 0a1.137 1.137 0 0 0 0-1.614ZM177.023 219.257c1.434 0 1.434-2.241 0-2.241-1.48 0-1.48 2.241 0 2.241Z" fill="#13D7B7"/><path d="M174.96 218.498c.538 1.345 1.091 2.69 1.659 4.035.224.582.717.941 1.39.762.493-.135.986-.807.762-1.345a228.665 228.665 0 0 1-1.659-4.035c-.224-.538-.762-.942-1.39-.762-.538.134-.986.807-.762 1.345ZM178.637 225.71c1.434 0 1.434-2.241 0-2.241-1.48 0-1.48 2.241 0 2.241ZM180.251 228.945c1.435 0 1.435-2.242 0-2.242-1.48 0-1.48 2.242 0 2.242ZM185.093 231.363c1.434 0 1.434-2.242 0-2.242-1.48 0-1.48 2.242 0 2.242ZM190.742 226.519c1.434 0 1.434-2.242 0-2.242-1.48 0-1.48 2.242 0 2.242Z" fill="#13D7B7"/><path d="M192.356 226.519c1.434 0 1.434-2.242 0-2.242-1.48 0-1.48 2.242 0 2.242ZM191.549 219.03c2.152 0 2.152-3.362 0-3.362-2.197 0-2.197 3.362 0 3.362ZM193.163 223.066c2.152 0 2.152-3.363 0-3.363-2.197 0-2.197 3.363 0 3.363ZM185.093 218.23c2.152 0 2.152-3.363 0-3.363-2.197 0-2.197 3.363 0 3.363ZM182.672 213.386c2.152 0 2.152-3.363 0-3.363-2.197 0-2.197 3.363 0 3.363ZM181.865 206.12c2.152 0 2.152-3.362 0-3.362-2.197 0-2.197 3.362 0 3.362ZM192.356 211.773c2.152 0 2.152-3.363 0-3.363-2.197 0-2.197 3.363 0 3.363ZM196.391 215.808c2.152 0 2.152-3.363 0-3.363-2.197 0-2.197 3.363 0 3.363Z" fill="#13D7B7"/><path d="M190.742 216.613c2.152 0 2.152-3.363 0-3.363-2.197 0-2.197 3.363 0 3.363Z" fill="#13D7B7"/><path d="M191.594 214.909v-.807c0-.403-.18-.897-.493-1.166-.269-.314-.763-.538-1.166-.493-.448 0-.897.135-1.211.493a1.633 1.633 0 0 0-.493 1.166v.807c0 .448.18.897.493 1.211.314.269.763.493 1.211.493.403-.045.852-.18 1.166-.493.313-.359.493-.763.493-1.211Z" fill="#13D7B7"/><path d="M189.128 213.386c2.152 0 2.152-3.363 0-3.363-2.197 0-2.197 3.363 0 3.363ZM184.286 213.386c2.152 0 2.152-3.363 0-3.363-2.197 0-2.197 3.363 0 3.363ZM177.83 212.577c2.152 0 2.152-3.362 0-3.362-2.197 0-2.197 3.362 0 3.362ZM170.567 213.386c2.152 0 2.152-3.363 0-3.363-2.197 0-2.197 3.363 0 3.363ZM186.707 204.73h.807c.583 0 1.121-.493 1.121-1.121-.045-.583-.494-1.121-1.121-1.121h-.807c-.583 0-1.166.538-1.121 1.121a1.11 1.11 0 0 0 1.121 1.121ZM190.742 203.929c1.434 0 1.434-2.241 0-2.241-1.48 0-1.48 2.241 0 2.241ZM184.286 208.765c1.435 0 1.435-2.242 0-2.242-1.48 0-1.48 2.242 0 2.242Z" fill="#13D7B7"/><path d="M176.619 205.003c3.139.897 5.829 2.824 7.622 5.559.807 1.166 2.735.045 1.928-1.121-2.152-3.228-5.246-5.514-8.967-6.59-1.39-.404-1.973 1.748-.583 2.152Z" fill="#13D7B7"/><path d="M184.779 210.918a747.948 747.948 0 0 1 4.797-2.466c1.3-.627.179-2.6-1.121-1.927l-4.842 2.421c-1.255.672-.134 2.6 1.166 1.972ZM195.584 205.539c1.435 0 1.435-2.242 0-2.242-1.48 0-1.48 2.242 0 2.242ZM196.391 208.765c1.435 0 1.435-2.242 0-2.242-1.48 0-1.48 2.242 0 2.242ZM201.233 209.57c1.435 0 1.435-2.242 0-2.242-1.48 0-1.48 2.242 0 2.242ZM200.426 223.292c1.435 0 1.435-2.241 0-2.241-1.479 0-1.479 2.241 0 2.241ZM194.777 216.031c1.435 0 1.435-2.242 0-2.242-1.48 0-1.48 2.242 0 2.242Z" fill="#13D7B7"/><path d="M194.777 212.981h-2.869c-.538 0-1.031.448-1.121.986-.045.493.269 1.121.807 1.211 1.479.224 2.824-.135 3.945-1.121.449-.359.404-1.166 0-1.569-.448-.449-1.121-.404-1.569 0-.493.403-1.166.627-1.793.538-.09.747-.18 1.479-.269 2.197h2.869c1.435 0 1.435-2.242 0-2.242ZM197.198 211.996c1.435 0 1.435-2.242 0-2.242-1.479 0-1.479 2.242 0 2.242ZM197.198 209.57c1.435 0 1.435-2.242 0-2.242-1.479 0-1.479 2.242 0 2.242ZM192.356 207.964c1.434 0 1.434-2.241 0-2.241-1.48 0-1.48 2.241 0 2.241Z" fill="#13D7B7"/><path d="M189.935 207.964c1.434 0 1.434-2.241 0-2.241-1.48 0-1.48 2.241 0 2.241ZM173.795 231.945c2.152 0 2.152-3.363 0-3.363-2.197 0-2.197 3.363 0 3.363ZM183.479 236.788c2.152 0 2.152-3.362 0-3.362-2.197 0-2.197 3.362 0 3.362ZM206.882 221.456h.807c.404 0 .852-.224 1.166-.493.314-.314.538-.762.493-1.21 0-.449-.135-.897-.493-1.166a1.627 1.627 0 0 0-1.166-.493h-.807c-.448 0-.896.179-1.21.493-.269.269-.494.762-.494 1.166.045.448.18.896.494 1.21.314.269.762.493 1.21.493ZM215.759 211.773c2.152 0 2.152-3.363 0-3.363-2.197 0-2.197 3.363 0 3.363ZM203.654 215.808c2.152 0 2.152-3.363 0-3.363-2.197 0-2.197 3.363 0 3.363ZM196.391 222.265c2.152 0 2.152-3.363 0-3.363-2.197 0-2.197 3.363 0 3.363ZM177.023 199.667c2.152 0 2.152-3.362 0-3.362-2.197 0-2.197 3.362 0 3.362ZM168.146 190.788c2.152 0 2.152-3.362 0-3.362-2.197 0-2.197 3.362 0 3.362ZM193.163 194.015c2.152 0 2.152-3.363 0-3.363-2.197 0-2.197 3.363 0 3.363ZM217.373 226.519c1.434 0 1.434-2.242 0-2.242-1.48 0-1.48 2.242 0 2.242ZM233.513 221.675c1.435 0 1.435-2.241 0-2.241-1.48 0-1.48 2.241 0 2.241ZM154.696 236.742c1.434 0 1.434-2.242 0-2.242-1.48 0-1.48 2.242 0 2.242ZM156.848 227.597c1.434 0 1.434-2.242 0-2.242-1.48 0-1.48 2.242 0 2.242ZM190.204 234.051c.717 0 .717-1.121 0-1.121-.718 0-.718 1.121 0 1.121ZM184.824 226.519c.717 0 .717-1.121 0-1.121s-.717 1.121 0 1.121ZM186.976 230.285c.717 0 .717-1.121 0-1.121s-.717 1.121 0 1.121ZM192.894 230.824c.717 0 .717-1.121 0-1.121s-.717 1.121 0 1.121ZM194.508 228.136c.717 0 .717-1.12 0-1.12s-.717 1.12 0 1.12ZM180.52 237.281c.717 0 .717-1.121 0-1.121-.718 0-.718 1.121 0 1.121ZM157.386 249.656c.717 0 .717-1.121 0-1.121s-.717 1.121 0 1.121ZM155.771 243.738h1.614c.718 0 .718-1.121 0-1.121h-1.614c-.717 0-.717 1.121 0 1.121ZM162.99 241.449l1.076-.537c.269-.135.358-.539.224-.763-.179-.269-.493-.358-.762-.224l-1.076.538c-.269.135-.359.538-.224.762.179.269.493.359.762.224ZM182.672 252.347c.717 0 .717-1.12 0-1.12-.718 0-.718 1.12 0 1.12ZM176.754 255.039c.717 0 .717-1.121 0-1.121-.718 0-.718 1.121 0 1.121ZM169.76 250.734c.717 0 .717-1.121 0-1.121s-.717 1.121 0 1.121ZM179.444 239.972c.717 0 .717-1.12 0-1.12s-.717 1.12 0 1.12ZM205.806 239.387h-1.614c-.717 0-.717 1.121 0 1.121h1.614c.717 0 .717-1.121 0-1.121ZM197.198 230.824c.717 0 .717-1.121 0-1.121s-.717 1.121 0 1.121ZM200.829 221.009c1.076.18 2.152.344 3.228.494.718.134.987-.942.269-1.076-1.076-.18-2.152-.344-3.228-.494-.672-.134-.986.942-.269 1.076ZM197.736 222.978l-1.076 1.614c-.403.583.583 1.121.986.538l1.076-1.614c.404-.583-.582-1.166-.986-.538Z" fill="#13D7B7"/><path d="M193.925 219.3a61.492 61.492 0 0 1 9.684.314c.718.045.718-1.076 0-1.121a61.492 61.492 0 0 0-9.684-.314c-.717.045-.717 1.166 0 1.121ZM168.684 197.113c.762.762.986 1.479.941 2.466-.044 1.21 1.076 2.241 2.242 2.241 1.255 0 2.197-1.031 2.242-2.241a7.435 7.435 0 0 0-2.242-5.604c-2.062-2.018-5.245 1.12-3.183 3.138ZM178.368 202.624c2.869 0 2.869-4.483 0-4.483-2.914 0-2.914 4.483 0 4.483ZM175.947 209.886c2.869 0 2.869-4.484 0-4.484-2.915 0-2.915 4.484 0 4.484ZM182.807 215.267c1.479-2.915 2.331-5.963 2.6-9.236.224-2.869-4.259-2.869-4.483 0-.18 2.466-.897 4.797-2.018 6.994-1.3 2.555 2.556 4.842 3.901 2.242ZM182.403 191.327c2.869 0 2.869-4.483 0-4.483-2.915 0-2.915 4.483 0 4.483ZM183.21 201.015c2.869 0 2.869-4.484 0-4.484-2.914 0-2.914 4.484 0 4.484ZM169.491 212.804c1.434 0 1.434-2.242 0-2.242-1.48 0-1.48 2.242 0 2.242ZM175.14 204.73c1.434 0 1.434-2.242 0-2.242-1.48 0-1.48 2.242 0 2.242ZM172.719 205.539c1.435 0 1.435-2.242 0-2.242-1.48 0-1.48 2.242 0 2.242ZM168.684 206.347c1.435 0 1.435-2.242 0-2.242-1.48 0-1.48 2.242 0 2.242ZM164.649 205.539c1.434 0 1.434-2.242 0-2.242-1.48 0-1.48 2.242 0 2.242ZM161.421 198.277c1.434 0 1.434-2.242 0-2.242-1.48 0-1.48 2.242 0 2.242ZM167.877 192.624c1.434 0 1.434-2.241 0-2.241-1.48 0-1.48 2.241 0 2.241ZM138.017 203.121c1.435 0 1.435-2.242 0-2.242-1.479 0-1.479 2.242 0 2.242ZM155.772 240.242c1.434 0 1.434-2.242 0-2.242-1.48 0-1.48 2.242 0 2.242ZM192.087 242.66c1.434 0 1.434-2.242 0-2.242-1.48 0-1.48 2.242 0 2.242Z" fill="#13D7B7"/><path d="M197.736 220.874c1.435 0 1.435-2.241 0-2.241-1.479 0-1.479 2.241 0 2.241ZM209.841 231.367c1.435 0 1.435-2.242 0-2.242-1.479 0-1.479 2.242 0 2.242ZM188.052 232.171c1.435 0 1.435-2.241 0-2.241-1.479 0-1.479 2.241 0 2.241ZM190.473 227.332c1.434 0 1.434-2.242 0-2.242-1.48 0-1.48 2.242 0 2.242ZM190.473 222.668h-.807c-.583 0-1.166.538-1.121 1.121a1.11 1.11 0 0 0 1.121 1.121h.807c.583 0 1.121-.494 1.121-1.121-.045-.583-.493-1.121-1.121-1.121ZM175.947 220.066c1.434 0 1.434-2.242 0-2.242-1.48 0-1.48 2.242 0 2.242ZM172.719 220.066c1.435 0 1.435-2.242 0-2.242-1.48 0-1.48 2.242 0 2.242ZM173.257 216.706l3.228-1.614c1.3-.673.179-2.601-1.121-1.928l-3.228 1.614c-1.3.627-.135 2.555 1.121 1.928Z" fill="#13D7B7"/><path d="M177.561 213.609c1.434 0 1.434-2.242 0-2.242-1.48 0-1.48 2.242 0 2.242Z" fill="#13D7B7"/><path d="m179.13 210.067-.807-.807c-.404-.404-1.166-.404-1.569 0-.404.448-.449 1.165 0 1.614l.807.807c.403.403 1.165.448 1.569 0a1.137 1.137 0 0 0 0-1.614ZM172.719 209.574c1.435 0 1.435-2.242 0-2.242-1.48 0-1.48 2.242 0 2.242Z" fill="#13D7B7"/><path d="M170.656 208.814a236.55 236.55 0 0 0 1.659 4.035c.224.583.718.941 1.39.762.493-.134.987-.807.762-1.345-.568-1.345-1.12-2.69-1.658-4.035-.225-.538-.763-.941-1.39-.762-.538.134-.987.807-.763 1.345ZM174.333 216.031c1.434 0 1.434-2.242 0-2.242-1.48 0-1.48 2.242 0 2.242ZM175.947 219.261c1.434 0 1.434-2.241 0-2.241-1.48 0-1.48 2.241 0 2.241ZM180.789 221.679c1.435 0 1.435-2.241 0-2.241-1.479 0-1.479 2.241 0 2.241ZM186.438 216.839c1.434 0 1.434-2.241 0-2.241-1.48 0-1.48 2.241 0 2.241Z" fill="#13D7B7"/><path d="M188.052 216.839c1.435 0 1.435-2.241 0-2.241-1.479 0-1.479 2.241 0 2.241ZM187.245 209.355c2.152 0 2.152-3.363 0-3.363-2.197 0-2.197 3.363 0 3.363ZM188.859 213.386c2.152 0 2.152-3.363 0-3.363-2.197 0-2.197 3.363 0 3.363ZM180.789 208.542c2.152 0 2.152-3.362 0-3.362-2.197 0-2.197 3.362 0 3.362ZM178.368 203.702c2.152 0 2.152-3.362 0-3.362-2.197 0-2.197 3.362 0 3.362ZM177.561 196.437c2.152 0 2.152-3.363 0-3.363-2.197 0-2.197 3.363 0 3.363ZM188.052 202.085c2.152 0 2.152-3.362 0-3.362-2.197 0-2.197 3.362 0 3.362ZM192.087 206.12c2.152 0 2.152-3.362 0-3.362-2.197 0-2.197 3.362 0 3.362Z" fill="#13D7B7"/><path d="M186.438 206.929c2.152 0 2.152-3.363 0-3.363-2.197 0-2.197 3.363 0 3.363Z" fill="#13D7B7"/><path d="M187.29 205.225v-.807c0-.403-.18-.896-.493-1.165-.269-.314-.763-.538-1.166-.493-.448 0-.897.134-1.211.493a1.63 1.63 0 0 0-.493 1.165v.807c0 .449.18.897.493 1.211.314.269.763.493 1.211.493.403-.045.852-.179 1.166-.493.313-.359.493-.762.493-1.211Z" fill="#13D7B7"/><path d="M184.824 203.702c2.152 0 2.152-3.362 0-3.362-2.197 0-2.197 3.362 0 3.362ZM179.982 203.702c2.152 0 2.152-3.362 0-3.362-2.197 0-2.197 3.362 0 3.362ZM173.526 202.894c2.152 0 2.152-3.363 0-3.363-2.197 0-2.197 3.363 0 3.363ZM166.263 203.702c2.152 0 2.152-3.362 0-3.362-2.197 0-2.197 3.362 0 3.362ZM182.403 195.05h.807c.583 0 1.121-.493 1.121-1.121-.045-.582-.493-1.12-1.121-1.12h-.807c-.583 0-1.166.538-1.121 1.12a1.11 1.11 0 0 0 1.121 1.121ZM186.438 194.242c1.434 0 1.434-2.242 0-2.242-1.48 0-1.48 2.242 0 2.242ZM179.982 199.085c1.435 0 1.435-2.241 0-2.241-1.48 0-1.48 2.241 0 2.241Z" fill="#13D7B7"/><path d="M172.315 195.319c3.139.897 5.829 2.825 7.622 5.56.807 1.165 2.735.045 1.928-1.121-2.152-3.228-5.246-5.515-8.967-6.591-1.39-.403-1.973 1.749-.583 2.152Z" fill="#13D7B7"/><path d="M180.475 201.235a747.948 747.948 0 0 1 4.797-2.466c1.3-.628.18-2.6-1.121-1.928l-4.842 2.421c-1.255.673-.134 2.6 1.166 1.973ZM191.28 195.859c1.434 0 1.434-2.242 0-2.242-1.48 0-1.48 2.242 0 2.242ZM192.087 199.085c1.434 0 1.434-2.241 0-2.241-1.48 0-1.48 2.241 0 2.241ZM196.929 199.894c1.435 0 1.435-2.242 0-2.242-1.48 0-1.48 2.242 0 2.242ZM196.122 213.609c1.435 0 1.435-2.242 0-2.242-1.48 0-1.48 2.242 0 2.242ZM190.473 206.347c1.434 0 1.434-2.242 0-2.242-1.48 0-1.48 2.242 0 2.242Z" fill="#13D7B7"/><path d="M190.473 203.297h-2.87c-.538 0-1.031.448-1.12.986-.045.494.269 1.121.807 1.211 1.479.224 2.824-.134 3.945-1.121.448-.358.403-1.165 0-1.569-.448-.448-1.121-.403-1.569 0-.493.404-1.166.628-1.794.538a361.5 361.5 0 0 1-.269 2.197h2.87c1.434 0 1.434-2.242 0-2.242ZM192.894 202.312c1.435 0 1.435-2.242 0-2.242-1.479 0-1.479 2.242 0 2.242ZM192.894 199.894c1.435 0 1.435-2.242 0-2.242-1.479 0-1.479 2.242 0 2.242ZM188.052 198.277c1.434 0 1.434-2.242 0-2.242-1.48 0-1.48 2.242 0 2.242Z" fill="#13D7B7"/><path d="M185.631 198.277c1.435 0 1.435-2.242 0-2.242-1.48 0-1.48 2.242 0 2.242ZM169.491 222.265c2.152 0 2.152-3.363 0-3.363-2.197 0-2.197 3.363 0 3.363ZM179.175 227.105c2.152 0 2.152-3.363 0-3.363-2.197 0-2.197 3.363 0 3.363ZM202.578 211.773h.807c.404 0 .852-.225 1.166-.494.314-.313.538-.762.493-1.21 0-.448-.134-.897-.493-1.166a1.629 1.629 0 0 0-1.166-.493h-.807a1.73 1.73 0 0 0-1.21.493c-.269.269-.493.762-.493 1.166.044.448.179.897.493 1.21.313.269.762.494 1.21.494ZM211.455 202.085c2.152 0 2.152-3.362 0-3.362-2.197 0-2.197 3.362 0 3.362ZM199.35 206.12c2.152 0 2.152-3.362 0-3.362-2.197 0-2.197 3.362 0 3.362ZM192.087 212.577c2.152 0 2.152-3.362 0-3.362-2.197 0-2.197 3.362 0 3.362ZM172.719 189.98c2.152 0 2.152-3.363 0-3.363-2.197 0-2.197 3.363 0 3.363ZM163.842 181.105c2.152 0 2.152-3.363 0-3.363-2.197 0-2.197 3.363 0 3.363ZM188.859 184.335c2.152 0 2.152-3.362 0-3.362-2.197 0-2.197 3.362 0 3.362ZM213.069 216.839c1.435 0 1.435-2.241 0-2.241-1.479 0-1.479 2.241 0 2.241ZM229.209 211.996c1.435 0 1.435-2.242 0-2.242-1.479 0-1.479 2.242 0 2.242ZM150.392 227.062c1.434 0 1.434-2.242 0-2.242-1.48 0-1.48 2.242 0 2.242ZM152.544 217.914c1.434 0 1.434-2.242 0-2.242-1.48 0-1.48 2.242 0 2.242ZM185.9 224.371c.717 0 .717-1.121 0-1.121-.718 0-.718 1.121 0 1.121ZM180.52 216.84c.717 0 .717-1.121 0-1.121-.718 0-.718 1.121 0 1.121ZM182.672 220.605c.717 0 .717-1.121 0-1.121-.718 0-.718 1.121 0 1.121ZM188.59 221.144c.717 0 .717-1.121 0-1.121-.718 0-.718 1.121 0 1.121ZM190.204 218.449c.717 0 .717-1.121 0-1.121-.718 0-.718 1.121 0 1.121ZM176.216 227.597c.717 0 .717-1.12 0-1.12s-.717 1.12 0 1.12ZM153.082 239.972c.717 0 .717-1.12 0-1.12-.718 0-.718 1.12 0 1.12ZM151.468 234.058h1.614c.717 0 .717-1.12 0-1.12h-1.614c-.718 0-.718 1.12 0 1.12ZM158.686 231.766l1.076-.538c.269-.135.358-.538.224-.762-.179-.269-.493-.359-.762-.225l-1.076.538c-.269.135-.359.538-.224.763.179.269.493.358.762.224ZM178.368 242.66c.717 0 .717-1.121 0-1.121s-.717 1.121 0 1.121ZM172.45 245.351c.717 0 .717-1.121 0-1.121-.718 0-.718 1.121 0 1.121ZM165.456 241.047c.717 0 .717-1.121 0-1.121s-.717 1.121 0 1.121ZM175.14 230.285c.717 0 .717-1.121 0-1.121-.718 0-.718 1.121 0 1.121ZM201.502 229.703h-1.614c-.717 0-.717 1.121 0 1.121h1.614c.717 0 .717-1.121 0-1.121ZM192.894 221.144c.717 0 .717-1.121 0-1.121s-.717 1.121 0 1.121ZM196.526 211.322c1.076.179 2.152.344 3.228.493.717.135.986-.941.269-1.076a119.857 119.857 0 0 0-3.228-.493c-.673-.135-.987.942-.269 1.076ZM193.432 213.294l-1.076 1.614c-.404.583.583 1.121.986.538l1.076-1.614c.404-.583-.583-1.165-.986-.538Z" fill="#13D7B7"/><path d="M189.621 209.62a61.613 61.613 0 0 1 9.684.314c.717.045.717-1.076 0-1.121a61.492 61.492 0 0 0-9.684-.313c-.717.044-.717 1.165 0 1.12ZM167.608 194.961c.762.762.986 1.479.942 2.465-.045 1.211 1.076 2.242 2.241 2.242 1.256 0 2.197-1.031 2.242-2.242a7.433 7.433 0 0 0-2.242-5.604c-2.062-2.017-5.245 1.121-3.183 3.139ZM177.292 200.472c2.869 0 2.869-4.484 0-4.484-2.914 0-2.914 4.484 0 4.484ZM174.871 207.737c2.869 0 2.869-4.483 0-4.483-2.914 0-2.914 4.483 0 4.483ZM181.73 213.118c1.48-2.914 2.332-5.963 2.601-9.236.224-2.869-4.259-2.869-4.484 0-.179 2.466-.896 4.798-2.017 6.995-1.3 2.555 2.555 4.842 3.9 2.241ZM181.327 189.175c2.869 0 2.869-4.484 0-4.484-2.914 0-2.914 4.484 0 4.484ZM182.134 198.858c2.869 0 2.869-4.483 0-4.483-2.914 0-2.914 4.483 0 4.483ZM168.415 210.652c1.434 0 1.434-2.242 0-2.242-1.48 0-1.48 2.242 0 2.242ZM174.064 202.582c1.435 0 1.435-2.242 0-2.242-1.48 0-1.48 2.242 0 2.242ZM171.643 203.386c1.435 0 1.435-2.241 0-2.241-1.48 0-1.48 2.241 0 2.241ZM167.608 204.199c1.434 0 1.434-2.242 0-2.242-1.48 0-1.48 2.242 0 2.242ZM163.573 203.386c1.434 0 1.434-2.241 0-2.241-1.48 0-1.48 2.241 0 2.241ZM160.345 196.128c1.434 0 1.434-2.241 0-2.241-1.48 0-1.48 2.241 0 2.241ZM166.801 190.476c1.434 0 1.434-2.242 0-2.242-1.48 0-1.48 2.242 0 2.242ZM136.942 200.964c1.434 0 1.434-2.241 0-2.241-1.48 0-1.48 2.241 0 2.241ZM154.696 238.085c1.434 0 1.434-2.241 0-2.241-1.48 0-1.48 2.241 0 2.241ZM191.011 240.511c1.435 0 1.435-2.241 0-2.241-1.48 0-1.48 2.241 0 2.241ZM196.66 218.722c1.435 0 1.435-2.242 0-2.242-1.48 0-1.48 2.242 0 2.242ZM208.765 229.214c1.435 0 1.435-2.241 0-2.241-1.48 0-1.48 2.241 0 2.241ZM186.976 230.015c1.435 0 1.435-2.242 0-2.242-1.479 0-1.479 2.242 0 2.242ZM189.397 225.179c1.435 0 1.435-2.241 0-2.241-1.48 0-1.48 2.241 0 2.241ZM189.397 220.512h-.807c-.583 0-1.166.538-1.121 1.121 0 .627.493 1.12 1.121 1.12h.807c.583 0 1.121-.493 1.121-1.12-.045-.583-.493-1.121-1.121-1.121ZM174.871 217.91c1.435 0 1.435-2.242 0-2.242-1.48 0-1.48 2.242 0 2.242ZM171.643 217.91c1.435 0 1.435-2.242 0-2.242-1.48 0-1.48 2.242 0 2.242ZM172.181 214.553l3.228-1.614c1.3-.672.179-2.6-1.121-1.928l-3.228 1.614c-1.3.628-.134 2.556 1.121 1.928Z" fill="#13D7B7"/><path d="M176.485 211.457c1.435 0 1.435-2.242 0-2.242-1.48 0-1.48 2.242 0 2.242Z" fill="#13D7B7"/><path d="m178.054 207.914-.807-.807c-.404-.403-1.166-.403-1.569 0-.404.449-.449 1.166 0 1.614l.807.807c.403.404 1.166.449 1.569 0a1.137 1.137 0 0 0 0-1.614ZM171.643 207.421c1.435 0 1.435-2.241 0-2.241-1.48 0-1.48 2.241 0 2.241Z" fill="#13D7B7"/><path d="M169.58 206.662c.538 1.345 1.091 2.69 1.659 4.035.224.583.718.941 1.39.762.493-.135.986-.807.762-1.345a228.665 228.665 0 0 1-1.659-4.035c-.224-.538-.762-.942-1.39-.762-.538.134-.986.807-.762 1.345ZM173.257 213.874c1.434 0 1.434-2.241 0-2.241-1.48 0-1.48 2.241 0 2.241ZM174.871 217.109c1.435 0 1.435-2.242 0-2.242-1.48 0-1.48 2.242 0 2.242ZM179.713 219.527c1.435 0 1.435-2.242 0-2.242-1.48 0-1.48 2.242 0 2.242ZM185.362 214.687c1.435 0 1.435-2.242 0-2.242-1.48 0-1.48 2.242 0 2.242Z" fill="#13D7B7"/><path d="M186.976 214.687c1.435 0 1.435-2.242 0-2.242-1.479 0-1.479 2.242 0 2.242ZM186.169 207.198c2.152 0 2.152-3.362 0-3.362-2.197 0-2.197 3.362 0 3.362ZM187.783 211.23c2.152 0 2.152-3.363 0-3.363-2.197 0-2.197 3.363 0 3.363ZM179.713 206.39c2.152 0 2.152-3.363 0-3.363-2.197 0-2.197 3.363 0 3.363ZM177.292 201.546c2.152 0 2.152-3.362 0-3.362-2.197 0-2.197 3.362 0 3.362ZM176.485 194.284c2.152 0 2.152-3.362 0-3.362-2.197 0-2.197 3.362 0 3.362ZM186.976 199.937c2.152 0 2.152-3.363 0-3.363-2.197 0-2.197 3.363 0 3.363ZM191.011 203.972c2.152 0 2.152-3.363 0-3.363-2.197 0-2.197 3.363 0 3.363Z" fill="#13D7B7"/><path d="M185.362 204.777c2.152 0 2.152-3.363 0-3.363-2.197 0-2.197 3.363 0 3.363Z" fill="#13D7B7"/><path d="M186.214 203.073v-.807c0-.403-.18-.897-.494-1.166-.269-.313-.762-.538-1.165-.493-.449 0-.897.135-1.211.493a1.629 1.629 0 0 0-.493 1.166v.807c0 .448.179.897.493 1.211.314.269.762.493 1.211.493.403-.045.852-.18 1.165-.493.314-.359.494-.763.494-1.211Z" fill="#13D7B7"/><path d="M183.748 201.546c2.152 0 2.152-3.362 0-3.362-2.197 0-2.197 3.362 0 3.362ZM178.906 201.546c2.152 0 2.152-3.362 0-3.362-2.197 0-2.197 3.362 0 3.362ZM172.45 200.741c2.152 0 2.152-3.362 0-3.362-2.197 0-2.197 3.362 0 3.362ZM165.187 201.546c2.152 0 2.152-3.362 0-3.362-2.197 0-2.197 3.362 0 3.362ZM181.327 192.894h.807c.583 0 1.121-.493 1.121-1.121-.045-.583-.493-1.121-1.121-1.121h-.807c-.583 0-1.166.538-1.121 1.121a1.11 1.11 0 0 0 1.121 1.121ZM185.362 192.093c1.435 0 1.435-2.241 0-2.241-1.48 0-1.48 2.241 0 2.241ZM178.906 196.929c1.435 0 1.435-2.241 0-2.241-1.479 0-1.479 2.241 0 2.241Z" fill="#13D7B7"/><path d="M171.239 193.163c3.138.897 5.828 2.825 7.622 5.559.807 1.166 2.735.045 1.928-1.12-2.152-3.228-5.246-5.515-8.967-6.591-1.39-.403-1.973 1.749-.583 2.152Z" fill="#13D7B7"/><path d="M179.399 199.082a802.46 802.46 0 0 1 4.797-2.465c1.3-.628.18-2.601-1.121-1.928l-4.842 2.421c-1.255.672-.134 2.6 1.166 1.972ZM190.204 193.703c1.435 0 1.435-2.242 0-2.242-1.479 0-1.479 2.242 0 2.242ZM191.011 196.929c1.434 0 1.434-2.241 0-2.241-1.48 0-1.48 2.241 0 2.241ZM195.853 197.738c1.435 0 1.435-2.242 0-2.242-1.479 0-1.479 2.242 0 2.242ZM195.046 211.457c1.435 0 1.435-2.242 0-2.242-1.479 0-1.479 2.242 0 2.242ZM189.397 204.199c1.435 0 1.435-2.242 0-2.242-1.48 0-1.48 2.242 0 2.242Z" fill="#13D7B7"/><path d="M189.397 201.145h-2.869c-.538 0-1.031.448-1.121.986-.045.493.269 1.121.807 1.211 1.479.224 2.825-.135 3.945-1.121.449-.359.404-1.166 0-1.569-.448-.449-1.12-.404-1.569 0-.493.403-1.165.627-1.793.538-.09.747-.179 1.479-.269 2.196h2.869c1.435 0 1.435-2.241 0-2.241ZM191.818 200.164c1.435 0 1.435-2.242 0-2.242-1.48 0-1.48 2.242 0 2.242ZM191.818 197.738c1.435 0 1.435-2.242 0-2.242-1.48 0-1.48 2.242 0 2.242ZM186.976 196.128c1.435 0 1.435-2.241 0-2.241-1.479 0-1.479 2.241 0 2.241Z" fill="#13D7B7"/><path d="M184.555 196.128c1.434 0 1.434-2.241 0-2.241-1.48 0-1.48 2.241 0 2.241ZM168.415 220.113c2.152 0 2.152-3.363 0-3.363-2.197 0-2.197 3.363 0 3.363ZM178.099 224.952c2.152 0 2.152-3.362 0-3.362-2.197 0-2.197 3.362 0 3.362ZM201.502 209.62h.807c.404 0 .852-.224 1.166-.493.314-.314.538-.762.493-1.21 0-.449-.134-.897-.493-1.166a1.627 1.627 0 0 0-1.166-.493h-.807c-.448 0-.896.179-1.21.493-.269.269-.493.762-.493 1.166.044.448.179.896.493 1.21.314.269.762.493 1.21.493ZM210.379 199.937c2.152 0 2.152-3.363 0-3.363-2.197 0-2.197 3.363 0 3.363ZM198.274 203.972c2.152 0 2.152-3.363 0-3.363-2.197 0-2.197 3.363 0 3.363ZM191.011 210.425c2.152 0 2.152-3.363 0-3.363-2.197 0-2.197 3.363 0 3.363ZM171.643 187.831c2.152 0 2.152-3.362 0-3.362-2.197 0-2.197 3.362 0 3.362ZM162.766 178.952c2.152 0 2.152-3.362 0-3.362-2.197 0-2.197 3.362 0 3.362ZM187.783 182.179c2.152 0 2.152-3.363 0-3.363-2.197 0-2.197 3.363 0 3.363ZM211.993 214.687c1.435 0 1.435-2.242 0-2.242-1.48 0-1.48 2.242 0 2.242ZM228.133 209.839c1.435 0 1.435-2.241 0-2.241-1.479 0-1.479 2.241 0 2.241ZM149.316 224.91c1.434 0 1.434-2.242 0-2.242-1.48 0-1.48 2.242 0 2.242ZM151.468 215.761c1.434 0 1.434-2.241 0-2.241-1.48 0-1.48 2.241 0 2.241ZM184.824 222.215c.717 0 .717-1.121 0-1.121s-.717 1.121 0 1.121ZM179.444 214.683c.717 0 .717-1.121 0-1.121s-.717 1.121 0 1.121ZM181.596 218.449c.717 0 .717-1.121 0-1.121s-.717 1.121 0 1.121ZM187.514 218.988c.717 0 .717-1.121 0-1.121s-.717 1.121 0 1.121ZM189.128 216.301c.717 0 .717-1.121 0-1.121s-.717 1.121 0 1.121ZM175.14 225.449c.717 0 .717-1.121 0-1.121-.718 0-.718 1.121 0 1.121ZM152.006 237.82c.717 0 .717-1.121 0-1.121s-.717 1.121 0 1.121ZM150.392 231.902h1.614c.717 0 .717-1.121 0-1.121h-1.614c-.718 0-.718 1.121 0 1.121ZM157.61 229.613l1.076-.538c.269-.134.358-.538.224-.762-.18-.269-.493-.358-.762-.224l-1.076.538c-.269.135-.359.538-.225.762.18.269.494.359.763.224ZM177.292 240.511c.717 0 .717-1.12 0-1.12s-.717 1.12 0 1.12ZM171.374 243.199c.717 0 .717-1.121 0-1.121-.718 0-.718 1.121 0 1.121ZM164.38 238.894c.717 0 .717-1.121 0-1.121-.718 0-.718 1.121 0 1.121ZM174.064 228.136c.717 0 .717-1.12 0-1.12s-.717 1.12 0 1.12ZM200.426 227.551h-1.614c-.717 0-.717 1.121 0 1.121h1.614c.717 0 .717-1.121 0-1.121ZM191.818 218.988c.717 0 .717-1.121 0-1.121s-.717 1.121 0 1.121ZM195.449 209.17c1.076.179 2.152.343 3.228.493.718.134.987-.942.269-1.076a119.857 119.857 0 0 0-3.228-.493c-.672-.135-.986.941-.269 1.076ZM192.356 211.142l-1.076 1.614c-.404.583.583 1.121.986.538l1.076-1.614c.404-.583-.583-1.166-.986-.538Z" fill="#13D7B7"/><path d="M188.545 207.464a61.492 61.492 0 0 1 9.684.314c.717.045.717-1.076 0-1.121a61.492 61.492 0 0 0-9.684-.314c-.717.045-.717 1.166 0 1.121ZM164.38 193.882c.762.763.986 1.48.941 2.466-.045 1.211 1.076 2.242 2.242 2.242 1.255 0 2.197-1.031 2.242-2.242a7.44 7.44 0 0 0-2.242-5.604c-2.062-2.017-5.246 1.121-3.183 3.138ZM174.064 199.394c2.869 0 2.869-4.484 0-4.484-2.914 0-2.914 4.484 0 4.484ZM171.643 206.659c2.869 0 2.869-4.483 0-4.483-2.914 0-2.914 4.483 0 4.483ZM178.502 212.04c1.48-2.914 2.332-5.963 2.601-9.236.224-2.869-4.259-2.869-4.484 0-.179 2.466-.896 4.798-2.017 6.994-1.3 2.556 2.555 4.842 3.9 2.242ZM178.099 188.101c2.869 0 2.869-4.484 0-4.484-2.914 0-2.914 4.484 0 4.484ZM178.906 197.78c2.869 0 2.869-4.483 0-4.483-2.914 0-2.914 4.483 0 4.483ZM165.187 209.574c1.434 0 1.434-2.242 0-2.242-1.48 0-1.48 2.242 0 2.242ZM170.836 201.503c1.435 0 1.435-2.241 0-2.241-1.48 0-1.48 2.241 0 2.241ZM168.415 202.308c1.434 0 1.434-2.242 0-2.242-1.48 0-1.48 2.242 0 2.242ZM164.38 203.121c1.434 0 1.434-2.242 0-2.242-1.48 0-1.48 2.242 0 2.242ZM160.344 202.308c1.435 0 1.435-2.242 0-2.242-1.479 0-1.479 2.242 0 2.242ZM157.117 195.05c1.434 0 1.434-2.241 0-2.241-1.48 0-1.48 2.241 0 2.241ZM163.573 189.398c1.434 0 1.434-2.242 0-2.242-1.48 0-1.48 2.242 0 2.242ZM133.714 199.89c1.434 0 1.434-2.242 0-2.242-1.48 0-1.48 2.242 0 2.242ZM151.468 237.011c1.434 0 1.434-2.241 0-2.241-1.48 0-1.48 2.241 0 2.241ZM187.783 239.433c1.435 0 1.435-2.242 0-2.242-1.48 0-1.48 2.242 0 2.242ZM193.432 217.64c1.435 0 1.435-2.242 0-2.242-1.48 0-1.48 2.242 0 2.242ZM205.537 228.136c1.435 0 1.435-2.241 0-2.241-1.479 0-1.479 2.241 0 2.241ZM183.748 228.941c1.434 0 1.434-2.242 0-2.242-1.48 0-1.48 2.242 0 2.242ZM186.169 224.101c1.435 0 1.435-2.242 0-2.242-1.48 0-1.48 2.242 0 2.242ZM186.169 219.434h-.807c-.583 0-1.166.538-1.121 1.12a1.11 1.11 0 0 0 1.121 1.121h.807c.583 0 1.121-.493 1.121-1.121-.045-.582-.493-1.12-1.121-1.12ZM171.643 216.835c1.435 0 1.435-2.241 0-2.241-1.48 0-1.48 2.241 0 2.241ZM168.415 216.835c1.434 0 1.434-2.241 0-2.241-1.48 0-1.48 2.241 0 2.241ZM168.953 213.475l3.228-1.614c1.3-.672.179-2.6-1.121-1.928l-3.228 1.614c-1.3.628-.135 2.556 1.121 1.928Z" fill="#13D7B7"/><path d="M173.257 210.378c1.435 0 1.435-2.241 0-2.241-1.48 0-1.48 2.241 0 2.241Z" fill="#13D7B7"/><path d="m174.826 206.836-.807-.807c-.403-.403-1.165-.403-1.569 0-.403.449-.448 1.166 0 1.614l.807.807c.404.404 1.166.449 1.569 0a1.135 1.135 0 0 0 0-1.614ZM168.415 206.343c1.434 0 1.434-2.241 0-2.241-1.48 0-1.48 2.241 0 2.241Z" fill="#13D7B7"/><path d="M166.353 205.584c.538 1.345 1.09 2.69 1.658 4.035.225.582.718.941 1.39.762.493-.135.987-.807.762-1.345a236.55 236.55 0 0 1-1.659-4.035c-.224-.538-.762-.942-1.389-.763-.538.135-.987.808-.762 1.346ZM170.029 212.8c1.434 0 1.434-2.241 0-2.241-1.48 0-1.48 2.241 0 2.241ZM171.643 216.031c1.435 0 1.435-2.242 0-2.242-1.48 0-1.48 2.242 0 2.242ZM176.485 218.449c1.434 0 1.434-2.242 0-2.242-1.48 0-1.48 2.242 0 2.242ZM182.134 213.609c1.435 0 1.435-2.242 0-2.242-1.479 0-1.479 2.242 0 2.242Z" fill="#13D7B7"/><path d="M183.748 213.609c1.434 0 1.434-2.242 0-2.242-1.48 0-1.48 2.242 0 2.242ZM182.941 206.116c2.152 0 2.152-3.362 0-3.362-2.197 0-2.197 3.362 0 3.362ZM184.555 210.152c2.152 0 2.152-3.363 0-3.363-2.197 0-2.197 3.363 0 3.363ZM176.485 205.316c2.152 0 2.152-3.363 0-3.363-2.197 0-2.197 3.363 0 3.363ZM174.064 200.472c2.152 0 2.152-3.363 0-3.363-2.197 0-2.197 3.363 0 3.363ZM173.257 193.21c2.152 0 2.152-3.362 0-3.362-2.197 0-2.197 3.362 0 3.362ZM183.748 198.859c2.152 0 2.152-3.363 0-3.363-2.197 0-2.197 3.363 0 3.363ZM187.783 202.894c2.152 0 2.152-3.363 0-3.363-2.197 0-2.197 3.363 0 3.363Z" fill="#13D7B7"/><path d="M182.134 203.698c2.152 0 2.152-3.362 0-3.362-2.197 0-2.197 3.362 0 3.362Z" fill="#13D7B7"/><path d="M182.986 201.995v-.807c0-.404-.179-.897-.493-1.166-.269-.314-.763-.538-1.166-.493-.448 0-.897.135-1.21.493a1.63 1.63 0 0 0-.494 1.166v.807c0 .448.18.897.494 1.21.313.269.762.494 1.21.494.403-.045.852-.18 1.166-.494.314-.358.493-.762.493-1.21Z" fill="#13D7B7"/><path d="M180.52 200.472c2.152 0 2.152-3.363 0-3.363-2.197 0-2.197 3.363 0 3.363ZM175.678 200.472c2.152 0 2.152-3.363 0-3.363-2.197 0-2.197 3.363 0 3.363ZM169.222 199.663c2.152 0 2.152-3.362 0-3.362-2.197 0-2.197 3.362 0 3.362ZM161.959 200.472c2.152 0 2.152-3.363 0-3.363-2.197 0-2.197 3.363 0 3.363ZM178.099 191.82h.807c.583 0 1.121-.493 1.121-1.121-.045-.583-.493-1.121-1.121-1.121h-.807c-.583 0-1.166.538-1.121 1.121a1.11 1.11 0 0 0 1.121 1.121ZM182.134 191.015c1.435 0 1.435-2.242 0-2.242-1.479 0-1.479 2.242 0 2.242ZM175.678 195.855c1.434 0 1.434-2.242 0-2.242-1.48 0-1.48 2.242 0 2.242Z" fill="#13D7B7"/><path d="M168.011 192.089c3.139.897 5.829 2.824 7.622 5.559.807 1.166 2.735.045 1.928-1.12-2.152-3.229-5.246-5.515-8.967-6.591-1.39-.404-1.973 1.748-.583 2.152Z" fill="#13D7B7"/><path d="M176.171 198.008a747.948 747.948 0 0 1 4.797-2.466c1.3-.627.179-2.6-1.121-1.928l-4.842 2.421c-1.255.673-.134 2.601 1.166 1.973ZM186.976 192.624c1.435 0 1.435-2.241 0-2.241-1.479 0-1.479 2.241 0 2.241ZM187.783 195.855c1.435 0 1.435-2.242 0-2.242-1.48 0-1.48 2.242 0 2.242ZM192.625 196.66c1.434 0 1.434-2.242 0-2.242-1.48 0-1.48 2.242 0 2.242ZM191.818 210.378c1.435 0 1.435-2.241 0-2.241-1.48 0-1.48 2.241 0 2.241ZM186.169 203.121c1.435 0 1.435-2.242 0-2.242-1.48 0-1.48 2.242 0 2.242Z" fill="#13D7B7"/><path d="M186.169 200.067h-2.87c-.538 0-1.031.448-1.12.986-.045.493.269 1.121.807 1.211 1.479.224 2.824-.135 3.945-1.121.448-.359.403-1.166 0-1.569-.448-.449-1.121-.404-1.569 0-.493.403-1.166.627-1.794.538-.089.747-.179 1.479-.269 2.196h2.87c1.434 0 1.434-2.241 0-2.241ZM188.59 199.085c1.435 0 1.435-2.241 0-2.241-1.48 0-1.48 2.241 0 2.241ZM188.59 196.66c1.435 0 1.435-2.242 0-2.242-1.48 0-1.48 2.242 0 2.242ZM183.748 195.05c1.434 0 1.434-2.241 0-2.241-1.48 0-1.48 2.241 0 2.241Z" fill="#13D7B7"/><path d="M181.327 195.05c1.435 0 1.435-2.241 0-2.241-1.48 0-1.48 2.241 0 2.241ZM165.187 219.034c2.152 0 2.152-3.362 0-3.362-2.197 0-2.197 3.362 0 3.362ZM174.871 223.874c2.152 0 2.152-3.362 0-3.362-2.197 0-2.197 3.362 0 3.362ZM198.274 208.542h.807c.404 0 .852-.224 1.166-.493.313-.314.538-.762.493-1.21 0-.449-.135-.897-.493-1.166a1.629 1.629 0 0 0-1.166-.493h-.807a1.73 1.73 0 0 0-1.21.493c-.269.269-.494.762-.494 1.166.045.448.18.896.494 1.21.313.269.762.493 1.21.493ZM207.151 198.859c2.152 0 2.152-3.363 0-3.363-2.197 0-2.197 3.363 0 3.363ZM195.046 202.894c2.152 0 2.152-3.363 0-3.363-2.197 0-2.197 3.363 0 3.363ZM187.783 209.351c2.152 0 2.152-3.363 0-3.363-2.197 0-2.197 3.363 0 3.363ZM168.415 186.753c2.152 0 2.152-3.362 0-3.362-2.197 0-2.197 3.362 0 3.362ZM159.538 177.874c2.152 0 2.152-3.362 0-3.362-2.197 0-2.197 3.362 0 3.362ZM184.555 181.101c2.152 0 2.152-3.363 0-3.363-2.197 0-2.197 3.363 0 3.363ZM208.765 213.609c1.435 0 1.435-2.242 0-2.242-1.48 0-1.48 2.242 0 2.242ZM224.905 208.761c1.435 0 1.435-2.241 0-2.241-1.479 0-1.479 2.241 0 2.241ZM146.088 223.832c1.434 0 1.434-2.242 0-2.242-1.48 0-1.48 2.242 0 2.242ZM148.24 214.683c1.434 0 1.434-2.242 0-2.242-1.48 0-1.48 2.242 0 2.242ZM181.596 221.14c.717 0 .717-1.12 0-1.12s-.717 1.12 0 1.12ZM176.216 213.605c.717 0 .717-1.121 0-1.121s-.717 1.121 0 1.121ZM178.368 217.375c.717 0 .717-1.121 0-1.121s-.717 1.121 0 1.121ZM184.286 217.91c.717 0 .717-1.121 0-1.121s-.717 1.121 0 1.121ZM185.9 215.222c.717 0 .717-1.12 0-1.12s-.717 1.12 0 1.12ZM171.912 224.371c.717 0 .717-1.121 0-1.121-.718 0-.718 1.121 0 1.121ZM148.778 236.742c.717 0 .717-1.121 0-1.121-.718 0-.718 1.121 0 1.121ZM147.163 230.824h1.614c.718 0 .718-1.121 0-1.121h-1.614c-.717 0-.717 1.121 0 1.121ZM154.382 228.535l1.076-.538c.269-.134.359-.538.224-.762-.179-.269-.493-.358-.762-.224l-1.076.538c-.269.134-.359.538-.224.762.179.269.493.359.762.224ZM174.064 239.433c.717 0 .717-1.121 0-1.121s-.717 1.121 0 1.121ZM168.146 242.125c.717 0 .717-1.121 0-1.121s-.717 1.121 0 1.121ZM161.152 237.82c.717 0 .717-1.121 0-1.121-.718 0-.718 1.121 0 1.121ZM170.836 227.058c.717 0 .717-1.12 0-1.12s-.717 1.12 0 1.12ZM197.198 226.473h-1.614c-.717 0-.717 1.12 0 1.12h1.614c.717 0 .717-1.12 0-1.12ZM188.59 217.91c.717 0 .717-1.121 0-1.121s-.717 1.121 0 1.121ZM192.221 208.095c1.076.18 2.152.344 3.228.494.718.134.987-.942.269-1.076-1.076-.18-2.152-.344-3.228-.494-.672-.134-.986.942-.269 1.076ZM189.128 210.064l-1.076 1.614c-.403.583.583 1.121.986.538l1.077-1.614c.403-.583-.583-1.166-.987-.538Z" fill="#13D7B7"/><path d="M185.317 206.39a61.372 61.372 0 0 1 9.684.314c.718.045.718-1.076 0-1.121a61.492 61.492 0 0 0-9.684-.314c-.717.045-.717 1.166 0 1.121Z" fill="#13D7B7"/></svg>