<svg width="300" height="300" fill="none" xmlns="http://www.w3.org/2000/svg"><g clip-path="url(#a)" fill="#13D7B7"><path fill-rule="evenodd" clip-rule="evenodd" d="M172.709 8.53a154.21 154.21 0 0 1 10.36 2.436c1.148.308 2.324.616 3.472.98.168.056.336.112.476.168.308 0 .532.084.756.224.019 0 .028.01.028.028.131.037.252.075.364.112h.028l.028.028h.056c.131.037.252.075.364.112.448.112.887.224 1.316.336 1.484.42 2.968.896 4.424 1.372 4.312 1.428 8.512 3.108 12.656 4.956 12.516 5.6 24.332 12.964 34.636 22.064 9.016 7.924 16.828 17.192 22.904 27.58 5.376 9.183 9.38 19.151 11.9 29.483 2.464 10.052 3.556 20.412 3.556 30.744 0 6.72-.448 13.412-1.372 20.048-1.708 12.264-5.152 24.304-10.584 35.476-3.836 7.924-8.596 15.344-14.252 22.092-4.396 5.207-9.268 9.967-14.532 14.279a114.31 114.31 0 0 1-13.776 9.604c-33.992 20.188-76.328 22.82-113.932 12.404-7.812-2.156-15.512-4.844-22.932-8.176-12.74-5.684-24.612-13.412-34.58-23.24a102.324 102.324 0 0 1-14.476-17.863 105.447 105.447 0 0 1-7.896-14.784c-15.26-35.252-10.584-76.72 6.636-110.375 4.676-9.184 10.276-17.976 16.94-25.844a102.19 102.19 0 0 1 15.26-14.672c12.096-9.408 26.376-15.876 41.3-19.292 9.52-2.184 19.236-3.22 29.008-3.304 10.668-.056 21.364.98 31.864 3.024Zm-84.14 14.224c-8.736 4.844-16.604 11.144-23.296 18.536-6.44 7.084-11.816 15.092-16.408 23.464-17.92 32.48-23.744 73.191-10.024 108.303 1.932 4.872 4.2 9.632 6.832 14.14 8.708 14.979 21.168 27.299 35.952 36.259 10.78 6.552 22.624 11.312 34.776 14.728 32.368 9.1 68.6 8.064 98.784-7.784a105.57 105.57 0 0 0 12.46-7.672 101.853 101.853 0 0 0 14.168-12.292c10.92-11.451 18.9-25.423 23.66-40.487 3.556-11.284 5.348-23.1 5.684-34.916.336-10.78-.504-21.588-2.856-32.144-2.884-13.048-8.092-25.507-15.54-36.623-10.668-15.904-25.592-28.588-42.308-37.744-7-3.808-14.336-7.084-21.896-9.604-1.568-.532-2.072-.616-4.592-1.344-.644.056-1.232-.056-1.54-.448-14.476-3.696-11.116-3.052-14.476-3.696-9.912-1.96-20.188-2.996-30.436-2.828-17.024.252-33.964 3.864-48.944 12.152Z"/><path d="M121.329 9.195c-3.836.252-7.644.868-11.396 1.596a158.074 158.074 0 0 0-11.34 2.604c-19.32 5.18-37.94 14.056-52.248 28.28-3.108 3.108-6.02 6.412-8.623 9.94-1.96 2.66-3.724 5.432-5.46 8.204-1.68 2.716-3.332 5.404-4.9 8.148-4.116 7.168-7.98 14.616-10.388 22.512-1.204 3.92-1.96 7.952-2.129 12.04-.14 3.92.14 7.812 0 11.732-.027.616-.027 1.259-.084 1.875-.223 2.52-.727 5.012-1.007 7.532-.393 3.64-.505 7.336-.393 11.004a93.218 93.218 0 0 0 2.8 19.824c1.204 4.844 2.828 9.66 5.096 14.112.952 1.904 2.016 3.724 3.276 5.432.896 1.26 1.932 2.436 2.857 3.668 1.343 1.82 2.52 3.724 3.471 5.768 1.933 4.088 2.576 8.54 3.585 12.88.84 3.528 1.931 7 3.416 10.304 3.835 8.54 12.347 14.364 20.887 17.556a52.116 52.116 0 0 0 5.012 1.596c3.053.756 6.188 1.232 9.324 1.204.113.336 2.38-.056 5.069-.868 2.66-.812 4.76-1.736 4.648-2.072-3.669.028-7.309-.672-10.809-1.736-9.435-2.884-19.291-8.904-23.603-18.144-1.54-3.276-2.717-6.692-3.584-10.22-1.008-3.92-1.652-7.952-3.276-11.676-1.065-2.492-2.492-4.816-4.145-6.944-1.148-1.512-2.435-2.94-3.527-4.48-2.576-3.696-4.48-7.84-6.02-12.068-1.793-4.984-3.053-10.164-3.92-15.4-.84-5.236-1.288-10.584-1.204-15.876.027-2.38.196-4.76.504-7.112.252-2.128.643-4.256.84-6.384.055-.616.055-1.259.084-1.875.111-2.716.027-5.404.027-8.12 0-2.52.113-5.04.448-7.56 1.037-8.092 4.313-15.736 8.009-22.932 2.52-4.956 5.32-9.772 8.232-14.504 1.456-2.324 2.884-4.676 4.452-6.944a82.275 82.275 0 0 1 5.46-7.084c8.063-9.464 18.143-17.08 29.203-22.764 7.197-3.696 14.84-6.664 22.708-8.652 2.632-.672 5.32-1.176 8.008-1.624.924-.168 1.82-.308 2.744-.42.28-.028.588-.084.868-.112.084 0 .168 0 .252-.028h.14c.084.224 1.624-.084 3.444-.7 1.848-.616 3.276-1.288 3.192-1.512Z"/><path d="M69.977 223.791c-.532.028-1.064.42-1.4.84-.112.168.308.252.42.392.7.672 1.624 1.288 2.128 2.128.924 1.568 1.764 3.304 2.744 4.956 1.484 2.492.728 5.964 1.54 8.624 1.288 4.256 2.968 8.764 2.464 13.384-.364 3.332-.84 6.86-.728 10.192.056 1.68 1.008 3.024.924 4.76-.252 4.9-.784 9.772-1.036 14.644-.14 2.548.784 9.268 4.228 8.512 3.136-.672 3.416-6.328 3.528-8.68.196-3.808-1.568-7.336-1.148-11.2.308-2.94 2.24-5.46 2.156-8.484-.112-3.052-1.596-6.076-1.428-9.156.14-2.436.42-5.824 1.54-8.12.868-1.876 2.996-2.184 4.116-3.752.364-.448.308-1.148.7-1.68.364-.476 1.008-1.428 1.512-1.736 1.148-.7 2.884.056 2.884-1.932 0-1.26-3.864-3.948-4.872-4.956-1.008-1.008-2.184-2.38-3.472-3.024-1.008-.448-2.268-.336-3.276-.812-2.856-1.372-5.6-2.492-8.736-3.276-2.492-.644-1.792-1.68-4.788-1.624Z"/><path fill-rule="evenodd" clip-rule="evenodd" d="M80.757 294.211c-.98 0-1.904-.364-2.688-1.008-2.688-2.268-3.052-7.812-2.94-9.576.112-2.464.308-4.956.504-7.364.196-2.38.392-4.844.532-7.28.028-.616-.168-1.204-.392-1.932-.224-.756-.504-1.624-.532-2.66-.112-3.024.252-6.132.588-9.1.038-.467.084-.924.14-1.372.392-3.668-.784-7.392-1.904-11.004l-.504-1.624c-.392-1.316-.448-2.688-.532-4.004-.084-1.624-.168-3.136-.812-4.2a59.882 59.882 0 0 1-1.428-2.604c-.448-.84-.868-1.624-1.316-2.352-.168-.28-.588-.644-.98-1.008a17.658 17.658 0 0 1-.672-.588c-.336-.196-.952-.588-1.148-1.4a2.12 2.12 0 0 1 .392-1.68c.812-.98 1.848-1.54 2.884-1.568 2.184-.056 3.052.42 3.948 1.064.364.252.616.42 1.344.616 2.94.728 5.656 1.736 9.1 3.388.224.112.644.196 1.092.252.644.112 1.4.224 2.156.588 1.4.672 2.52 1.82 3.5 2.856l.532.532c.196.196.7.616 1.176 1.008 2.632 2.156 4.228 3.612 4.228 5.292 0 2.968-2.436 3.332-3.22 3.444a6.525 6.525 0 0 0-.56.112c-.224.196-.616.756-.812 1.008l-.14.196c-.028.056-.056.224-.084.308-.112.392-.252.924-.644 1.428-.7.98-1.596 1.54-2.38 2.044-.812.532-1.316.868-1.568 1.372-1.064 2.296-1.26 6.132-1.344 7.42-.056 1.4.28 2.856.672 4.424.336 1.456.7 2.968.756 4.564.056 2.044-.616 3.864-1.204 5.46-.448 1.148-.84 2.212-.952 3.276-.196 1.764.14 3.5.532 5.376.336 1.82.728 3.696.616 5.74-.14 2.856-.476 9.436-5.04 10.444a3.715 3.715 0 0 1-.896.112Zm-7.56-67.284c.336.588.644 1.176.98 1.764.42.812.868 1.652 1.344 2.436 1.12 1.876 1.232 4.032 1.344 5.936.056 1.148.112 2.24.364 3.108l.504 1.624c1.176 3.78 2.52 8.092 2.044 12.544-.056.448-.112.905-.168 1.372-.308 2.856-.616 5.796-.532 8.54 0 .532.168 1.064.364 1.68.28.924.616 1.96.532 3.248-.112 2.492-.308 4.984-.504 7.392-.196 2.38-.42 4.844-.532 7.224-.084 1.988.532 5.572 1.596 6.496.14.084.196.112.308.056.784-.168 1.764-1.484 2.016-6.86.084-1.596-.224-3.164-.56-4.844-.392-2.044-.812-4.172-.56-6.496.168-1.54.672-2.912 1.148-4.228.532-1.4 1.036-2.716.98-4.004-.028-1.204-.336-2.464-.644-3.808-.42-1.736-.868-3.556-.756-5.488.112-2.52.448-6.188 1.708-8.848.728-1.54 1.96-2.324 2.94-2.968.56-.364 1.036-.672 1.344-1.036 0-.056.028-.168.056-.224.112-.392.252-.952.672-1.512l.14-.224c.644-.868 1.204-1.624 1.932-2.044.504-.308 1.036-.448 1.484-.532-.672-.7-1.792-1.624-2.38-2.072-.616-.532-1.12-.952-1.456-1.288l-.56-.56c-.756-.812-1.624-1.708-2.408-2.072-.252-.112-.644-.168-1.092-.252-.672-.084-1.4-.224-2.156-.56-3.192-1.54-5.712-2.492-8.4-3.164-.41-.112-.774-.224-1.092-.336Z"/><path d="M68.185 36.33c2.38-2.38 6.692-4.004 10.108-3.164 1.736.448 3.388 2.24 5.376 1.036 2.492-1.484 5.068-4.34 6.132-7.084 1.064-2.688 1.96-6.3 4.592-7.896 3.64-2.184 8.316-.84 12.18-1.456 2.464-.392 4.536-2.184 7.084-2.38 2.492-.196 4.984 2.296 7.364 1.68 1.624-.42 3.08-2.156 4.452-3.024 2.436-1.568 5.88-2.8 8.652-3.556 2.128-.616 4.956-1.568 7.196-1.344 3.808.392 7.28 2.632 10.64 4.312 1.148.56 2.184 1.428 3.416 1.708 2.464.532 5.684-1.204 6.16-3.836.644-3.388-4.396-3.948-6.44-4.172-2.352-.28-4.676-.924-7.084-.924-3.78.028-7.784.532-11.536.84-6.356.504-13.384.616-19.544 2.408-7.28 2.072-14.028 5.488-21.112 8.176-8.512 3.248-16.8 7.588-22.26 15.12l-5.376 3.556Z"/><path fill-rule="evenodd" clip-rule="evenodd" d="M68.185 37.592c-.308 0-.644-.112-.896-.364a1.268 1.268 0 0 1 0-1.764c1.26-1.26 3.08-2.408 5.096-3.08.037-.112.093-.224.168-.336 6.076-8.4 15.4-12.74 22.82-15.568a194.283 194.283 0 0 0 7.392-3.024c4.452-1.876 9.044-3.808 13.804-5.18 5.096-1.484 10.612-1.848 15.96-2.184 1.288-.084 2.576-.168 3.836-.28 1.064-.084 2.128-.196 3.192-.28 2.8-.252 5.684-.532 8.456-.532h.028c1.624 0 3.192.252 4.676.532.868.14 1.708.28 2.52.364 1.736.196 5.348.616 6.888 2.688.616.84.84 1.876.644 2.968-.28 1.484-1.204 2.828-2.632 3.752-1.54 1.036-3.416 1.428-5.012 1.064-1.036-.224-1.904-.756-2.688-1.204-.336-.224-.7-.42-1.036-.588a50.11 50.11 0 0 1-2.072-1.092c-2.604-1.372-5.32-2.8-8.12-3.08-1.68-.196-3.948.476-5.796 1.008a30.32 30.32 0 0 0-.952.28c-3.36.924-6.384 2.156-8.316 3.388-.42.28-.868.644-1.344 1.064-1.008.84-2.128 1.792-3.472 2.128-1.68.42-3.276-.252-4.676-.84-1.036-.448-2.016-.868-2.884-.812-1.148.084-2.24.588-3.416 1.12-1.092.504-2.268 1.036-3.584 1.26-1.484.224-3.052.196-4.564.168-2.632-.056-5.124-.112-7.168 1.12-1.82 1.12-2.744 3.668-3.556 5.908-.168.466-.336.924-.504 1.372-1.12 2.912-3.808 6.02-6.664 7.728-1.988 1.176-3.724.28-4.984-.336-.504-.252-.952-.476-1.344-.56-3.052-.756-6.944.84-8.904 2.828a1.271 1.271 0 0 1-.896.364Zm8.12-5.908c.784 0 1.54.084 2.268.28.672.168 1.288.448 1.876.756 1.26.644 1.848.84 2.576.42 2.324-1.4 4.704-4.116 5.628-6.496l.476-1.316c.504-1.372 1.064-2.94 1.904-4.34-5.236 2.408-10.78 5.712-15.036 10.696h.308Zm25.312-15.036c.205.019.41.028.616.028 1.484.028 2.884.056 4.144-.14.98-.168 1.932-.616 2.94-1.064 1.316-.588 2.66-1.204 4.256-1.344 1.456-.112 2.856.476 4.06 1.008 1.148.476 2.212.924 3.08.728.784-.196 1.652-.952 2.492-1.652.504-.42 1.036-.868 1.596-1.232 2.912-1.876 6.888-3.136 8.988-3.696.298-.093.616-.187.952-.28.924-.28 1.96-.56 2.996-.784-.392.019-.784.047-1.176.084-1.26.112-2.548.196-3.864.28-5.208.336-10.612.7-15.428 2.072-4.62 1.344-9.156 3.248-13.524 5.124-.71.28-1.419.57-2.128.868Zm39.648-8.764c.056 0 .121.01.196.028 3.276.336 6.216 1.876 9.044 3.36.672.364 1.344.728 2.016 1.064.42.196.84.448 1.204.672.672.392 1.288.784 1.932.924.952.196 2.128-.056 3.108-.7.84-.56 1.4-1.316 1.54-2.128.112-.532-.056-.84-.196-1.036-.896-1.204-3.976-1.54-5.152-1.68a75.822 75.822 0 0 1-2.66-.392c-1.456-.252-2.856-.504-4.256-.504h-.028c-2.184 0-4.48.196-6.748.392Z"/><path d="M87.589 242.212c3.892-1.12 10.22-6.608 14.7-3.304.728.532 1.036 1.484 1.708 2.128 3.752 3.668 9.1 13.132 14.504 13.468 1.484.112 3.108-.868 4.452-1.372 2.884-1.092 5.796-2.072 8.652-3.22 2.912-1.176 6.468-3.836 9.856-3.276 1.652.308 4.032.532 5.572 1.4 4.312 2.408 9.072 6.888 14.42 5.012 4.34-1.484 9.548-.168 13.86.448.896.14 2.212.644 3.052.588 2.464-.168 3.584-2.464 5.488-3.444 4.004-2.072 6.692-4.872 11.536-4.732 3.36.112 7.056-1.456 9.856-3.248.336-.196 1.932-1.54 1.54-2.296-1.372-2.688-6.356.112-7.84.672-2.632 1.064-5.152 2.772-7.896 3.472-2.352.616-4.872.784-7.252 1.288-3.332.756-6.608 1.904-9.968 2.408-3.192.504-6.496.252-9.66.112-3.36-.14-6.664.336-10.024 0-5.516-.56-11.032-1.372-16.548-2.1-2.044-.28-4.06.336-6.02.056-6.524-.84-13.356-1.792-19.376-4.592-3.332-1.568-7.672-2.716-11.256-3.612-1.484-.392-3.136-.504-4.368-1.4l-8.988 5.544Z"/><path fill-rule="evenodd" clip-rule="evenodd" d="M118.725 255.764h-.308c-4.396-.28-8.316-5.264-11.788-9.66-1.26-1.624-2.493-3.164-3.529-4.172-.392-.364-.671-.812-.895-1.176-.224-.364-.448-.7-.672-.84-2.576-1.904-6.273 0-9.549 1.68-1.456.756-2.828 1.456-4.06 1.792-.644.196-1.344-.196-1.54-.84a1.226 1.226 0 0 1 .868-1.54c.98-.308 2.269-.952 3.613-1.624 1.428-.756 2.996-1.568 4.62-2.1a1.285 1.285 0 0 1 .084-1.372c.42-.56 1.203-.672 1.736-.252.727.504 1.707.728 2.772.924.392.084.784.168 1.176.28 3.752.952 8.064 2.1 11.48 3.668 6.02 2.8 13.216 3.752 18.984 4.508.868.112 1.764.028 2.716-.028 1.064-.112 2.156-.196 3.332-.028.858.112 1.726.224 2.604.336.429 0 .858.028 1.287.084.28.056.579.103.897.14.532.112 1.12.196 1.736.308 3.304.448 6.664.896 9.996 1.232 1.792.168 3.584.112 5.488.028 1.428-.056 2.94-.112 4.452-.028l1.064.028c2.772.14 5.628.28 8.344-.14 1.96-.308 3.975-.84 5.907-1.372 1.316-.364 2.661-.728 4.005-1.008 1.119-.252 2.267-.42 3.36-.588 1.343-.196 2.603-.392 3.835-.7 1.512-.392 2.996-1.148 4.564-1.932 1.036-.504 2.1-1.064 3.192-1.484.196-.084.448-.196.729-.308 2.268-1.036 6.943-3.164 8.679.196 1.008 1.932-1.96 3.92-1.988 3.948-2.1 1.344-6.3 3.584-10.556 3.444-3.192-.112-5.348 1.232-7.84 2.8-.98.588-1.988 1.204-3.08 1.792-.588.28-1.12.784-1.68 1.288-1.092 1.008-2.351 2.128-4.311 2.268-.728.056-1.54-.14-2.324-.336a5.918 5.918 0 0 0-.98-.224c-.728-.112-1.485-.252-2.269-.364-3.612-.616-7.699-1.288-11.031-.14-4.788 1.652-8.988-1.064-12.712-3.444-.924-.616-1.849-1.204-2.717-1.68-.672-.364-1.595-.616-2.547-.812a61.61 61.61 0 0 1-1.904-.252l-1.736-.224c-1.792.084-3.724 1.064-5.6 2.016-.896.448-1.737.868-2.549 1.204-1.764.7-3.527 1.344-5.263 1.988-1.148.42-2.297.812-3.417 1.26a9.367 9.367 0 0 0-.98.42c-1.12.476-2.379 1.036-3.695 1.036Zm-13.525-15.26c1.064 1.092 2.213 2.548 3.417 4.06 2.968 3.78 6.692 8.484 9.968 8.708.812.056 1.876-.42 2.828-.84.392-.168.756-.336 1.092-.476l3.444-1.26c1.708-.616 3.472-1.26 5.18-1.96.728-.28 1.511-.7 2.351-1.12l.113-.056c-.728.056-1.456.056-2.184-.028-5.964-.784-13.384-1.764-19.74-4.732-1.904-.868-4.173-1.624-6.469-2.296Zm60.873 10.612c2.436 0 4.927.42 7.223.784.756.14 1.485.252 2.213.364.392.056.811.168 1.231.28.504.14 1.205.308 1.513.28 1.12-.084 1.903-.784 2.827-1.624.644-.616 1.345-1.232 2.213-1.68 1.008-.532 1.959-1.12 2.883-1.68.924-.56 1.82-1.12 2.8-1.624-.578.094-1.138.178-1.68.252-1.12.168-2.184.336-3.22.56-1.288.28-2.603.644-3.891.98-1.988.56-4.06 1.12-6.161 1.428-2.967.476-5.964.336-8.848.196l-1.063-.056c-1.4-.056-2.857 0-4.257.028-1.904.084-3.835.168-5.823-.056a61.855 61.855 0 0 1-2.633-.28c3.108 1.988 6.301 3.752 9.633 2.604 1.624-.56 3.332-.756 5.04-.756Zm38.583-10.64c-1.344 0-3.528.98-4.396 1.372-.336.14-.616.28-.84.364-.98.392-1.959.868-2.996 1.4-.727.364-1.456.728-2.184 1.064.374-.018.775-.018 1.204 0 2.605.084 5.937-1.036 9.129-3.08.252-.14.699-.588.923-.896-.196-.168-.504-.224-.84-.224ZM102.037 153.51c-2.632 0-9.716-1.036-12.04-11.648-1.68-7.7-2.044-14.448-2.492-23.015-.42-8.092-.952-18.172-2.8-32.704-4.312-33.684 11.536-38.836 13.72-39.368 6.44-1.624 10.808.588 13.328 2.744 8.4 7.14 8.792 24.192 7.644 37.212-.728 8.12.168 13.916 1.12 20.048 1.036 6.748 2.1 13.748.728 23.211-1.876 12.852-10.164 23.184-18.872 23.492a1.722 1.722 0 0 1-.336.028Zm-.588-95.479c-.7.336-8.036 4.34-5.18 26.628 1.904 14.952 2.436 25.284 2.884 33.571.448 8.344.756 14.364 2.24 21.112.28 1.4.672 2.1.868 2.436 1.932-.644 6.272-5.46 7.448-13.468 1.12-7.755.252-13.327-.728-19.767-.952-6.244-2.044-13.328-1.204-22.82 1.372-15.596-.812-24.948-3.584-27.328-.336-.28-.924-.784-2.744-.364Zm-.224.056c-.056.028.084 0 .056 0h-.056Zm.168-.028a.245.245 0 0 0-.112.028h-.056c.037 0 .093-.01.168-.028Z"/><path d="M183.937 52.515c-7.616 12.263 8.204 15.427 9.856 28.867 1.652 13.468-1.652 37.744 3.276 49.56 4.928 11.816 5.572 11.816 7.896 25.592 2.268 13.776 4.9-7.56 4.9-20.02s8.54 1.96 9.184-17.052c.672-19.04-3.92-20.356-4.256-43.652-.336-23.296-17.388-44.967-30.856-23.295Z"/><path fill-rule="evenodd" clip-rule="evenodd" d="M206.505 162.916c-2.436 0-3.024-3.5-3.444-6.076-1.904-11.424-2.632-13.132-5.74-20.412-.588-1.372-1.26-2.912-2.016-4.76-3.248-7.756-3.108-20.048-2.968-31.92.084-6.803.14-13.243-.448-18.143-.616-5.124-3.556-8.624-6.412-12.012-4.088-4.844-8.288-9.828-3.164-18.088 6.496-10.472 13.356-10.388 16.856-9.408 9.604 2.66 17.304 17.472 17.528 33.684.168 11.368 1.372 17.527 2.464 22.931 1.092 5.656 2.156 10.976 1.82 20.804-.364 10.164-2.912 12.432-7.252 12.908-.784.084-1.148.14-1.316.336-.196.224-.616 1.008-.616 3.752 0 4.844-.392 10.976-1.008 16.016-1.064 8.568-2.212 10.22-4.06 10.388h-.224ZM185.561 53.521c-3.64 5.908-1.064 8.96 2.828 13.608 3.08 3.64 6.552 7.756 7.308 14.028.616 5.152.56 11.704.476 18.62-.112 10.975-.252 23.379 2.66 30.435a262.42 262.42 0 0 0 2.016 4.704c3.024 7.14 3.948 9.268 5.768 19.908.728-4.676 1.344-11.928 1.344-18.312 0-6.076 2.044-7.532 5.376-7.896 1.12-.112 1.652-.196 2.184-.924.644-.868 1.456-3.024 1.624-8.316.336-9.38-.644-14.252-1.764-19.936-1.092-5.572-2.324-11.871-2.492-23.603-.196-14.14-6.944-27.888-14.756-30.044-5.46-1.54-9.856 3.36-12.572 7.728Z"/><path d="M84.705 178.512c8.288 8.932 20.692 12.376 36.484 27.216 15.82 14.868 28.868 10.444 40.964 5.012 12.124-5.46 16.8-6.412 31.024-7.644 14.196-1.232 32.536-13.104 39.2-31.892 6.636-18.76 8.848-41.272 12.852-35 4.004 6.3-9.66 49.308-26.796 61.18s-27.776 10.164-38.08 17.164c-10.304 7.056-9.576 16.464-30.436 10.472-20.832-5.964-20.16-5.124-37.716-15.456-17.584-10.332-43.904-48.748-27.496-31.052Z"/><path fill-rule="evenodd" clip-rule="evenodd" d="M161.005 228.83c-3.052 0-6.804-.588-11.62-1.96-2.24-.644-4.256-1.232-6.048-1.736-15.008-4.256-16.24-4.592-32.116-13.916-8.176-4.816-17.332-14.84-22.064-20.412-3.052-3.584-5.936-7.252-8.12-10.332-3.584-5.068-3.472-5.964-3.416-6.608.084-.84.616-1.512 1.4-1.764 1.26-.42 2.268-.084 7.084 5.096 3.668 3.976 8.372 6.916 13.776 10.304 6.58 4.116 14.028 8.764 22.624 16.828 14.7 13.832 26.796 10.108 38.864 4.648 12.6-5.656 17.528-6.58 31.64-7.784 13.356-1.148 31.052-12.292 37.576-30.632 2.464-6.972 4.284-14.336 5.88-20.86 2.912-11.844 4.088-15.96 6.972-16.436.896-.14 2.212.056 3.416 1.932 3.136 4.956-1.848 21.308-5.32 30.184-2.912 7.532-10.92 25.872-22.008 33.572-9.968 6.888-17.696 9.296-24.528 11.424-5.012 1.54-9.352 2.884-13.58 5.768-2.576 1.764-4.424 3.696-6.216 5.572-3.584 3.724-6.832 7.112-14.196 7.112Zm-71.512-43.596c6.608 8.12 16.072 18.2 23.66 22.68 15.456 9.072 16.352 9.324 31.22 13.552 1.792.504 3.808 1.064 6.076 1.708 14.14 4.06 17.248.812 21.98-4.116 1.82-1.904 3.92-4.088 6.832-6.076 4.704-3.22 9.52-4.704 14.616-6.272 6.552-2.044 14-4.34 23.464-10.92 4.228-2.912 8.652-8.26 12.768-15.288-8.82 14.672-24.472 23.436-36.792 24.5-13.776 1.204-18.256 2.016-30.38 7.476-6.216 2.8-12.712 5.264-19.628 5.264-7.28 0-15.008-2.716-23.436-10.612-8.316-7.812-15.596-12.376-22.036-16.38-2.996-1.904-5.796-3.64-8.344-5.516Zm154.364-47.376c-1.092 2.324-2.492 8.036-3.668 12.768-1.54 6.272-3.472 14.084-6.02 21.224-.84 2.436-1.904 4.76-3.08 6.944 2.464-4.424 4.788-9.408 6.888-14.784 5.096-13.132 6.608-23.184 5.88-26.152Z"/><path d="M8.63 115.935a1.226 1.226 0 0 1-1.177-.868c-.84-2.436-.392-5.544-.028-8.288.168-1.12.308-2.184.336-3.024.728-16.38 8.372-30.547 15.764-44.267l.7-1.316c.336-.616 1.092-.84 1.68-.504.616.336.84 1.092.532 1.68l-.728 1.316c-7.252 13.468-14.756 27.383-15.428 43.175-.056 1.008-.196 2.1-.364 3.276-.336 2.464-.728 5.264-.112 7.168a1.22 1.22 0 0 1-.784 1.568.988.988 0 0 1-.392.084ZM37.358 39.048c-.131 0-.262-.019-.392-.056a1.262 1.262 0 0 1-.785-1.596c1.037-3.136 4.257-5.488 7.477-7.616.56-.392 1.343-.224 1.736.336.392.588.224 1.344-.364 1.736-2.1 1.4-5.629 3.752-6.468 6.328-.197.532-.672.868-1.204.868ZM184.021 221.635a1.22 1.22 0 0 1-.98-.503 1.222 1.222 0 0 1 .224-1.737c3.92-3.079 8.792-4.227 13.496-5.347 2.996-.7 6.076-1.428 8.792-2.632 18.004-7.98 29.008-17.78 35.672-31.78.308-.616 1.064-.896 1.68-.588.616.28.896 1.036.588 1.652-6.944 14.588-18.312 24.752-36.904 33.012-2.94 1.288-6.16 2.044-9.24 2.772-4.648 1.12-9.044 2.155-12.544 4.871-.224.168-.504.28-.784.28ZM250.716 163.895a1.33 1.33 0 0 1-.7-.196c-.56-.392-.728-1.176-.336-1.736 1.344-2.016 1.792-4.424 2.296-6.972.42-2.128.84-4.312 1.792-6.356.308-.616 1.036-.868 1.68-.588.616.308.868 1.064.588 1.68-.84 1.736-1.204 3.668-1.596 5.74-.532 2.66-1.064 5.432-2.688 7.868-.224.364-.616.56-1.036.56ZM237.697 228.547c-.336 0-.672-.14-.924-.42-.448-.504-.448-1.288.056-1.764 3.528-3.276 7.728-6.272 11.788-9.184 2.38-1.708 4.648-3.332 6.692-4.928 2.772-2.184 4.872-4.62 7.112-7.196 1.652-1.904 3.332-3.864 5.292-5.684.504-.476 1.316-.448 1.764.056a1.243 1.243 0 0 1-.056 1.764c-1.848 1.736-3.5 3.64-5.096 5.488-2.24 2.548-4.508 5.208-7.448 7.532-2.1 1.652-4.396 3.276-6.804 5.012-4.004 2.856-8.12 5.796-11.508 8.96-.252.252-.56.364-.868.364ZM244.221 228.749c-.392 0-.756-.168-1.008-.504-.42-.532-.308-1.315.252-1.735 1.4-1.064 2.8-2.119 4.2-3.164 3.92-2.912 7.952-5.908 11.816-8.988.532-.448 1.316-.364 1.764.196.42.532.336 1.316-.196 1.736-3.892 3.136-7.952 6.16-11.872 9.071a878.373 878.373 0 0 0-4.228 3.136 1.209 1.209 0 0 1-.728.252ZM265.921 100.171c.476.476.616.924.588 1.54-.028.756.672 1.4 1.4 1.4.784 0 1.372-.644 1.4-1.4a4.644 4.644 0 0 0-1.4-3.5c-1.288-1.26-3.276.7-1.988 1.96ZM271.969 103.612c1.792 0 1.792-2.8 0-2.8-1.82 0-1.82 2.8 0 2.8ZM270.457 108.152c1.792 0 1.792-2.8 0-2.8-1.82 0-1.82 2.8 0 2.8ZM274.741 111.514a15.329 15.329 0 0 0 1.624-5.768c.14-1.792-2.66-1.792-2.8 0-.112 1.54-.56 2.996-1.26 4.368-.812 1.596 1.596 3.024 2.436 1.4ZM274.489 96.562c1.792 0 1.792-2.8 0-2.8-1.82 0-1.82 2.8 0 2.8ZM274.993 102.609c1.792 0 1.792-2.8 0-2.8-1.82 0-1.82 2.8 0 2.8ZM266.425 109.97c.896 0 .896-1.4 0-1.4-.924 0-.924 1.4 0 1.4ZM269.953 104.931c.896 0 .896-1.4 0-1.4-.924 0-.924 1.4 0 1.4ZM268.441 105.439c.896 0 .896-1.4 0-1.4-.924 0-.924 1.4 0 1.4ZM265.922 105.939c.896 0 .896-1.4 0-1.4-.924 0-.924 1.4 0 1.4ZM263.401 105.439c.896 0 .896-1.4 0-1.4-.924 0-.924 1.4 0 1.4ZM261.385 100.9c.896 0 .896-1.4 0-1.4-.924 0-.924 1.4 0 1.4ZM265.418 97.373c.896 0 .896-1.4 0-1.4-.924 0-.924 1.4 0 1.4ZM246.769 103.927c.896 0 .896-1.4 0-1.4-.924 0-.924 1.4 0 1.4ZM257.857 127.107c.896 0 .896-1.4 0-1.4-.924 0-.924 1.4 0 1.4ZM280.537 128.619c.896 0 .896-1.4 0-1.4-.924 0-.924 1.4 0 1.4ZM284.065 115.013c.896 0 .896-1.4 0-1.4-.924 0-.924 1.4 0 1.4ZM291.626 121.564c.896 0 .896-1.4 0-1.4-.924 0-.924 1.4 0 1.4ZM278.017 122.064c.896 0 .896-1.4 0-1.4-.924 0-.924 1.4 0 1.4ZM279.529 119.045c.896 0 .896-1.4 0-1.4-.924 0-.924 1.4 0 1.4ZM279.529 116.133h-.504c-.364 0-.728.336-.7.7 0 .392.308.7.7.7h.504c.364 0 .7-.308.7-.7-.028-.364-.308-.7-.7-.7ZM270.458 114.509c.896 0 .896-1.4 0-1.4-.924 0-.924 1.4 0 1.4ZM268.441 114.509c.896 0 .896-1.4 0-1.4-.924 0-.924 1.4 0 1.4ZM268.777 112.409l2.016-1.008c.812-.42.112-1.624-.7-1.204l-2.016 1.008c-.812.392-.084 1.596.7 1.204Z"/><path d="M271.465 110.478c.896 0 .896-1.4 0-1.4-.924 0-.924 1.4 0 1.4Z"/><path d="m272.445 108.263-.504-.504c-.252-.252-.728-.252-.98 0-.252.28-.28.728 0 1.008l.504.504c.252.252.728.28.98 0a.71.71 0 0 0 0-1.008ZM268.441 107.955c.896 0 .896-1.4 0-1.4-.924 0-.924 1.4 0 1.4Z"/><path d="M267.153 107.476c.336.84.681 1.68 1.036 2.52.14.364.448.588.868.476.308-.084.616-.504.476-.84-.355-.84-.7-1.68-1.036-2.52-.14-.336-.476-.588-.868-.476-.336.084-.616.504-.476.84ZM269.449 111.99c.896 0 .896-1.4 0-1.4-.924 0-.924 1.4 0 1.4ZM270.458 114.005c.896 0 .896-1.4 0-1.4-.924 0-.924 1.4 0 1.4ZM273.481 115.513c.896 0 .896-1.4 0-1.4-.924 0-.924 1.4 0 1.4ZM277.009 112.486c.896 0 .896-1.4 0-1.4-.924 0-.924 1.4 0 1.4Z"/><path d="M278.017 112.486c.896 0 .896-1.4 0-1.4-.924 0-.924 1.4 0 1.4ZM277.513 107.815c1.344 0 1.344-2.1 0-2.1-1.372 0-1.372 2.1 0 2.1ZM278.521 110.338c1.344 0 1.344-2.1 0-2.1-1.372 0-1.372 2.1 0 2.1ZM273.481 107.315c1.344 0 1.344-2.1 0-2.1-1.372 0-1.372 2.1 0 2.1ZM271.969 104.287c1.344 0 1.344-2.099 0-2.099-1.372 0-1.372 2.099 0 2.099ZM271.466 99.752c1.344 0 1.344-2.1 0-2.1-1.372 0-1.372 2.1 0 2.1ZM278.017 103.28c1.344 0 1.344-2.1 0-2.1-1.372 0-1.372 2.1 0 2.1ZM280.537 105.803c1.344 0 1.344-2.1 0-2.1-1.372 0-1.372 2.1 0 2.1Z"/><path d="M277.009 106.303c1.344 0 1.344-2.1 0-2.1-1.372 0-1.372 2.1 0 2.1Z"/><path d="M277.541 105.243v-.504c0-.252-.112-.56-.308-.728-.168-.196-.476-.336-.728-.308-.28 0-.56.084-.756.308a1.017 1.017 0 0 0-.308.728v.504c0 .28.112.56.308.756.196.168.476.308.756.308.252-.028.532-.112.728-.308.196-.224.308-.476.308-.756Z"/><path d="M276.002 104.287c1.344 0 1.344-2.099 0-2.099-1.372 0-1.372 2.099 0 2.099ZM272.977 104.287c1.344 0 1.344-2.099 0-2.099-1.372 0-1.372 2.099 0 2.099ZM268.945 103.787c1.344 0 1.344-2.099 0-2.099-1.372 0-1.372 2.099 0 2.099ZM264.409 104.287c1.344 0 1.344-2.099 0-2.099-1.372 0-1.372 2.099 0 2.099ZM274.49 98.884h.504c.364 0 .7-.308.7-.7-.028-.364-.308-.7-.7-.7h-.504c-.364 0-.728.336-.7.7 0 .392.308.7.7.7ZM277.009 98.377c.896 0 .896-1.4 0-1.4-.924 0-.924 1.4 0 1.4ZM272.977 101.404c.896 0 .896-1.4 0-1.4-.924 0-.924 1.4 0 1.4Z"/><path d="M268.189 99.051c1.96.56 3.64 1.764 4.76 3.472.504.728 1.708.028 1.204-.7-1.344-2.016-3.276-3.444-5.6-4.116-.868-.252-1.232 1.092-.364 1.344Z"/><path d="M273.285 102.748a460.583 460.583 0 0 1 2.996-1.54c.812-.392.112-1.624-.7-1.204l-3.024 1.512c-.784.42-.084 1.624.728 1.232ZM280.033 99.388c.896 0 .896-1.4 0-1.4-.924 0-.924 1.4 0 1.4ZM280.537 101.404c.896 0 .896-1.4 0-1.4-.924 0-.924 1.4 0 1.4ZM283.561 101.904c.896 0 .896-1.4 0-1.4-.924 0-.924 1.4 0 1.4ZM283.057 110.478c.896 0 .896-1.4 0-1.4-.924 0-.924 1.4 0 1.4ZM279.529 105.939c.896 0 .896-1.4 0-1.4-.924 0-.924 1.4 0 1.4Z"/><path d="M279.529 104.035h-1.792c-.336 0-.644.28-.7.616-.028.308.168.7.504.756.924.14 1.764-.084 2.464-.7.28-.224.252-.728 0-.98-.28-.28-.7-.252-.98 0-.308.252-.728.392-1.12.336-.056.467-.112.924-.168 1.372h1.792c.896 0 .896-1.4 0-1.4ZM281.041 103.42c.896 0 .896-1.4 0-1.4-.924 0-.924 1.4 0 1.4ZM281.041 101.904c.896 0 .896-1.4 0-1.4-.924 0-.924 1.4 0 1.4ZM278.017 100.9c.896 0 .896-1.4 0-1.4-.924 0-.924 1.4 0 1.4Z"/><path d="M276.505 100.9c.896 0 .896-1.4 0-1.4-.923 0-.923 1.4 0 1.4ZM266.425 115.881c1.344 0 1.344-2.1 0-2.1-1.372 0-1.372 2.1 0 2.1ZM272.473 118.901c1.344 0 1.344-2.1 0-2.1-1.372 0-1.372 2.1 0 2.1ZM287.089 109.327h.504c.252 0 .532-.14.728-.308.196-.196.336-.476.308-.756 0-.28-.084-.56-.308-.728a1.017 1.017 0 0 0-.728-.308h-.504c-.28 0-.56.112-.756.308a1.146 1.146 0 0 0-.308.728c.028.28.112.56.308.756.196.168.476.308.756.308ZM292.633 103.28c1.344 0 1.344-2.1 0-2.1-1.372 0-1.372 2.1 0 2.1ZM285.073 105.803c1.344 0 1.344-2.1 0-2.1-1.372 0-1.372 2.1 0 2.1ZM280.537 109.83c1.344 0 1.344-2.1 0-2.1-1.372 0-1.372 2.1 0 2.1ZM268.441 95.721c1.344 0 1.344-2.1 0-2.1-1.372 0-1.372 2.1 0 2.1ZM262.897 90.178c1.344 0 1.344-2.1 0-2.1-1.372 0-1.372 2.1 0 2.1ZM278.521 92.186c1.344 0 1.344-2.1 0-2.1-1.372 0-1.372 2.1 0 2.1ZM293.641 112.486c.896 0 .896-1.4 0-1.4-.924 0-.924 1.4 0 1.4ZM254.497 118.877c.896 0 .896-1.4 0-1.4-.924 0-.924 1.4 0 1.4ZM255.841 113.162c.896 0 .896-1.4 0-1.4-.924 0-.924 1.4 0 1.4ZM276.673 117.196c.448 0 .448-.7 0-.7s-.448.7 0 .7ZM273.314 112.489c.448 0 .448-.7 0-.7s-.448.7 0 .7ZM274.657 114.845c.448 0 .448-.7 0-.7s-.448.7 0 .7ZM278.354 115.177c.448 0 .448-.7 0-.7s-.448.7 0 .7ZM279.361 113.501c.448 0 .448-.7 0-.7s-.448.7 0 .7ZM270.625 119.212c.448 0 .448-.7 0-.7s-.448.7 0 .7ZM256.177 126.934c.448 0 .448-.7 0-.7s-.448.7 0 .7ZM255.169 123.243h1.008c.448 0 .448-.7 0-.7h-1.008c-.448 0-.448.7 0 .7ZM259.677 121.819l.672-.336c.168-.084.224-.336.14-.476-.112-.168-.308-.224-.476-.14l-.672.336c-.168.084-.224.336-.14.476.112.168.308.224.476.14ZM271.969 128.618c.448 0 .448-.7 0-.7s-.448.7 0 .7ZM268.273 130.298c.448 0 .448-.7 0-.7-.447 0-.447.7 0 .7ZM263.905 127.614c.448 0 .448-.7 0-.7s-.448.7 0 .7ZM269.953 120.891c.448 0 .448-.7 0-.7s-.448.7 0 .7ZM286.417 120.527h-1.008c-.448 0-.448.7 0 .7h1.008c.448 0 .448-.7 0-.7ZM281.041 115.177c.448 0 .448-.7 0-.7s-.448.7 0 .7ZM283.309 109.046c.672.112 1.344.215 2.016.308.448.084.616-.588.168-.672a77.918 77.918 0 0 0-2.016-.308c-.42-.084-.616.588-.168.672ZM281.377 110.279l-.672 1.008c-.252.364.364.7.616.336l.672-1.008c.252-.364-.364-.728-.616-.336Z"/><path d="M278.997 107.983a38.434 38.434 0 0 1 6.048.196c.448.028.448-.672 0-.7a38.434 38.434 0 0 0-6.048-.196c-.448.028-.448.728 0 .7ZM7.677 160.401c.616 0 .616-.952 0-.952s-.616.952 0 .952ZM8.041 164.011c.588 0 .588-.952 0-.952-.616 0-.616.952 0 .952ZM12.997 169.503c.616 0 .616-.952 0-.952s-.616.952 0 .952ZM26.185 169.835c.616 0 .616-.952 0-.952s-.616.952 0 .952ZM34.081 163.311c.616 0 .616-.952 0-.952s-.616.952 0 .952ZM36.46 154.409c.617 0 .617-.952 0-.952-.587 0-.587.952 0 .952ZM26.353 150.655c.616 0 .616-.952 0-.952s-.616.952 0 .952ZM16.776 148.921c.616 0 .616-.952 0-.952s-.616.952 0 .952ZM13.165 151.159c.616 0 .616-.952 0-.952s-.616.952 0 .952ZM20.192 162.303c1.26 0 2.436-1.092 2.38-2.38-.056-1.288-1.036-2.38-2.38-2.38-1.232 0-2.436 1.092-2.38 2.38.056 1.288 1.036 2.38 2.38 2.38Z"/><path d="M17.953 161.127c1.26 0 2.464-1.12 2.38-2.38-.056-1.316-1.036-2.38-2.38-2.38-1.232 0-2.436 1.092-2.38 2.38.084 1.288 1.064 2.38 2.38 2.38Z"/><path d="M21.06 160.259h.169a1.79 1.79 0 0 0 .924-.196c.28-.112.532-.28.756-.504.224-.205.383-.457.476-.756.15-.28.224-.588.224-.924a6.665 6.665 0 0 1-.084-.644 2.368 2.368 0 0 0-.616-1.036c-.168-.13-.327-.252-.476-.364a2.3 2.3 0 0 0-1.204-.336h-.168a1.732 1.732 0 0 0-.924.196c-.299.094-.55.262-.756.504-.243.206-.41.458-.504.756-.15.28-.215.588-.196.924.018.206.046.42.084.644.112.392.317.738.616 1.036.15.131.308.252.476.364a2.3 2.3 0 0 0 1.204.336Z"/><path d="M21.957 160.15a.21.21 0 0 0 .084.028l-.56-.224c.074.038.149.084.224.14a4.67 4.67 0 0 0-.476-.364c.074.038.13.094.168.168a4.646 4.646 0 0 0-.364-.476c.056.075.102.15.14.224l-.224-.56c0 .038.009.075.028.112.168.588.56 1.12 1.092 1.428.28.168.578.262.896.28.298.075.606.056.924-.056.588-.168 1.148-.532 1.428-1.092.308-.56.42-1.204.252-1.82a3.315 3.315 0 0 0-.868-1.484c-.42-.448-.896-.7-1.484-.896a1.732 1.732 0 0 0-.924-.028 1.944 1.944 0 0 0-.896.28c-.28.15-.504.355-.672.616a1.784 1.784 0 0 0-.42.812c-.14.616-.112 1.288.252 1.82.112.168.233.327.364.476.298.299.644.504 1.036.616Z"/><path d="m21.957 160.935.028.028c-.13-.149-.261-.308-.392-.476a.44.44 0 0 1 .084.112 7.413 7.413 0 0 0-.252-.56.301.301 0 0 1 .056.168 6.994 6.994 0 0 0-.084-.616.348.348 0 0 1 0 .196c.037-.224.065-.439.084-.644a.453.453 0 0 1-.056.196c.093-.205.177-.401.252-.588a.35.35 0 0 1-.084.14c.13-.168.261-.327.392-.476a.916.916 0 0 1-.14.112 4.54 4.54 0 0 0 .476-.364.327.327 0 0 1-.084.056c-.504.252-.924.868-1.092 1.428-.14.56-.084 1.316.252 1.82.308.504.812.952 1.4 1.092a2.63 2.63 0 0 0 1.848-.224 3.035 3.035 0 0 0 1.428-1.932c.112-.532.14-1.008 0-1.54a3.144 3.144 0 0 0-.756-1.288c-.392-.448-1.12-.7-1.68-.7-.588 0-1.288.252-1.68.7-.42.448-.728 1.036-.7 1.68.028.644.252 1.176.7 1.68Z"/><path d="M20.25 159.197a7.2 7.2 0 0 1-1.26.28c.205-.019.41-.047.615-.084a9.243 9.243 0 0 1-2.156.028c-.56-.056-1.288.308-1.68.7-.42.42-.728 1.092-.7 1.68.028.616.224 1.26.7 1.68.504.448 1.036.644 1.68.7 1.372.14 2.772 0 4.06-.392 1.204-.336 2.072-1.68 1.68-2.94-.392-1.204-1.652-2.016-2.94-1.652Z"/><path d="M16.413 163.678c1.26 0 2.436-1.092 2.38-2.38-.056-1.288-1.036-2.38-2.38-2.38-1.232 0-2.436 1.092-2.38 2.38.056 1.288 1.064 2.38 2.38 2.38Z"/><path d="M20.193 162.833h.504c.336 0 .644-.074.924-.224.298-.093.56-.252.784-.476a1.89 1.89 0 0 0 .476-.784c.149-.28.214-.578.196-.896a6.77 6.77 0 0 0-.084-.644 2.5 2.5 0 0 0-.588-1.036l-.504-.392a2.463 2.463 0 0 0-1.204-.308h-.504a1.732 1.732 0 0 0-.924.196c-.299.094-.551.262-.756.504a1.935 1.935 0 0 0-.504.756c-.15.28-.215.588-.196.924.037.206.065.411.084.616.112.411.317.766.616 1.064.168.112.326.234.476.364a2.3 2.3 0 0 0 1.204.336Z"/><path d="M21.733 164.206c.299.168.588.336.868.504.532.336 1.232.42 1.82.252.56-.14 1.148-.588 1.428-1.092.308-.56.448-1.232.252-1.848-.196-.588-.56-1.092-1.092-1.4a61.946 61.946 0 0 0-.868-.532 2.429 2.429 0 0 0-1.82-.224c-.56.14-1.176.56-1.428 1.092-.308.532-.448 1.204-.252 1.82.196.588.56 1.092 1.092 1.428Z"/><path d="M24.477 165.58c1.26 0 2.436-1.092 2.38-2.38-.056-1.288-1.036-2.38-2.38-2.38-1.232 0-2.436 1.092-2.38 2.38.056 1.288 1.036 2.38 2.38 2.38Z"/><path d="M26.52 163.678c1.26 0 2.465-1.092 2.38-2.38-.055-1.288-1.035-2.38-2.38-2.38-1.231 0-2.435 1.092-2.38 2.38.085 1.288 1.065 2.38 2.38 2.38Z"/><path d="M29.769 159.586v-.504a1.723 1.723 0 0 0-.196-.924 1.603 1.603 0 0 0-.504-.756 1.607 1.607 0 0 0-.756-.504 1.732 1.732 0 0 0-.924-.196c-.205.019-.42.047-.644.084a2.371 2.371 0 0 0-1.036.616c-.13.15-.252.308-.364.476a2.302 2.302 0 0 0-.336 1.204v.504c-.019.336.047.644.196.924.112.299.28.551.504.756.224.243.476.411.756.504.299.15.607.215.924.196.205-.018.42-.046.644-.084a2.362 2.362 0 0 0 1.036-.616c.13-.149.252-.308.364-.476.224-.373.336-.774.336-1.204Z"/><path d="M26.185 155.693a.244.244 0 0 0-.112-.028c.206.037.41.065.616.084a6.094 6.094 0 0 1-1.512-.42c.187.093.373.177.56.252l-.224-.112c-.588-.28-1.176-.42-1.848-.252-.532.168-1.148.588-1.4 1.092-.56 1.064-.364 2.716.84 3.276a9.924 9.924 0 0 0 3.08.868c.56.056 1.316-.336 1.68-.7.42-.42.728-1.092.7-1.68-.028-.616-.224-1.26-.7-1.68-.476-.476-1.008-.616-1.68-.7Z"/><path d="M22.768 154.633h-1.372c-.616 0-1.26.28-1.68.7-.42.42-.728 1.092-.7 1.68.056 1.288 1.036 2.38 2.38 2.38h1.372c.616 0 1.26-.252 1.68-.7.42-.392.728-1.064.7-1.68-.056-1.288-1.064-2.38-2.38-2.38Z"/><path d="M19.325 157.262c.756 0 1.484-.672 1.428-1.428-.028-.784-.616-1.428-1.428-1.428-.728 0-1.456.644-1.428 1.428.056.756.644 1.428 1.428 1.428Z"/><path d="M16.777 157.262c.728 0 1.456-.672 1.428-1.428-.056-.784-.644-1.428-1.428-1.428-.756 0-1.484.644-1.428 1.428.028.756.616 1.428 1.428 1.428ZM21.229 164.682c.616 0 .616-.952 0-.952s-.616.952 0 .952Z"/><path d="M20.893 164.011h.84a.49.49 0 0 0 .476-.476.49.49 0 0 0-.476-.476h-.84a.472.472 0 0 0-.476.476c0 .252.196.476.476.476ZM22.937 164.882c.616 0 .616-.952 0-.952s-.616.952 0 .952ZM24 165.751c.169.056.337.102.505.14.252.084.532-.084.588-.308a.487.487 0 0 0-.336-.588l-.504-.168c-.224-.084-.532.084-.588.336a.502.502 0 0 0 .336.588Z"/><path d="M25.513 165.886h.336a.49.49 0 0 0 .476-.476.472.472 0 0 0-.476-.476h-.336c-.252 0-.504.224-.476.476 0 .252.196.476.476.476ZM27.389 165.214c.616 0 .616-.952 0-.952s-.616.952 0 .952ZM28.369 163.537v-.504c0-.252-.196-.504-.476-.476a.472.472 0 0 0-.476.476v.504a.49.49 0 0 0 .476.476c.28-.028.476-.224.476-.476ZM28.761 162.468h.336c.252 0 .504-.224.476-.476a.472.472 0 0 0-.476-.476h-.336a.49.49 0 0 0-.476.476.49.49 0 0 0 .476.476Z"/><path d="M29.461 161.772c.588 0 .588-.952 0-.952-.616 0-.616.952 0 .952ZM29.797 160.061h.503c.252 0 .505-.224.476-.476a.472.472 0 0 0-.476-.476h-.503c-.253 0-.505.224-.477.476 0 .252.197.476.477.476Z"/><path d="m31.336 159.255.168-.168c.084-.112.14-.224.14-.336 0-.14-.056-.28-.14-.336-.084-.084-.224-.168-.336-.14-.14 0-.252.028-.336.14l-.168.168a.464.464 0 0 0-.14.336c0 .112.028.252.14.336.084.084.196.14.336.14.112-.028.224-.056.336-.14ZM29.909 156.926a5.815 5.815 0 0 1-.504-.196c-.252-.056-.532.112-.588.336a.487.487 0 0 0 .336.588l.504.168c.252.084.532-.084.588-.308a.487.487 0 0 0-.336-.588ZM27.725 156.112c.616 0 .616-.952 0-.952s-.616.952 0 .952ZM26.353 155.164c-.42.056-.812.028-1.232-.14-.252-.084-.532.112-.588.336-.084.252.084.476.336.588.476.168.98.252 1.484.168.252-.028.476-.196.476-.476 0-.224-.196-.504-.476-.476ZM23.805 154.66h-.196c-.112 0-.224.056-.336.14a.517.517 0 0 0-.14.336c.028.112.056.252.14.336.112.084.224.14.336.14h.196a.517.517 0 0 0 .336-.14.517.517 0 0 0 .14-.336c-.028-.112-.056-.252-.14-.336-.112-.084-.224-.14-.336-.14Z"/><path d="M23.105 154.324h-.336c-.252 0-.504.224-.476.476 0 .252.196.476.476.476h.336a.49.49 0 0 0 .476-.476.472.472 0 0 0-.476-.476ZM20.528 154.745c.616 0 .616-.952 0-.952s-.616.952 0 .952ZM19.325 153.793h-.168a.517.517 0 0 0-.336.14.517.517 0 0 0-.14.336c.028.14.056.252.14.336.112.112.224.14.336.14h.168c.14 0 .252-.028.336-.14.084-.084.168-.196.14-.336 0-.112-.028-.252-.14-.336a.464.464 0 0 0-.336-.14ZM30.469 164.179c.616 0 .616-.952 0-.952s-.616.952 0 .952ZM31.673 162.136c.616 0 .616-.952 0-.952s-.616.952 0 .952ZM29.461 163.507c.588 0 .588-.952 0-.952-.616 0-.616.952 0 .952ZM30.3 162.468c.617 0 .617-.952 0-.952-.615 0-.615.952 0 .952Z"/><path d="M29.797 161.772c.616 0 .616-.952 0-.952s-.616.952 0 .952Z"/><path d="M28.733 160.93a6.7 6.7 0 0 1-.337.364c-.168.168-.195.504 0 .672.197.168.505.196.672 0a6.7 6.7 0 0 0 .336-.364.481.481 0 0 0 0-.672.481.481 0 0 0-.671 0Z"/><path d="m27.92 161.995-.168.168c-.112.084-.14.224-.14.336 0 .112.028.252.14.336.084.084.196.14.336.14.112 0 .224-.056.336-.14l.168-.167a.517.517 0 0 0 .14-.336.52.52 0 0 0-.14-.337c-.112-.084-.224-.14-.336-.14a.464.464 0 0 0-.336.14ZM26.045 163.537c-.028.448.224.868.588 1.092.224.112.532.056.672-.168a.508.508 0 0 0-.196-.672c-.019 0-.037-.01-.056-.028.028.028.056.028 0 0-.028-.028 0-.028 0 0a.211.211 0 0 0-.028-.084c-.028-.028 0 .084 0 .028 0-.038-.01-.066-.028-.084-.028-.056 0 .056 0 0v-.084c.028-.252-.224-.504-.476-.476-.28 0-.448.196-.476.476Z"/><path d="M27.725 165.214c.616 0 .616-.952 0-.952s-.616.952 0 .952ZM26.717 166.225h.168c.112 0 .252-.028.336-.14.084-.056.14-.196.14-.336 0-.112-.056-.224-.14-.336-.112-.084-.224-.14-.336-.14h-.168a.464.464 0 0 0-.336.14c-.084.084-.168.224-.14.336 0 .14.028.252.14.336.084.112.196.14.336.14ZM28.425 166.225c.616 0 .616-.952 0-.952s-.616.952 0 .952Z"/><path d="M28.033 163.958a24.388 24.388 0 0 1-1.036-.196c-.252-.028-.504.084-.588.336-.056.224.084.56.336.588.336.056.681.121 1.036.196.252.028.504-.084.588-.336.056-.252-.084-.56-.336-.588Z"/><path d="M25.68 163.9c-.056.243-.112.476-.168.7-.056.252.084.532.336.588.252.056.532-.084.588-.336.056-.224.112-.457.168-.7.056-.224-.084-.504-.336-.56-.252-.056-.504.056-.588.308ZM14.201 160.401c.616 0 .616-.952 0-.952s-.616.952 0 .952ZM15.236 159.225c.588 0 .588-.952 0-.952-.616 0-.616.952 0 .952Z"/><path d="m15.18 157.767.169.336c.112.224.448.308.644.168.224-.14.28-.392.168-.644l-.168-.336c-.112-.224-.448-.308-.644-.168-.224.14-.308.392-.168.644Z"/><path d="M15.74 159.03c.616 0 .616-.952 0-.952s-.616.952 0 .952ZM13.864 160.233c.588 0 .616-.952 0-.952s-.616.952 0 .952ZM14.37 161.772c.615 0 .615-.952 0-.952-.617 0-.617.952 0 .952Z"/><path d="M14.2 162.642c.02-.019.048-.019.085 0-.075-.019-.084-.019-.028 0h.084c-.056-.019-.056-.019 0 0l.056.056c-.037-.038-.037-.038 0 0l.056.056c-.019-.038-.019-.038 0 0 .14.196.448.308.672.168.196-.14.308-.42.168-.644-.252-.364-.644-.616-1.092-.588-.252 0-.504.196-.476.476 0 .252.196.476.476.476ZM15.04 156.058c.309 0 .309-.476 0-.476-.28 0-.307.476 0 .476ZM14.537 154.855c.308 0 .308-.476 0-.476s-.308.476 0 .476ZM15.573 153.484c.308 0 .308-.476 0-.476s-.308.476 0 .476ZM17.113 153.762l.336.336c.084.084.252.112.336 0 .084-.084.112-.224 0-.336l-.336-.336a.256.256 0 0 0-.336 0 .256.256 0 0 0 0 .336ZM18.149 154.351c.308 0 .308-.476 0-.476s-.308.476 0 .476ZM19.157 153.312c.308 0 .308-.476 0-.476s-.308.476 0 .476ZM21.565 154.183c.308 0 .308-.476 0-.476s-.308.476 0 .476ZM22.601 154.519c.308 0 .308-.476 0-.476s-.308.476 0 .476ZM23.805 153.816c.308 0 .308-.476 0-.476s-.308.476 0 .476ZM24.253 153.592v.168c0 .14.084.252.224.252.14-.028.252-.112.252-.252v-.168c0-.112-.112-.252-.252-.252-.14.028-.224.112-.224.252ZM24.477 154.855c.308 0 .308-.476 0-.476s-.308.476 0 .476ZM25.513 154.968l.168.168a.255.255 0 0 0 .336 0 .255.255 0 0 0 0-.336l-.168-.168c-.084-.084-.252-.112-.336 0-.084.084-.084.224 0 .336ZM26.717 155.554c.308 0 .308-.476 0-.476s-.308.476 0 .476Z"/><path d="M27.053 155.726h.168c.112 0 .252-.112.224-.252a.22.22 0 0 0-.224-.224h-.168c-.14 0-.252.112-.252.224.028.14.112.252.252.252ZM28.2 155.692c.169.467.337.924.505 1.372.112.308.588.168.476-.112a29.702 29.702 0 0 0-.532-1.372c-.084-.28-.56-.168-.448.112ZM28.93 157.879l.167.168c.112.084.252.084.336 0a.21.21 0 0 0 0-.336l-.168-.168c-.084-.084-.252-.112-.336 0-.084.084-.084.224 0 .336ZM29.628 163.085c.308 0 .308-.476 0-.476s-.308.476 0 .476ZM28.537 163.31c-.168.056-.346.112-.532.168-.113.056-.197.168-.14.308a.248.248 0 0 0 .28.168c.168-.056.335-.121.503-.196.14-.028.224-.14.169-.28a.248.248 0 0 0-.28-.168ZM28.313 162.698l.336.168a.267.267 0 0 0 .336-.084.267.267 0 0 0-.084-.336 6.863 6.863 0 0 0-.364-.168c-.112-.056-.252-.028-.308.084-.056.112-.028.28.084.336Z"/><path d="M29.097 163.757c.308 0 .308-.476 0-.476s-.308.476 0 .476ZM28.929 164.628h.168c.14 0 .252-.112.252-.224a.251.251 0 0 0-.252-.252h-.168c-.112 0-.252.112-.224.252a.22.22 0 0 0 .224.224ZM29.628 164.96c.308 0 .308-.476 0-.476s-.308.476 0 .476ZM31 164.289c.308 0 .308-.477 0-.477s-.308.477 0 .477ZM31.337 162.386c.308 0 .308-.476 0-.476s-.308.476 0 .476ZM30.637 160.679c.308 0 .308-.476 0-.476s-.308.476 0 .476Z"/><path d="M30.132 160.679c.308 0 .308-.476 0-.476s-.308.476 0 .476ZM30.749 159.923v.196c0 .112.112.224.252.224a.24.24 0 0 0 .224-.224v-.196a.24.24 0 0 0-.224-.224c-.14 0-.252.112-.252.224ZM32.008 160.851c.308 0 .308-.476 0-.476s-.308.476 0 .476ZM31.45 161.298v.168c0 .14.083.252.223.252s.252-.112.252-.252v-.168c0-.112-.112-.224-.252-.224a.22.22 0 0 0-.224.224ZM33.548 161.55c.308 0 .308-.476 0-.476s-.308.476 0 .476ZM31.672 158.464c.308 0 .308-.476 0-.476s-.308.476 0 .476ZM31.337 158.972c.308 0 .308-.476 0-.476s-.308.476 0 .476ZM30.805 158.464c.308 0 .308-.476 0-.476-.28 0-.28.476 0 .476Z"/><path d="M30.468 157.824h-.504c-.308 0-.308.476 0 .476h.504c.308 0 .308-.476 0-.476ZM29.629 157.993l.168-.336c.056-.112.056-.28-.084-.336-.112-.056-.252-.028-.308.084l-.168.336c-.084.112-.056.28.084.336.084.056.252.028.308-.084ZM30.301 157.097c.308 0 .308-.476 0-.476s-.308.476 0 .476ZM30.468 155.837a1.796 1.796 0 0 1-.168-.196.255.255 0 0 0-.336 0 .294.294 0 0 0 0 .364l.168.168a.255.255 0 0 0 .336 0c.084-.112.084-.252 0-.336ZM28.93 155.386c.307 0 .307-.476 0-.476-.309 0-.309.476 0 .476ZM27.389 154.715h-.168c-.112 0-.252.112-.252.252.028.14.112.224.252.224h.168c.14 0 .252-.112.252-.224-.028-.14-.112-.252-.252-.252ZM25.513 154.519c.308 0 .308-.476 0-.476s-.308.476 0 .476ZM24.645 152.449c.308 0 .308-.476 0-.476s-.308.476 0 .476ZM22.433 153.148c.308 0 .308-.476 0-.476s-.308.476 0 .476ZM21.229 152.109c.308 0 .308-.476 0-.476s-.308.476 0 .476ZM20.809 152.56v.168c0 .14.112.252.252.252.112 0 .224-.112.224-.252v-.168a.24.24 0 0 0-.224-.224c-.14 0-.252.084-.252.224ZM20.36 153.312c.309 0 .309-.476 0-.476-.307 0-.307.476 0 .476ZM18.989 151.777c.308 0 .308-.476 0-.476s-.308.476 0 .476ZM16.777 151.273c.308 0 .308-.476 0-.476s-.308.476 0 .476Z"/><path d="M16.609 151.105c.28 0 .28-.476 0-.476-.308 0-.308.476 0 .476ZM15.91 149.535h.167c.14 0 .252-.084.252-.224-.028-.14-.112-.252-.252-.252h-.168c-.112 0-.252.112-.224.252 0 .14.084.224.224.224ZM18.317 149.535c.308 0 .308-.476 0-.476s-.308.476 0 .476ZM34.416 154.351c.309 0 .309-.476 0-.476-.307 0-.307.476 0 .476ZM32.99 155.473v.532c0 .308.475.308.475 0v-.532c0-.308-.476-.308-.476 0ZM33.156 156.506v.168c0 .14.112.252.224.252.14-.028.252-.112.252-.252v-.168c0-.112-.112-.252-.252-.252-.112.028-.224.112-.224.252ZM31 157.261c.308 0 .308-.476 0-.476s-.308.476 0 .476ZM30.637 156.058h.168c.14 0 .252-.112.252-.224a.251.251 0 0 0-.252-.252h-.168c-.112 0-.224.112-.224.252a.24.24 0 0 0 .224.224ZM31.337 155.191c.308 0 .308-.476 0-.476s-.308.476 0 .476ZM31.001 152.504h-.196a.24.24 0 0 0-.224.224c0 .14.112.252.224.252h.196c.112 0 .224-.112.224-.252a.24.24 0 0 0-.224-.224ZM29.628 153.652c.308 0 .308-.476 0-.476s-.308.476 0 .476ZM27.557 152.504h-.168c-.112 0-.252.112-.224.224 0 .14.084.252.224.252h.168c.14 0 .252-.112.252-.252-.028-.112-.112-.224-.252-.224ZM26.185 152.64c.308 0 .308-.476 0-.476s-.308.476 0 .476ZM28.761 149.902c.308 0 .308-.476 0-.476s-.308.476 0 .476ZM29.209 150.182v.168c0 .112.112.224.252.224a.24.24 0 0 0 .224-.224v-.168c0-.14-.112-.252-.224-.252a.251.251 0 0 0-.252.252ZM30.189 151.245l.336.168c.112.056.252.028.308-.084.056-.112.056-.252-.084-.308a3.076 3.076 0 0 0-.336-.196.267.267 0 0 0-.336.084c-.056.112-.028.28.112.336ZM28.592 154.351c.308 0 .308-.476 0-.476s-.308.476 0 .476ZM27.445 153.876c-.13.056-.252.121-.364.196-.112.056-.14.196-.084.308.084.112.224.14.336.084l.336-.168c.112-.056.168-.224.084-.336-.056-.112-.196-.14-.308-.084ZM26.52 154.687c.308 0 .308-.476 0-.476-.28 0-.28.476 0 .476ZM25.681 154.183c.308 0 .308-.476 0-.476s-.308.476 0 .476Z"/><path d="M25.428 153.345a5.813 5.813 0 0 0-.504.196.233.233 0 0 0-.168.28c.028.112.168.196.308.168l.504-.168c.112-.056.196-.168.168-.308-.028-.112-.168-.196-.308-.168ZM24.645 154.855c.308 0 .308-.476 0-.476s-.308.476 0 .476ZM23.441 154.687c.308 0 .308-.476 0-.476s-.308.476 0 .476ZM22.236 154.351c.308 0 .308-.476 0-.476-.28 0-.28.476 0 .476ZM21.229 154.351c.308 0 .308-.476 0-.476s-.308.476 0 .476Z"/><path d="M21.453 154.856c.392.056.784-.252.896-.644.084-.28-.392-.42-.476-.112-.028.196-.224.308-.42.28-.308 0-.308.476 0 .476ZM22.377 153.148c.308 0 .308-.476 0-.476s-.308.476 0 .476ZM23.16 152.585c.309 0 .309-.476 0-.476-.307 0-.307.476 0 .476ZM23.273 152.896v.364a.24.24 0 0 0 .224.224c.14 0 .252-.112.252-.224v-.364c0-.112-.112-.224-.252-.224a.24.24 0 0 0-.224.224ZM23.16 153.847a8 8 0 0 0 .365.448c.056.112.196.168.308.084.112-.056.168-.224.084-.336l-.336-.448c-.084-.084-.196-.14-.336-.084-.084.056-.168.224-.084.336ZM24.98 154.382a.981.981 0 0 1-.14.112c-.055.056-.083.14-.083.252 0 .037.01.084.028.14l.056.111c.084.056.168.112.252.084.112 0 .196-.028.252-.084a.915.915 0 0 0 .14-.111.452.452 0 0 0 .084-.252.31.31 0 0 0-.028-.14.298.298 0 0 0-.056-.112.342.342 0 0 0-.252-.112c-.112 0-.196.028-.252.112Z"/><path d="M24.449 154.378c-.13.037-.252.074-.364.112-.168.056-.308.252-.252.448.056.168.252.308.448.224l.336-.112c.196-.056.308-.224.252-.42-.056-.196-.252-.308-.42-.252ZM23.161 154.407c.476 0 .476-.7 0-.7-.448 0-.448.7 0 .7ZM22.236 154.068c.476 0 .476-.728 0-.728-.448 0-.448.728 0 .728Z"/><path d="M22.125 154.068c.476 0 .476-.728 0-.728-.448 0-.448.728 0 .728ZM21.9 152.587c.477 0 .477-.728 0-.728-.447 0-.447.728 0 .728ZM23.973 152.223c.448 0 .448-.7 0-.7-.476 0-.476.7 0 .7ZM25.233 153.036c.448 0 .448-.7 0-.7-.476 0-.476.7 0 .7ZM26.241 153.598c.476 0 .476-.7 0-.7-.448 0-.448.7 0 .7ZM26.689 153.594v.224a.37.37 0 0 0 .363.364.37.37 0 0 0 .364-.364v-.224a.37.37 0 0 0-.364-.364c-.195.028-.363.168-.363.364ZM26.941 156.454c.448 0 .448-.7 0-.7-.476 0-.476.7 0 .7ZM27.724 156.337h.364c.168 0 .364-.14.336-.336 0-.196-.14-.364-.336-.364h-.364c-.168 0-.364.168-.336.364 0 .196.14.336.336.336Z"/><path d="m28.061 156.925.112.112c.056.084.168.112.252.112.037 0 .084-.01.14-.028a.455.455 0 0 0 .112-.084.355.355 0 0 0 .112-.252c-.028-.084-.056-.168-.112-.252l-.112-.112c-.084-.056-.168-.112-.252-.112a.307.307 0 0 0-.14.028c-.056.018-.093.046-.112.084a.342.342 0 0 0-.112.252c0 .084.028.196.112.252ZM29.909 156.927h.112a.417.417 0 0 0 .336-.224.31.31 0 0 0 .028-.14.417.417 0 0 0-.112-.252.35.35 0 0 0-.252-.112h-.112a.417.417 0 0 0-.336.224.313.313 0 0 0-.028.14c0 .084.028.196.112.252a.347.347 0 0 0 .252.112ZM15.04 156.089l-.112.112c-.084.056-.112.168-.112.252 0 .056.01.102.028.14a.458.458 0 0 0 .084.112c.056.056.14.112.252.112.084 0 .168-.056.252-.112l.112-.112c.056-.056.084-.168.084-.252a.31.31 0 0 0-.028-.14 11.687 11.687 0 0 0-.056-.112c-.084-.056-.168-.112-.252-.112-.112 0-.196.028-.252.112ZM14.76 157.655c.187.112.383.233.589.364.14.084.392.028.476-.14.084-.168.056-.392-.14-.504l-.56-.336a.402.402 0 0 0-.504.14c-.084.168-.028.392.14.476Z"/><path d="M15.853 157.457h-.224a.37.37 0 0 0-.364.364.37.37 0 0 0 .364.364h.224a.37.37 0 0 0 .364-.364c-.028-.196-.168-.364-.364-.364ZM13.92 157.797h-.251c-.168 0-.364.168-.336.364 0 .196.14.364.336.364h.252c.168 0 .364-.168.336-.364 0-.196-.14-.364-.336-.364ZM13.81 157.037c.447 0 .447-.728 0-.728-.477 0-.477.728 0 .728Z"/><path d="M14.033 158.242c.13.224.252.448.364.672.084.168.336.224.476.14a.402.402 0 0 0 .14-.504 11.904 11.904 0 0 0-.364-.672c-.084-.168-.308-.224-.476-.14a.402.402 0 0 0-.14.504ZM14.788 160.536c-.448.542-.896 1.074-1.344 1.596-.28.364.196.868.504.532l1.344-1.624c.308-.364-.196-.868-.504-.504ZM13.445 159.897c.168 0 .168-.252 0-.252-.14 0-.14.252 0 .252ZM12.661 160.119c.14 0 .14-.252 0-.252-.168 0-.168.252 0 .252ZM12.885 161.381h.224c.168 0 .168-.252 0-.252h-.224c-.168 0-.168.252 0 .252ZM13.809 161.24c.14 0 .14-.224 0-.224-.168 0-.168.224 0 .224Z"/><path d="M13.668 161.939c.168 0 .168-.251 0-.251-.14 0-.14.251 0 .251ZM14.2 160.399a5.687 5.687 0 0 1-.308-.588c-.084-.112-.28 0-.196.14.094.187.196.383.308.588.056.14.252 0 .196-.14ZM12.269 161.072l.112.112c.028.056.112.084.168.084.056 0 .112-.028.168-.084a.3.3 0 0 0 .056-.168.301.301 0 0 0-.056-.168 13.14 13.14 0 0 0-.112-.112.398.398 0 0 0-.168-.056c-.056 0-.14 0-.168.056-.056.056-.084.112-.084.168 0 .074.028.13.084.168ZM13.333 161.269c.308 0 .308-.476 0-.476s-.308.476 0 .476Z"/><path d="M13.78 159.645a38.957 38.957 0 0 1-.111-.224c-.056-.112-.224-.168-.336-.084-.112.056-.14.196-.084.308.037.075.074.159.112.252.056.112.224.14.336.084a.267.267 0 0 0 .084-.336ZM13.5 158.717c.187.037.383.074.589.112.112.028.252-.028.28-.168.028-.112-.028-.252-.168-.28l-.56-.112c-.14-.028-.252.028-.308.168a.248.248 0 0 0 .168.28ZM14.817 159.531c.308 0 .308-.476 0-.476s-.308.476 0 .476Z"/><path d="M14.257 159.336a.43.43 0 0 1-.448 0c-.252-.168-.504.252-.252.392a.91.91 0 0 0 .923 0c.28-.14.028-.56-.223-.392ZM12.55 158.605h-.225a.251.251 0 0 0-.252.252c0 .112.112.224.252.224h.224a.24.24 0 0 0 .224-.224c0-.14-.112-.252-.224-.252ZM12.66 157.038c.309 0 .309-.476 0-.476-.307 0-.307.476 0 .476ZM12.773 155.894c.308 0 .308-.476 0-.476s-.308.476 0 .476ZM13.781 156.9v.112c0 .084.028.14.084.168.028.056.112.084.168.084.056 0 .112-.028.168-.084.038-.038.056-.094.056-.168v-.112c0-.056-.028-.112-.056-.168-.056-.028-.112-.056-.168-.056a.3.3 0 0 0-.168.056c-.056.056-.084.112-.084.168Z"/><path d="M12.437 158.047c-.224.41-.448.83-.672 1.26-.14.28.28.504.42.252.223-.43.438-.859.643-1.288.14-.28-.252-.504-.391-.224ZM11.624 160.51a.736.736 0 0 0 .168.672c.085.112.252.084.337 0 .112-.084.084-.224 0-.336-.056-.056-.056-.14-.028-.224.055-.28-.393-.42-.477-.112ZM12.773 161.462v.14c0 .056 0 .112.056.168a.3.3 0 0 0 .167.056c.056 0 .112-.028.168-.056a.71.71 0 0 0 .085-.168v-.14c0-.056-.029-.112-.085-.168a.3.3 0 0 0-.168-.056.398.398 0 0 0-.168.056.3.3 0 0 0-.055.168ZM11.96 162.501v.476c0 .28.477.28.477 0v-.476c0-.308-.476-.308-.476 0ZM13.445 163.203c.308 0 .308-.476 0-.476s-.308.476 0 .476ZM14.256 162.636c.308 0 .308-.476 0-.476s-.308.476 0 .476ZM14.481 160.346c-.299-.037-.607-.075-.924-.112-.112-.028-.224.112-.224.224 0 .14.112.224.224.252.317.037.625.075.924.112.14 0 .224-.14.224-.252.028-.14-.084-.224-.224-.224ZM12.55 160.23c.307 0 .307-.476 0-.476-.309 0-.309.476 0 .476ZM22.825 165.382c.308 0 .308-.476 0-.476s-.308.476 0 .476ZM22.993 166.057c.252.084.476.224.644.448.084.112.224.168.336.084.084-.056.168-.224.084-.308a1.877 1.877 0 0 0-.952-.7c-.28-.084-.42.364-.112.476ZM24.42 166.73c.308 0 .308-.476 0-.476s-.308.476 0 .476ZM25.345 166.394h.112a.398.398 0 0 0 .168-.056.398.398 0 0 0 .056-.168.3.3 0 0 0-.056-.168c-.056-.056-.112-.084-.168-.084h-.112c-.084 0-.14.028-.168.084-.056.028-.084.112-.084.168 0 .056.028.112.084.168.037.037.093.056.168.056ZM25.093 165.16a.555.555 0 0 1-.392.084c-.28-.084-.42.392-.112.448.252.056.532.028.756-.112.252-.168.028-.588-.252-.42ZM24.084 165.133h-.224c-.14 0-.252.112-.252.224 0 .14.112.252.252.252h.224c.112 0 .224-.112.224-.252a.22.22 0 0 0-.224-.224ZM22.825 164.574c.308 0 .308-.476 0-.476s-.308.476 0 .476ZM21.789 163.448a1.99 1.99 0 0 0-1.064 1.26c-.084.308.392.42.476.14.112-.448.42-.784.84-.98.28-.112.028-.532-.252-.42ZM26.297 155.473l.112-.112c.056-.028.084-.112.084-.168 0-.056-.028-.14-.084-.168-.028-.028-.084-.084-.168-.056a.296.296 0 0 0-.168.056l-.112.112c-.028.056-.056.112-.056.168a.3.3 0 0 0 .056.168c.056.056.112.084.168.084.075 0 .13-.028.168-.084ZM27.39 154.519c.307 0 .307-.476 0-.476-.309 0-.309.476 0 .476ZM28.704 153.65l.112.112c.056.028.112.056.168.056.056 0 .14 0 .168-.056.056-.056.084-.112.084-.168a.19.19 0 0 0-.084-.168l-.112-.112c-.028-.056-.112-.084-.168-.084-.056 0-.112.028-.168.084a.3.3 0 0 0-.056.168c0 .056.02.112.056.168ZM31.169 158.158c.14 0 .14-.224 0-.224-.168 0-.168.224 0 .224ZM31.953 158.158c.168 0 .168-.224 0-.224-.14 0-.14.224 0 .224ZM32.065 157.154c.168 0 .168-.252 0-.252-.14 0-.14.252 0 .252Z"/><path d="m31.952 156.87.112.224c.028.056.112.056.168.028.056-.028.084-.112.056-.168l-.112-.224c-.028-.056-.112-.056-.168-.028-.056.028-.084.112-.056.168ZM32.793 157.46l.112.112a.179.179 0 0 0 .168 0c.056-.056.056-.14 0-.168l-.112-.112c-.056-.056-.14-.056-.168 0-.056.028-.056.112 0 .168ZM32.99 158.132l-.113.336c-.056.168.196.224.224.084.038-.131.075-.252.112-.364.056-.14-.168-.196-.224-.056ZM32.4 158.747a.665.665 0 0 0-.448.56c-.028.14.224.14.224 0 .028-.14.14-.28.28-.336.14-.056.084-.28-.056-.224ZM32.569 160.344c.093.038.177.075.252.112.056.028.112 0 .14-.056.028-.056.028-.14-.028-.168l-.224-.112a.135.135 0 0 0-.168.056c-.028.056-.028.14.028.168ZM35.173 159.197c.14 0 .14-.224 0-.224-.168 0-.168.224 0 .224ZM36.88 156.451c.14 0 .14-.224 0-.224-.167 0-.167.224 0 .224ZM36.181 155.779c.168 0 .168-.252 0-.252-.14 0-.14.252 0 .252ZM34.165 158.775l-.224.224c-.112.112.056.28.168.168l.224-.224c.112-.112-.056-.28-.168-.168ZM33.549 159.866v.112c0 .084.056.14.112.14.084 0 .14-.056.14-.14v-.112c0-.056-.056-.112-.14-.112a.12.12 0 0 0-.112.112ZM34.109 160.594c.056.112.102.224.14.336.028.14.28.084.224-.056l-.112-.336c-.056-.14-.28-.084-.252.056ZM34.81 161.381h.111c.084 0 .14-.056.14-.14 0-.056-.056-.112-.14-.112h-.112a.12.12 0 0 0-.112.112c0 .084.056.14.112.14ZM37.777 159.533c.168 0 .168-.224 0-.224-.14 0-.14.224 0 .224ZM113.825 216.256c.896 0 .896-1.428 0-1.428-.924 0-.924 1.428 0 1.428ZM114.329 221.658c.924 0 .924-1.428 0-1.428s-.924 1.428 0 1.428ZM121.777 229.893c.924 0 .924-1.428 0-1.428s-.924 1.428 0 1.428ZM141.573 230.401c.924 0 .924-1.428 0-1.428s-.924 1.428 0 1.428ZM153.388 220.627c.924 0 .924-1.428 0-1.428s-.924 1.428 0 1.428ZM157.001 207.268c.924 0 .924-1.428 0-1.428s-.924 1.428 0 1.428ZM141.825 201.615c.924 0 .924-1.427 0-1.427s-.924 1.427 0 1.427ZM127.432 199.037c.924 0 .924-1.428 0-1.428s-.924 1.428 0 1.428ZM122.029 202.401c.924 0 .924-1.428 0-1.428-.896 0-.924 1.428 0 1.428ZM132.585 219.113c1.848 0 3.64-1.624 3.556-3.556-.084-1.932-1.568-3.584-3.556-3.584-1.876 0-3.668 1.652-3.584 3.584.084 1.932 1.568 3.556 3.584 3.556Z"/><path d="M129.225 217.32c1.876 0 3.668-1.652 3.584-3.584-.084-1.932-1.568-3.556-3.584-3.556-1.848 0-3.64 1.652-3.556 3.556.084 1.96 1.568 3.584 3.556 3.584Z"/><path d="M133.872 216.033h.252c.486.018.943-.084 1.372-.308.448-.15.831-.392 1.148-.728.355-.336.598-.719.728-1.148.224-.43.327-.887.308-1.372l-.112-.952a3.533 3.533 0 0 0-.924-1.596 200.52 200.52 0 0 0-.728-.56 3.57 3.57 0 0 0-1.792-.476h-.252a2.607 2.607 0 0 0-1.372.308c-.448.149-.84.392-1.176.728a3.008 3.008 0 0 0-.728 1.148 2.76 2.76 0 0 0-.308 1.4c.038.317.084.625.14.924.168.616.467 1.148.896 1.596l.728.56c.56.317 1.167.476 1.82.476Z"/><path d="M135.245 215.891c.037 0 .075.009.112.028a11.878 11.878 0 0 1-.868-.364c.131.056.252.131.364.224l-.728-.56c.112.075.205.159.28.252a22.567 22.567 0 0 0-.56-.7c.075.112.14.233.196.364a11.878 11.878 0 0 0-.364-.868.304.304 0 0 1 .056.168c.252.868.868 1.68 1.652 2.156.411.261.849.401 1.316.42.485.093.961.065 1.428-.084.868-.28 1.708-.812 2.156-1.624.42-.84.616-1.82.336-2.744-.224-.868-.672-1.596-1.288-2.24-.616-.644-1.372-1.036-2.212-1.316a2.558 2.558 0 0 0-1.4-.056 2.66 2.66 0 0 0-1.344.42 2.913 2.913 0 0 0-1.008.896 2.572 2.572 0 0 0-.616 1.232c-.224.896-.168 1.932.336 2.744l.56.728c.448.448.98.756 1.596.924Z"/><path d="m135.189 217.041.056.056a200.52 200.52 0 0 1-.56-.728c.037.056.074.122.111.196a12.532 12.532 0 0 0-.363-.868c.037.094.065.187.083.28a16.55 16.55 0 0 0-.14-.952.695.695 0 0 1 0 .28c.056-.317.103-.634.14-.952a1.54 1.54 0 0 1-.083.28c.13-.28.251-.56.363-.84l-.111.168.56-.728a2.08 2.08 0 0 1-.196.224l.727-.56a.944.944 0 0 1-.14.056c-.756.42-1.399 1.316-1.623 2.128-.252.868-.141 2.016.363 2.772.476.756 1.205 1.428 2.129 1.624.952.224 1.876.112 2.744-.364 1.064-.56 1.904-1.68 2.156-2.856.168-.784.195-1.54-.029-2.324-.224-.784-.588-1.343-1.12-1.931-.588-.672-1.68-1.064-2.52-1.064-.896 0-1.931.392-2.547 1.064-.616.672-1.064 1.567-1.036 2.519.056.98.392 1.792 1.036 2.52Z"/><path d="M132.669 214.437c-.635.187-1.269.327-1.904.42l.952-.112a15.748 15.748 0 0 1-3.248.056c-.868-.084-1.932.448-2.52 1.036-.616.616-1.092 1.624-1.064 2.52.056.924.364 1.876 1.064 2.52.728.672 1.512.952 2.52 1.064 2.016.196 4.144-.056 6.104-.616 1.792-.504 3.08-2.52 2.492-4.396-.588-1.82-2.492-3.052-4.396-2.492Z"/><path d="M126.929 221.183c1.848 0 3.64-1.652 3.556-3.584-.084-1.932-1.568-3.556-3.556-3.556-1.876 0-3.668 1.624-3.584 3.556.084 1.932 1.568 3.584 3.584 3.584Z"/><path d="M132.585 219.9h.756c.504.019.962-.084 1.372-.308a2.626 2.626 0 0 0 1.148-.756c.355-.317.607-.7.756-1.148.224-.411.327-.868.308-1.372a17.334 17.334 0 0 1-.14-.952 3.544 3.544 0 0 0-.924-1.568 22.567 22.567 0 0 0-.7-.56 3.632 3.632 0 0 0-1.82-.476h-.756a2.607 2.607 0 0 0-1.372.308c-.448.131-.83.373-1.148.728-.354.317-.606.7-.756 1.148a2.7 2.7 0 0 0-.308 1.372c.056.317.103.635.14.952.168.616.476 1.139.924 1.568.224.187.458.373.7.56.56.336 1.167.504 1.82.504Z"/><path d="M134.909 221.969c.41.261.83.513 1.26.756.784.476 1.876.616 2.772.364.812-.224 1.708-.868 2.128-1.624.42-.84.644-1.848.364-2.772-.308-.896-.84-1.624-1.652-2.128l-1.288-.784c-.784-.448-1.876-.588-2.744-.336-.84.224-1.736.868-2.128 1.624-.448.84-.672 1.848-.364 2.744.28.896.812 1.652 1.652 2.156Z"/><path d="M138.996 224.015c1.876 0 3.668-1.652 3.584-3.584-.084-1.932-1.568-3.556-3.584-3.556-1.848 0-3.64 1.624-3.556 3.556.084 1.932 1.568 3.584 3.556 3.584Z"/><path d="M142.076 221.183c1.876 0 3.668-1.652 3.584-3.584-.084-1.932-1.568-3.556-3.584-3.556-1.848 0-3.64 1.624-3.556 3.556.084 1.932 1.568 3.584 3.556 3.584Z"/><path d="M146.949 215.022v-.756a2.698 2.698 0 0 0-.308-1.372 2.643 2.643 0 0 0-.756-1.148 2.632 2.632 0 0 0-1.148-.756 2.607 2.607 0 0 0-1.372-.308 16.55 16.55 0 0 1-.952.14 3.538 3.538 0 0 0-1.568.924c-.187.243-.374.476-.56.7a3.621 3.621 0 0 0-.476 1.82v.756c-.019.504.084.97.308 1.4.13.429.373.812.728 1.148.317.336.7.578 1.148.728.429.224.886.326 1.372.308.317-.038.634-.084.952-.14a3.468 3.468 0 0 0 1.568-.896l.56-.728c.336-.56.504-1.167.504-1.82Z"/><path d="M141.573 209.175a.614.614 0 0 1-.196-.028c.318.056.635.103.952.14a9.471 9.471 0 0 1-2.268-.616l.84.336a2.52 2.52 0 0 1-.336-.14c-.896-.42-1.792-.644-2.772-.364-.812.224-1.708.868-2.128 1.624-.84 1.596-.532 4.06 1.288 4.9 1.54.728 2.94 1.092 4.62 1.288.84.112 1.96-.476 2.52-1.036.616-.616 1.092-1.624 1.036-2.52-.028-.924-.336-1.876-1.036-2.52-.756-.7-1.54-.924-2.52-1.064Z"/><path d="M136.421 207.605h-2.044c-.924 0-1.876.392-2.52 1.064-.616.616-1.092 1.624-1.064 2.52.112 1.932 1.596 3.556 3.584 3.556h2.044c.924 0 1.876-.392 2.548-1.036.616-.616 1.064-1.652 1.036-2.52-.084-1.932-1.568-3.584-3.584-3.584Z"/><path d="M131.297 211.526c1.12 0 2.184-.98 2.128-2.156-.056-1.148-.924-2.128-2.128-2.128-1.12 0-2.212.98-2.156 2.128.056 1.176.952 2.156 2.156 2.156Z"/><path d="M127.433 211.526c1.12 0 2.184-.98 2.156-2.156-.056-1.148-.952-2.128-2.156-2.128-1.12 0-2.184.98-2.128 2.128.028 1.176.924 2.156 2.128 2.156ZM134.125 222.697c.924 0 .924-1.427 0-1.427s-.924 1.427 0 1.427Z"/><path d="M133.593 221.658h1.288c.392 0 .728-.336.728-.7a.741.741 0 0 0-.728-.728h-1.288c-.364 0-.7.336-.7.728 0 .364.336.7.7.7ZM136.701 222.951c.896 0 .896-1.428 0-1.428-.924 0-.924 1.428 0 1.428ZM138.297 224.239c.242.093.494.177.756.252.364.14.812-.112.896-.476.084-.392-.14-.756-.504-.896a12.963 12.963 0 0 1-.784-.252c-.364-.112-.784.14-.868.504-.084.392.112.756.504.868Z"/><path d="M140.536 224.491h.533c.364 0 .728-.336.7-.7 0-.392-.308-.729-.7-.729h-.533c-.364 0-.728.337-.7.729 0 .364.308.7.7.7ZM143.365 223.455c.924 0 .924-1.428 0-1.428s-.924 1.428 0 1.428ZM144.849 220.961v-.784c0-.364-.308-.728-.7-.728-.392.028-.728.336-.728.728v.784c0 .364.336.728.728.7.392-.028.7-.308.7-.7ZM145.437 219.334h.504c.364 0 .728-.308.728-.7-.028-.392-.336-.728-.728-.728h-.504a.741.741 0 0 0-.728.728c.028.392.308.7.728.7Z"/><path d="M146.444 218.33c.924 0 .924-1.428 0-1.428-.896 0-.896 1.428 0 1.428ZM146.977 215.752h.756a.741.741 0 0 0 .728-.728c-.028-.364-.308-.7-.728-.7h-.756c-.392 0-.728.336-.728.7.028.392.336.728.728.728Z"/><path d="m149.272 214.523.252-.252a.765.765 0 0 0 .224-.532.753.753 0 0 0-.224-.504.805.805 0 0 0-.504-.196.805.805 0 0 0-.504.196 3.182 3.182 0 0 1-.252.28c-.14.112-.196.308-.196.504 0 .168.056.364.196.504.14.112.308.196.504.196a.675.675 0 0 0 .504-.196ZM147.145 211.023a9.049 9.049 0 0 0-.756-.252c-.364-.14-.812.14-.868.504-.112.392.112.728.476.868.261.093.523.177.784.252.336.14.784-.14.868-.476.084-.42-.112-.756-.504-.896ZM143.897 209.846c.896 0 .924-1.428 0-1.428s-.924 1.428 0 1.428ZM141.825 208.417c-.644.084-1.26 0-1.876-.224-.336-.14-.784.14-.868.476-.112.42.14.756.504.896.7.28 1.484.364 2.24.28.392-.056.728-.308.728-.728 0-.336-.336-.756-.728-.7ZM137.989 207.633h-.28a.753.753 0 0 0-.504.224.746.746 0 0 0-.196.504c0 .168.056.364.196.504.14.112.308.196.504.196h.28a.872.872 0 0 0 .504-.196.872.872 0 0 0 .196-.504c0-.196-.056-.392-.196-.504a.753.753 0 0 0-.504-.224Z"/><path d="M136.953 207.125h-.532c-.364 0-.728.336-.7.7.028.392.308.728.7.728h.532c.364 0 .728-.336.7-.728 0-.364-.308-.7-.7-.7ZM133.089 207.776c.924 0 .924-1.428 0-1.428s-.924 1.428 0 1.428ZM131.296 206.348h-.252a.656.656 0 0 0-.504.224.656.656 0 0 0-.224.504c0 .168.084.364.224.504.14.112.308.196.504.196h.252a.872.872 0 0 0 .504-.196c.112-.14.224-.336.196-.504 0-.196-.056-.392-.196-.504a.701.701 0 0 0-.504-.224ZM148.012 221.912c.896 0 .896-1.428 0-1.428-.924 0-.924 1.428 0 1.428ZM149.804 218.834c.924 0 .924-1.428 0-1.428s-.924 1.428 0 1.428ZM146.444 220.877c.924 0 .924-1.428 0-1.428-.896 0-.896 1.428 0 1.428ZM147.732 219.334c.924 0 .924-1.428 0-1.428-.896 0-.924 1.428 0 1.428Z"/><path d="M146.976 218.33c.924 0 .924-1.428 0-1.428s-.924 1.428 0 1.428Z"/><path d="M145.409 217.07a13.7 13.7 0 0 0-.504.532.686.686 0 0 0 0 1.008c.28.252.728.28 1.008 0a13.7 13.7 0 0 1 .504-.532c.252-.28.28-.756 0-1.008s-.756-.308-1.008 0Z"/><path d="M144.149 218.638a1.623 1.623 0 0 1-.252.252.719.719 0 0 0-.196.504c0 .196.056.392.196.504.14.14.308.224.504.224a.701.701 0 0 0 .504-.224c.094-.075.177-.159.252-.252a.656.656 0 0 0 .224-.504.753.753 0 0 0-.224-.504c-.14-.112-.308-.224-.504-.196a.675.675 0 0 0-.504.196ZM141.377 220.932c-.056.672.308 1.316.868 1.652.336.196.812.084.98-.252.168-.364.084-.784-.252-.98l-.112-.056c.056.028.084.056.028 0-.056-.056-.028-.056 0 0a.455.455 0 0 0-.084-.112c-.056-.084.028.084 0 0a.257.257 0 0 0-.028-.112c-.028-.084 0 .112 0 .028.028-.056 0-.112.028-.168.028-.364-.364-.728-.728-.7-.42.028-.672.308-.7.7Z"/><path d="M143.897 223.455c.896 0 .924-1.428 0-1.428s-.924 1.428 0 1.428ZM142.357 224.994h.252a.719.719 0 0 0 .504-.196c.112-.14.224-.336.196-.504 0-.196-.056-.392-.196-.504a.701.701 0 0 0-.504-.224h-.252a.656.656 0 0 0-.504.224c-.14.112-.224.336-.224.504 0 .168.084.364.224.504.14.112.308.196.504.196ZM144.904 224.994c.924 0 .924-1.428 0-1.428-.896 0-.896 1.428 0 1.428Z"/><path d="M144.317 221.58c-.504-.094-1.018-.187-1.54-.28-.364-.056-.756.112-.868.504-.084.336.112.812.504.868.504.093 1.017.186 1.54.28.364.056.756-.112.868-.504.112-.336-.112-.812-.504-.868Z"/><path d="M140.817 221.519c-.075.336-.159.682-.252 1.036-.084.336.112.784.504.868.364.084.784-.112.868-.504.093-.336.177-.681.252-1.036.084-.364-.112-.784-.476-.868-.392-.084-.784.112-.896.504ZM123.568 216.256c.924 0 .924-1.428 0-1.428-.896 0-.896 1.428 0 1.428ZM125.136 214.467c.896 0 .896-1.428 0-1.428-.924 0-.924 1.428 0 1.428Z"/><path d="M125.052 212.311c.075.168.159.336.253.504.168.336.672.448.98.252.336-.224.42-.616.252-.98a5.92 5.92 0 0 1-.252-.504c-.168-.336-.672-.448-.98-.252-.336.224-.449.616-.253.98Z"/><path d="M125.893 214.213c.924 0 .924-1.428 0-1.428s-.924 1.428 0 1.428ZM123.065 216.006c.924 0 .924-1.428 0-1.428s-.924 1.428 0 1.428ZM123.848 218.33c.896 0 .896-1.428 0-1.428-.924 0-.924 1.428 0 1.428Z"/><path d="M123.569 219.588h.14c-.094-.018-.103-.018-.028 0a.241.241 0 0 0 .112.028c-.075-.037-.075-.037 0 0a.474.474 0 0 1 .112.084c-.075-.056-.075-.056 0 0l.084.084c-.056-.075-.056-.075 0 0 .196.308.616.476.952.252.336-.196.476-.644.28-.98a1.962 1.962 0 0 0-1.652-.896c-.364 0-.728.336-.7.7.028.392.308.728.7.728ZM124.857 209.735c.476 0 .476-.7 0-.7-.448 0-.448.7 0 .7ZM124.101 207.943c.448 0 .448-.728 0-.728-.476 0-.476.728 0 .728ZM125.641 205.872c.448 0 .448-.7 0-.7-.476 0-.476.7 0 .7ZM127.964 206.285l.504.504c.14.14.364.168.504 0a.355.355 0 0 0 0-.504l-.504-.504c-.14-.14-.392-.14-.504 0a.355.355 0 0 0 0 .504ZM129.504 207.157c.448 0 .448-.7 0-.7-.476 0-.476.7 0 .7ZM131.045 205.618c.448 0 .448-.7 0-.7-.476 0-.476.7 0 .7ZM134.629 206.903c.476 0 .476-.7 0-.7-.448 0-.448.7 0 .7ZM136.169 207.439c.476 0 .476-.728 0-.728-.448 0-.448.728 0 .728ZM137.989 206.404c.448 0 .448-.728 0-.728-.476 0-.476.728 0 .728ZM138.633 206.04v.252a.37.37 0 0 0 .364.364.37.37 0 0 0 .364-.364v-.252a.37.37 0 0 0-.364-.364c-.196.028-.364.168-.364.364ZM138.997 207.943c.476 0 .476-.728 0-.728-.448 0-.448.728 0 .728ZM140.537 208.079l.28.28c.112.112.364.14.504 0 .112-.168.14-.364 0-.504a3.368 3.368 0 0 1-.252-.28c-.14-.112-.392-.14-.532 0-.112.14-.14.364 0 .504ZM142.357 208.974c.448 0 .448-.728 0-.728-.476 0-.476.728 0 .728Z"/><path d="M142.861 209.228h.252a.37.37 0 0 0 .364-.364.37.37 0 0 0-.364-.364h-.252a.37.37 0 0 0-.364.364.37.37 0 0 0 .364.364ZM144.597 209.201c.261.69.514 1.381.756 2.072.168.42.868.224.7-.196-.261-.691-.522-1.372-.784-2.044-.14-.448-.84-.252-.672.168ZM145.689 212.45c.093.094.177.187.252.28.14.112.392.14.504 0a.355.355 0 0 0 0-.504 3.721 3.721 0 0 0-.252-.28c-.14-.112-.364-.14-.504 0a.355.355 0 0 0 0 .504ZM146.725 220.291c.448 0 .448-.729 0-.729-.476 0-.476.729 0 .729ZM145.073 220.628c-.242.074-.494.158-.756.252a.36.36 0 0 0-.252.448c.056.168.252.308.448.252.243-.094.495-.187.756-.28.196-.056.308-.224.252-.42a.36.36 0 0 0-.448-.252ZM144.737 219.674c.187.093.364.187.532.28.168.084.392.056.476-.14.084-.168.056-.392-.112-.476a13.61 13.61 0 0 1-.532-.28c-.168-.084-.392-.028-.476.14-.084.168-.056.392.112.476Z"/><path d="M145.94 221.298c.476 0 .476-.7 0-.7-.448 0-.448.7 0 .7ZM145.689 222.587h.252a.37.37 0 0 0 .364-.364c0-.168-.168-.336-.364-.336h-.252c-.196 0-.364.168-.364.336a.37.37 0 0 0 .364.364ZM146.725 223.119c.448 0 .448-.728 0-.728-.476 0-.476.728 0 .728ZM148.769 222.08c.448 0 .476-.728 0-.728-.448 0-.448.728 0 .728ZM149.273 219.255c.476 0 .476-.728 0-.728-.448 0-.448.728 0 .728ZM148.265 216.677c.448 0 .448-.7 0-.7-.476 0-.476.7 0 .7Z"/><path d="M147.481 216.677c.476 0 .476-.7 0-.7-.448 0-.448.7 0 .7ZM148.404 215.555v.252a.37.37 0 0 0 .364.364c.196-.028.364-.168.364-.364v-.252a.37.37 0 0 0-.364-.364.37.37 0 0 0-.364.364ZM150.309 216.93c.476 0 .476-.7 0-.7-.448 0-.448.7 0 .7ZM149.44 217.602v.252a.37.37 0 0 0 .364.364c.196 0 .364-.14.364-.364v-.252c0-.168-.168-.364-.364-.364-.196.028-.364.168-.364.364ZM152.632 217.966c.448 0 .448-.728 0-.728-.476 0-.476.728 0 .728ZM149.805 213.349c.448 0 .448-.728 0-.728-.476 0-.476.728 0 .728ZM149.273 214.102c.476 0 .476-.7 0-.7-.448 0-.448.7 0 .7ZM148.517 213.349c.448 0 .448-.728 0-.728-.476 0-.476.728 0 .728Z"/><path d="M148.013 212.363h-.784c-.448 0-.448.728 0 .728h.784c.448 0 .448-.728 0-.728ZM146.725 212.644c.093-.187.187-.364.28-.532.084-.168.056-.392-.14-.476-.168-.084-.392-.056-.476.112a13.61 13.61 0 0 0-.28.532c-.084.168-.028.392.14.476.168.084.392.056.476-.112ZM147.732 211.27c.476 0 .476-.7 0-.7-.448 0-.448.7 0 .7ZM147.985 209.398a3.721 3.721 0 0 0-.252-.28c-.14-.112-.364-.14-.504 0-.14.168-.14.364 0 .504.093.094.177.187.252.28.14.112.392.14.504 0a.355.355 0 0 0 0-.504ZM145.688 208.7c.448 0 .448-.7 0-.7s-.476.7 0 .7ZM143.365 207.746h-.252a.37.37 0 0 0-.364.364c.028.168.168.336.364.336h.252c.196 0 .364-.168.364-.336a.37.37 0 0 0-.364-.364ZM140.537 207.439c.476 0 .476-.728 0-.728-.448 0-.448.728 0 .728ZM139.249 204.325c.476 0 .476-.7 0-.7-.448 0-.448.7 0 .7ZM135.917 205.364c.448 0 .476-.7 0-.7-.448 0-.448.7 0 .7ZM134.125 203.825c.448 0 .448-.7 0-.7-.476 0-.476.7 0 .7ZM133.509 204.497v.252a.37.37 0 0 0 .364.364c.196 0 .336-.168.336-.364v-.252c0-.196-.14-.364-.336-.364-.196.028-.364.168-.364.364ZM132.837 205.618c.448 0 .448-.7 0-.7s-.476.7 0 .7ZM130.765 203.322c.476 0 .476-.728 0-.728-.448 0-.448.728 0 .728ZM127.433 202.536c.476 0 .476-.7 0-.7-.448 0-.448.7 0 .7Z"/><path d="M127.181 202.287c.448 0 .448-.728 0-.728s-.448.728 0 .728ZM126.145 199.962h.252c.196 0 .364-.168.364-.336a.353.353 0 0 0-.364-.364h-.252c-.168 0-.364.168-.364.364.028.168.168.336.364.336ZM129.756 199.962c.448 0 .448-.7 0-.7-.476 0-.476.7 0 .7ZM153.92 207.157c.448 0 .448-.7 0-.7-.476 0-.476.7 0 .7ZM151.765 208.863v.784c0 .448.7.448.7 0v-.784c0-.448-.7-.448-.7 0ZM152.017 210.403v.252a.37.37 0 0 0 .364.364c.196 0 .336-.168.336-.364v-.252c0-.196-.168-.364-.336-.364-.196.028-.364.168-.364.364ZM148.769 211.524c.448 0 .476-.7 0-.7-.448 0-.448.7 0 .7ZM148.264 209.735h.252a.37.37 0 0 0 .364-.364c-.028-.168-.168-.336-.364-.336h-.252c-.196 0-.364.168-.364.336a.37.37 0 0 0 .364.364ZM149.273 208.446c.476 0 .476-.7 0-.7-.448 0-.448.7 0 .7ZM148.768 204.387h-.252a.37.37 0 0 0-.364.364.37.37 0 0 0 .364.364h.252a.37.37 0 0 0 .364-.364.37.37 0 0 0-.364-.364ZM146.725 206.15c.448 0 .448-.728 0-.728-.476 0-.476.728 0 .728ZM143.617 204.387h-.252c-.168 0-.364.168-.336.364 0 .196.14.364.336.364h.252c.196 0 .392-.168.364-.364a.353.353 0 0 0-.364-.364ZM141.572 204.607c.448 0 .448-.728 0-.728s-.448.728 0 .728ZM145.437 200.494c.448 0 .448-.728 0-.728-.476 0-.476.728 0 .728ZM146.108 200.886v.28c0 .168.168.364.336.336.196 0 .364-.14.364-.336v-.28c0-.168-.168-.364-.364-.336a.34.34 0 0 0-.336.336ZM147.537 202.508c.186.094.364.178.532.252.168.084.392.056.476-.112.084-.168.056-.392-.112-.504a11.13 11.13 0 0 1-.532-.252c-.168-.084-.392-.056-.476.14-.084.168-.056.392.112.476ZM145.185 207.157c.448 0 .448-.7 0-.7-.476 0-.476.7 0 .7ZM143.448 206.488a4.822 4.822 0 0 0-.532.252c-.168.084-.224.336-.112.476.112.168.308.224.476.14.168-.093.336-.177.504-.252.168-.084.252-.336.14-.504-.112-.168-.308-.224-.476-.112ZM142.077 207.689c.476 0 .476-.728 0-.728-.448 0-.448.728 0 .728ZM140.789 206.903c.476 0 .476-.7 0-.7-.448 0-.448.7 0 .7Z"/><path d="M140.453 205.673c-.261.093-.523.177-.784.252-.168.084-.308.252-.252.448.056.168.252.308.448.252.261-.094.513-.178.756-.252.196-.084.308-.252.252-.448-.028-.168-.252-.308-.42-.252ZM139.249 207.943c.476 0 .476-.728 0-.728-.448 0-.448.728 0 .728ZM137.457 207.689c.476 0 .476-.728 0-.728-.448 0-.448.728 0 .728ZM135.665 207.157c.448 0 .448-.7 0-.7-.476 0-.476.7 0 .7ZM134.125 207.157c.448 0 .448-.7 0-.7-.476 0-.476.7 0 .7Z"/><path d="M134.461 207.941c.616.056 1.176-.364 1.344-.952.112-.448-.56-.644-.7-.196a.584.584 0 0 1-.644.448c-.448-.028-.448.672 0 .7ZM135.833 205.364c.448 0 .448-.7 0-.7s-.448.7 0 .7ZM137.037 204.525c.448 0 .448-.728 0-.728-.476 0-.476.728 0 .728ZM137.177 205.003v.532c0 .168.168.364.364.336.196 0 .364-.14.364-.336v-.532c0-.168-.168-.364-.364-.336-.196 0-.364.14-.364.336Z"/><path d="M137.036 206.402c.168.243.346.476.532.7.112.14.308.224.476.112.168-.084.252-.336.14-.476a17.352 17.352 0 0 1-.532-.672c-.112-.168-.308-.252-.476-.14-.168.084-.252.336-.14.476ZM139.725 207.211l-.168.168a.532.532 0 0 0-.14.364c0 .075.009.149.028.224l.112.168c.112.084.252.168.392.14.14 0 .28-.056.364-.14.056-.056.121-.112.196-.168a.669.669 0 0 0 .14-.392.347.347 0 0 0-.056-.196.358.358 0 0 0-.084-.168.553.553 0 0 0-.392-.168c-.14 0-.28.056-.392.168Z"/><path d="m138.941 207.215-.504.168c-.28.084-.476.364-.392.644.084.28.364.476.672.392l.504-.168c.28-.084.476-.392.364-.672-.084-.252-.364-.448-.644-.364ZM137.037 207.268c.672 0 .7-1.092 0-1.092s-.7 1.092 0 1.092ZM135.665 206.74c.7 0 .7-1.064 0-1.064s-.7 1.064 0 1.064Z"/><path d="M135.497 206.74c.672 0 .672-1.064 0-1.064-.7 0-.7 1.064 0 1.064ZM135.161 204.525c.672 0 .672-1.064 0-1.064-.7 0-.7 1.064 0 1.064ZM138.241 203.994c.672 0 .672-1.064 0-1.064-.7 0-.7 1.064 0 1.064ZM140.117 205.197c.7 0 .7-1.064 0-1.064s-.7 1.064 0 1.064ZM141.657 206.064c.7 0 .7-1.064 0-1.064s-.7 1.064 0 1.064ZM142.329 206.038v.336c0 .28.252.56.532.532.28 0 .532-.224.532-.532v-.336c0-.28-.252-.56-.532-.532a.532.532 0 0 0-.532.532ZM142.693 210.349c.672 0 .672-1.064 0-1.064-.7 0-.7 1.064 0 1.064ZM143.897 210.182h.504c.28 0 .56-.252.532-.532 0-.308-.224-.56-.532-.56h-.504c-.28 0-.56.252-.532.56 0 .28.224.532.532.532Z"/><path d="m144.373 211.049.168.168a.555.555 0 0 0 .364.168.501.501 0 0 0 .224-.056.445.445 0 0 0 .168-.112c.084-.112.168-.224.14-.392a.464.464 0 0 0-.14-.364l-.168-.168a.553.553 0 0 0-.392-.168.347.347 0 0 0-.196.056.271.271 0 0 0-.168.112.451.451 0 0 0-.168.364c0 .14.056.28.168.392ZM147.144 211.021h.168c.14 0 .28-.056.392-.14l.112-.168a.904.904 0 0 0 .028-.224c0-.14-.056-.28-.14-.364a.553.553 0 0 0-.392-.168h-.168a.553.553 0 0 0-.504.336.639.639 0 0 0 .112.588c.112.084.252.14.392.14ZM124.829 209.761c-.056.075-.112.14-.168.196a.451.451 0 0 0-.168.364c0 .075.019.14.056.196.019.075.056.14.112.196a.59.59 0 0 0 .364.14c.168 0 .28-.056.392-.14.056-.056.112-.121.168-.196a.451.451 0 0 0 .168-.364.34.34 0 0 0-.056-.196.408.408 0 0 0-.112-.196.59.59 0 0 0-.364-.14c-.14 0-.28.056-.392.14ZM124.436 212.144l.84.504c.252.168.616.084.756-.168.112-.28.056-.588-.196-.756a37.15 37.15 0 0 1-.868-.504.541.541 0 0 0-.728.196.541.541 0 0 0 .196.728Z"/><path d="M126.06 211.836h-.336c-.28 0-.56.252-.532.56 0 .28.224.532.532.532h.336c.28 0 .56-.252.532-.532 0-.308-.224-.56-.532-.56ZM123.148 212.363h-.336c-.28 0-.56.252-.532.532 0 .28.224.532.532.532h.336c.28 0 .56-.252.532-.532a.532.532 0 0 0-.532-.532ZM122.981 211.189c.7 0 .7-1.064 0-1.064s-.7 1.064 0 1.064Z"/><path d="M123.345 213.006c.168.336.345.672.532 1.008.14.28.476.336.728.196a.541.541 0 0 0 .196-.728 25.773 25.773 0 0 1-.532-1.008c-.14-.252-.504-.336-.728-.196a.541.541 0 0 0-.196.728ZM124.465 216.455l-2.016 2.408c-.448.532.308 1.288.756.756l2.016-2.408c.448-.532-.308-1.288-.756-.756ZM122.477 215.473c.224 0 .224-.364 0-.364-.252 0-.252.364 0 .364ZM121.272 215.809c.224 0 .224-.364 0-.364s-.224.364 0 .364ZM121.608 217.716h.336c.224 0 .252-.364 0-.364h-.336c-.224 0-.224.364 0 .364ZM122.98 217.516c.224 0 .224-.336 0-.336-.223 0-.223.336 0 .336Z"/><path d="M122.813 218.551c.224 0 .224-.363 0-.363s-.224.363 0 .363ZM123.597 216.256c-.168-.28-.326-.569-.476-.868-.112-.196-.42-.028-.308.168.15.299.308.597.476.896.084.196.392.028.308-.196ZM120.685 217.264l.168.168c.056.056.14.112.252.112a.417.417 0 0 0 .252-.112c.056-.084.112-.168.084-.252 0-.084-.028-.196-.084-.252l-.168-.168a.342.342 0 0 0-.252-.112c-.112 0-.196.028-.252.112-.084.056-.112.14-.112.252 0 .084.028.168.112.252ZM122.309 217.548c.448 0 .448-.728 0-.728-.476 0-.476.728 0 .728Z"/><path d="m122.953 215.104-.168-.336c-.084-.168-.336-.224-.504-.14-.168.112-.224.308-.112.504l.168.336c.084.168.336.224.476.14.168-.112.224-.308.14-.504ZM122.532 213.736c.299.056.588.113.868.169a.361.361 0 0 0 .449-.253c.028-.168-.056-.392-.252-.42-.28-.056-.57-.121-.868-.196-.168-.028-.392.057-.42.253-.056.196.055.419.223.447ZM124.521 214.97c.476 0 .476-.728 0-.728-.448 0-.448.728 0 .728Z"/><path d="M123.653 214.634c-.224.14-.448.14-.644 0-.42-.224-.756.392-.364.616.42.252.952.252 1.372 0 .392-.224.028-.84-.364-.616ZM121.105 213.57h-.364c-.168 0-.364.168-.336.364 0 .196.14.336.336.336h.364c.168 0 .364-.168.336-.336 0-.196-.14-.364-.336-.364ZM121.273 211.188c.448 0 .448-.7 0-.7-.476 0-.476.7 0 .7ZM121.44 209.482c.448 0 .448-.728 0-.728s-.476.728 0 .728ZM122.98 211.024v.168c0 .084.028.168.084.252.056.056.168.112.252.084.112 0 .196-.028.252-.084a.346.346 0 0 0 .112-.252v-.168c0-.112-.028-.196-.112-.252-.056-.084-.168-.112-.252-.112a.342.342 0 0 0-.252.112c-.056.056-.084.14-.084.252Z"/><path d="M120.936 212.698a95.51 95.51 0 0 0-.98 1.904c-.224.42.392.784.616.364a95.51 95.51 0 0 1 .98-1.904c.196-.42-.42-.784-.616-.364ZM119.733 216.398c-.112.364 0 .756.252 1.036.112.14.364.14.504 0s.112-.364 0-.504a.298.298 0 0 1-.056-.336c.112-.448-.588-.644-.7-.196ZM121.413 217.855v.168c0 .112.056.196.112.28.056.056.168.084.252.084.084 0 .196-.028.252-.084a.378.378 0 0 0 .112-.28v-.168a.342.342 0 0 0-.112-.252c-.056-.056-.168-.112-.252-.084-.084 0-.196.028-.252.084a.624.624 0 0 0-.112.252ZM120.236 219.391v.7c0 .448.7.448.7 0v-.7c0-.448-.7-.448-.7 0ZM122.477 220.458c.448 0 .448-.728 0-.728-.476 0-.476.728 0 .728ZM123.652 219.591c.476 0 .476-.7 0-.7-.448 0-.448.7 0 .7ZM124.016 216.143c-.466-.056-.924-.112-1.372-.168-.196-.028-.364.168-.364.364 0 .196.168.336.364.336.448.075.906.14 1.372.196.196.028.336-.196.336-.364 0-.224-.168-.336-.336-.364ZM121.105 216.001c.448 0 .448-.728 0-.728-.476 0-.476.728 0 .728ZM136.505 223.705c.476 0 .476-.728 0-.728-.448 0-.448.728 0 .728ZM136.757 224.714c.392.14.756.364.98.7.14.168.308.224.504.14.14-.084.252-.335.112-.503a2.766 2.766 0 0 0-1.4-1.036c-.42-.14-.616.559-.196.699ZM138.913 225.751c.476 0 .476-.7 0-.7-.448 0-.448.7 0 .7ZM140.285 225.243h.168c.112 0 .196-.028.252-.112a.417.417 0 0 0 .112-.252.342.342 0 0 0-.112-.252.41.41 0 0 0-.252-.084h-.168c-.084 0-.196.028-.252.084a.417.417 0 0 0-.112.252c.028.112.056.196.112.252a.348.348 0 0 0 .252.112ZM139.949 223.399c-.196.112-.392.168-.588.112-.448-.112-.644.588-.196.672.392.112.812.056 1.148-.168.364-.252.028-.868-.364-.616ZM138.409 223.34h-.336c-.196 0-.364.168-.364.336 0 .196.14.364.364.364h.336c.168 0 .364-.168.364-.364-.028-.168-.168-.336-.364-.336ZM136.505 222.501c.476 0 .476-.7 0-.7-.448 0-.448.7 0 .7ZM134.992 220.851c-.812.336-1.372 1.035-1.596 1.875-.14.448.56.644.672.196a2.26 2.26 0 0 1 1.26-1.456c.42-.196.056-.811-.336-.615ZM141.741 208.866l.168-.168c.056-.084.112-.168.112-.252a.417.417 0 0 0-.112-.252.417.417 0 0 0-.252-.112.342.342 0 0 0-.252.112l-.168.168a.417.417 0 0 0-.112.252c0 .084.056.196.112.252a.417.417 0 0 0 .252.112c.084-.028.196-.056.252-.112ZM143.364 207.439c.476 0 .476-.728 0-.728-.448 0-.448.728 0 .728ZM145.353 206.12l.168.168a.417.417 0 0 0 .252.112.417.417 0 0 0 .252-.112.417.417 0 0 0 .112-.252c0-.084-.056-.168-.112-.252l-.168-.168a.417.417 0 0 0-.252-.112.417.417 0 0 0-.252.112.417.417 0 0 0-.112.252c0 .084.028.196.112.252ZM149.021 212.899c.224 0 .224-.364 0-.364s-.224.364 0 .364ZM150.225 212.899c.224 0 .224-.364 0-.364s-.224.364 0 .364ZM150.393 211.36c.224 0 .224-.364 0-.364s-.224.364 0 .364Z"/><path d="m150.224 210.938.168.336a.182.182 0 0 0 .252.056c.084-.028.112-.14.056-.224l-.168-.336c-.056-.084-.168-.112-.252-.084a.182.182 0 0 0-.056.252ZM151.485 211.835l.168.168c.056.056.168.056.252 0 .056-.084.056-.196 0-.252l-.168-.168c-.084-.084-.196-.084-.252 0-.084.056-.084.168 0 .252ZM151.793 212.84c-.075.187-.14.364-.196.532-.056.196.28.308.364.084l.168-.504c.084-.224-.28-.308-.336-.112ZM150.868 213.763c-.364.14-.616.448-.644.84-.028.224.308.224.336 0a.663.663 0 0 1 .392-.504c.224-.084.14-.42-.084-.336ZM151.149 216.145c.112.056.233.112.364.168.084.056.168.028.224-.056a.182.182 0 0 0-.056-.252l-.336-.168c-.084-.028-.196-.028-.252.056-.056.084-.028.224.056.252ZM155.013 214.434c.252 0 .252-.364 0-.364-.224 0-.224.364 0 .364ZM157.589 210.32c.224 0 .224-.336 0-.336s-.224.336 0 .336ZM156.581 209.313c.224 0 .224-.364 0-.364-.252 0-.252.364 0 .364ZM153.529 213.794l-.336.336c-.168.168.084.42.252.252l.336-.336c.168-.168-.084-.42-.252-.252ZM152.633 215.469v.168c0 .084.056.168.168.168a.18.18 0 0 0 .168-.168v-.168c0-.112-.084-.196-.168-.196-.112 0-.168.084-.168.196ZM153.472 216.536c.056.168.112.345.168.532.084.196.42.112.336-.112l-.168-.504c-.056-.224-.42-.14-.336.084ZM154.509 217.716h.168a.191.191 0 0 0 .196-.196c-.028-.084-.084-.168-.196-.168h-.168a.18.18 0 0 0-.168.168c0 .112.084.196.168.196ZM158.961 214.969c.224 0 .224-.364 0-.364s-.224.364 0 .364Z"/></g><defs><clipPath id="a"><path fill="#fff" d="M0 0h300v300H0z"/></clipPath></defs></svg>