<svg xmlns="http://www.w3.org/2000/svg" width="300" height="300" fill="none"><g fill="#13D7B7" clip-path="url(#a)"><path d="M157.079 37.583a69.602 69.602 0 0 0-4.046-.55c-4.625-.491-9.313-.506-13.958-.31-12.312.49-24.68 3.021-35.696 8.715a65.998 65.998 0 0 0-11.049 7.15 65.028 65.028 0 0 0-6.594 6.067c-13.373 14.112-19.823 33.181-22.45 52.113-1.28 9.218-1.796 18.59-.607 27.858 1.544 12.091 6.108 23.985 14.513 32.981 1.915 2.043 4.018 3.937 6.307 5.58 1.19.859 2.424 1.686 3.734 2.323a3.146 3.146 0 0 0 2.727-5.672s-.116-.041-.132-.064a1.312 1.312 0 0 0-.147-.087c-.17-.071-.314-.177-.461-.264-.454-.27-.9-.544-1.337-.825-1.18-.797-2.283-1.682-3.356-2.622-3.147-2.769-5.819-6.043-8.015-9.598-6.6-10.709-8.578-23.567-8.179-35.966.16-5.171.748-10.348 1.57-15.463 2.658-16.692 8.567-33.501 20.39-45.957a57.063 57.063 0 0 1 5.963-5.488 58.71 58.71 0 0 1 8.92-5.9c7.41-4.015 15.551-6.418 23.871-7.652 4.195-.641 8.473-.943 12.712-1.028 3.545-.066 7.109-.006 10.617.37a65.337 65.337 0 0 1 15.296 3.55c5.748 2.069 11.199 4.898 16.268 8.29 20.38 13.646 34.926 37.109 34.798 62.025a62.404 62.404 0 0 1-1.058 11.064c-2.259 12.356-8.225 23.611-16.32 33.129-5.304 6.234-11.454 11.628-17.997 16.486-1.4 1.032-1.688 3.012-.656 4.413a3.153 3.153 0 0 0 4.394.653c7.287-5.397 14.062-11.452 19.842-18.435 4.28-5.155 7.993-10.775 10.903-16.801 3.414-7.035 5.704-14.612 6.645-22.366.505-4.014.632-8.073.429-12.11-1.315-25.252-16.086-48.591-36.682-62.743-5.978-4.1-12.494-7.463-19.343-9.848a72.765 72.765 0 0 0-11.816-3.018Z"/><path d="M185.572 179.246a2.804 2.804 0 0 0-.996.007c-1.347.27-2.211 1.6-1.941 2.947.349 1.707.674 3.43.921 5.138.188 1.32.333 2.645.437 3.977.265 3.56.269 7.338-.9 10.747-.738 2.225-2.092 4.261-4.236 5.365a10.35 10.35 0 0 1-2.059.734c-2.58.581-5.326.259-7.871-.393-1.03-.263-2.07-.588-3.033-1.001-.542-.035-1.09-.152-1.662-.131-.184.008-.35.141-.528.232-.109.041-.225.123-.341.204-.08.067-.166.133-.258.198l-.07.048a5.94 5.94 0 0 1-.351.263c-.228.143-.479.302-.708.444-.546.337-1.114.637-1.701.898-2.602 1.166-5.505 1.386-8.298.873-3.023-.594-5.871-1.949-8.436-3.64a23.886 23.886 0 0 1-1.607-1.137 21.369 21.369 0 0 1-1.619-1.301c-.091-.056-.466-.468-.525-.478-.883-.176-1.768-.454-2.668-.531-.177-.032-.31.148-.469.242-.113.061-.212.166-.305.23-.073.069-.142.117-.212.166a.325.325 0 0 0-.073.069l.023-.017a.132.132 0 0 1-.069.049l-.332.266c-.231.163-.513.377-.744.539a18.01 18.01 0 0 1-2.251 1.248c-3.114 1.421-6.589 1.662-9.948 1.13-3.532-.582-6.906-1.949-10.037-3.658a34.774 34.774 0 0 1-3.096-1.907c-.252-.18-.512-.361-.777-.543-.052-.05-.225-.223-.284-.233-.854-.11-1.684-.358-2.542-.326-.286.01-.48.301-.715.483-.043.013-.146.137-.199.208l-.229.265a.064.064 0 0 1-.027.036 4.623 4.623 0 0 1-.329.368 5.444 5.444 0 0 1-.643.537 7.229 7.229 0 0 1-1.174.666c-.845.419-1.749.707-2.675.889-3.232.709-7.264.425-9.767-1.966-1.925-1.863-2.08-5.017-1.988-7.499.147-3.366.836-6.697 1.711-9.934.662-2.483 1.405-4.972 2.355-7.363.508-1.271-.13-2.724-1.42-3.236-1.271-.508-2.724.129-3.236 1.42-1.293 3.306-2.329 6.758-3.124 10.233-.789 3.435-1.37 6.968-1.282 10.497.103 4.019 1.193 7.745 4.44 10.287 4.124 3.225 10.2 3.545 15.038 2.022 1.593-.511 3.119-1.217 4.437-2.243.027-.036.077-.088.103-.124.164.11.307.216.451.323 1.549 1.004 3.162 1.877 4.808 2.675 4.999 2.405 10.624 3.904 16.187 3.22 2.657-.324 5.216-1.131 7.54-2.448.562-.307 1.098-.7 1.628-1.053a.46.46 0 0 1 .107.08 33.148 33.148 0 0 0 3.319 2.372c3.451 2.193 7.329 3.811 11.412 4.267 3.249.349 6.581-.12 9.556-1.443a18.514 18.514 0 0 0 2.763-1.503c.075-.041.144-.09.208-.146.151.067.303.128.456.182 1.209.396 2.433.713 3.69.955 3.889.747 8.138.724 11.736-1.139a11.94 11.94 0 0 0 2.561-1.742c4.781-4.194 5.606-11.176 5.387-17.186a55.447 55.447 0 0 0-.199-3.02 73.935 73.935 0 0 0-.48-3.842 76.255 76.255 0 0 0-.888-4.868 2.483 2.483 0 0 0-1.952-1.948Z"/><path fill-rule="evenodd" d="M188.434 95.183c.174.05.343.243.47.326.372.31.744.62 1.113.948a43.338 43.338 0 0 1 3.055 3.057c3.882 4.36 6.886 9.439 7.198 15.384a22.62 22.62 0 0 1-.274 4.663c-.487 2.879-1.53 5.681-2.879 8.266-1.021 1.992-2.242 3.849-3.574 5.645-4.556 6.142-10.809 12.005-18.711 13.049-7.114.959-.98.03-17.526-6.909-.417.292 0 0-.54.413-.189.149-.985-.519-1.881-1.428-.039-.007-.059-.011-.075-.034-.02-.003-.029-.066-.029-.066-.189-.196-.333-.302-.518-.518-1.171-1.303-1.929-2.533-1.714-2.719 4.84-3.492 3.247-2.291 4.821-3.496a144.309 144.309 0 0 0 7.477-6.013c3.206-2.745 6.297-5.652 9.193-8.716 1.947-2.053 3.847-4.195 5.565-6.451 2.4-3.131 4.585-6.422 6.21-9.994a33.259 33.259 0 0 0 1.642-4.36c.05-.209.107-.415.17-.62l.127-.486c.003-.02.051-.174.051-.174.213.058.419.155.629.233Zm3.126 6.339a31.403 31.403 0 0 1-1.18 3.123c-2.214 5.072-5.515 9.628-9.096 13.81-3.73 4.338-7.884 8.317-12.217 12.041a139.186 139.186 0 0 1-7.107 5.754c-1.288.971-2.076 1.522-3.936 2.86 2.11 1.164 4.39 2.053 6.75 2.49 1.339.236 2.68.35 4.029.304 6.127-.199 11.471-3.441 15.746-7.642 1.523-1.498 2.903-3.103 4.217-4.801 3.898-5.06 7.075-11.1 7.212-17.635.072-3.054-.564-6.131-1.929-8.87-.436-.869-.934-1.728-1.532-2.484a4.911 4.911 0 0 0-.534-.54c-.133.524-.266 1.049-.423 1.59ZM95.272 96.365c.065.093.137.187.215.282.28.374.578.752.857 1.126 1.7 2.107 3.52 4.113 5.412 6.052 4.872 4.961 10.259 9.424 15.866 13.561a195.876 195.876 0 0 0 13.808 9.339c1.295.797 2.598 1.582 3.91 2.355.345.196.683.391 1.014.585.147.087 0 0 .445.241.016.023-.04.115-.071.17.02.004.083-.006.099.018l-.513 1.067a28.656 28.656 0 0 1-2.091 3.449c-2.356 3.342-5.4 6.095-8.866 8.246-2.17 1.364-4.49 2.539-6.94 3.305a19.676 19.676 0 0 1-5.016.923c-4.652.236-9.186-1.234-13.276-3.377-6.567-3.412-12.762-8.586-15.61-15.587-.556-1.337-.96-2.729-1.26-4.142-.782-3.854-.544-7.854.353-11.676a38.331 38.331 0 0 1 2.55-7.207 41.264 41.264 0 0 1 2.482-4.517c.23-.386.481-.769.75-1.147.054-.072.228-.367.297-.415 1.759-.99 3.482-2.006 5.24-2.996.09-.045.313.3.345.345Zm-3.664 5.812c-3.228 6.905-4.589 14.849-1.833 22.138 1.826 4.851 5.26 8.869 9.338 12.004a39.662 39.662 0 0 0 3.404 2.347c5.792 3.661 13.151 6.502 20.01 4.341a8.753 8.753 0 0 0 1.505-.588c.205-.126.398-.295.586-.445.587-.445 1.121-.94 1.642-1.477a25.541 25.541 0 0 0 3.004-3.675c.527-.8 1.014-1.608 1.446-2.445.161-.297.308-.596.443-.897.053-.072.09-.167.147-.259l.01-.059c-.026-.004-.045-.014-.055-.03a3.01 3.01 0 0 0-.298-.154 38.768 38.768 0 0 0-1.233-.725 283.406 283.406 0 0 1-3.325-1.988 230.472 230.472 0 0 1-9.778-6.395c-7.197-5.026-14.149-10.516-20.315-16.782a80.637 80.637 0 0 1-4.608-5.078.721.721 0 0 0-.09.167ZM141.025 144.866c3.207 2.089 2.158 1.355 3.207 2.089a41.15 41.15 0 0 1 2.539 1.95 39.85 39.85 0 0 1 1.798 1.556c.441.416.872.851 1.293 1.304 2.481 2.631 4.994 6.344 3.699 10.117-.227.711-.588 1.378-1.002 1.996-.726 1.009-1.736 1.786-2.768 2.456-.646.435-1.257.794-1.928 1.143-1.186.624-2.503 1.183-3.873 1.003-.732-.109-1.413-.392-2.061-.75-1.57-.886-2.886-2.174-4.071-3.52-.068-.073-.117-.142-.185-.215a20.948 20.948 0 0 1-4.442 3.075c-.984.517-2.041.981-3.144 1.131-1.267.163-2.44-.328-3.366-1.182-1.955-1.807-1.153-4.631-.189-6.756.913-2.072 2.207-3.997 3.566-5.829 1.762-2.39-.02-.003 5.788-6.798-.086-.198.668-.674 1.633-1.195.205-.126.328-.247.533-.373 1.118-.696 2.154-1.163 2.658-1.257.165-.012.283.009.315.055Zm-7.05 8.891c-1.282 1.967-2.535 4.122-2.905 6.454-.123.811-.072 1.673.263 2.422.467 1.037 1.669 1.939 2.808 2.16.366-.463.732-.927 1.062-1.417.223-.346.424-.676.631-1.046.241-.445.306-.697.756-1.065.332-.266.643-.536 1.011-.776.797-.489 1.613-.975 2.459-1.394.334-.165.72-.28 1.086-.398.085-.025.184-.008.266-.014.122.001.18.134.245.226l.363.471a28.805 28.805 0 0 0 1.763 2.097c1.178 1.264 2.649 2.6 4.277 3.273.617-2.003.225-4.042-.799-5.949-1.045-1.911-2.542-3.556-4.126-5.053a45.993 45.993 0 0 0-4.317-3.503c-.49-.33-1.255-.831-1.474-.971-1.191 1.455-2.346 2.937-3.369 4.483Z" clip-rule="evenodd"/><path d="M266.091 67.207c-1.014-.24-2.098-.309-3.145-.25-1.089.073-2.159.27-3.191.595-.841.279-1.641.666-2.408 1.1-4.738 2.799-6.927 8.302-7.939 13.465a42.995 42.995 0 0 0-.76 6.385 18.954 18.954 0 0 0-.031 1.558 2.143 2.143 0 0 0-.189.15c-.742.6-1.485 1.207-2.23 1.82-2.072 1.693-4.15 3.384-6.236 5.074-6.236 5.075-12.455 10.172-18.691 15.246a3.14 3.14 0 0 0-.456 4.428c1.106 1.333 3.08 1.539 4.409.453 6.986-5.687 13.967-11.374 20.941-17.063l5.788-4.727c.144-.123.293-.24.447-.347.144-.124.294-.246.451-.368.285-.234.574-.487.878-.718.004-.02.073-.068.077-.088.069-.049.158-.094.192-.17.336-.752.596-1.54.877-2.322a37.203 37.203 0 0 1 .158-4.237c.274-2.937.802-5.931 1.972-8.65 1.032-2.396 2.683-4.623 5.362-5.187a6.932 6.932 0 0 1 1.582-.107c2.432.145 3.649 2.228 4.185 4.373.285 1.147.375 2.361.348 3.555-.103 2.886-.956 5.883-2.728 8.21a9.36 9.36 0 0 1-1.059 1.175c-.369.361-.786.653-1.203.945-.013-.002-.021.003-.023.017a.31.31 0 0 0-.089.045c-.093.065-.311.148-.348.243-.431.716-1.618 1.461-1.24 2.198.781 1.56 2.675 2.218 4.003 3.326.02.003.343-.102.386-.115.32-.086.659-.168.995-.23a47.242 47.242 0 0 1 4.355-.858c2.463-.378 4.957-.588 7.436-.476 1.465.096 2.937.275 4.34.725a7.775 7.775 0 0 1 2.164.97c.441.261.83.594 1.171.959 1.686 1.84 1.644 4.615 1.277 6.927-.218 1.464-.564 2.967-1.558 4.111-1.632 1.886-4.345 2.301-6.687 2.335-2.259.028-4.538-.293-6.75-.764-2.818-.599-5.573-1.45-8.279-2.455a39.112 39.112 0 0 1-2.015-.782c-.43-.17-.853-.346-1.267-.528-.777-.319-1.509-.774-2.371-.722a2.456 2.456 0 0 0-.583.08c-.807.202-1.397.667-2.065 1.118l-1.94 1.323a1508.451 1508.451 0 0 0-7.333 4.962c-7.197 4.885-14.378 9.792-21.462 14.839a195.027 195.027 0 0 0-6.182 4.535c-.679.51-1.358 1.02-2.004 1.576-.527.455-1.034.914-1.421 1.496a3.135 3.135 0 0 0 .919 4.346c1.454.967 3.398.538 4.346-.92l-.16.216c.391-.378.815-.709 1.239-1.041.756-.598 1.527-1.172 2.299-1.747 2.519-1.851 5.071-3.655 7.623-5.459 7.418-5.211 14.92-10.326 22.415-15.402 1.387-.954 2.77-1.888 4.177-2.838.182-.11.347-.243.529-.353.114.047.234.095.36.145a84.051 84.051 0 0 0 4.207 1.594c4.268 1.484 8.732 2.657 13.243 2.985 3.749.275 7.728-.059 11.018-2.017a11.761 11.761 0 0 0 4.951-5.849c.66-1.671.98-3.483 1.151-5.26.21-2.116.086-4.291-.549-6.332a11.743 11.743 0 0 0-1.49-3.065c-3.363-5-9.807-6.116-15.411-6.008-.938.018-1.882.075-2.83.151a24.66 24.66 0 0 0-1.181.137 21.284 21.284 0 0 0 1.453-4.556c.195-.955.332-1.919.409-2.894.358-5.257-1.215-11.424-6.208-14.091a9.97 9.97 0 0 0-2.421-.895ZM46.192 245.835c-3.328-.587-5.883-1.992-7.645-4.212-4.598-5.827-1.98-15.032-.188-20.585-7.816-.018-13.522-1.978-16.633-5.756-2.692-3.277-3.332-7.594-1.915-12.868 1.669-6.123 5.233-9.637 10.574-10.442 4.195-.642 8.718.542 12.697 1.589 2.273.583 6.488 1.672 7.326 1.068 5.594-3.969 28.359-22.274 28.594-22.456a3.135 3.135 0 0 1 4.405.472 3.142 3.142 0 0 1-.476 4.425c-.947.767-23.142 18.604-28.879 22.69-3.23 2.314-7.754 1.131-12.55-.121-9.357-2.442-13.668-2.756-15.623 4.414-.876 3.237-.641 5.593.695 7.23 2.191 2.661 7.723 3.88 15.17 3.345l.434-.045a3.327 3.327 0 0 1 2.78 1.282c1.185 1.57.694 3.088-.308 6.12-1.286 3.956-3.958 12.198-1.17 15.736 1.362 1.722 4.206 2.407 8.431 2.055 4.82-.389 8.143-1.956 9.879-4.655 3.864-6.021-.047-16.783-1.312-20.317-.231-.65-.401-1.066-.484-1.405-.669-2.311.962-4.42 3.985-7.279 1.877-1.781 4.526-4.015 7.855-6.657 5.618-4.452 11.412-8.629 11.458-8.662a3.138 3.138 0 0 1 4.403.716c1.013 1.397.685 3.37-.712 4.383-8.534 6.131-18.31 13.891-20.6 16.737 1.706 4.728 6.24 17.245.695 25.894-2.853 4.432-7.766 6.957-14.647 7.51-2.31.202-4.39.133-6.239-.206ZM48.295 33.617c-1.488-.201-2.985-.12-4.437.172a13.334 13.334 0 0 0-3.48 1.194 10.677 10.677 0 0 0-2.39 1.69c-3.454 3.23-3.953 8.138-3.416 12.579.381 3.134 1.263 6.193 2.347 9.146-.168.032-.372.036-.556.044-3.426.31-6.85.844-10.139 1.868-4.303 1.374-8.828 3.886-10.099 8.557-.18.678-.282 1.371-.325 2.075-.033 1.11.098 2.21.377 3.275.473 1.81 1.328 3.524 2.33 5.102a22.243 22.243 0 0 0 3.892 4.646 18.868 18.868 0 0 0 3.122 2.216c4.308 2.405 9.337 2.682 14.088 1.651 2.705-.599 5.319-1.6 7.793-2.85.45-.245.899-.49 1.352-.756.093.084.188.162.284.233a1487.6 1487.6 0 0 1 4.145 3.33c4.135 3.268 8.267 6.555 12.379 9.84 1.351 1.09 3.343.852 4.414-.502 1.091-1.351.853-3.343-.501-4.414-4.72-3.757-9.435-7.533-14.174-11.293-.444-.363-.888-.725-1.351-1.091-.333-.262-.66-.523-.98-.782l-1.018-.789c-.356-.286-.822-.754-1.23-.968-.164-.11-.317-.28-.52-.275-.997.007-1.989.218-2.983.327-.02-.003-.043.013-.046.033l-.047.032c-.042.013-.089.045-.112.062a6.131 6.131 0 0 0-.344.223c-.38.231-.756.45-1.13.654a28.017 28.017 0 0 1-3.436 1.628c-3.954 1.578-8.598 2.464-12.63.677a11.027 11.027 0 0 1-2.04-1.212c-1.08-.78-2.025-1.759-2.814-2.812-.74-.983-1.405-2.055-1.897-3.178-.29-.66-.53-1.372-.605-2.096-.064-.56-.026-1.122.19-1.653.727-1.821 3.091-2.907 4.807-3.539.436-.166.91-.326 1.363-.47.483-.132.973-.262 1.47-.39a42.14 42.14 0 0 1 2.257-.476 45.543 45.543 0 0 1 2.252-.334 50.804 50.804 0 0 1 3.084-.33c.658-.046 1.296-.096 1.947-.103.507-.032 1.018-.05 1.533-.055.408-.009.786.037 1.21-.07.551-.127 1.083-.378 1.478-.776.146-.136.295-.293.405-.456.267-.36.431-.716.527-1.146.298-1.227-.243-2.074-.694-3.088a33.033 33.033 0 0 1-.746-1.756c-.376-.98-.751-1.96-1.06-2.97a34.364 34.364 0 0 1-.697-2.498 24.72 24.72 0 0 1-.426-1.964 34.846 34.846 0 0 1-.245-1.607c-.283-2.771-.196-6.37 2.7-7.708.62-.297 1.28-.465 1.949-.57a6.302 6.302 0 0 1 2.236-.012c3.003.59 4.92 3.65 6.113 6.216 1.686 3.567 2.616 7.508 3.23 11.394.29 1.818.535 3.648.643 5.454.234.63.449 1.257.73 1.855.025.086.204.219.289.315.277.272.577.528.873.804.153.135.298.27.437.402.9.809 1.793 1.623 2.677 2.442 3.406 3.105 6.81 6.217 10.214 9.335a3.134 3.134 0 0 0 4.44-.191 3.162 3.162 0 0 0-.188-4.46c-3.113-2.845-6.23-5.669-9.343-8.513-1.037-.954-2.068-1.901-3.094-2.84-.291-.268-.577-.528-.858-.78.004-.02-.016-.024-.012-.044a53.44 53.44 0 0 0-.258-2.34 67.335 67.335 0 0 0-1.318-7.381 52.343 52.343 0 0 0-1.009-3.61c-1.779-5.574-4.943-11.818-10.865-13.817-.669-.24-1.371-.404-2.064-.506ZM199.212 168.001a3.127 3.127 0 0 0-3.285 1.126 3.123 3.123 0 0 0 .544 4.401c8.036 6.251 16.073 12.502 24.087 18.768 2.001 1.551 3.982 3.099 5.983 4.65l.464.366c.339.263.828.715 1.217.926.187.093.372.309.58.284 1.162-.14 2.267-.534 3.391-.803.039.007.192-.169.242-.221.163-.161.328-.328.494-.502a35.91 35.91 0 0 1 2.155-1.854 26.745 26.745 0 0 1 1.702-1.243c.645-.435 1.283-.83 1.958-1.199 2.812-1.555 6.371-2.735 9.428-1.18.69.345 1.317.821 1.875 1.346.802.75 1.523 1.609 2.087 2.561.395.638.737 1.348.914 2.07.786 3.144-1.969 5.522-4.311 7.059-.437.288-.867.537-1.297.787-.588.343-1.212.659-1.833.956-.665.316-1.335.617-2.008.905-.627.255-1.265.494-1.914.718-1.211.417-2.583.601-3.377 1.761a2.22 2.22 0 0 0-.264.461 3.049 3.049 0 0 0-.027 2.574c.141.35.339.608.53.906.256.391.489.797.719 1.223.31.543.601 1.081.885 1.659.423.826.796 1.705 1.13 2.576a26.3 26.3 0 0 1 .612 1.712c.983 3.179 1.563 7.262-1.193 9.761-.7.628-1.533 1.091-2.391 1.467-1.251.531-2.769 1.076-4.121.797-2.002-.394-3.423-2.472-4.328-4.135-.217-.383-.41-.783-.6-1.202-1.35-2.939-2.165-6.149-2.74-9.338-.288-1.594-.549-3.224-.672-4.83-.361-.713-.68-1.44-1.085-2.141-.045-.089-.159-.129-.251-.186-.016-.023-.056-.03-.072-.053-.327-.22-.657-.421-.984-.641-.143-.107-.31-.197-.477-.287a3.975 3.975 0 0 0-.474-.307 5.284 5.284 0 0 0-.454-.304c-2.317-1.485-4.618-2.946-6.92-4.408-8.632-5.523-17.26-11.066-25.892-16.588a3.141 3.141 0 0 0-4.333.962 3.138 3.138 0 0 0 .939 4.349c7.831 4.996 15.659 10.011 23.487 15.027 3.488 2.219 6.959 4.415 10.404 6.647.073.582.155 1.158.243 1.729a62.196 62.196 0 0 0 1.221 6.206c.284 1.079.597 2.143.94 3.192 1.609 4.812 4.343 10.27 9.426 12.08.598.214 1.214.37 1.847.468 2.134.336 4.262-.101 6.278-.822 3.447-1.241 6.51-3.523 8.101-6.898.369-.829.663-1.691.859-2.57.992-4.476-.269-9.187-2.046-13.277-.347-.793-.764-1.536-1.158-2.296.369-.138.735-.256 1.089-.418 2.786-1.174 5.522-2.641 7.835-4.589 1.356-1.121 2.581-2.428 3.496-3.932.518-.863.944-1.783 1.217-2.751 1.369-4.774-1.016-9.561-4.371-12.874a15.555 15.555 0 0 0-3.239-2.48 13.28 13.28 0 0 0-2.63-1.094c-4.725-1.422-9.661.084-13.781 2.485a37.963 37.963 0 0 0-5.141 3.703 3.114 3.114 0 0 0-.219.206 94.14 94.14 0 0 0-1.498-1.178 4360.957 4360.957 0 0 0-6.91-5.382c-6.983-5.435-13.981-10.893-20.964-16.329a3.207 3.207 0 0 0-1.119-.562ZM107.628 203.316a3.129 3.129 0 0 1-2.579-3.339c.129-1.886.397-3.748.67-5.528.253-1.783.489-3.467.627-5.169.042-.582.018-1.256-.021-1.954-.041-1.266-.109-2.72.224-4.265.378-1.68 2.052-2.766 3.751-2.385a3.135 3.135 0 0 1 2.385 3.751c-.152.745-.12 1.603-.077 2.626.038.819.079 1.74.007 2.723-.152 1.902-.42 3.764-.677 5.567-.25 1.763-.506 3.444-.64 5.127a3.11 3.11 0 0 1-3.371 2.878 2.193 2.193 0 0 1-.299-.032ZM138.138 207.316a3.144 3.144 0 0 1-2.579-3.339c.128-1.764.099-3.556.064-5.431-.025-1.934-.039-3.926.111-5.931a3.12 3.12 0 0 1 3.375-2.898c1.722.141 3.023 1.63 2.878 3.371-.121 1.725-.088 3.498-.073 5.369.025 1.934.055 3.95-.102 5.993a3.119 3.119 0 0 1-3.375 2.898 2.046 2.046 0 0 1-.299-.032ZM164.446 209.801a3.136 3.136 0 0 1-2.591-3.158c.022-1.62-.091-3.285-.225-5.055-.133-2.014-.294-4.094-.202-6.23.009-.283-.003-.671-.013-1.079-.053-1.654-.119-3.697.943-5.459a3.133 3.133 0 0 1 4.314-1.087 3.138 3.138 0 0 1 1.094 4.275c-.125.363-.096 1.465-.058 2.061.011.509.019 1.039.011 1.545-.089 1.772.055 3.605.182 5.536.128 1.81.261 3.701.227 5.625a3.113 3.113 0 0 1-3.202 3.07 2.847 2.847 0 0 1-.48-.044Z"/><path d="M70.75 206.643c-.263.34-1.195.561-.929.892.244.348.744-.417 1.111-.657.433-.268.87-.557 1.332-.76 2.488-1.206 4.204-.112 3.802 2.742-.13.85-.7 1.664-.892 2.523-.862 3.971-1.689 7.968-1.431 12.035.085 1.132-.151 4.542 1.715 4.668 1.65.088 2.076-2.903 2.505-4.066.946-2.717.731-5.416 1.283-8.202.338-1.687.532-3.359.574-5.098.01-.749.764-5.369 1.828-5.181 1.457.257 1.658 1.998 1.73 3.087.112 1.665.377 7.418 1.856 8.248 1.335.722 2.554-2.048 2.702-3.118.131-.972-.396-1.898.086-2.788.746-1.351 2.02-.172 3.123-.322.54-.068 1.078-.582 1.637-.646 1.1-.131 1.491.182 2.432.144 1.329-.05 4.234-1.324 5.326-.604.872.58.508 2.994 1.094 3.93 1.743 2.785 5.202.328 6.448-1.788 1.123-1.873.57-3.92.329-5.892-.025-.207.038-1.943-.195-2.004-.439-.159-4.095 2.608-4.89 2.854-1.765.562-4.075-.272-5.896-.309-1.013-.016-2.02.396-3.053.153-2.35-.496-7.698-3.795-8.691-5.879-.626-1.288-.115-3.148-.185-4.48-.008-.184-.1-1.622-.444-1.744-.17-.07-4.159 3.085-4.55 3.341-1.081.723-2.328 1.113-3.442 1.789-2.775 1.684-4.43 4.621-6.315 7.132Z"/><path fill-rule="evenodd" d="M75.128 228.923c-2.147-.379-2.204-3.395-2.246-4.884a8.688 8.688 0 0 0-.02-.573c-.265-4.027.508-7.952 1.453-12.274a6.21 6.21 0 0 1 .48-1.337c.17-.396.338-.773.378-1.111.154-.988 0-1.726-.412-2.043-.434-.3-1.218-.235-2.13.214-.422.21-.855.479-1.22.699-.045.032-.168.153-.241.221-.302.333-.694.71-1.276.669a1.054 1.054 0 0 1-.798-.425 1.167 1.167 0 0 1-.193-.867c.114-.528.567-.794.904-.978.09-.045.205-.126.251-.159.393-.499.75-1.025 1.153-1.584 1.49-2.113 3.036-4.318 5.4-5.749.546-.33 1.12-.595 1.676-.862.617-.277 1.211-.538 1.74-.892.094-.064.61-.461 1.104-.841 3.643-2.81 3.663-2.806 4.216-2.607.65.236.948.959 1.035 2.538.032.513-.023 1.052-.057 1.594-.085.94-.153 1.903.16 2.547.812 1.727 5.853 4.931 8.084 5.406.47.103.95.025 1.513-.058.438-.065.876-.13 1.363-.126.726.027 1.478.139 2.226.271 1.205.192 2.469.395 3.396.091.261-.096 1.273-.77 1.938-1.202 2.346-1.556 2.908-1.863 3.521-1.653.747.253.743 1.085.746 2.446.016.145-.002.244.007.306.034.27.08.583.13.876.264 1.732.548 3.691-.552 5.549-1.005 1.67-3.126 3.449-5.122 3.483-.812-.001-1.98-.288-2.852-1.681-.366-.572-.447-1.378-.532-2.165-.061-.458-.155-1.307-.305-1.496-.386-.23-1.958.163-2.808.378-.742.174-1.444.355-1.996.38a5.638 5.638 0 0 1-1.203-.091c-.374-.066-.67-.118-1.147-.06-.105.022-.33.145-.508.236-.334.164-.694.365-1.129.41-.543.087-1.064-.066-1.51-.185-.798-.202-.801-.182-.945.057-.15.278-.104.59-.033 1.111.049.414.11.872.04 1.388-.148.948-.977 3.117-2.292 3.779a1.753 1.753 0 0 1-1.7-.036c-1.501-.813-2.01-4.03-2.3-8.61l-.019-.348c-.08-1.274-.307-1.943-.772-2.188-.464.792-1.003 3.499-1.013 4.249a30.437 30.437 0 0 1-.582 5.259c-.227 1.056-.316 2.137-.418 3.175-.15 1.66-.314 3.397-.926 5.138-.054.193-.142.462-.218.774-.425 1.488-1.112 4.007-3.163 3.889l-.276-.048Zm-.477-24.13c.433.077.818.239 1.153.488.555.423 1.453 1.434 1.132 3.713-.08.575-.316 1.102-.521 1.573-.165.357-.306.698-.378.99-.924 4.203-1.653 7.994-1.409 11.794.008.184.013.388.03.635.012.855.067 3.078.815 3.21l.04.007c.624.029 1.12-1.752 1.352-2.604.08-.332.17-.62.255-.869.537-1.55.687-3.088.834-4.727.108-1.078.204-2.198.429-3.357a26.87 26.87 0 0 0 .546-4.94c.007-.039.425-4.596 1.803-5.734.312-.27.694-.365 1.068-.299 2.226.392 2.412 3.025 2.463 3.887l.016.368c.4 6.143 1.154 7.047 1.396 7.171.392-.032 1.234-1.468 1.391-2.476.026-.259-.024-.552-.067-.885-.073-.622-.178-1.412.264-2.187.813-1.502 2.187-1.117 2.945-.923.308.095.62.17.827.146.105-.022.327-.125.508-.235.314-.168.694-.365 1.132-.43.748-.092 1.24-.005 1.654.068.295.052.531.094.837.087.388-.013 1.028-.185 1.644-.34 1.572-.393 3.168-.802 4.223-.108.817.55.945 1.669 1.079 2.749.048.536.114 1.198.276 1.429.347.569.785.85 1.334.845 1.243-.025 2.86-1.364 3.608-2.613.782-1.325.556-2.806.328-4.39a35.194 35.194 0 0 1-.14-.938c-.002-.102-.001-.224-.015-.491.014-.078.015-.2-.003-.325-.48.301-1.079.703-1.515.992-1.221.82-1.952 1.28-2.385 1.428-1.332.414-2.793.177-4.215-.053-.712-.106-1.382-.224-1.97-.226-.322-.016-.678.043-1.073.095-.626.093-1.376.204-2.157.026-2.488-.52-8.138-3.953-9.299-6.351-.519-1.087-.418-2.348-.326-3.449.028-.503.072-.983.06-1.371a17.456 17.456 0 0 0-.046-.434c-.725.542-1.759 1.335-2.368 1.796-.709.566-1.06.829-1.199.926-.645.434-1.329.74-1.97 1.034a14.97 14.97 0 0 0-1.516.768c-1.819 1.101-3.16 2.834-4.406 4.605.55-.127 1.063-.158 1.536-.075Z" clip-rule="evenodd"/><path d="M183.43 208.214c.391 1.348.872 2.652 1.139 4.019.387 1.835-.179 4.009-.164 5.881.114 7.188-1.216 14.387-2.774 21.261-.734 3.242-.936 6.577-1.667 9.799-.751 3.34-4.139 13.222-.321 15.642 2.687 1.692 5.993-4.731 6.453-6.762.587-2.638.437-5.244.337-7.902-.037-.94.32-1.933.224-2.885-.118-1.056-.532-2.165-.571-3.208-.076-2.105.549-4.269.624-6.307.085-1.63-.005-3.311.133-5.013.245-2.658.773-5.306.975-7.951.144-1.965-.012-3.963.168-5.901.14-1.6.723-2.837 1.069-4.34.532-2.323.953-4.828 1.793-7.056 1.166-3.044 3.969-4.54 5.938-6.955.309-.372 1.812-1.752 1.518-2.392-.112-.284-3.553-1.5-4.06-1.853-.885-.624-1.786-1.96-2.519-2.76-.833-.918-2.215-1.142-3.068-2.064l-5.227 16.747Z"/><path d="M180.136 265.938a2.72 2.72 0 0 1-.97-.374c-3.821-2.4-1.763-10.161-.519-14.795.188-.719.358-1.338.461-1.808.356-1.561.586-3.207.808-4.812.226-1.626.481-3.307.855-4.967 1.43-6.267 2.858-13.672 2.756-21.041-.026-.777.058-1.595.154-2.37.103-1.159.236-2.375.025-3.367-.173-.863-.431-1.7-.722-2.584-.136-.457-.274-.908-.412-1.352-.12-.468.151-.969.619-1.089a.873.873 0 0 1 1.092.598c.125.442.258.879.399 1.31.271.88.575 1.807.75 2.772.268 1.245.13 2.602.006 3.88-.076.779-.162 1.495-.138 2.169.106 7.573-1.362 15.093-2.813 21.478-.356 1.562-.589 3.226-.808 4.813-.249 1.641-.485 3.326-.855 4.966-.107.489-.28 1.129-.468 1.847-.965 3.628-2.959 11.136-.255 12.851.202.117.464.245.926.042 1.839-.752 3.873-4.801 4.209-6.244.538-2.363.445-4.715.337-7.211l-.019-.471c-.031-.513.056-1.005.123-1.501.064-.476.143-.929.095-1.344-.049-.415-.153-.86-.254-1.324-.136-.613-.288-1.249-.314-1.904-.054-1.309.152-2.593.332-3.841.136-.889.266-1.74.287-2.548.032-.645.045-1.292.041-1.963.016-1.013.016-2.048.098-3.09.124-1.278.29-2.569.47-3.816.2-1.366.388-2.775.506-4.135.057-.904.06-1.838.058-2.752 0-1.036.003-2.091.109-3.149.092-1.101.381-2.045.662-2.95.149-.501.299-1.003.432-1.528.103-.51.216-1.032.337-1.565.392-1.881.815-3.817 1.496-5.606.826-2.149 2.378-3.581 3.861-4.965.772-.696 1.549-1.412 2.22-2.228.054-.072.177-.192.306-.352.432-.452.73-.799.895-1.041-.433-.198-1.078-.454-1.55-.659-1.195-.474-1.742-.713-2.013-.903-.726-.493-1.392-1.322-1.974-2.054-.25-.308-.484-.593-.705-.835-.306-.338-.771-.583-1.275-.834-.595-.308-1.266-.65-1.793-1.23a.889.889 0 0 1 .057-1.249.887.887 0 0 1 1.249.058c.306.338.79.586 1.294.837.576.305 1.247.646 1.774 1.227.258.268.508.577.774.908.517.639 1.099 1.371 1.605 1.725.183.113 1.074.474 1.68.723 2.123.861 2.476 1.045 2.683 1.488.463 1.056-.613 2.207-1.413 3.061-.1.104-.176.192-.226.245-.749.903-1.575 1.672-2.377 2.424-1.407 1.295-2.74 2.522-3.417 4.291-.637 1.655-1.03 3.535-1.428 5.333a67.328 67.328 0 0 1-.344 1.605c-.144.584-.3 1.125-.453 1.647-.274.865-.519 1.675-.596 2.575-.092.979-.091 2.015-.104 3.008-.002.934.008 1.91-.06 2.873-.109 1.423-.323 2.867-.507 4.257-.172 1.208-.355 2.476-.472 3.714-.072.983-.084 1.975-.093 2.949.003.67.003 1.361-.033 2.025-.041.927-.185 1.856-.321 2.746-.166 1.169-.358 2.374-.313 3.499.016.49.145 1.02.272 1.571.113.507.243 1.038.291 1.574.073.622-.028 1.193-.109 1.768-.053.417-.103.815-.106 1.179l.018.471c.112 2.477.206 5.052-.374 7.651-.411 1.755-2.678 6.433-5.243 7.504-.544.208-1.064.279-1.576.189ZM133.665 166.458a.928.928 0 0 1-.501-.271c-.82-.876-1.396-1.871-1.956-2.843-.657-1.111-1.281-2.176-2.218-2.971a.885.885 0 0 1-.126-1.24.904.904 0 0 1 1.26-.123c1.185 1.001 1.9 2.244 2.602 3.444.547.929 1.042 1.808 1.725 2.538a.85.85 0 0 1-.034 1.233.873.873 0 0 1-.752.233ZM135.393 165.522a.877.877 0 0 1-.701-.631c-.042-.109-.139-.248-.308-.44-.153-.169-.326-.342-.468-.57-.269-.433-.558-.87-.882-1.333-.973-1.391-1.96-2.824-2.444-4.452a.874.874 0 0 1 .599-1.093.884.884 0 0 1 1.096.579c.408 1.372 1.313 2.689 2.205 3.963.305.46.629.924.914 1.38.082.116.182.235.303.358.237.265.524.6.677 1.114a.875.875 0 0 1-.599 1.093.76.76 0 0 1-.392.032Z"/><path d="M136.862 164.221a.888.888 0 0 1-.377-.168c-.702-.51-.981-1.229-1.238-1.843-.12-.245-.2-.482-.326-.687-.401-.721-.852-1.389-1.331-2.124-.759-1.108-1.531-2.26-2.078-3.534a.897.897 0 0 1 .451-1.18c.439-.186.974.009 1.157.468.512 1.126 1.203 2.162 1.922 3.264.483.714.983 1.452 1.433 2.242.151.291.28.598.392.882.203.462.374.878.681 1.095.395.293.459.852.185 1.251a.918.918 0 0 1-.871.334ZM139.602 163.767a.898.898 0 0 1-.468-.224c-.623-.618-1.034-1.279-1.426-1.937-.142-.229-.281-.477-.444-.708-1.455-2.227-3.009-4.471-4.563-6.715-.292-.417-.195-.968.219-1.24a.88.88 0 0 1 1.221.215 306.77 306.77 0 0 1 4.596 6.761c.178.254.334.526.492.777.347.569.677 1.114 1.127 1.559.345.345.369.898.024 1.243a.842.842 0 0 1-.778.269ZM141.684 163.362a.948.948 0 0 1-.565-.363c-1.039-1.483-2.121-3.177-3.336-5.158-.379-.615-.711-1.262-1.047-1.89-.698-1.342-1.35-2.594-2.341-3.541a.877.877 0 0 1-.021-1.262c.325-.349.894-.35 1.243-.025 1.199 1.146 1.958 2.6 2.705 4.011.316.624.616 1.225.966 1.774 1.199 1.958 2.268 3.609 3.29 5.069a.905.905 0 0 1-.219 1.241.962.962 0 0 1-.675.144ZM194.38 174.906a.893.893 0 0 1-.711-1.039.888.888 0 0 1 1.02-.714c.492.087.817.55.733 1.023a.896.896 0 0 1-1.042.73ZM121.197 40.215c-3.844 1.07-7.593 2.52-11.129 4.374a61.187 61.187 0 0 0-6.43 3.984c-14.27 10.218-23.066 26.355-28.602 42.662a159.283 159.283 0 0 0-2.588 8.459c-1.37 4.998-2.584 10.044-3.266 15.183-1.005 7.54-.916 15.212.319 22.721 1.88 11.217 6.336 22.116 13.476 31.031 1.651 2.038 3.415 4.014 5.378 5.782 1.245 1.113 2.577 2.201 4.103 2.876.212-.166-.431-1.355-1.462-2.654-1.033-1.279-2.027-2.206-2.24-2.04-1.846-.813-3.209-2.414-4.391-4.003-1.214-1.636-2.29-3.369-3.276-5.147-5.03-9.133-7.685-19.531-8.193-29.897-.281-5.431.033-10.9.9-16.271.785-4.918 2.028-9.776 3.401-14.571a140.7 140.7 0 0 1 2.646-8.327c5.594-15.829 14.375-31.421 28.337-41.266a54.632 54.632 0 0 1 6.101-3.737c3.52-1.878 7.242-3.293 11.07-4.385.215-.185-.543-1.415-1.691-2.735-1.148-1.32-2.248-2.224-2.463-2.039ZM263.313 109.914a86517.004 86517.004 0 0 0-49.086 36.165c-.215.186.566 1.4 1.734 2.723 1.171 1.303 2.29 2.211 2.506 2.026 16.34-12.046 32.703-24.108 49.046-36.173.216-.185-.546-1.396-1.717-2.699-1.168-1.323-2.268-2.228-2.483-2.042ZM67.06 101.567a3.267 3.267 0 0 1-.825-.268c-3.535-1.72-6.547-4.22-9.434-6.619-1.684-1.393-3.256-2.726-4.922-3.873-.362-.253-.743-.51-1.144-.77-2.2-1.465-4.67-3.119-6.155-5.635-.874-1.494-.392-3.42 1.102-4.294a3.14 3.14 0 0 1 4.314 1.106c.75 1.27 2.584 2.507 4.22 3.588.437.293.854.576 1.252.85 1.882 1.306 3.634 2.773 5.353 4.193 2.728 2.268 5.296 4.407 8.16 5.785a3.132 3.132 0 0 1 1.453 4.196 3.116 3.116 0 0 1-3.373 1.741ZM109.554 177.884a.909.909 0 0 1-.71-.694c-.22-1.054-.404-2.204-.426-3.345.005-.486.403-.904.89-.899a.875.875 0 0 1 .902.87c.004 1.016.188 2.044.383 3.012a.892.892 0 0 1-.694 1.056.952.952 0 0 1-.345 0ZM139.194 185.201a.883.883 0 0 1-.738-.881l.004-.487c0-.69.013-1.338-.077-1.983a.91.91 0 0 1 .786-.999.894.894 0 0 1 .999.785c.088.767.081 1.497.074 2.227l.002.447a.907.907 0 0 1-.909.896.572.572 0 0 1-.141-.005ZM116.284 213.087c-1.97-.347-3.512-1.391-5.107-2.485l-.219-.14c-.215-.16-.48-.267-.785-.382-.721-.29-1.707-.687-2.129-1.98a.886.886 0 0 1 .544-1.122.904.904 0 0 1 1.142.546c.156.495.458.629 1.123.889.34.141.737.312 1.119.563l.219.14c2.192 1.503 3.787 2.597 6.407 2.247 1.017-.126 1.988-.564 3.022-1.011 1.581-.676 3.228-1.38 5.113-1.129.477.063.821.53.757 1.006-.067.496-.514.844-.99.78-1.406-.207-2.75.389-4.156.994-1.119.473-2.261.962-3.509 1.127a8.333 8.333 0 0 1-2.551-.043ZM188.718 251.246a.887.887 0 0 1-.536-.297.91.91 0 0 1 .1-1.262l.762-.637a.89.89 0 0 1 1.259.12c.322.361.261.94-.121 1.258l-.739.621a.875.875 0 0 1-.725.197ZM190.669 256.646a.822.822 0 0 1-.461-.264c-.173-.173-.53-.683.098-1.364.082-.08.198-.202.349-.365.309-.372.882-.393 1.253-.084.313.299.394.76.187 1.13a.879.879 0 0 1-.3.434l-.215.186c-.362.322-.675.368-.911.327ZM188.237 261.802a.924.924 0 0 1-.432-.198.908.908 0 0 1-.08-1.273l.455-.509a.909.909 0 0 1 1.274-.08.903.903 0 0 1 .06 1.27l-.455.509a.86.86 0 0 1-.822.281ZM184.46 266.173c-.367-.064-.636-.342-.807-.833a9.317 9.317 0 0 1-.109-.303.907.907 0 0 1 .511-1.169.918.918 0 0 1 1.107.398c.013.003.034 0 .063-.009a.9.9 0 0 1 1.029.73.873.873 0 0 1-.71 1.032c-.191.048-.34.082-.445.105a1.382 1.382 0 0 1-.639.049Z"/><path d="M188.718 263.45a.957.957 0 0 1-.193-.054l-.606-.249a.94.94 0 0 1-.235-.163l-.529-.459a.817.817 0 0 1-.265-.453l-.256-1.081a.892.892 0 0 1 .658-1.082c.468-.121.961.19 1.082.658l.183.804.212.179.472.205a.895.895 0 0 1 .462 1.178.9.9 0 0 1-.985.517ZM214.091 105.154a.878.878 0 0 1-.701-.631c-.347-1.138-.566-2.314-.792-3.45-.298-1.535-.571-2.985-1.113-4.4-1.541-4.05-3.832-8.332-7.17-13.47l-.911-1.4c-1.478-2.331-3.023-4.736-4.832-6.802-.69-.812-1.475-1.54-2.297-2.294-.521-.498-1.062-1-1.58-1.517-.354-.374-.713-.755-1.078-1.144-.784-.85-1.625-1.729-2.492-2.45-3.517-2.976-7.392-5.305-11.038-7.43-.592-.328-1.157-.691-1.726-1.036-1.651-1.002-3.211-1.947-4.937-2.637a.876.876 0 0 1-.509-1.146.886.886 0 0 1 1.146-.508c1.9.74 3.587 1.77 5.238 2.771.549.34 1.118.685 1.671 1.006 3.737 2.182 7.684 4.563 11.312 7.6.956.798 1.809 1.72 2.645 2.619.354.373.702.74 1.045 1.098.482.491 1.024.992 1.529 1.467.821.755 1.656 1.552 2.417 2.417 1.89 2.181 3.468 4.633 4.998 7.014.296.472.593.938.891 1.396 3.42 5.254 5.752 9.646 7.334 13.804.62 1.55.924 3.168 1.222 4.703.203 1.153.42 2.227.739 3.299a.874.874 0 0 1-.599 1.092.885.885 0 0 1-.412.029ZM162.534 51.908c-.669-.119-1.236-.36-1.802-.603-.341-.14-.662-.279-.99-.377-.865-.275-1.857-.409-2.829-.54a38.4 38.4 0 0 1-1.504-.224.892.892 0 0 1-.733-1.023.896.896 0 0 1 1.042-.73c.453.08.929.143 1.425.21 1.051.145 2.122.293 3.125.592.423.136.799.303 1.16.448.491.209.946.39 1.419.474.492.087.817.55.73 1.043a.896.896 0 0 1-1.043.73ZM141.062 49.868a.918.918 0 0 1-.748-.822c-.035-.493.347-.934.837-.949l.639-.05a.882.882 0 0 1 .952.818.882.882 0 0 1-.818.952l-.638.05a.702.702 0 0 1-.224.002ZM159.906 142.832a.902.902 0 0 1-.726-.717c-.469-2.296-.7-5.708.009-8.345a.886.886 0 0 1 1.104-.618.892.892 0 0 1 .621 1.085c-.633 2.325-.406 5.411.031 7.54a.902.902 0 0 1-1.039 1.055Z"/><path d="M161.72 142.788a.902.902 0 0 1-.726-.717c-.386-1.957-.298-3.952-.224-5.868.021-.585.063-1.167.065-1.755a.887.887 0 0 1 .906-.876c.506.008.9.422.876.906a53.717 53.717 0 0 1-.053 1.798c-.09 1.893-.163 3.687.196 5.456a.904.904 0 0 1-1.04 1.056Z"/><path d="M163.763 143.878a.91.91 0 0 1-.711-.694c-.738-3.644-.648-7.263.224-10.481a.89.89 0 0 1 1.084-.621.9.9 0 0 1 .637 1.108c-.803 2.945-.861 6.265-.195 9.632a.894.894 0 0 1-.694 1.056 1 1 0 0 1-.345 0ZM166.178 144.345a.875.875 0 0 1-.735-.78c-.04-.352-.09-.645-.107-.892-.151-1.103-.181-1.392-.126-3.089.037-1.13.097-2.277.15-3.385.056-1.006.115-2.031.147-3.02.021-.464.065-.943.191-1.429a.865.865 0 0 1 1.084-.621.882.882 0 0 1 .641 1.088c-.095.308-.118.67-.118 1.015a163.602 163.602 0 0 1-.153 3.06c-.05 1.088-.11 2.234-.147 3.365-.067 1.532-.027 1.762.095 2.799.037.251.068.54.104.912.074.501-.285.925-.782.979a.739.739 0 0 1-.244-.002ZM128.543 139.296a.742.742 0 0 1-.229-.082.876.876 0 0 1-.42-1.191c1.258-2.641 2.024-5.37 2.387-8.352.064-.476.511-.824 1.01-.776a.92.92 0 0 1 .78.99c-.398 3.179-1.238 6.098-2.566 8.91a.913.913 0 0 1-.962.501Z"/><path d="M124.219 143.206a.884.884 0 0 1-.717-1c.163-1.271.777-2.564 1.324-3.706.188-.373.352-.73.513-1.067.279-.662.601-1.336.9-1.994.382-.786.768-1.591 1.091-2.387.205-.472.351-.954.5-1.455.217-.653.421-1.348.762-2.019a.885.885 0 0 1 1.191-.419c.449.221.638.762.42 1.191-.282.559-.468 1.156-.658 1.772a14.333 14.333 0 0 1-.571 1.626c-.35.832-.739 1.657-1.101 2.446-.315.635-.618 1.313-.913 1.951-.145.36-.333.733-.524 1.126-.513 1.067-1.033 2.174-1.167 3.166a.88.88 0 0 1-1.007.756.057.057 0 0 1-.043.013Z"/><path d="M121.527 144.414a.766.766 0 0 1-.229-.081.885.885 0 0 1-.42-1.191c1.144-2.337 2.087-4.81 3.017-7.205.934-2.415 1.885-4.928 3.058-7.321a.906.906 0 0 1 1.211-.416.911.911 0 0 1 .396 1.208c-1.14 2.317-2.083 4.791-2.994 7.189-.933 2.414-1.904 4.924-3.081 7.336a.898.898 0 0 1-.958.481Z"/><path d="M118.003 146.436a.988.988 0 0 1-.249-.084c-.428-.218-.617-.759-.4-1.188.6-1.214 1.227-2.464 1.823-3.659 1.21-2.366 2.456-4.827 3.541-7.296.672-1.506 1.381-3.107 2.145-4.678l.375-.747a.805.805 0 0 1 .04-.683l.007-.039c.127-.262.369-.829.914-1.038.28-.092.602-.076.864.051.151.067.775.442.352 1.342l-.945 1.905a119.236 119.236 0 0 0-2.111 4.603c-1.092 2.508-2.365 5.005-3.578 7.391a143.892 143.892 0 0 0-1.816 3.62.912.912 0 0 1-.962.5Z"/><path d="M115.171 146.378a1.456 1.456 0 0 1-.233-.062c-.449-.221-.618-.758-.416-1.21 1.454-2.953 3.086-5.874 4.662-8.703 1.548-2.793 3.157-5.698 4.585-8.615a.91.91 0 0 1 1.207-.396c.429.218.618.759.4 1.188-1.454 2.952-3.067 5.876-4.642 8.706-1.549 2.793-3.177 5.694-4.605 8.611-.168.376-.564.55-.958.481Z"/><path d="M112.689 147.203a.942.942 0 0 1-.601-.391c-.228-.324-.152-.636-.048-.881a.79.79 0 0 1 .064-.131.166.166 0 0 1 .033-.076c.255-.523.919-1.869.989-2.039.443-.897.934-1.724 1.425-2.551a44.12 44.12 0 0 0 1.033-1.829c.85-1.596 1.763-3.202 2.646-4.752.802-1.443 1.655-2.938 2.445-4.423.147-.258.292-.619.46-.995.484-1.133 1.058-2.433 1.976-3.145a.907.907 0 0 1 1.251.16.87.87 0 0 1-.16 1.251c-.563.429-1.043 1.542-1.427 2.449-.175.416-.346.813-.523 1.127-.794 1.505-1.646 2.999-2.472 4.458a192.887 192.887 0 0 0-2.619 4.717 30.47 30.47 0 0 1-1.083 1.881c-.471.83-.932 1.602-1.345 2.443-.442.897-.734 1.516-.945 1.905a.43.43 0 0 1-.044.134l-.094.187-.039-.007c-.287.477-.412.496-.722.523a1.109 1.109 0 0 1-.2-.015Z"/><path d="M110.792 145.87a.921.921 0 0 1-.396-.171c-.395-.293-.459-.853-.166-1.248.496-.623.901-1.425 1.296-2.168.208-.369.395-.742.603-1.112.909-1.586 1.773-3.261 2.607-4.881 1.735-3.39 3.53-6.892 5.873-9.931a.873.873 0 0 1 1.248-.166.873.873 0 0 1 .166 1.248c-2.24 2.915-4.002 6.341-5.703 9.656-.838 1.639-1.728 3.351-2.641 4.957-.204.35-.388.703-.572 1.056-.429.818-.884 1.672-1.463 2.423-.194.291-.537.393-.852.337ZM87.16 200.194l-.04-.007a.897.897 0 0 1-.683-1.075c.265-1.273.353-2.578.435-3.965.068-1.308.163-2.652.423-4.007.365-1.845 1.02-3.598 1.64-5.275.51-1.393.983-2.691 1.344-4.049.093-.41.258-.888.427-1.387.432-1.182 1.074-2.978.584-3.654-.292-.417-.195-.968.218-1.241a.887.887 0 0 1 1.245.2c1.006 1.436.262 3.579-.346 5.3-.162.459-.32.898-.396 1.21-.379 1.456-.892 2.868-1.398 4.241-.61 1.619-1.23 3.297-1.572 5.003-.235 1.218-.313 2.463-.378 3.752-.085 1.406-.174 2.832-.487 4.26a.897.897 0 0 1-1.016.694ZM74.47 68.412c.276.393.32.726.223 1.156-.113.528.3 1.068.811 1.158.552.097 1.045-.283 1.159-.811a3.317 3.317 0 0 0-.55-2.636c-.75-1.046-2.392.086-1.642 1.133ZM78.298 71.584c1.261.222 1.608-1.747.348-1.97-1.28-.225-1.628 1.745-.348 1.97ZM76.672 74.588c1.261.222 1.608-1.747.348-1.97-1.28-.225-1.628 1.744-.347 1.97ZM79.269 77.482a10.95 10.95 0 0 0 1.857-3.856c.321-1.244-1.648-1.59-1.97-.348-.269 1.07-.765 2.038-1.427 2.917-.77 1.022.747 2.325 1.54 1.287ZM80.947 66.932c1.26.222 1.608-1.748.347-1.97-1.28-.225-1.627 1.744-.347 1.97ZM80.55 71.252c1.26.223 1.608-1.747.348-1.97-1.28-.225-1.628 1.745-.348 1.97ZM73.61 75.368c.631.11.805-.874.174-.985-.65-.115-.823.87-.173.985ZM76.717 72.262c.63.111.804-.874.174-.985-.65-.114-.824.87-.174.985ZM75.591 72.426c.63.111.804-.873.174-.985-.65-.114-.824.87-.174.985ZM73.756 72.47c.63.11.804-.874.174-.986-.65-.114-.824.87-.174.985ZM72.046 71.801c.63.111.804-.873.174-.985-.65-.114-.824.87-.174.985ZM71.19 68.36c.63.111.804-.874.174-.985-.65-.115-.824.87-.174.985ZM74.464 66.38c.63.11.804-.874.174-.986-.65-.114-.824.87-.174.985ZM60.534 68.676c.63.111.803-.873.173-.985-.65-.114-.823.87-.173.985ZM65.457 86.36c.63.111.804-.874.174-.985-.65-.115-.824.87-.174.985ZM81.224 90.235c.63.111.804-.874.174-.985-.65-.115-.824.87-.174.985ZM85.394 81.098c.63.111.804-.874.174-.985-.65-.114-.824.87-.174.985ZM89.899 86.645c.63.111.804-.874.173-.985-.65-.114-.823.87-.173.985ZM80.264 85.313c.63.111.804-.874.174-.985-.65-.115-.824.87-.174.985ZM81.703 83.375c.63.112.803-.873.173-.984-.65-.115-.824.87-.174.984ZM82.064 81.325l-.355-.062c-.256-.045-.553.146-.579.405-.049.276.13.531.406.58l.354.062c.256.045.53-.13.58-.406.025-.259-.13-.53-.406-.579ZM75.883 79.059c.63.111.804-.874.174-.985-.65-.114-.824.87-.174.985ZM74.465 78.809c.63.111.804-.874.174-.985-.65-.114-.824.87-.174.985ZM74.962 77.374l1.543-.46c.624-.194.28-1.128-.343-.933l-1.543.459c-.62.175-.257 1.112.343.934Z"/><path d="M77.093 76.348c.63.111.804-.874.174-.985-.65-.114-.824.87-.174.985Z"/><path d="m78.056 74.911-.292-.417a.521.521 0 0 0-.689-.121c-.212.165-.287.477-.125.709l.292.417c.146.208.477.287.69.121a.507.507 0 0 0 .124-.709ZM75.278 74.2c.63.11.804-.874.173-.985-.65-.115-.823.87-.173.985Z"/><path d="M74.431 73.704c.132.633.271 1.267.416 1.901.054.274.243.47.552.443.227-.021.496-.278.439-.532-.145-.635-.284-1.269-.416-1.901-.057-.254-.262-.473-.552-.443-.247.018-.496.279-.439.532ZM75.488 77.157c.63.11.804-.874.173-.985-.65-.115-.823.87-.173.985ZM75.946 78.704c.63.11.804-.874.173-.985-.65-.115-.823.87-.173.985ZM77.886 80.141c.63.111.804-.874.174-.985-.65-.114-.824.87-.174.985ZM80.743 78.45c.63.11.803-.874.173-.985-.65-.115-.823.87-.173.985Z"/><path d="M81.451 78.575c.63.11.805-.874.174-.985-.65-.115-.823.87-.174.985ZM81.677 75.226c.946.167 1.206-1.31.26-1.477-.964-.17-1.225 1.307-.26 1.477ZM82.074 77.12c.945.167 1.206-1.31.26-1.477-.965-.17-1.225 1.307-.26 1.478ZM78.904 74.37c.945.167 1.206-1.31.26-1.477-.965-.17-1.225 1.307-.26 1.478ZM78.215 72.054c.946.167 1.206-1.31.26-1.477-.964-.17-1.225 1.307-.26 1.477ZM78.423 68.804c.946.167 1.206-1.31.26-1.477-.964-.17-1.225 1.307-.26 1.477ZM82.594 72.1c.946.168 1.206-1.31.26-1.476-.964-.17-1.225 1.307-.26 1.477ZM84.054 74.183c.946.167 1.206-1.31.26-1.477-.964-.17-1.225 1.307-.26 1.477Z"/><path d="M81.51 74.1c.946.168 1.206-1.31.26-1.476-.964-.17-1.225 1.307-.26 1.477Z"/><path d="m82.017 73.417.063-.355c.031-.177-.01-.408-.127-.55a.655.655 0 0 0-.474-.307c-.197-.035-.404-.01-.57.123a.726.726 0 0 0-.306.474l-.063.354a.773.773 0 0 0 .123.57.872.872 0 0 0 .493.31c.181.012.389-.012.55-.126a.81.81 0 0 0 .311-.493Z"/><path d="M81.051 72.554c.946.167 1.206-1.31.26-1.477-.964-.17-1.225 1.307-.26 1.477ZM78.924 72.18c.946.166 1.206-1.311.26-1.478-.964-.17-1.225 1.307-.26 1.477ZM76.15 71.324c.946.166 1.207-1.31.261-1.478-.965-.17-1.225 1.307-.26 1.478ZM72.897 71.117c.945.166 1.206-1.31.26-1.478-.965-.17-1.225 1.307-.26 1.478ZM80.659 68.568l.354.062c.256.046.53-.13.58-.405.025-.26-.13-.53-.406-.58l-.355-.062c-.256-.045-.553.146-.579.406-.049.275.13.53.406.579ZM82.493 68.528c.63.11.803-.874.173-.985-.65-.115-.823.87-.173.985ZM79.282 70.153c.63.11.803-.874.173-.985-.65-.115-.823.87-.173.985Z"/><path d="M76.205 67.904a6 6 0 0 1 2.918 3.033c.264.574 1.198.231.934-.343a7.136 7.136 0 0 0-3.429-3.59c-.58-.285-1.002.615-.423.9Z"/><path d="M79.332 71.135c.774-.242 1.54-.48 2.299-.711.62-.175.28-1.129-.343-.934l-2.315.688c-.603.198-.26 1.132.36.957ZM84.496 69.606c.63.111.803-.874.173-.985-.65-.114-.823.87-.173.985ZM84.599 71.09c.63.111.804-.873.174-.984-.65-.115-.824.87-.174.984ZM86.664 71.82c.63.112.804-.873.174-.984-.65-.115-.824.87-.174.985ZM85.247 77.786c.63.11.804-.874.174-.985-.65-.115-.824.87-.174.985ZM83.329 74.157c.63.11.803-.874.173-.985-.65-.115-.823.87-.173.985Z"/><path d="m83.564 72.815-1.26-.222a.532.532 0 0 0-.57.346c-.057.213.032.513.261.595.633.213 1.252.16 1.82-.187.225-.123.268-.481.122-.69-.162-.231-.461-.264-.69-.121-.247.139-.56.185-.829.097-.097.322-.193.636-.288.945l1.26.222c.63.11.804-.874.174-.985ZM84.704 72.57c.63.112.804-.873.174-.984-.65-.115-.823.87-.174.985ZM84.892 71.508c.63.111.804-.873.174-.984-.65-.115-.824.87-.174.984ZM82.889 70.422c.63.112.804-.873.174-.984-.65-.115-.824.87-.174.984Z"/><path d="M81.826 70.235c.63.111.803-.874.173-.985-.65-.115-.823.87-.173.985ZM72.877 79.523c.946.166 1.206-1.31.26-1.477-.964-.17-1.225 1.307-.26 1.477ZM76.756 82.402c.946.166 1.206-1.31.26-1.478-.964-.17-1.225 1.307-.26 1.478ZM88.226 77.476l.355.063c.177.031.391-.033.55-.127.162-.113.296-.293.31-.493.035-.197.01-.404-.126-.55a.727.727 0 0 0-.474-.307l-.354-.063a.772.772 0 0 0-.57.123.818.818 0 0 0-.307.474c-.015.2.01.408.123.57a.872.872 0 0 0 .493.31ZM92.876 73.913c.945.167 1.205-1.31.26-1.477-.965-.17-1.226 1.307-.26 1.477ZM87.246 74.746c.945.166 1.206-1.311.26-1.478-.965-.17-1.225 1.307-.26 1.478ZM83.554 77.019c.946.167 1.206-1.31.26-1.477-.964-.17-1.225 1.307-.26 1.477ZM76.796 65.593c.946.167 1.206-1.31.26-1.477-.964-.17-1.225 1.307-.26 1.477ZM73.584 61.003c.945.167 1.205-1.31.26-1.477-.965-.17-1.226 1.307-.26 1.477ZM84.325 64.359c.945.166 1.206-1.31.26-1.477-.965-.17-1.225 1.307-.26 1.477ZM92.443 80.516c.63.111.804-.874.173-.985-.65-.114-.823.87-.173.985ZM99.909 79.637c.63.111.803-.874.173-.985-.65-.114-.823.87-.173.985ZM64.115 80.153c.63.11.803-.874.173-.985-.65-.115-.823.87-.173.985ZM65.769 76.297c.63.112.804-.873.174-.984-.65-.115-.824.87-.174.984ZM79.923 81.718c.315.055.402-.437.087-.493-.315-.055-.402.437-.087.493ZM78.143 77.991c.315.056.402-.437.087-.492-.316-.056-.402.437-.087.492ZM78.797 79.815c.315.056.402-.436.087-.492-.315-.056-.402.437-.087.492ZM81.355 80.51c.315.056.402-.436.086-.492-.315-.055-.401.437-.086.493ZM82.273 79.456c.315.055.401-.437.086-.492-.315-.056-.402.436-.086.492ZM75.42 82.386c.314.055.401-.437.086-.493-.315-.055-.402.437-.087.493ZM64.297 86.03c.315.056.402-.437.087-.492-.315-.056-.402.437-.087.492ZM64.046 83.308l.71.124c.314.056.401-.436.086-.492l-.71-.125c-.314-.055-.401.437-.086.493ZM67.394 82.858c.172-.05.343-.102.515-.153.128-.038.199-.208.157-.317-.058-.132-.189-.196-.317-.158l-.515.153c-.128.038-.199.209-.157.318.058.132.189.196.317.157ZM75.197 89.17c.316.056.402-.436.087-.492-.315-.055-.402.437-.087.493ZM72.389 89.897c.315.056.402-.437.087-.492-.316-.056-.402.437-.087.492ZM69.65 87.46c.315.055.401-.437.086-.492-.315-.056-.402.436-.087.492ZM74.737 83.483c.316.056.402-.437.087-.492-.315-.056-.402.437-.087.492ZM86.364 85.272l-.709-.125c-.315-.055-.402.437-.087.492l.71.126c.315.055.401-.437.086-.493ZM83.245 80.847c.315.055.402-.437.087-.493-.315-.055-.402.437-.087.493ZM85.602 76.81c.459.162.919.318 1.38.467.305.115.506-.337.202-.452a53.681 53.681 0 0 0-1.38-.467c-.285-.11-.507.338-.202.452ZM84.09 77.44l-.599.626c-.222.225.17.537.392.313l.598-.626c.222-.225-.166-.557-.392-.313Z"/><path d="M82.7 75.528c1.443.187 2.853.483 4.23.888.312.075.399-.417.087-.492a27.426 27.426 0 0 0-4.23-.889c-.319-.035-.406.457-.087.493Z"/></g><defs><clipPath id="a"><path fill="#fff" d="M0 0h300v300H0z"/></clipPath></defs></svg>