<svg width="300" height="300" fill="none" xmlns="http://www.w3.org/2000/svg"><path fill-rule="evenodd" clip-rule="evenodd" d="M123.44 44.32c2.22-2.7 1.26-2.64 4.2-.12 1.92-1.86 1.92-.78-.48-5.4.84-.36 1.14-2.4 2.52-.72 2.46-4.02 3.12-1.26 3.24-.9-1.2.42-.96.18-.72 1.08.96-.72.18-1.08 3.12-1.08 1.2 2.22 3 .78 4.86 1.26-.96-1.98-2.04-2.76-3.72-2.46 4.44-2.64 6-.3 8.58 0 .84.06 1.08-1.26.9-1.68-.18-.48-3.18-1.44-3.54-1.2-1.74 1.26-2.28.42-2.4-1.32-1.56.3-3.24-.48-4.68.66.78-2.28-1.2-2.34-2.4-3 1.38-1.56 2.7-2.64 4.92-1.14.6.42 1.86-.06 3.36-.12 2.94 4.38.84 2.52 6.24 3.36l-.24.24c1.14.9.78.12.54-.18.36.12.18-.12 0-.36l-.12.12c-1.08-2.34-.12-2.82.72-3.72 1.68.36 1.68 3.54 4.2 2.52.06-.06.78 1.5 1.26 2.52a81.91 81.91 0 0 1 2.4-3.72c3 1.5 6.78-5.7 10.38-6 2.76.72 1.5 4.02 3 5.94-.18 0-.36.06-.72.3-.06.06.12.48.18.72 4.26-3.3 2.94.84 1.92-5.82 5.16 2.16 4.5-3.839 4.5 5.7-1.38.6-4.2-.66-3.3 2.64-.84.12-3.66.66-4.68.96-.54-2.52-.24-2.16-1.2-2.04.06.78.12 1.5.66 2.28 2.04 1.62 1.26 4.08 1.98 5.88 1.92 0 2.52 0 2.58.06.3-1.86 2.04-1.8 3.36-2.34 1.98-.96-.42-1.92 1.8-2.82-1.2-1.02-.96-.18-.96-4.08 4.02 5.52 3 5.04 4.14 1.98-.78-3.06-1.62-3.24 3.36 1.38 3.66 0 3.06-.24 3.18.72-4.68.9-4.38.24-1.2 2.76-1.2.48-1.14.24 0 1.2-2.4 2.04-3.3 1.68-.84 3.72-.08.12-.18.24-.3.36 1.14.9.78.12.54-.18.36.12.18-.12 0-.36 0-1.8 1.08-1.56 1.74-.42 2.4 4.02-.48 7.8 3.96.36 1.08.78 2.04 1.5 2.46 3.36-.12.42-.06.54.06.42.04.04.06.08.06.12.12.36.84 1.08.36-.66.48-.72 1.32-2.1 2.34-3.36 1.56 4.02-3.9 6.78-1.68 10.68 2.34.78 1.98-.84 2.04-2.16 1.02.06 2.46-.54 2.4 1.44 0 .3.78.6 1.14.9 0-3.66-.6-2.64 3-4.44 2.82.78 1.2 3.66 1.98 5.46 1.32-.06 2.88 1.2 3.36-1.02 3.42-1.8 2.64-2.1 3.84.9 3.96-.96.54-1.8 9.42 3.42.6.36 1.44.3 2.16.42-.06 1.5.48 3.18-1.14 4.2 4.5 2.82 4.14 1.74 1.62 4.26-1.02-3.06.06-2.52-5.22-2.52-1.5-1.5-1.62.6-.66-5.28 2.16 5.28 1.62 5.52 1.62-.78-1.74.18-3.18.36-4.92.54 2.94 6 3.66 5.22 1.8 5.94 1.68 1.32.36.42 1.38 2.94 1.02-1.32.78-.78.78-2.16.6.42 1.2.9 1.86 1.14.48.12 1.08-2.28 1.62-.06.12.3-.78.9-1.26 1.32-1.38 1.14-3.42.54 2.16 1.32 1.2 1.56-4.32 2.88 2.58 1.38.18 2.76-.72 1.62-3.12 4.86-.6.78-.54 1.86.9 1.92 2.82 2.82 0 4.74 4.92 2.34-2.16 7.8-.6 3.9-2.22 5.16-.12.06.12.48.18.72.24-.18.48-.36.72-.84 1.74-.12.96 1.26 1.14 2.16-1.74.06-.96 1.44-1.14 2.34-1.44-.24-3.72 1.08-3.84-1.92 0-.18-1.14-.3-1.92-.54.6 1.92 1.02 3.42 1.5 4.92 1.92-1.32 2.1-1.44 3 .3.66 1.2 1.56.66 2.4.84-.72 2.7-3.6-.06-4.92 2.16 7.26.42 6.12-.36 6.12 2.58h-2.34c-.48-1.26-.24-.96-1.08-.72.3.42.54.54.78.72.3.18.6.42 1.2 1.2 2.46-2.04 2.94-.96 3.6-1.62 1.86-1.98 2.94-2.4 4.8-1.62 2.04.96-.3 3.3 1.38 4.32-1.68 1.619.3 3.239 0 5.099v-.24c-1.2.42-.96.18-.72 1.08 1.02-.84 0-1.08 4.26-1.08-1.5-6.42-1.56-5.46-.54-5.94 2.88 3.96 1.8 3.6 4.68 1.98.78 2.22 1.08-.06-1.02 8.64-1.74.72-3.42-2.88-5.34-.48 3.84 4.32-2.1-.48-2.52 1.38-.54 2.58 1.62 3.6 4.08 6-.78-2.16-1.14-3.06-1.44-4.02 6.48-2.16 5.28-3.24 5.82 3.9 3.3 1.74 1.86-1.74 2.34-7.02 0-.42.96-.78 2.22-1.62-1.32 4.02-2.34 7.32 1.62 9.78-2.28 3.54-2.46 2.28 1.44 5.88 1.62-6.6-3.42-2.76 1.74-7.5v-3.9h1.56c-.18-.36-.36-.84-.36-1.14 2.64.48 1.74-.72 3.66 3.9-5.94 3.9-3.24 1.02-1.5 6.54-6.18.96-5.94.36-.72 1.74-4.68 3.78-3.9 2.04-3.9 7.26-2.82-3.48-2.46-2.16-1.44-6.12-1.92-1.02-1.92.54-2.28 1.74-.06.18-.6.24-.96.36.36-1.96-.42-2.76-2.34-2.4 2.04-3.18 1.08-4.02-1.2-3.18 0 1.44-.06 2.46-.18 3.12.6-.06 1.74.48 3.72 2.46.18 3.36 5.28-1.92-.78 4.56 2.34 3.06 1.68 2.28 3.18 3.78v2.339c-1.26.42-.96.18-.72 1.08 1.08-.84-.12-1.08 4.62-1.08-1.62 4.5-6.12 7.08-5.1 12.36-4.5-2.1-4.14.06-2.88-7.26-1.08-1.86-2.34 2.22-3.54-.18-.78 2.04-1.32 1.32 1.56 2.94-3.36 2.4 5.28 2.7-1.08 5.76 3 3.78 5.82 6.96 1.5 8.16-.6.18-.84 1.8-1.26 2.82.6.24 1.26.48 2.46.96-5.4 7.98-3.6 6.54-7.26 5.64-2.28 3.12-1.08 3.48-5.46-2.52-.42 2.46-.72 4.02-.96 5.58-3.06.78-1.8-1.56-2.1-2.76-.48-.54.42-.72-4.98 1.14 3.12 1.32 2.46.24 2.7 5.16h5.76c2.34.84-.06 3.6 2.46 3.78 0 3.779 1.56 2.819-7.74 3.659-2.1-4.379-2.04-3.539-.78-4.019-2.76-2.22-4.38-3.96-5.22-7.98-1.32 8.46-8.1 5.52.6 7.56 0 .66.72.42-4.62.9 0-9.48.48-2.58-4.2-1.14-.72-1.8-.6-.78-.6-3.78-.9.54-3.18 2.22-3.96.24-.6.72-.78 1.38-.78 1.5 1.44-1.8 2.88 2.04 3.54 4.26-2.76-1.62-1.62-1.44-2.7.899-.66 1.38-1.98 0 1.2 2.76.18 3.36-3.54 3.36-4.5 5.52.3 1.62 2.76 3.06-.18 4.56 3.12 1.08 2.76.18.84 4.2-1.2-.42-3.06-1.56-3.48-1.14-1.2 1.14-2.52.72-3.72 1.14-6.78 2.34-3.96 3.18-6.96.54 2.82-.72 5.1-1.32 7.32-1.92.48-2.1.84-3.9-2.1-3.48 0-4.32-2.52-3.9 1.02-8.7-3.72 1.74-5.28 2.4-5.76 2.64-.42-1.08-.24-.84-1.08-.6.18.24.36.48.84.72-.04 0-.04 0 0 0 .6.6.96 1.26 1.62 2.4-3.84-1.14-2.52-1.5-5.76.42 1.08 4.14 3.12 2.7-2.94 3.48 1.26 2.34 1.26 2.34 4.26-.48.24.66 1.02 1.2 1.74 1.74-2.04 1.68 1.74 3.6-.24 5.34-2.64 2.46 1.26 3.54-5.04.36-.6 1.02-.66 3-3.18 2.16.42 1.14.18 2.52.78 3.36 1.14 1.68.66 3.24.36 5.16-.84-1.32-1.5-2.4-2.16-3.48-5.7 4.5-1.56 4.5-4.8 4.5.18-.06.3-.3-.18-.9-.06-.12-.48.12-.72.18 3.42 4.38-6.72-1.2.36 5.94-6.3 1.08-6.54 1.14-7.2-3 .18.12.3 0 .66-.6.54-1.08.18-.54-.72.36v-.18c.12-.36-.12-.18-.36 0 .12.12.2.22.24.3-1.62 1.62-4.68 4.32-6.6 1.2 2.94-1.56 5.46-3.48 8.7-3.6 0-2.4.72-2.04-3.48-.72.96-2.4.96-2.64-.36-5.94h-3.96c-2.58 4.32-9 4.56-9.9 1.62-.18-.66.42-.36 1.08-4.2-3.66 0-2.7-.18-3.66.66 1.5 3.66 2.1 1.98-3.48 7.68 2.46 1.44-2.28 4.2 1.92 5.4-2.34.72-3.9 1.26-5.46 1.74.3-1.92-2.94-.66-2.58-3.06.18-1.08-1.32-2.4-2.04-3.66 7.8-2.28 6.72-.78 5.7-6.24 7.14-.36 4.38.06 4.08-1.5-.18-1.14-.24-2.28-.42-3.36 2.04 0 3.24.18 3.84.24l-.24.24c.72.6.72.36.54-.18.3.06.24 0 0-.3-.04 0-.08.02-.12.06-.3-1.08-.84-2.76 1.62-2.52.36 0 1.26-.9 1.68-1.5l.36.36c.9-1.14.12-.84-.18-.54-.04 0-.06.02-.06.06.18-.3.12-.36-.3-.06l.12.12c-1.2.36-1.92-1.56-3.06.3-.36.48-1.62.36-1.5-1.26.08.08.16.14.24.18.9-1.14.12-.78-.18-.54.12-.36-.12-.18-.36.06l.06.06c-2.94.72-2.46.18-2.46 5.22-2.28-.54-4.8 1.32-7.38-2.28 4.32 18-3.78-6.9-1.38 9.78-3.12-1.98-1.38-.24-1.92-4.74-.78-5.7-6.18 1.02-3.36-7.98-2.28 1.56-3.12 2.94-2.28 4.74.18.42 1.32.42 2.1.54-.06 3.42.18 2.82-.66 3.42-1.02-2.1-1.98.24-2.82.54-.12-1.68-.3-2.88-.48-4.26-3.42 1.8-1.44 1.14 3.12 7.8-2.04.72-3.84 1.38-5.7 2.04-1.8-3.78-.54-3.78-5.88.84-6.42-4.44-5.7-2.28-4.02-9.18-3 0-2.4-.84-2.4 4.14-2.16.6.06.96-8.28-1.08-1.14-2.1.96-1.74 1.98-2.4-.9-1.2-1.86-2.46.36-3.78-5.04-3.18-4.86-2.1-1.5-4.8-2.22-2.22-1.44-1.74-3.24-1.26-6.54 1.56-2.04-1.14-.24-3.06 1.2-.3 4.14 1.62 3.3-1.98-1.2.6-2.22 1.14-3.3 1.98-.72.12-2.1-.06-2.1-.12.12-1.86-2.28-1.74-2.4-2.52-.24-2.1-1.14-.96-2.22-1.02-1.08-.06-2.1-1.44-3.06-2.16.78-.96 1.08-1.38 1.68-2.16-1.68.3-3.48-1.379-3.9 1.5-.3 2.28-7.74-.72-8.16-.9v-3.059c1.32.42 3.42-1.2 3.78 1.859.12.72 2.52 1.44 3.12-.179 1.62-.72 2.7-1.44 3.9-2.22-2.46-2.28-1.56-2.7-3.9 2.22-2.4-1.26-2.04-2.1-.96-3.36-.66-1.5-1.26-2.28-1.74-2.94-3.48.24-7.02-3.06-10.2.84.12.66.3 1.68.6 3.36 4.32-3.48 3.12-3.48 5.4-.78v1.2c-1.62.66-2.16 4.259-5.1 1.56-2.04-1.8-2.7 2.519-5.64.719-.42-.959-1.26-3.179-2.16-5.579 6.72-2.28 6-1.2 4.02-4.62 5.64-.84 3.78-.24 3.36-1.74-.78-2.76-.9-2.22 3.84-2.22 1.26-1.92.06-3.18-.3-4.98.72.24.96-1.14-.06-.3.12-.36-.12-.18-.36 0l.12.12c-3 1.32-.12 2.64-.54 4.26-4.62-2.76-3.18-2.7-6.3-.96-.78-4.8.24-3.84-4.92-3.84 1.14 1.32 2.22 2.52 3.18 3.6-.18 1.86-3.12 2.94-1.08 5.16-4.8 4.74 1.02.96-5.58-4.5 1.02-3.78.6-3.18 1.86-3.72-1.26-.96-1.2-.36.12-2.7-.48-.9-2.94 0-2.28-2.22-1.08-.3-2.1-.6-3.18-.9 0 .12-.42-5.64-.42-5.64 4.32 0 1.38 6.36 7.32-2.7.12.12.24.22.36.3.54-.66.36-.66-.18-.6.06-.24-.12-.12-.3.06-1.02.12-2.94.3-4.5-1.8-.52.4-1.02.8-1.5 1.2-.54-.48-3.84 1.14-1.26-1.68-1.08-.9-1.08-1.74.06-2.52-.54-.24-1.02-.48-1.98-.96-.66 7.32.3 6.06-3.78 6.06 1.08-2.28 1.44-1.74-1.38-2.34 0-1.14-.3-2.58.12-3.72.42-1.2 1.68-2.76 3.12-1.92 2.58 1.44 4.14-.48 6.54-.9-.3.78 1.14 1.02.3 0 .36.12.18-.12 0-.36l-.12.12c-1.56-4.439 6.48-4.199-1.62-4.859.54-2.82-1.26-2.52-3.12-2.28-2.52 5.759-1.74-4.8-6.36-1.32v-3.12c1.38-.78 4.02-.06 4.5-2.1.24-1.26 1.56-3.42-.96-4.26 1.02-1.86 1.98-3.72.72-5.82.48-6.48.36-4.08.36-10.44 1.08-.9 2.52-1.8 3.3-3.12.66-1.08 1.5-3.06-1.32-3.24-.3-.06-.54-1.14-1.08-2.34h4.32c-.18-.42-.36-.9-.48-1.44 4.08 1.44 1.92 1.68 4.8 1.2-1.68-3-1.2-4.02-4.8-1.2-2.64-.96-1.92-1.14-.6-5.58 8.52 4.86 7.26 3.84 10.02-3.12-2.7-2.16-2.58-1.2-.06-4.38 1.08.84 2.22 1.68 3.36 2.52 2.16-2.28 2.22.18 2.88 1.32-1.26.48-1.2.24 0 1.2v1.2c-1.26.42-1.02.18-.72 1.08.24-.18.48-.36.72-.84.54-.42.36.06 2.16-.66-2.46-1.92-2.16.48-2.16-1.98.3-.12.9-.24.96-.42.42-2.28.18-4.5-.6-6.72-1.26 6.72-.48 3.72-1.62 2.04-1.56-2.34-1.26-1.86-4.44-.66.18-1.5-1.14-.3 6.9-5.76-2.64-.54-2.4-.24-1.5-1.26-1.92.54-3.42 3.84-4.08.66.78.24.96-1.14-.06-.3.12-.36-.12-.18-.36 0 .08.08.16.14.24.18-.9 1.2-1.5 1.98-2.04 2.7-2.16-3-3.18 3.72-5.52.3 1.44-1.92 2.94-4.02 4.5-6.06 1.68 1.62 4.08-2.819 5.22-4.919 3.42 0 3.12.54 1.02-1.98 4.14-.66 2.94.12 4.92-3.96 1.5 0 .96-.24 2.4 1.2 0 1.5.36.84-2.4 3.6-1.8.06-1.02 1.44-1.14 2.28-.84.12-1.62.3-1.74.3 1.08 2.76.72 2.46 1.56 1.86.24-2.76-.72-2.76 4.38 1.32.36-.3.78-.66 1.26-1.02 1.5 2.52-1.92 2.88-1.92 4.92-.06-.18-.3-.3-.9.18-.12.06.12.48.18.72 1.02-.78-.24-1.08 5.46-1.08.18.84-.54 2.16 1.44 2.64l-.24.24c1.14.96.78.18.54-.18.36.12.18-.06-.06-.3l-.06.06c-1.2-2.58-.06-2.7 2.46-4.56-4.08-.48-4.8.66-3.78-5.28l.24.24c.9-1.14.12-.78-.18-.54.06-.36-.12-.18-.36 0 .04.08.08.14.12.18-2.22 1.56-.72-.84-.6-2.22.24-2.28-2.94-1.86 2.88-2.22v4.5c2.7.9 2.34-.78 2.34-2.04.96 0 1.5.24 1.74.48-.12-.78-.12-2.58.66-6.42.9-.18 2.28.54 2.34-1.2 1.56-.56 3.1-1.14 4.62-1.74-.18-.06-4.08-2.82-4.26-2.7-3.66 3.12-4.32-1.38-7.32-2.16 2.4-1.74 3.96-2.94 5.82-4.32 3.54 2.94 1.92 3.3 4.62 3.96 6.24 1.5 1.62 2.22 5.94 3.78-3 4.14-2.76 3.3-1.92 4.26 1.86-1.2 1.02-1.38 3.84 1.26 1.2-2.04 4.86-.36 5.34-3.54 1.02-.06 1.98-1.68 3.3.3v-3.6c-1.56.24-3.18 2.52-4.5-.24.72 0 .24.96 2.34-5.94 2.58 0-.12 2.22 2.4 2.34-.42 3.24 3.96 6 2.4-2.34Zm9.48-7.14c0 .04 0 .04 0 0Zm36.66-8.28c.3 0 .18.48.18.24a.94.94 0 0 1-.18-.24Zm-2.1 4.5v.18c-.6.06-.54-.06 0-.18Zm4.2 7.2s.24-.24-.18-.72v-.3c-.12.12-1.02.36.18 1.02Zm12.9 1.32v.36a.94.94 0 0 0-.24-.18c.08-.04.14-.1.18-.18h.06Zm8.64 3.18c-.16.24-.3.42-.42.54 0-.16-.02-.3-.06-.42.04-.24.12-.54.24-.9.08.28.16.54.24.78Zm8.64 10.44c1.14.9.84.12.54-.18l-.12-.12c-.12.06-.3.12-.42.3Zm54.18 56.339c.24.12 0-.3-.3-.9-.3.12-.66.42.3.9Zm-47.1 61.799c-6.48.84-2.7 1.86 0 .6 0-.06.06-.24 0-.6Zm-15.66 11.999c0-.04.08-.08.24-.12v.12h-.24Zm-9.24 15.42c-.48-1.2-.24-.96-1.08-.72.18.24.36.48.78.72h.3Zm-6.12 9.54h-.12.12Zm-21.24-10.74c1.68-.06 1.08-1.26 1.44-2.64l.3.3c.9-1.2.12-.84-.18-.54.12-.36-.12-.18-.36 0l.06.06c-2.22.78 0 1.62-2.46 4.02l1.2-1.2Zm-63.06-26.939c-2.28-.96-2.34.42-2.28 2.7.66-.72 1.5-1.56 2.28-2.7Zm-22.32-26.82a.392.392 0 0 0-.18-.18l.06-.06c.12-.04.22-.06.3-.06v.06a.94.94 0 0 1-.18.24Zm-5.4-50.879c.24.12 0-.3-.3-.9-.24.12-.6.42.3.9ZM86.6 71.8v.06-.06Zm61.02-40.438.12.24a.987.987 0 0 0-.3-.06c.04-.08.1-.14.18-.18Zm23.88 8.22c.04 0 .04 0 0 0Zm30.78 15.66h.3c-.18-.06-1.02-.54-3.12-2.64 1.5 1.5 1.8 1.8 2.82 2.64Zm53.46 55.738c.24-.12.36-.12-.06-.18 0 .08.02.14.06.18ZM170 212.737l.12-.12c.04.08.06.16.06.24-.04 0-.1-.04-.18-.12Zm-12.06-15.66c.08-.04.18-.06.3-.06l-.12.24-.18-.18Zm-4.38 1.74.12.24c-.08 0-.18-.02-.3-.06.08-.04.14-.1.18-.18Zm3.24-4.08c.04 0 .1-.02.18-.06l-.12.12c-.04 0-.06-.02-.06-.06Zm-4.8-1.2c.08-.04.18-.08.3-.12-.04.12-.06.24-.06.36l-.24-.24Zm-68.88-33.239.24-.12c0 .08.02.18.06.3a.753.753 0 0 1-.3-.18Zm-16.32-23.22.12.24h-.3c.04-.08.1-.16.18-.24Zm-1.2-42.719c.18-.12.3-.18-.06-.18.04.04.06.1.06.18Zm10.5-23.1c.04-.04.08-.1.12-.18.04.12.06.22.06.3a.698.698 0 0 1-.18-.12Zm16.86 2.82.12.24c-.12 0-.22-.02-.3-.06l.18-.18Zm-1.5-9.959c.08-.04.16-.1.24-.18-.04.12-.06.22-.06.3a.698.698 0 0 1-.18-.12Zm21.78 125.097c.9-1.14.36-.84-.18-.36 0 .12.06.24.18.36Zm-.18-.36v-.18c-.08.16-.2.34-.36.54l.36-.36Zm-.48-2.7c.12-.24-.72-1.14-2.28-1.44.12 2.88.48 3.24 1.02 4.26.36-.6.78-1.5 1.26-2.82Zm-.66 4.08c.32-.4.58-.74.78-1.02-.48 0-.86.06-1.14.18.12.2.24.48.36.84Zm-.6-1.26c-.16.28-.3.5-.42.66.16-.08.38-.16.66-.24-.08-.16-.16-.3-.24-.42ZM92 163.178c-.66.6-.78.48-.42.84l.42-.84Zm-.12 1.08c.84-1.08.42-.9-.12-.12l.12.12Zm-.12-.12a.698.698 0 0 1-.18-.12c-.08.16-.16.3-.24.42v.36c.12-.24.26-.46.42-.66Zm-.42.12c-1.26.48-.96.24-.72 1.08.18-.12.3-.24.72-.9v-.18Zm135.84-8.52c.3-.36.42-.66.48-.96h-.84l.36.96Zm3 .54c.42-2.76-.48-2.88-1.86-1.8.36.36.9.96 1.86 1.8Zm-1.86-1.8c-.78-.72-.48-.42-.66.3h.3c.12-.08.24-.18.36-.3Zm-2.58-.42c.18.24.36.48 1.08.72-.48-1.2-.24-.96-1.08-.72Zm-153.9-21.779c-.72.6-.84.48-.48.84.12-.2.28-.48.48-.84Zm-.18 1.14c.84-1.14.48-.96-.12-.12l.12.12Zm-.12-.12-.18-.18c-.08.2-.16.36-.24.479v.3c.16-.24.3-.439.42-.599Zm-.42.12c-1.2.42-.96.179-.72 1.079.18-.12.36-.3.72-.9v-.179Zm169.44-7.08c-.72.6-.78.48-.42.84.12-.2.26-.48.42-.84Zm-.18 1.14c.9-1.14.48-.96-.12-.12l.12.12Zm-.12-.12a.698.698 0 0 0-.12-.18c-.12.2-.2.36-.24.48v.3c.12-.24.24-.44.36-.6Zm-.36.12c-1.26.42-1.02.18-.72 1.08.12-.12.3-.3.72-.9v-.18Zm-5.28-7.08c-.72.6-.78.48-.42.84.12-.2.26-.48.42-.84Zm-.18 1.14c.9-1.14.48-.96-.12-.12l.12.12Zm-.12-.12a.698.698 0 0 0-.12-.18c-.12.2-.2.36-.24.48v.3c.12-.24.24-.44.36-.6Zm-.36.12c-1.26.42-1.02.18-.72 1.08.12-.12.3-.3.72-.9v-.18Zm-167.58 1.14c-.48-1.2-.24-1.14-1.2 0h-2.4c-.42-1.2-.18-.96-1.08-.66.36.42.36.18.9.66.42.42 1.14 1.26 2.58 3.3 0-3.9-.3-3.3 1.2-3.3 1.14 1.5.6 1.44 2.34 0 .66-.24 1.62-.42.06-.96 0 1.26.3.96-2.4.96Zm2.4-.96a.46.46 0 0 1-.06-.18h-.48c.2.04.38.1.54.18Zm-1.08-.9c.18.24.36.48 1.02.72-.42-1.26-.18-.96-1.02-.72Zm6.9-4.56c-.6-.66-.48-.78-.84-.42l.84.42Zm-1.08-.18c1.08.9.9.48.12-.12l-.12.12Zm.12-.12.12-.12c-.16-.08-.3-.16-.42-.24h-.36c.24.12.46.24.66.36Zm-.12-.36c-.48-1.26-.24-.96-1.08-.72.12.18.24.3.9.72h.18Zm-5.28-20.1c-.66.54-.78.48-.42.78.12-.2.26-.46.42-.78Zm-.12 1.08c.84-1.14.42-.96-.18-.12.04.04.1.08.18.12Zm-.18-.12a.698.698 0 0 0-.12-.18c-.08.2-.16.36-.24.48v.36c.12-.24.24-.46.36-.66Zm-.36.12c-1.26.42-.96.18-.72 1.08.18-.12.3-.24.72-.9v-.18Zm14.94-9.42c-.72.54-.84.48-.42.84l.42-.84Zm-.18 1.08c.9-1.08.48-.9-.12-.12l.12.12Zm-.12-.12L82.1 88c-.12.16-.22.3-.3.42v.36c.16-.24.3-.46.42-.66Zm-.42.12c-1.2.48-.96.18-.66 1.08.12-.12.3-.24.66-.9v-.18ZM97.94 64.6c-.66.54-.78.48-.42.84l.42-.84Zm-.12 1.08c.84-1.08.42-.96-.12-.12l.12.12Zm-.12-.12a.698.698 0 0 1-.18-.12c-.08.16-.16.3-.24.42v.36c.12-.24.26-.46.42-.66Zm-.42.12c-1.26.42-.96.18-.72 1.08.18-.12.3-.24.72-.9v-.18Zm75.54-14.16c-.66.54-.78.48-.42.84l.42-.84Zm-.18 1.08c.9-1.08.48-.9-.12-.12l.12.12Zm-.12-.12-.12-.12c-.12.16-.2.3-.24.42v.36c.12-.24.24-.46.36-.66Zm-.36.12c-1.26.48-.96.18-.72 1.08.18-.12.3-.24.72-.9v-.18Zm-27.84-10.56c-.72.54-.84.48-.48.78.16-.2.32-.46.48-.78Zm-.18 1.08c.84-1.14.48-.96-.12-.12l.12.12Zm-.12-.12-.18-.18c-.08.2-.16.36-.24.48v.36c.16-.24.3-.46.42-.66Zm-.42.12c-1.2.42-.96.18-.66 1.08.12-.12.3-.24.66-.9v-.18Zm13.8-5.88c-.72.6-.84.54-.48.84.12-.2.28-.48.48-.84Zm-.18 1.14c.84-1.14.48-.96-.12-.12l.12.12Zm-.12-.12-.18-.18c-.08.2-.16.36-.24.48v.36c.16-.28.3-.5.42-.66Zm-.42.12c-1.2.42-.96.18-.72 1.08.18-.12.36-.3.72-.9v-.18ZM155 33.7c-.72.54-.78.48-.42.84l.42-.84Zm-.18 1.08c.9-1.08.48-.9-.12-.12l.12.12Zm-.12-.12-.12-.12c-.12.16-.2.3-.24.42v.36c.12-.24.24-.46.36-.66Zm-.36.12c-1.26.48-1.02.24-.72 1.08.12-.12.3-.24.72-.9v-.18Zm17.76 13.38c-.06-.42.24-.3.96-.3-.4-.08-.72-.14-.96-.18 0 .04.02.1.06.18h-.54c.16.08.32.18.48.3Zm-.3-1.2c-.24-.3-1.56.3.3.72-.12-.24-.18-.54-.3-.72Zm.66 3.24c1.32-.18.72-1.32-.36-2.04 0 .24.18.84.36 2.04Zm10.2 4.86c.04-.04.1-.06.18-.06v.54l.24-.48c-.36 0-.24-.24-.3-1.02-.04.4-.08.74-.12 1.02Zm-.72.3c-.3.24.3 1.56.72-.3-.3.06-.54.12-.72.3Zm38.94 37.68v-.06h-.54c.2.04.38.06.54.06Zm-1.08-.72c.18.24.36.48 1.08.66-.48-1.2-.24-.96-1.08-.66Zm3.36 3.78-.6-.72c-.08.12-.14.22-.18.3-.12-.08-.24-.18-.36-.3-.12-.84.48-2.04-1.14-2.34.12.84-.42 1.98 1.44 2.76-.18.66 1.02.96.24.12.16.04.36.1.6.18Zm-.78-.42c.08.08.14.16.18.24l-.24-.12c0-.04.02-.08.06-.12Zm-39.3-40.62c.3 0 .9-.18 2.1-.42-.18-1.32-1.38-.66-2.1.42ZM66.56 101.98c-1.5 1.32-1.56.84-1.02 2.28.24-.54.6-1.26 1.02-2.28Zm-.84 2.88c.18-.54.36-1.14-.12-.3.04.08.08.18.12.3Zm-.12-.3a.987.987 0 0 1-.06-.3c-.16.28-.28.5-.36.66v.48c.2-.36.34-.64.42-.84Zm-.42.3c-1.2.48-.96.24-.72 1.08.18-.06.3-.18.72-1.02v-.06Zm110.88 90.778c.12-.08.22-.12.3-.12-.24-.16-.46-.28-.66-.36h-.54c.4.2.7.36.9.48Zm-.72-1.38c-.06-.06-1.62-.24.36.9-.12-.3-.18-.66-.36-.9Zm3.24 2.28c-1.32-1.44-.84-1.56-2.22-1.02.54.24 1.26.6 2.22 1.02Zm-2.88-.84c.6.18 1.14.36.36-.06-.12 0-.24.02-.36.06ZM151.88 47.92l.06-.06h-.54c.2 0 .36.02.48.06Zm-1.02-.78c.18.24.36.48 1.08.72-.42-1.2-.18-.96-1.08-.72Zm3.36 3.78c-.2-.24-.38-.46-.54-.66a.68.68 0 0 0-.24.24c-.08-.08-.18-.16-.3-.24-.18-.84.48-2.1-1.26-2.34-1.02 1.92-1.08 2.22 1.5 2.82-.06.6.96.84.3.06.16.04.34.08.54.12Zm-.78-.42c.12.12.2.22.24.3-.12 0-.22-.02-.3-.06 0-.08.02-.16.06-.24Zm60.12 5.88c-1.08 1.38-1.08 1.38 0 3.3 0-1.08 0-1.98.06-3.42 0 .04-.02.08-.06.12Zm.06-.12.12-.12c-.06-.12 0-.42-.06-.9 0 .36-.02.7-.06 1.02Zm2.46-.42c-.04-.28-.08-.54-.12-.78-.72.06-1.44.12-2.22 1.08.12.24.6 0 2.34-.3Zm-11.76 121.978c.18.24.36.42.84.66-.42.12-.36.06.24.06 0 .359 0 .779 1.2 1.199 1.08-.18 1.56-.78.84-2.339-.96.54-1.68.84-2.1.96-.36-1.02-.18-.78-1.02-.54Zm2.28 1.919a6 6 0 0 1-1.2 0c.44 0 .92.02 1.44.06a.533.533 0 0 0-.24-.06Zm-3.24 2.28c.96-.6 1.8-1.14 2.04-2.28-1.98 0-2.82.36-2.04 2.28Zm1.8-3.539c.04-.04.1-.08.18-.12.04.08.06.14.06.18a.533.533 0 0 0-.24-.06ZM166.22 43.601l.72-.72c-.32 0-.6-.02-.84-.06.04.12.08.22.12.3h-.54c.2.16.38.32.54.48Zm-.36-1.38c-.24-.3-1.44.42.24.6-.06-.18-.12-.42-.24-.6Zm-1.14 3.06c2.58.42 2.82-.42 1.5-1.68-.48.54-.9 1.02-1.5 1.68Zm-42.18 148.196c.48-.42 1.08-.36 2.4-.24-1.38-.24-2.22-.48-2.76-.66 0 .08.02.16.06.24h-.54c.36.24.64.46.84.66Zm-1.38-1.38c.12.12.18.3 1.02.48-.36-.96-.18-.72-1.02-.48Zm0 3.72c1.26-.84 2.1-1.44 1.38-2.34-.42.36-.78 1.02-1.38 2.34Zm-7.38 3.36c-.12.24-.22.4-.3.48.04.48.04.88 0 1.2.66.3 1.5.78 2.64 1.32-2.58-3.18-2.34-3-2.34-3Zm-1.74 3c.66 0 1.32 0 1.44-1.32-2.1-1.14-1.74-.78-1.44 1.32Zm1.38-3.36-.72.6c.42.36.54.6.78.24 0-.24-.02-.52-.06-.84Zm-42.78-57.119c-.9.18-.66.06-.72-.9-.28.52-.54.88-.78 1.08.54.54.48 1.14.36 2.52.3-1.02.72-1.98 1.14-2.7Zm-3.72-1.02c.84 1.2 1.38 2.04 2.22 1.2-.36-.36-1.08-.66-2.22-1.2Zm5.34.66c-.18-1.32-.9-.9-1.62.36.36-.06.9-.18 1.62-.36Zm5.88 17.7c-.42-.54-.48-.72-.66-.6-.08-.12-.16-.26-.24-.42-3.84-2.22-3.18-2.04-3.72-1.44-.12 2.7 1.74 1.56 3.72 2.1l-.18.18c.84.66.96.48.66-.06.16.08.3.16.42.24Zm-.42-.24-.48-.12.24-.24c.12.16.2.28.24.36ZM198.2 55.66c-.48-.54-.48-.72-.72-.54.2.16.44.34.72.54Zm-.72-.54-.18-.18c-.56.56-1.02 1.04-1.38 1.44 2.58-.48 2.04-.18 1.2-.84.18-.24.3-.36.36-.42Zm-3.9 1.74c.96.96.6 1.32 2.34-.48-.6.12-1.38.24-2.34.48Zm3.96-2.16c-1.92-1.32-2.28-1.44-.24.24l.24-.24Zm-31.14-7.62c2.16 1.26-1.32 2.76.12 4.08 2.22-.6 2.1-2.28 2.58-4.74-.48.12-1.32.3-2.7.66Zm2.88-1.5c-.66.54-.48.66-.18.72.04-.24.1-.48.18-.72Zm-.18.72v.12c.84-.18.36-.06 0-.12Zm44.82 21.9c1.38 1.14 1.38 1.14 3.36 0h-3.42.06Zm.54-4.86-1.56.24c1.14 2.58-1.56 2.82.36 4.2.6-.48 2.76-1.68 1.2-4.44Zm-1.2 4.44c-.24.24-.18.36.6.42-.24-.16-.44-.3-.6-.42Zm-99.54 125.277c.16-.2.38-.4.66-.6h-.6l.12.36c-.72 0-.66-.18-.18.24Zm-.18-1.14c-.24-.3-1.32.6.24.54-.06-.18-.12-.42-.24-.54Zm.54 5.1c.06.18 1.44.18 2.7.24-1.38-2.7-2.52-3.78-3.06-4.2-1.32 1.5.18 2.76.36 3.96Zm57.96-5.88c-.66-.84-.42-.84-1.08-.24.32.08.68.16 1.08.24Zm-1.08-.24c-.24-.04-.46-.08-.66-.12-.48.24-1.38.66-2.82 1.38 5.04-1.02 4.56-.36 3.48-1.2v-.06Zm0-2.64h-3.48c0 1.02 0 1.8 2.82 2.52 1.14-.6.66-.72.66-2.52ZM149.48 43.06c0-.16.02-.32.06-.48-.48-.56-.82-1.04-1.02-1.44-.66.36-1.26.66-1.8 1.02 1.08.36 1.98.66 2.76.9Zm.54-2.76c-1.5-1.02-2.34-.66-1.5.84.44-.28.94-.56 1.5-.84Zm.06 2.88c.64.16 1.18.28 1.62.36l-.42.84c-.44-.4-.84-.8-1.2-1.2Zm2.46-4.8c-.54.12-1.38.12-1.56.42-.54 1.2-1.26 2.46-1.44 3.78.16.2.34.4.54.6l-.6-.12c-.06.66.06 1.38.42 2.16 5.34 0 4.5.48 4.2-1.92-.54.24-1.08.42-2.4.24 1.5-3.12.72-2.16.84-5.16Zm24.54 4.86c0 5.4-.84 4.92 3.18 2.94 0-3.6.72-2.94-3.18-2.94Zm-38.46 2.46c-6.66 0-6.06-.84-2.34 3.06.42-.54 1.02-1.38 2.34-3.06Zm78.3 29.04c-6.12-2.04-4.14-.9-6.66-4.74.36 5.22.36 5.22 6.66 4.74Zm24.72 48.779c-4.74-2.28-3.42-2.58-5.4 2.22 2.1-.9 3.54-1.44 5.4-2.22ZM85.16 170.258c0-4.2.48-3.12-1.98-3.66-.06 1.8-1.14 3.72 1.98 3.66Zm88.5-127.018c3.12-2.58 1.92-3.72.84-3.66-1.74.12-1.32 2.04-.84 3.66ZM87.8 162.038c-2.58.48-2.58.48-1.68 3.24.48-.96.96-1.92 1.68-3.24Zm106.08 19.079c1.5 2.82 1.02 2.46 2.1 1.92-.6-4.439-.06-3.959-2.1-1.92Zm41.1-27.119c.6.78.54 1.38 2.52.18 1.74-1.14.9-1.56.54-1.98-1 .6-2.02 1.2-3.06 1.8ZM134.12 42.101c1.5-.84 2.46-1.44 3.48-1.98-1.38-.06-3.54-1.8-3.48 1.98Zm71.52 150.356c-.78-5.28-.12-4.86-2.64-2.64l2.64 2.64ZM188.72 47.74c2.58-.48 2.58-.48 1.68-3.24-.48.96-.96 1.92-1.68 3.24Zm2.46 13.38c1.44-.9 2.46-1.44 3.42-2.04-1.32 0-3.48-1.74-3.42 2.04Zm-6.84-13.86c-3.48 1.02-2.64 2.64-2.28 4.5.72-1.38 1.26-2.46 2.28-4.5Zm-45.3-7.5c.12 1.38-.48 1.14 3.24.6-.12-.78.42-.6-3.24-.6ZM67.88 113.14c-.24-.66-.48-1.56-.9-2.88-.96 2.46-.66 3.3.9 2.88Zm46.74 67.618c-.66 2.16-.36 3.12.9 2.46-.24-.72-.6-1.56-.9-2.46Zm117.42-73.378c.36.84.72 1.62 1.32 2.82.9-2.46.6-3.3-1.32-2.82Zm-164.28.06c.12 1.38-.48 1.14 3.18.66-.06-.78.54-.66-3.18-.66Zm11.76-1.92c-.72-.66-1.32-1.26-2.46-2.34 0 2.58.3 3.54 2.46 2.34Zm85.68 87.118c1.38-.18 1.14.48.6-3.24-.78.06-.6-.54-.6 3.24ZM224.3 82.78c-.84.36-1.62.78-2.82 1.32 2.46.96 3.3.6 2.82-1.32Zm-59.7 113.277c.3-.24.3-.96.42-1.5-4.44 1.2-1.08 2.1-.42 1.5Zm-44.94-.66c-1.32 0-1.14-.6-.66 3.18.84-.06.66.54.66-3.18Zm66.42 3.06c1.56-1.56 2.1-2.16 3.3-3.36-3.3.36-2.4-.6-3.3 3.36ZM92.96 65.98c-.36.24-.3.96-.42 1.5 4.44-1.2 1.02-2.1.42-1.5Zm75.18 135.717c.36-1.5.36-1.5-2.88-1.38 1.56.78 2.4 1.14 2.88 1.38Zm6.96-.12c-1.5-.42-1.5-.42-1.38 2.88.78-1.62 1.14-2.4 1.38-2.88ZM144.62 48.04c-1.38.12-1.14-.48-.6 3.24.72-.12.6.48.6-3.24Zm-75.9 88.018c0 .78-.42.6 2.4.6 0-.72.48-.6-2.4-.6Zm177.48-1.26c-.06 0-.42.66-.36.96.12.36.48.66.78 1.02.6-1.56 1.02-1.74-.42-1.98Zm-18.24-10.619c0 .78-.42.6 2.4.6 0-.72.48-.6-2.4-.6Zm-54.66 59.398c0 .78-.42.6 2.4.6 0-.72.48-.6-2.4-.6Zm-57.78 1.08c-.48 1.14-.72.66.36 1.98.78-1.86.9-1.44-.36-1.98Zm60.18 24.48c0-.78.48-.6-2.4-.6 0 .72-.42.6 2.4.6ZM68.96 104.499c1.08.42.6.66 1.98-.42-1.86-.78-1.44-.9-1.98.42Zm81-73.018c-.06 0-.42.66-.36.9.12.42.48.72.72 1.02.66-1.5 1.08-1.68-.36-1.92Zm17.4 5.46c-.78-1.2-.18-1.08-2.16-.54.54.9-.06.84 2.16.54ZM83.18 80.74c1.14.42.66.66 2.04-.42-1.92-.78-1.44-.9-2.04.42Zm1.02-2.88c0 .78-.48.6 2.4.6 0-.78.42-.6-2.4-.6Zm136.86 84.838c1.08.48.6.66 1.98-.36-1.86-.78-1.44-.96-1.98.36ZM205.4 75.46c0 .78-.42.6 2.4.6 0-.72.42-.6-2.4-.6ZM83 158.018c0-.72.48-.54-2.34-.54 0 .72-.48.54 2.34.54ZM218.24 70.48c-1.14.72-1.08.12-.54 2.16.96-.54.84.06.54-2.16Zm-121.2-.12c.3-2.16.36-1.56-.54-2.1-.54 1.98-.66 1.38.54 2.1ZM201.62 61c-1.2.72-1.08.12-.54 2.1.9-.54.84.12.54-2.1Zm-83.16-2.82c-1.38-1.08-.84-.9-1.98-.42.54 1.32.12 1.2 1.98.42Zm114.24 89.218c-.72-1.14-.12-1.08-2.16-.54.54.96-.06.84 2.16.54ZM120.02 55.78c1.14.48.66.66 2.04-.36-1.92-.78-1.44-.96-2.04.36Zm14.1-4.08c0 .78-.48.6 2.34.6 0-.72.48-.6-2.34-.6Zm95.22 90.778c1.14.48.66.66 2.04-.36-1.86-.78-1.44-.9-2.04.36Zm-25.5 30.3c-1.08 1.38-.84.9-.42 1.98 1.32-.54 1.2-.12.42-1.98ZM165.2 29.261c.12.28.26.54.42.78.12-.12.36-.3.36-.36-.24-1.14-.48-.72-.78-.42Zm-3.6 2.4c.16.24.3.5.42.78.12-.18.42-.3.36-.42-.24-1.14-.42-.72-.78-.36Zm-1.8 4.5c-.24.12-.48.26-.72.42.12.12.3.42.36.36 1.14-.24.72-.48.36-.78Zm23.04 1.62c-.48-.48-.12-.54-1.2 0 .48.42.12.54 1.2 0Zm-23.04.78c-.24.12-.48.26-.72.42.12.12.3.36.36.36 1.14-.24.72-.48.36-.78Zm-28.08 3.96c-.48-.48-.12-.54-1.2 0 .48.48.18.54 1.2 0Zm1.38 1.02c.12.24.26.5.42.78.12-.18.36-.3.36-.42-.24-1.14-.48-.72-.78-.36Zm42.42 2.4c-.3-.36-.54-.78-.78.36 0 .06.24.24.36.36.16-.24.3-.48.42-.72Zm-35.88 2.94c.3-.3.78-.54-.36-.78-.12-.06-.3.24-.42.36.28.16.54.3.78.42Zm7.38-.24c-.16-.24-.3-.5-.42-.78-.12.12-.42.3-.36.42.24 1.14.42.66.78.36Zm-16.92.6c-.24.12-.48.26-.72.42.12.12.24.36.36.36 1.14-.24.72-.48.36-.78Zm40.44 0c-.28.12-.54.26-.78.42.12.12.3.36.42.36 1.14-.24.66-.48.36-.78Zm4.14.6c.36.3.54.72.78-.42.06-.06-.24-.24-.36-.36-.12.24-.26.5-.42.78Zm3-.6c-.28.12-.54.26-.78.42.12.12.3.36.36.36 1.14-.24.72-.48.42-.78Zm1.74 2.94c.36.36.54.78.84-.36 0-.12-.24-.24-.42-.42-.12.28-.26.54-.42.78Zm10.38 2.4c-.16-.24-.3-.5-.42-.78-.12.12-.42.3-.36.42.24 1.14.42.66.78.36Zm2.1 1.8c-.24.12-.48.26-.72.42.12.12.24.36.36.36 1.14-.24.72-.48.36-.78Zm-92.1 1.74c.36.36.54.78.84-.36 0-.12-.24-.24-.42-.42-.12.28-.26.54-.42.78Zm36.84 0c.36.36.54.78.84-.36 0-.12-.24-.24-.42-.42-.12.28-.26.54-.42.78Zm50.76 0c-.12-.24-.26-.5-.42-.78-.12.18-.36.3-.36.42.24 1.14.48.72.78.36Zm15.24.24c.3-.3.72-.54-.42-.78-.06 0-.24.24-.36.36.24.16.5.3.78.42Zm-98.4.96c-.16-.24-.3-.5-.42-.78-.12.12-.42.3-.36.42.24 1.14.42.72.78.36Zm102.18 2.04c-.3-.36-.54-.78-.78.36 0 .12.24.24.36.42.16-.28.3-.54.42-.78Zm-2.64.96c-.24.12-.48.26-.72.42.12.12.24.36.36.36 1.14-.24.72-.48.36-.78Zm-94.2 4.379c.24-.12.5-.26.78-.42-.18-.12-.3-.42-.42-.36-1.14.24-.72.42-.36.78Zm88.68-.42c-.42-.48-.12-.54-1.14 0 .42.48.12.54 1.14 0Zm8.52 1.38c.3.3.54.72.78-.42 0-.06-.24-.24-.36-.36-.16.24-.3.5-.42.78Zm3.24 0c-.16-.28-.32-.54-.48-.78-.12.12-.36.3-.36.36.3 1.14.48.72.84.42Zm-3.6 4.74c-.12-.24-.26-.5-.42-.78-.12.12-.36.3-.36.42.24 1.14.48.66.78.36Zm-2.22 1.02c-.42-.48-.12-.54-1.14 0 .42.42.12.54 1.14 0ZM82.58 75.04c.36-.36.78-.54-.36-.84-.12 0-.24.24-.42.42.28.12.54.26.78.42Zm126.84 1.14c.24-.12.48-.26.72-.42-.12-.12-.24-.36-.36-.36-1.14.24-.72.48-.36.78Zm8.04.6c.16.28.3.54.42.78.12-.12.42-.3.36-.36-.24-1.14-.42-.72-.78-.42Zm-126.54 3c.3-.36.78-.54-.36-.78-.12-.06-.3.24-.42.36.24.12.5.26.78.42Zm3.54 0c.36-.36.78-.54-.36-.78-.12-.06-.24.24-.42.36.28.12.54.26.78.42Zm-5.1 1.5c-.3.36-.78.54.36.84.12 0 .3-.24.42-.42-.28-.12-.54-.26-.78-.42Zm121.8.6c-.12-.24-.26-.5-.42-.78-.12.18-.36.3-.36.42.24 1.14.48.72.78.36Zm7.14 1.2c-.12-.24-.26-.5-.42-.78-.12.12-.36.3-.36.42.24 1.14.48.72.78.36Zm-141.84.42c-.42.48-.54.12 0 1.2.48-.48.54-.12 0-1.2Zm132.96 1.02c.24-.12.48-.26.72-.42-.12-.12-.24-.42-.36-.36-1.14.24-.72.42-.36.78ZM72.14 92.56c-.12-.24-.26-.48-.42-.72-.12.12-.42.3-.36.36.24 1.14.48.72.78.36Zm131.94 2.04c-.36-.3-.54-.72-.84.42 0 .06.24.24.36.36.16-.24.32-.5.48-.78Zm27.9 4.2c.24-.16.5-.3.78-.42-.12-.18-.3-.42-.42-.42-1.14.3-.72.48-.36.84Zm-155.34 2.699c-.24.12-.5.26-.78.42.18.12.3.36.42.36 1.14-.24.72-.48.36-.78Zm156.84 1.2c-.24.12-.48.26-.72.42.12.12.3.36.36.36 1.14-.24.72-.48.36-.78Zm-6.66 1.62c-.48-.48-.18-.54-1.2 0 .48.42.12.48 1.2 0Zm-165 .96c.12.28.26.54.42.78.12-.12.36-.3.36-.36-.24-1.14-.48-.72-.78-.42Zm171.36.6c.24-.12.5-.26.78-.42-.18-.12-.3-.36-.42-.36-1.14.24-.72.48-.36.78Zm-3.84.6c.16.28.3.54.42.78.12-.12.42-.3.36-.36-.24-1.14-.42-.72-.78-.42Zm-152.46 1.2c-.3-.3-.54-.78-.78.36 0 .12.24.3.36.42.16-.28.3-.54.42-.78Zm160.44 7.14c-.3-.36-.54-.78-.78.36-.06.12.24.24.36.42.16-.28.3-.54.42-.78Zm-169.02 2.1c-.24.16-.48.3-.72.42.12.18.3.42.36.42 1.14-.3.72-.48.36-.84Zm1.8.6c.36.36.54.78.78-.36.06-.12-.24-.24-.36-.42-.12.28-.26.54-.42.78Zm1.8 5.04c.3-.36.78-.54-.36-.84-.12 0-.3.24-.42.42.28.12.54.26.78.42Zm-7.14 5.04c-.24.16-.5.32-.78.48.12.12.3.36.42.36 1.14-.3.72-.48.36-.84Zm165.42 1.8c-.12-.24-.26-.5-.42-.78-.12.18-.36.3-.36.42.24 1.14.48.72.78.36Zm-148.8 1.44c.36-.3.78-.54-.36-.78-.12 0-.24.24-.36.36.24.16.48.3.72.42Zm139.08-.84c-.28.16-.54.3-.78.42.12.12.3.42.36.36 1.14-.24.72-.42.42-.78Zm-146.94 6.359c-.48-.48-.18-.54-1.2 0 .48.48.12.54 1.2 0Zm140.64.42c.24-.12.5-.26.78-.42-.18-.12-.3-.36-.42-.36-1.14.24-.72.48-.36.78Zm-135.12 1.56c-.28.12-.54.26-.78.42.12.12.3.36.36.36 1.14-.24.72-.48.42-.78Zm150.9 1.14c-.24.16-.5.32-.78.48.12.12.3.36.42.36 1.14-.3.72-.48.36-.84Zm-154.26 1.44c-.3-.3-.54-.72-.78.42 0 .06.24.24.36.36.16-.24.3-.5.42-.78Zm2.4.36c-.12-.24-.26-.5-.42-.78-.12.18-.42.3-.36.42.24 1.14.48.72.78.36Zm-2.64 2.64c.36-.36.78-.54-.36-.78-.12-.06-.24.24-.36.36.24.16.48.3.72.42Zm155.94.96c-.12-.28-.26-.54-.42-.78-.12.12-.42.3-.36.36.24 1.14.48.72.78.42Zm-157.14 6.18c.36-.36.78-.54-.36-.78-.06-.06-.24.24-.36.36.24.12.48.26.72.42Zm142.02 3.3c.36.3.54.78.84-.36 0-.12-.24-.3-.42-.42-.12.28-.26.54-.42.78Zm28.56.84c.12.24.26.5.42.78.12-.12.36-.3.36-.42-.24-1.14-.48-.66-.78-.36Zm-2.4 2.4c.12.24.26.48.42.72.12-.12.42-.24.36-.36-.24-1.14-.42-.72-.78-.36Zm-1.56 1.14c-.3-.3-.54-.72-.78.42 0 .06.24.24.36.36.16-.24.3-.5.42-.78Zm-6.78 2.4c.16.24.3.5.42.78.18-.12.42-.3.42-.42-.3-1.14-.48-.66-.84-.36Zm-1.5 1.56c-.16-.28-.3-.54-.42-.78-.12.12-.42.3-.36.36.24 1.14.42.72.78.42Zm-23.58 5.76c-.48-.48-.18-.54-1.2 0 .42.42.12.48 1.2 0Zm6.96 1.32c-.16-.24-.3-.48-.42-.72-.18.12-.42.24-.42.36.3 1.14.48.72.84.36Zm-17.88 3.24c-.3-.3-.54-.78-.78.36 0 .12.24.3.36.42.16-.28.3-.54.42-.78Zm-63.54 14.879c.24-.16.5-.32.78-.48-.18-.12-.3-.36-.42-.36-1.14.3-.72.48-.36.84Zm3.12.72c-.42-.42-.12-.48-1.2 0 .48.48.18.54 1.2 0Zm5.22 6.36c.24-.12.48-.26.72-.42-.12-.12-.3-.36-.36-.36-1.14.24-.72.48-.36.78Zm18.12.36c-.24.16-.48.3-.72.42.12.12.24.42.36.36 1.14-.24.72-.42.36-.78Zm1.62 2.82c-.48-.48-.12-.54-1.2 0 .48.42.18.48 1.2 0Zm15.48 1.14c-.48-.42-.18-.48-1.2 0 .48.48.12.54 1.2 0Z" fill="#13D7B7"/><path d="M54.5 123.22c-.06.78-3 3.6-4.32 4.08-1.26-2.22-.36-3.42 1.8-3.96l-1.08-1.8c1.26-.54 1.2-.24 0-1.2 0-3.72.42-3.48-1.44-4.74-.3 0 .78.24-.06-.9-.06-.12-.48.12-.72.18 1.8 2.34.96 4.44-.66 5.28-.54-2.34-5.16-2.82-2.4-6.72 4.08-1.799 4.08-1.799 6.48.96.48 1.14-1.08 3 1.2 3.54 1.38 1.38 1.26.48 1.2 5.28ZM105.56 43.126c.9-3.06 7.2.84 3.48-3.06 2.82-.96 1.86-.48 3.66-1.98v3.84c-1.2.42-.96.18-.66 1.08.18-.18.42-.36.66-.84 5.1.18.42 3.3-.96 2.88-2.1-.54-4.08-1.26-6.18-1.92ZM55.1 115.842c-.48-2.64-.18-3.3 2.04-5.04-1.32-.96-2.58-1.92-3.9-2.82 1.26-1.5 2.46-2.64 4.62-1.56 0 9.6.72 7.68-2.76 9.42ZM189.98 207.042c-.78-1.02-1.5-2.04-2.4-3.3 5.34-.42 9.72-4.44 15.42-3.06-9.36 2.7-9.54 2.04-13.02 6.36ZM212.72 178.598c3.84-.18 7.8-.3 12.48 2.04-2.22.06-4.02.72-4.92.06-2.28-1.5-3.6-1.8-4.68 1.14-.12.36-1.74.24-2.88.36v-3.6ZM78.2 62.92c-1.02.6-2.64 1.68-2.82 1.5-.96-1.14-1.68-.9-2.64.12-1.5-3.12 1.08-4.26 2.76-6.18 1.08 1.74 1.98 3.3 2.7 4.56ZM96.08 62.142c-2.04-1.5-1.38-4.32-3.36-6.42-.78 1.02-1.5 1.86-2.22 2.76-.9-2.22-.24-3.72 1.98-4.74 4.5 3.06 3.6 1.26 3.6 8.4ZM143.48 22.303c.24-.72.18-1.26.42-1.44 1.92-1.32 3.78-1.02 5.52.18-2.64 4.74-1.32 4.62-5.94 1.26ZM44.06 109.54c-3.06-4.92-3.36-3.72.6-5.7 2.52 3.36 2.52 2.1-.6 5.7ZM227.96 85.902c2.58 1.68 4.26 2.22 2.46 4.74-.78 1.02 1.5 1.2-2.46 1.2-.36-1.2-.74-2.4-1.14-3.6 1.74-.06.96-1.44 1.14-2.34ZM44.9 136.72c.9-5.64 1.02-4.02.72-4.38-.78-.84-1.14-1.92-.06-2.4 2.7-1.26 2.4 5.52.9 7.02-.12.12-.66-.12-1.56-.24ZM185 27.885c-1.08.42-1.98.78-3.36 1.32 1.62-4.26 3.48-2.88 7.02-1.02-2.46 3.9-2.94 4.8-3.66-.3ZM202.28 212.918c-4.14.36-1.98-3.3-4.56-3.42 3.12-3.36 2.04-3.9 4.56 3.42ZM38.72 128.922c1.74-2.76 2.04-2.04-.72-3 2.34-5.16 8.88 1.14.72 3ZM101.9 199.901c4.26-3.48 3-3.36 5.88-.84-1.8 3.84-.54 3.48-5.88.84ZM59.24 119.138c-.84 1.62-1.74 3.24-2.82 5.16-.66-3.36-.48-3.96 1.62-7.56.18.9-.6 2.28 1.2 2.4ZM65.18 148.841c0-4.32-.6-3.54 2.4-3.54.42 2.46.12 1.26 1.14 4.74-2.82 0-2.04.3-3.54-1.2ZM116 39.224c4.02-3.96 2.82-3.84 5.46-1.2-2.34 3.06-1.08 2.88-5.46 1.2ZM203.36 209.261c-2.4-6.6-3-5.46 1.86-5.82-2.1 6.48.06 5.76-1.86 5.82ZM114.02 51.767c0-7.26-.42-6.06 1.74-6.18-.78 4.68 2.82 1.8-1.74 6.18ZM252.92 131.018c1.5 2.64 1.92 2.04-2.34 2.4l-1.2-1.2c.24-2.94.48-3 3.54-1.2ZM186.38 37.187c0-.72-.48-.12 1.98-2.46.54 3.78.12 2.22 1.32 5.82-2.04.54-2.76-.66-3.3-2.16 1.26-.54 1.2-.24 0-1.2ZM213.56 194.198c0 3.839.84 3.059-4.32 3.059 3.78-4.139 3-3.719 4.32-3.059ZM98.24 189.096c-2.46.36-3-1.14-3.72-3.24 4.68-.3 3.72-.96 3.72 3.24ZM193.04 211.062c-5.16 3.12-4.02 3.36-4.32-1.98 1.5.72 2.58 1.2 4.32 1.98ZM108.5 50.44c2.82-4.919 1.68-4.919 4.92-.66-1.74.24-2.88.36-4.92.66ZM247.58 100.537c-2.76-4.44-3.48-3.66 2.34-3.66-.84 1.38-1.44 2.28-2.34 3.66ZM191.6 33.281c2.28 4.68 2.58 3.72-2.04 3.72.78-1.44 1.38-2.46 2.04-3.72ZM63.98 133.419c-.18.9.6 2.28-1.2 2.34-.72-2.76-3.48 0-4.8-1.92 1.98-.9 4.08-.18 6-.42ZM178.28 30.106c-.36-5.7-1.2-4.56 4.38-4.56-4.08 1.62-3.24.6-3.24 4.5-.36 0-.74.02-1.14.06Z" fill="#13D7B7"/><path d="M118.64 44.321c-3.96-2.94-4.38-2.22 2.4-2.22 0 2.64.3 2.22-1.2 2.22-.48-1.26-.24-1.2-1.2 0ZM84.74 57.163c-8.28 0-7.56.72-2.64-2.1.48.42 1.44 1.14 2.64 2.1ZM85.4 57.342c2.52-3.72 1.62-3.9 3.36.78-2.64.54-1.86.72-3.36-.78ZM252.26 105.877c-8.28 0-7.5.66-2.58-2.1.48.42 1.44 1.14 2.58 2.1ZM206.6 202.299c-3.6.06-1.98-2.04-2.34-3.54 3.54-.12 1.92 2.04 2.34 3.54ZM210.02 48.167c4.74-1.32 3.78 1.62 3.3 1.86-1.32.72-2.16-.36-3.3-1.86ZM51.08 109.118c-2.22-.78-3.6-2.16-1.86-4.38.66 1.5 1.26 2.94 1.86 4.38ZM173.18 20.868c4.8-1.44 3.72 1.62 3.3 1.86-1.26.72-1.98-.24-3.3-1.86ZM54.38 134.918v4.14c-.36-.06-.78 0-.9-.18-.78-1.38-3.36 0 .9-3.96ZM59.36 158.802v-3.9c3.54.3 2.58 1.44 0 3.9ZM147.2 25.305c1.74.12 1.02 1.44 1.14 2.34-.36.4-.74.8-1.14 1.2-3.18 0-3 .72 0-3.54ZM236.78 174.637c.84 1.26 1.5 2.22 2.52 3.78-2.76-1.32-2.76-1.32-2.52-3.78ZM64.04 148.716c-6 0-5.94.72-.18-2.22.06.9.12 1.62.18 2.22ZM120.5 209.623c-2.16 1.2-1.44 1.5-3-.48 1.38-1.08.6-1.32 3 .48ZM179.24 210.637c2.94 2.88 2.94 2.04.3 3.54-.08-1.2-.18-2.38-.3-3.54ZM260.24 111.457c-1.8-2.4-1.5-1.62-.42-3 1.92 1.62 1.62.84.42 3ZM86.6 59.742c1.02.12 2.58-.48 2.34 1.5-.24 1.44-1.5.72-2.34.9v-2.4ZM96.08 56.202c2.64-5.52 1.86-5.52 2.4 0h-2.4ZM207.8 52.605c-.96-.12-2.52.6-2.34-1.32 0-.36.6-.96.96-1.02 1.98-.12 1.2 1.38 1.38 2.34ZM152.54 27.639c-1.68-.36-1.74.12-1.62-1.92 0-.54.9-.78 1.62 1.92ZM135.32 32.32c-.18 2.64.06 2.1-.78 2.64-1.08-2.82-1.32-2.22.78-2.64ZM173.3 33.58c2.88 0 2.4-.3 2.4 1.2-2.16 1.2-2.28 1.14-2.4-1.2ZM42.38 125.141c3-.12 4.44-.06 3.48 2.22-.96-.6-1.8-1.14-3.48-2.22ZM53.3 117.936c.66-3.54 4.5 1.14 1.2 1.2l-1.2-1.2ZM52.28 114.215v-3.36c1.08 1.98 1.08 1.98 0 3.36ZM252.92 108.46c.9.18 2.28-.6 2.4 1.2-.4.4-.8.78-1.2 1.14-1.74-.06-1.02-1.44-1.2-2.34ZM63.98 159.515l-2.34-2.34c1.92-.36 2.7.42 2.34 2.34ZM157.28 210.637c-1.68-.42-1.68.06-1.62-1.98 0-.54.9-.78 1.62 1.98ZM205.22 210.816c0 3.6.18 3.12-.6 3.18-.54-3.72-.78-3.06.6-3.18ZM113.9 53.8c1.2-1.62 2.4-1.62 3.6 0h-3.6ZM53.6 142.895c0-2.82-.18-2.4.6-2.4 0 2.82.18 2.4-.6 2.4Z" fill="#13D7B7"/><path d="M50.72 141.039c.78-2.58.96-4.14 1.38-1.2 0 .12-.48.36-1.38 1.2ZM48.86 131.02c0-2.82-.18-2.4.6-2.4 0 2.82.18 2.4-.6 2.4ZM226.82 177.337c-1.86 0-3.48-1.2 0-1.2v1.2ZM81.8 181.176c-.78 1.14-.18 1.02-2.16.54.54-.96-.06-.9 2.16-.54ZM58.04 116.741c0-2.94-.36-2.82 1.2-.9-.4.32-.8.62-1.2.9ZM195.62 192.816c0 2.82.18 2.34-.6 2.34 0-2.82-.18-2.34.6-2.34ZM148.34 200.14c-.72 1.2-.12 1.08-2.16.54.54-.9-.06-.84 2.16-.54ZM104.36 204.46c-2.22.3-1.62.36-2.16-.54 2.04-.54 1.44-.66 2.16.54ZM135.08 206.44c.78-2.64.96-4.2 1.38-1.26 0 .12-.42.36-1.38 1.26ZM195.2 206.019c-2.58-.72-4.14-.9-1.2-1.32.18 0 .42.42 1.2 1.32ZM114.8 207.042c0 2.82.18 2.4-.6 2.4 0-2.82-.18-2.4.6-2.4ZM251.78 106.059c1.74.12.96 1.5 1.14 2.4-1.44 0-1.14.48-1.14-2.4ZM235.88 172.421c-1.02-1.38-.84-.9-.36-1.98 1.32.54 1.14.12.36 1.98ZM165.2 208.662c1.14-.48.6-.66 1.98.36-1.86.78-1.44.9-1.98-.36ZM184.94 210.636c0 2.82.18 2.34-.6 2.34 0-2.82-.24-2.34.6-2.34ZM212.48 210.879c-.72 1.14-.12 1.02-2.1.54.48-.96-.12-.9 2.1-.54ZM157.82 213.936c-2.22.3-1.62.42-2.16-.54 2.04-.54 1.44-.66 2.16.54ZM150.74 214.483c2.82 0 2.4-.18 2.4.6-2.82 0-2.4.18-2.4-.6ZM187.88 26.5c0-2.82-.18-2.4.6-2.4 0 2.82.18 2.4-.6 2.4ZM105.62 44.022c-2.7.24-2.22.48-2.4-.54 2.82-.54 2.34-.72 2.4.54ZM232.76 85.597c-2.82 0-2.4.18-2.4-.6 2.82 0 2.4-.24 2.4.6ZM122.24 44.32c-.18.9.6 2.28-1.2 2.34 0-2.82-.3-2.34 1.2-2.34ZM224.42 76.36c1.86 0 3.48 1.2 0 1.2v-1.2ZM245.6 169c-1.2-.72-1.08-.12-.54-2.16.9.54.84-.06.54 2.16ZM75.56 166.659c0 2.82.24 2.4-.6 2.4 0-2.82-.18-2.4.6-2.4ZM86.6 62.14c-1.8 1.38-1.26 1.5-2.4 0h2.4ZM223.22 57.343c0-1.86 1.2-3.48 1.2 0h-1.2ZM150.74 23.5c-1.02.54-.72.48-1.2 0 1.02-.48.72-.48 1.2 0ZM169.88 23.384c.9-.24.66-.48 1.08.72-.66 0-.42.12-1.08-.72ZM160.34 25.782c.9-.24.66-.48 1.08.72-.6 0-.42.12-1.08-.72ZM186.38 38.38c-1.44 0-1.2.3-1.2-1.2 1.44 0 1.2-.3 1.2 1.2ZM115.58 40.603c-.24-.9-.48-.6.72-1.08 0 .66.12.42-.72 1.08Z" fill="#13D7B7"/><path d="M122.24 44.321c.96-1.2.66-1.26 1.2 0h-1.2ZM106.58 46.24c-.3.36-.54.78-.78-.36 0-.12.24-.24.36-.42.16.28.3.54.42.78ZM194.84 49.547c.9-.24.66-.48 1.08.72-.66 0-.42.12-1.08-.72ZM223.04 50.986c-.3.36-.54.78-.78-.36 0-.06.24-.24.36-.36.16.24.3.48.42.72ZM93.68 52c-1.02.54-.66.48-1.14 0 1.02-.48.72-.48 1.14 0ZM99.74 54.282c.9-.24.66-.48 1.08.72-.66 0-.42.12-1.08-.72ZM113.18 54.885c-.24-.9-.48-.66.72-1.08 0 .66.18.42-.72 1.08ZM225.5 58.06c-.48.48-.18.54-1.08-.18.66-.66.42-.66 1.08.18ZM226.4 61.96c-.28-.16-.54-.3-.78-.42.12-.12.3-.42.36-.36 1.14.24.72.42.42.78ZM218.48 63.28c0 1.44.3 1.2-1.2 1.2 0-1.44-.3-1.2 1.2-1.2ZM89.42 65.564c-.24-.9-.48-.66.72-1.08 0 .66.12.42-.72 1.08ZM91.34 71.626c.96-1.2.66-1.26 1.2 0h-1.2ZM225.14 74.086c.42.48.48.24-.18 1.08-.66-.66-.66-.36.18-1.08Z" fill="#13D7B7"/><path d="M223.22 76.36c1.5-1.5 1.2-1.5 1.2 0h-1.2ZM78.26 79.36c-1.02.48-.72.48-1.2 0 1.02-.54.72-.48 1.2 0ZM230.18 79.18c-.12.24-.26.5-.42.78-.12-.18-.36-.3-.36-.42.24-1.14.48-.72.78-.36ZM71.24 81.642c.9-.3.66-.54 1.08.66-.66 0-.42.18-1.08-.66ZM70.94 85.48c-.3.3-.54.72-.78-.42 0-.06.24-.24.36-.36.16.24.3.5.42.78ZM67.04 87.16c.48.48.54.18-.12 1.08-.66-.66-.66-.42.12-1.08ZM231.44 92.502c-.42.48-.18.54-1.08-.18.66-.66.42-.66 1.08.18ZM60.62 98.2c.3-.36.54-.78.78.36 0 .12-.24.24-.36.36-.16-.24-.3-.48-.42-.72ZM59.06 100.901c-.3.36-.54.78-.78-.36 0-.12.24-.3.36-.42.16.28.3.54.42.78ZM260.84 102.699c.36.3.78.54-.36.78-.12 0-.3-.24-.42-.36.28-.16.54-.3.78-.42ZM251.06 109.537c-.3-.9-.54-.66.72-1.08 0 .66.12.42-.72 1.08ZM50.9 121.54c-1.14-.96-1.2-.72 0-1.2v1.2ZM41.42 123.88c.96-1.2.72-1.2 1.2 0h-1.2Z" fill="#13D7B7"/><path d="M42.62 123.879c1.5 1.5 1.5 1.2 0 1.2v-1.2ZM255.14 125.498c-.12.24-.26.5-.42.78-.12-.12-.36-.3-.36-.42.24-1.14.48-.66.78-.36ZM54.98 129.701c-.24-.9-.54-.6.72-1.08 0 .66.12.42-.72 1.08ZM51.68 129.996c.36.36.78.54-.36.78-.12.06-.24-.24-.42-.36.28-.12.54-.26.78-.42ZM58.52 130.896c-.24-.9-.48-.66.72-1.08 0 .66.12.42-.72 1.08ZM253.64 129.941c.48.48.54.18-.18 1.08-.66-.66-.66-.42.18-1.08ZM56.72 131.8c-.36.3-.54.779-.84-.36 0-.12.24-.3.42-.42.12.28.26.54.42.78ZM50.18 133.535l.72.48c-.12.12-.24.36-.36.36-1.14-.3-.72-.48-.36-.84ZM62.12 136.842c-.3-.9-.54-.66.66-1.08 0 .66.18.42-.66 1.08ZM56.3 136.957c.48 1.02.42.72 0 1.2-.54-1.02-.48-.72 0-1.2ZM248.96 149.02c.3.3.78.54-.36.78-.12 0-.3-.24-.42-.36.28-.16.54-.3.78-.42ZM56.72 150.457c-.16.24-.3.5-.42.78-.18-.18-.42-.3-.42-.42.3-1.14.48-.72.84-.36ZM250.76 150.457c.3-.36.54-.78.78.36 0 .12-.24.24-.36.42-.16-.28-.3-.54-.42-.78ZM246.5 151.301c.48.48.54.24-.18 1.08-.66-.66-.66-.42.18-1.08ZM58.64 152.379c.54 1.08.48.72 0 1.2-.48-1.02-.48-.72 0-1.2ZM61.64 152.981c-1.08.54-.72.48-1.2 0 1.02-.48.72-.48 1.2 0ZM65.3 157.662c.9-.3.66-.54 1.08.66-.66 0-.42.18-1.08-.66ZM251.6 158.74c-.16.28-.3.54-.42.78-.18-.12-.42-.3-.36-.36.24-1.14.42-.72.78-.42ZM67.58 159.521c1.44 0 1.14-.3 1.14 1.2-.36-.4-.74-.8-1.14-1.2ZM66.26 161.44c-.48.42-.18.48-1.08-.18.66-.66.42-.66 1.08.18ZM78.38 164.739c.9-.24.66-.48 1.08.72-.66 0-.42.18-1.08-.72ZM82.82 187.599c-.3.36-.54.78-.78-.36 0-.12.24-.24.36-.36.16.24.3.48.42.72ZM197.6 192.701c-.3-.9-.54-.66.66-1.08 0 .66.18.42-.66 1.08ZM137.18 202.418c.48.42.54.18-.18 1.08-.66-.66-.66-.42.18-1.08ZM111.08 204.816c.36.36.78.54-.36.84-.06 0-.24-.24-.36-.42.24-.12.48-.26.72-.42ZM189.26 208.115c-.24-.9-.48-.66.72-1.08 0 .66.12.42-.72 1.08ZM194.54 207.815c-.3.3-.54.78-.78-.36-.06-.12.24-.3.36-.42.16.28.3.54.42.78ZM207.62 207.815c-.36.3-.54.78-.78-.36-.06-.12.24-.3.36-.42.12.28.26.54.42.78ZM105.14 210.461c-.24-.16-.48-.3-.72-.42.12-.18.3-.42.36-.42 1.14.3.72.48.36.84ZM187.16 210.461c-.24-.16-.5-.3-.78-.42.12-.18.3-.42.42-.42 1.14.3.72.48.36.84ZM162.44 211.058c-.12.24-.26.48-.42.72-.12-.12-.36-.24-.36-.36.24-1.139.48-.719.78-.36ZM182.72 213.695c-.48.42-.18.54-1.08-.18.66-.66.36-.72 1.08.18ZM202.94 213.695c-.48.42-.18.54-1.08-.18.6-.66.36-.72 1.08.18ZM144.08 217.662c-.24-.9-.48-.66.72-1.08 0 .6.12.42-.72 1.08ZM144.2 218.918c.54 1.02.48.72 0 1.2-.48-1.02-.48-.72 0-1.2ZM86.78 173.199c-.78 2.7-.96 4.2-1.38 1.32 0-.18.42-.42 1.38-1.32ZM151.16 197.378c-.3-.36-.78-.54.36-.78.12-.06.3.24.42.36-.28.12-.54.26-.78.42Z" fill="#13D7B7"/><path d="M128.12 176.076c2.58 3.24 2.7 7.8 4.68 11.22 2.1 3.72 4.44 6.72 5.88 10.92 1.98 5.76 1.38 10.379.78 16.379-.36 3.66-2.04 11.7 3.42 11.82 5.22.18 2.82-6.42 3.48-9.84 1.38-6.6 13.26-21.599 21.12-19.859 10.38 2.28 6.36 24.959 8.22 33.059 2.34 10.08 3.66 22.079 1.62 32.099-.72 3.6-3.66 9.6-2.28 13.26 1.86 5.04 7.26 5.22 9.96 2.22 6.12-6.66 3.84-18.78 2.64-26.579-1.56-10.2-1.2-20.94.12-31.32 1.08-7.86 2.28-13.26 6.48-20.219 3.48-5.82 8.519-12.54 7.679-19.68-1.02-9-7.62-18.3-15.839-22.199-9.66-4.5-26.1-7.8-36.48-4.56-5.1 1.62-22.32 13.079-21.48 23.279Z" fill="#13D7B7"/></svg>