<svg width="570" height="696" viewBox="0 0 570 696" fill="none" xmlns="http://www.w3.org/2000/svg">
<g clip-path="url(#clip0_3421_105226)">
<g clip-path="url(#clip1_3421_105226)">
<path d="M87.8996 235.602H255.3C260.712 235.602 265.1 239.989 265.1 245.402V318.302C265.1 323.714 260.712 328.102 255.3 328.102H87.8996C82.4872 328.102 78.0996 323.714 78.0996 318.302V245.402C78.0996 239.989 82.4872 235.602 87.8996 235.602ZM87.8996 367.902H255.3C260.712 367.902 265.1 372.289 265.1 377.702V450.602C265.1 456.014 260.712 460.402 255.3 460.402H87.8996C82.4872 460.402 78.0996 456.014 78.0996 450.602V377.702C78.0996 372.289 82.4872 367.902 87.8996 367.902ZM314.7 235.602H482.1C487.512 235.602 491.9 239.989 491.9 245.402V318.302C491.9 323.714 487.512 328.102 482.1 328.102H314.7C309.287 328.102 304.9 323.714 304.9 318.302V245.402C304.9 239.989 309.287 235.602 314.7 235.602ZM314.7 367.902H482.1C487.512 367.902 491.9 372.289 491.9 377.702V450.602C491.9 456.014 487.512 460.402 482.1 460.402H314.7C309.287 460.402 304.9 456.014 304.9 450.602V377.702C304.9 372.289 309.287 367.902 314.7 367.902Z" stroke="white" stroke-width="2"/>
<path d="M303.31 290.712H302.129V283.624H267.872V290.712H266.691V275.355H267.872V282.443H302.129V275.355H303.31V290.712ZM303.31 423.012H302.129V415.924H267.872V423.012H266.691V407.655H267.872V414.743H302.129V407.655H303.31V423.012ZM165.104 366.312V365.13H172.191V330.874H165.104V329.693H180.46V330.874H173.372V365.13H180.46V366.312H165.104ZM391.904 366.312V365.13H398.991V330.874H391.904V329.693H407.26V330.874H400.172V365.13H407.26V366.312H391.904Z" stroke="#13D7B7" stroke-width="2"/>
</g>
</g>
<defs>
<clipPath id="clip0_3421_105226">
<rect width="570" height="696" fill="white"/>
</clipPath>
<clipPath id="clip1_3421_105226">
<rect width="415.8" height="226.8" fill="white" transform="translate(77.0996 234.602)"/>
</clipPath>
</defs>
</svg>
