<svg width="570" height="696" viewBox="0 0 570 696" fill="none" xmlns="http://www.w3.org/2000/svg">
<g clip-path="url(#clip0_3421_105234)">
<g clip-path="url(#clip1_3421_105234)">
<path d="M129.075 226.035H89.0938C84.6777 226.035 81.0977 229.615 81.0977 234.031V274.012C81.0977 278.428 84.6777 282.008 89.0938 282.008H129.075C133.491 282.008 137.071 278.428 137.071 274.012V234.031C137.071 229.615 133.491 226.035 129.075 226.035Z" fill="#13D7B7"/>
<path d="M124.7 241.445H121.971C121.589 241.445 121.225 241.621 120.991 241.922L104.893 262.314L97.1745 252.534C96.9363 252.233 96.5771 252.057 96.1945 252.057H93.4653C93.2037 252.057 93.0593 252.358 93.2193 252.561L103.913 266.109C104.413 266.742 105.374 266.742 105.877 266.109L124.946 241.945C125.106 241.746 124.962 241.445 124.7 241.445Z" fill="white" stroke="white" stroke-width="3.33173"/>
<path d="M183.853 227.035H482.099C487.511 227.035 491.899 231.423 491.899 236.835V271.208C491.899 276.621 487.511 281.008 482.099 281.008H183.853C178.44 281.008 174.053 276.621 174.053 271.208V236.835C174.053 231.423 178.44 227.035 183.853 227.035Z" stroke="#13D7B7" stroke-width="2"/>
<path d="M129.075 318.012H89.0938C84.6777 318.012 81.0977 321.592 81.0977 326.008V365.989C81.0977 370.405 84.6777 373.985 89.0938 373.985H129.075C133.491 373.985 137.071 370.405 137.071 365.989V326.008C137.071 321.592 133.491 318.012 129.075 318.012Z" stroke="white" stroke-width="2"/>
<path d="M183.855 319.012H482.101C487.513 319.012 491.901 323.399 491.901 328.812V363.185C491.901 368.597 487.513 372.985 482.101 372.985H183.855C178.442 372.985 174.055 368.597 174.055 363.185V328.812C174.055 323.399 178.442 319.012 183.855 319.012Z" stroke="white" stroke-width="2"/>
<path d="M129.075 409.984H89.0938C84.6777 409.984 81.0977 413.564 81.0977 417.981V457.961C81.0977 462.377 84.6777 465.957 89.0938 465.957H129.075C133.491 465.957 137.071 462.377 137.071 457.961V417.981C137.071 413.564 133.491 409.984 129.075 409.984Z" stroke="white" stroke-width="2"/>
<path d="M183.855 410.984H482.101C487.513 410.984 491.901 415.372 491.901 420.784V455.157C491.901 460.57 487.513 464.957 482.101 464.957H183.855C178.442 464.957 174.055 460.57 174.055 455.157V420.784C174.055 415.372 178.442 410.984 183.855 410.984Z" stroke="white" stroke-width="2"/>
</g>
</g>
<defs>
<clipPath id="clip0_3421_105234">
<rect width="570" height="696" fill="white"/>
</clipPath>
<clipPath id="clip1_3421_105234">
<rect width="415.8" height="299.856" fill="white" transform="translate(77.0996 198.07)"/>
</clipPath>
</defs>
</svg>
