<svg width="570" height="696" viewBox="0 0 570 696" fill="none" xmlns="http://www.w3.org/2000/svg">
<g clip-path="url(#clip0_3421_105266)">
<rect x="99.5996" y="274.004" width="3.6" height="28.8" rx="1.8" fill="#13D7B7"/>
<rect x="117.6" y="274.004" width="3.6" height="28.8" rx="1.8" fill="#13D7B7"/>
<rect x="135.6" y="274.004" width="3.6" height="28.8" rx="1.8" fill="#13D7B7"/>
<rect x="153.6" y="274.004" width="3.6" height="28.8" rx="1.8" fill="#13D7B7"/>
<rect x="171.6" y="274.004" width="3.6" height="28.8" rx="1.8" fill="#13D7B7"/>
<rect x="189.6" y="274.004" width="3.6" height="28.8" rx="1.8" fill="#13D7B7"/>
<rect x="207.6" y="274.004" width="3.6" height="28.8" rx="1.8" fill="#13D7B7"/>
<rect x="225.6" y="274.004" width="3.6" height="28.8" rx="1.8" fill="#13D7B7"/>
<rect x="243.6" y="274.004" width="3.6" height="28.8" rx="1.8" fill="#13D7B7"/>
<rect x="261.6" y="274.004" width="3.6" height="28.8" rx="1.8" fill="#13D7B7"/>
<rect x="279.6" y="274.004" width="3.6" height="28.8" rx="1.8" fill="#13D7B7"/>
<path fill-rule="evenodd" clip-rule="evenodd" d="M413.699 287.772C413.699 279.422 420.469 272.652 428.819 272.652H455.279C463.63 272.652 470.399 279.422 470.399 287.772V289.032C470.399 297.383 463.63 304.152 455.279 304.152H428.819C420.469 304.152 413.699 297.383 413.699 289.032V287.772Z" fill="#13D7B7"/>
<path fill-rule="evenodd" clip-rule="evenodd" d="M456.539 299.114C462.802 299.114 467.879 294.037 467.879 287.774C467.879 281.511 462.802 276.434 456.539 276.434C450.276 276.434 445.199 281.511 445.199 287.774C445.199 294.037 450.276 299.114 456.539 299.114Z" fill="white"/>
<path d="M96 249.801H474C483.389 249.801 491 257.412 491 266.801V310.001C491 319.39 483.389 327.001 474 327.001H96C86.6112 327.001 79 319.39 79 310.001V266.801C79 257.412 86.6112 249.801 96 249.801Z" stroke="white" stroke-width="2"/>
<rect x="99.5996" y="393.203" width="3.6" height="28.8" rx="1.8" fill="#13D7B7"/>
<rect x="117.6" y="393.203" width="3.6" height="28.8" rx="1.8" fill="#13D7B7"/>
<rect x="135.6" y="393.203" width="3.6" height="28.8" rx="1.8" fill="#13D7B7"/>
<rect x="153.6" y="393.203" width="3.6" height="28.8" rx="1.8" fill="#13D7B7"/>
<rect x="171.6" y="393.203" width="3.6" height="28.8" rx="1.8" fill="#13D7B7"/>
<rect x="189.6" y="393.203" width="3.6" height="28.8" rx="1.8" fill="#13D7B7"/>
<rect x="207.6" y="393.203" width="3.6" height="28.8" rx="1.8" fill="#13D7B7"/>
<rect x="225.6" y="393.203" width="3.6" height="28.8" rx="1.8" fill="#13D7B7"/>
<rect x="243.6" y="393.203" width="3.6" height="28.8" rx="1.8" fill="#13D7B7"/>
<rect x="261.6" y="393.203" width="3.6" height="28.8" rx="1.8" fill="#13D7B7"/>
<rect x="279.6" y="393.203" width="3.6" height="28.8" rx="1.8" fill="#13D7B7"/>
<path fill-rule="evenodd" clip-rule="evenodd" d="M413.699 406.972C413.699 398.621 420.469 391.852 428.819 391.852H455.279C463.63 391.852 470.399 398.621 470.399 406.972V408.232C470.399 416.582 463.63 423.352 455.279 423.352H428.819C420.469 423.352 413.699 416.582 413.699 408.232V406.972Z" fill="#13D7B7" fill-opacity="0.2"/>
<path fill-rule="evenodd" clip-rule="evenodd" d="M427.559 418.313C433.822 418.313 438.899 413.236 438.899 406.973C438.899 400.71 433.822 395.633 427.559 395.633C421.296 395.633 416.219 400.71 416.219 406.973C416.219 413.236 421.296 418.313 427.559 418.313Z" fill="#13D7B7"/>
<path d="M96 369H474C483.389 369 491 376.611 491 386V429.2C491 438.589 483.389 446.2 474 446.2H96C86.6112 446.2 79 438.589 79 429.2V386C79 376.611 86.6112 369 96 369Z" stroke="white" stroke-width="2"/>
</g>
<defs>
<clipPath id="clip0_3421_105266">
<rect width="570" height="696" fill="white"/>
</clipPath>
</defs>
</svg>
