<svg width="570" height="696" viewBox="0 0 570 696" fill="none" xmlns="http://www.w3.org/2000/svg">
<g clip-path="url(#clip0_3421_105209)">
<g clip-path="url(#clip1_3421_105209)">
<path d="M97.5297 211.137H469.44C480.817 211.137 490.04 220.36 490.04 231.737V461.237C490.04 472.614 480.817 481.837 469.44 481.837H97.5297C86.1526 481.837 76.9297 472.614 76.9297 461.237V231.737C76.9297 220.36 86.1526 211.137 97.5297 211.137Z" stroke="white" stroke-width="2"/>
<path d="M512.249 246.496H57.749V249.526H512.249V246.496Z" fill="#13D7B7"/>
<path d="M116.834 505.561L116.834 190.441H113.804L113.804 505.561H116.834Z" fill="#13D7B7"/>
<path d="M456.193 505.561V190.441H453.163V505.561H456.193Z" fill="#13D7B7"/>
<path d="M512.249 443.445H57.749V446.475H512.249V443.445Z" fill="#13D7B7"/>
<path d="M171.336 305.746H185.153L226.022 409.59H213.078L202.024 380.502H154.32L143.266 409.59H130.468L171.336 305.746ZM158.101 370.466H198.243L178.608 318.544H178.027L158.101 370.466ZM267.796 332.361C278.559 332.361 286.412 335.125 291.648 340.797C296.011 345.742 298.339 352.577 298.339 361.304V409.59H287.431V396.937C284.522 401.009 280.595 404.354 275.941 406.972C270.414 410.026 264.16 411.626 257.179 411.626C249.616 411.626 243.653 409.735 239.144 405.954C234.49 402.027 232.163 396.937 232.163 390.828C232.163 382.247 235.508 375.848 242.49 371.485C248.598 367.412 257.324 365.231 268.669 365.085L286.703 364.794V360.867C286.703 348.214 280.159 341.96 267.069 341.96C261.542 341.96 257.034 342.978 253.543 345.305C249.616 347.632 247.144 351.268 245.98 356.068L234.49 355.195C236.09 347.342 240.017 341.378 246.126 337.597C251.652 334.106 258.779 332.361 267.796 332.361ZM286.703 373.521L269.396 373.812C252.525 374.102 244.089 379.629 244.089 390.537C244.089 394.028 245.398 396.791 248.307 399.118C251.216 401.3 254.997 402.463 259.651 402.463C266.778 402.463 273.032 400.136 278.559 395.482C283.94 390.974 286.703 385.738 286.703 379.92V373.521Z" fill="#13D7B7"/>
<path opacity="0.2" d="M430.439 285.887H218.339V304.067H430.439V285.887Z" fill="#13D7B7"/>
<path opacity="0.2" d="M430.439 319.219H321.359V337.399H430.439V319.219Z" fill="#13D7B7"/>
<path opacity="0.2" d="M430.439 349.516H321.359V367.696H430.439V349.516Z" fill="#13D7B7"/>
<path opacity="0.2" d="M430.439 382.844H321.359V401.024H430.439V382.844Z" fill="#13D7B7"/>
</g>
</g>
<defs>
<clipPath id="clip0_3421_105209">
<rect width="570" height="696" fill="white"/>
</clipPath>
<clipPath id="clip1_3421_105209">
<rect width="454.5" height="315.12" fill="white" transform="translate(57.75 190.441)"/>
</clipPath>
</defs>
</svg>
