<svg width="570" height="696" viewBox="0 0 570 696" fill="none" xmlns="http://www.w3.org/2000/svg">
<g clip-path="url(#clip0_3421_105314)">
<path d="M285.645 271.676H128.6C126.612 271.676 125 273.288 125 275.276V291.879C125 293.868 126.612 295.479 128.6 295.479H285.645C287.633 295.479 289.245 293.868 289.245 291.879V275.276C289.245 273.288 287.633 271.676 285.645 271.676Z" fill="#13D7B7"/>
<path opacity="0.2" d="M451.87 315.48H129C126.791 315.48 125 317.271 125 319.48V325.763C125 327.972 126.791 329.763 129 329.763H451.87C454.08 329.763 455.87 327.972 455.87 325.763V319.48C455.87 317.271 454.08 315.48 451.87 315.48Z" fill="#13D7B7"/>
<path opacity="0.2" d="M451.87 349.762H129C126.791 349.762 125 351.553 125 353.762V360.044C125 362.253 126.791 364.044 129 364.044H451.87C454.08 364.044 455.87 362.253 455.87 360.044V353.762C455.87 351.553 454.08 349.762 451.87 349.762Z" fill="#13D7B7"/>
<path opacity="0.2" d="M451.87 384.043H129C126.791 384.043 125 385.834 125 388.043V394.325C125 396.534 126.791 398.325 129 398.325H451.87C454.08 398.325 455.87 396.534 455.87 394.325V388.043C455.87 385.834 454.08 384.043 451.87 384.043Z" fill="#13D7B7"/>
<path d="M133.515 419H133.385L133.261 419.033C130.339 419.8 127.149 421.379 123.358 424.558L98.9225 445.052C96.9729 446.687 94 445.3 94 442.749V262C94 255.925 98.9249 251 105 251H465C471.075 251 476 255.925 476 262V408C476 414.075 471.075 419 465 419H133.515Z" stroke="white" stroke-width="2"/>
</g>
<defs>
<clipPath id="clip0_3421_105314">
<rect width="570" height="696" fill="white"/>
</clipPath>
</defs>
</svg>
