<svg width="570" height="696" viewBox="0 0 570 696" fill="none" xmlns="http://www.w3.org/2000/svg">
<g clip-path="url(#clip0_3221_135968)">
<g clip-path="url(#clip1_3221_135968)">
<path d="M81.5996 234.629C81.5996 233.122 83.1133 231.9 84.964 231.9H485.035C486.893 231.9 488.4 233.122 488.4 234.629V461.372C488.4 462.879 486.886 464.1 485.035 464.1H84.964C83.1059 464.1 81.5996 462.879 81.5996 461.372V234.629Z" fill="white"/>
<path opacity="0.2" d="M300.474 406.988H119.566V421.27H300.474V406.988Z" fill="#BA1945"/>
<path opacity="0.2" d="M450.437 373.664H119.566V387.946H450.437V373.664Z" fill="#BA1945"/>
<path opacity="0.2" d="M450.437 340.34H119.566V354.622H450.437V340.34Z" fill="#BA1945"/>
<path d="M282.592 267.885H125.547C123.559 267.885 121.947 269.497 121.947 271.485V288.088C121.947 290.077 123.559 291.688 125.547 291.688H282.592C284.581 291.688 286.192 290.077 286.192 288.088V271.485C286.192 269.497 284.581 267.885 282.592 267.885Z" fill="#BA1945"/>
<path d="M443.295 267.885H402.829C398.885 267.885 395.688 271.082 395.688 275.026V284.547C395.688 288.491 398.885 291.688 402.829 291.688H443.295C447.239 291.688 450.436 288.491 450.436 284.547V275.026C450.436 271.082 447.239 267.885 443.295 267.885Z" fill="#6E0327"/>
</g>
<rect x="82.0496" y="232.35" width="405.9" height="231.3" rx="21.15" stroke="#C0C8DB" stroke-width="0.9"/>
</g>
<defs>
<clipPath id="clip0_3221_135968">
<rect width="570" height="696" fill="white"/>
</clipPath>
<clipPath id="clip1_3221_135968">
<rect x="81.5996" y="231.9" width="406.8" height="232.2" rx="21.6" fill="white"/>
</clipPath>
</defs>
</svg>
