<svg width="570" height="696" viewBox="0 0 570 696" fill="none" xmlns="http://www.w3.org/2000/svg">
<g clip-path="url(#clip0_3220_135876)">
<g clip-path="url(#clip1_3220_135876)">
<path d="M87.8996 235.052H255.3C261.016 235.052 265.65 239.685 265.65 245.402V318.302C265.65 324.018 261.016 328.652 255.3 328.652H87.8996C82.1835 328.652 77.5496 324.018 77.5496 318.302V245.402C77.5496 239.685 82.1835 235.052 87.8996 235.052ZM87.8996 367.352H255.3C261.016 367.352 265.65 371.985 265.65 377.702V450.602C265.65 456.318 261.016 460.952 255.3 460.952H87.8996C82.1835 460.952 77.5496 456.318 77.5496 450.602V377.702C77.5496 371.985 82.1835 367.352 87.8996 367.352ZM314.7 235.052H482.1C487.816 235.052 492.45 239.685 492.45 245.402V318.302C492.45 324.018 487.816 328.652 482.1 328.652H314.7C308.983 328.652 304.35 324.018 304.35 318.302V245.402C304.35 239.685 308.983 235.052 314.7 235.052ZM314.7 367.352H482.1C487.816 367.352 492.45 371.985 492.45 377.702V450.602C492.45 456.318 487.816 460.952 482.1 460.952H314.7C308.983 460.952 304.35 456.318 304.35 450.602V377.702C304.35 371.985 308.983 367.352 314.7 367.352Z" fill="white" stroke="#C0C8DB" stroke-width="0.9"/>
<path opacity="0.5" d="M303.31 290.712H302.129V283.624H267.872V290.712H266.691V275.355H267.872V282.443H302.129V275.355H303.31V290.712ZM303.31 423.012H302.129V415.924H267.872V423.012H266.691V407.655H267.872V414.743H302.129V407.655H303.31V423.012ZM165.104 366.312V365.13H172.191V330.874H165.104V329.693H180.46V330.874H173.372V365.13H180.46V366.312H165.104ZM391.904 366.312V365.13H398.991V330.874H391.904V329.693H407.26V330.874H400.172V365.13H407.26V366.312H391.904Z" fill="white" stroke="white" stroke-width="1.35"/>
</g>
</g>
<defs>
<clipPath id="clip0_3220_135876">
<rect width="570" height="696" fill="white"/>
</clipPath>
<clipPath id="clip1_3220_135876">
<rect width="415.8" height="226.8" fill="white" transform="translate(77.0996 234.6)"/>
</clipPath>
</defs>
</svg>
