<svg width="570" height="696" viewBox="0 0 570 696" fill="none" xmlns="http://www.w3.org/2000/svg">
<g clip-path="url(#clip0_3214_135538)">
<g clip-path="url(#clip1_3214_135538)">
<path d="M97.5297 210.585H469.44C481.121 210.585 490.59 220.054 490.59 231.735V461.235C490.59 472.916 481.121 482.385 469.44 482.385H97.5297C85.8489 482.385 76.3797 472.916 76.3797 461.235V231.735C76.3797 220.054 85.8489 210.585 97.5297 210.585Z" fill="white" stroke="#C0C8DB" stroke-width="0.9"/>
<path opacity="0.2" d="M512.249 246.494H57.749V249.524H512.249V246.494Z" fill="#BA1945"/>
<path opacity="0.2" d="M116.834 505.559L116.834 190.439H113.804L113.804 505.559H116.834Z" fill="#BA1945"/>
<path opacity="0.2" d="M456.193 505.559V190.439H453.163V505.559H456.193Z" fill="#BA1945"/>
<path opacity="0.2" d="M512.249 443.443H57.749V446.473H512.249V443.443Z" fill="#BA1945"/>
<path d="M171.336 305.742H185.153L226.022 409.586H213.078L202.024 380.498H154.32L143.266 409.586H130.468L171.336 305.742ZM158.101 370.463H198.243L178.608 318.54H178.027L158.101 370.463ZM267.796 332.357C278.559 332.357 286.412 335.121 291.648 340.793C296.011 345.738 298.339 352.573 298.339 361.3V409.586H287.431V396.933C284.522 401.005 280.595 404.35 275.941 406.968C270.414 410.022 264.16 411.622 257.179 411.622C249.616 411.622 243.653 409.731 239.144 405.95C234.49 402.023 232.163 396.933 232.163 390.824C232.163 382.243 235.508 375.844 242.49 371.481C248.598 367.408 257.324 365.227 268.669 365.081L286.703 364.79V360.864C286.703 348.21 280.159 341.956 267.069 341.956C261.542 341.956 257.034 342.974 253.543 345.301C249.616 347.628 247.144 351.264 245.98 356.064L234.49 355.191C236.09 347.338 240.017 341.375 246.126 337.593C251.652 334.103 258.779 332.357 267.796 332.357ZM286.703 373.517L269.396 373.808C252.525 374.099 244.089 379.625 244.089 390.533C244.089 394.024 245.398 396.787 248.307 399.114C251.216 401.296 254.997 402.459 259.651 402.459C266.778 402.459 273.032 400.132 278.559 395.478C283.94 390.97 286.703 385.734 286.703 379.916V373.517Z" fill="#BA1945"/>
<g style="mix-blend-mode:multiply" opacity="0.2">
<path d="M430.439 285.885H218.339V304.065H430.439V285.885Z" fill="#BA1945"/>
</g>
<g style="mix-blend-mode:multiply" opacity="0.2">
<path d="M430.439 319.215H321.359V337.395H430.439V319.215Z" fill="#BA1945"/>
</g>
<g style="mix-blend-mode:multiply" opacity="0.2">
<path d="M430.439 349.514H321.359V367.694H430.439V349.514Z" fill="#BA1945"/>
</g>
<g style="mix-blend-mode:multiply" opacity="0.2">
<path d="M430.439 382.844H321.359V401.024H430.439V382.844Z" fill="#BA1945"/>
</g>
</g>
</g>
<defs>
<clipPath id="clip0_3214_135538">
<rect width="570" height="696" fill="white"/>
</clipPath>
<clipPath id="clip1_3214_135538">
<rect width="454.5" height="315.12" fill="white" transform="translate(57.75 190.439)"/>
</clipPath>
</defs>
</svg>
