<svg width="570" height="696" viewBox="0 0 570 696" fill="none" xmlns="http://www.w3.org/2000/svg">
<g clip-path="url(#clip0_3220_135923)">
<g clip-path="url(#clip1_3220_135923)">
<path d="M129.075 226.041H89.0938C84.6777 226.041 81.0977 229.621 81.0977 234.037V274.018C81.0977 278.434 84.6777 282.014 89.0938 282.014H129.075C133.491 282.014 137.071 278.434 137.071 274.018V234.037C137.071 229.621 133.491 226.041 129.075 226.041Z" fill="#BA1945"/>
<path d="M124.7 241.451H121.971C121.589 241.451 121.225 241.627 120.991 241.928L104.893 262.32L97.1745 252.54C96.9363 252.239 96.5771 252.063 96.1945 252.063H93.4653C93.2037 252.063 93.0593 252.364 93.2193 252.567L103.913 266.115C104.413 266.748 105.374 266.748 105.877 266.115L124.946 241.951C125.106 241.752 124.962 241.451 124.7 241.451Z" fill="white" stroke="white" stroke-width="3.33173"/>
<path d="M183.853 226.489H482.099C487.815 226.489 492.449 231.123 492.449 236.839V271.212C492.449 276.928 487.815 281.562 482.099 281.562H183.853C178.137 281.562 173.503 276.928 173.503 271.212V236.839C173.503 231.123 178.137 226.489 183.853 226.489Z" fill="white" stroke="#C0C8DB" stroke-width="0.9"/>
<path d="M129.075 318.014H89.0938C84.6777 318.014 81.0977 321.594 81.0977 326.01V365.991C81.0977 370.407 84.6777 373.987 89.0938 373.987H129.075C133.491 373.987 137.071 370.407 137.071 365.991V326.01C137.071 321.594 133.491 318.014 129.075 318.014Z" stroke="#BA1945" stroke-width="3.99808"/>
<path d="M183.855 318.466H482.101C487.817 318.466 492.451 323.099 492.451 328.816V363.189C492.451 368.905 487.817 373.539 482.101 373.539H183.855C178.139 373.539 173.505 368.905 173.505 363.189V328.816C173.505 323.099 178.139 318.466 183.855 318.466Z" fill="white" stroke="#C0C8DB" stroke-width="0.9"/>
<path d="M129.075 409.988H89.0938C84.6777 409.988 81.0977 413.568 81.0977 417.984V457.965C81.0977 462.381 84.6777 465.961 89.0938 465.961H129.075C133.491 465.961 137.071 462.381 137.071 457.965V417.984C137.071 413.568 133.491 409.988 129.075 409.988Z" stroke="#BA1945" stroke-width="3.99808"/>
<path d="M183.855 410.438H482.101C487.817 410.438 492.451 415.072 492.451 420.788V455.161C492.451 460.877 487.817 465.511 482.101 465.511H183.855C178.139 465.511 173.505 460.878 173.505 455.161V420.788C173.505 415.072 178.139 410.438 183.855 410.438Z" fill="white" stroke="#C0C8DB" stroke-width="0.9"/>
</g>
</g>
<defs>
<clipPath id="clip0_3220_135923">
<rect width="570" height="696" fill="white"/>
</clipPath>
<clipPath id="clip1_3220_135923">
<rect width="415.8" height="299.856" fill="white" transform="translate(77.0996 198.072)"/>
</clipPath>
</defs>
</svg>
