<svg width="570" height="696" viewBox="0 0 570 696" fill="none" xmlns="http://www.w3.org/2000/svg">
<g clip-path="url(#clip0_3220_135795)">
<rect x="78" y="243.6" width="86.4" height="86.4" rx="21.6" fill="#BA1945"/>
<rect x="103.2" y="304.799" width="36" height="3.6" rx="1.8" transform="rotate(-90 103.2 304.799)" fill="white"/>
<rect x="119.4" y="304.799" width="36" height="3.6" rx="1.8" transform="rotate(-90 119.4 304.799)" fill="white"/>
<rect x="135.601" y="304.799" width="36" height="3.6" rx="1.8" transform="rotate(-90 135.601 304.799)" fill="white"/>
<rect x="200.4" y="243.6" width="291.6" height="86.4" rx="21.6" fill="#BA1945"/>
<rect x="254.4" y="265.199" width="3.6" height="43.2" rx="1.8" fill="white"/>
<rect x="272.4" y="265.199" width="3.6" height="43.2" rx="1.8" fill="white"/>
<rect x="290.4" y="265.199" width="3.6" height="43.2" rx="1.8" fill="white"/>
<rect x="308.4" y="265.199" width="3.6" height="43.2" rx="1.8" fill="white"/>
<rect x="326.4" y="265.199" width="3.6" height="43.2" rx="1.8" fill="white"/>
<rect x="344.4" y="265.199" width="3.6" height="43.2" rx="1.8" fill="white"/>
<rect x="362.4" y="265.199" width="3.6" height="43.2" rx="1.8" fill="white"/>
<rect x="380.4" y="265.199" width="3.6" height="43.2" rx="1.8" fill="white"/>
<rect x="398.4" y="265.199" width="3.6" height="43.2" rx="1.8" fill="white"/>
<rect x="416.4" y="265.199" width="3.6" height="43.2" rx="1.8" fill="white"/>
<rect x="434.4" y="265.199" width="3.6" height="43.2" rx="1.8" fill="white"/>
<rect x="78.45" y="366.45" width="290.7" height="85.5" rx="21.15" fill="white"/>
<rect x="132" y="387.6" width="3.6" height="43.2" rx="1.8" fill="#BA1945"/>
<rect x="150" y="387.6" width="3.6" height="43.2" rx="1.8" fill="#BA1945"/>
<rect x="168" y="387.6" width="3.6" height="43.2" rx="1.8" fill="#BA1945"/>
<rect x="186" y="387.6" width="3.6" height="43.2" rx="1.8" fill="#BA1945"/>
<rect x="204" y="387.6" width="3.6" height="43.2" rx="1.8" fill="#BA1945"/>
<rect x="222" y="387.6" width="3.6" height="43.2" rx="1.8" fill="#BA1945"/>
<rect x="240" y="387.6" width="3.6" height="43.2" rx="1.8" fill="#BA1945"/>
<rect x="258" y="387.6" width="3.6" height="43.2" rx="1.8" fill="#BA1945"/>
<rect x="276" y="387.6" width="3.6" height="43.2" rx="1.8" fill="#BA1945"/>
<rect x="294" y="387.6" width="3.6" height="43.2" rx="1.8" fill="#BA1945"/>
<rect x="312" y="387.6" width="3.6" height="43.2" rx="1.8" fill="#BA1945"/>
<rect x="78.45" y="366.45" width="290.7" height="85.5" rx="21.15" stroke="#E8EEF4" stroke-width="0.9"/>
<rect x="405.6" y="366" width="86.4" height="86.4" rx="21.6" fill="white"/>
<rect x="430.8" y="427.199" width="36" height="3.6" rx="1.8" transform="rotate(-90 430.8 427.199)" fill="#BA1945"/>
<rect x="447" y="427.199" width="36" height="3.6" rx="1.8" transform="rotate(-90 447 427.199)" fill="#BA1945"/>
<rect x="463.2" y="427.199" width="36" height="3.6" rx="1.8" transform="rotate(-90 463.2 427.199)" fill="#BA1945"/>
</g>
<defs>
<clipPath id="clip0_3220_135795">
<rect width="570" height="696" fill="white"/>
</clipPath>
</defs>
</svg>
