<svg width="300" height="300" viewBox="0 0 300 300" fill="none" xmlns="http://www.w3.org/2000/svg">
<path d="M153.484 75.2848L78.1687 230.047L204.509 136.564L226.089 61.7557L153.484 75.2848Z" fill="#89FF00"/>
<path d="M158.852 83.2969L73.8635 238.59L200.257 145.159L221.783 70.3514L158.852 83.2969Z" fill="#6D1FD6"/>
<path d="M221.783 70.3514L169.483 113.22L73.8635 238.59L200.257 145.159L221.783 70.3514Z" fill="url(#paint0_linear_8_82846)"/>
<path d="M73.8635 238.59L158.852 83.2969L221.783 70.3514L170.28 88.6024L169.483 113.22L158.108 97.8871L73.8635 238.59Z" fill="#873BFF"/>
<path opacity="0.33" d="M169.483 113.22L177.562 138.103L200.257 145.159L73.8635 238.59L161.351 149.669L169.483 113.22Z" fill="url(#paint1_linear_8_82846)"/>
<path d="M125.605 110.021C126.642 105.43 123.755 100.869 119.155 99.8332C114.556 98.7977 109.986 101.68 108.949 106.271C107.912 110.862 110.799 115.424 115.399 116.459C119.998 117.495 124.568 114.612 125.605 110.021Z" fill="url(#paint2_radial_8_82846)" style="mix-blend-mode:screen"/>
<path d="M119.623 108.167C119.623 108.625 119.487 109.073 119.232 109.453C118.977 109.834 118.615 110.131 118.191 110.306C117.767 110.481 117.301 110.527 116.851 110.437C116.401 110.348 115.988 110.128 115.664 109.804C115.34 109.48 115.119 109.068 115.029 108.619C114.94 108.17 114.986 107.704 115.161 107.281C115.337 106.858 115.634 106.497 116.015 106.242C116.397 105.988 116.845 105.852 117.304 105.852C117.919 105.852 118.508 106.096 118.943 106.53C119.378 106.964 119.623 107.553 119.623 108.167Z" fill="#89FF00"/>
<path d="M89.3357 147.343C90.6324 141.604 87.0229 135.902 81.2736 134.608C75.5244 133.313 69.8125 136.916 68.5157 142.655C67.219 148.394 70.8286 154.096 76.5778 155.39C82.3271 156.685 88.039 153.082 89.3357 147.343Z" fill="url(#paint3_radial_8_82846)" style="mix-blend-mode:screen"/>
<path d="M81.8576 145.025C81.8576 145.597 81.6876 146.157 81.3691 146.633C81.0506 147.108 80.5979 147.479 80.0682 147.698C79.5385 147.917 78.9557 147.975 78.3934 147.863C77.8311 147.751 77.3146 147.476 76.9092 147.071C76.5038 146.666 76.2277 146.151 76.1159 145.59C76.004 145.028 76.0614 144.446 76.2808 143.918C76.5002 143.389 76.8718 142.937 77.3485 142.619C77.8252 142.301 78.3856 142.132 78.9589 142.132C79.7277 142.132 80.465 142.436 81.0086 142.979C81.5522 143.522 81.8576 144.258 81.8576 145.025Z" fill="#89FF00"/>
<path d="M210.168 199.079C211.465 193.34 207.855 187.638 202.106 186.344C196.357 185.049 190.645 188.652 189.348 194.391C188.051 200.13 191.661 205.832 197.41 207.126C203.159 208.421 208.871 204.817 210.168 199.079Z" fill="url(#paint4_radial_8_82846)" style="mix-blend-mode:screen"/>
<path d="M202.69 196.761C202.69 197.333 202.52 197.893 202.201 198.369C201.883 198.844 201.43 199.215 200.9 199.434C200.371 199.653 199.788 199.711 199.226 199.599C198.663 199.487 198.147 199.212 197.741 198.807C197.336 198.402 197.06 197.887 196.948 197.325C196.836 196.764 196.894 196.182 197.113 195.654C197.332 195.125 197.704 194.673 198.181 194.355C198.657 194.037 199.218 193.867 199.791 193.867C200.56 193.867 201.297 194.172 201.841 194.715C202.384 195.258 202.69 195.994 202.69 196.761Z" fill="#89FF00"/>
<path d="M43.1551 109.079C44.4518 103.34 40.8423 97.6381 35.093 96.3437C29.3437 95.0493 23.6318 98.6523 22.3351 104.391C21.0384 110.13 24.6479 115.832 30.3972 117.126C36.1464 118.421 41.8584 114.817 43.1551 109.079Z" fill="url(#paint5_radial_8_82846)" style="mix-blend-mode:screen"/>
<path d="M35.677 106.761C35.677 107.333 35.5069 107.893 35.1884 108.369C34.8699 108.844 34.4172 109.215 33.8875 109.434C33.3579 109.653 32.775 109.711 32.2127 109.599C31.6504 109.487 31.1339 109.212 30.7285 108.807C30.3231 108.402 30.0471 107.887 29.9352 107.326C29.8234 106.764 29.8808 106.182 30.1002 105.654C30.3196 105.125 30.6911 104.673 31.1678 104.355C31.6445 104.037 32.2049 103.868 32.7782 103.868C33.547 103.868 34.2843 104.172 34.8279 104.715C35.3716 105.258 35.677 105.994 35.677 106.761Z" fill="#89FF00"/>
<path d="M273.168 163.079C274.465 157.34 270.855 151.638 265.106 150.344C259.357 149.049 253.645 152.652 252.348 158.391C251.051 164.13 254.661 169.832 260.41 171.126C266.159 172.421 271.871 168.817 273.168 163.079Z" fill="url(#paint6_radial_8_82846)" style="mix-blend-mode:screen"/>
<path d="M265.69 160.761C265.69 161.333 265.52 161.893 265.201 162.369C264.883 162.844 264.43 163.215 263.9 163.434C263.371 163.653 262.788 163.711 262.226 163.599C261.663 163.487 261.147 163.212 260.741 162.807C260.336 162.402 260.06 161.887 259.948 161.325C259.836 160.764 259.894 160.182 260.113 159.654C260.332 159.125 260.704 158.673 261.181 158.355C261.657 158.037 262.218 157.867 262.791 157.867C263.56 157.867 264.297 158.172 264.841 158.715C265.384 159.258 265.69 159.994 265.69 160.761Z" fill="#89FF00"/>
<path d="M32.6723 167.282C33.3206 164.412 31.5159 161.562 28.6413 160.914C25.7666 160.267 22.9107 162.069 22.2623 164.938C21.614 167.808 23.4187 170.658 26.2934 171.306C29.168 171.953 32.0239 170.151 32.6723 167.282Z" fill="url(#paint7_radial_8_82846)" style="mix-blend-mode:screen"/>
<path d="M28.9333 166.123C28.9333 166.409 28.8482 166.689 28.689 166.927C28.5297 167.165 28.3034 167.35 28.0386 167.46C27.7737 167.569 27.4823 167.598 27.2011 167.542C26.92 167.486 26.6617 167.348 26.459 167.146C26.2564 166.944 26.1183 166.686 26.0624 166.405C26.0065 166.125 26.0352 165.834 26.1449 165.569C26.2546 165.305 26.4403 165.079 26.6787 164.92C26.917 164.761 27.1972 164.676 27.4839 164.676C27.8683 164.676 28.2369 164.829 28.5088 165.1C28.7806 165.371 28.9333 165.739 28.9333 166.123Z" fill="#89FF00"/>
<path d="M95.2267 123.782C95.7454 121.486 94.3016 119.205 92.0019 118.688C89.7022 118.17 87.4174 119.611 86.8988 121.907C86.3801 124.202 87.8239 126.483 90.1236 127.001C92.4233 127.518 94.708 126.077 95.2267 123.782Z" fill="url(#paint8_radial_8_82846)" style="mix-blend-mode:screen"/>
<path d="M92.2355 122.854C92.2355 123.083 92.1675 123.307 92.0401 123.497C91.9127 123.688 91.7316 123.836 91.5197 123.924C91.3078 124.011 91.0747 124.034 90.8498 123.99C90.6249 123.945 90.4183 123.835 90.2561 123.673C90.0939 123.511 89.9835 123.305 89.9388 123.08C89.894 122.856 89.917 122.623 90.0048 122.412C90.0925 122.2 90.2411 122.019 90.4318 121.892C90.6225 121.765 90.8467 121.697 91.076 121.697C91.3835 121.697 91.6784 121.819 91.8959 122.036C92.1133 122.253 92.2355 122.548 92.2355 122.854Z" fill="#89FF00"/>
<path d="M76.2671 174.031C76.7858 171.736 75.342 169.455 73.0423 168.937C70.7426 168.42 68.4578 169.861 67.9392 172.157C67.4205 174.452 68.8643 176.733 71.164 177.25C73.4637 177.768 75.7485 176.327 76.2671 174.031Z" fill="url(#paint9_radial_8_82846)" style="mix-blend-mode:screen"/>
<path d="M73.2759 173.104C73.2759 173.333 73.2079 173.557 73.0805 173.747C72.9531 173.938 72.772 174.086 72.5601 174.174C72.3482 174.261 72.1151 174.284 71.8902 174.24C71.6653 174.195 71.4587 174.085 71.2965 173.923C71.1344 173.761 71.0239 173.555 70.9792 173.33C70.9345 173.106 70.9574 172.873 71.0452 172.661C71.1329 172.45 71.2815 172.269 71.4722 172.142C71.6629 172.015 71.8871 171.947 72.1164 171.947C72.4239 171.947 72.7188 172.069 72.9363 172.286C73.1537 172.503 73.2759 172.797 73.2759 173.104Z" fill="#89FF00"/>
<path d="M78.7182 98.3352C78.9775 97.1874 78.2556 96.0471 77.1058 95.7882C75.9559 95.5293 74.8135 96.2499 74.5542 97.3977C74.2948 98.5455 75.0167 99.6858 76.1666 99.9447C77.3165 100.204 78.4588 99.483 78.7182 98.3352Z" fill="url(#paint10_radial_8_82846)" style="mix-blend-mode:screen"/>
<path d="M77.2226 97.8717C77.2226 97.9861 77.1886 98.098 77.1249 98.1932C77.0612 98.2883 76.9707 98.3625 76.8647 98.4063C76.7588 98.4501 76.6422 98.4616 76.5298 98.4392C76.4173 98.4169 76.314 98.3618 76.2329 98.2809C76.1518 98.1999 76.0966 98.0968 76.0743 97.9846C76.0519 97.8723 76.0634 97.756 76.1072 97.6502C76.1511 97.5445 76.2254 97.4541 76.3208 97.3905C76.4161 97.3269 76.5282 97.293 76.6429 97.293C76.7966 97.293 76.9441 97.3539 77.0528 97.4625C77.1615 97.571 77.2226 97.7182 77.2226 97.8717Z" fill="#89FF00"/>
<path d="M212.634 163.016C212.893 161.868 212.171 160.728 211.021 160.469C209.871 160.21 208.729 160.93 208.47 162.078C208.21 163.226 208.932 164.366 210.082 164.625C211.232 164.884 212.374 164.163 212.634 163.016Z" fill="url(#paint11_radial_8_82846)" style="mix-blend-mode:screen"/>
<path d="M211.138 162.552C211.138 162.667 211.104 162.779 211.04 162.874C210.977 162.969 210.886 163.043 210.78 163.087C210.674 163.131 210.558 163.142 210.445 163.12C210.333 163.097 210.229 163.042 210.148 162.961C210.067 162.88 210.012 162.777 209.99 162.665C209.967 162.553 209.979 162.436 210.023 162.331C210.067 162.225 210.141 162.135 210.236 162.071C210.332 162.007 210.444 161.974 210.558 161.974C210.712 161.974 210.859 162.034 210.968 162.143C211.077 162.252 211.138 162.399 211.138 162.552Z" fill="#89FF00"/>
<path d="M237.634 98.3352C237.893 97.1874 237.171 96.0471 236.021 95.7882C234.871 95.5293 233.729 96.2499 233.47 97.3977C233.21 98.5455 233.932 99.6858 235.082 99.9447C236.232 100.204 237.374 99.483 237.634 98.3352Z" fill="url(#paint12_radial_8_82846)" style="mix-blend-mode:screen"/>
<path d="M236.138 97.8717C236.138 97.9861 236.104 98.098 236.04 98.1932C235.977 98.2883 235.886 98.3625 235.78 98.4063C235.674 98.4501 235.558 98.4616 235.445 98.4392C235.333 98.4169 235.229 98.3618 235.148 98.2809C235.067 98.1999 235.012 98.0968 234.99 97.9846C234.967 97.8723 234.979 97.756 235.023 97.6502C235.067 97.5445 235.141 97.4541 235.236 97.3905C235.332 97.3269 235.444 97.293 235.558 97.293C235.712 97.293 235.859 97.3539 235.968 97.4625C236.077 97.571 236.138 97.7182 236.138 97.8717Z" fill="#89FF00"/>
<path d="M54.3238 127.74C54.8425 125.444 53.3987 123.164 51.0989 122.646C48.7992 122.128 46.5145 123.569 45.9958 125.865C45.4771 128.161 46.9209 130.441 49.2206 130.959C51.5203 131.477 53.8051 130.035 54.3238 127.74Z" fill="url(#paint13_radial_8_82846)" style="mix-blend-mode:screen"/>
<path d="M51.3325 126.813C51.3325 127.042 51.2645 127.266 51.1371 127.456C51.0097 127.646 50.8286 127.795 50.6168 127.882C50.4049 127.97 50.1717 127.993 49.9468 127.948C49.7219 127.903 49.5153 127.793 49.3532 127.631C49.191 127.469 49.0806 127.263 49.0358 127.039C48.9911 126.814 49.014 126.581 49.1018 126.37C49.1896 126.158 49.3382 125.978 49.5289 125.851C49.7195 125.723 49.9437 125.655 50.173 125.655C50.4805 125.655 50.7755 125.777 50.9929 125.994C51.2104 126.212 51.3325 126.506 51.3325 126.813Z" fill="#89FF00"/>
<path d="M234.267 141.031C234.786 138.736 233.342 136.455 231.042 135.937C228.743 135.42 226.458 136.861 225.939 139.157C225.42 141.452 226.864 143.733 229.164 144.25C231.464 144.768 233.748 143.327 234.267 141.031Z" fill="url(#paint14_radial_8_82846)" style="mix-blend-mode:screen"/>
<path d="M231.276 140.104C231.276 140.333 231.208 140.557 231.08 140.747C230.953 140.938 230.772 141.086 230.56 141.174C230.348 141.261 230.115 141.284 229.89 141.24C229.665 141.195 229.459 141.085 229.297 140.923C229.134 140.761 229.024 140.555 228.979 140.33C228.934 140.106 228.957 139.873 229.045 139.661C229.133 139.45 229.282 139.269 229.472 139.142C229.663 139.015 229.887 138.947 230.116 138.947C230.424 138.947 230.719 139.069 230.936 139.286C231.154 139.503 231.276 139.797 231.276 140.104Z" fill="#89FF00"/>
<path d="M159.267 201.031C159.786 198.736 158.342 196.455 156.042 195.937C153.743 195.42 151.458 196.861 150.939 199.157C150.42 201.452 151.864 203.733 154.164 204.25C156.464 204.768 158.748 203.327 159.267 201.031Z" fill="url(#paint15_radial_8_82846)" style="mix-blend-mode:screen"/>
<path d="M156.276 200.104C156.276 200.333 156.208 200.557 156.08 200.747C155.953 200.938 155.772 201.086 155.56 201.174C155.348 201.261 155.115 201.284 154.89 201.24C154.665 201.195 154.459 201.085 154.297 200.923C154.134 200.761 154.024 200.555 153.979 200.33C153.934 200.106 153.957 199.873 154.045 199.661C154.133 199.45 154.282 199.269 154.472 199.142C154.663 199.015 154.887 198.947 155.116 198.947C155.424 198.947 155.719 199.069 155.936 199.286C156.154 199.503 156.276 199.797 156.276 200.104Z" fill="#89FF00"/>
<defs>
<linearGradient id="paint0_linear_8_82846" x1="147.85" y1="238.59" x2="147.85" y2="70.2983" gradientUnits="userSpaceOnUse">
<stop stop-color="#6D1FD6"/>
<stop offset="0.21" stop-color="#5F1FBA"/>
<stop offset="0.67" stop-color="#3A1F74"/>
<stop offset="1" stop-color="#1E1F3D"/>
</linearGradient>
<linearGradient id="paint1_linear_8_82846" x1="137.06" y1="238.59" x2="137.06" y2="113.22" gradientUnits="userSpaceOnUse">
<stop stop-color="#321A67"/>
<stop offset="0.68" stop-color="#251D4C"/>
<stop offset="1" stop-color="#1E1F3D"/>
</linearGradient>
<radialGradient id="paint2_radial_8_82846" cx="0" cy="0" r="1" gradientUnits="userSpaceOnUse" gradientTransform="translate(117.254 108.174) scale(8.53717 8.52177)">
<stop stop-color="#00FF00"/>
<stop offset="0.1" stop-color="#00D700"/>
<stop offset="0.29" stop-color="#009700"/>
<stop offset="1" stop-color="#009700" stop-opacity="0"/>
</radialGradient>
<radialGradient id="paint3_radial_8_82846" cx="0" cy="0" r="1" gradientUnits="userSpaceOnUse" gradientTransform="translate(78.8973 145.034) scale(10.6715 10.6522)">
<stop stop-color="#00FF00"/>
<stop offset="0.1" stop-color="#00D700"/>
<stop offset="0.29" stop-color="#009700"/>
<stop offset="1" stop-color="#009700" stop-opacity="0"/>
</radialGradient>
<radialGradient id="paint4_radial_8_82846" cx="0" cy="0" r="1" gradientUnits="userSpaceOnUse" gradientTransform="translate(199.729 196.77) scale(10.6715 10.6522)">
<stop stop-color="#00FF00"/>
<stop offset="0.1" stop-color="#00D700"/>
<stop offset="0.29" stop-color="#009700"/>
<stop offset="1" stop-color="#009700" stop-opacity="0"/>
</radialGradient>
<radialGradient id="paint5_radial_8_82846" cx="0" cy="0" r="1" gradientUnits="userSpaceOnUse" gradientTransform="translate(32.7167 106.77) scale(10.6715 10.6522)">
<stop stop-color="#00FF00"/>
<stop offset="0.1" stop-color="#00D700"/>
<stop offset="0.29" stop-color="#009700"/>
<stop offset="1" stop-color="#009700" stop-opacity="0"/>
</radialGradient>
<radialGradient id="paint6_radial_8_82846" cx="0" cy="0" r="1" gradientUnits="userSpaceOnUse" gradientTransform="translate(262.729 160.77) scale(10.6715 10.6522)">
<stop stop-color="#00FF00"/>
<stop offset="0.1" stop-color="#00D700"/>
<stop offset="0.29" stop-color="#009700"/>
<stop offset="1" stop-color="#009700" stop-opacity="0"/>
</radialGradient>
<radialGradient id="paint7_radial_8_82846" cx="0" cy="0" r="1" gradientUnits="userSpaceOnUse" gradientTransform="translate(27.4531 166.128) scale(5.33573 5.32611)">
<stop stop-color="#00FF00"/>
<stop offset="0.1" stop-color="#00D700"/>
<stop offset="0.29" stop-color="#009700"/>
<stop offset="1" stop-color="#009700" stop-opacity="0"/>
</radialGradient>
<radialGradient id="paint8_radial_8_82846" cx="0" cy="0" r="1" gradientUnits="userSpaceOnUse" gradientTransform="translate(91.0514 122.858) scale(4.26858 4.26089)">
<stop stop-color="#00FF00"/>
<stop offset="0.1" stop-color="#00D700"/>
<stop offset="0.29" stop-color="#009700"/>
<stop offset="1" stop-color="#009700" stop-opacity="0"/>
</radialGradient>
<radialGradient id="paint9_radial_8_82846" cx="0" cy="0" r="1" gradientUnits="userSpaceOnUse" gradientTransform="translate(72.0918 173.108) scale(4.26858 4.26089)">
<stop stop-color="#00FF00"/>
<stop offset="0.1" stop-color="#00D700"/>
<stop offset="0.29" stop-color="#009700"/>
<stop offset="1" stop-color="#009700" stop-opacity="0"/>
</radialGradient>
<radialGradient id="paint10_radial_8_82846" cx="0" cy="0" r="1" gradientUnits="userSpaceOnUse" gradientTransform="translate(76.6305 97.8735) scale(2.1343 2.13045)">
<stop stop-color="#00FF00"/>
<stop offset="0.1" stop-color="#00D700"/>
<stop offset="0.29" stop-color="#009700"/>
<stop offset="1" stop-color="#009700" stop-opacity="0"/>
</radialGradient>
<radialGradient id="paint11_radial_8_82846" cx="0" cy="0" r="1" gradientUnits="userSpaceOnUse" gradientTransform="translate(210.546 162.554) scale(2.1343 2.13045)">
<stop stop-color="#00FF00"/>
<stop offset="0.1" stop-color="#00D700"/>
<stop offset="0.29" stop-color="#009700"/>
<stop offset="1" stop-color="#009700" stop-opacity="0"/>
</radialGradient>
<radialGradient id="paint12_radial_8_82846" cx="0" cy="0" r="1" gradientUnits="userSpaceOnUse" gradientTransform="translate(235.546 97.8735) scale(2.1343 2.13045)">
<stop stop-color="#00FF00"/>
<stop offset="0.1" stop-color="#00D700"/>
<stop offset="0.29" stop-color="#009700"/>
<stop offset="1" stop-color="#009700" stop-opacity="0"/>
</radialGradient>
<radialGradient id="paint13_radial_8_82846" cx="0" cy="0" r="1" gradientUnits="userSpaceOnUse" gradientTransform="translate(50.1484 126.817) scale(4.26858 4.26089)">
<stop stop-color="#00FF00"/>
<stop offset="0.1" stop-color="#00D700"/>
<stop offset="0.29" stop-color="#009700"/>
<stop offset="1" stop-color="#009700" stop-opacity="0"/>
</radialGradient>
<radialGradient id="paint14_radial_8_82846" cx="0" cy="0" r="1" gradientUnits="userSpaceOnUse" gradientTransform="translate(230.092 140.108) scale(4.26858 4.26089)">
<stop stop-color="#00FF00"/>
<stop offset="0.1" stop-color="#00D700"/>
<stop offset="0.29" stop-color="#009700"/>
<stop offset="1" stop-color="#009700" stop-opacity="0"/>
</radialGradient>
<radialGradient id="paint15_radial_8_82846" cx="0" cy="0" r="1" gradientUnits="userSpaceOnUse" gradientTransform="translate(155.092 200.108) scale(4.26858 4.26089)">
<stop stop-color="#00FF00"/>
<stop offset="0.1" stop-color="#00D700"/>
<stop offset="0.29" stop-color="#009700"/>
<stop offset="1" stop-color="#009700" stop-opacity="0"/>
</radialGradient>
</defs>
</svg>
