<svg width="300" height="300" viewBox="0 0 300 300" fill="none" xmlns="http://www.w3.org/2000/svg">
<g clip-path="url(#clip0_8_65885)">
<path d="M59.7807 28.0923L92.0861 21.1526L108.829 57.2514L106.182 170.196L23.2339 106.784L59.7807 28.0923Z" fill="#89FF00"/>
<path d="M57.1987 33.2176L89.5041 26.278L106.279 62.3768L103.6 175.321L20.6519 111.909L57.1987 33.2176Z" fill="#6D1FD6"/>
<path d="M57.1987 33.2174L86.4426 70.2712L103.6 175.321L20.6519 111.909L57.1987 33.2174Z" fill="url(#paint0_linear_8_65885)"/>
<path d="M57.1987 33.2176L85.9005 30.9256L98.8163 59.48L86.4426 70.2715L88.1966 81.031L101.463 70.4943L104.174 86.5382L90.8436 97.2023L92.3743 106.593L104.174 89.9125L99.0395 147.308L103.6 175.321L106.279 62.3768L89.5041 26.278L57.1987 33.2176Z" fill="#873BFF"/>
<path opacity="0.33" d="M80.2558 74.0276L62.4926 98.7302L35.1621 80.6808L20.6519 111.909L85.454 150.268L80.2558 74.0276Z" fill="url(#paint1_linear_8_65885)"/>
<path d="M160.231 150L157.552 183.552L236.258 278.288V212.902L184.659 177.822L160.231 150Z" fill="#89FF00"/>
<path d="M157.647 155.125L155 188.709L233.674 283.413V218.028L182.107 182.947L157.647 155.125Z" fill="#6D1FD6"/>
<path d="M157.647 155.125L179.556 194.789L233.674 283.413L155 188.709L157.647 155.125Z" fill="url(#paint2_linear_8_65885)"/>
<path d="M220.855 263.931L230.518 267.082L228.03 220.702L189.953 211.82L221.046 215.258L208.258 203.607L184.882 203.544L178.281 192.497L193.174 194.153L172.987 182.884L157.647 155.125L182.108 182.947L233.675 218.028V283.413L220.855 263.931Z" fill="#873BFF"/>
<path d="M137.559 104.428C138.542 100.078 135.806 95.7572 131.449 94.7763C127.091 93.7953 122.762 96.526 121.779 100.875C120.797 105.225 123.532 109.546 127.89 110.527C132.247 111.508 136.576 108.777 137.559 104.428Z" fill="url(#paint3_radial_8_65885)" style="mix-blend-mode:screen"/>
<path d="M131.891 102.671C131.891 103.105 131.762 103.529 131.521 103.89C131.279 104.25 130.936 104.532 130.535 104.698C130.133 104.863 129.692 104.907 129.265 104.822C128.839 104.738 128.448 104.529 128.141 104.222C127.833 103.915 127.624 103.525 127.539 103.099C127.455 102.674 127.498 102.233 127.664 101.832C127.831 101.432 128.112 101.089 128.473 100.848C128.835 100.607 129.259 100.479 129.694 100.479C130.277 100.479 130.835 100.71 131.247 101.121C131.659 101.532 131.891 102.09 131.891 102.671Z" fill="#89FF00"/>
<path d="M147.559 172.428C148.542 168.078 145.806 163.757 141.449 162.776C137.091 161.795 132.762 164.526 131.779 168.875C130.797 173.225 133.532 177.546 137.89 178.527C142.247 179.508 146.576 176.777 147.559 172.428Z" fill="url(#paint4_radial_8_65885)" style="mix-blend-mode:screen"/>
<path d="M141.891 170.671C141.891 171.105 141.762 171.529 141.521 171.89C141.279 172.25 140.936 172.532 140.535 172.698C140.133 172.863 139.692 172.907 139.265 172.822C138.839 172.738 138.448 172.529 138.141 172.222C137.833 171.915 137.624 171.525 137.539 171.099C137.455 170.674 137.498 170.233 137.664 169.832C137.831 169.432 138.112 169.089 138.473 168.848C138.835 168.607 139.259 168.479 139.694 168.479C140.277 168.479 140.835 168.71 141.247 169.121C141.659 169.532 141.891 170.09 141.891 170.671Z" fill="#89FF00"/>
<path d="M15.5588 84.4279C16.5415 80.0785 13.8059 75.7572 9.44856 74.7763C5.09123 73.7953 0.762223 76.526 -0.220543 80.8754C-1.20331 85.2249 1.53232 89.5461 5.88965 90.5271C10.247 91.5081 14.576 88.7774 15.5588 84.4279Z" fill="url(#paint5_radial_8_65885)" style="mix-blend-mode:screen"/>
<path d="M9.89091 82.6715C9.89091 83.1052 9.76205 83.5292 9.52065 83.8898C9.27925 84.2504 8.93615 84.5315 8.53472 84.6975C8.13328 84.8635 7.69154 84.9069 7.26539 84.8223C6.83923 84.7377 6.44777 84.5288 6.14052 84.2221C5.83328 83.9154 5.62406 83.5247 5.53929 83.0993C5.45452 82.6739 5.49801 82.233 5.66429 81.8323C5.83057 81.4316 6.11217 81.0891 6.47345 80.8481C6.83473 80.6071 7.25947 80.4785 7.69398 80.4785C8.27664 80.4785 8.83544 80.7096 9.24744 81.1208C9.65944 81.5321 9.89091 82.0899 9.89091 82.6715Z" fill="#89FF00"/>
<path d="M221.582 169.999C222.958 163.91 219.128 157.86 213.028 156.487C206.928 155.113 200.867 158.936 199.491 165.026C198.115 171.115 201.945 177.165 208.046 178.538C214.146 179.911 220.207 176.088 221.582 169.999Z" fill="url(#paint6_radial_8_65885)" style="mix-blend-mode:screen"/>
<path d="M213.648 167.54C213.648 168.147 213.467 168.741 213.129 169.246C212.791 169.751 212.311 170.144 211.749 170.376C211.187 170.609 210.568 170.67 209.972 170.551C209.375 170.433 208.827 170.14 208.397 169.711C207.967 169.282 207.674 168.735 207.555 168.139C207.437 167.543 207.497 166.926 207.73 166.365C207.963 165.804 208.357 165.325 208.863 164.987C209.369 164.65 209.963 164.47 210.572 164.47C211.388 164.47 212.17 164.793 212.747 165.369C213.323 165.945 213.648 166.726 213.648 167.54Z" fill="#89FF00"/>
<path d="M118.268 122.428C118.563 121.124 117.742 119.827 116.435 119.533C115.127 119.239 113.829 120.058 113.534 121.363C113.239 122.667 114.06 123.964 115.367 124.258C116.674 124.552 117.973 123.733 118.268 122.428Z" fill="url(#paint7_radial_8_65885)" style="mix-blend-mode:screen"/>
<path d="M116.568 121.901C116.568 122.032 116.529 122.159 116.457 122.267C116.384 122.375 116.281 122.459 116.161 122.509C116.04 122.559 115.908 122.572 115.78 122.547C115.652 122.521 115.535 122.459 115.443 122.367C115.35 122.275 115.288 122.157 115.262 122.03C115.237 121.902 115.25 121.77 115.3 121.65C115.35 121.529 115.434 121.427 115.542 121.354C115.651 121.282 115.778 121.244 115.909 121.244C116.083 121.244 116.251 121.313 116.375 121.436C116.498 121.56 116.568 121.727 116.568 121.901Z" fill="#89FF00"/>
<path d="M23.2677 70.4284C23.5625 69.1235 22.7418 67.8272 21.4346 67.5329C20.1274 67.2386 18.8287 68.0578 18.5338 69.3626C18.239 70.6675 19.0597 71.9638 20.3669 72.2581C21.6741 72.5524 22.9728 71.7332 23.2677 70.4284Z" fill="url(#paint8_radial_8_65885)" style="mix-blend-mode:screen"/>
<path d="M21.5677 69.9014C21.5677 70.0316 21.529 70.1588 21.4566 70.2669C21.3842 70.3751 21.2812 70.4595 21.1608 70.5093C21.0404 70.5591 20.9079 70.5721 20.78 70.5467C20.6522 70.5213 20.5347 70.4587 20.4425 70.3666C20.3504 70.2746 20.2876 70.1574 20.2622 70.0298C20.2367 69.9022 20.2498 69.7699 20.2997 69.6497C20.3496 69.5295 20.434 69.4267 20.5424 69.3544C20.6508 69.2821 20.7782 69.2436 20.9086 69.2436C21.0834 69.2436 21.251 69.3129 21.3746 69.4363C21.4982 69.5596 21.5677 69.727 21.5677 69.9014Z" fill="#89FF00"/>
<path d="M146.321 136.114C146.675 134.548 145.69 132.993 144.122 132.639C142.553 132.286 140.994 133.269 140.641 134.835C140.287 136.401 141.272 137.957 142.84 138.31C144.409 138.663 145.968 137.68 146.321 136.114Z" fill="url(#paint9_radial_8_65885)" style="mix-blend-mode:screen"/>
<path d="M144.281 135.482C144.281 135.638 144.235 135.791 144.148 135.92C144.061 136.05 143.937 136.151 143.793 136.211C143.648 136.271 143.489 136.286 143.336 136.256C143.182 136.226 143.041 136.15 142.931 136.04C142.82 135.93 142.745 135.789 142.714 135.636C142.684 135.483 142.7 135.324 142.759 135.18C142.819 135.035 142.921 134.912 143.051 134.825C143.181 134.739 143.334 134.692 143.49 134.692C143.7 134.692 143.901 134.775 144.049 134.923C144.198 135.072 144.281 135.272 144.281 135.482Z" fill="#89FF00"/>
<path d="M122.85 152.76C123.345 150.568 121.966 148.39 119.77 147.895C117.574 147.401 115.392 148.777 114.897 150.969C114.402 153.161 115.78 155.339 117.976 155.834C120.173 156.328 122.354 154.952 122.85 152.76Z" fill="url(#paint10_radial_8_65885)" style="mix-blend-mode:screen"/>
<path d="M119.993 151.874C119.993 152.093 119.928 152.307 119.806 152.488C119.685 152.67 119.512 152.812 119.309 152.896C119.107 152.979 118.884 153.001 118.67 152.958C118.455 152.916 118.257 152.811 118.103 152.656C117.948 152.501 117.842 152.304 117.8 152.09C117.757 151.876 117.779 151.653 117.863 151.451C117.946 151.249 118.088 151.077 118.27 150.955C118.453 150.834 118.667 150.769 118.886 150.769C119.179 150.769 119.461 150.886 119.669 151.093C119.876 151.3 119.993 151.581 119.993 151.874Z" fill="#89FF00"/>
<g opacity="0.9">
<path d="M13.8498 57.7597C14.3451 55.5675 12.9664 53.3897 10.7702 52.8952C8.57406 52.4008 6.39219 53.7771 5.89687 55.9692C5.40154 58.1614 6.78033 60.3393 8.97647 60.8337C11.1726 61.3281 13.3545 59.9518 13.8498 57.7597Z" fill="url(#paint11_radial_8_65885)" style="mix-blend-mode:screen"/>
<path d="M10.9929 56.8744C10.9929 57.093 10.9279 57.3067 10.8062 57.4885C10.6846 57.6702 10.5117 57.8119 10.3093 57.8955C10.107 57.9792 9.88436 58.0011 9.66957 57.9584C9.45478 57.9158 9.25748 57.8105 9.10263 57.656C8.94777 57.5014 8.84232 57.3044 8.7996 57.09C8.75687 56.8756 8.7788 56.6534 8.8626 56.4515C8.94641 56.2495 9.08834 56.0769 9.27043 55.9554C9.45252 55.834 9.66659 55.7692 9.88559 55.7692C10.1793 55.7692 10.4609 55.8856 10.6685 56.0929C10.8762 56.3002 10.9929 56.5813 10.9929 56.8744Z" fill="#89FF00"/>
</g>
<path d="M186.85 141.76C187.345 139.568 185.966 137.39 183.77 136.895C181.574 136.401 179.392 137.777 178.897 139.969C178.402 142.161 179.78 144.339 181.976 144.834C184.173 145.328 186.354 143.952 186.85 141.76Z" fill="url(#paint12_radial_8_65885)" style="mix-blend-mode:screen"/>
<path d="M183.993 140.874C183.993 141.093 183.928 141.307 183.806 141.488C183.685 141.67 183.512 141.812 183.309 141.896C183.107 141.979 182.884 142.001 182.67 141.958C182.455 141.916 182.257 141.811 182.103 141.656C181.948 141.501 181.842 141.304 181.8 141.09C181.757 140.876 181.779 140.653 181.863 140.451C181.946 140.249 182.088 140.077 182.27 139.955C182.453 139.834 182.667 139.769 182.886 139.769C183.179 139.769 183.461 139.886 183.669 140.093C183.876 140.3 183.993 140.581 183.993 140.874Z" fill="#89FF00"/>
<g opacity="0.9">
<path d="M222.85 281.76C223.345 279.568 221.966 277.39 219.77 276.895C217.574 276.401 215.392 277.777 214.897 279.969C214.402 282.161 215.78 284.339 217.976 284.834C220.173 285.328 222.354 283.952 222.85 281.76Z" fill="url(#paint13_radial_8_65885)" style="mix-blend-mode:screen"/>
<path d="M219.993 280.874C219.993 281.093 219.928 281.307 219.806 281.488C219.685 281.67 219.512 281.812 219.309 281.896C219.107 281.979 218.884 282.001 218.67 281.958C218.455 281.916 218.257 281.811 218.103 281.656C217.948 281.501 217.842 281.304 217.8 281.09C217.757 280.876 217.779 280.653 217.863 280.451C217.946 280.249 218.088 280.077 218.27 279.955C218.453 279.834 218.667 279.769 218.886 279.769C219.179 279.769 219.461 279.886 219.669 280.093C219.876 280.3 219.993 280.581 219.993 280.874Z" fill="#89FF00"/>
</g>
<path style="mix-blend-mode:screen" d="M114.436 84.8634C115.782 84.8634 116.872 83.7747 116.872 82.4317C116.872 81.0887 115.782 80 114.436 80C113.091 80 112 81.0887 112 82.4317C112 83.7747 113.091 84.8634 114.436 84.8634Z" fill="url(#paint14_radial_8_65885)"/>
<path d="M114.436 83.0949C114.803 83.0949 115.1 82.798 115.1 82.4317C115.1 82.0655 114.803 81.7686 114.436 81.7686C114.069 81.7686 113.771 82.0655 113.771 82.4317C113.771 82.798 114.069 83.0949 114.436 83.0949Z" fill="#89FF00"/>
</g>
<defs>
<linearGradient id="paint0_linear_8_65885" x1="62.1418" y1="175.321" x2="62.1418" y2="33.2174" gradientUnits="userSpaceOnUse">
<stop stop-color="#6D1FD6"/>
<stop offset="0.21" stop-color="#5F1FBA"/>
<stop offset="0.67" stop-color="#3A1F74"/>
<stop offset="1" stop-color="#1E1F3D"/>
</linearGradient>
<linearGradient id="paint1_linear_8_65885" x1="53.0529" y1="150.268" x2="53.0529" y2="74.0276" gradientUnits="userSpaceOnUse">
<stop stop-color="#321A67"/>
<stop offset="0.68" stop-color="#251D4C"/>
<stop offset="1" stop-color="#1E1F3D"/>
</linearGradient>
<linearGradient id="paint2_linear_8_65885" x1="194.321" y1="283.413" x2="194.321" y2="155.125" gradientUnits="userSpaceOnUse">
<stop stop-color="#6D1FD6"/>
<stop offset="0.21" stop-color="#5F1FBA"/>
<stop offset="0.67" stop-color="#3A1F74"/>
<stop offset="1" stop-color="#1E1F3D"/>
</linearGradient>
<radialGradient id="paint3_radial_8_65885" cx="0" cy="0" r="1" gradientUnits="userSpaceOnUse" gradientTransform="translate(129.648 102.678) scale(8.08783 8.07325)">
<stop stop-color="#00FF00"/>
<stop offset="0.1" stop-color="#00D700"/>
<stop offset="0.29" stop-color="#009700"/>
<stop offset="1" stop-color="#009700" stop-opacity="0"/>
</radialGradient>
<radialGradient id="paint4_radial_8_65885" cx="0" cy="0" r="1" gradientUnits="userSpaceOnUse" gradientTransform="translate(139.648 170.678) scale(8.08783 8.07325)">
<stop stop-color="#00FF00"/>
<stop offset="0.1" stop-color="#00D700"/>
<stop offset="0.29" stop-color="#009700"/>
<stop offset="1" stop-color="#009700" stop-opacity="0"/>
</radialGradient>
<radialGradient id="paint5_radial_8_65885" cx="0" cy="0" r="1" gradientUnits="userSpaceOnUse" gradientTransform="translate(7.64759 82.6785) scale(8.08783 8.07325)">
<stop stop-color="#00FF00"/>
<stop offset="0.1" stop-color="#00D700"/>
<stop offset="0.29" stop-color="#009700"/>
<stop offset="1" stop-color="#009700" stop-opacity="0"/>
</radialGradient>
<radialGradient id="paint6_radial_8_65885" cx="0" cy="0" r="1" gradientUnits="userSpaceOnUse" gradientTransform="translate(210.507 167.55) scale(11.3231 11.3026)">
<stop stop-color="#00FF00"/>
<stop offset="0.1" stop-color="#00D700"/>
<stop offset="0.29" stop-color="#009700"/>
<stop offset="1" stop-color="#009700" stop-opacity="0"/>
</radialGradient>
<radialGradient id="paint7_radial_8_65885" cx="0" cy="0" r="1" gradientUnits="userSpaceOnUse" gradientTransform="translate(115.894 121.904) scale(2.42637 2.42198)">
<stop stop-color="#00FF00"/>
<stop offset="0.1" stop-color="#00D700"/>
<stop offset="0.29" stop-color="#009700"/>
<stop offset="1" stop-color="#009700" stop-opacity="0"/>
</radialGradient>
<radialGradient id="paint8_radial_8_65885" cx="0" cy="0" r="1" gradientUnits="userSpaceOnUse" gradientTransform="translate(20.8943 69.9035) scale(2.42637 2.42198)">
<stop stop-color="#00FF00"/>
<stop offset="0.1" stop-color="#00D700"/>
<stop offset="0.29" stop-color="#009700"/>
<stop offset="1" stop-color="#009700" stop-opacity="0"/>
</radialGradient>
<radialGradient id="paint9_radial_8_65885" cx="0" cy="0" r="1" gradientUnits="userSpaceOnUse" gradientTransform="translate(143.473 135.484) scale(2.91177 2.90638)">
<stop stop-color="#00FF00"/>
<stop offset="0.1" stop-color="#00D700"/>
<stop offset="0.29" stop-color="#009700"/>
<stop offset="1" stop-color="#009700" stop-opacity="0"/>
</radialGradient>
<radialGradient id="paint10_radial_8_65885" cx="0" cy="0" r="1" gradientUnits="userSpaceOnUse" gradientTransform="translate(118.862 151.878) scale(4.07636 4.06893)">
<stop stop-color="#00FF00"/>
<stop offset="0.1" stop-color="#00D700"/>
<stop offset="0.29" stop-color="#009700"/>
<stop offset="1" stop-color="#009700" stop-opacity="0"/>
</radialGradient>
<radialGradient id="paint11_radial_8_65885" cx="0" cy="0" r="1" gradientUnits="userSpaceOnUse" gradientTransform="translate(9.86249 56.8779) scale(4.07636 4.06893)">
<stop stop-color="#00FF00"/>
<stop offset="0.1" stop-color="#00D700"/>
<stop offset="0.29" stop-color="#009700"/>
<stop offset="1" stop-color="#009700" stop-opacity="0"/>
</radialGradient>
<radialGradient id="paint12_radial_8_65885" cx="0" cy="0" r="1" gradientUnits="userSpaceOnUse" gradientTransform="translate(182.862 140.878) scale(4.07636 4.06893)">
<stop stop-color="#00FF00"/>
<stop offset="0.1" stop-color="#00D700"/>
<stop offset="0.29" stop-color="#009700"/>
<stop offset="1" stop-color="#009700" stop-opacity="0"/>
</radialGradient>
<radialGradient id="paint13_radial_8_65885" cx="0" cy="0" r="1" gradientUnits="userSpaceOnUse" gradientTransform="translate(218.862 280.878) scale(4.07636 4.06893)">
<stop stop-color="#00FF00"/>
<stop offset="0.1" stop-color="#00D700"/>
<stop offset="0.29" stop-color="#009700"/>
<stop offset="1" stop-color="#009700" stop-opacity="0"/>
</radialGradient>
<radialGradient id="paint14_radial_8_65885" cx="0" cy="0" r="1" gradientUnits="userSpaceOnUse" gradientTransform="translate(114.436 82.4317) scale(2.43609 2.4317)">
<stop stop-color="#00FF00"/>
<stop offset="0.1" stop-color="#00D700"/>
<stop offset="0.29" stop-color="#009700"/>
<stop offset="0.47" stop-color="#006100"/>
<stop offset="0.64" stop-color="#003700"/>
<stop offset="0.78" stop-color="#001900"/>
<stop offset="0.91" stop-color="#000700"/>
<stop offset="1"/>
</radialGradient>
<clipPath id="clip0_8_65885">
<rect width="300" height="300" fill="white"/>
</clipPath>
</defs>
</svg>
