<svg width="300" height="300" viewBox="0 0 300 300" fill="none" xmlns="http://www.w3.org/2000/svg">
<g clip-path="url(#clip0_8_76359)">
<path d="M287.5 199.472L214.542 150.642L207.343 128.991L116.727 60.2656L107.499 60.0299L108.416 66.3439L145.796 101.472L98.7937 57.388L34.4624 26.5901L24.0807 33.1256L39.3832 55.334L54.1749 72.6333L73.6877 95.5077L98.132 124.247L101.088 145.191L118.584 165.31L95.5876 170.853L90.495 183.804L76.9518 177.043L71.2751 176.719L51.2746 181.608L52.03 194.297L64.6634 207.828L74.8045 218.689L80.0994 224.352L89.4592 234.363L82.7164 247.967L97.8578 264.354L100.725 267.428L129.978 293.772L131.138 294.694L230.798 263.741L273.673 243.347L258.712 211.014L287.5 199.472ZM81.2527 209.607L74.2054 203.692L91.4828 218.167L81.2527 209.607Z" fill="#89FF00"/>
<path d="M271.661 242.308L257.728 212.238L289.265 199.52L220.017 150.603L212.953 129.322L116.665 60.2879L151.67 102.528L105.054 59.3145L34.4628 26.59L41.1642 45.0018C41.1642 45.0018 51.3399 57.3508 55.4468 61.5268C59.5538 65.7027 88.4693 91.0699 88.4693 91.0699L116.308 124.332L118.966 142.296L128.673 158.305C128.673 158.305 138.043 166.76 139.371 168.248C140.7 169.736 183.178 199.903 183.178 199.903L124.313 165.633L101.399 171.163L130.799 196.372L77.1038 177.075L57.0457 181.95L66.7657 192.807L101.319 221.322L133.012 237.512L94.9233 233.718L99.9016 242.881L109.984 255.648L133.808 271.492L119.719 271.682L131.111 279.209L155.292 285.71L230.691 262.245L271.661 242.308Z" fill="url(#paint0_linear_8_76359)"/>
<path d="M94.7838 233.769L132.935 237.541L103.159 222.345L85.5124 223.952L94.7838 233.769Z" fill="#681A6A"/>
<path d="M104.732 249.237L99.7624 242.932L94.7841 233.769L87.9951 247.198L104.732 249.237Z" fill="#681A6A"/>
<path d="M105.832 266.285L134.904 292.084L155.158 285.776L130.977 279.275L119.564 271.739L133.669 271.543L120.202 262.59L103.024 263.277L105.832 266.285Z" fill="#45178E"/>
<path d="M116.313 124.348L104.113 125.264L106.951 145.884L118.965 142.297L116.313 124.348Z" fill="#6D1FD6"/>
<path d="M94.3989 98.1422L88.4688 91.0703C88.4688 91.0703 80.5631 84.1417 72.426 76.9134L60.474 74.6681L79.8088 97.1013L94.3989 98.1422Z" fill="#6D1FD6"/>
<path d="M103.024 263.276L120.202 262.59L109.83 255.704L104.732 249.237L87.9951 247.197L103.024 263.276Z" fill="#45178E"/>
<path style="mix-blend-mode:multiply" opacity="0.46" d="M189.763 207.191L199.851 234.909L234.343 249.662L226.733 228.754L206.616 227.561L189.763 207.191Z" fill="url(#paint1_linear_8_76359)"/>
<path style="mix-blend-mode:multiply" opacity="0.46" d="M212.937 129.328L176.811 130.734L153.536 107.659L169.87 130.923L151.345 121.089L116.312 124.348L145.213 127.247L169.753 140.928L180.848 141.828L194.571 153.741L245.542 182.265L210.822 154.735L220.006 150.625L212.937 129.328Z" fill="url(#paint2_linear_8_76359)"/>
<path style="mix-blend-mode:multiply" opacity="0.46" d="M138.733 205.35L152.853 224.743L141.367 236.409L154.642 230.618L183.848 251.5L162.664 227.925L160.006 218.894L138.733 205.35Z" fill="url(#paint3_linear_8_76359)"/>
<path d="M130.727 196.416L101.322 171.192L96.1521 183.979L130.727 196.416Z" fill="#45178E"/>
<path d="M94.7838 233.769L132.935 237.541L103.159 222.345L85.5124 223.952L94.7838 233.769Z" fill="#45178E"/>
<path d="M55.4464 61.5269C51.3394 57.351 41.1638 45.002 41.1638 45.002L34.4624 26.5901L30.621 35.8227L45.7566 57.6207L60.474 74.6678L72.426 76.9132C65.0127 70.3288 57.3905 63.5064 55.4464 61.5269Z" fill="#45178E"/>
<path d="M104.113 125.264L116.313 124.348L94.4045 98.1576L79.8088 97.1013L104.113 125.264Z" fill="#45178E"/>
<path d="M139.371 168.249C138.042 166.76 128.673 158.306 128.673 158.306L118.965 142.297L106.951 145.884L124.301 165.603L183.178 199.904C183.178 199.904 140.705 169.752 139.371 168.249Z" fill="#45178E"/>
<path d="M104.732 249.237L99.7624 242.932L94.7841 233.769L87.9951 247.198L104.732 249.237Z" fill="#6D1FD6"/>
<path d="M57.5588 138.428C58.5415 134.078 55.8059 129.757 51.4486 128.776C47.0912 127.795 42.7622 130.526 41.7795 134.875C40.7967 139.225 43.5323 143.546 47.8897 144.527C52.247 145.508 56.576 142.777 57.5588 138.428Z" fill="url(#paint4_radial_8_76359)" style="mix-blend-mode:screen"/>
<path d="M51.8912 136.671C51.8912 137.105 51.7623 137.529 51.5209 137.89C51.2795 138.25 50.9364 138.532 50.535 138.698C50.1335 138.863 49.6918 138.907 49.2656 138.822C48.8395 138.738 48.448 138.529 48.1408 138.222C47.8335 137.915 47.6243 137.525 47.5395 137.099C47.4548 136.674 47.4983 136.233 47.6645 135.832C47.8308 135.432 48.1124 135.089 48.4737 134.848C48.835 134.607 49.2597 134.479 49.6942 134.479C50.2769 134.479 50.8357 134.71 51.2477 135.121C51.6597 135.532 51.8912 136.09 51.8912 136.671Z" fill="#89FF00"/>
<path d="M22.5588 109.428C23.5415 105.078 20.8059 100.757 16.4486 99.7763C12.0912 98.7953 7.76222 101.526 6.77946 105.875C5.79669 110.225 8.53232 114.546 12.8897 115.527C17.247 116.508 21.576 113.777 22.5588 109.428Z" fill="url(#paint5_radial_8_76359)" style="mix-blend-mode:screen"/>
<path d="M16.8912 107.671C16.8912 108.105 16.7623 108.529 16.5209 108.89C16.2795 109.25 15.9364 109.532 15.535 109.698C15.1335 109.863 14.6918 109.907 14.2656 109.822C13.8395 109.738 13.448 109.529 13.1408 109.222C12.8335 108.915 12.6243 108.525 12.5395 108.099C12.4548 107.674 12.4983 107.233 12.6645 106.832C12.8308 106.432 13.1124 106.089 13.4737 105.848C13.835 105.607 14.2597 105.479 14.6942 105.479C15.2769 105.479 15.8357 105.71 16.2477 106.121C16.6597 106.532 16.8912 107.09 16.8912 107.671Z" fill="#89FF00"/>
<path d="M96.5588 156.428C97.5415 152.078 94.8059 147.757 90.4486 146.776C86.0912 145.795 81.7622 148.526 80.7795 152.875C79.7967 157.225 82.5323 161.546 86.8897 162.527C91.247 163.508 95.576 160.777 96.5588 156.428Z" fill="url(#paint6_radial_8_76359)" style="mix-blend-mode:screen"/>
<path d="M90.8912 154.671C90.8912 155.105 90.7623 155.529 90.5209 155.89C90.2795 156.25 89.9364 156.532 89.535 156.698C89.1335 156.863 88.6918 156.907 88.2656 156.822C87.8395 156.738 87.448 156.529 87.1408 156.222C86.8335 155.915 86.6243 155.525 86.5395 155.099C86.4548 154.674 86.4983 154.233 86.6645 153.832C86.8308 153.432 87.1124 153.089 87.4737 152.848C87.835 152.607 88.2597 152.479 88.6942 152.479C89.2769 152.479 89.8357 152.71 90.2477 153.121C90.6597 153.532 90.8912 154.09 90.8912 154.671Z" fill="#89FF00"/>
<path d="M14.614 153.54C15.1053 151.365 13.7375 149.204 11.5589 148.714C9.3802 148.223 7.2157 149.589 6.72432 151.764C6.23294 153.938 7.60075 156.099 9.77941 156.589C11.9581 157.08 14.1226 155.715 14.614 153.54Z" fill="url(#paint7_radial_8_76359)" style="mix-blend-mode:screen"/>
<path d="M11.7802 152.662C11.7802 152.878 11.7157 153.09 11.595 153.271C11.4743 153.451 11.3028 153.592 11.1021 153.675C10.9014 153.758 10.6805 153.779 10.4674 153.737C10.2543 153.695 10.0586 153.59 9.90498 153.437C9.75136 153.284 9.64674 153.088 9.60436 152.875C9.56198 152.663 9.58372 152.442 9.66686 152.242C9.75 152.042 9.8908 151.87 10.0714 151.75C10.2521 151.629 10.4645 151.565 10.6817 151.565C10.973 151.565 11.2524 151.681 11.4584 151.886C11.6644 152.092 11.7802 152.371 11.7802 152.662Z" fill="#89FF00"/>
<path d="M62.0235 120.571C62.4166 118.831 61.3223 117.103 59.5794 116.711C57.8365 116.318 56.1049 117.41 55.7118 119.15C55.3187 120.89 56.4129 122.618 58.1559 123.011C59.8988 123.403 61.6304 122.311 62.0235 120.571Z" fill="url(#paint8_radial_8_76359)" style="mix-blend-mode:screen"/>
<path d="M59.7564 119.869C59.7564 120.042 59.7049 120.212 59.6083 120.356C59.5118 120.5 59.3745 120.613 59.214 120.679C59.0534 120.745 58.8767 120.763 58.7062 120.729C58.5358 120.695 58.3792 120.612 58.2563 120.489C58.1334 120.366 58.0497 120.21 58.0158 120.04C57.9819 119.87 57.9993 119.693 58.0658 119.533C58.1323 119.373 58.2449 119.236 58.3895 119.139C58.534 119.043 58.7039 118.991 58.8777 118.991C59.1107 118.991 59.3342 119.084 59.499 119.248C59.6638 119.413 59.7564 119.636 59.7564 119.869Z" fill="#89FF00"/>
<path d="M62.0235 163.571C62.4166 161.831 61.3223 160.103 59.5794 159.711C57.8365 159.318 56.1049 160.41 55.7118 162.15C55.3187 163.89 56.4129 165.618 58.1559 166.011C59.8988 166.403 61.6304 165.311 62.0235 163.571Z" fill="url(#paint9_radial_8_76359)" style="mix-blend-mode:screen"/>
<path d="M59.7564 162.869C59.7564 163.042 59.7049 163.212 59.6083 163.356C59.5118 163.5 59.3745 163.613 59.214 163.679C59.0534 163.745 58.8767 163.763 58.7062 163.729C58.5358 163.695 58.3792 163.612 58.2563 163.489C58.1334 163.366 58.0497 163.21 58.0158 163.04C57.9819 162.87 57.9993 162.693 58.0658 162.533C58.1323 162.373 58.2449 162.236 58.3895 162.139C58.534 162.043 58.7039 161.991 58.8777 161.991C59.1107 161.991 59.3342 162.084 59.499 162.248C59.6638 162.413 59.7564 162.636 59.7564 162.869Z" fill="#89FF00"/>
<path d="M49.5118 101.286C49.7083 100.416 49.1612 99.5514 48.2897 99.3552C47.4183 99.1591 46.5524 99.7052 46.3559 100.575C46.1593 101.445 46.7065 102.309 47.5779 102.505C48.4494 102.702 49.3152 102.155 49.5118 101.286Z" fill="url(#paint10_radial_8_76359)" style="mix-blend-mode:screen"/>
<path d="M48.3782 100.934C48.3782 101.021 48.3524 101.106 48.3042 101.178C48.2559 101.25 48.1873 101.306 48.107 101.339C48.0267 101.373 47.9383 101.381 47.8531 101.364C47.7679 101.348 47.6896 101.306 47.6281 101.244C47.5667 101.183 47.5248 101.105 47.5079 101.02C47.4909 100.935 47.4996 100.847 47.5329 100.766C47.5662 100.686 47.6225 100.618 47.6947 100.57C47.767 100.521 47.8519 100.496 47.9388 100.496C48.0554 100.496 48.1671 100.542 48.2495 100.624C48.3319 100.706 48.3782 100.818 48.3782 100.934Z" fill="#89FF00"/>
<path d="M31.0235 123.571C31.4166 121.831 30.3223 120.103 28.5794 119.711C26.8365 119.318 25.1049 120.41 24.7118 122.15C24.3187 123.89 25.4129 125.618 27.1559 126.011C28.8988 126.403 30.6304 125.311 31.0235 123.571Z" fill="url(#paint11_radial_8_76359)" style="mix-blend-mode:screen"/>
<path d="M28.7564 122.869C28.7564 123.042 28.7049 123.212 28.6083 123.356C28.5118 123.5 28.3745 123.613 28.214 123.679C28.0534 123.745 27.8767 123.763 27.7062 123.729C27.5358 123.695 27.3792 123.612 27.2563 123.489C27.1334 123.366 27.0497 123.21 27.0158 123.04C26.9819 122.87 26.9993 122.693 27.0658 122.533C27.1323 122.373 27.2449 122.236 27.3895 122.139C27.534 122.043 27.7039 121.991 27.8777 121.991C28.1107 121.991 28.3342 122.084 28.499 122.248C28.6638 122.413 28.7564 122.636 28.7564 122.869Z" fill="#89FF00"/>
<path d="M20.0235 82.5712C20.4166 80.8314 19.3223 79.1029 17.5794 78.7105C15.8365 78.3181 14.1049 79.4104 13.7118 81.1502C13.3187 82.8899 14.4129 84.6184 16.1559 85.0108C17.8988 85.4032 19.6304 84.3109 20.0235 82.5712Z" fill="url(#paint12_radial_8_76359)" style="mix-blend-mode:screen"/>
<path d="M17.7564 81.8686C17.7564 82.0421 17.7049 82.2117 17.6083 82.3559C17.5118 82.5002 17.3745 82.6126 17.214 82.679C17.0534 82.7454 16.8767 82.7627 16.7062 82.7289C16.5358 82.6951 16.3792 82.6115 16.2563 82.4888C16.1334 82.3662 16.0497 82.2099 16.0158 82.0397C15.9819 81.8696 15.9993 81.6932 16.0658 81.5329C16.1323 81.3726 16.2449 81.2356 16.3895 81.1392C16.534 81.0428 16.7039 80.9914 16.8777 80.9914C17.1107 80.9914 17.3342 81.0838 17.499 81.2483C17.6638 81.4128 17.7564 81.6359 17.7564 81.8686Z" fill="#89FF00"/>
<path d="M246.666 274.799C247.766 269.928 244.703 265.088 239.822 263.989C234.942 262.891 230.094 265.949 228.993 270.82C227.892 275.692 230.956 280.532 235.836 281.63C240.717 282.729 245.565 279.671 246.666 274.799Z" fill="url(#paint13_radial_8_76359)" style="mix-blend-mode:screen"/>
<path d="M240.318 272.832C240.318 273.318 240.174 273.793 239.903 274.197C239.633 274.6 239.249 274.915 238.799 275.101C238.35 275.287 237.855 275.336 237.377 275.241C236.9 275.146 236.462 274.912 236.118 274.569C235.774 274.225 235.539 273.788 235.444 273.311C235.349 272.835 235.398 272.341 235.584 271.892C235.77 271.443 236.086 271.06 236.491 270.79C236.895 270.52 237.371 270.376 237.858 270.376C238.51 270.376 239.136 270.635 239.597 271.095C240.059 271.556 240.318 272.181 240.318 272.832Z" fill="#89FF00"/>
<path d="M259.916 260.2C260.192 258.982 259.426 257.772 258.206 257.497C256.986 257.223 255.773 257.987 255.498 259.205C255.223 260.423 255.989 261.633 257.209 261.908C258.429 262.182 259.641 261.418 259.916 260.2Z" fill="url(#paint14_radial_8_76359)" style="mix-blend-mode:screen"/>
<path d="M258.33 259.708C258.33 259.829 258.293 259.948 258.226 260.049C258.158 260.15 258.062 260.229 257.95 260.275C257.837 260.322 257.714 260.334 257.594 260.31C257.475 260.287 257.365 260.228 257.279 260.142C257.193 260.056 257.135 259.947 257.111 259.828C257.087 259.709 257.1 259.585 257.146 259.473C257.193 259.361 257.271 259.265 257.373 259.197C257.474 259.13 257.593 259.094 257.714 259.094C257.878 259.094 258.034 259.159 258.149 259.274C258.265 259.389 258.33 259.545 258.33 259.708Z" fill="#89FF00"/>
<path d="M271.896 279.091C272.506 276.392 270.808 273.711 268.104 273.102C265.4 272.493 262.714 274.188 262.104 276.887C261.494 279.586 263.192 282.267 265.896 282.876C268.6 283.485 271.286 281.79 271.896 279.091Z" fill="url(#paint15_radial_8_76359)" style="mix-blend-mode:screen"/>
<path d="M268.379 278.001C268.379 278.271 268.299 278.534 268.149 278.758C267.999 278.981 267.786 279.156 267.537 279.259C267.288 279.362 267.014 279.389 266.75 279.336C266.485 279.284 266.242 279.154 266.052 278.964C265.861 278.773 265.731 278.531 265.679 278.267C265.626 278.003 265.653 277.729 265.756 277.481C265.859 277.232 266.034 277.02 266.258 276.87C266.482 276.721 266.746 276.641 267.016 276.641C267.377 276.641 267.724 276.784 267.98 277.039C268.235 277.294 268.379 277.641 268.379 278.001Z" fill="#89FF00"/>
<path d="M252.441 292.24C252.634 291.387 252.098 290.54 251.244 290.348C250.39 290.156 249.541 290.691 249.349 291.544C249.156 292.396 249.692 293.243 250.546 293.435C251.4 293.628 252.249 293.092 252.441 292.24Z" fill="url(#paint16_radial_8_76359)" style="mix-blend-mode:screen"/>
<path d="M251.331 291.896C251.331 291.981 251.305 292.064 251.258 292.134C251.211 292.205 251.143 292.26 251.065 292.293C250.986 292.325 250.9 292.334 250.816 292.317C250.732 292.301 250.656 292.26 250.596 292.199C250.535 292.139 250.494 292.063 250.478 291.979C250.461 291.896 250.47 291.81 250.502 291.731C250.535 291.653 250.59 291.585 250.661 291.538C250.732 291.491 250.815 291.466 250.9 291.466C251.014 291.466 251.124 291.511 251.204 291.592C251.285 291.672 251.331 291.782 251.331 291.896Z" fill="#89FF00"/>
<path d="M216.833 283.4C217.383 280.964 215.851 278.544 213.411 277.995C210.971 277.445 208.547 278.975 207.996 281.41C207.446 283.846 208.978 286.266 211.418 286.815C213.858 287.364 216.283 285.835 216.833 283.4Z" fill="url(#paint17_radial_8_76359)" style="mix-blend-mode:screen"/>
<path d="M213.659 282.416C213.659 282.659 213.587 282.896 213.452 283.098C213.316 283.3 213.124 283.458 212.9 283.551C212.675 283.644 212.427 283.668 212.189 283.62C211.95 283.573 211.731 283.456 211.559 283.284C211.387 283.113 211.27 282.894 211.222 282.656C211.175 282.417 211.199 282.17 211.292 281.946C211.385 281.722 211.543 281.53 211.745 281.395C211.948 281.26 212.185 281.188 212.429 281.188C212.755 281.188 213.068 281.317 213.299 281.548C213.529 281.778 213.659 282.09 213.659 282.416Z" fill="#89FF00"/>
</g>
<defs>
<linearGradient id="paint0_linear_8_76359" x1="255.701" y1="102.021" x2="53.4201" y2="171.652" gradientUnits="userSpaceOnUse">
<stop stop-color="#6D1FD6"/>
<stop offset="0.38" stop-color="#501F9E"/>
<stop offset="1" stop-color="#1E1F3D"/>
</linearGradient>
<linearGradient id="paint1_linear_8_76359" x1="221.485" y1="254.342" x2="202.62" y2="202.511" gradientUnits="userSpaceOnUse">
<stop stop-color="white"/>
<stop offset="0.13" stop-color="#DEDDE4"/>
<stop offset="0.45" stop-color="#928DA7"/>
<stop offset="0.71" stop-color="#5A537A"/>
<stop offset="0.9" stop-color="#372F5E"/>
<stop offset="1" stop-color="#2A2153"/>
</linearGradient>
<linearGradient id="paint2_linear_8_76359" x1="197.785" y1="199.647" x2="163.044" y2="104.198" gradientUnits="userSpaceOnUse">
<stop stop-color="white"/>
<stop offset="0.13" stop-color="#DEDDE4"/>
<stop offset="0.45" stop-color="#928DA7"/>
<stop offset="0.71" stop-color="#5A537A"/>
<stop offset="0.9" stop-color="#372F5E"/>
<stop offset="1" stop-color="#2A2153"/>
</linearGradient>
<linearGradient id="paint3_linear_8_76359" x1="167.517" y1="257.443" x2="147.408" y2="202.192" gradientUnits="userSpaceOnUse">
<stop stop-color="white"/>
<stop offset="0.13" stop-color="#DEDDE4"/>
<stop offset="0.45" stop-color="#928DA7"/>
<stop offset="0.71" stop-color="#5A537A"/>
<stop offset="0.9" stop-color="#372F5E"/>
<stop offset="1" stop-color="#2A2153"/>
</linearGradient>
<radialGradient id="paint4_radial_8_76359" cx="0" cy="0" r="1" gradientUnits="userSpaceOnUse" gradientTransform="translate(49.6476 136.678) scale(8.08783 8.07325)">
<stop stop-color="#00FF00"/>
<stop offset="0.1" stop-color="#00D700"/>
<stop offset="0.29" stop-color="#009700"/>
<stop offset="1" stop-color="#009700" stop-opacity="0"/>
</radialGradient>
<radialGradient id="paint5_radial_8_76359" cx="0" cy="0" r="1" gradientUnits="userSpaceOnUse" gradientTransform="translate(14.6476 107.678) scale(8.08783 8.07325)">
<stop stop-color="#00FF00"/>
<stop offset="0.1" stop-color="#00D700"/>
<stop offset="0.29" stop-color="#009700"/>
<stop offset="1" stop-color="#009700" stop-opacity="0"/>
</radialGradient>
<radialGradient id="paint6_radial_8_76359" cx="0" cy="0" r="1" gradientUnits="userSpaceOnUse" gradientTransform="translate(88.6476 154.678) scale(8.08783 8.07325)">
<stop stop-color="#00FF00"/>
<stop offset="0.1" stop-color="#00D700"/>
<stop offset="0.29" stop-color="#009700"/>
<stop offset="1" stop-color="#009700" stop-opacity="0"/>
</radialGradient>
<radialGradient id="paint7_radial_8_76359" cx="0" cy="0" r="1" gradientUnits="userSpaceOnUse" gradientTransform="translate(10.6584 152.665) scale(4.04391 4.03662)">
<stop stop-color="#00FF00"/>
<stop offset="0.1" stop-color="#00D700"/>
<stop offset="0.29" stop-color="#009700"/>
<stop offset="1" stop-color="#009700" stop-opacity="0"/>
</radialGradient>
<radialGradient id="paint8_radial_8_76359" cx="0" cy="0" r="1" gradientUnits="userSpaceOnUse" gradientTransform="translate(58.859 119.871) scale(3.23513 3.22929)">
<stop stop-color="#00FF00"/>
<stop offset="0.1" stop-color="#00D700"/>
<stop offset="0.29" stop-color="#009700"/>
<stop offset="1" stop-color="#009700" stop-opacity="0"/>
</radialGradient>
<radialGradient id="paint9_radial_8_76359" cx="0" cy="0" r="1" gradientUnits="userSpaceOnUse" gradientTransform="translate(58.859 162.871) scale(3.23513 3.22929)">
<stop stop-color="#00FF00"/>
<stop offset="0.1" stop-color="#00D700"/>
<stop offset="0.29" stop-color="#009700"/>
<stop offset="1" stop-color="#009700" stop-opacity="0"/>
</radialGradient>
<radialGradient id="paint10_radial_8_76359" cx="0" cy="0" r="1" gradientUnits="userSpaceOnUse" gradientTransform="translate(47.9295 100.936) scale(1.61757 1.61465)">
<stop stop-color="#00FF00"/>
<stop offset="0.1" stop-color="#00D700"/>
<stop offset="0.29" stop-color="#009700"/>
<stop offset="1" stop-color="#009700" stop-opacity="0"/>
</radialGradient>
<radialGradient id="paint11_radial_8_76359" cx="0" cy="0" r="1" gradientUnits="userSpaceOnUse" gradientTransform="translate(27.859 122.871) scale(3.23513 3.22929)">
<stop stop-color="#00FF00"/>
<stop offset="0.1" stop-color="#00D700"/>
<stop offset="0.29" stop-color="#009700"/>
<stop offset="1" stop-color="#009700" stop-opacity="0"/>
</radialGradient>
<radialGradient id="paint12_radial_8_76359" cx="0" cy="0" r="1" gradientUnits="userSpaceOnUse" gradientTransform="translate(16.859 81.8714) scale(3.23513 3.22929)">
<stop stop-color="#00FF00"/>
<stop offset="0.1" stop-color="#00D700"/>
<stop offset="0.29" stop-color="#009700"/>
<stop offset="1" stop-color="#009700" stop-opacity="0"/>
</radialGradient>
<radialGradient id="paint13_radial_8_76359" cx="0" cy="0" r="1" gradientUnits="userSpaceOnUse" gradientTransform="translate(237.805 272.84) scale(9.05836 9.04202)">
<stop stop-color="#00FF00"/>
<stop offset="0.1" stop-color="#00D700"/>
<stop offset="0.29" stop-color="#009700"/>
<stop offset="1" stop-color="#009700" stop-opacity="0"/>
</radialGradient>
<radialGradient id="paint14_radial_8_76359" cx="0" cy="0" r="1" gradientUnits="userSpaceOnUse" gradientTransform="translate(257.701 259.71) scale(2.26458 2.2605)">
<stop stop-color="#00FF00"/>
<stop offset="0.1" stop-color="#00D700"/>
<stop offset="0.29" stop-color="#009700"/>
<stop offset="1" stop-color="#009700" stop-opacity="0"/>
</radialGradient>
<radialGradient id="paint15_radial_8_76359" cx="0" cy="0" r="1" gradientUnits="userSpaceOnUse" gradientTransform="translate(266.987 278.006) scale(5.01877 5.00972)">
<stop stop-color="#00FF00"/>
<stop offset="0.1" stop-color="#00D700"/>
<stop offset="0.29" stop-color="#009700"/>
<stop offset="1" stop-color="#009700" stop-opacity="0"/>
</radialGradient>
<radialGradient id="paint16_radial_8_76359" cx="0" cy="0" r="1" gradientUnits="userSpaceOnUse" gradientTransform="translate(250.891 291.897) scale(1.58519 1.58233)">
<stop stop-color="#00FF00"/>
<stop offset="0.1" stop-color="#00D700"/>
<stop offset="0.29" stop-color="#009700"/>
<stop offset="1" stop-color="#009700" stop-opacity="0"/>
</radialGradient>
<radialGradient id="paint17_radial_8_76359" cx="0" cy="0" r="1" gradientUnits="userSpaceOnUse" gradientTransform="translate(212.403 282.42) scale(4.52917 4.521)">
<stop stop-color="#00FF00"/>
<stop offset="0.1" stop-color="#00D700"/>
<stop offset="0.29" stop-color="#009700"/>
<stop offset="1" stop-color="#009700" stop-opacity="0"/>
</radialGradient>
<clipPath id="clip0_8_76359">
<rect width="300" height="300" fill="white"/>
</clipPath>
</defs>
</svg>
