<svg width="1920" height="1080" viewBox="0 0 1920 1080" fill="none" xmlns="http://www.w3.org/2000/svg">
<g clip-path="url(#clip0_27_54756)">
<g style="mix-blend-mode:screen" opacity="0.07">
<path d="M272.219 427.23C272.219 427.23 132.339 222.975 454.462 317.244C776.585 411.512 468.83 256.586 468.83 256.586H164.971C164.971 256.586 90.7352 270.109 171.785 319.198C252.836 368.287 -0.0666331 229.837 -31 321.173V373.214C7.78661 337.669 116.273 269.91 272.219 427.23Z" fill="url(#paint0_linear_27_54756)"/>
<path d="M104.483 618.579C136.156 679.317 27.7894 646.166 -31 602.981V689.63C1.90895 699.182 35.8661 704.675 70.1129 705.986C294.22 714.802 104.483 618.579 104.483 618.579Z" fill="url(#paint1_linear_27_54756)"/>
<path d="M203.478 777.395C268.102 645.747 614.564 749.47 614.564 749.47C614.564 749.47 428.964 684.523 467.531 643.972C506.098 603.42 638.024 631.345 646.277 661.924C654.53 692.502 552.777 668.227 552.777 668.227C598.138 696.152 746.61 731.318 662.683 647.502C578.755 563.686 823.544 675.428 823.544 675.428C823.544 675.428 536.252 446.04 837.292 519.504C1317.14 636.671 884.052 689.849 884.052 689.849C884.052 689.849 1355.65 661.924 897.8 519.504C439.955 377.084 895.043 436.565 844.167 353.646C793.29 270.728 587.068 309.564 587.068 309.564C587.068 309.564 701.19 348.321 691.558 376.266C681.926 404.212 324.454 380.774 505.958 440.295C687.461 499.816 621.438 596.239 529.318 603.44C437.197 610.641 362.961 553.872 362.961 553.872C362.961 553.872 428.904 622.369 343.717 622.369C258.531 622.369 252.976 545.754 137.475 491.678C65.377 457.908 4.54939 457.868 -31 462.616V535.84C109.859 504.264 254.354 657.515 197.983 731.438C163.552 776.558 51.2692 756.172 -31 733.433V765.208C51.1892 812.582 164.092 857.561 203.478 777.395Z" fill="url(#paint2_linear_27_54756)"/>
<path d="M272.219 427.23C272.219 427.23 132.339 222.975 454.462 317.244C776.585 411.512 468.83 256.586 468.83 256.586H164.971C164.971 256.586 90.7352 270.109 171.785 319.198C252.836 368.287 -0.0666331 229.837 -31 321.173V373.214C7.78661 337.669 116.273 269.91 272.219 427.23Z" fill="url(#paint3_linear_27_54756)"/>
<path d="M1807.28 624.862C1844.37 619.636 1880.39 609.863 1909.19 596.398V450.667C1873.8 427.449 1821.27 402.795 1747.55 377.403C1392.73 255.149 1850.58 336.173 1850.58 336.173C1850.58 336.173 1436.06 210.588 1500 322.609C1500 322.609 1042.16 239.032 1213.33 371.598C1384.5 504.165 1423.69 565.96 1260.85 517.329C1098.01 468.699 1060.8 367.091 1215.47 427.569C1215.47 427.569 807.138 224.292 988.622 431.977C1107.66 568.214 1392.83 586.644 1446.45 517.409C1500.06 448.174 1198.9 353.846 1411.32 345.009C1623.74 336.173 2106.32 538.034 1720.67 583.633C1396.59 621.99 1778.78 697.788 1909.11 721.026V716.139C1833.27 692.821 1687.76 641.757 1807.28 624.862Z" fill="url(#paint4_linear_27_54756)"/>
<path d="M1476.04 623.606C1481.7 551.439 1664.24 567.635 1664.24 567.635C1664.24 567.635 1486.87 486.632 1550.8 454.258C1614.72 421.884 1730.22 479.311 1695.17 502.868C1660.12 526.425 1606.55 489.584 1606.55 489.584C1606.55 489.584 1610.55 524.072 1724.05 529.338C1837.55 534.604 1740.53 451.286 1530.22 410.036C1369.13 378.46 1466.85 470.375 1521.46 515.175C1506.24 511.984 1488.31 523.035 1476.08 577.948C1456.1 667.828 1306.23 630.986 1244.86 611.857C1314.14 635.794 1495.29 702.436 1460.1 731.159C1416.79 766.505 1138.37 625.102 1272.44 747.356C1406.5 869.61 1920 807.755 1920 807.755C1920 807.755 1470.37 695.793 1476.04 623.606Z" fill="url(#paint5_linear_27_54756)"/>
<path d="M272.219 427.23C272.219 427.23 132.339 222.975 454.462 317.244C776.585 411.512 468.83 256.586 468.83 256.586H164.971C164.971 256.586 90.7352 270.109 171.785 319.198C252.836 368.287 -0.0666342 229.837 -31 321.173V373.214C7.7866 337.669 116.273 269.91 272.219 427.23Z" fill="url(#paint6_linear_27_54756)"/>
</g>
</g>
<defs>
<linearGradient id="paint0_linear_27_54756" x1="285.228" y1="427.23" x2="285.228" y2="256.586" gradientUnits="userSpaceOnUse">
<stop stop-color="#00FFB1"/>
<stop offset="0.09" stop-color="#00F9AD"/>
<stop offset="0.22" stop-color="#00E7A1"/>
<stop offset="0.36" stop-color="#00CB8D"/>
<stop offset="0.52" stop-color="#00A371"/>
<stop offset="0.69" stop-color="#006F4D"/>
<stop offset="0.87" stop-color="#003222"/>
<stop offset="1"/>
</linearGradient>
<linearGradient id="paint1_linear_27_54756" x1="74.2294" y1="706.545" x2="74.2294" y2="602.981" gradientUnits="userSpaceOnUse">
<stop stop-color="#00FFB1"/>
<stop offset="0.09" stop-color="#00F9AD"/>
<stop offset="0.22" stop-color="#00E7A1"/>
<stop offset="0.36" stop-color="#00CB8D"/>
<stop offset="0.52" stop-color="#00A371"/>
<stop offset="0.69" stop-color="#006F4D"/>
<stop offset="0.87" stop-color="#003222"/>
<stop offset="1"/>
</linearGradient>
<linearGradient id="paint2_linear_27_54756" x1="533.394" y1="821.378" x2="533.394" y2="300.508" gradientUnits="userSpaceOnUse">
<stop stop-color="#00FFB1"/>
<stop offset="0.09" stop-color="#00F9AD"/>
<stop offset="0.22" stop-color="#00E7A1"/>
<stop offset="0.36" stop-color="#00CB8D"/>
<stop offset="0.52" stop-color="#00A371"/>
<stop offset="0.69" stop-color="#006F4D"/>
<stop offset="0.87" stop-color="#003222"/>
<stop offset="1"/>
</linearGradient>
<linearGradient id="paint3_linear_27_54756" x1="285.228" y1="427.23" x2="285.228" y2="256.586" gradientUnits="userSpaceOnUse">
<stop stop-color="#00FFB1"/>
<stop offset="0.09" stop-color="#00F9AD"/>
<stop offset="0.22" stop-color="#00E7A1"/>
<stop offset="0.36" stop-color="#00CB8D"/>
<stop offset="0.52" stop-color="#00A371"/>
<stop offset="0.69" stop-color="#006F4D"/>
<stop offset="0.87" stop-color="#003222"/>
<stop offset="1"/>
</linearGradient>
<linearGradient id="paint4_linear_27_54756" x1="1425.59" y1="721.026" x2="1425.59" y2="276.093" gradientUnits="userSpaceOnUse">
<stop stop-color="#00FFB1"/>
<stop offset="0.09" stop-color="#00F9AD"/>
<stop offset="0.22" stop-color="#00E7A1"/>
<stop offset="0.36" stop-color="#00CB8D"/>
<stop offset="0.52" stop-color="#00A371"/>
<stop offset="0.69" stop-color="#006F4D"/>
<stop offset="0.87" stop-color="#003222"/>
<stop offset="1"/>
</linearGradient>
<linearGradient id="paint5_linear_27_54756" x1="1578.09" y1="823.373" x2="1578.09" y2="403.573" gradientUnits="userSpaceOnUse">
<stop stop-color="#00FFB1"/>
<stop offset="0.09" stop-color="#00F9AD"/>
<stop offset="0.22" stop-color="#00E7A1"/>
<stop offset="0.36" stop-color="#00CB8D"/>
<stop offset="0.52" stop-color="#00A371"/>
<stop offset="0.69" stop-color="#006F4D"/>
<stop offset="0.87" stop-color="#003222"/>
<stop offset="1"/>
</linearGradient>
<linearGradient id="paint6_linear_27_54756" x1="285.228" y1="427.23" x2="285.228" y2="256.586" gradientUnits="userSpaceOnUse">
<stop stop-color="#00FFB1"/>
<stop offset="0.09" stop-color="#00F9AD"/>
<stop offset="0.22" stop-color="#00E7A1"/>
<stop offset="0.36" stop-color="#00CB8D"/>
<stop offset="0.52" stop-color="#00A371"/>
<stop offset="0.69" stop-color="#006F4D"/>
<stop offset="0.87" stop-color="#003222"/>
<stop offset="1"/>
</linearGradient>
<clipPath id="clip0_27_54756">
<rect width="1920" height="1080" fill="white"/>
</clipPath>
</defs>
</svg>
