<svg width="300" height="300" viewBox="0 0 300 300" fill="none" xmlns="http://www.w3.org/2000/svg">
<path d="M277.534 69.5395L171.379 31.7173L172.757 45.0998L135.965 35.6955L150.016 30.4009L79.085 15L24.0954 46.4454L5.99988 66.9507L30.176 165.631L49.9565 175.43L58.9089 211.644L72.9458 229.706L91.7445 281.774L110.719 268.041L132.624 215.007L135.965 223.037L132.624 273.145L144.097 281.774L187.922 234.226L205.607 192.221L223.805 186.195L237.094 150.771L272.89 116.986L292.025 85.233L277.534 69.5395Z" fill="#89FF00"/>
<path d="M280.509 72.2746L174.354 34.4523L175.731 47.8349L138.939 38.4305L153.006 33.136L82.0597 17.735L27.07 49.1805L8.97449 69.6858L33.1506 168.366L52.9311 178.18L61.8836 214.379L75.9204 232.441L94.7191 284.509L113.708 270.776L135.599 217.742L138.939 225.772L135.599 275.88L147.071 284.509L190.896 236.961L208.581 194.97L226.779 188.93L240.069 153.506L275.864 119.721L295 87.968L280.509 72.2746Z" fill="#6D1FD6"/>
<path d="M82.0597 17.735L73.1511 140.094L83.7886 144.453L102.646 221.37L116.023 232.032L113.708 270.776L135.599 217.742L162.368 164.475L168.258 197.34L147.071 284.509L190.896 236.961L208.581 194.97L211.878 171.905L240.069 153.506L275.864 119.721L295 87.968L280.509 72.2746L174.354 34.4523L200.816 56.6104L188.391 70.8559L175.731 47.8349L138.939 38.4305L153.006 33.136L82.0597 17.735Z" fill="url(#paint0_linear_37_55229)"/>
<path d="M82.0601 17.735L34.455 57.9852L34.6895 113.826L78.8512 61.8025L74.9098 115.991L41.2097 149.133L44.7849 157.923L73.1515 140.094L33.151 168.366L8.9749 69.6858L27.0704 49.1805L82.0601 17.735Z" fill="#873BFF"/>
<path style="mix-blend-mode:multiply" opacity="0.33" d="M295 87.968L218.149 96.056L200.816 56.6103L188.391 70.8558L138.602 65.766L131.482 43.9298L138.94 38.4304L153.006 33.1359L115.848 37.2019L94.9096 73.7956L87.437 123.523L127.071 149.133L126.573 198.319L158.573 148.241L174.002 155.393L182.764 189.763L208.581 194.97L211.878 171.905L227.087 145.082L240.069 153.506L261.432 111.574L275.864 119.72L295 87.968Z" fill="url(#paint1_linear_37_55229)"/>
<path d="M52.9313 178.18L87.7596 160.643L90.8219 173.105L57.9131 198.319L52.9313 178.18Z" fill="#873BFF"/>
<path d="M60.1255 207.241L92.668 180.608L94.2798 187.233L61.8838 214.379L60.1255 207.241Z" fill="#873BFF"/>
<path d="M75.9203 232.442L102.646 221.37L100.741 213.604L75.9203 232.442Z" fill="#873BFF"/>
<path d="M116.023 232.032L82.5139 250.694L86.5579 261.898L115.73 237.063L116.023 232.032Z" fill="#873BFF"/>
<path d="M115.452 241.656L87.6569 264.94L94.7192 284.509L105.796 276.494L96.8438 279.756L94.2796 266.987L115.452 241.656Z" fill="#873BFF"/>
<path d="M93.5327 264.033L87.4373 260.069L84.5069 250.08L81.43 229.575L62.2942 212.287L61.1073 194.488L61.5762 176.98L34.9532 167.181L33.151 168.366L52.9314 178.18L57.9132 198.319L60.1257 207.241L61.8839 214.379L75.9207 232.441L86.5582 261.898L94.7195 284.509L93.5327 264.033Z" fill="#873BFF"/>
<path d="M138.603 211.746L135.599 217.742L138.94 225.772L135.599 275.88L147.071 284.509L138.603 275.543L143.115 240.895L160.713 228.39L161.914 223.461L144.405 232.032L141.342 225.64L168.259 197.339L139.76 220.287L138.603 211.746Z" fill="#873BFF"/>
<path d="M213.953 23.1423C213.167 19.6627 215.355 16.2058 218.841 15.421C222.327 14.6362 225.79 16.8207 226.576 20.3003C227.363 23.7799 225.174 27.2368 221.688 28.0216C218.202 28.8064 214.739 26.6219 213.953 23.1423Z" fill="url(#paint2_radial_37_55229)" style="mix-blend-mode:screen"/>
<path d="M218.487 21.7372C218.487 22.0841 218.59 22.4233 218.783 22.7118C218.976 23.0003 219.251 23.2252 219.572 23.358C219.893 23.4908 220.247 23.5255 220.588 23.4578C220.928 23.3901 221.242 23.223 221.487 22.9777C221.733 22.7323 221.901 22.4197 221.968 22.0794C222.036 21.7391 222.001 21.3863 221.868 21.0658C221.735 20.7452 221.51 20.4712 221.221 20.2785C220.932 20.0857 220.592 19.9828 220.245 19.9828C219.779 19.9828 219.332 20.1676 219.002 20.4966C218.672 20.8256 218.487 21.2719 218.487 21.7372Z" fill="#89FF00"/>
<path d="M241.441 51.4279C240.458 47.0785 243.194 42.7572 247.551 41.7763C251.909 40.7953 256.238 43.526 257.221 47.8754C258.203 52.2249 255.468 56.5461 251.11 57.5271C246.753 58.5081 242.424 55.7774 241.441 51.4279Z" fill="url(#paint3_radial_37_55229)" style="mix-blend-mode:screen"/>
<path d="M247.109 49.6715C247.109 50.1052 247.238 50.5292 247.479 50.8898C247.721 51.2504 248.064 51.5315 248.465 51.6975C248.866 51.8635 249.308 51.9069 249.734 51.8223C250.161 51.7377 250.552 51.5288 250.859 51.2221C251.166 50.9154 251.376 50.5247 251.46 50.0993C251.545 49.6739 251.502 49.233 251.335 48.8323C251.169 48.4316 250.888 48.0891 250.526 47.8481C250.165 47.6071 249.74 47.4785 249.306 47.4785C248.723 47.4785 248.164 47.7096 247.752 48.1208C247.34 48.5321 247.109 49.0899 247.109 49.6715Z" fill="#89FF00"/>
<path d="M35.2851 225.138C33.9092 219.049 37.7391 212.999 43.8394 211.626C49.9396 210.253 56.0002 214.076 57.3761 220.165C58.7519 226.254 54.9221 232.304 48.8218 233.677C42.7216 235.051 36.661 231.228 35.2851 225.138Z" fill="url(#paint4_radial_37_55229)" style="mix-blend-mode:screen"/>
<path d="M43.2197 222.679C43.2197 223.287 43.4001 223.88 43.7381 224.385C44.0761 224.89 44.5564 225.283 45.1184 225.516C45.6804 225.748 46.2988 225.809 46.8955 225.691C47.4921 225.572 48.0401 225.28 48.4703 224.85C48.9004 224.421 49.1933 223.874 49.312 223.278C49.4307 222.683 49.3698 222.065 49.137 221.504C48.9042 220.943 48.51 220.464 48.0042 220.127C47.4984 219.789 46.9037 219.609 46.2954 219.609C45.4797 219.609 44.6974 219.933 44.1206 220.508C43.5438 221.084 43.2197 221.865 43.2197 222.679Z" fill="#89FF00"/>
<path d="M4.78667 248.506C3.71349 243.756 6.70079 239.037 11.459 237.966C16.2172 236.895 20.9445 239.877 22.0177 244.626C23.0908 249.376 20.1035 254.095 15.3453 255.166C10.5871 256.237 5.85985 253.255 4.78667 248.506Z" fill="url(#paint5_radial_37_55229)" style="mix-blend-mode:screen"/>
<path d="M10.9757 246.588C10.9757 247.061 11.1165 247.524 11.3801 247.918C11.6437 248.312 12.0183 248.619 12.4567 248.8C12.8951 248.981 13.3774 249.029 13.8428 248.936C14.3082 248.844 14.7356 248.616 15.0712 248.281C15.4067 247.946 15.6351 247.519 15.7277 247.055C15.8203 246.59 15.7728 246.109 15.5912 245.671C15.4096 245.234 15.1021 244.86 14.7076 244.596C14.3131 244.333 13.8493 244.193 13.3748 244.193C12.7385 244.193 12.1283 244.445 11.6784 244.894C11.2285 245.343 10.9757 245.952 10.9757 246.588Z" fill="#89FF00"/>
<path d="M44.3342 267.799C43.2335 262.928 46.2974 258.088 51.1776 256.989C56.0578 255.891 60.9063 258.949 62.007 263.82C63.1077 268.692 60.0438 273.532 55.1636 274.63C50.2834 275.729 45.4349 272.671 44.3342 267.799Z" fill="url(#paint6_radial_37_55229)" style="mix-blend-mode:screen"/>
<path d="M50.6819 265.832C50.6819 266.318 50.8263 266.793 51.0966 267.197C51.367 267.6 51.7513 267.915 52.2009 268.101C52.6505 268.287 53.1452 268.336 53.6225 268.241C54.0998 268.146 54.5382 267.912 54.8824 267.569C55.2265 267.225 55.4608 266.788 55.5557 266.311C55.6507 265.835 55.602 265.341 55.4157 264.892C55.2295 264.443 54.9141 264.06 54.5095 263.79C54.1049 263.52 53.6291 263.376 53.1425 263.376C52.4899 263.376 51.8641 263.635 51.4026 264.095C50.9412 264.556 50.6819 265.181 50.6819 265.832Z" fill="#89FF00"/>
<path d="M75.7523 271.805C75.202 269.369 76.7339 266.949 79.174 266.4C81.6141 265.85 84.0384 267.379 84.5887 269.815C85.1391 272.251 83.6071 274.671 81.167 275.22C78.7269 275.769 76.3027 274.24 75.7523 271.805Z" fill="url(#paint7_radial_37_55229)" style="mix-blend-mode:screen"/>
<path d="M78.9262 270.821C78.9262 271.064 78.9983 271.301 79.1335 271.503C79.2687 271.705 79.4608 271.863 79.6856 271.955C79.9104 272.048 80.1578 272.073 80.3965 272.025C80.6351 271.978 80.8543 271.861 81.0264 271.689C81.1984 271.518 81.3156 271.299 81.3631 271.06C81.4105 270.822 81.3862 270.575 81.2931 270.351C81.2 270.127 81.0423 269.935 80.8399 269.8C80.6376 269.665 80.3998 269.593 80.1565 269.593C79.8302 269.593 79.5172 269.722 79.2865 269.953C79.0558 270.183 78.9262 270.495 78.9262 270.821Z" fill="#89FF00"/>
<path d="M125.167 253.4C124.617 250.964 126.149 248.544 128.589 247.995C131.029 247.445 133.453 248.975 134.004 251.41C134.554 253.846 133.022 256.266 130.582 256.815C128.142 257.364 125.717 255.835 125.167 253.4Z" fill="url(#paint8_radial_37_55229)" style="mix-blend-mode:screen"/>
<path d="M128.341 252.416C128.341 252.659 128.413 252.896 128.548 253.098C128.684 253.3 128.876 253.458 129.1 253.551C129.325 253.644 129.573 253.668 129.811 253.62C130.05 253.573 130.269 253.456 130.441 253.284C130.613 253.113 130.73 252.894 130.778 252.656C130.825 252.417 130.801 252.17 130.708 251.946C130.615 251.722 130.457 251.53 130.255 251.395C130.052 251.26 129.815 251.188 129.571 251.188C129.245 251.188 128.932 251.317 128.701 251.548C128.471 251.778 128.341 252.09 128.341 252.416Z" fill="#89FF00"/>
<path d="M29.0836 208.2C28.8084 206.982 29.5744 205.772 30.7944 205.497C32.0145 205.223 33.2266 205.987 33.5018 207.205C33.7769 208.423 33.011 209.633 31.7909 209.908C30.5709 210.182 29.3587 209.418 29.0836 208.2Z" fill="url(#paint9_radial_37_55229)" style="mix-blend-mode:screen"/>
<path d="M30.6705 207.708C30.6705 207.829 30.7066 207.948 30.7742 208.049C30.8418 208.15 30.9378 208.229 31.0502 208.275C31.1626 208.322 31.2863 208.334 31.4056 208.31C31.525 208.287 31.6346 208.228 31.7206 208.142C31.8066 208.056 31.8652 207.947 31.8889 207.828C31.9127 207.709 31.9005 207.585 31.8539 207.473C31.8074 207.361 31.7285 207.265 31.6274 207.197C31.5262 207.13 31.4073 207.094 31.2856 207.094C31.1225 207.094 30.966 207.159 30.8507 207.274C30.7353 207.389 30.6705 207.545 30.6705 207.708Z" fill="#89FF00"/>
<path d="M99.0836 290.2C98.8084 288.982 99.5744 287.772 100.794 287.497C102.014 287.223 103.227 287.987 103.502 289.205C103.777 290.423 103.011 291.633 101.791 291.908C100.571 292.182 99.3587 291.418 99.0836 290.2Z" fill="url(#paint10_radial_37_55229)" style="mix-blend-mode:screen"/>
<path d="M100.67 289.708C100.67 289.829 100.707 289.948 100.774 290.049C100.842 290.15 100.938 290.229 101.05 290.275C101.163 290.322 101.286 290.334 101.406 290.31C101.525 290.287 101.635 290.228 101.721 290.142C101.807 290.056 101.865 289.947 101.889 289.828C101.913 289.709 101.9 289.585 101.854 289.473C101.807 289.361 101.729 289.265 101.627 289.197C101.526 289.13 101.407 289.094 101.286 289.094C101.122 289.094 100.966 289.159 100.851 289.274C100.735 289.389 100.67 289.545 100.67 289.708Z" fill="#89FF00"/>
<path d="M98.1998 290.399C97.8146 288.694 98.887 287 100.595 286.615C102.303 286.231 104 287.301 104.385 289.006C104.77 290.711 103.698 292.405 101.99 292.79C100.282 293.174 98.5851 292.104 98.1998 290.399Z" fill="url(#paint11_radial_37_55229)" style="mix-blend-mode:screen"/>
<path d="M100.422 289.71C100.422 289.88 100.472 290.046 100.567 290.188C100.661 290.329 100.796 290.439 100.953 290.504C101.111 290.569 101.284 290.586 101.451 290.553C101.618 290.52 101.771 290.438 101.892 290.318C102.012 290.198 102.094 290.045 102.127 289.878C102.161 289.711 102.144 289.538 102.078 289.381C102.013 289.224 101.903 289.09 101.761 288.995C101.62 288.901 101.453 288.851 101.283 288.851C101.054 288.851 100.835 288.941 100.674 289.102C100.512 289.264 100.422 289.482 100.422 289.71Z" fill="#89FF00"/>
<path d="M31.0836 253.2C30.8084 251.982 31.5744 250.772 32.7944 250.497C34.0145 250.223 35.2266 250.987 35.5018 252.205C35.7769 253.423 35.011 254.633 33.7909 254.908C32.5709 255.182 31.3587 254.418 31.0836 253.2Z" fill="url(#paint12_radial_37_55229)" style="mix-blend-mode:screen"/>
<path d="M32.6705 252.708C32.6705 252.829 32.7066 252.948 32.7742 253.049C32.8418 253.15 32.9378 253.229 33.0502 253.275C33.1626 253.322 33.2863 253.334 33.4056 253.31C33.525 253.287 33.6346 253.228 33.7206 253.142C33.8066 253.056 33.8652 252.947 33.8889 252.828C33.9127 252.709 33.9005 252.585 33.8539 252.473C33.8074 252.361 33.7285 252.265 33.6274 252.197C33.5262 252.13 33.4073 252.094 33.2856 252.094C33.1225 252.094 32.966 252.159 32.8507 252.274C32.7353 252.389 32.6705 252.545 32.6705 252.708Z" fill="#89FF00"/>
<path d="M43.0836 192.2C42.8084 190.982 43.5744 189.772 44.7944 189.497C46.0145 189.223 47.2266 189.987 47.5018 191.205C47.7769 192.423 47.011 193.633 45.7909 193.908C44.5709 194.182 43.3587 193.418 43.0836 192.2Z" fill="url(#paint13_radial_37_55229)" style="mix-blend-mode:screen"/>
<path d="M44.6705 191.708C44.6705 191.829 44.7066 191.948 44.7742 192.049C44.8418 192.15 44.9378 192.229 45.0502 192.275C45.1626 192.322 45.2863 192.334 45.4056 192.31C45.525 192.287 45.6346 192.228 45.7206 192.142C45.8066 192.056 45.8652 191.947 45.8889 191.828C45.9127 191.709 45.9005 191.585 45.8539 191.473C45.8074 191.361 45.7285 191.265 45.6274 191.197C45.5262 191.13 45.4073 191.094 45.2856 191.094C45.1225 191.094 44.966 191.159 44.8507 191.274C44.7353 191.389 44.6705 191.545 44.6705 191.708Z" fill="#89FF00"/>
<path d="M38.5585 285.24C38.3659 284.387 38.9021 283.54 39.7561 283.348C40.6101 283.156 41.4586 283.691 41.6512 284.544C41.8439 285.396 41.3077 286.243 40.4537 286.435C39.5996 286.628 38.7512 286.092 38.5585 285.24Z" fill="url(#paint14_radial_37_55229)" style="mix-blend-mode:screen"/>
<path d="M39.6693 284.896C39.6693 284.981 39.6946 285.064 39.7419 285.134C39.7892 285.205 39.8565 285.26 39.9351 285.293C40.0138 285.325 40.1004 285.334 40.1839 285.317C40.2675 285.301 40.3442 285.26 40.4044 285.199C40.4646 285.139 40.5056 285.063 40.5222 284.979C40.5389 284.896 40.5303 284.81 40.4977 284.731C40.4652 284.653 40.41 284.585 40.3392 284.538C40.2683 284.491 40.1851 284.466 40.0999 284.466C39.9857 284.466 39.8762 284.511 39.7955 284.592C39.7147 284.672 39.6693 284.782 39.6693 284.896Z" fill="#89FF00"/>
<path d="M55.1671 242.4C54.6168 239.964 56.1487 237.544 58.5888 236.995C61.0289 236.445 63.4532 237.975 64.0035 240.41C64.5539 242.846 63.0219 245.266 60.5818 245.815C58.1417 246.364 55.7175 244.835 55.1671 242.4Z" fill="url(#paint15_radial_37_55229)" style="mix-blend-mode:screen"/>
<path d="M58.341 241.416C58.341 241.659 58.4131 241.896 58.5483 242.098C58.6835 242.3 58.8756 242.458 59.1004 242.551C59.3252 242.644 59.5726 242.668 59.8113 242.62C60.0499 242.573 60.2691 242.456 60.4412 242.284C60.6132 242.113 60.7304 241.894 60.7779 241.656C60.8253 241.417 60.801 241.17 60.7079 240.946C60.6148 240.722 60.4571 240.53 60.2547 240.395C60.0524 240.26 59.8146 240.188 59.5712 240.188C59.245 240.188 58.932 240.317 58.7013 240.548C58.4706 240.778 58.341 241.09 58.341 241.416Z" fill="#89FF00"/>
<path d="M14.1671 210.4C13.6168 207.964 15.1487 205.544 17.5888 204.995C20.0289 204.445 22.4532 205.975 23.0035 208.41C23.5539 210.846 22.0219 213.266 19.5818 213.815C17.1417 214.364 14.7175 212.835 14.1671 210.4Z" fill="url(#paint16_radial_37_55229)" style="mix-blend-mode:screen"/>
<path d="M17.341 209.416C17.341 209.659 17.4131 209.896 17.5483 210.098C17.6835 210.3 17.8756 210.458 18.1004 210.551C18.3252 210.644 18.5726 210.668 18.8113 210.62C19.0499 210.573 19.2691 210.456 19.4412 210.284C19.6132 210.113 19.7304 209.894 19.7779 209.656C19.8253 209.417 19.801 209.17 19.7079 208.946C19.6148 208.722 19.4571 208.53 19.2547 208.395C19.0524 208.26 18.8146 208.188 18.5712 208.188C18.245 208.188 17.932 208.317 17.7013 208.548C17.4706 208.778 17.341 209.09 17.341 209.416Z" fill="#89FF00"/>
<path d="M112.263 286.815C111.154 281.905 114.242 277.026 119.162 275.919C124.081 274.811 128.968 277.894 130.077 282.805C131.187 287.715 128.099 292.593 123.179 293.701C118.26 294.808 113.373 291.726 112.263 286.815Z" fill="url(#paint17_radial_37_55229)" style="mix-blend-mode:screen"/>
<path d="M118.662 284.832C118.662 285.322 118.807 285.801 119.08 286.208C119.352 286.615 119.74 286.932 120.193 287.12C120.646 287.307 121.145 287.356 121.626 287.26C122.107 287.165 122.549 286.929 122.896 286.583C123.243 286.237 123.479 285.796 123.575 285.315C123.67 284.835 123.621 284.337 123.434 283.885C123.246 283.432 122.928 283.046 122.52 282.774C122.112 282.502 121.633 282.357 121.142 282.357C120.484 282.357 119.853 282.617 119.388 283.082C118.923 283.546 118.662 284.176 118.662 284.832Z" fill="#89FF00"/>
<path d="M276.441 22.4279C275.458 18.0785 278.194 13.7572 282.551 12.7763C286.909 11.7953 291.238 14.526 292.221 18.8754C293.203 23.2249 290.468 27.5461 286.11 28.5271C281.753 29.5081 277.424 26.7774 276.441 22.4279Z" fill="url(#paint18_radial_37_55229)" style="mix-blend-mode:screen"/>
<path d="M282.109 20.6715C282.109 21.1052 282.238 21.5292 282.479 21.8898C282.721 22.2504 283.064 22.5315 283.465 22.6975C283.866 22.8635 284.308 22.9069 284.734 22.8223C285.161 22.7377 285.552 22.5288 285.859 22.2221C286.166 21.9154 286.376 21.5247 286.46 21.0993C286.545 20.6739 286.502 20.233 286.335 19.8323C286.169 19.4316 285.888 19.0891 285.526 18.8481C285.165 18.6071 284.74 18.4785 284.306 18.4785C283.723 18.4785 283.164 18.7096 282.752 19.1208C282.34 19.5321 282.109 20.0899 282.109 20.6715Z" fill="#89FF00"/>
<path d="M284.386 66.5398C283.895 64.365 285.263 62.2044 287.441 61.7139C289.62 61.2235 291.784 62.5888 292.276 64.7635C292.767 66.9383 291.399 69.0989 289.221 69.5894C287.042 70.0799 284.878 68.7145 284.386 66.5398Z" fill="url(#paint19_radial_37_55229)" style="mix-blend-mode:screen"/>
<path d="M287.22 65.6616C287.22 65.8784 287.285 66.0904 287.405 66.2707C287.526 66.4511 287.697 66.5916 287.898 66.6746C288.099 66.7576 288.32 66.7793 288.533 66.737C288.746 66.6947 288.942 66.5902 289.095 66.4369C289.249 66.2836 289.353 66.0882 289.396 65.8755C289.438 65.6628 289.417 65.4423 289.333 65.242C289.25 65.0416 289.109 64.8704 288.929 64.7499C288.748 64.6294 288.536 64.5651 288.319 64.5651C288.027 64.5651 287.748 64.6806 287.542 64.8862C287.336 65.0919 287.22 65.3708 287.22 65.6616Z" fill="#89FF00"/>
<path d="M236.977 33.5712C236.583 31.8314 237.678 30.1029 239.421 29.7105C241.164 29.3181 242.895 30.4104 243.288 32.1502C243.681 33.8899 242.587 35.6184 240.844 36.0108C239.101 36.4032 237.37 35.3109 236.977 33.5712Z" fill="url(#paint20_radial_37_55229)" style="mix-blend-mode:screen"/>
<path d="M239.243 32.8686C239.243 33.0421 239.295 33.2117 239.392 33.3559C239.488 33.5002 239.625 33.6126 239.786 33.679C239.946 33.7454 240.123 33.7627 240.294 33.7289C240.464 33.6951 240.621 33.6115 240.744 33.4888C240.866 33.3662 240.95 33.2099 240.984 33.0397C241.018 32.8696 241.001 32.6932 240.934 32.5329C240.868 32.3726 240.755 32.2356 240.61 32.1392C240.466 32.0428 240.296 31.9914 240.122 31.9914C239.889 31.9914 239.666 32.0838 239.501 32.2483C239.336 32.4128 239.243 32.6359 239.243 32.8686Z" fill="#89FF00"/>
<path d="M249.488 14.2856C249.292 13.4157 249.839 12.5514 250.71 12.3552C251.582 12.1591 252.448 12.7052 252.644 13.5751C252.841 14.445 252.294 15.3092 251.422 15.5054C250.551 15.7016 249.685 15.1555 249.488 14.2856Z" fill="url(#paint21_radial_37_55229)" style="mix-blend-mode:screen"/>
<path d="M250.622 13.9343C250.622 14.021 250.647 14.1058 250.696 14.178C250.744 14.2501 250.813 14.3063 250.893 14.3395C250.973 14.3727 251.062 14.3814 251.147 14.3645C251.232 14.3475 251.31 14.3058 251.372 14.2444C251.433 14.1831 251.475 14.1049 251.492 14.0199C251.509 13.9348 251.5 13.8466 251.467 13.7664C251.434 13.6863 251.377 13.6178 251.305 13.5696C251.233 13.5214 251.148 13.4957 251.061 13.4957C250.945 13.4957 250.833 13.5419 250.75 13.6242C250.668 13.7064 250.622 13.818 250.622 13.9343Z" fill="#89FF00"/>
<path d="M267.977 36.5712C267.583 34.8314 268.678 33.1029 270.421 32.7105C272.164 32.3181 273.895 33.4104 274.288 35.1502C274.681 36.8899 273.587 38.6184 271.844 39.0108C270.101 39.4032 268.37 38.3109 267.977 36.5712Z" fill="url(#paint22_radial_37_55229)" style="mix-blend-mode:screen"/>
<path d="M270.243 35.8686C270.243 36.0421 270.295 36.2117 270.392 36.3559C270.488 36.5002 270.625 36.6126 270.786 36.679C270.946 36.7454 271.123 36.7627 271.294 36.7289C271.464 36.6951 271.621 36.6115 271.744 36.4888C271.866 36.3662 271.95 36.2099 271.984 36.0397C272.018 35.8696 272.001 35.6932 271.934 35.5329C271.868 35.3726 271.755 35.2356 271.61 35.1392C271.466 35.0428 271.296 34.9914 271.122 34.9914C270.889 34.9914 270.666 35.0838 270.501 35.2483C270.336 35.4128 270.243 35.6359 270.243 35.8686Z" fill="#89FF00"/>
<defs>
<linearGradient id="paint0_linear_37_55229" x1="184.083" y1="284.509" x2="184.083" y2="17.735" gradientUnits="userSpaceOnUse">
<stop stop-color="#6D1FD6"/>
<stop offset="0.21" stop-color="#5F1FBA"/>
<stop offset="0.67" stop-color="#3A1F74"/>
<stop offset="1" stop-color="#291756"/>
</linearGradient>
<linearGradient id="paint1_linear_37_55229" x1="191.219" y1="198.319" x2="191.219" y2="33.1359" gradientUnits="userSpaceOnUse">
<stop stop-color="white"/>
<stop offset="0.15" stop-color="#E3E3E7"/>
<stop offset="0.47" stop-color="#9C9DAA"/>
<stop offset="0.95" stop-color="#2C2D49"/>
<stop offset="1" stop-color="#1E1F3D"/>
</linearGradient>
<radialGradient id="paint2_radial_37_55229" cx="0" cy="0" r="1" gradientUnits="userSpaceOnUse" gradientTransform="translate(220.282 21.7427) rotate(-180) scale(6.47025 6.45859)">
<stop stop-color="#00FF00"/>
<stop offset="0.1" stop-color="#00D700"/>
<stop offset="0.29" stop-color="#009700"/>
<stop offset="1" stop-color="#009700" stop-opacity="0"/>
</radialGradient>
<radialGradient id="paint3_radial_37_55229" cx="0" cy="0" r="1" gradientUnits="userSpaceOnUse" gradientTransform="translate(249.352 49.6785) rotate(-180) scale(8.08783 8.07325)">
<stop stop-color="#00FF00"/>
<stop offset="0.1" stop-color="#00D700"/>
<stop offset="0.29" stop-color="#009700"/>
<stop offset="1" stop-color="#009700" stop-opacity="0"/>
</radialGradient>
<radialGradient id="paint4_radial_37_55229" cx="0" cy="0" r="1" gradientUnits="userSpaceOnUse" gradientTransform="translate(46.3607 222.689) rotate(-180) scale(11.3229 11.3025)">
<stop stop-color="#00FF00"/>
<stop offset="0.1" stop-color="#00D700"/>
<stop offset="0.29" stop-color="#009700"/>
<stop offset="1" stop-color="#009700" stop-opacity="0"/>
</radialGradient>
<radialGradient id="paint5_radial_37_55229" cx="0" cy="0" r="1" gradientUnits="userSpaceOnUse" gradientTransform="translate(13.4257 246.595) rotate(-180) scale(8.83191 8.81598)">
<stop stop-color="#00FF00"/>
<stop offset="0.1" stop-color="#00D700"/>
<stop offset="0.29" stop-color="#009700"/>
<stop offset="1" stop-color="#009700" stop-opacity="0"/>
</radialGradient>
<radialGradient id="paint6_radial_37_55229" cx="0" cy="0" r="1" gradientUnits="userSpaceOnUse" gradientTransform="translate(53.1947 265.84) rotate(-180) scale(9.05836 9.04202)">
<stop stop-color="#00FF00"/>
<stop offset="0.1" stop-color="#00D700"/>
<stop offset="0.29" stop-color="#009700"/>
<stop offset="1" stop-color="#009700" stop-opacity="0"/>
</radialGradient>
<radialGradient id="paint7_radial_37_55229" cx="0" cy="0" r="1" gradientUnits="userSpaceOnUse" gradientTransform="translate(80.1826 270.825) rotate(-180) scale(4.52917 4.521)">
<stop stop-color="#00FF00"/>
<stop offset="0.1" stop-color="#00D700"/>
<stop offset="0.29" stop-color="#009700"/>
<stop offset="1" stop-color="#009700" stop-opacity="0"/>
</radialGradient>
<radialGradient id="paint8_radial_37_55229" cx="0" cy="0" r="1" gradientUnits="userSpaceOnUse" gradientTransform="translate(129.597 252.42) rotate(-180) scale(4.52917 4.521)">
<stop stop-color="#00FF00"/>
<stop offset="0.1" stop-color="#00D700"/>
<stop offset="0.29" stop-color="#009700"/>
<stop offset="1" stop-color="#009700" stop-opacity="0"/>
</radialGradient>
<radialGradient id="paint9_radial_37_55229" cx="0" cy="0" r="1" gradientUnits="userSpaceOnUse" gradientTransform="translate(31.2987 207.71) rotate(-180) scale(2.26458 2.2605)">
<stop stop-color="#00FF00"/>
<stop offset="0.1" stop-color="#00D700"/>
<stop offset="0.29" stop-color="#009700"/>
<stop offset="1" stop-color="#009700" stop-opacity="0"/>
</radialGradient>
<radialGradient id="paint10_radial_37_55229" cx="0" cy="0" r="1" gradientUnits="userSpaceOnUse" gradientTransform="translate(101.299 289.71) rotate(-180) scale(2.26458 2.2605)">
<stop stop-color="#00FF00"/>
<stop offset="0.1" stop-color="#00D700"/>
<stop offset="0.29" stop-color="#009700"/>
<stop offset="1" stop-color="#009700" stop-opacity="0"/>
</radialGradient>
<radialGradient id="paint11_radial_37_55229" cx="0" cy="0" r="1" gradientUnits="userSpaceOnUse" gradientTransform="translate(101.301 289.713) rotate(-180) scale(3.17038 3.16466)">
<stop stop-color="#00FF00"/>
<stop offset="0.1" stop-color="#00D700"/>
<stop offset="0.29" stop-color="#009700"/>
<stop offset="1" stop-color="#009700" stop-opacity="0"/>
</radialGradient>
<radialGradient id="paint12_radial_37_55229" cx="0" cy="0" r="1" gradientUnits="userSpaceOnUse" gradientTransform="translate(33.2987 252.71) rotate(-180) scale(2.26458 2.2605)">
<stop stop-color="#00FF00"/>
<stop offset="0.1" stop-color="#00D700"/>
<stop offset="0.29" stop-color="#009700"/>
<stop offset="1" stop-color="#009700" stop-opacity="0"/>
</radialGradient>
<radialGradient id="paint13_radial_37_55229" cx="0" cy="0" r="1" gradientUnits="userSpaceOnUse" gradientTransform="translate(45.2987 191.71) rotate(-180) scale(2.26458 2.2605)">
<stop stop-color="#00FF00"/>
<stop offset="0.1" stop-color="#00D700"/>
<stop offset="0.29" stop-color="#009700"/>
<stop offset="1" stop-color="#009700" stop-opacity="0"/>
</radialGradient>
<radialGradient id="paint14_radial_37_55229" cx="0" cy="0" r="1" gradientUnits="userSpaceOnUse" gradientTransform="translate(40.1091 284.897) rotate(-180) scale(1.58519 1.58233)">
<stop stop-color="#00FF00"/>
<stop offset="0.1" stop-color="#00D700"/>
<stop offset="0.29" stop-color="#009700"/>
<stop offset="1" stop-color="#009700" stop-opacity="0"/>
</radialGradient>
<radialGradient id="paint15_radial_37_55229" cx="0" cy="0" r="1" gradientUnits="userSpaceOnUse" gradientTransform="translate(59.5974 241.42) rotate(-180) scale(4.52917 4.521)">
<stop stop-color="#00FF00"/>
<stop offset="0.1" stop-color="#00D700"/>
<stop offset="0.29" stop-color="#009700"/>
<stop offset="1" stop-color="#009700" stop-opacity="0"/>
</radialGradient>
<radialGradient id="paint16_radial_37_55229" cx="0" cy="0" r="1" gradientUnits="userSpaceOnUse" gradientTransform="translate(18.5974 209.42) rotate(-180) scale(4.52917 4.521)">
<stop stop-color="#00FF00"/>
<stop offset="0.1" stop-color="#00D700"/>
<stop offset="0.29" stop-color="#009700"/>
<stop offset="1" stop-color="#009700" stop-opacity="0"/>
</radialGradient>
<radialGradient id="paint17_radial_37_55229" cx="0" cy="0" r="1" gradientUnits="userSpaceOnUse" gradientTransform="translate(121.195 284.84) rotate(-180) scale(9.1308 9.11433)">
<stop stop-color="#00FF00"/>
<stop offset="0.1" stop-color="#00D700"/>
<stop offset="0.29" stop-color="#009700"/>
<stop offset="1" stop-color="#009700" stop-opacity="0"/>
</radialGradient>
<radialGradient id="paint18_radial_37_55229" cx="0" cy="0" r="1" gradientUnits="userSpaceOnUse" gradientTransform="translate(284.352 20.6785) rotate(-180) scale(8.08783 8.07325)">
<stop stop-color="#00FF00"/>
<stop offset="0.1" stop-color="#00D700"/>
<stop offset="0.29" stop-color="#009700"/>
<stop offset="1" stop-color="#009700" stop-opacity="0"/>
</radialGradient>
<radialGradient id="paint19_radial_37_55229" cx="0" cy="0" r="1" gradientUnits="userSpaceOnUse" gradientTransform="translate(288.342 65.665) rotate(-180) scale(4.04391 4.03662)">
<stop stop-color="#00FF00"/>
<stop offset="0.1" stop-color="#00D700"/>
<stop offset="0.29" stop-color="#009700"/>
<stop offset="1" stop-color="#009700" stop-opacity="0"/>
</radialGradient>
<radialGradient id="paint20_radial_37_55229" cx="0" cy="0" r="1" gradientUnits="userSpaceOnUse" gradientTransform="translate(240.141 32.8714) rotate(-180) scale(3.23513 3.22929)">
<stop stop-color="#00FF00"/>
<stop offset="0.1" stop-color="#00D700"/>
<stop offset="0.29" stop-color="#009700"/>
<stop offset="1" stop-color="#009700" stop-opacity="0"/>
</radialGradient>
<radialGradient id="paint21_radial_37_55229" cx="0" cy="0" r="1" gradientUnits="userSpaceOnUse" gradientTransform="translate(251.07 13.9357) rotate(-180) scale(1.61757 1.61465)">
<stop stop-color="#00FF00"/>
<stop offset="0.1" stop-color="#00D700"/>
<stop offset="0.29" stop-color="#009700"/>
<stop offset="1" stop-color="#009700" stop-opacity="0"/>
</radialGradient>
<radialGradient id="paint22_radial_37_55229" cx="0" cy="0" r="1" gradientUnits="userSpaceOnUse" gradientTransform="translate(271.141 35.8714) rotate(-180) scale(3.23513 3.22929)">
<stop stop-color="#00FF00"/>
<stop offset="0.1" stop-color="#00D700"/>
<stop offset="0.29" stop-color="#009700"/>
<stop offset="1" stop-color="#009700" stop-opacity="0"/>
</radialGradient>
</defs>
</svg>
