<svg width="300" height="300" viewBox="0 0 300 300" fill="none" xmlns="http://www.w3.org/2000/svg">
<path d="M22.4656 69.5395L128.621 31.7173L127.243 45.0998L164.035 35.6955L149.984 30.4009L220.915 15L275.905 46.4454L294 66.9507L269.824 165.631L250.044 175.43L241.091 211.644L227.054 229.706L208.255 281.774L189.281 268.041L167.376 215.007L164.035 223.037L167.376 273.145L155.903 281.774L112.078 234.226L94.3932 192.221L76.1952 186.195L62.9057 150.771L27.1104 116.986L7.97461 85.233L22.4656 69.5395Z" fill="#89FF00"/>
<path d="M19.491 72.2746L125.646 34.4523L124.269 47.8349L161.061 38.4305L146.994 33.136L217.94 17.735L272.93 49.1805L291.026 69.6858L266.849 168.366L247.069 178.18L238.116 214.379L224.08 232.441L205.281 284.509L186.292 270.776L164.401 217.742L161.061 225.772L164.401 275.88L152.929 284.509L109.104 236.961L91.4186 194.97L73.2206 188.93L59.9311 153.506L24.1358 119.721L5 87.968L19.491 72.2746Z" fill="#6D1FD6"/>
<path d="M217.94 17.735L226.849 140.094L216.211 144.453L197.354 221.37L183.977 232.032L186.292 270.776L164.401 217.742L137.632 164.475L131.742 197.34L152.929 284.509L109.104 236.961L91.4186 194.97L88.1219 171.905L59.9311 153.506L24.1358 119.721L5 87.968L19.491 72.2746L125.646 34.4523L99.1843 56.6104L111.609 70.8559L124.269 47.8349L161.061 38.4305L146.994 33.136L217.94 17.735Z" fill="url(#paint0_linear_8_75054)"/>
<path d="M217.94 17.735L265.545 57.9852L265.311 113.826L221.149 61.8025L225.09 115.991L258.79 149.133L255.215 157.923L226.849 140.094L266.849 168.366L291.025 69.6858L272.93 49.1805L217.94 17.735Z" fill="#873BFF"/>
<path style="mix-blend-mode:multiply" opacity="0.33" d="M5 87.968L81.8507 96.056L99.1843 56.6103L111.609 70.8558L161.398 65.766L168.518 43.9298L161.06 38.4304L146.994 33.1359L184.152 37.2019L205.09 73.7956L212.563 123.523L172.929 149.133L173.427 198.319L141.427 148.241L125.998 155.393L117.236 189.763L91.4186 194.97L88.1219 171.905L72.9129 145.082L59.9311 153.506L38.5682 111.574L24.1358 119.72L5 87.968Z" fill="url(#paint1_linear_8_75054)"/>
<path d="M247.069 178.18L212.24 160.643L209.178 173.105L242.087 198.319L247.069 178.18Z" fill="#873BFF"/>
<path d="M239.874 207.241L207.332 180.608L205.72 187.233L238.116 214.379L239.874 207.241Z" fill="#873BFF"/>
<path d="M224.08 232.442L197.354 221.37L199.259 213.604L224.08 232.442Z" fill="#873BFF"/>
<path d="M183.977 232.032L217.486 250.694L213.442 261.898L184.27 237.063L183.977 232.032Z" fill="#873BFF"/>
<path d="M184.548 241.656L212.343 264.94L205.281 284.509L194.204 276.494L203.156 279.756L205.72 266.987L184.548 241.656Z" fill="#873BFF"/>
<path d="M206.467 264.033L212.563 260.069L215.493 250.08L218.57 229.575L237.706 212.287L238.893 194.488L238.424 176.98L265.047 167.181L266.849 168.366L247.069 178.18L242.087 198.319L239.874 207.241L238.116 214.379L224.079 232.441L213.442 261.898L205.281 284.509L206.467 264.033Z" fill="#873BFF"/>
<path d="M161.397 211.746L164.401 217.742L161.06 225.772L164.401 275.88L152.929 284.509L161.397 275.543L156.885 240.895L139.287 228.39L138.086 223.461L155.595 232.032L158.658 225.64L131.741 197.339L160.24 220.287L161.397 211.746Z" fill="#873BFF"/>
<path d="M86.047 23.1423C86.8332 19.6627 84.6447 16.2058 81.1588 15.421C77.673 14.6362 74.2098 16.8207 73.4236 20.3003C72.6374 23.7799 74.8258 27.2368 78.3117 28.0216C81.7976 28.8064 85.2608 26.6219 86.047 23.1423Z" fill="url(#paint2_radial_8_75054)" style="mix-blend-mode:screen"/>
<path d="M81.5129 21.7372C81.5129 22.0841 81.4098 22.4233 81.2167 22.7118C81.0235 23.0003 80.7491 23.2252 80.4279 23.358C80.1068 23.4908 79.7534 23.5255 79.4125 23.4578C79.0715 23.3901 78.7584 23.223 78.5126 22.9777C78.2668 22.7323 78.0994 22.4197 78.0316 22.0794C77.9638 21.7391 77.9986 21.3863 78.1316 21.0658C78.2646 20.7452 78.4899 20.4712 78.7789 20.2785C79.0679 20.0857 79.4077 19.9828 79.7553 19.9828C80.2215 19.9828 80.6685 20.1676 80.9981 20.4966C81.3277 20.8256 81.5129 21.2719 81.5129 21.7372Z" fill="#89FF00"/>
<path d="M58.5588 51.4279C59.5415 47.0785 56.8059 42.7572 52.4486 41.7763C48.0912 40.7953 43.7622 43.526 42.7795 47.8754C41.7967 52.2249 44.5323 56.5461 48.8897 57.5271C53.247 58.5081 57.576 55.7774 58.5588 51.4279Z" fill="url(#paint3_radial_8_75054)" style="mix-blend-mode:screen"/>
<path d="M52.8912 49.6715C52.8912 50.1052 52.7623 50.5292 52.5209 50.8898C52.2795 51.2504 51.9364 51.5315 51.535 51.6975C51.1335 51.8635 50.6918 51.9069 50.2656 51.8223C49.8395 51.7377 49.448 51.5288 49.1408 51.2221C48.8335 50.9154 48.6243 50.5247 48.5395 50.0993C48.4548 49.6739 48.4983 49.233 48.6645 48.8323C48.8308 48.4316 49.1124 48.0891 49.4737 47.8481C49.835 47.6071 50.2597 47.4785 50.6942 47.4785C51.2769 47.4785 51.8357 47.7096 52.2477 48.1208C52.6597 48.5321 52.8912 49.0899 52.8912 49.6715Z" fill="#89FF00"/>
<path d="M264.715 225.138C266.091 219.049 262.261 212.999 256.161 211.626C250.061 210.253 244 214.076 242.624 220.165C241.248 226.254 245.078 232.304 251.178 233.677C257.279 235.051 263.339 231.228 264.715 225.138Z" fill="url(#paint4_radial_8_75054)" style="mix-blend-mode:screen"/>
<path d="M256.781 222.679C256.781 223.287 256.6 223.88 256.262 224.385C255.924 224.89 255.444 225.283 254.882 225.516C254.32 225.748 253.701 225.809 253.105 225.691C252.508 225.572 251.96 225.28 251.53 224.85C251.1 224.421 250.807 223.874 250.688 223.278C250.57 222.683 250.63 222.065 250.863 221.504C251.096 220.943 251.49 220.464 251.996 220.127C252.502 219.789 253.097 219.609 253.705 219.609C254.521 219.609 255.303 219.933 255.88 220.508C256.456 221.084 256.781 221.865 256.781 222.679Z" fill="#89FF00"/>
<path d="M295.213 248.506C296.286 243.756 293.299 239.037 288.541 237.966C283.783 236.895 279.055 239.877 277.982 244.626C276.909 249.376 279.896 254.095 284.655 255.166C289.413 256.237 294.14 253.255 295.213 248.506Z" fill="url(#paint5_radial_8_75054)" style="mix-blend-mode:screen"/>
<path d="M289.024 246.588C289.024 247.061 288.883 247.524 288.62 247.918C288.356 248.312 287.982 248.619 287.543 248.8C287.105 248.981 286.622 249.029 286.157 248.936C285.692 248.844 285.264 248.616 284.929 248.281C284.593 247.946 284.365 247.519 284.272 247.055C284.18 246.59 284.227 246.109 284.409 245.671C284.59 245.234 284.898 244.86 285.292 244.596C285.687 244.333 286.151 244.193 286.625 244.193C287.261 244.193 287.872 244.445 288.321 244.894C288.771 245.343 289.024 245.952 289.024 246.588Z" fill="#89FF00"/>
<path d="M255.666 267.799C256.766 262.928 253.703 258.088 248.822 256.989C243.942 255.891 239.094 258.949 237.993 263.82C236.892 268.692 239.956 273.532 244.836 274.63C249.717 275.729 254.565 272.671 255.666 267.799Z" fill="url(#paint6_radial_8_75054)" style="mix-blend-mode:screen"/>
<path d="M249.318 265.832C249.318 266.318 249.174 266.793 248.903 267.197C248.633 267.6 248.249 267.915 247.799 268.101C247.35 268.287 246.855 268.336 246.377 268.241C245.9 268.146 245.462 267.912 245.118 267.569C244.774 267.225 244.539 266.788 244.444 266.311C244.349 265.835 244.398 265.341 244.584 264.892C244.77 264.443 245.086 264.06 245.491 263.79C245.895 263.52 246.371 263.376 246.858 263.376C247.51 263.376 248.136 263.635 248.597 264.095C249.059 264.556 249.318 265.181 249.318 265.832Z" fill="#89FF00"/>
<path d="M224.248 271.805C224.798 269.369 223.266 266.949 220.826 266.4C218.386 265.85 215.962 267.379 215.411 269.815C214.861 272.251 216.393 274.671 218.833 275.22C221.273 275.769 223.697 274.24 224.248 271.805Z" fill="url(#paint7_radial_8_75054)" style="mix-blend-mode:screen"/>
<path d="M221.074 270.821C221.074 271.064 221.002 271.301 220.866 271.503C220.731 271.705 220.539 271.863 220.314 271.955C220.09 272.048 219.842 272.073 219.604 272.025C219.365 271.978 219.146 271.861 218.974 271.689C218.802 271.518 218.684 271.299 218.637 271.06C218.589 270.822 218.614 270.575 218.707 270.351C218.8 270.127 218.958 269.935 219.16 269.8C219.362 269.665 219.6 269.593 219.844 269.593C220.17 269.593 220.483 269.722 220.713 269.953C220.944 270.183 221.074 270.495 221.074 270.821Z" fill="#89FF00"/>
<path d="M174.833 253.4C175.383 250.964 173.851 248.544 171.411 247.995C168.971 247.445 166.547 248.975 165.996 251.41C165.446 253.846 166.978 256.266 169.418 256.815C171.858 257.364 174.283 255.835 174.833 253.4Z" fill="url(#paint8_radial_8_75054)" style="mix-blend-mode:screen"/>
<path d="M171.659 252.416C171.659 252.659 171.587 252.896 171.452 253.098C171.316 253.3 171.124 253.458 170.9 253.551C170.675 253.644 170.427 253.668 170.189 253.62C169.95 253.573 169.731 253.456 169.559 253.284C169.387 253.113 169.27 252.894 169.222 252.656C169.175 252.417 169.199 252.17 169.292 251.946C169.385 251.722 169.543 251.53 169.745 251.395C169.948 251.26 170.185 251.188 170.429 251.188C170.755 251.188 171.068 251.317 171.299 251.548C171.529 251.778 171.659 252.09 171.659 252.416Z" fill="#89FF00"/>
<path d="M270.916 208.2C271.192 206.982 270.426 205.772 269.206 205.497C267.986 205.223 266.773 205.987 266.498 207.205C266.223 208.423 266.989 209.633 268.209 209.908C269.429 210.182 270.641 209.418 270.916 208.2Z" fill="url(#paint9_radial_8_75054)" style="mix-blend-mode:screen"/>
<path d="M269.329 207.708C269.329 207.829 269.293 207.948 269.226 208.049C269.158 208.15 269.062 208.229 268.95 208.275C268.837 208.322 268.714 208.334 268.594 208.31C268.475 208.287 268.365 208.228 268.279 208.142C268.193 208.056 268.135 207.947 268.111 207.828C268.087 207.709 268.099 207.585 268.146 207.473C268.193 207.361 268.271 207.265 268.373 207.197C268.474 207.13 268.593 207.094 268.714 207.094C268.877 207.094 269.034 207.159 269.149 207.274C269.265 207.389 269.329 207.545 269.329 207.708Z" fill="#89FF00"/>
<path d="M200.916 290.2C201.192 288.982 200.426 287.772 199.206 287.497C197.986 287.223 196.773 287.987 196.498 289.205C196.223 290.423 196.989 291.633 198.209 291.908C199.429 292.182 200.641 291.418 200.916 290.2Z" fill="url(#paint10_radial_8_75054)" style="mix-blend-mode:screen"/>
<path d="M199.329 289.708C199.329 289.829 199.293 289.948 199.226 290.049C199.158 290.15 199.062 290.229 198.95 290.275C198.837 290.322 198.714 290.334 198.594 290.31C198.475 290.287 198.365 290.228 198.279 290.142C198.193 290.056 198.135 289.947 198.111 289.828C198.087 289.709 198.099 289.585 198.146 289.473C198.193 289.361 198.271 289.265 198.373 289.197C198.474 289.13 198.593 289.094 198.714 289.094C198.877 289.094 199.034 289.159 199.149 289.274C199.265 289.389 199.329 289.545 199.329 289.708Z" fill="#89FF00"/>
<path d="M201.8 290.399C202.185 288.694 201.113 287 199.405 286.615C197.697 286.231 196 287.301 195.615 289.006C195.23 290.711 196.302 292.405 198.01 292.79C199.718 293.174 201.415 292.104 201.8 290.399Z" fill="url(#paint11_radial_8_75054)" style="mix-blend-mode:screen"/>
<path d="M199.579 289.71C199.579 289.88 199.528 290.046 199.433 290.188C199.339 290.329 199.204 290.439 199.047 290.504C198.89 290.569 198.716 290.586 198.549 290.553C198.382 290.52 198.229 290.438 198.108 290.318C197.988 290.198 197.906 290.045 197.873 289.878C197.84 289.711 197.857 289.538 197.922 289.381C197.987 289.224 198.097 289.09 198.239 288.995C198.381 288.901 198.547 288.851 198.717 288.851C198.946 288.851 199.165 288.941 199.326 289.102C199.488 289.264 199.579 289.482 199.579 289.71Z" fill="#89FF00"/>
<path d="M268.916 253.2C269.192 251.982 268.426 250.772 267.206 250.497C265.986 250.223 264.773 250.987 264.498 252.205C264.223 253.423 264.989 254.633 266.209 254.908C267.429 255.182 268.641 254.418 268.916 253.2Z" fill="url(#paint12_radial_8_75054)" style="mix-blend-mode:screen"/>
<path d="M267.329 252.708C267.329 252.829 267.293 252.948 267.226 253.049C267.158 253.15 267.062 253.229 266.95 253.275C266.837 253.322 266.714 253.334 266.594 253.31C266.475 253.287 266.365 253.228 266.279 253.142C266.193 253.056 266.135 252.947 266.111 252.828C266.087 252.709 266.099 252.585 266.146 252.473C266.193 252.361 266.271 252.265 266.373 252.197C266.474 252.13 266.593 252.094 266.714 252.094C266.877 252.094 267.034 252.159 267.149 252.274C267.265 252.389 267.329 252.545 267.329 252.708Z" fill="#89FF00"/>
<path d="M256.916 192.2C257.192 190.982 256.426 189.772 255.206 189.497C253.986 189.223 252.773 189.987 252.498 191.205C252.223 192.423 252.989 193.633 254.209 193.908C255.429 194.182 256.641 193.418 256.916 192.2Z" fill="url(#paint13_radial_8_75054)" style="mix-blend-mode:screen"/>
<path d="M255.329 191.708C255.329 191.829 255.293 191.948 255.226 192.049C255.158 192.15 255.062 192.229 254.95 192.275C254.837 192.322 254.714 192.334 254.594 192.31C254.475 192.287 254.365 192.228 254.279 192.142C254.193 192.056 254.135 191.947 254.111 191.828C254.087 191.709 254.099 191.585 254.146 191.473C254.193 191.361 254.271 191.265 254.373 191.197C254.474 191.13 254.593 191.094 254.714 191.094C254.877 191.094 255.034 191.159 255.149 191.274C255.265 191.389 255.329 191.545 255.329 191.708Z" fill="#89FF00"/>
<path d="M261.441 285.24C261.634 284.387 261.098 283.54 260.244 283.348C259.39 283.156 258.541 283.691 258.349 284.544C258.156 285.396 258.692 286.243 259.546 286.435C260.4 286.628 261.249 286.092 261.441 285.24Z" fill="url(#paint14_radial_8_75054)" style="mix-blend-mode:screen"/>
<path d="M260.331 284.896C260.331 284.981 260.305 285.064 260.258 285.134C260.211 285.205 260.144 285.26 260.065 285.293C259.986 285.325 259.9 285.334 259.816 285.317C259.733 285.301 259.656 285.26 259.596 285.199C259.535 285.139 259.494 285.063 259.478 284.979C259.461 284.896 259.47 284.81 259.502 284.731C259.535 284.653 259.59 284.585 259.661 284.538C259.732 284.491 259.815 284.466 259.9 284.466C260.014 284.466 260.124 284.511 260.205 284.592C260.285 284.672 260.331 284.782 260.331 284.896Z" fill="#89FF00"/>
<path d="M244.833 242.4C245.383 239.964 243.851 237.544 241.411 236.995C238.971 236.445 236.547 237.975 235.996 240.41C235.446 242.846 236.978 245.266 239.418 245.815C241.858 246.364 244.283 244.835 244.833 242.4Z" fill="url(#paint15_radial_8_75054)" style="mix-blend-mode:screen"/>
<path d="M241.659 241.416C241.659 241.659 241.587 241.896 241.452 242.098C241.316 242.3 241.124 242.458 240.9 242.551C240.675 242.644 240.427 242.668 240.189 242.62C239.95 242.573 239.731 242.456 239.559 242.284C239.387 242.113 239.27 241.894 239.222 241.656C239.175 241.417 239.199 241.17 239.292 240.946C239.385 240.722 239.543 240.53 239.745 240.395C239.948 240.26 240.185 240.188 240.429 240.188C240.755 240.188 241.068 240.317 241.299 240.548C241.529 240.778 241.659 241.09 241.659 241.416Z" fill="#89FF00"/>
<path d="M285.833 210.4C286.383 207.964 284.851 205.544 282.411 204.995C279.971 204.445 277.547 205.975 276.996 208.41C276.446 210.846 277.978 213.266 280.418 213.815C282.858 214.364 285.283 212.835 285.833 210.4Z" fill="url(#paint16_radial_8_75054)" style="mix-blend-mode:screen"/>
<path d="M282.659 209.416C282.659 209.659 282.587 209.896 282.452 210.098C282.316 210.3 282.124 210.458 281.9 210.551C281.675 210.644 281.427 210.668 281.189 210.62C280.95 210.573 280.731 210.456 280.559 210.284C280.387 210.113 280.27 209.894 280.222 209.656C280.175 209.417 280.199 209.17 280.292 208.946C280.385 208.722 280.543 208.53 280.745 208.395C280.948 208.26 281.185 208.188 281.429 208.188C281.755 208.188 282.068 208.317 282.299 208.548C282.529 208.778 282.659 209.09 282.659 209.416Z" fill="#89FF00"/>
<path d="M187.737 286.815C188.846 281.905 185.758 277.026 180.838 275.919C175.919 274.811 171.032 277.894 169.923 282.805C168.813 287.715 171.901 292.593 176.821 293.701C181.74 294.808 186.627 291.726 187.737 286.815Z" fill="url(#paint17_radial_8_75054)" style="mix-blend-mode:screen"/>
<path d="M181.338 284.832C181.338 285.322 181.193 285.801 180.92 286.208C180.648 286.615 180.26 286.932 179.807 287.12C179.354 287.307 178.855 287.356 178.374 287.26C177.893 287.165 177.451 286.929 177.104 286.583C176.757 286.237 176.521 285.796 176.425 285.315C176.33 284.835 176.379 284.337 176.566 283.885C176.754 283.432 177.072 283.046 177.48 282.774C177.888 282.502 178.367 282.357 178.858 282.357C179.516 282.357 180.147 282.617 180.612 283.082C181.077 283.546 181.338 284.176 181.338 284.832Z" fill="#89FF00"/>
<path d="M23.5588 22.4279C24.5415 18.0785 21.8059 13.7572 17.4486 12.7763C13.0912 11.7953 8.76222 14.526 7.77946 18.8754C6.79669 23.2249 9.53232 27.5461 13.8897 28.5271C18.247 29.5081 22.576 26.7774 23.5588 22.4279Z" fill="url(#paint18_radial_8_75054)" style="mix-blend-mode:screen"/>
<path d="M17.8912 20.6715C17.8912 21.1052 17.7623 21.5292 17.5209 21.8898C17.2795 22.2504 16.9364 22.5315 16.535 22.6975C16.1335 22.8635 15.6918 22.9069 15.2656 22.8223C14.8395 22.7377 14.448 22.5288 14.1408 22.2221C13.8335 21.9154 13.6243 21.5247 13.5395 21.0993C13.4548 20.6739 13.4983 20.233 13.6645 19.8323C13.8308 19.4316 14.1124 19.0891 14.4737 18.8481C14.835 18.6071 15.2597 18.4785 15.6942 18.4785C16.2769 18.4785 16.8357 18.7096 17.2477 19.1208C17.6597 19.5321 17.8912 20.0899 17.8912 20.6715Z" fill="#89FF00"/>
<path d="M15.6138 66.5398C16.1052 64.365 14.7374 62.2044 12.5587 61.7139C10.3801 61.2235 8.21558 62.5888 7.7242 64.7635C7.23282 66.9383 8.60063 69.0989 10.7793 69.5894C12.958 70.0799 15.1225 68.7145 15.6138 66.5398Z" fill="url(#paint19_radial_8_75054)" style="mix-blend-mode:screen"/>
<path d="M12.7799 65.6616C12.7799 65.8784 12.7155 66.0904 12.5948 66.2707C12.4741 66.4511 12.3025 66.5916 12.1018 66.6746C11.9011 66.7576 11.6802 66.7793 11.4672 66.737C11.2541 66.6947 11.0584 66.5902 10.9047 66.4369C10.7511 66.2836 10.6465 66.0882 10.6041 65.8755C10.5617 65.6628 10.5835 65.4423 10.6666 65.242C10.7498 65.0416 10.8906 64.8704 11.0712 64.7499C11.2518 64.6294 11.4642 64.5651 11.6815 64.5651C11.9728 64.5651 12.2522 64.6806 12.4582 64.8862C12.6642 65.0919 12.7799 65.3708 12.7799 65.6616Z" fill="#89FF00"/>
<path d="M63.0235 33.5712C63.4166 31.8314 62.3223 30.1029 60.5794 29.7105C58.8365 29.3181 57.1049 30.4104 56.7118 32.1502C56.3187 33.8899 57.4129 35.6184 59.1559 36.0108C60.8988 36.4032 62.6304 35.3109 63.0235 33.5712Z" fill="url(#paint20_radial_8_75054)" style="mix-blend-mode:screen"/>
<path d="M60.7566 32.8686C60.7566 33.0421 60.705 33.2117 60.6085 33.3559C60.5119 33.5002 60.3747 33.6126 60.2141 33.679C60.0535 33.7454 59.8768 33.7627 59.7063 33.7289C59.5359 33.6951 59.3793 33.6115 59.2564 33.4888C59.1335 33.3662 59.0498 33.2099 59.0159 33.0397C58.982 32.8696 58.9994 32.6932 59.0659 32.5329C59.1324 32.3726 59.2451 32.2356 59.3896 32.1392C59.5341 32.0428 59.704 31.9914 59.8778 31.9914C60.1108 31.9914 60.3344 32.0838 60.4992 32.2483C60.664 32.4128 60.7566 32.6359 60.7566 32.8686Z" fill="#89FF00"/>
<path d="M50.5118 14.2856C50.7083 13.4157 50.1612 12.5514 49.2897 12.3552C48.4183 12.1591 47.5524 12.7052 47.3559 13.5751C47.1593 14.445 47.7065 15.3092 48.5779 15.5054C49.4494 15.7016 50.3152 15.1555 50.5118 14.2856Z" fill="url(#paint21_radial_8_75054)" style="mix-blend-mode:screen"/>
<path d="M49.3783 13.9343C49.3783 14.021 49.3525 14.1058 49.3042 14.178C49.2559 14.2501 49.1873 14.3063 49.107 14.3395C49.0268 14.3727 48.9384 14.3814 48.8532 14.3645C48.7679 14.3475 48.6897 14.3058 48.6282 14.2444C48.5668 14.1831 48.5249 14.1049 48.508 14.0199C48.491 13.9348 48.4997 13.8466 48.533 13.7664C48.5662 13.6863 48.6225 13.6178 48.6948 13.5696C48.767 13.5214 48.852 13.4957 48.9389 13.4957C49.0554 13.4957 49.1672 13.5419 49.2496 13.6242C49.332 13.7064 49.3783 13.818 49.3783 13.9343Z" fill="#89FF00"/>
<path d="M32.0235 36.5712C32.4166 34.8314 31.3223 33.1029 29.5794 32.7105C27.8365 32.3181 26.1049 33.4104 25.7118 35.1502C25.3187 36.8899 26.4129 38.6184 28.1559 39.0108C29.8988 39.4032 31.6304 38.3109 32.0235 36.5712Z" fill="url(#paint22_radial_8_75054)" style="mix-blend-mode:screen"/>
<path d="M29.7566 35.8686C29.7566 36.0421 29.705 36.2117 29.6085 36.3559C29.5119 36.5002 29.3747 36.6126 29.2141 36.679C29.0535 36.7454 28.8768 36.7627 28.7063 36.7289C28.5359 36.6951 28.3793 36.6115 28.2564 36.4888C28.1335 36.3662 28.0498 36.2099 28.0159 36.0397C27.982 35.8696 27.9994 35.6932 28.0659 35.5329C28.1324 35.3726 28.2451 35.2356 28.3896 35.1392C28.5341 35.0428 28.704 34.9914 28.8778 34.9914C29.1108 34.9914 29.3344 35.0838 29.4992 35.2483C29.664 35.4128 29.7566 35.6359 29.7566 35.8686Z" fill="#89FF00"/>
<defs>
<linearGradient id="paint0_linear_8_75054" x1="115.917" y1="284.509" x2="115.917" y2="17.735" gradientUnits="userSpaceOnUse">
<stop stop-color="#6D1FD6"/>
<stop offset="0.21" stop-color="#5F1FBA"/>
<stop offset="0.67" stop-color="#3A1F74"/>
<stop offset="1" stop-color="#291756"/>
</linearGradient>
<linearGradient id="paint1_linear_8_75054" x1="108.781" y1="198.319" x2="108.781" y2="33.1359" gradientUnits="userSpaceOnUse">
<stop stop-color="white"/>
<stop offset="0.15" stop-color="#E3E3E7"/>
<stop offset="0.47" stop-color="#9C9DAA"/>
<stop offset="0.95" stop-color="#2C2D49"/>
<stop offset="1" stop-color="#1E1F3D"/>
</linearGradient>
<radialGradient id="paint2_radial_8_75054" cx="0" cy="0" r="1" gradientUnits="userSpaceOnUse" gradientTransform="translate(79.7181 21.7427) scale(6.47025 6.45859)">
<stop stop-color="#00FF00"/>
<stop offset="0.1" stop-color="#00D700"/>
<stop offset="0.29" stop-color="#009700"/>
<stop offset="1" stop-color="#009700" stop-opacity="0"/>
</radialGradient>
<radialGradient id="paint3_radial_8_75054" cx="0" cy="0" r="1" gradientUnits="userSpaceOnUse" gradientTransform="translate(50.6476 49.6785) scale(8.08783 8.07325)">
<stop stop-color="#00FF00"/>
<stop offset="0.1" stop-color="#00D700"/>
<stop offset="0.29" stop-color="#009700"/>
<stop offset="1" stop-color="#009700" stop-opacity="0"/>
</radialGradient>
<radialGradient id="paint4_radial_8_75054" cx="0" cy="0" r="1" gradientUnits="userSpaceOnUse" gradientTransform="translate(253.639 222.689) scale(11.3229 11.3025)">
<stop stop-color="#00FF00"/>
<stop offset="0.1" stop-color="#00D700"/>
<stop offset="0.29" stop-color="#009700"/>
<stop offset="1" stop-color="#009700" stop-opacity="0"/>
</radialGradient>
<radialGradient id="paint5_radial_8_75054" cx="0" cy="0" r="1" gradientUnits="userSpaceOnUse" gradientTransform="translate(286.574 246.595) scale(8.83191 8.81598)">
<stop stop-color="#00FF00"/>
<stop offset="0.1" stop-color="#00D700"/>
<stop offset="0.29" stop-color="#009700"/>
<stop offset="1" stop-color="#009700" stop-opacity="0"/>
</radialGradient>
<radialGradient id="paint6_radial_8_75054" cx="0" cy="0" r="1" gradientUnits="userSpaceOnUse" gradientTransform="translate(246.805 265.84) scale(9.05836 9.04202)">
<stop stop-color="#00FF00"/>
<stop offset="0.1" stop-color="#00D700"/>
<stop offset="0.29" stop-color="#009700"/>
<stop offset="1" stop-color="#009700" stop-opacity="0"/>
</radialGradient>
<radialGradient id="paint7_radial_8_75054" cx="0" cy="0" r="1" gradientUnits="userSpaceOnUse" gradientTransform="translate(219.817 270.825) scale(4.52917 4.521)">
<stop stop-color="#00FF00"/>
<stop offset="0.1" stop-color="#00D700"/>
<stop offset="0.29" stop-color="#009700"/>
<stop offset="1" stop-color="#009700" stop-opacity="0"/>
</radialGradient>
<radialGradient id="paint8_radial_8_75054" cx="0" cy="0" r="1" gradientUnits="userSpaceOnUse" gradientTransform="translate(170.403 252.42) scale(4.52917 4.521)">
<stop stop-color="#00FF00"/>
<stop offset="0.1" stop-color="#00D700"/>
<stop offset="0.29" stop-color="#009700"/>
<stop offset="1" stop-color="#009700" stop-opacity="0"/>
</radialGradient>
<radialGradient id="paint9_radial_8_75054" cx="0" cy="0" r="1" gradientUnits="userSpaceOnUse" gradientTransform="translate(268.701 207.71) scale(2.26458 2.2605)">
<stop stop-color="#00FF00"/>
<stop offset="0.1" stop-color="#00D700"/>
<stop offset="0.29" stop-color="#009700"/>
<stop offset="1" stop-color="#009700" stop-opacity="0"/>
</radialGradient>
<radialGradient id="paint10_radial_8_75054" cx="0" cy="0" r="1" gradientUnits="userSpaceOnUse" gradientTransform="translate(198.701 289.71) scale(2.26458 2.2605)">
<stop stop-color="#00FF00"/>
<stop offset="0.1" stop-color="#00D700"/>
<stop offset="0.29" stop-color="#009700"/>
<stop offset="1" stop-color="#009700" stop-opacity="0"/>
</radialGradient>
<radialGradient id="paint11_radial_8_75054" cx="0" cy="0" r="1" gradientUnits="userSpaceOnUse" gradientTransform="translate(198.699 289.713) scale(3.17038 3.16466)">
<stop stop-color="#00FF00"/>
<stop offset="0.1" stop-color="#00D700"/>
<stop offset="0.29" stop-color="#009700"/>
<stop offset="1" stop-color="#009700" stop-opacity="0"/>
</radialGradient>
<radialGradient id="paint12_radial_8_75054" cx="0" cy="0" r="1" gradientUnits="userSpaceOnUse" gradientTransform="translate(266.701 252.71) scale(2.26458 2.2605)">
<stop stop-color="#00FF00"/>
<stop offset="0.1" stop-color="#00D700"/>
<stop offset="0.29" stop-color="#009700"/>
<stop offset="1" stop-color="#009700" stop-opacity="0"/>
</radialGradient>
<radialGradient id="paint13_radial_8_75054" cx="0" cy="0" r="1" gradientUnits="userSpaceOnUse" gradientTransform="translate(254.701 191.71) scale(2.26458 2.2605)">
<stop stop-color="#00FF00"/>
<stop offset="0.1" stop-color="#00D700"/>
<stop offset="0.29" stop-color="#009700"/>
<stop offset="1" stop-color="#009700" stop-opacity="0"/>
</radialGradient>
<radialGradient id="paint14_radial_8_75054" cx="0" cy="0" r="1" gradientUnits="userSpaceOnUse" gradientTransform="translate(259.891 284.897) scale(1.58519 1.58233)">
<stop stop-color="#00FF00"/>
<stop offset="0.1" stop-color="#00D700"/>
<stop offset="0.29" stop-color="#009700"/>
<stop offset="1" stop-color="#009700" stop-opacity="0"/>
</radialGradient>
<radialGradient id="paint15_radial_8_75054" cx="0" cy="0" r="1" gradientUnits="userSpaceOnUse" gradientTransform="translate(240.403 241.42) scale(4.52917 4.521)">
<stop stop-color="#00FF00"/>
<stop offset="0.1" stop-color="#00D700"/>
<stop offset="0.29" stop-color="#009700"/>
<stop offset="1" stop-color="#009700" stop-opacity="0"/>
</radialGradient>
<radialGradient id="paint16_radial_8_75054" cx="0" cy="0" r="1" gradientUnits="userSpaceOnUse" gradientTransform="translate(281.403 209.42) scale(4.52917 4.521)">
<stop stop-color="#00FF00"/>
<stop offset="0.1" stop-color="#00D700"/>
<stop offset="0.29" stop-color="#009700"/>
<stop offset="1" stop-color="#009700" stop-opacity="0"/>
</radialGradient>
<radialGradient id="paint17_radial_8_75054" cx="0" cy="0" r="1" gradientUnits="userSpaceOnUse" gradientTransform="translate(178.805 284.84) scale(9.1308 9.11433)">
<stop stop-color="#00FF00"/>
<stop offset="0.1" stop-color="#00D700"/>
<stop offset="0.29" stop-color="#009700"/>
<stop offset="1" stop-color="#009700" stop-opacity="0"/>
</radialGradient>
<radialGradient id="paint18_radial_8_75054" cx="0" cy="0" r="1" gradientUnits="userSpaceOnUse" gradientTransform="translate(15.6476 20.6785) scale(8.08783 8.07325)">
<stop stop-color="#00FF00"/>
<stop offset="0.1" stop-color="#00D700"/>
<stop offset="0.29" stop-color="#009700"/>
<stop offset="1" stop-color="#009700" stop-opacity="0"/>
</radialGradient>
<radialGradient id="paint19_radial_8_75054" cx="0" cy="0" r="1" gradientUnits="userSpaceOnUse" gradientTransform="translate(11.6583 65.665) scale(4.04391 4.03662)">
<stop stop-color="#00FF00"/>
<stop offset="0.1" stop-color="#00D700"/>
<stop offset="0.29" stop-color="#009700"/>
<stop offset="1" stop-color="#009700" stop-opacity="0"/>
</radialGradient>
<radialGradient id="paint20_radial_8_75054" cx="0" cy="0" r="1" gradientUnits="userSpaceOnUse" gradientTransform="translate(59.859 32.8714) scale(3.23513 3.22929)">
<stop stop-color="#00FF00"/>
<stop offset="0.1" stop-color="#00D700"/>
<stop offset="0.29" stop-color="#009700"/>
<stop offset="1" stop-color="#009700" stop-opacity="0"/>
</radialGradient>
<radialGradient id="paint21_radial_8_75054" cx="0" cy="0" r="1" gradientUnits="userSpaceOnUse" gradientTransform="translate(48.9295 13.9357) scale(1.61757 1.61465)">
<stop stop-color="#00FF00"/>
<stop offset="0.1" stop-color="#00D700"/>
<stop offset="0.29" stop-color="#009700"/>
<stop offset="1" stop-color="#009700" stop-opacity="0"/>
</radialGradient>
<radialGradient id="paint22_radial_8_75054" cx="0" cy="0" r="1" gradientUnits="userSpaceOnUse" gradientTransform="translate(28.859 35.8714) scale(3.23513 3.22929)">
<stop stop-color="#00FF00"/>
<stop offset="0.1" stop-color="#00D700"/>
<stop offset="0.29" stop-color="#009700"/>
<stop offset="1" stop-color="#009700" stop-opacity="0"/>
</radialGradient>
</defs>
</svg>
