<svg width="570" height="696" viewBox="0 0 570 696" fill="none" xmlns="http://www.w3.org/2000/svg">
<g clip-path="url(#clip0_44_55350)">
<rect x="103.2" y="304.8" width="36" height="3.6" rx="1.8" transform="rotate(-90 103.2 304.8)" fill="#89FF00"/>
<rect x="119.4" y="304.8" width="36" height="3.6" rx="1.8" transform="rotate(-90 119.4 304.8)" fill="#89FF00"/>
<rect x="135.6" y="304.8" width="36" height="3.6" rx="1.8" transform="rotate(-90 135.6 304.8)" fill="#89FF00"/>
<rect x="79" y="244.6" width="84.4" height="84.4" rx="42.2" stroke="#89FF00" stroke-width="2"/>
<rect x="254.4" y="265.2" width="3.6" height="43.2" rx="1.8" fill="#89FF00"/>
<rect x="272.4" y="265.2" width="3.6" height="43.2" rx="1.8" fill="#89FF00"/>
<rect x="290.4" y="265.2" width="3.6" height="43.2" rx="1.8" fill="#89FF00"/>
<rect x="308.4" y="265.2" width="3.6" height="43.2" rx="1.8" fill="#89FF00"/>
<rect x="326.4" y="265.2" width="3.6" height="43.2" rx="1.8" fill="#89FF00"/>
<rect x="344.4" y="265.2" width="3.6" height="43.2" rx="1.8" fill="#89FF00"/>
<rect x="362.4" y="265.2" width="3.6" height="43.2" rx="1.8" fill="#89FF00"/>
<rect x="380.4" y="265.2" width="3.6" height="43.2" rx="1.8" fill="#89FF00"/>
<rect x="398.4" y="265.2" width="3.6" height="43.2" rx="1.8" fill="#89FF00"/>
<rect x="416.4" y="265.2" width="3.6" height="43.2" rx="1.8" fill="#89FF00"/>
<rect x="434.4" y="265.2" width="3.6" height="43.2" rx="1.8" fill="#89FF00"/>
<rect x="201.4" y="244.6" width="289.6" height="84.4" rx="42.2" stroke="#89FF00" stroke-width="2"/>
<rect x="132" y="387.6" width="3.6" height="43.2" rx="1.8" fill="white"/>
<rect x="150" y="387.6" width="3.6" height="43.2" rx="1.8" fill="white"/>
<rect x="168" y="387.6" width="3.6" height="43.2" rx="1.8" fill="white"/>
<rect x="186" y="387.6" width="3.6" height="43.2" rx="1.8" fill="white"/>
<rect x="204" y="387.6" width="3.6" height="43.2" rx="1.8" fill="white"/>
<rect x="222" y="387.6" width="3.6" height="43.2" rx="1.8" fill="white"/>
<rect x="240" y="387.6" width="3.6" height="43.2" rx="1.8" fill="white"/>
<rect x="258" y="387.6" width="3.6" height="43.2" rx="1.8" fill="white"/>
<rect x="276" y="387.6" width="3.6" height="43.2" rx="1.8" fill="white"/>
<rect x="294" y="387.6" width="3.6" height="43.2" rx="1.8" fill="white"/>
<rect x="312" y="387.6" width="3.6" height="43.2" rx="1.8" fill="white"/>
<rect x="79" y="367" width="289.6" height="84.4" rx="42.2" stroke="white" stroke-width="2"/>
<rect x="430.8" y="427.2" width="36" height="3.6" rx="1.8" transform="rotate(-90 430.8 427.2)" fill="white"/>
<rect x="447" y="427.2" width="36" height="3.6" rx="1.8" transform="rotate(-90 447 427.2)" fill="white"/>
<rect x="463.2" y="427.2" width="36" height="3.6" rx="1.8" transform="rotate(-90 463.2 427.2)" fill="white"/>
<rect x="406.6" y="367" width="84.4" height="84.4" rx="42.2" stroke="white" stroke-width="2"/>
</g>
<defs>
<clipPath id="clip0_44_55350">
<rect width="570" height="696" fill="white"/>
</clipPath>
</defs>
</svg>
