<svg width="570" height="696" viewBox="0 0 570 696" fill="none" xmlns="http://www.w3.org/2000/svg">
<g clip-path="url(#clip0_44_55468)">
<rect x="99.6" y="274" width="3.6" height="28.8" rx="1.8" fill="#89FF00"/>
<rect x="117.6" y="274" width="3.6" height="28.8" rx="1.8" fill="#89FF00"/>
<rect x="135.6" y="274" width="3.6" height="28.8" rx="1.8" fill="#89FF00"/>
<rect x="153.6" y="274" width="3.6" height="28.8" rx="1.8" fill="#89FF00"/>
<rect x="171.6" y="274" width="3.6" height="28.8" rx="1.8" fill="#89FF00"/>
<rect x="189.6" y="274" width="3.6" height="28.8" rx="1.8" fill="#89FF00"/>
<rect x="207.6" y="274" width="3.6" height="28.8" rx="1.8" fill="#89FF00"/>
<rect x="225.6" y="274" width="3.6" height="28.8" rx="1.8" fill="#89FF00"/>
<rect x="243.6" y="274" width="3.6" height="28.8" rx="1.8" fill="#89FF00"/>
<rect x="261.6" y="274" width="3.6" height="28.8" rx="1.8" fill="#89FF00"/>
<rect x="279.6" y="274" width="3.6" height="28.8" rx="1.8" fill="#89FF00"/>
<path fill-rule="evenodd" clip-rule="evenodd" d="M413.7 287.77C413.7 279.419 420.469 272.65 428.82 272.65H455.28C463.63 272.65 470.4 279.419 470.4 287.77V289.03C470.4 297.38 463.63 304.15 455.28 304.15H428.82C420.469 304.15 413.7 297.38 413.7 289.03V287.77Z" fill="#89FF00"/>
<path fill-rule="evenodd" clip-rule="evenodd" d="M456.54 299.11C462.803 299.11 467.88 294.033 467.88 287.77C467.88 281.507 462.803 276.43 456.54 276.43C450.277 276.43 445.2 281.507 445.2 287.77C445.2 294.033 450.277 299.11 456.54 299.11Z" fill="white"/>
<path d="M96 249.8H474C483.389 249.8 491 257.411 491 266.8V310C491 319.389 483.389 327 474 327H96C86.6112 327 79 319.389 79 310V266.8C79 257.411 86.6112 249.8 96 249.8Z" stroke="white" stroke-width="2"/>
<rect x="99.6" y="393.2" width="3.6" height="28.8" rx="1.8" fill="#89FF00"/>
<rect x="117.6" y="393.2" width="3.6" height="28.8" rx="1.8" fill="#89FF00"/>
<rect x="135.6" y="393.2" width="3.6" height="28.8" rx="1.8" fill="#89FF00"/>
<rect x="153.6" y="393.2" width="3.6" height="28.8" rx="1.8" fill="#89FF00"/>
<rect x="171.6" y="393.2" width="3.6" height="28.8" rx="1.8" fill="#89FF00"/>
<rect x="189.6" y="393.2" width="3.6" height="28.8" rx="1.8" fill="#89FF00"/>
<rect x="207.6" y="393.2" width="3.6" height="28.8" rx="1.8" fill="#89FF00"/>
<rect x="225.6" y="393.2" width="3.6" height="28.8" rx="1.8" fill="#89FF00"/>
<rect x="243.6" y="393.2" width="3.6" height="28.8" rx="1.8" fill="#89FF00"/>
<rect x="261.6" y="393.2" width="3.6" height="28.8" rx="1.8" fill="#89FF00"/>
<rect x="279.6" y="393.2" width="3.6" height="28.8" rx="1.8" fill="#89FF00"/>
<path fill-rule="evenodd" clip-rule="evenodd" d="M413.7 406.97C413.7 398.62 420.469 391.85 428.82 391.85H455.28C463.63 391.85 470.4 398.62 470.4 406.97V408.23C470.4 416.581 463.63 423.35 455.28 423.35H428.82C420.469 423.35 413.7 416.581 413.7 408.23V406.97Z" fill="#13D7B7" fill-opacity="0.2"/>
<path fill-rule="evenodd" clip-rule="evenodd" d="M427.56 418.31C433.823 418.31 438.9 413.233 438.9 406.97C438.9 400.707 433.823 395.63 427.56 395.63C421.297 395.63 416.22 400.707 416.22 406.97C416.22 413.233 421.297 418.31 427.56 418.31Z" fill="#89FF00"/>
<path d="M96 369H474C483.389 369 491 376.611 491 386V429.2C491 438.589 483.389 446.2 474 446.2H96C86.6112 446.2 79 438.589 79 429.2V386C79 376.611 86.6112 369 96 369Z" stroke="white" stroke-width="2"/>
</g>
<defs>
<clipPath id="clip0_44_55468">
<rect width="570" height="696" fill="white"/>
</clipPath>
</defs>
</svg>
