<svg width="570" height="696" viewBox="0 0 570 696" fill="none" xmlns="http://www.w3.org/2000/svg">
<g clip-path="url(#clip0_44_55426)">
<g clip-path="url(#clip1_44_55426)">
<path d="M129.074 226.04H89.0937C84.6775 226.04 81.0975 229.62 81.0975 234.036V274.017C81.0975 278.433 84.6775 282.013 89.0937 282.013H129.074C133.491 282.013 137.071 278.433 137.071 274.017V234.036C137.071 229.62 133.491 226.04 129.074 226.04Z" fill="#89FF00"/>
<path d="M124.7 241.45H121.971C121.588 241.45 121.225 241.626 120.991 241.927L104.893 262.319L97.1744 252.539C96.9362 252.238 96.577 252.063 96.1944 252.063H93.4652C93.2036 252.063 93.0591 252.363 93.2192 252.566L103.913 266.114C104.413 266.747 105.374 266.747 105.877 266.114L124.946 241.95C125.106 241.751 124.962 241.45 124.7 241.45Z" fill="white" stroke="white" stroke-width="3.33173"/>
<path d="M183.853 227.039H482.099C487.511 227.039 491.899 231.426 491.899 236.839V271.212C491.899 276.624 487.511 281.012 482.099 281.012H183.853C178.44 281.012 174.053 276.624 174.053 271.212V236.839C174.053 231.426 178.44 227.039 183.853 227.039Z" stroke="#89FF00" stroke-width="2"/>
<path d="M129.074 318.013H89.0937C84.6775 318.013 81.0975 321.593 81.0975 326.01V365.99C81.0975 370.407 84.6775 373.987 89.0937 373.987H129.074C133.491 373.987 137.071 370.407 137.071 365.99V326.01C137.071 321.593 133.491 318.013 129.074 318.013Z" stroke="white" stroke-width="2"/>
<path d="M183.855 319.014H482.101C487.513 319.014 491.901 323.402 491.901 328.814V363.187C491.901 368.6 487.513 372.987 482.101 372.987H183.855C178.442 372.987 174.055 368.6 174.055 363.187V328.814C174.055 323.402 178.442 319.014 183.855 319.014Z" stroke="white" stroke-width="2"/>
<path d="M129.074 409.988H89.0937C84.6775 409.988 81.0975 413.568 81.0975 417.984V457.964C81.0975 462.381 84.6775 465.961 89.0937 465.961H129.074C133.491 465.961 137.071 462.381 137.071 457.964V417.984C137.071 413.568 133.491 409.988 129.074 409.988Z" stroke="white" stroke-width="2"/>
<path d="M183.855 410.989H482.101C487.513 410.989 491.901 415.376 491.901 420.789V455.162C491.901 460.574 487.513 464.962 482.101 464.962H183.855C178.442 464.962 174.055 460.574 174.055 455.162V420.789C174.055 415.376 178.442 410.989 183.855 410.989Z" stroke="white" stroke-width="2"/>
</g>
</g>
<defs>
<clipPath id="clip0_44_55426">
<rect width="570" height="696" fill="white"/>
</clipPath>
<clipPath id="clip1_44_55426">
<rect width="415.8" height="299.856" fill="white" transform="translate(77.1 198.072)"/>
</clipPath>
</defs>
</svg>
