<svg width="570" height="696" viewBox="0 0 570 696" fill="none" xmlns="http://www.w3.org/2000/svg">
<g clip-path="url(#clip0_44_55401)">
<g clip-path="url(#clip1_44_55401)">
<path d="M97.5299 211.135H469.44C480.817 211.135 490.04 220.358 490.04 231.735V461.236C490.04 472.613 480.817 481.836 469.44 481.836H97.5299C86.1529 481.836 76.9299 472.613 76.9299 461.236V231.735C76.9299 220.358 86.1529 211.135 97.5299 211.135Z" stroke="white" stroke-width="2"/>
<path d="M512.249 246.495H57.7493V249.525H512.249V246.495Z" fill="#89FF00"/>
<path d="M116.834 505.56L116.834 190.44H113.804L113.804 505.56H116.834Z" fill="#89FF00"/>
<path d="M456.194 505.56V190.44H453.164V505.56H456.194Z" fill="#89FF00"/>
<path d="M512.249 443.444H57.7493V446.474H512.249V443.444Z" fill="#89FF00"/>
<path d="M171.337 305.743H185.153L226.022 409.588H213.078L202.025 380.5H154.32L143.267 409.588H130.468L171.337 305.743ZM158.102 370.464H198.243L178.609 318.542H178.027L158.102 370.464ZM267.796 332.359C278.559 332.359 286.413 335.122 291.649 340.795C296.012 345.739 298.339 352.575 298.339 361.302V409.588H287.431V396.934C284.522 401.007 280.595 404.352 275.941 406.97C270.414 410.024 264.16 411.624 257.179 411.624C249.616 411.624 243.653 409.733 239.145 405.952C234.491 402.025 232.164 396.934 232.164 390.826C232.164 382.245 235.509 375.846 242.49 371.482C248.598 367.41 257.325 365.228 268.669 365.083L286.704 364.792V360.865C286.704 348.212 280.159 341.958 267.069 341.958C261.542 341.958 257.034 342.976 253.543 345.303C249.616 347.63 247.144 351.266 245.98 356.066L234.491 355.193C236.09 347.339 240.017 341.376 246.126 337.595C251.653 334.104 258.779 332.359 267.796 332.359ZM286.704 373.519L269.396 373.809C252.525 374.1 244.09 379.627 244.09 390.535C244.09 394.026 245.399 396.789 248.307 399.116C251.216 401.298 254.998 402.461 259.652 402.461C266.778 402.461 273.032 400.134 278.559 395.48C283.94 390.971 286.704 385.735 286.704 379.918V373.519Z" fill="#89FF00"/>
<path opacity="0.2" d="M430.439 285.885H218.339V304.065H430.439V285.885Z" fill="#89FF00"/>
<path opacity="0.2" d="M430.44 319.216H321.36V337.396H430.44V319.216Z" fill="#89FF00"/>
<path opacity="0.2" d="M430.44 349.514H321.36V367.694H430.44V349.514Z" fill="#89FF00"/>
<path opacity="0.2" d="M430.44 382.844H321.36V401.024H430.44V382.844Z" fill="#89FF00"/>
</g>
</g>
<defs>
<clipPath id="clip0_44_55401">
<rect width="570" height="696" fill="white"/>
</clipPath>
<clipPath id="clip1_44_55401">
<rect width="454.5" height="315.12" fill="white" transform="translate(57.75 190.44)"/>
</clipPath>
</defs>
</svg>
