<svg width="570" height="696" viewBox="0 0 570 696" fill="none" xmlns="http://www.w3.org/2000/svg">
<g clip-path="url(#clip0_44_55418)">
<g clip-path="url(#clip1_44_55418)">
<path d="M87.9 235.602H255.3C260.712 235.602 265.1 239.99 265.1 245.402V318.302C265.1 323.714 260.712 328.102 255.3 328.102H87.9C82.4876 328.102 78.1 323.714 78.1 318.302V245.402C78.1 239.99 82.4876 235.602 87.9 235.602ZM87.9 367.902H255.3C260.712 367.902 265.1 372.29 265.1 377.702V450.602C265.1 456.014 260.712 460.402 255.3 460.402H87.9C82.4876 460.402 78.1 456.014 78.1 450.602V377.702C78.1 372.29 82.4876 367.902 87.9 367.902ZM314.7 235.602H482.1C487.512 235.602 491.9 239.99 491.9 245.402V318.302C491.9 323.714 487.512 328.102 482.1 328.102H314.7C309.288 328.102 304.9 323.714 304.9 318.302V245.402C304.9 239.99 309.288 235.602 314.7 235.602ZM314.7 367.902H482.1C487.512 367.902 491.9 372.29 491.9 377.702V450.602C491.9 456.014 487.512 460.402 482.1 460.402H314.7C309.288 460.402 304.9 456.014 304.9 450.602V377.702C304.9 372.29 309.288 367.902 314.7 367.902Z" stroke="white" stroke-width="2"/>
<path d="M303.31 290.712H302.129V283.625H267.873V290.712H266.691V275.356H267.873V282.443H302.129V275.356H303.31V290.712ZM303.31 423.012H302.129V415.925H267.873V423.012H266.691V407.656H267.873V414.743H302.129V407.656H303.31V423.012ZM165.104 366.312V365.131H172.191V330.875H165.104V329.693H180.46V330.875H173.373V365.131H180.46V366.312H165.104ZM391.904 366.312V365.131H398.991V330.875H391.904V329.693H407.26V330.875H400.173V365.131H407.26V366.312H391.904Z" stroke="#89FF00" stroke-width="2"/>
</g>
</g>
<defs>
<clipPath id="clip0_44_55418">
<rect width="570" height="696" fill="white"/>
</clipPath>
<clipPath id="clip1_44_55418">
<rect width="415.8" height="226.8" fill="white" transform="translate(77.1 234.6)"/>
</clipPath>
</defs>
</svg>
