<svg width="570" height="696" viewBox="0 0 570 696" fill="none" xmlns="http://www.w3.org/2000/svg">
<g clip-path="url(#clip0_44_55448)">
<path d="M285.645 271.675H128.6C126.612 271.675 125 273.287 125 275.275V291.878C125 293.867 126.612 295.478 128.6 295.478H285.645C287.633 295.478 289.245 293.867 289.245 291.878V275.275C289.245 273.287 287.633 271.675 285.645 271.675Z" fill="#89FF00"/>
<path opacity="0.2" d="M451.87 315.479H129C126.791 315.479 125 317.269 125 319.479V325.761C125 327.97 126.791 329.761 129 329.761H451.87C454.08 329.761 455.87 327.97 455.87 325.761V319.479C455.87 317.269 454.08 315.479 451.87 315.479Z" fill="#89FF00"/>
<path opacity="0.2" d="M451.87 349.76H129C126.791 349.76 125 351.551 125 353.761V360.043C125 362.252 126.791 364.043 129 364.043H451.87C454.08 364.043 455.87 362.252 455.87 360.043V353.76C455.87 351.551 454.08 349.76 451.87 349.76Z" fill="#89FF00"/>
<path opacity="0.2" d="M451.87 384.043H129C126.791 384.043 125 385.834 125 388.043V394.325C125 396.534 126.791 398.325 129 398.325H451.87C454.08 398.325 455.87 396.534 455.87 394.325V388.043C455.87 385.834 454.08 384.043 451.87 384.043Z" fill="#89FF00"/>
<path d="M133.515 418.999H133.385L133.261 419.032C130.339 419.799 127.149 421.378 123.358 424.557L98.9225 445.051C96.9729 446.686 94 445.299 94 442.748V261.999C94 255.924 98.9249 250.999 105 250.999H465C471.075 250.999 476 255.924 476 261.999V407.999C476 414.074 471.075 418.999 465 418.999H133.515Z" stroke="white" stroke-width="2"/>
</g>
<defs>
<clipPath id="clip0_44_55448">
<rect width="570" height="696" fill="white"/>
</clipPath>
</defs>
</svg>
